<svg xmlns="http://www.w3.org/2000/svg" width="400" height="300" viewBox="0 0 400 300">
  <g id="Grupo_1013476" data-name="Grupo 1013476" transform="translate(-285 -4370)">
    <path id="Rectángulo_345868" data-name="Rectángulo 345868" d="M9,0H27a9,9,0,0,1,9,9V255A27,27,0,0,1,9,282H9a9,9,0,0,1-9-9V9A9,9,0,0,1,9,0Z" transform="translate(649 4388)" fill="#4db1f0"/>
    <rect id="ecologista-tomando-muestras-agua-tubo-ensayo-rio-ciudad-determinar-nivel-contaminacion-polucion" width="387" height="300" rx="20" transform="translate(285 4370)" fill="#fff"/>
    <circle id="Elipse_8318" data-name="Elipse 8318" cx="4.5" cy="4.5" r="4.5" transform="translate(676 4370)" fill="#008b8a"/>
    <ellipse id="Elipse_8319" data-name="Elipse 8319" cx="10" cy="9.5" rx="10" ry="9.5" transform="translate(661 4393)" fill="#ffa031"/>
    <g id="Grupo_1012418" data-name="Grupo 1012418" transform="translate(-13.909 1)">
      <g id="Grupo_1012417" data-name="Grupo 1012417" transform="translate(130.817 4220.59)">
        <g id="Grupo_1012413" data-name="Grupo 1012413" transform="translate(254.091 184.41)">
          <path id="Rectángulo_349631" data-name="Rectángulo 349631" d="M15.717,0H153.163A15.716,15.716,0,0,1,168.88,15.716V204.525a15.716,15.716,0,0,1-15.716,15.716H15.716A15.716,15.716,0,0,1,0,204.525V15.717A15.717,15.717,0,0,1,15.717,0Z" fill="#2a486b"/>
          <path id="Rectángulo_349632" data-name="Rectángulo 349632" d="M9.048,0H155.727a9.048,9.048,0,0,1,9.048,9.048v198.04a9.049,9.049,0,0,1-9.049,9.049H9.049A9.049,9.049,0,0,1,0,207.088V9.048A9.048,9.048,0,0,1,9.048,0Z" transform="translate(2.052 2.052)" fill="#2b5f91"/>
          <path id="Rectángulo_349633" data-name="Rectángulo 349633" d="M14.923,0H68.739A14.923,14.923,0,0,1,83.662,14.923v4.752A14.924,14.924,0,0,1,68.739,34.6H14.924A14.924,14.924,0,0,1,0,19.675V14.923A14.923,14.923,0,0,1,14.923,0Z" transform="translate(42.609 12.971)" fill="#d1d1d1"/>
          <g id="Grupo_1012407" data-name="Grupo 1012407" transform="translate(54.142 18.347)">
            <g id="Grupo_1012405" data-name="Grupo 1012405">
              <circle id="Elipse_8872" data-name="Elipse 8872" cx="4.496" cy="4.496" r="4.496" transform="translate(0.293 0.293)" fill="#d9dbdb"/>
              <path id="Trazado_730937" data-name="Trazado 730937" d="M413.662,236.86a4.789,4.789,0,1,0,4.789,4.789A4.794,4.794,0,0,0,413.662,236.86Zm0,8.991a4.2,4.2,0,1,1,4.2-4.2A4.207,4.207,0,0,1,413.662,245.851Z" transform="translate(-408.873 -236.86)" fill="#c9c9c9"/>
            </g>
            <g id="Grupo_1012406" data-name="Grupo 1012406" transform="translate(51.018)">
              <circle id="Elipse_8873" data-name="Elipse 8873" cx="4.496" cy="4.496" r="4.496" transform="translate(0.293 0.293)" fill="#d9dbdb"/>
              <path id="Trazado_730938" data-name="Trazado 730938" d="M559.515,236.86a4.789,4.789,0,1,0,4.789,4.789A4.794,4.794,0,0,0,559.515,236.86Zm0,8.991a4.2,4.2,0,1,1,4.2-4.2A4.207,4.207,0,0,1,559.515,245.851Z" transform="translate(-554.726 -236.86)" fill="#c9c9c9"/>
            </g>
          </g>
          <rect id="Rectángulo_349634" data-name="Rectángulo 349634" width="133.697" height="172.983" transform="translate(10.134 35.703) rotate(-5.124)" fill="#b6cfe3"/>
          <rect id="Rectángulo_349635" data-name="Rectángulo 349635" width="175.557" height="133.697" transform="translate(16.963 207.826) rotate(-89.589)" fill="#bad7e5"/>
          <rect id="Rectángulo_349636" data-name="Rectángulo 349636" width="175.557" height="133.697" transform="translate(13.68 200.535) rotate(-87.401)" fill="#dbeaef"/>
          <rect id="Rectángulo_349637" data-name="Rectángulo 349637" width="175.557" height="133.697" transform="translate(17.473 203.567) rotate(-89.923)" fill="#f2f2f2"/>
          <path id="Trazado_730939" data-name="Trazado 730939" d="M459.518,198.72H394.662a4.37,4.37,0,0,0-4.37,4.37v18.528a4.37,4.37,0,0,0,4.37,4.37h21.954a8.3,8.3,0,0,1,3.4.713,20.049,20.049,0,0,0,14.155,0,8.3,8.3,0,0,1,3.4-.713h21.954a4.705,4.705,0,0,0,4.59-4.248V203.212A4.734,4.734,0,0,0,459.518,198.72Zm2.318,22.9a2.318,2.318,0,0,1-2.318,2.318H436.812a6.984,6.984,0,0,0-3.151.741,17.722,17.722,0,0,1-13.141,0,6.983,6.983,0,0,0-3.151-.741H394.662a2.318,2.318,0,0,1-2.318-2.318V203.09a2.318,2.318,0,0,1,2.318-2.318h64.855a2.318,2.318,0,0,1,2.318,2.318Z" transform="translate(-342.65 -193.714)" fill="#ddd"/>
          <path id="Trazado_730940" data-name="Trazado 730940" d="M586.4,253.624h-2.121a.164.164,0,0,0-.163.161l-.064,3.239a2.328,2.328,0,0,1-2.171,2.464H578.64a.163.163,0,0,0-.164.163v2.019a.164.164,0,0,0,.164.164H581.7a4.56,4.56,0,0,0,4.765-4.789l.093-3.253A.164.164,0,0,0,586.4,253.624Z" transform="translate(-465.008 -229.413)" fill="#4f6970"/>
          <path id="Trazado_730941" data-name="Trazado 730941" d="M397.611,259.488h-3.236a2.328,2.328,0,0,1-2.171-2.464l-.064-3.239a.164.164,0,0,0-.164-.161h-2.121a.164.164,0,0,0-.164.168l.093,3.253a4.56,4.56,0,0,0,4.765,4.789h3.062a.164.164,0,0,0,.163-.164v-2.019A.163.163,0,0,0,397.611,259.488Z" transform="translate(-342.259 -229.413)" fill="#4f6970"/>
          <path id="Trazado_730942" data-name="Trazado 730942" d="M466.835,189.646H408.947a2.25,2.25,0,0,0-2.043,2.259v9.069h61.975v-9.069A2.25,2.25,0,0,0,466.835,189.646Z" transform="translate(-353.451 -187.814)" fill="#ddd"/>
          <rect id="Rectángulo_349638" data-name="Rectángulo 349638" width="61.965" height="3.239" transform="translate(53.458 5.348)" fill="#e2e2e2"/>
          <rect id="Rectángulo_349639" data-name="Rectángulo 349639" width="61.965" height="4.192" transform="translate(53.458 8.877)" fill="#d8d8d8"/>
          <rect id="Rectángulo_349640" data-name="Rectángulo 349640" width="61.965" height="0.866" transform="translate(53.458 4.374)" fill="#d8d8d8"/>
          <g id="Grupo_1012408" data-name="Grupo 1012408" transform="translate(32.712 93.045)">
            <rect id="Rectángulo_349641" data-name="Rectángulo 349641" width="82.331" height="4.977" transform="translate(21.125 2.185)" fill="#a3c0c9"/>
            <rect id="Rectángulo_349642" data-name="Rectángulo 349642" width="82.331" height="4.977" transform="translate(21.125 15.324)" fill="#a3c0c9"/>
            <rect id="Rectángulo_349643" data-name="Rectángulo 349643" width="82.331" height="4.977" transform="translate(21.125 28.464)" fill="#a3c0c9"/>
            <rect id="Rectángulo_349644" data-name="Rectángulo 349644" width="82.331" height="4.977" transform="translate(21.125 41.604)" fill="#a3c0c9"/>
            <rect id="Rectángulo_349645" data-name="Rectángulo 349645" width="82.331" height="4.977" transform="translate(21.125 54.743)" fill="#a3c0c9"/>
            <rect id="Rectángulo_349646" data-name="Rectángulo 349646" width="82.331" height="4.977" transform="translate(21.125 67.883)" fill="#a3c0c9"/>
            <rect id="Rectángulo_349647" data-name="Rectángulo 349647" width="82.331" height="4.977" transform="translate(21.125 81.023)" fill="#a3c0c9"/>
            <rect id="Rectángulo_349648" data-name="Rectángulo 349648" width="9.354" height="9.354" fill="#ccd9db"/>
            <rect id="Rectángulo_349649" data-name="Rectángulo 349649" width="9.354" height="9.354" transform="translate(0 13.14)" fill="#ccd9db"/>
            <rect id="Rectángulo_349650" data-name="Rectángulo 349650" width="9.354" height="9.354" transform="translate(0 26.279)" fill="#ccd9db"/>
            <rect id="Rectángulo_349651" data-name="Rectángulo 349651" width="9.354" height="9.354" transform="translate(0 39.419)" fill="#ccd9db"/>
            <rect id="Rectángulo_349652" data-name="Rectángulo 349652" width="9.354" height="9.354" transform="translate(0 52.559)" fill="#ccd9db"/>
            <rect id="Rectángulo_349653" data-name="Rectángulo 349653" width="9.354" height="9.354" transform="translate(0 65.699)" fill="#ccd9db"/>
            <rect id="Rectángulo_349654" data-name="Rectángulo 349654" width="9.354" height="9.354" transform="translate(0 78.838)" fill="#ccd9db"/>
          </g>
          <g id="Grupo_1012409" data-name="Grupo 1012409" transform="translate(38.553 52.681)">
            <path id="Trazado_730943" data-name="Trazado 730943" d="M379.81,345.133l-5.554-.015a2.383,2.383,0,0,0-1.61.435,1.585,1.585,0,0,0,0,2.274,2.383,2.383,0,0,0,1.61.435h3.189V350.5a9.327,9.327,0,0,1-3.921.808,6.824,6.824,0,0,1-4.631-1.3,4.864,4.864,0,0,1-1.457-3.822v-2.258a5.924,5.924,0,0,1,.824-3.052,5.279,5.279,0,0,1,1.8-1.968,6.555,6.555,0,0,1,3.235-.763,7.483,7.483,0,0,1,2.342.343,3.5,3.5,0,0,1,1.457.786,2.571,2.571,0,0,1,.465,1.06,1.874,1.874,0,0,0,.511,1.015,1.415,1.415,0,0,0,.946.335,1.444,1.444,0,0,0,1.121-.481,2.38,2.38,0,0,0,.435-1.609v-2.03a2.379,2.379,0,0,0-.427-1.6,1.43,1.43,0,0,0-1.114-.473,1.857,1.857,0,0,0-1.22.565,9.611,9.611,0,0,0-2.189-.778,11.062,11.062,0,0,0-2.434-.259,8.332,8.332,0,0,0-6.973,3.326,8.864,8.864,0,0,0-1.907,5.584v2.258a8.452,8.452,0,0,0,.778,3.669,7.893,7.893,0,0,0,1.7,2.479,7.173,7.173,0,0,0,2.525,1.388,13.323,13.323,0,0,0,4.44.717,11.8,11.8,0,0,0,3.211-.419,18.558,18.558,0,0,0,3.608-1.564v-4.2a1.935,1.935,0,0,0,1-.61,1.5,1.5,0,0,0,.328-.961,1.437,1.437,0,0,0-.481-1.129A2.413,2.413,0,0,0,379.81,345.133Z" transform="translate(-364.309 -335.017)" fill="#2e5070"/>
            <path id="Trazado_730944" data-name="Trazado 730944" d="M425.627,335.017a8.156,8.156,0,0,0-5.645,2.3,10.371,10.371,0,0,0,0,14.815,8.155,8.155,0,0,0,5.645,2.3,8.238,8.238,0,0,0,6.126-2.769,10.427,10.427,0,0,0,0-13.884A8.238,8.238,0,0,0,425.627,335.017Zm3.921,14.434a5.038,5.038,0,0,1-7.827-.008,7.3,7.3,0,0,1,0-9.421,5.025,5.025,0,0,1,7.827-.008,7.318,7.318,0,0,1,0,9.437Z" transform="translate(-398.484 -335.017)" fill="#2e5070"/>
            <path id="Trazado_730945" data-name="Trazado 730945" d="M486.149,351.95a2.846,2.846,0,0,0-1.45-.244l-6.225-15.364-6.759-.015a2.381,2.381,0,0,0-1.61.435,1.584,1.584,0,0,0,0,2.273,2.383,2.383,0,0,0,1.61.435h2.045l-4.913,12.236a2.406,2.406,0,0,0-1.663.412,1.568,1.568,0,0,0-.023,2.281,2.383,2.383,0,0,0,1.61.435h4.211a2.383,2.383,0,0,0,1.61-.435,1.444,1.444,0,0,0,.481-1.122,1.461,1.461,0,0,0-.481-1.136,2.381,2.381,0,0,0-1.61-.435h-.763l.763-1.907h7.6l.748,1.907h-.763a2.38,2.38,0,0,0-1.609.435,1.443,1.443,0,0,0-.481,1.121,1.461,1.461,0,0,0,.481,1.137,2.382,2.382,0,0,0,1.609.435h4.211a2.351,2.351,0,0,0,1.6-.435,1.454,1.454,0,0,0,.473-1.122A1.558,1.558,0,0,0,486.149,351.95Zm-11.916-5.279,2.533-6.194,2.517,6.194Z" transform="translate(-430.872 -335.868)" fill="#2e5070"/>
            <path id="Trazado_730946" data-name="Trazado 730946" d="M540.61,346.655a1.461,1.461,0,0,0-1.137.481,2.384,2.384,0,0,0-.435,1.61v2.96h-6.744V339.469h1.831a2.382,2.382,0,0,0,1.609-.435,1.461,1.461,0,0,0,.481-1.137,1.437,1.437,0,0,0-.481-1.129,2.412,2.412,0,0,0-1.609-.427l-6.774-.015a2.38,2.38,0,0,0-1.609.435,1.584,1.584,0,0,0,0,2.273,2.382,2.382,0,0,0,1.609.435h1.816v12.236h-1.816a2.38,2.38,0,0,0-1.609.435,1.443,1.443,0,0,0-.481,1.121,1.461,1.461,0,0,0,.481,1.137,2.382,2.382,0,0,0,1.609.435h14.815v-6.088a2.384,2.384,0,0,0-.435-1.61A1.444,1.444,0,0,0,540.61,346.655Z" transform="translate(-468.961 -335.868)" fill="#2e5070"/>
            <path id="Trazado_730947" data-name="Trazado 730947" d="M593.379,344.263a18.6,18.6,0,0,0-3.692-1.037,22.7,22.7,0,0,1-2.922-.687,2.62,2.62,0,0,1-1.182-.847,1.852,1.852,0,0,1-.4-1.121,2.166,2.166,0,0,1,.984-1.64,4.177,4.177,0,0,1,2.678-.786,4.959,4.959,0,0,1,2.045.4,3.352,3.352,0,0,1,1.327.977,2.88,2.88,0,0,1,.427,1.114,1.754,1.754,0,0,0,.5,1.037,1.536,1.536,0,0,0,1.007.351,1.442,1.442,0,0,0,1.121-.481,2.381,2.381,0,0,0,.435-1.61v-2.35a2.353,2.353,0,0,0-.435-1.594,1.442,1.442,0,0,0-1.121-.481,1.776,1.776,0,0,0-1.221.6,6.238,6.238,0,0,0-1.869-.816,8.883,8.883,0,0,0-2.235-.267,7.028,7.028,0,0,0-4.882,1.686,5.138,5.138,0,0,0-1.877,3.929,4.892,4.892,0,0,0,.763,2.64,5.177,5.177,0,0,0,2.075,1.892,14.747,14.747,0,0,0,3.875,1.145,21.021,21.021,0,0,1,2.731.625,2.985,2.985,0,0,1,1.343.847,1.71,1.71,0,0,1,.412,1.091,1.746,1.746,0,0,1-.855,1.465,5.691,5.691,0,0,1-3.433.976,6.164,6.164,0,0,1-2.472-.488,4.833,4.833,0,0,1-1.572-.961,2.592,2.592,0,0,1-.412-.923,1.842,1.842,0,0,0-.572-.969,1.463,1.463,0,0,0-.923-.29,1.479,1.479,0,0,0-1.152.481,2.383,2.383,0,0,0-.435,1.61v2.105a2.356,2.356,0,0,0,.435,1.595,1.479,1.479,0,0,0,1.152.481,1.275,1.275,0,0,0,.618-.137,2.764,2.764,0,0,0,.664-.625,10.431,10.431,0,0,0,2.388.938,10.207,10.207,0,0,0,2.525.313,8.261,8.261,0,0,0,5.524-1.831,4.621,4.621,0,0,0,1.632-3.707,4.832,4.832,0,0,0-.854-2.868A5.11,5.11,0,0,0,593.379,344.263Z" transform="translate(-505.489 -335.017)" fill="#2e5070"/>
          </g>
          <g id="Grupo_1012410" data-name="Grupo 1012410" transform="translate(31.5 83.383)">
            <path id="Trazado_730948" data-name="Trazado 730948" d="M349.968,437.25c-1.2-2.166-2.473-4.308-3.8-6.391l-2.019,1.134c1.73,2.708,3.364,5.517,4.854,8.348l1.128,2.143,8.647-18.824-2.162-.873Z" transform="translate(-344.144 -422.787)" fill="#288d8a"/>
          </g>
          <g id="Grupo_1012411" data-name="Grupo 1012411" transform="translate(31.695 108.939)">
            <path id="Trazado_730949" data-name="Trazado 730949" d="M350.447,510.31c-1.182-2.166-2.44-4.308-3.754-6.391l-1.992,1.134c1.707,2.708,3.319,5.517,4.789,8.348l1.113,2.143,8.532-18.824L357,495.847Z" transform="translate(-344.701 -495.847)" fill="#288d8a"/>
          </g>
          <g id="Grupo_1012412" data-name="Grupo 1012412" transform="translate(31.695 136.633)">
            <path id="Trazado_730950" data-name="Trazado 730950" d="M350.447,589.483c-1.182-2.166-2.44-4.308-3.754-6.391l-1.992,1.134c1.707,2.708,3.319,5.517,4.789,8.349l1.113,2.143,8.532-18.824L357,575.02Z" transform="translate(-344.701 -575.02)" fill="#288d8a"/>
          </g>
        </g>
        <circle id="Elipse_8874" data-name="Elipse 8874" cx="68.176" cy="68.176" r="68.176" transform="translate(324.79 276.219)" fill="#e6f3f4"/>
        <g id="Grupo_1012414" data-name="Grupo 1012414" transform="translate(324.79 276.22)">
          <path id="Trazado_730951" data-name="Trazado 730951" d="M524.382,446.878a68.176,68.176,0,1,0,68.176,68.176A68.176,68.176,0,0,0,524.382,446.878Zm0,127.181a59,59,0,1,1,59-59A59.071,59.071,0,0,1,524.382,574.059Z" transform="translate(-456.206 -446.878)" fill="#e84c3d"/>
          <path id="Trazado_730952" data-name="Trazado 730952" d="M558.48,499.318a49.833,49.833,0,1,0,49.833,49.833A49.89,49.89,0,0,0,558.48,499.318Zm0,90.494a40.661,40.661,0,1,1,40.661-40.661A40.707,40.707,0,0,1,558.48,589.812Z" transform="translate(-490.304 -480.975)" fill="#e84c3d"/>
          <path id="Trazado_730953" data-name="Trazado 730953" d="M592.578,551.759a31.49,31.49,0,1,0,31.489,31.489A31.525,31.525,0,0,0,592.578,551.759Zm0,54.005a22.516,22.516,0,1,1,22.515-22.516A22.541,22.541,0,0,1,592.578,605.764Z" transform="translate(-524.401 -515.072)" fill="#e84c3d"/>
          <path id="Trazado_730954" data-name="Trazado 730954" d="M626.674,604.2a13.146,13.146,0,1,0,13.146,13.146A13.161,13.161,0,0,0,626.674,604.2Zm0,17.121a3.975,3.975,0,1,1,3.974-3.975A3.979,3.979,0,0,1,626.674,621.321Z" transform="translate(-558.498 -549.17)" fill="#e84c3d"/>
          <path id="Trazado_730955" data-name="Trazado 730955" d="M643.723,630.42a3.975,3.975,0,1,0,3.974,3.974A3.979,3.979,0,0,0,643.723,630.42Z" transform="translate(-575.547 -566.218)" fill="#e84c3d"/>
        </g>
        <path id="Trazado_730956" data-name="Trazado 730956" d="M698.16,502.241a20.046,20.046,0,0,0,.463,6.633,68.051,68.051,0,0,0-11.017,7.69l-12.32,9.615,0,0-8.988,7.014c-.02.016-.037.034-.056.051l-.113.088-.018.016h0a2.386,2.386,0,0,0-.348,3.292l.388.47-13.076,10.793-2.738,2.749c-.141.142.013.328.179.217l.923-.622-.752.755c-.141.142.013.328.179.217l.923-.622-.752.755c-.141.142.013.328.179.217l.923-.622-.752.755c-.141.142.013.328.179.217l.923-.622-.752.755c-.141.142.013.328.179.217l.923-.622-.752.755c-.141.142.013.328.179.217l.923-.622-.752.755c-.141.142.013.328.179.217l.923-.622-.752.755c-.141.142.013.328.179.217l.923-.622-.752.755c-.141.142.013.328.179.217l.923-.622-.752.755c-.141.142.013.328.179.217l.923-.622-.752.755c-.141.142.013.328.179.217l.923-.622-.752.755c-.141.142.013.328.179.217l.923-.622-.752.755c-.141.142.013.328.179.217l.923-.622-.752.755c-.141.142.013.328.179.217l.923-.622-.752.755c-.141.142.013.328.179.217l.923-.622-.752.755c-.141.142.013.328.179.217l.923-.622-.752.755c-.141.142.013.328.179.217l.923-.622-.752.755c-.141.142.013.328.179.217l.923-.622-.752.755c-.141.142.013.328.179.217l.923-.622-.752.755c-.141.142.013.328.179.217l.923-.622-.752.755c-.141.142.013.328.179.217l.923-.622-.752.755c-.141.142.013.328.179.217l.923-.622-.752.755c-.141.142.013.328.179.217l.923-.622-.752.755c-.141.142.013.328.179.216l.923-.622-.752.755c-.141.142.013.328.179.217l.923-.622-.752.755c-.141.142.013.328.179.216l.923-.622-.752.755c-.141.142.013.328.179.217l.923-.622-.752.755c-.141.142.013.328.179.216l.923-.622-.752.755c-.141.142.013.328.179.217l.923-.622-.752.755c-.141.142.013.328.179.216l.923-.622-.752.755c-.141.142.013.328.179.217l.923-.622-.752.755c-.141.142.013.328.179.216l.923-.622-.752.755c-.141.142.013.328.179.217l.923-.622-.752.755c-.141.142.013.328.179.216l.923-.622-.752.755c-.141.142.013.328.179.217l.923-.622-.752.755c-.141.142.013.328.179.216l.923-.622-.752.755c-.141.142.013.328.179.217l.923-.622-.752.755c-.141.142.013.328.179.216l.923-.622-.752.755c-.141.142.013.328.179.217l.923-.622-.752.755c-.141.142.013.328.179.216l.923-.622-.752.755c-.141.142.013.328.179.217l.923-.622-.752.755c-.141.142.013.328.179.216l.923-.622-.752.755c-.141.142.013.328.179.216l.923-.622-.752.755c-.141.142.013.328.179.216l.923-.622-.752.755c-.141.142.013.328.179.216l.923-.622-.752.755c-.141.142.013.328.179.216l.923-.622-.752.755c-.141.142.013.328.179.216l.923-.622-.752.755c-.141.142.013.328.179.216l.923-.622-.752.755c-.141.142.013.328.179.216l.923-.622-.752.755c-.141.142.013.328.179.216l.923-.622-.752.755c-.141.142.013.328.179.216l.923-.622-.752.755c-.141.142.013.328.179.217l.923-.622-.752.755c-.141.142.013.328.179.216l.923-.622-.752.755c-.141.142.013.328.179.217l.923-.622-.752.755c-.141.142.013.328.179.216l.923-.622-.752.755c-.141.142.013.328.179.217l.923-.622-.752.755c-.141.142.013.328.179.216l.923-.622-.752.755c-.141.142.013.328.179.217l.923-.622-.752.755c-.141.142.013.328.179.216l.923-.622-.752.755c-.141.142.013.328.179.217l.923-.622-.752.755c-.141.142.013.328.179.216l.923-.622-.752.755c-.141.142.013.328.179.217l.923-.622-.752.755c-.141.142.013.328.179.216l.923-.622-.752.755c-.141.142.013.328.179.217l.923-.622-.752.755c-.141.142.013.328.179.216l.923-.622-.752.755c-.141.142.013.328.179.217l.923-.622-.752.755c-.141.142.013.328.179.216l.923-.622-.752.755c-.141.142.013.328.179.217l.923-.622-.752.755c-.141.142.013.328.179.216l.923-.622-.752.755c-.141.142.013.328.179.217l.923-.622-.752.755c-.141.142.013.328.179.217l.923-.622-.752.755c-.141.142.013.328.179.217l.923-.622-.752.755c-.141.142.013.328.179.217l.923-.622-.752.755c-.141.142.013.328.179.217l.923-.622-.752.755c-.141.142.013.328.179.217l.923-.622-.752.755c-.141.142.013.328.179.217l.923-.622-.752.755c-.141.142.013.328.179.217l.923-.622-.752.755c-.141.142.013.328.179.217l.923-.622-.752.755c-.141.142.013.328.179.217l.923-.622-.752.755c-.141.142.013.328.179.217l.923-.622-.752.755c-.141.142.013.328.179.217l.923-.622-.752.755c-.141.142.013.328.179.217l.923-.622-.752.755c-.141.142.013.328.179.217l.923-.622-.752.755c-.141.142.013.328.179.217l.923-.622-.752.755c-.141.142.013.328.179.217l.923-.622-.752.755c-.141.142.013.328.179.217l.923-.622-.752.755c-.141.142.013.328.179.217l.923-.622-.752.755c-.141.142.013.328.179.217l.923-.622-.752.755c-.141.142.013.328.179.217l.923-.622-.752.755c-.141.142.013.328.179.217l.923-.622-.752.755c-.141.142.013.328.179.217l.923-.622-.752.755c-.141.142.013.328.179.217l.923-.622-.752.755c-.141.142.013.328.179.216l.923-.622-.752.755c-.141.142.013.328.179.217l.923-.622-.752.755c-.141.142.013.328.179.216l.923-.622-.752.755c-.141.142.013.328.179.217l.923-.622-.752.755c-.141.142.013.328.179.216l.923-.622-.752.755c-.141.142.013.328.179.217l.923-.622-.752.755c-.141.142.013.328.179.216l.923-.622-.752.755c-.141.142.013.328.179.217l.923-.622-.752.755c-.141.142.013.328.179.216l.923-.622-.752.755c-.141.142.013.328.179.217l.923-.622-.752.755c-.141.142.013.328.179.216l.923-.622-.752.755c-.141.142.013.328.179.217l.923-.622-.752.755c-.141.142.013.328.179.216l.923-.622-.752.755c-.141.142.013.328.179.217l.923-.622-.752.755c-.141.142.013.328.179.216l.923-.622-.752.755c-.141.142.013.328.179.217l.923-.622-.752.755c-.141.142.013.328.179.216l.923-.622-.752.755c-.141.142.013.328.179.217l.923-.622-.752.755c-.141.142.013.328.179.216l.923-.622-.752.755c-.141.142.013.328.179.217l.923-.622-.752.755c-.141.142.013.328.179.216l.923-.622-.752.755c-.141.142.013.328.179.217l.923-.622-.752.755c-.141.142.013.328.179.217l.923-.622-.752.755c-.141.142.013.328.179.217l.923-.622-.752.755c-.141.142.013.328.179.217l.923-.622-.752.755c-.141.142.013.328.179.217l.923-.622-.752.755c-.141.142.013.328.179.217l.923-.622-.752.755c-.141.142.013.328.179.217l.923-.622-.752.755c-.141.142.013.328.179.217l.923-.622-.752.755c-.141.142.013.328.179.216l.923-.622-.752.755c-.141.142.013.328.179.217l.923-.622-.752.755c-.141.142.013.328.179.216l.923-.622-.752.755c-.141.142.013.328.179.217l.923-.622-.752.755c-.141.142.013.328.179.216l.923-.622-.752.755c-.141.142.013.328.179.217l.923-.622-.752.755c-.141.142.013.328.179.216l.923-.622-.752.755c-.141.142.013.328.179.217l.923-.622-.752.755c-.141.142.013.328.179.216l.923-.622-.752.755c-.141.142.013.328.179.217l.923-.622-.752.755c-.141.142.013.328.179.216l.923-.622-.752.755c-.141.142.013.328.179.217l.923-.622-.752.755c-.141.142.013.328.179.216l.923-.622-.752.755c-.141.142.013.328.179.217l.923-.622-.752.755c-.141.142.013.328.179.216l.923-.622-.752.755c-.141.142.013.328.179.217l.923-.622-.752.755c-.141.142.013.328.179.216l.923-.622-.752.755c-.141.142.013.328.179.217l.311-.209a68.162,68.162,0,0,0-.934-96.694Z" transform="translate(-257.603 -206.656)" opacity="0.15"/>
        <g id="Grupo_1012416" data-name="Grupo 1012416" transform="translate(392.675 278.848)">
          <g id="Grupo_1012415" data-name="Grupo 1012415" transform="translate(47.763 0)">
            <path id="Trazado_730957" data-name="Trazado 730957" d="M809.849,478.647,789.671,495.3c1.725.781,5.024,2.386,8.568,2.486.874.024,10.13.141,15.779-6.736,1.191-1.45,4.434-5.763,3.075-9.318C816.7,480.7,810.229,478.631,809.849,478.647Z" transform="translate(-788.675 -470.163)" fill="#e39b40"/>
            <path id="Trazado_730958" data-name="Trazado 730958" d="M806.342,455.18c-3.233-2.009-8.083.358-9.733,1.253-7.823,4.243-9.464,13.353-9.606,14.216-.574,3.5.376,7.041.816,8.883L808,462.877C808.086,462.506,807.284,455.765,806.342,455.18Z" transform="translate(-786.825 -454.393)" fill="#e39b40"/>
          </g>
          <path id="Trazado_730959" data-name="Trazado 730959" d="M694.5,541a2.326,2.326,0,0,0-.312,3.265l1.376,1.666a2.424,2.424,0,0,0,3.4.325l20.075-17.527c5.156-4.256,10.045-8.943,13.3-14.488-6.188,2.15-11.473,5.956-16.525,10.126Z" transform="translate(-678.487 -493.305)" fill="#e39b40"/>
          <path id="Trazado_730960" data-name="Trazado 730960" d="M693.96,577.832a2.387,2.387,0,0,0-.367,3.309l1.375,1.666a2.486,2.486,0,0,0,3.458.281l8.649-7.543-3.955-4.87Z" transform="translate(-678.113 -530)" fill="#c9c9c9"/>
          <path id="Trazado_730961" data-name="Trazado 730961" d="M800.532,482.849c-5.769,4.276-11.737,10.68-10.827,11.85.884,1.136,8.346-2.551,13.9-7.78,3.526-3.317,6.894-8.178,6.3-8.9S803.664,480.528,800.532,482.849Z" transform="translate(-740.874 -469.691)" fill="#f4d9b9"/>
          <path id="Trazado_730962" data-name="Trazado 730962" d="M653.071,611.683l-2.738,2.749c-.141.142.013.328.179.217l3.218-2.167,13.759-11.357-.659-.8Z" transform="translate(-650.278 -549.28)" fill="#b7b7b7"/>
          <path id="Trazado_730963" data-name="Trazado 730963" d="M693.631,594.475l1.375,1.666a2.554,2.554,0,0,0,3.359.354l-4.386-5.314A2.444,2.444,0,0,0,693.631,594.475Z" transform="translate(-678.15 -543.334)" fill="#b7b7b7"/>
        </g>
      </g>
    </g>
  </g>
</svg>
