<svg xmlns="http://www.w3.org/2000/svg" xmlns:xlink="http://www.w3.org/1999/xlink" width="294" height="200" viewBox="0 0 294 200">
  <defs>
    <clipPath id="clip-path">
      <rect id="Rectángulo_348620" data-name="Rectángulo 348620" width="36.684" height="58.405" fill="none"/>
    </clipPath>
    <clipPath id="clip-path-2">
      <rect id="Rectángulo_348621" data-name="Rectángulo 348621" width="36.684" height="58.405" transform="translate(36.684 58.405) rotate(180)" fill="none"/>
    </clipPath>
    <clipPath id="clip-path-3">
      <rect id="Rectángulo_348623" data-name="Rectángulo 348623" width="24.65" height="15.993" fill="none"/>
    </clipPath>
    <clipPath id="clip-path-4">
      <path id="Trazado_724735" data-name="Trazado 724735" d="M202.6,235.7c7.143-6.217,20.574,10.239,12.488,16.6C207.237,258.478,195.883,241.544,202.6,235.7Z" transform="translate(-200.561 -234.316)" fill="none"/>
    </clipPath>
  </defs>
  <g id="Grupo_1013478" data-name="Grupo 1013478" transform="translate(-390 -7670)">
    <rect id="Imagen_5" data-name="Imagen 5" width="294" height="200" rx="20" transform="translate(390 7670)" fill="#4db1f0" opacity="0.2"/>
    <g id="Grupo_1009928" data-name="Grupo 1009928" transform="translate(400.295 7635.352)">
      <g id="Grupo_1009797" data-name="Grupo 1009797" transform="translate(52.963 118.785)">
        <path id="Trazado_724699" data-name="Trazado 724699" d="M76.939,249.455,66.226,230.273c-2.176-3.725-1.269-5.535,1.64-7.252l9.024-4.88,9.661,28Z" transform="translate(-65.021 -216.313)" fill="#00a099"/>
        <path id="Trazado_724700" data-name="Trazado 724700" d="M110.116,240.672l-3.4-21.706c-.584-4.274-2.415-5.14-5.763-4.7l-10.114,1.724,9.661,28Z" transform="translate(-78.973 -214.165)" fill="#00a099"/>
      </g>
      <g id="Grupo_1009799" data-name="Grupo 1009799" transform="translate(139.411 37.649)">
        <path id="Trazado_724701" data-name="Trazado 724701" d="M311.623,41.884a2.262,2.262,0,0,1,1.9-1.166,4.257,4.257,0,0,1,2.236.584c1.4.745,1.8,1.6,2.521,3.014.679,1.338.18,3.661.656,5.084s2.755,2.356,4.049,3.116c2.95,1.731,6.891-.835,10.068.428a5.551,5.551,0,0,1,3.142,3.894,10.2,10.2,0,0,1-.273,5.133,10.22,10.22,0,0,1-2.113,4.154,11.361,11.361,0,0,1-5.65,3.025,27.868,27.868,0,0,1-26.218-7.2c-2.128-2.109-6.223-5.143-7.083-10.852-.573-3.8.694-8.569,3.6-11.087a10.079,10.079,0,0,1,10.794-1.387,5.178,5.178,0,0,1,2.9,3.1" transform="translate(-275.59 -37.649)" fill="#9a6230"/>
        <path id="Trazado_724702" data-name="Trazado 724702" d="M273.626,81.223a43.913,43.913,0,0,1-12.143,13.1c-1.373-1.211-6.692-7.61-8.39-11.246" transform="translate(-253.093 -61.194)" fill="none" stroke="#0085bf" stroke-linecap="round" stroke-linejoin="bevel" stroke-width="16.161"/>
        <g id="Grupo_1009798" data-name="Grupo 1009798" transform="translate(13.517 15.67)">
          <path id="Trazado_724703" data-name="Trazado 724703" d="M313.026,107.031l10.713-19.182c2.176-3.725,1.269-5.535-1.64-7.252l-9.024-4.88-9.661,28Z" transform="translate(-293.8 -73.889)" fill="#2b5f91"/>
          <path id="Trazado_724704" data-name="Trazado 724704" d="M282.5,98.248l3.4-21.706c.584-4.274,2.415-5.14,5.763-4.7l10.114,1.724-9.661,28Z" transform="translate(-282.5 -71.741)" fill="#2b5f91"/>
        </g>
      </g>
      <g id="Grupo_1009802" data-name="Grupo 1009802" transform="translate(64.017 58.544)">
        <g id="Grupo_1009800" data-name="Grupo 1009800" transform="translate(0.017 0)">
          <circle id="Elipse_8791" data-name="Elipse 8791" cx="76.712" cy="76.712" r="76.712" fill="#51aee6"/>
          <circle id="Elipse_8792" data-name="Elipse 8792" cx="76.712" cy="76.712" r="76.712" fill="#08828b" style="mix-blend-mode: screen;isolation: isolate"/>
        </g>
        <path id="Trazado_724705" data-name="Trazado 724705" d="M211.209,152.245a74.207,74.207,0,0,1-69.3,78.813q-3.283.208-6.507.136A76.719,76.719,0,0,1,154.663,84.868,74.247,74.247,0,0,1,211.209,152.245Z" transform="translate(-89.07 -84.059)" fill="#51aee6" opacity="0.6" style="mix-blend-mode: screen;isolation: isolate"/>
        <path id="Trazado_724706" data-name="Trazado 724706" d="M172.365,138.3a71.606,71.606,0,0,1-63.455,75.742A76.753,76.753,0,0,1,137,91.457a75.27,75.27,0,0,1,10.088-3.291A71.351,71.351,0,0,1,172.365,138.3Z" transform="translate(-89.07 -85.841)" fill="#51aee6" opacity="0.6" style="mix-blend-mode: screen;isolation: isolate"/>
        <g id="Grupo_1009801" data-name="Grupo 1009801" transform="translate(0.001 7.469)" style="mix-blend-mode: darken;isolation: isolate">
          <path id="Trazado_724707" data-name="Trazado 724707" d="M160.3,281.221c.49,1.98-1.988,3.485-2.273,5.495-.368,2.62,2.977,5.48,1.226,7.467-1.233,1.4-4.283.977-4.507,2.83-.09.737.417,1.4.656,2.111.9,2.7-2.2,4.973-3.125,7.667a10.36,10.36,0,0,0-.253,4.26c.1,1.379.211,2.765.315,4.143a76.409,76.409,0,0,1-9.733-2.4c-.628-2.719-.989-5.527-1.789-8.2a4.607,4.607,0,0,0-1.272-2.3,7.264,7.264,0,0,0-2.353-1.017c-3.405-1.206-5.689-4.551-6.577-8.055s-.615-7.175-.331-10.775c-1.881,1.036-4.185,2.083-6.05,1.03-.727-.415-1.279-1.1-2.039-1.456-1.86-.875-3.9.558-5.793,1.362a9.994,9.994,0,0,1-12.361-4.519c-.566-1.116-1.17-2.537-2.412-2.612-1.164-.068-1.655.917-2.075,2.1a75.4,75.4,0,0,1-4.854-9.88,76.48,76.48,0,0,1-5.632-27.974c3.355-.507,6.453-1.743,7.95-4.641.567-1.1.839-2.347,1.5-3.39s1.933-1.891,3.1-1.484a5.506,5.506,0,0,1,1.579,1.14,6.266,6.266,0,0,0,6.178.991c1.079,3.038-3.578,5.029-4.426,8.147-.781,2.911,2.323,5.688,5.33,5.748a5.341,5.341,0,0,1,2.082.208,3.911,3.911,0,0,1,1.361,1.21q1.718,2.1,3.456,4.206-2.1-4.985-4.206-9.963a3.189,3.189,0,0,1-.345-1.319c.037-1.871,2.936-2.126,4.429-.989s2.461,2.99,4.216,3.652c2.612.978,5.81-1.132,8.211.282,1.863,1.092,2.071,3.943.792,5.673a6.909,6.909,0,0,1-5.723,2.423c-.576.962.57,2.155,1.68,2.255s2.2-.4,3.326-.439,2.461.746,2.275,1.853a7.719,7.719,0,0,1-5.215,2.974,2.893,2.893,0,0,0-1.512.4c-1.111.857-.123,2.55.507,3.8,1.8,3.56-.973,8.538-4.953,8.881-1.558.129-3.16-.32-4.651.113s-2.646,2.492-1.5,3.532c2.251,2.052,5.818,2.814,8.192.914.656-.531,1.463-1.227,2.234-.867.521.234.732.849,1.011,1.351.994,1.776,3.331,2.4,5.342,2.06a20.492,20.492,0,0,0,5.624-2.316c2.332-1.162,4.984-2.1,7.52-1.446s4.6,3.466,3.611,5.876a33.072,33.072,0,0,1,7.569-1.958C157.445,279.141,159.864,279.43,160.3,281.221Z" transform="translate(-89.072 -170.422)" fill="#288d8a"/>
          <path id="Trazado_724708" data-name="Trazado 724708" d="M140.348,109.05c.516,3.891-2.393,7.627-1.878,11.518.2,1.575.957,3.04,1.108,4.627.266,2.809-1.425,5.483-1.436,8.309,0,2.764,1.591,5.236,2.759,7.746s1.873,5.652.266,7.9c-1.178,1.652-3.326,2.38-4.585,3.97-1.507,1.889-1.455,4.519-1.794,6.91s-1.584,5.111-3.972,5.435l-4.8-11.494a6.847,6.847,0,0,0-3.847-4.237q-4.655-2.688-9.312-5.385a2.2,2.2,0,0,0-.916-.368c-1.383-.141-1.811,1.841-2.884,2.722a4.728,4.728,0,0,1-2.641.729,22.573,22.573,0,0,0-13.87,6.622,76.618,76.618,0,0,1,40.507-52.98C136.515,102.885,139.847,105.313,140.348,109.05Z" transform="translate(-90.95 -100.286)" fill="#288d8a"/>
          <path id="Trazado_724709" data-name="Trazado 724709" d="M320.548,139.8a76.3,76.3,0,0,1,5.528,32.581,10.136,10.136,0,0,1-5.873-2.365,3.867,3.867,0,0,0-1.794-1.157,5.513,5.513,0,0,0-2.274.58c-3.685,1.048-6.548-3.938-10.372-4.169a2.6,2.6,0,0,0-1.6.346c-1.416.923-.992,3.186-2.008,4.534-1.272,1.7-3.957,1.1-5.8.07s-3.9-2.407-5.912-1.715c-1.652.575-2.773,2.458-4.525,2.552a10.271,10.271,0,0,0-1.946-.035c-1.624.431-1.561,2.716-1.35,4.382s-.655,4.063-2.261,3.558a2.732,2.732,0,0,1-.958-.635q-3.723-3.335-7.439-6.674c-1.618-1.447-3.388-3.268-3.088-5.425.226-1.664,1.63-2.9,2.3-4.445s-1.7-5.4-3.085-4.46q-2.784,1.894-5.571,3.781c-1.285.872-2.819,1.786-4.291,1.284-.46-.154-.871-.443-1.331-.6a3.52,3.52,0,0,0-3.238.866,18.99,18.99,0,0,0-2.3,2.637,13.286,13.286,0,0,1-5.679,4.005c-.555.2-1.291.3-1.627-.183a1.375,1.375,0,0,1-.165-.71c-.036-3.432,3.2-5.831,5.438-8.434,1.928-2.23,3.412-5.066,6.1-6.251.828-.364,1.74-.544,2.53-.977,2.085-1.119,2.957-3.594,3.651-5.854.4-1.3,1.1-2.673,1.5-3.969-.633-1-1.262-2.017-1.9-3.02a1.147,1.147,0,0,0-.623-.581c-.54-.141-.971.526-1.526.628-.843.162-1.334-.956-2.089-1.37a2,2,0,0,0-2.1.319,7.679,7.679,0,0,0-1.434,1.7,16.756,16.756,0,0,1-4.707,4.416c-.647.414-1.571.75-2.128.218a1.432,1.432,0,0,1-.367-.883c-.166-1.486.788-2.848,1.7-4.04q3.172-4.2,6.36-8.4c1-1.323,2.162-2.751,3.794-3.024,1.927-.316,4.559,1.2,6.135.043a10.37,10.37,0,0,0,1.482,3.168c2.433-1.4,2.729-5,4.981-6.686,1.251-.933,2.883-1.111,4.358-1.633s2.98-1.69,2.918-3.247a19.467,19.467,0,0,0-.682-2.432c-.563-3,3.179-4.962,4.267-7.817a4.936,4.936,0,0,0-.846-4.847,2.79,2.79,0,0,1-.843-1.334,1.984,1.984,0,0,1,.3-1.126,23.684,23.684,0,0,1,2.285-3.615A76.393,76.393,0,0,1,320.548,139.8Z" transform="translate(-172.721 -99.357)" fill="#288d8a"/>
          <path id="Trazado_724710" data-name="Trazado 724710" d="M278.151,305.408c.748.192-.108,1.594.642,1.778a2.183,2.183,0,0,0,2.034-.845,5.7,5.7,0,0,0,.824-1.269,17.55,17.55,0,0,0,.748-1.86l.727-2.032a12.625,12.625,0,0,0,1.087-5.736c-.2-1.583-1.281-2.595-1.065-4.175-.682-.327-.642-1.378-.161-1.962A8.3,8.3,0,0,1,284.83,288a4.809,4.809,0,0,0,.647-7.016c-.82-.83-1.977-1.375-2.492-2.423-.805-1.634.32-3.5,1.143-5.123s1.1-4.08-.551-4.846c-1.247-.578-2.639.289-3.976.61-3.138.752-6.213-1.671-7.869-4.441-1.208-2.018-2.572-4.667-4.916-4.489-1.445.11-2.513,1.322-3.6,2.28a9.056,9.056,0,0,1-5.646,2.436,5.734,5.734,0,0,1-5.218-2.867c-1.262,1.257-3.359.952-4.883,1.874-1.377.833-1.783,2.632-2.828,3.856-1.2,1.4-3.2,2.013-4.174,3.582-1.247,2.016-.266,4.617.733,6.767a2.14,2.14,0,0,0,.617.89,2.848,2.848,0,0,0,1.239.333,4.35,4.35,0,0,1,3.088,2.2,5.622,5.622,0,0,0,.912,1.555,3.427,3.427,0,0,0,2.281.64c2.824.1,5.816.162,8.268-1.242,1.435-.821,3.016-2.161,4.508-1.45a3.715,3.715,0,0,0,.965.456c-.377.9-1.374,2.532-1.294,3.508a1.928,1.928,0,0,0,.268.936c.427.631,1.318.671,2.078.736a6.4,6.4,0,0,1,3.588,1.334,3.811,3.811,0,0,1,1.405,3.439c-.165.971-.791,1.87-.694,2.849C268.43,294.387,272.57,303.977,278.151,305.408Z" transform="translate(-170.56 -186.303)" fill="#288d8a"/>
        </g>
      </g>
      <g id="Grupo_1009846" data-name="Grupo 1009846" transform="translate(87.1 76.095)">
        <g id="Grupo_1009806" data-name="Grupo 1009806" transform="translate(0 79.726)">
          <g id="Grupo_1009805" data-name="Grupo 1009805" clip-path="url(#clip-path)">
            <g id="Grupo_1009804" data-name="Grupo 1009804" transform="translate(-6.198 0.46)">
              <g id="Trazado_724711" data-name="Trazado 724711" transform="translate(-125.804 -295.74)" fill="none" stroke-miterlimit="10">
                <path d="M166.024,295.74h-19L125.8,386.386h19Z" stroke="none"/>
                <path d="M 150.2109832763672 299.7581481933594 L 130.8717956542969 382.367919921875 L 141.6167602539062 382.367919921875 L 160.9559631347656 299.7581481933594 L 150.2109832763672 299.7581481933594 M 147.0246887207031 295.7398071289062 L 166.023681640625 295.7398071289062 L 144.8030548095703 386.3862915039062 L 125.8040771484375 386.3862915039062 L 147.0246887207031 295.7398071289062 Z" stroke="none" fill="#1f3054"/>
              </g>
              <g id="Grupo_1009803" data-name="Grupo 1009803" transform="translate(0.958 0.826)">
                <line id="Línea_2843" data-name="Línea 2843" x2="17.084" transform="translate(21.027)" fill="none" stroke="#1f3054" stroke-miterlimit="10" stroke-width="4"/>
                <line id="Línea_2844" data-name="Línea 2844" x2="17.084" transform="translate(18.691 9.98)" fill="none" stroke="#1f3054" stroke-miterlimit="10" stroke-width="4"/>
                <line id="Línea_2845" data-name="Línea 2845" x2="17.084" transform="translate(16.354 19.96)" fill="none" stroke="#1f3054" stroke-miterlimit="10" stroke-width="4"/>
                <line id="Línea_2846" data-name="Línea 2846" x2="17.084" transform="translate(14.018 29.94)" fill="none" stroke="#1f3054" stroke-miterlimit="10" stroke-width="4"/>
                <line id="Línea_2847" data-name="Línea 2847" x2="17.084" transform="translate(11.682 39.92)" fill="none" stroke="#1f3054" stroke-miterlimit="10" stroke-width="4"/>
                <line id="Línea_2848" data-name="Línea 2848" x2="17.084" transform="translate(9.345 49.9)" fill="none" stroke="#1f3054" stroke-miterlimit="10" stroke-width="4"/>
                <line id="Línea_2849" data-name="Línea 2849" x2="17.084" transform="translate(7.009 59.88)" fill="none" stroke="#1f3054" stroke-miterlimit="10" stroke-width="4"/>
                <line id="Línea_2850" data-name="Línea 2850" x2="17.084" transform="translate(4.673 69.86)" fill="none" stroke="#1f3054" stroke-miterlimit="10" stroke-width="4"/>
                <line id="Línea_2851" data-name="Línea 2851" x2="17.084" transform="translate(2.336 79.84)" fill="none" stroke="#1f3054" stroke-miterlimit="10" stroke-width="4"/>
                <line id="Línea_2852" data-name="Línea 2852" x2="17.084" transform="translate(0 89.82)" fill="none" stroke="#1f3054" stroke-miterlimit="10" stroke-width="4"/>
              </g>
            </g>
          </g>
        </g>
        <g id="Grupo_1009810" data-name="Grupo 1009810" transform="translate(76.909 79.726)">
          <g id="Grupo_1009809" data-name="Grupo 1009809" clip-path="url(#clip-path-2)">
            <g id="Grupo_1009808" data-name="Grupo 1009808" transform="translate(2.662 0.46)">
              <g id="Trazado_724712" data-name="Trazado 724712" transform="translate(-312.399 -295.74)" fill="none" stroke-miterlimit="10">
                <path d="M312.4,295.74h19l21.221,90.646h-19Z" stroke="none"/>
                <path d="M 317.4666137695312 299.7581481933594 L 336.8058166503906 382.367919921875 L 347.5507507324219 382.367919921875 L 328.2115173339844 299.7581481933594 L 317.4666137695312 299.7581481933594 M 312.3988952636719 295.7398071289062 L 331.3978271484375 295.7398071289062 L 352.6184997558594 386.3862915039062 L 333.6195373535156 386.3862915039062 L 312.3988952636719 295.7398071289062 Z" stroke="none" fill="#1f3054"/>
              </g>
              <g id="Grupo_1009807" data-name="Grupo 1009807" transform="translate(1.151 0.826)">
                <line id="Línea_2853" data-name="Línea 2853" x1="17.084" fill="none" stroke="#1f3054" stroke-miterlimit="10" stroke-width="4"/>
                <line id="Línea_2854" data-name="Línea 2854" x1="17.084" transform="translate(2.336 9.98)" fill="none" stroke="#1f3054" stroke-miterlimit="10" stroke-width="4"/>
                <line id="Línea_2855" data-name="Línea 2855" x1="17.084" transform="translate(4.673 19.96)" fill="none" stroke="#1f3054" stroke-miterlimit="10" stroke-width="4"/>
                <line id="Línea_2856" data-name="Línea 2856" x1="17.084" transform="translate(7.009 29.94)" fill="none" stroke="#1f3054" stroke-miterlimit="10" stroke-width="4"/>
                <line id="Línea_2857" data-name="Línea 2857" x1="17.084" transform="translate(9.345 39.92)" fill="none" stroke="#1f3054" stroke-miterlimit="10" stroke-width="4"/>
                <line id="Línea_2858" data-name="Línea 2858" x1="17.084" transform="translate(11.682 49.9)" fill="none" stroke="#1f3054" stroke-miterlimit="10" stroke-width="4"/>
                <line id="Línea_2859" data-name="Línea 2859" x1="17.084" transform="translate(14.018 59.88)" fill="none" stroke="#1f3054" stroke-miterlimit="10" stroke-width="4"/>
                <line id="Línea_2860" data-name="Línea 2860" x1="17.084" transform="translate(16.354 69.86)" fill="none" stroke="#1f3054" stroke-miterlimit="10" stroke-width="4"/>
                <line id="Línea_2861" data-name="Línea 2861" x1="17.084" transform="translate(18.691 79.84)" fill="none" stroke="#1f3054" stroke-miterlimit="10" stroke-width="4"/>
                <line id="Línea_2862" data-name="Línea 2862" x1="17.084" transform="translate(21.027 89.82)" fill="none" stroke="#1f3054" stroke-miterlimit="10" stroke-width="4"/>
              </g>
            </g>
          </g>
        </g>
        <rect id="Rectángulo_348622" data-name="Rectángulo 348622" width="84.648" height="2.317" transform="translate(14.563 79.726)" fill="#fff"/>
        <g id="Grupo_1009837" data-name="Grupo 1009837" transform="translate(2.08 0.604)">
          <g id="Grupo_1009811" data-name="Grupo 1009811" transform="translate(20.328 21.807)">
            <path id="Trazado_724713" data-name="Trazado 724713" d="M219.882,198.726,226.3,179.84c1.334-3.892.171-5.448-2.8-6.595l-9.106-3.123-4.536,26.914Z" transform="translate(-199.827 -170.088)" fill="#e39b40"/>
            <path id="Trazado_724714" data-name="Trazado 724714" d="M188.039,195.3l.127-19.947c.015-4.114,1.624-5.2,4.81-5.311l9.626.034L198.066,197Z" transform="translate(-188.039 -170.047)" fill="#e39b40"/>
          </g>
          <g id="Grupo_1009817" data-name="Grupo 1009817" transform="translate(0 47.065)">
            <path id="Trazado_724715" data-name="Trazado 724715" d="M253.1,280.8a48.177,48.177,0,0,1,1.183-6.818" transform="translate(-202.864 -251.466)" fill="none" stroke="#ffb09a" stroke-miterlimit="10" stroke-width="8.51"/>
            <path id="Trazado_724716" data-name="Trazado 724716" d="M151.721,285.387l1.018-.015,4.364.024" transform="translate(-148.087 -257.62)" fill="none" stroke="#ffb09a" stroke-miterlimit="10" stroke-width="8.51"/>
            <path id="Trazado_724717" data-name="Trazado 724717" d="M223.944,241.642l19.316-4.157s-2.758,9.277-5.048,21.659" transform="translate(-187.112 -231.745)" fill="none" stroke="#00a099" stroke-linejoin="bevel" stroke-width="25.956"/>
            <path id="Trazado_724718" data-name="Trazado 724718" d="M251.8,286.683s3.967,1.689,6.305,2.98c.236.131.5.422.32.621a.459.459,0,0,1-.348.1l-8.062,0a2.408,2.408,0,0,0-.98-1.759l-.549,1.352a.638.638,0,0,1-.3.347l-1.474-.031a4.97,4.97,0,0,1-.006-1.546,13.267,13.267,0,0,0,.474-1.461c.038-.205.07-.444.249-.551a.647.647,0,0,1,.39-.049c1.18.1,3.983,0,3.983,0" transform="translate(-199.374 -258.327)" fill="#2b5f91"/>
            <path id="Trazado_724719" data-name="Trazado 724719" d="M148.146,284.328s-2.087,3.772-3.612,5.966c-.154.222-.472.457-.651.255a.458.458,0,0,1-.062-.356q.413-4.009.826-8.019a2.409,2.409,0,0,0,1.851-.794l-1.288-.685a.635.635,0,0,1-.314-.337l.182-1.463a4.983,4.983,0,0,1,1.539.153,13.274,13.274,0,0,0,1.4.622c.2.058.435.115.523.3a.643.643,0,0,1,.008.393c-.222,1.163-.405,3.962-.405,3.962" transform="translate(-143.814 -254.117)" fill="#2b5f91"/>
            <path id="Trazado_724720" data-name="Trazado 724720" d="M174.085,247.231l5.872,16.781s-13.767,1.349-24.049,1.325" transform="translate(-150.349 -237.011)" fill="none" stroke="#00a099" stroke-linejoin="bevel" stroke-width="25.956"/>
            <path id="Trazado_724721" data-name="Trazado 724721" d="M218.047,246.83c-.138.207-.484,3.18-2.627,3.733-2.578.666-10.44-.346-10.716-4.632l2.074-2.385Z" transform="translate(-176.715 -235.02)" fill="#00a099"/>
            <g id="Grupo_1009816" data-name="Grupo 1009816" transform="translate(18.172)">
              <g id="Grupo_1009815" data-name="Grupo 1009815" clip-path="url(#clip-path-3)">
                <g id="Grupo_1009814" data-name="Grupo 1009814" transform="translate(0 -5.348)">
                  <g id="Grupo_1009812" data-name="Grupo 1009812" transform="translate(12.325)">
                    <path id="Trazado_724722" data-name="Trazado 724722" d="M218.337,213.361s4.15,9.529,4.15,16.7c0,8.392-12.325,0-12.325,0v-16.7Z" transform="translate(-210.162 -213.361)" fill="#00a099"/>
                  </g>
                  <g id="Grupo_1009813" data-name="Grupo 1009813">
                    <path id="Trazado_724723" data-name="Trazado 724723" d="M187.5,213.361s-4.15,9.529-4.15,16.7c0,8.392,12.325,0,12.325,0v-16.7Z" transform="translate(-183.348 -213.361)" fill="#00a099"/>
                  </g>
                </g>
              </g>
            </g>
          </g>
          <g id="Grupo_1009827" data-name="Grupo 1009827" transform="translate(19.983 50.618)">
            <path id="Trazado_724724" data-name="Trazado 724724" d="M187.412,259.922a32.23,32.23,0,0,0,6.576-14.777l16.083,7.13a16.333,16.333,0,0,0,.7,7.355,40.672,40.672,0,0,0,2.252,5.51q-.514,3.254-1.191,6.479a40.668,40.668,0,0,1-4.854,3.126,31.3,31.3,0,0,1-17.644-2.71A23.959,23.959,0,0,1,187.412,259.922Z" transform="translate(-187.288 -239.437)" fill="#1f3054"/>
            <g id="Grupo_1009819" data-name="Grupo 1009819" transform="translate(5.371)">
              <path id="Trazado_724725" data-name="Trazado 724725" d="M215.452,252.647c9.169-7.048-6.062-25.279-14.163-18.391C193.669,240.735,206.544,259.494,215.452,252.647Zm-13.707-17.81c7.143-6.217,20.574,10.239,12.488,16.6C206.379,257.62,195.025,240.685,201.745,234.837Z" transform="translate(-198.973 -232.728)" fill="#1f3054"/>
              <g id="Grupo_1009818" data-name="Grupo 1009818" opacity="0.5" style="mix-blend-mode: screen;isolation: isolate">
                <path id="Trazado_724726" data-name="Trazado 724726" d="M215.452,252.647c9.169-7.048-6.062-25.279-14.163-18.391C193.669,240.735,206.544,259.494,215.452,252.647Zm-13.707-17.81c7.143-6.217,20.574,10.239,12.488,16.6C206.379,257.62,195.025,240.685,201.745,234.837Z" transform="translate(-198.973 -232.728)" fill="#1f3054"/>
              </g>
            </g>
            <path id="Trazado_724727" data-name="Trazado 724727" d="M202.6,235.7c7.143-6.217,20.574,10.239,12.488,16.6C207.237,258.478,195.883,241.544,202.6,235.7Z" transform="translate(-194.46 -233.586)" fill="#1f3054"/>
            <g id="Grupo_1009820" data-name="Grupo 1009820" transform="translate(7.95 14.813)">
              <path id="Trazado_724728" data-name="Trazado 724728" d="M217.515,273.219a23.132,23.132,0,0,1-9.214.386,41.445,41.445,0,0,1-3.717-8.651c3.3,5.146,9.162,8.748,13.9,5.106a7.643,7.643,0,0,0,1.239-1.193q.117.5.258,1c-.171.269-.348.534-.527.793A29.507,29.507,0,0,1,217.515,273.219Z" transform="translate(-204.584 -264.954)" fill="#1f3054"/>
              <path id="Trazado_724729" data-name="Trazado 724729" d="M217.515,273.219a23.132,23.132,0,0,1-9.214.386,41.445,41.445,0,0,1-3.717-8.651c3.3,5.146,9.162,8.748,13.9,5.106a7.643,7.643,0,0,0,1.239-1.193q.117.5.258,1c-.171.269-.348.534-.527.793A29.507,29.507,0,0,1,217.515,273.219Z" transform="translate(-204.584 -264.954)" fill="#1f3054" opacity="0.2" style="mix-blend-mode: difference;isolation: isolate"/>
            </g>
            <g id="Grupo_1009826" data-name="Grupo 1009826" transform="translate(6.101 0.73)">
              <g id="Grupo_1009825" data-name="Grupo 1009825" clip-path="url(#clip-path-4)">
                <g id="Grupo_1009824" data-name="Grupo 1009824" transform="translate(0.212 6.257)">
                  <g id="Grupo_1009821" data-name="Grupo 1009821" transform="translate(4.214 3.885)">
                    <path id="Trazado_724730" data-name="Trazado 724730" d="M214.341,264.851a1.2,1.2,0,0,1,.185-.918l.954-1.4a2.93,2.93,0,0,1,1.964-1.229,2.815,2.815,0,0,0,.747-.212l2.41,1.646a2.167,2.167,0,0,0,.074.774,2.877,2.877,0,0,1-.431,2.277l-1.066,1.561a.839.839,0,0,1-.657.314h0a.718.718,0,0,0-.411.6h0a.837.837,0,0,1-.054.726l-3.049,4.464a.705.705,0,0,1-.473.279,1.053,1.053,0,0,1-.955-.13,1.008,1.008,0,0,1-.425-.612l-.3-.205a1.072,1.072,0,0,1-.724-.174,1.008,1.008,0,0,1-.426-.612l-.3-.206a1.069,1.069,0,0,1-.725-.174,1.053,1.053,0,0,1-.469-.842.708.708,0,0,1,.089-.542l3.012-4.409a.931.931,0,0,1,.445-.3l.157-.053a.561.561,0,0,0,.43-.63Z" transform="translate(-210.191 -258.928)" fill="#2b5f91"/>
                    <path id="Trazado_724731" data-name="Trazado 724731" d="M229.937,259.975h0l-.14.145a2.24,2.24,0,0,0-.358,1.523l-2.848-1.946a2.278,2.278,0,0,0,1.289-.887l.112-.164-.027-.019a.133.133,0,0,1,.149-.219l.028.019.206-.3,1.944,1.328-.169.246.028.019a.142.142,0,0,1,.034.184C230.112,260.013,230.02,260.031,229.937,259.975Z" transform="translate(-219.053 -257.323)" fill="#fff"/>
                    <path id="Trazado_724732" data-name="Trazado 724732" d="M231.085,256.437l1.533,1.048a.333.333,0,0,1,.087.461l-.43.63-2.081-1.422.43-.63A.333.333,0,0,1,231.085,256.437Z" transform="translate(-220.999 -256.38)" fill="#e39b40"/>
                    <rect id="SVGCleanerId_0" data-name="SVGCleanerId 0" width="3.449" height="5.688" transform="translate(0.873 10.191) rotate(-55.66)" fill="#e39b40"/>
                  </g>
                  <g id="Grupo_1009822" data-name="Grupo 1009822">
                    <path id="Trazado_724733" data-name="Trazado 724733" d="M201.022,257.838l3.463,1.446,3.856-7.626-4.608-1.924Z" transform="translate(-201.022 -248.904)" fill="#fff"/>
                    <rect id="Rectángulo_348624" data-name="Rectángulo 348624" width="5.687" height="0.864" transform="translate(7.597 2.988) rotate(-157.339)" fill="#2b5f91"/>
                  </g>
                  <g id="Grupo_1009823" data-name="Grupo 1009823" transform="translate(3.521 4.93)">
                    <path id="Trazado_724734" data-name="Trazado 724734" d="M211.393,269.409l3.72-.5-.515-8.53-4.95.662Z" transform="translate(-209.205 -259.587)" fill="#e39b40"/>
                    <rect id="Rectángulo_348625" data-name="Rectángulo 348625" width="5.687" height="0.864" transform="translate(5.752 0.856) rotate(172.382)" fill="#2b5f91"/>
                  </g>
                </g>
              </g>
            </g>
          </g>
          <path id="Trazado_724736" data-name="Trazado 724736" d="M201.858,230.658c.705.49,1.776,1.3,2.4,1.715a2.9,2.9,0,0,1,1.292,2.033c0,.2-.078.448-.276.468a.465.465,0,0,1-.251-.074l-.618-.321a1.952,1.952,0,0,1,.208.668c0,.32.027.451-.248.581-.321.153-.825-.268-1-.581.115.467.2.935-.128,1.09-.3.143-.806-.525-.866-.41-.032.062.123.59.064.771a.657.657,0,0,1-.861.276,4.4,4.4,0,0,1-1.248-1.343,18.622,18.622,0,0,1-1.351-2.9A18.5,18.5,0,0,1,201.858,230.658Z" transform="translate(-173.619 -180.991)" fill="#ffb09a"/>
          <g id="Grupo_1009828" data-name="Grupo 1009828" transform="translate(13.115 22.29)">
            <path id="Trazado_724737" data-name="Trazado 724737" d="M183.673,179.188c-3.229,4.492-11.327,11.533-11.327,11.533s10.5,9.532,14.3,13.961" transform="translate(-172.346 -175.47)" fill="none" stroke="#e39b40" stroke-linejoin="round" stroke-width="16.161"/>
            <path id="Trazado_724738" data-name="Trazado 724738" d="M194.168,178.2a3.717,3.717,0,1,0-4.929-1.828A3.717,3.717,0,0,0,194.168,178.2Z" transform="translate(-181.291 -171.099)" fill="#e39b40"/>
          </g>
          <g id="Grupo_1009829" data-name="Grupo 1009829" transform="translate(34.136 38.76)">
            <path id="Trazado_724739" data-name="Trazado 724739" d="M226.622,217.49l2.477-2.819-5.993-6.092-3.3,3.751Z" transform="translate(-219.014 -207.82)" fill="#fff"/>
            <rect id="Rectángulo_348626" data-name="Rectángulo 348626" width="5.687" height="0.864" transform="translate(4.403 0.57) rotate(131.306)" fill="#2b5f91"/>
          </g>
          <g id="Grupo_1009830" data-name="Grupo 1009830" transform="translate(37.962 39.748)">
            <path id="Trazado_724740" data-name="Trazado 724740" d="M234.976,209.078a8.763,8.763,0,0,0-2.071,1.293.727.727,0,0,0-.359.548.714.714,0,0,0,.221.415,6.325,6.325,0,0,0,2.044,1.519.514.514,0,0,0,.3.068.54.54,0,0,0,.3-.226,5.045,5.045,0,0,0,.837-1.267,1.713,1.713,0,0,0-.028-1.472,2.31,2.31,0,0,0-1.239-.878" transform="translate(-229.722 -209.078)" fill="#ffb09a" stroke="#ffb09a" stroke-miterlimit="10" stroke-width="0.14"/>
            <path id="Trazado_724741" data-name="Trazado 724741" d="M230.953,213.81a6.227,6.227,0,0,0,.928-1.85.429.429,0,0,0,.025-.229.446.446,0,0,0-.232-.239,33.067,33.067,0,0,0-3.5-1.822.7.7,0,0,0-.336-.087.667.667,0,0,0-.4.243,4.207,4.207,0,0,0-1.034,1.857,9.175,9.175,0,0,1,1.611-.837l-.845,1.942c-.06.139-.114.321,0,.425a18.161,18.161,0,0,1,1.9-1.494,7.278,7.278,0,0,0-1.04,2.311c.7-.474,1.011-1.391,1.743-1.807l-.567,1.962a.24.24,0,0,0,0,.183c.075.132.274.019.372-.1l1.125-1.35a.326.326,0,0,1-.019.336c-.053.106-.29.736-.19.8.208.128.426-.134.467-.245" transform="translate(-226.403 -209.35)" fill="#ffb09a" stroke="#ffb09a" stroke-miterlimit="10" stroke-width="0.14"/>
          </g>
          <path id="Trazado_724742" data-name="Trazado 724742" d="M237.266,184.489c3.631,4.174,14.195,14.641,14.195,14.641s-11.282-3.806-13.274-2.18" transform="translate(-194.31 -156.044)" fill="none" stroke="#e39b40" stroke-linejoin="round" stroke-width="16.161"/>
          <g id="Grupo_1009836" data-name="Grupo 1009836" transform="translate(25.05)">
            <g id="Grupo_1009831" data-name="Grupo 1009831" transform="translate(9.642 19.407)">
              <line id="Línea_2863" data-name="Línea 2863" x1="0.61" y2="3.619" fill="none" stroke="#ffb09a" stroke-linecap="round" stroke-miterlimit="10" stroke-width="10.284"/>
              <line id="Línea_2864" data-name="Línea 2864" x1="0.61" y2="3.619" fill="none" stroke="#ffb09a" stroke-linecap="round" stroke-miterlimit="10" stroke-width="10.284" opacity="0.2" style="mix-blend-mode: multiply;isolation: isolate"/>
            </g>
            <path id="Rectángulo_348627" data-name="Rectángulo 348627" d="M7.773,0h0a7.774,7.774,0,0,1,7.774,7.774v7.639a4.826,4.826,0,0,1-4.826,4.826H4.826A4.826,4.826,0,0,1,0,15.413V7.773A7.773,7.773,0,0,1,7.773,0Z" transform="translate(5.641) rotate(9.567)" fill="#ffb09a"/>
            <g id="Grupo_1009832" data-name="Grupo 1009832" transform="translate(0 11.632)">
              <path id="Trazado_724743" data-name="Trazado 724743" d="M198.535,149.8a2.41,2.41,0,0,0,.846.7,3.972,3.972,0,0,0,1.288.424,3.126,3.126,0,0,0,.993.038,2.365,2.365,0,0,0,.862-.165,1.271,1.271,0,0,0,.6-.381.753.753,0,0,0,.312-.524l-.025-.4a1.577,1.577,0,0,0-.54-.752l-.472-.314a4.067,4.067,0,0,0-1.239-.413l-.034,0,1.239.414-.029-.014.816.675-.014-.02a1.7,1.7,0,0,0-.581-.518,2.6,2.6,0,0,0-.814-.405,3.314,3.314,0,0,0-1-.2,2.969,2.969,0,0,0-.967.015,1.96,1.96,0,0,0-1.306.675.99.99,0,0,0,.065,1.166Z" transform="translate(-198.311 -147.912)" fill="#ffb09a"/>
              <path id="Trazado_724744" data-name="Trazado 724744" d="M200.934,150.068a.5.5,0,0,1,.411-.271,1.939,1.939,0,0,1,.682.009c.384.065.8.26.816.488a.955.955,0,0,0-.752.057c-.177.109-.367.592.559.838" transform="translate(-199.728 -148.916)" fill="none" stroke="#1f3054" stroke-miterlimit="10" stroke-width="0.211"/>
              <path id="Trazado_724745" data-name="Trazado 724745" d="M235.412,155.287l-.005.024a.756.756,0,0,0,.122.6,1.271,1.271,0,0,0,.443.557,2.381,2.381,0,0,0,.761.438,3.139,3.139,0,0,0,.951.289l.679.061a3.323,3.323,0,0,0,1.176-.187l.444-.228a1.05,1.05,0,0,0,.468-.678l.005-.024a.754.754,0,0,0-.123-.6,1.27,1.27,0,0,0-.442-.557,2.378,2.378,0,0,0-.761-.438,3.136,3.136,0,0,0-.951-.289l-.679-.061a3.322,3.322,0,0,0-1.176.187l-.444.228a1.048,1.048,0,0,0-.468.678Z" transform="translate(-218.345 -151.306)" fill="#ffb09a"/>
              <path id="Trazado_724746" data-name="Trazado 724746" d="M241.285,156.841c.02-.135-.093-.285-.267-.4a1.878,1.878,0,0,0-.634-.233c-.382-.076-.851-.045-.956.162a.914.914,0,0,1,.671.319c.119.164.094.677-.863.576" transform="translate(-220.424 -152.376)" fill="none" stroke="#1f3054" stroke-miterlimit="10" stroke-width="0.211"/>
            </g>
            <path id="Trazado_724747" data-name="Trazado 724747" d="M226.162,127.809a2.848,2.848,0,0,0-.756-.826c-2.057-1.659-6.126-2.7-8.769-2.7a11.52,11.52,0,0,0-6.166,1.92,11.373,11.373,0,0,0-1.8,1.492,12.013,12.013,0,0,0,4.309,2.8,17.142,17.142,0,0,0,6.137,1.679,12.291,12.291,0,0,0,4.433-.7,4.981,4.981,0,0,0,2.192-1.286A2.172,2.172,0,0,0,226.162,127.809Z" transform="translate(-203.911 -123.51)" fill="#1f3054"/>
            <path id="Trazado_724748" data-name="Trazado 724748" d="M207.772,132.773a1.6,1.6,0,0,0-1.09-1.108,1.18,1.18,0,0,0-.623-.011,2.157,2.157,0,0,0-1.232,1.489,6.574,6.574,0,0,0-.22,2.188,23.3,23.3,0,0,0,.529,4.092c.051.24.107.482.173.716l1.872-4.231a9.3,9.3,0,0,0,.57-1.527A3.137,3.137,0,0,0,207.772,132.773Z" transform="translate(-201.709 -127.475)" fill="#1f3054"/>
            <path id="Trazado_724749" data-name="Trazado 724749" d="M241.58,139.34a2.188,2.188,0,0,0-.608-1.8,1.022,1.022,0,0,0-.549-.187,1.5,1.5,0,0,0-1.3.7,3.351,3.351,0,0,0-.49,1.53,9.883,9.883,0,0,0,.017,1.626q.151,2.3.3,4.6c.132-.2.257-.411.378-.623a24.729,24.729,0,0,0,1.757-3.707A7.077,7.077,0,0,0,241.58,139.34Z" transform="translate(-220.081 -130.574)" fill="#1f3054"/>
            <g id="Grupo_1009834" data-name="Grupo 1009834" transform="translate(6.482 10.993)">
              <path id="Trazado_724750" data-name="Trazado 724750" d="M220.217,159.446A3.929,3.929,0,1,1,217,154.919,3.928,3.928,0,0,1,220.217,159.446Z" transform="translate(-212.414 -151.029)" fill="#1f3054"/>
              <path id="Trazado_724751" data-name="Trazado 724751" d="M220.88,159.593a2.366,2.366,0,1,1-1.969-2.194A2.112,2.112,0,0,1,220.88,159.593Z" transform="translate(-214.52 -152.377)" fill="#ffb09a"/>
              <g id="Grupo_1009833" data-name="Grupo 1009833" transform="translate(1.331)">
                <path id="Trazado_724752" data-name="Trazado 724752" d="M217.638,147.727a1.65,1.65,0,0,0-.962-1.137,1.39,1.39,0,0,0-1.365.307" transform="translate(-215.31 -146.521)" fill="none" stroke="#1f3054" stroke-linecap="round" stroke-linejoin="round" stroke-width="2.654"/>
                <path id="Trazado_724753" data-name="Trazado 724753" d="M235.53,150.419a1.759,1.759,0,0,0-1.572-.9.877.877,0,0,0-.257.048,1.624,1.624,0,0,0-.575.473" transform="translate(-224.937 -148.139)" fill="none" stroke="#1f3054" stroke-linecap="round" stroke-linejoin="round" stroke-width="2.654"/>
                <path id="Trazado_724754" data-name="Trazado 724754" d="M222.126,149.761a12.364,12.364,0,0,1-.172,2.657,3.93,3.93,0,0,1-.678,1.785.781.781,0,0,1-.313.262.343.343,0,0,1-.381-.073.55.55,0,0,1-.088-.335,5.248,5.248,0,0,0-.33-1.563.752.752,0,0,1-.419.24.43.43,0,0,1-.429-.178.3.3,0,0,1,.11-.422" transform="translate(-217.452 -148.272)" fill="#ffb09a" stroke="#1f3054" stroke-miterlimit="10" stroke-width="0.278"/>
                <path id="Trazado_724755" data-name="Trazado 724755" d="M220.182,161.2a.925.925,0,0,0,.965.565" transform="translate(-217.943 -154.451)" fill="none" stroke="#1f3054" stroke-miterlimit="10" stroke-width="0.278"/>
                <path id="Trazado_724756" data-name="Trazado 724756" d="M233.736,154.244c.361.061.719-.285.8-.771a.8.8,0,0,0-.5-.991c-.36-.061-.719.285-.8.771A.8.8,0,0,0,233.736,154.244Z" transform="translate(-224.985 -149.738)" fill="#1f3054"/>
                <path id="Trazado_724757" data-name="Trazado 724757" d="M216.857,151.4a.8.8,0,0,1-.5-.991c.082-.486.441-.831.8-.77a.8.8,0,0,1,.5.991C217.576,151.115,217.217,151.46,216.857,151.4Z" transform="translate(-215.864 -148.201)" fill="#1f3054"/>
              </g>
            </g>
            <g id="Grupo_1009835" data-name="Grupo 1009835" transform="translate(3.579 11.525)">
              <path id="Rectángulo_348628" data-name="Rectángulo 348628" d="M0,0H5.528a0,0,0,0,1,0,0V.353A1.993,1.993,0,0,1,3.536,2.345H1.992A1.992,1.992,0,0,1,0,.353V0A0,0,0,0,1,0,0Z" transform="translate(2.147 0.29) rotate(9.567)" fill="none" stroke="#0085bf" stroke-linecap="round" stroke-miterlimit="10" stroke-width="1.176"/>
              <path id="Rectángulo_348629" data-name="Rectángulo 348629" d="M0,0H5.528a0,0,0,0,1,0,0V.353A1.993,1.993,0,0,1,3.535,2.345H1.993A1.993,1.993,0,0,1,0,.353V0A0,0,0,0,1,0,0Z" transform="translate(10.033 1.619) rotate(9.568)" fill="none" stroke="#0085bf" stroke-linecap="round" stroke-miterlimit="10" stroke-width="1.176"/>
              <path id="Trazado_724758" data-name="Trazado 724758" d="M221.458,150.2l-14.847-2.5c-.555-.093-.37.266-.514,1.127" transform="translate(-206.097 -147.679)" fill="none" stroke="#0085bf" stroke-linecap="round" stroke-miterlimit="10" stroke-width="1.176"/>
            </g>
          </g>
        </g>
        <g id="Grupo_1009841" data-name="Grupo 1009841" transform="translate(55.013 0)">
          <g id="Grupo_1009838" data-name="Grupo 1009838" transform="translate(0.569)">
            <path id="Trazado_724759" data-name="Trazado 724759" d="M268.518,131.31l-3.524,1.29-3.513-7.79,4.69-1.717Z" transform="translate(-260.896 -122.264)" fill="#e39b40"/>
            <rect id="Rectángulo_348630" data-name="Rectángulo 348630" width="5.687" height="0.864" transform="translate(0 1.955) rotate(-20.106)" fill="#2b5f91"/>
          </g>
          <g id="Grupo_1009839" data-name="Grupo 1009839" transform="translate(0.967 5.815)">
            <path id="Trazado_724760" data-name="Trazado 724760" d="M267.539,134.042a.44.44,0,0,1,.081.615,1.13,1.13,0,0,1-.578.369,6.537,6.537,0,0,1-3.653.212,1.288,1.288,0,0,1-.587-.257.507.507,0,0,1-.148-.584l-1.094.326s-1.092,2.838,0,4.24,5.284,2.149,6.147,1.574a8.282,8.282,0,0,0,2.464-2.47c.073-.471-.394-3.8-1.026-4.025A3.5,3.5,0,0,0,267.539,134.042Z" transform="translate(-261.074 -133.941)" fill="#51aee6"/>
            <path id="Trazado_724761" data-name="Trazado 724761" d="M267.539,134.042a.44.44,0,0,1,.081.615,1.13,1.13,0,0,1-.578.369,6.537,6.537,0,0,1-3.653.212,1.288,1.288,0,0,1-.587-.257.507.507,0,0,1-.148-.584l-1.094.326s-1.092,2.838,0,4.24,5.284,2.149,6.147,1.574a8.282,8.282,0,0,0,2.464-2.47c.073-.471-.394-3.8-1.026-4.025A3.5,3.5,0,0,0,267.539,134.042Z" transform="translate(-261.074 -133.941)" fill="#08828b" style="mix-blend-mode: screen;isolation: isolate"/>
            <path id="Trazado_724762" data-name="Trazado 724762" d="M267.539,134.042a.44.44,0,0,1,.081.615,1.13,1.13,0,0,1-.578.369,6.537,6.537,0,0,1-3.653.212,1.288,1.288,0,0,1-.587-.257.507.507,0,0,1-.148-.584l-1.094.326s-1.092,2.838,0,4.24,5.284,2.149,6.147,1.574a8.282,8.282,0,0,0,2.464-2.47c.073-.471-.394-3.8-1.026-4.025A3.5,3.5,0,0,0,267.539,134.042Z" transform="translate(-261.074 -133.941)" fill="#08828b" opacity="0.6" style="mix-blend-mode: screen;isolation: isolate"/>
          </g>
          <g id="Grupo_1009840" data-name="Grupo 1009840" transform="translate(0 5.916)">
            <path id="Trazado_724763" data-name="Trazado 724763" d="M264.46,134.515a.507.507,0,0,0,.148.584,1.288,1.288,0,0,0,.587.257,6.537,6.537,0,0,0,3.653-.212,1.13,1.13,0,0,0,.578-.369.44.44,0,0,0-.081-.615" transform="translate(-261.914 -134.161)" fill="none" stroke="#fff" stroke-miterlimit="10" stroke-width="0.25"/>
            <path id="Trazado_724764" data-name="Trazado 724764" d="M259.041,137.9a.893.893,0,0,0,.134.9,2.144,2.144,0,0,0,.757.575,7.653,7.653,0,0,0,2.9.832" transform="translate(-258.97 -136.179)" fill="none" stroke="#fff" stroke-miterlimit="10" stroke-width="0.25"/>
            <path id="Trazado_724765" data-name="Trazado 724765" d="M277.383,139.389a2.029,2.029,0,0,0,1.6-1.107" transform="translate(-268.92 -136.388)" fill="none" stroke="#fff" stroke-miterlimit="10" stroke-width="0.25"/>
          </g>
        </g>
        <g id="Grupo_1009845" data-name="Grupo 1009845" transform="translate(62.803 52.072)">
          <g id="Grupo_1009842" data-name="Grupo 1009842" transform="translate(1.88)">
            <path id="Trazado_724766" data-name="Trazado 724766" d="M280.009,244.595l3.524,1.29,3.513-7.79-4.69-1.717Z" transform="translate(-280.009 -235.549)" fill="#e39b40"/>
            <rect id="Rectángulo_348631" data-name="Rectángulo 348631" width="5.687" height="0.864" transform="translate(7.325 2.766) rotate(-159.894)" fill="#2b5f91"/>
          </g>
          <g id="Grupo_1009843" data-name="Grupo 1009843" transform="translate(0 5.815)">
            <path id="Trazado_724767" data-name="Trazado 724767" d="M278.558,247.327a.44.44,0,0,0-.081.615,1.131,1.131,0,0,0,.578.369,6.535,6.535,0,0,0,3.652.212,1.29,1.29,0,0,0,.588-.257.507.507,0,0,0,.148-.584l1.094.326s1.092,2.838,0,4.24-5.284,2.149-6.146,1.574a8.279,8.279,0,0,1-2.464-2.47c-.072-.471.394-3.8,1.026-4.025A3.5,3.5,0,0,1,278.558,247.327Z" transform="translate(-275.919 -247.226)" fill="#51aee6"/>
            <path id="Trazado_724768" data-name="Trazado 724768" d="M278.558,247.327a.44.44,0,0,0-.081.615,1.131,1.131,0,0,0,.578.369,6.535,6.535,0,0,0,3.652.212,1.29,1.29,0,0,0,.588-.257.507.507,0,0,0,.148-.584l1.094.326s1.092,2.838,0,4.24-5.284,2.149-6.146,1.574a8.279,8.279,0,0,1-2.464-2.47c-.072-.471.394-3.8,1.026-4.025A3.5,3.5,0,0,1,278.558,247.327Z" transform="translate(-275.919 -247.226)" fill="#08828b" style="mix-blend-mode: screen;isolation: isolate"/>
            <path id="Trazado_724769" data-name="Trazado 724769" d="M278.558,247.327a.44.44,0,0,0-.081.615,1.131,1.131,0,0,0,.578.369,6.535,6.535,0,0,0,3.652.212,1.29,1.29,0,0,0,.588-.257.507.507,0,0,0,.148-.584l1.094.326s1.092,2.838,0,4.24-5.284,2.149-6.146,1.574a8.279,8.279,0,0,1-2.464-2.47c-.072-.471.394-3.8,1.026-4.025A3.5,3.5,0,0,1,278.558,247.327Z" transform="translate(-275.919 -247.226)" fill="#08828b" opacity="0.6" style="mix-blend-mode: screen;isolation: isolate"/>
          </g>
          <g id="Grupo_1009844" data-name="Grupo 1009844" transform="translate(0.007 5.916)">
            <path id="Trazado_724770" data-name="Trazado 724770" d="M286.349,247.8a.508.508,0,0,1-.148.584,1.29,1.29,0,0,1-.588.257,6.535,6.535,0,0,1-3.652-.212,1.131,1.131,0,0,1-.578-.369.44.44,0,0,1,.081-.615" transform="translate(-278.832 -247.446)" fill="none" stroke="#fff" stroke-miterlimit="10" stroke-width="0.25"/>
            <path id="Trazado_724771" data-name="Trazado 724771" d="M293.215,251.18a.892.892,0,0,1-.133.9,2.144,2.144,0,0,1-.757.575,7.653,7.653,0,0,1-2.9.832" transform="translate(-283.222 -249.464)" fill="none" stroke="#fff" stroke-miterlimit="10" stroke-width="0.25"/>
            <path id="Trazado_724772" data-name="Trazado 724772" d="M277.535,252.674a2.03,2.03,0,0,1-1.6-1.107" transform="translate(-275.935 -249.673)" fill="none" stroke="#fff" stroke-miterlimit="10" stroke-width="0.25"/>
          </g>
        </g>
      </g>
      <g id="Grupo_1009886" data-name="Grupo 1009886" transform="translate(42.705 68.289)">
        <g id="Grupo_1009856" data-name="Grupo 1009856" transform="translate(6.723 32.289)">
          <g id="Grupo_1009851" data-name="Grupo 1009851" transform="translate(2.764)">
            <g id="Grupo_1009847" data-name="Grupo 1009847" transform="translate(0.798 2.797)">
              <path id="Trazado_724773" data-name="Trazado 724773" d="M77.419,200.017h0a7.774,7.774,0,0,0,4.389-10.079l-1.717-4.366a7.774,7.774,0,0,0-10.079-4.389h0a7.773,7.773,0,0,0-4.389,10.079l1.717,4.366A7.773,7.773,0,0,0,77.419,200.017Z" transform="translate(-65.082 -180.641)" fill="#ffb09a"/>
            </g>
            <g id="Grupo_1009848" data-name="Grupo 1009848" transform="translate(0.141 10.973)">
              <path id="Trazado_724774" data-name="Trazado 724774" d="M103.384,199.974a2.412,2.412,0,0,1-.683.861,3.982,3.982,0,0,1-1.173.681,3.148,3.148,0,0,1-.964.242,2.377,2.377,0,0,1-.878.017,1.273,1.273,0,0,1-.666-.249.755.755,0,0,1-.413-.449l-.059-.4a1.575,1.575,0,0,1,.373-.848l.4-.4a4.08,4.08,0,0,1,1.128-.661l.033-.01-1.128.66.026-.02-.66.829.01-.023a1.7,1.7,0,0,1,.461-.627,2.6,2.6,0,0,1,.712-.564,3.31,3.31,0,0,1,.94-.4,2.959,2.959,0,0,1,.949-.185,1.958,1.958,0,0,1,1.417.392.989.989,0,0,1,.177,1.154Z" transform="translate(-82.508 -198.427)" fill="#ffb09a"/>
              <path id="Trazado_724775" data-name="Trazado 724775" d="M104.5,200.452a.5.5,0,0,0-.457-.181,1.929,1.929,0,0,0-.666.149c-.363.143-.734.42-.7.646a.955.955,0,0,1,.747-.1c.2.07.481.5-.374.935" transform="translate(-84.741 -199.424)" fill="none" stroke="#1f3054" stroke-miterlimit="10" stroke-width="0.211"/>
              <path id="Trazado_724776" data-name="Trazado 724776" d="M68.479,212.947l.01.023a.755.755,0,0,1,0,.61,1.27,1.27,0,0,1-.318.636,2.369,2.369,0,0,1-.654.586,3.127,3.127,0,0,1-.871.479l-.652.2a3.311,3.311,0,0,1-1.19.059l-.482-.132a1.05,1.05,0,0,1-.6-.566l-.01-.023a.754.754,0,0,1,0-.61,1.274,1.274,0,0,1,.318-.636,2.39,2.39,0,0,1,.654-.586,3.145,3.145,0,0,1,.871-.479l.652-.2a3.32,3.32,0,0,1,1.189-.06l.482.132a1.05,1.05,0,0,1,.6.566Z" transform="translate(-63.653 -205.88)" fill="#ffb09a"/>
              <path id="Trazado_724777" data-name="Trazado 724777" d="M66.278,215.419a.462.462,0,0,1,.179-.443,1.879,1.879,0,0,1,.572-.359c.359-.153.824-.22.969-.039a.912.912,0,0,0-.59.45c-.082.184.048.682.963.386" transform="translate(-65.064 -207.096)" fill="none" stroke="#1f3054" stroke-miterlimit="10" stroke-width="0.211"/>
            </g>
            <path id="Trazado_724778" data-name="Trazado 724778" d="M64.541,179.65a3.822,3.822,0,0,1,.406-1.946,3.35,3.35,0,0,1,.775,1.1,5.012,5.012,0,0,1,1.067-1.512,9.792,9.792,0,0,1,2.9-2.14,6.2,6.2,0,0,1,3.068-.582,3.931,3.931,0,0,0-1.084.859,5.158,5.158,0,0,0-.481.64,3.286,3.286,0,0,1,1.641.507,6.42,6.42,0,0,0,4.066.537,5.131,5.131,0,0,0,2.926-1.8,5.085,5.085,0,0,1,.325,1.587c.094-.047.187-.1.276-.151a7.288,7.288,0,0,0,1.623-1.319,6.755,6.755,0,0,1,.165,1.257,8.8,8.8,0,0,1-.4,4.09,6.623,6.623,0,0,1-3.714,3.222,7.248,7.248,0,0,1-1.842.519,8.345,8.345,0,0,1-3.078-.315A21.982,21.982,0,0,1,71,183.531c-1.358-.5-2.824-1.147-4.2-.684l-.858-.488A3.836,3.836,0,0,1,64.541,179.65Z" transform="translate(-63.988 -174.555)" fill="#2b5f91"/>
            <path id="Trazado_724779" data-name="Trazado 724779" d="M63.483,194.864a5.538,5.538,0,0,1,.73-4.394,1.43,1.43,0,0,1,1.1-.592l1.125.185a4.585,4.585,0,0,1,.673,4.335,8.931,8.931,0,0,1-1.632,2.786l1.3,4.1c-.439-.538-.863-1.1-1.258-1.689A13.025,13.025,0,0,1,63.483,194.864Z" transform="translate(-63.346 -182.835)" fill="#2b5f91"/>
            <path id="Trazado_724780" data-name="Trazado 724780" d="M90.989,184.242a5.536,5.536,0,0,0-3.528-2.72,1.427,1.427,0,0,0-1.2.313l-.7.9a4.585,4.585,0,0,0,2.461,3.632,8.928,8.928,0,0,0,3.093.928l1.839,3.884c-.045-.694-.115-1.391-.23-2.093A13.023,13.023,0,0,0,90.989,184.242Z" transform="translate(-75.348 -178.31)" fill="#2b5f91"/>
            <g id="Grupo_1009850" data-name="Grupo 1009850" transform="translate(4.703 11.375)">
              <g id="Grupo_1009849" data-name="Grupo 1009849">
                <path id="Trazado_724781" data-name="Trazado 724781" d="M76,206.485a1.651,1.651,0,0,0-1.411-.478,1.391,1.391,0,0,0-1.012.967" transform="translate(-73.579 -202.912)" fill="none" stroke="#0085bf" stroke-linecap="round" stroke-linejoin="round" stroke-width="2.654"/>
                <path id="Trazado_724782" data-name="Trazado 724782" d="M92.809,199.532a1.759,1.759,0,0,0-1.811.039.876.876,0,0,0-.2.174,1.623,1.623,0,0,0-.249.7" transform="translate(-82.751 -199.301)" fill="none" stroke="#0085bf" stroke-linecap="round" stroke-linejoin="round" stroke-width="2.654"/>
                <path id="Trazado_724783" data-name="Trazado 724783" d="M85.506,203.6a12.382,12.382,0,0,1,1.222,2.365,3.925,3.925,0,0,1,.339,1.879.782.782,0,0,1-.133.387.342.342,0,0,1-.364.134.553.553,0,0,1-.249-.241,5.234,5.234,0,0,0-1.088-1.17.752.752,0,0,1-.235.422.429.429,0,0,1-.459.068.3.3,0,0,1-.124-.418" transform="translate(-79.412 -201.622)" fill="#ffb09a" stroke="#1f3054" stroke-miterlimit="10" stroke-width="0.278"/>
                <path id="Trazado_724784" data-name="Trazado 724784" d="M88.193,216.11a.925.925,0,0,0,1.118-.013" transform="translate(-81.476 -208.377)" fill="none" stroke="#1f3054" stroke-miterlimit="10" stroke-width="0.278"/>
                <path id="Trazado_724785" data-name="Trazado 724785" d="M93.319,204.025a.933.933,0,1,0-.943-.589A.8.8,0,0,0,93.319,204.025Z" transform="translate(-83.692 -200.937)" fill="#1f3054"/>
                <path id="Trazado_724786" data-name="Trazado 724786" d="M77.39,210.29a.933.933,0,0,1-.654-1.662c.34-.134.762.13.943.589A.8.8,0,0,1,77.39,210.29Z" transform="translate(-75.085 -204.322)" fill="#1f3054"/>
              </g>
            </g>
          </g>
          <g id="Grupo_1009855" data-name="Grupo 1009855" transform="translate(0 27.682)">
            <path id="Trazado_724787" data-name="Trazado 724787" d="M66.2,234.78c-4.4,3.291-8.8,12.113-8.86,12.752-.116,1.153.8,2.132,1.694,2.871,3.26,2.7,8.369,5.038,13.343,6.745" transform="translate(-57.332 -234.78)" fill="none" stroke="#00a099" stroke-miterlimit="10" stroke-width="16.161"/>
            <g id="Grupo_1009854" data-name="Grupo 1009854" transform="translate(8.109 9.944)">
              <path id="Trazado_724788" data-name="Trazado 724788" d="M82.805,280.38c.042,2.686-1.871,4.941-3.508,7.071-2.434,3.167-4.548,6.916-4.305,10.9a14.757,14.757,0,0,0,.985,4.2c1.1,2.962,2.9,5.9,5.776,7.192,2.474,1.113,5.347.84,7.989.224a13.419,13.419,0,0,0,3.735-1.356c3.294-1.918,4.922-5.984,4.725-9.791s-1.947-7.375-4.1-10.52a28.664,28.664,0,0,0-9.878-9.294" transform="translate(-74.974 -268.623)" fill="#e39b40"/>
              <g id="Grupo_1009852" data-name="Grupo 1009852" transform="translate(7.105)">
                <path id="Trazado_724789" data-name="Trazado 724789" d="M101.493,263.089a23.957,23.957,0,0,0-4.712,5.746c-.138,0-.276.01-.414.018q.536-3.741,1.222-7.459A14.18,14.18,0,0,1,101.493,263.089Z" transform="translate(-93.638 -259.105)" fill="#e39b40"/>
                <path id="Trazado_724790" data-name="Trazado 724790" d="M94.828,256.413c-.152.763-.3,1.525-.447,2.29-.376-.1-.755-.188-1.138-.255.383.067.762.156,1.138.255q-.692,3.716-1.222,7.459a8.157,8.157,0,0,0-1.529.242,56.088,56.088,0,0,1-1.2-7.919A22.856,22.856,0,0,1,94.828,256.413Z" transform="translate(-90.431 -256.413)" fill="#e39b40"/>
              </g>
              <g id="Grupo_1009853" data-name="Grupo 1009853" transform="translate(6.12 8.111)">
                <path id="Trazado_724791" data-name="Trazado 724791" d="M88.4,279.959a8.757,8.757,0,0,1,2.232-.99.727.727,0,0,1,.655.011.714.714,0,0,1,.219.416,6.319,6.319,0,0,1,.111,2.544.517.517,0,0,1-.11.285.54.54,0,0,1-.354.12,5.057,5.057,0,0,1-1.518-.018,1.711,1.711,0,0,1-1.2-.849,2.307,2.307,0,0,1-.032-1.518" transform="translate(-88.289 -276.673)" fill="#ffb09a" stroke="#ffb09a" stroke-miterlimit="10" stroke-width="0.14"/>
                <path id="Trazado_724792" data-name="Trazado 724792" d="M94.69,279.264A6.225,6.225,0,0,1,92.639,279a.432.432,0,0,1-.2-.108.448.448,0,0,1-.068-.327,33.109,33.109,0,0,1,.455-3.919.711.711,0,0,1,.117-.328.666.666,0,0,1,.426-.2,4.206,4.206,0,0,1,2.118.186,9.2,9.2,0,0,0-1.6.864l2.082.39c.149.028.329.085.354.235a18.272,18.272,0,0,0-2.3.735,7.284,7.284,0,0,1,2.5.435c-.783.311-1.719.057-2.474.429l1.942.631a.241.241,0,0,1,.154.1c.067.136-.138.239-.289.253l-1.749.175c.037.113.171.157.289.172s.772.172.767.291c-.011.245-.35.278-.465.249" transform="translate(-90.491 -274.059)" fill="#ffb09a" stroke="#ffb09a" stroke-miterlimit="10" stroke-width="0.14"/>
              </g>
            </g>
          </g>
        </g>
        <g id="Grupo_1009874" data-name="Grupo 1009874" transform="translate(0 99.118)">
          <g id="Grupo_1009862" data-name="Grupo 1009862" transform="translate(0 36.386)">
            <path id="Trazado_724793" data-name="Trazado 724793" d="M72.054,411.512l1.393-6.264-12.906-2.379-1.393,6.264Z" transform="translate(-51.59 -401.139)" fill="#e39b40"/>
            <g id="Grupo_1009859" data-name="Grupo 1009859" transform="translate(0.645 0.339)">
              <g id="Grupo_1009857" data-name="Grupo 1009857">
                <path id="Trazado_724794" data-name="Trazado 724794" d="M52.313,401.688a26.119,26.119,0,0,0-6.1-.624,4.172,4.172,0,0,0-1.485.272c-.405.193-.648.726-.506.085s.144-.057.429.258a3.871,3.871,0,0,0,1.252.776,25.794,25.794,0,0,0,5.883,1.584c.011,0-.248,1.148-.255,1.147-2.152-.407-4.788-.783-6.63-1.976a1.388,1.388,0,0,1-.714-1.8,1.473,1.473,0,0,1,1.32-1.381c2.2-.514,4.9.121,7.057.508.007,0-.243,1.149-.255,1.146Z" transform="translate(-44.109 -399.841)" fill="#e39b40"/>
              </g>
              <g id="Grupo_1009858" data-name="Grupo 1009858" style="mix-blend-mode: multiply;isolation: isolate">
                <path id="Trazado_724795" data-name="Trazado 724795" d="M52.313,401.688a26.119,26.119,0,0,0-6.1-.624,4.172,4.172,0,0,0-1.485.272c-.405.193-.648.726-.506.085s.144-.057.429.258a3.871,3.871,0,0,0,1.252.776,25.794,25.794,0,0,0,5.883,1.584c.011,0-.248,1.148-.255,1.147-2.152-.407-4.788-.783-6.63-1.976a1.388,1.388,0,0,1-.714-1.8,1.473,1.473,0,0,1,1.32-1.381c2.2-.514,4.9.121,7.057.508.007,0-.243,1.149-.255,1.146Z" transform="translate(-44.109 -399.841)" fill="#e39b40"/>
              </g>
            </g>
            <g id="Grupo_1009860" data-name="Grupo 1009860" transform="translate(0 3.24)">
              <path id="Trazado_724796" data-name="Trazado 724796" d="M50.91,408a26.119,26.119,0,0,0-6.1-.624,4.181,4.181,0,0,0-1.484.272c-.405.193-.649.726-.506.085s.144-.057.429.258a3.882,3.882,0,0,0,1.252.776,25.821,25.821,0,0,0,5.883,1.584c.011,0-.248,1.148-.255,1.146-2.151-.407-4.787-.783-6.629-1.976a1.388,1.388,0,0,1-.715-1.8,1.474,1.474,0,0,1,1.32-1.381c2.2-.514,4.9.121,7.057.508.007,0-.243,1.149-.255,1.146Z" transform="translate(-42.705 -406.153)" fill="#e39b40"/>
            </g>
            <g id="Grupo_1009861" data-name="Grupo 1009861" transform="translate(8.569)">
              <path id="Trazado_724797" data-name="Trazado 724797" d="M74.635,403.214c-.212.957-6.162.667-13.288-.647l.77-3.463C69.243,400.418,74.848,402.258,74.635,403.214Z" transform="translate(-61.347 -399.104)" fill="#e39b40"/>
              <path id="Trazado_724798" data-name="Trazado 724798" d="M74.635,403.214c-.212.957-6.162.667-13.288-.647l.77-3.463C69.243,400.418,74.848,402.258,74.635,403.214Z" transform="translate(-61.347 -399.104)" fill="#fee435" style="mix-blend-mode: multiply;isolation: isolate"/>
            </g>
            <path id="Trazado_724799" data-name="Trazado 724799" d="M71.6,416.841c-.213.957-6.162.666-13.289-.647l.77-3.463C66.212,414.045,71.817,415.885,71.6,416.841Z" transform="translate(-51.141 -406.467)" fill="#e39b40"/>
          </g>
          <g id="Grupo_1009869" data-name="Grupo 1009869" transform="translate(7.67)">
            <g id="Grupo_1009864" data-name="Grupo 1009864" transform="translate(7.428)">
              <rect id="Rectángulo_348632" data-name="Rectángulo 348632" width="31.474" height="3.556" fill="#2b5f91"/>
              <g id="Grupo_1009863" data-name="Grupo 1009863" transform="translate(1.766 3.556)">
                <path id="Trazado_724800" data-name="Trazado 724800" d="M100.651,371.447H86.391c-1.846,0-3.509-2-3.715-4.459L79.394,327.68h27.941l-3,39.308C104.146,369.451,102.5,371.447,100.651,371.447Z" transform="translate(-79.394 -327.68)" fill="#2b5f91"/>
              </g>
            </g>
            <g id="Grupo_1009867" data-name="Grupo 1009867">
              <g id="Grupo_1009865" data-name="Grupo 1009865">
                <rect id="Rectángulo_348633" data-name="Rectángulo 348633" width="31.474" height="3.556" fill="#2b5f91"/>
                <rect id="Rectángulo_348634" data-name="Rectángulo 348634" width="31.474" height="3.556" fill="#0085bf" opacity="0.5" style="mix-blend-mode: screen;isolation: isolate"/>
              </g>
              <g id="Grupo_1009866" data-name="Grupo 1009866" transform="translate(1.766 3.556)">
                <path id="Trazado_724801" data-name="Trazado 724801" d="M84.491,371.447H70.231c-1.846,0-3.509-2-3.715-4.459L63.234,327.68H91.176l-3,39.308C87.987,369.451,86.338,371.447,84.491,371.447Z" transform="translate(-63.234 -327.68)" fill="#2b5f91"/>
                <path id="Trazado_724802" data-name="Trazado 724802" d="M84.491,371.447H70.231c-1.846,0-3.509-2-3.715-4.459L63.234,327.68H91.176l-3,39.308C87.987,369.451,86.338,371.447,84.491,371.447Z" transform="translate(-63.234 -327.68)" fill="#0085bf" opacity="0.5" style="mix-blend-mode: screen;isolation: isolate"/>
              </g>
            </g>
            <path id="Trazado_724803" data-name="Trazado 724803" d="M74.877,327.68q11.431,1.125,22.9,1.858l.371-1.858Z" transform="translate(-67.759 -324.124)" fill="#2b5f91"/>
            <g id="Grupo_1009868" data-name="Grupo 1009868" transform="translate(10.373 10.559)">
              <path id="Trazado_724804" data-name="Trazado 724804" d="M98.427,357.994a1.488,1.488,0,0,1-.019.5,3.37,3.37,0,0,1-.646,1.478,3.047,3.047,0,0,1-2.046,1.227,6.256,6.256,0,0,1-.9.031c-.118,0-.118,0-.118.12q0,.384,0,.768c0,.024.009.058-.019.069s-.044-.021-.061-.038q-.709-.714-1.416-1.429c-.182-.183-.363-.368-.547-.549-.051-.05-.057-.083,0-.137q.979-.976,1.954-1.955c.017-.017.032-.049.061-.036s.017.046.017.069c0,.262,0,.523,0,.784,0,.065.018.091.087.091.781,0,1.562,0,2.342-.008a1.308,1.308,0,0,0,.969-.4,1.4,1.4,0,0,0,.337-.552A.3.3,0,0,1,98.427,357.994Z" transform="translate(-87.713 -351.063)" fill="#fff"/>
              <path id="Trazado_724805" data-name="Trazado 724805" d="M83.694,356.915a2.92,2.92,0,0,1-.571-.429,3.513,3.513,0,0,1-.83-1.241,3.148,3.148,0,0,1-.241-1.257,2.831,2.831,0,0,1,.419-1.442c.092-.151.177-.305.269-.456.029-.048.023-.074-.028-.1-.234-.133-.466-.269-.7-.4-.022-.013-.062-.021-.054-.055s.042-.024.066-.03l2.654-.711c.1-.026.108-.021.133.078q.356,1.342.711,2.685c.006.023.027.053,0,.071s-.048-.009-.069-.021c-.232-.136-.465-.27-.695-.409-.054-.033-.079-.021-.108.029-.357.616-.717,1.23-1.072,1.846a1.793,1.793,0,0,0-.269.8,1.333,1.333,0,0,0,.346.986C83.671,356.868,83.692,356.877,83.694,356.915Z" transform="translate(-81.959 -347.162)" fill="#fff"/>
              <path id="Trazado_724806" data-name="Trazado 724806" d="M90.281,343.357a2.554,2.554,0,0,1,.695-.3,3.412,3.412,0,0,1,2.164.08,2.858,2.858,0,0,1,1.55,1.385c.066.127.142.249.209.376.036.069.076.074.141.037.223-.13.449-.256.674-.382.021-.012.044-.04.068-.02s0,.043-.006.064q-.348,1.3-.7,2.594c-.061.224-.022.188-.233.133q-1.214-.318-2.426-.643c-.05-.013-.1-.026-.148-.04-.016-.005-.04,0-.044-.025s.021-.033.037-.042c.2-.119.4-.237.6-.354.176-.1.176-.1.073-.283-.339-.6-.675-1.2-1.017-1.8a1.516,1.516,0,0,0-.766-.713,1.387,1.387,0,0,0-.784-.063c-.023,0-.045.008-.068.011C90.3,343.369,90.3,343.365,90.281,343.357Z" transform="translate(-86.456 -342.915)" fill="#fff"/>
              <path id="Trazado_724807" data-name="Trazado 724807" d="M100.14,355.765h-.2c-.045,0-.067-.016-.052-.066a.907.907,0,0,0-.14-.765q-.3-.481-.569-.984c-.055-.1-.054-.107.048-.165l1.717-.988c.119-.069.121-.069.186.05a7.229,7.229,0,0,1,.488.931,1.791,1.791,0,0,1,.092,1.1,1.047,1.047,0,0,1-.943.849A4.278,4.278,0,0,1,100.14,355.765Z" transform="translate(-91.244 -348.229)" fill="#fff"/>
              <path id="Trazado_724808" data-name="Trazado 724808" d="M88.274,360.927q0,.5,0,.991c0,.11-.013.123-.125.122a7.786,7.786,0,0,1-.966-.029,1.775,1.775,0,0,1-1.088-.481,1.043,1.043,0,0,1-.357-.818,1.724,1.724,0,0,1,.2-.656c.085-.17.183-.331.28-.494.026-.043.047-.052.087-.013a.877.877,0,0,0,.669.251c.387-.01.773,0,1.16,0,.128,0,.139.012.139.141Z" transform="translate(-84 -351.889)" fill="#fff"/>
              <path id="Trazado_724809" data-name="Trazado 724809" d="M88.685,344.528a.985.985,0,0,1,.688.266,2.748,2.748,0,0,1,.53.729c.028.052.055.1.084.155s.013.061-.03.073a.972.972,0,0,0-.6.52c-.18.33-.376.651-.563.978-.035.061-.066.078-.132.039q-.877-.508-1.756-1.011c-.051-.029-.094-.059-.057-.126a4.625,4.625,0,0,1,.778-1.144,1.588,1.588,0,0,1,.837-.453C88.546,344.539,88.634,344.534,88.685,344.528Z" transform="translate(-84.592 -343.787)" fill="#fff"/>
            </g>
          </g>
          <g id="Grupo_1009873" data-name="Grupo 1009873" transform="translate(21.732 38.242)">
            <g id="Grupo_1009870" data-name="Grupo 1009870" transform="translate(0 2.679)">
              <rect id="Rectángulo_348635" data-name="Rectángulo 348635" width="5.754" height="9.161" fill="#1f3054"/>
              <rect id="Rectángulo_348636" data-name="Rectángulo 348636" width="5.754" height="9.161" fill="#1f3054" opacity="0.2" style="mix-blend-mode: difference;isolation: isolate"/>
            </g>
            <g id="Grupo_1009871" data-name="Grupo 1009871" transform="translate(0 0.75)">
              <path id="Trazado_724810" data-name="Trazado 724810" d="M92.862,404.772h2.089l.788,1.929H89.985Z" transform="translate(-89.985 -404.772)" fill="#1f3054"/>
              <path id="Trazado_724811" data-name="Trazado 724811" d="M92.862,404.772h2.089l.788,1.929H89.985Z" transform="translate(-89.985 -404.772)" fill="#1f3054" opacity="0.2" style="mix-blend-mode: difference;isolation: isolate"/>
            </g>
            <rect id="Rectángulo_348637" data-name="Rectángulo 348637" width="5.754" height="9.161" transform="translate(7.843 11.84) rotate(180)" fill="#1f3054"/>
            <path id="Trazado_724812" data-name="Trazado 724812" d="M97.407,404.772l2.877,1.929H94.53Z" transform="translate(-92.441 -404.022)" fill="#1f3054"/>
            <rect id="Rectángulo_348638" data-name="Rectángulo 348638" width="3.536" height="2.025" transform="translate(6.975 6.086) rotate(180)" fill="#00a099"/>
            <g id="Grupo_1009872" data-name="Grupo 1009872" transform="translate(2.877)">
              <rect id="Rectángulo_348639" data-name="Rectángulo 348639" width="2.089" height="0.75" fill="#1f3054"/>
              <rect id="Rectángulo_348640" data-name="Rectángulo 348640" width="2.089" height="0.75" fill="#1f3054" opacity="0.5" style="mix-blend-mode: screen;isolation: isolate"/>
            </g>
          </g>
        </g>
        <g id="Grupo_1009885" data-name="Grupo 1009885" transform="translate(35.747)">
          <g id="Grupo_1009880" data-name="Grupo 1009880" transform="translate(8.989 3.201)">
            <path id="Trazado_724813" data-name="Trazado 724813" d="M141.437,123.679l-1.393-6.264,12.906-2.379,1.393,6.264Z" transform="translate(-140.038 -113.306)" fill="#e39b40"/>
            <g id="Grupo_1009877" data-name="Grupo 1009877" transform="translate(12.758 0.339)">
              <g id="Grupo_1009875" data-name="Grupo 1009875">
                <path id="Trazado_724814" data-name="Trazado 724814" d="M168.042,113.856a26.1,26.1,0,0,1,6.1-.625,4.181,4.181,0,0,1,1.484.272c.405.193.648.726.506.085s-.144-.057-.429.258a3.874,3.874,0,0,1-1.251.776,25.8,25.8,0,0,1-5.883,1.584c-.012,0,.247,1.148.255,1.147,2.151-.407,4.787-.783,6.629-1.976a1.389,1.389,0,0,0,.715-1.8,1.474,1.474,0,0,0-1.32-1.381c-2.2-.514-4.9.122-7.057.508-.007,0,.244,1.149.255,1.147Z" transform="translate(-167.787 -112.008)" fill="#e39b40"/>
              </g>
              <g id="Grupo_1009876" data-name="Grupo 1009876" style="mix-blend-mode: multiply;isolation: isolate">
                <path id="Trazado_724815" data-name="Trazado 724815" d="M168.042,113.856a26.1,26.1,0,0,1,6.1-.625,4.181,4.181,0,0,1,1.484.272c.405.193.648.726.506.085s-.144-.057-.429.258a3.874,3.874,0,0,1-1.251.776,25.8,25.8,0,0,1-5.883,1.584c-.012,0,.247,1.148.255,1.147,2.151-.407,4.787-.783,6.629-1.976a1.389,1.389,0,0,0,.715-1.8,1.474,1.474,0,0,0-1.32-1.381c-2.2-.514-4.9.122-7.057.508-.007,0,.244,1.149.255,1.147Z" transform="translate(-167.787 -112.008)" fill="#e39b40"/>
              </g>
            </g>
            <g id="Grupo_1009878" data-name="Grupo 1009878" transform="translate(13.403 3.24)">
              <path id="Trazado_724816" data-name="Trazado 724816" d="M169.446,120.167a26.118,26.118,0,0,1,6.1-.624,4.182,4.182,0,0,1,1.485.272c.405.193.648.726.506.085s-.144-.057-.429.258a3.865,3.865,0,0,1-1.252.776,25.8,25.8,0,0,1-5.883,1.584c-.011,0,.248,1.148.255,1.147,2.152-.407,4.788-.783,6.63-1.976a1.388,1.388,0,0,0,.714-1.8,1.473,1.473,0,0,0-1.32-1.381c-2.2-.514-4.9.121-7.057.508-.007,0,.243,1.149.255,1.146Z" transform="translate(-169.191 -118.32)" fill="#e39b40"/>
            </g>
            <g id="Grupo_1009879" data-name="Grupo 1009879">
              <path id="Trazado_724817" data-name="Trazado 724817" d="M140.037,115.381c.213.956,6.162.666,13.289-.648l-.77-3.463C145.429,112.585,139.824,114.425,140.037,115.381Z" transform="translate(-140.031 -111.271)" fill="#e39b40"/>
              <path id="Trazado_724818" data-name="Trazado 724818" d="M140.037,115.381c.213.956,6.162.666,13.289-.648l-.77-3.463C145.429,112.585,139.824,114.425,140.037,115.381Z" transform="translate(-140.031 -111.271)" fill="#fee435" style="mix-blend-mode: multiply;isolation: isolate"/>
            </g>
            <path id="Trazado_724819" data-name="Trazado 724819" d="M143.068,129.008c.212.957,6.162.667,13.288-.647l-.77-3.463C148.46,126.212,142.855,128.052,143.068,129.008Z" transform="translate(-141.669 -118.634)" fill="#e39b40"/>
          </g>
          <g id="Grupo_1009881" data-name="Grupo 1009881" transform="translate(8.139)">
            <path id="Trazado_724820" data-name="Trazado 724820" d="M145.829,116.169a1.205,1.205,0,0,0,.672-.652l.658-1.558a2.932,2.932,0,0,0-.029-2.317,2.8,2.8,0,0,1-.226-.743l-2.688-1.136a2.164,2.164,0,0,1-.691.356,2.874,2.874,0,0,0-1.681,1.594l-.736,1.741a.839.839,0,0,0,.091.723h0a.719.719,0,0,1-.284.672h0a.837.837,0,0,0-.581.439l-2.1,4.979a.7.7,0,0,0,.02.548,1.052,1.052,0,0,0,.626.733,1.006,1.006,0,0,0,.745.027l.336.142a1.073,1.073,0,0,0,.538.516,1.009,1.009,0,0,0,.745.027l.336.142a1.067,1.067,0,0,0,.538.515,1.051,1.051,0,0,0,.962-.062.7.7,0,0,0,.407-.368l2.079-4.918a.936.936,0,0,0,.01-.536l-.04-.161a.562.562,0,0,1,.3-.7Z" transform="translate(-138.182 -107.255)" fill="#00a099"/>
            <path id="Trazado_724821" data-name="Trazado 724821" d="M151.545,106.846h0l-.047.2a2.238,2.238,0,0,1-1.087,1.125l3.177,1.342a2.275,2.275,0,0,1,.049-1.563l.077-.183.031.013a.133.133,0,1,0,.1-.245l-.03-.013.142-.336-2.169-.917-.116.275-.03-.013a.143.143,0,0,0-.174.071C151.418,106.72,151.453,106.807,151.545,106.846Z" transform="translate(-144.79 -105.365)" fill="#fff"/>
            <path id="Trazado_724822" data-name="Trazado 724822" d="M155.693,105.056l-1.711-.723a.332.332,0,0,0-.434.177l-.3.7,2.322.981.3-.7A.332.332,0,0,0,155.693,105.056Z" transform="translate(-146.324 -104.308)" fill="#e39b40"/>
            <rect id="SVGCleanerId_0-2" data-name="SVGCleanerId 0" width="3.449" height="5.688" transform="matrix(0.389, -0.921, 0.921, 0.389, 0.591, 11.765)" fill="#fff"/>
          </g>
          <g id="Grupo_1009882" data-name="Grupo 1009882" transform="translate(3.024 7.558)">
            <path id="Trazado_724823" data-name="Trazado 724823" d="M137.871,128.9l-2.651,2.656-6.47-5.582,3.528-3.534Z" transform="translate(-127.97 -121.665)" fill="#e39b40"/>
            <rect id="Rectángulo_348641" data-name="Rectángulo 348641" width="5.687" height="0.864" transform="translate(0 4.025) rotate(-45.051)" fill="#00a099"/>
          </g>
          <g id="Grupo_1009883" data-name="Grupo 1009883" transform="translate(0 13.548)">
            <path id="Trazado_724824" data-name="Trazado 724824" d="M130.957,135.824l-.247,3.745-8.545.058.329-4.983Z" transform="translate(-121.388 -134.247)" fill="#2b5f91"/>
            <rect id="Rectángulo_348642" data-name="Rectángulo 348642" width="5.687" height="0.864" transform="matrix(0.066, -0.998, 0.998, 0.066, 0, 5.675)" fill="#1f3054"/>
          </g>
          <g id="Grupo_1009884" data-name="Grupo 1009884" transform="translate(15.904 10.286)">
            <path id="Trazado_724825" data-name="Trazado 724825" d="M155.075,128.728l.247,3.745,8.545.058-.329-4.983Z" transform="translate(-155.075 -127.152)" fill="#fff"/>
            <rect id="Rectángulo_348643" data-name="Rectángulo 348643" width="5.687" height="0.864" transform="matrix(-0.066, -0.998, 0.998, -0.066, 8.707, 5.732)" fill="#1f3054"/>
          </g>
        </g>
        <path id="Trazado_724826" data-name="Trazado 724826" d="M110.928,163.031a6.234,6.234,0,0,1-1.784-1.048A.433.433,0,0,1,109,161.8a.446.446,0,0,1,.065-.327,33.1,33.1,0,0,1,1.948-3.431.715.715,0,0,1,.235-.256.666.666,0,0,1,.468-.014,4.211,4.211,0,0,1,1.878,1,9.213,9.213,0,0,0-1.808.172l1.765,1.172c.126.084.269.207.234.355a18.2,18.2,0,0,0-2.407-.222,7.275,7.275,0,0,1,2.129,1.375c-.842-.019-1.6-.618-2.445-.57.514.446,1.641,1.428,1.645,1.491.008.151-.22.165-.365.12l-1.679-.522c-.01.118.1.211.2.271s.644.46.593.567c-.105.221-.43.12-.524.048" transform="translate(-78.52 -133.179)" fill="#ffb09a" stroke="#ffb09a" stroke-miterlimit="10" stroke-width="0.14"/>
      </g>
      <g id="Grupo_1009909" data-name="Grupo 1009909" transform="translate(136.701 39.634)">
        <g id="Grupo_1009895" data-name="Grupo 1009895" transform="translate(0 17.168)">
          <path id="Trazado_724827" data-name="Trazado 724827" d="M252.412,81.634a6.222,6.222,0,0,0-.3-2.047.429.429,0,0,0-.111-.2.445.445,0,0,0-.328-.063,33.143,33.143,0,0,0-3.911.517.711.711,0,0,0-.326.122.668.668,0,0,0-.188.429,4.21,4.21,0,0,0,.219,2.114,9.209,9.209,0,0,1,.839-1.611l.423,2.076c.03.148.091.328.241.35a18.212,18.212,0,0,1,.7-2.314,7.285,7.285,0,0,0,.475,2.49c.3-.788.029-1.719.39-2.48.221.644.708,2.057.764,2.084.137.065.236-.142.249-.293q.073-.876.147-1.752c.113.035.16.169.177.286s.184.769.3.762c.244-.015.272-.354.241-.468" transform="translate(-247.197 -79.318)" fill="#ffb09a" stroke="#ffb09a" stroke-miterlimit="10" stroke-width="0.14"/>
          <g id="Grupo_1009890" data-name="Grupo 1009890" transform="translate(32.513 5.993)">
            <g id="Grupo_1009888" data-name="Grupo 1009888" transform="translate(0 3.218)">
              <path id="Trazado_724828" data-name="Trazado 724828" d="M323.148,113.327c-3.306,0-4.924-2.757-5.154-5.17a14.393,14.393,0,0,1,.093-3.47c.166-.984,1.527-1.948,2.129-.678,0-2.716.624-4.652,2.969-4.652,2.638,0,2.61,4.334,2.518,6.467.648-.9,1.454-.031,1.743.712a4.762,4.762,0,0,1-.135,3.092,5.148,5.148,0,0,1-4.164,3.7" transform="translate(-317.931 -99.357)" fill="#e39b40"/>
              <g id="Grupo_1009887" data-name="Grupo 1009887" transform="translate(3.2 5.084)">
                <path id="Trazado_724829" data-name="Trazado 724829" d="M328.129,110.417c.077,6.435.086,9.946.026,16.381" transform="translate(-326.641 -110.417)" fill="none" stroke="#1f3054" stroke-miterlimit="10" stroke-width="0.4"/>
                <path id="Trazado_724830" data-name="Trazado 724830" d="M329.013,121.41a2.864,2.864,0,0,0,2.382-1.989" transform="translate(-327.119 -115.282)" fill="none" stroke="#1f3054" stroke-miterlimit="10" stroke-width="0.4"/>
                <path id="Trazado_724831" data-name="Trazado 724831" d="M326.169,114.859a1.667,1.667,0,0,1-1.277-.963" transform="translate(-324.892 -112.297)" fill="none" stroke="#1f3054" stroke-miterlimit="10" stroke-width="0.4"/>
              </g>
            </g>
            <path id="Trazado_724832" data-name="Trazado 724832" d="M336.246,92.356c4.4,3.291,8.868,6.645,12.167,11.041a3.581,3.581,0,0,1,.831,1.711c.116,1.153-.8,2.132-1.695,2.871-3.26,2.7-8.369,5.038-13.343,6.745" transform="translate(-326.725 -92.356)" fill="none" stroke="#0085bf" stroke-miterlimit="10" stroke-width="16.161"/>
            <g id="Grupo_1009889" data-name="Grupo 1009889" transform="translate(2.274 18.055)">
              <path id="Trazado_724833" data-name="Trazado 724833" d="M331.864,137.535a8.756,8.756,0,0,0-2.232-.99.726.726,0,0,0-.655.011.714.714,0,0,0-.219.416,6.319,6.319,0,0,0-.111,2.544.514.514,0,0,0,.111.285.541.541,0,0,0,.353.12,5.076,5.076,0,0,0,1.518-.018,1.711,1.711,0,0,0,1.2-.849,2.307,2.307,0,0,0,.032-1.518" transform="translate(-325.952 -134.249)" fill="#ffb09a" stroke="#ffb09a" stroke-miterlimit="10" stroke-width="0.14"/>
              <path id="Trazado_724834" data-name="Trazado 724834" d="M324.7,136.84a6.239,6.239,0,0,0,2.052-.269.432.432,0,0,0,.2-.108.446.446,0,0,0,.068-.327,33.108,33.108,0,0,0-.455-3.919.71.71,0,0,0-.117-.328.666.666,0,0,0-.426-.2,4.206,4.206,0,0,0-2.118.186,9.221,9.221,0,0,1,1.6.864l-2.083.39c-.148.028-.329.086-.354.235a18.166,18.166,0,0,1,2.3.735,7.284,7.284,0,0,0-2.5.435c.783.311,1.719.057,2.474.429l-1.942.631a.239.239,0,0,0-.154.1c-.067.136.138.239.289.253l1.749.175c-.037.113-.171.157-.289.172s-.772.172-.767.29c.011.245.35.278.465.249" transform="translate(-322.878 -131.635)" fill="#ffb09a" stroke="#ffb09a" stroke-miterlimit="10" stroke-width="0.14"/>
            </g>
          </g>
          <g id="Grupo_1009892" data-name="Grupo 1009892" transform="translate(44.75 17.406)">
            <path id="Trazado_724835" data-name="Trazado 724835" d="M349.771,131.154c-3.307,0-4.924-2.757-5.155-5.17a14.412,14.412,0,0,1,.093-3.47c.166-.984,1.527-1.948,2.129-.678,0-2.716.624-4.651,2.969-4.651,2.637,0,2.611,4.334,2.518,6.467.648-.9,1.454-.031,1.744.712a4.765,4.765,0,0,1-.135,3.092,5.147,5.147,0,0,1-4.164,3.7" transform="translate(-344.555 -117.185)" fill="#e39b40"/>
            <g id="Grupo_1009891" data-name="Grupo 1009891" transform="translate(3.199 5.083)">
              <path id="Trazado_724836" data-name="Trazado 724836" d="M354.752,128.244c.077,6.435.085,7.022.026,13.457" transform="translate(-353.264 -128.244)" fill="none" stroke="#1f3054" stroke-miterlimit="10" stroke-width="0.4"/>
              <path id="Trazado_724837" data-name="Trazado 724837" d="M355.636,139.238a2.865,2.865,0,0,0,2.383-1.99" transform="translate(-353.742 -133.109)" fill="none" stroke="#1f3054" stroke-miterlimit="10" stroke-width="0.4"/>
              <path id="Trazado_724838" data-name="Trazado 724838" d="M352.792,132.686a1.666,1.666,0,0,1-1.277-.963" transform="translate(-351.515 -130.124)" fill="none" stroke="#1f3054" stroke-miterlimit="10" stroke-width="0.4"/>
            </g>
          </g>
          <g id="Grupo_1009894" data-name="Grupo 1009894" transform="translate(23.884 24.357)">
            <path id="Trazado_724839" data-name="Trazado 724839" d="M304.375,146.277c-3.307,0-4.924-2.757-5.155-5.17a14.411,14.411,0,0,1,.093-3.47c.166-.984,1.527-1.948,2.129-.678,0-2.716.624-4.652,2.969-4.652,2.637,0,2.611,4.334,2.518,6.467.648-.9,1.454-.031,1.743.712a4.761,4.761,0,0,1-.135,3.092,5.147,5.147,0,0,1-4.164,3.7" transform="translate(-299.159 -132.307)" fill="#e39b40"/>
            <g id="Grupo_1009893" data-name="Grupo 1009893" transform="translate(3.199 5.084)">
              <path id="Trazado_724840" data-name="Trazado 724840" d="M309.356,143.367c.077,6.435.085,7.022.026,13.457" transform="translate(-307.868 -143.367)" fill="none" stroke="#1f3054" stroke-miterlimit="10" stroke-width="0.4"/>
              <path id="Trazado_724841" data-name="Trazado 724841" d="M310.24,154.361a2.864,2.864,0,0,0,2.382-1.99" transform="translate(-308.346 -148.232)" fill="none" stroke="#1f3054" stroke-miterlimit="10" stroke-width="0.4"/>
              <path id="Trazado_724842" data-name="Trazado 724842" d="M307.4,147.809a1.667,1.667,0,0,1-1.277-.963" transform="translate(-306.119 -145.247)" fill="none" stroke="#1f3054" stroke-miterlimit="10" stroke-width="0.4"/>
            </g>
          </g>
        </g>
        <g id="Grupo_1009908" data-name="Grupo 1009908" transform="translate(22.493)">
          <g id="Grupo_1009896" data-name="Grupo 1009896" transform="translate(10.84 16.855)">
            <circle id="Elipse_8793" data-name="Elipse 8793" cx="2.402" cy="2.402" r="2.402" fill="#ffb09a"/>
            <circle id="Elipse_8794" data-name="Elipse 8794" cx="2.402" cy="2.402" r="2.402" fill="#ffb09a" opacity="0.2" style="mix-blend-mode: multiply;isolation: isolate"/>
          </g>
          <g id="Grupo_1009907" data-name="Grupo 1009907">
            <g id="Grupo_1009899" data-name="Grupo 1009899" transform="translate(0 12.762)">
              <g id="Grupo_1009897" data-name="Grupo 1009897" transform="translate(0 0.054)">
                <path id="Trazado_724843" data-name="Trazado 724843" d="M299.1,72.049a.062.062,0,0,0,.083.041" transform="translate(-297.733 -71.038)" fill="none" stroke="#ffb09a" stroke-miterlimit="10" stroke-width="2.226"/>
                <path id="Trazado_724844" data-name="Trazado 724844" d="M296.131,70.613a.782.782,0,0,1,.36-.581,1.22,1.22,0,0,1,.674-.181c.39,0,.837.212.886.6a.689.689,0,0,0-.732.313.854.854,0,0,0,.69,1.269" transform="translate(-296.131 -69.85)" fill="none" stroke="#9a6230" stroke-miterlimit="10" stroke-width="0.278"/>
              </g>
              <g id="Grupo_1009898" data-name="Grupo 1009898" transform="translate(17.699)">
                <path id="Trazado_724845" data-name="Trazado 724845" d="M336.128,72.086v.042" transform="translate(-335.442 -71.004)" fill="none" stroke="#ffb09a" stroke-miterlimit="10" stroke-width="2.226"/>
                <path id="Trazado_724846" data-name="Trazado 724846" d="M336.587,70.549a.779.779,0,0,0-.329-.6,1.215,1.215,0,0,0-.664-.216c-.389-.019-.847.168-.916.552a.689.689,0,0,1,.714.351.854.854,0,0,1-.755,1.231" transform="translate(-334.637 -69.732)" fill="none" stroke="#9a6230" stroke-miterlimit="10" stroke-width="0.278"/>
              </g>
            </g>
            <rect id="Rectángulo_348644" data-name="Rectángulo 348644" width="15.547" height="20.239" rx="7.773" transform="translate(2.048 0.849)" fill="#ffb09a"/>
            <g id="Grupo_1009903" data-name="Grupo 1009903" transform="translate(3.446 11.824)">
              <g id="Grupo_1009900" data-name="Grupo 1009900" transform="translate(4.807 1.102)">
                <path id="Trazado_724847" data-name="Trazado 724847" d="M316.863,70.088a3.546,3.546,0,0,1-.114,2.637" transform="translate(-315.526 -70.088)" fill="none" stroke="#9a6230" stroke-miterlimit="10" stroke-width="0.278"/>
                <path id="Trazado_724848" data-name="Trazado 724848" d="M315.332,75.21a.611.611,0,0,0-.78-.515.741.741,0,0,0-.44.879.947.947,0,0,0,.791.65" transform="translate(-314.088 -72.563)" fill="none" stroke="#9a6230" stroke-miterlimit="10" stroke-width="0.278"/>
              </g>
              <g id="Grupo_1009901" data-name="Grupo 1009901" transform="translate(7.022 5.148)">
                <path id="Trazado_724849" data-name="Trazado 724849" d="M319.995,80.44a1.336,1.336,0,0,1-.891-.233.435.435,0,0,1-.192-.237c-.049-.2.169-.386.376-.387a1.042,1.042,0,0,1,.563.238l.319.218a.972.972,0,0,1,1-1.148.814.814,0,0,1-.083.851,2.2,2.2,0,0,1-.686.578c-.057.035-.159.051-.166-.016" transform="translate(-318.905 -78.891)" fill="#b9252b"/>
                <path id="Trazado_724850" data-name="Trazado 724850" d="M319.848,80.565a.623.623,0,0,0,.3.319,1.089,1.089,0,0,0-.258-.14,1.135,1.135,0,0,0,1.43-.581.776.776,0,0,1-.34.431,1.125,1.125,0,0,0,.232-.4" transform="translate(-319.415 -79.578)" fill="none" stroke="#b9252b" stroke-miterlimit="10" stroke-width="0.25"/>
              </g>
              <g id="Grupo_1009902" data-name="Grupo 1009902">
                <path id="Trazado_724851" data-name="Trazado 724851" d="M307.289,75.061c-.108.484-1.013.722-2.021.533s-1.737-.734-1.629-1.218,1.013-.722,2.021-.533S307.4,74.578,307.289,75.061Z" transform="translate(-303.629 -70.981)" fill="#ffb09a"/>
                <path id="Trazado_724852" data-name="Trazado 724852" d="M307.8,72.81c-.365,0-.662-.4-.662-.893s.3-.893.662-.893.662.4.662.893S308.17,72.81,307.8,72.81Z" transform="translate(-305.527 -69.492)" fill="#1f3054"/>
                <path id="Trazado_724853" data-name="Trazado 724853" d="M307.236,68.26a.54.54,0,0,1,.291-.414,1,1,0,0,1,.631-.148.709.709,0,0,1,.533.325" transform="translate(-305.578 -67.691)" fill="#9a6230"/>
                <path id="Trazado_724854" data-name="Trazado 724854" d="M322.677,75.061c.108.484,1.013.722,2.021.533s1.737-.734,1.629-1.218-1.013-.722-2.021-.533S322.569,74.578,322.677,75.061Z" transform="translate(-313.915 -70.981)" fill="#ffb09a"/>
                <path id="Trazado_724855" data-name="Trazado 724855" d="M324.921,72.81c.366,0,.662-.4.662-.893s-.3-.893-.662-.893-.662.4-.662.893S324.555,72.81,324.921,72.81Z" transform="translate(-314.776 -69.492)" fill="#1f3054"/>
                <path id="Trazado_724856" data-name="Trazado 724856" d="M325.335,68.26a.54.54,0,0,0-.291-.414,1,1,0,0,0-.631-.148.711.711,0,0,0-.533.325" transform="translate(-314.572 -67.691)" fill="#9a6230"/>
              </g>
            </g>
            <g id="Grupo_1009906" data-name="Grupo 1009906" transform="translate(1.654)">
              <g id="Grupo_1009905" data-name="Grupo 1009905" transform="translate(0 2.653)">
                <g id="Grupo_1009904" data-name="Grupo 1009904">
                  <path id="Trazado_724857" data-name="Trazado 724857" d="M324.128,57.131v.023a9.42,9.42,0,0,1-9.225-9.415h.447A9.418,9.418,0,0,1,324.128,57.131Z" transform="translate(-307.929 -47.739)" fill="#9a6230"/>
                  <path id="Trazado_724858" data-name="Trazado 724858" d="M302.706,47.739h4.17V55.48a7.741,7.741,0,0,1-7.146-4.765Z" transform="translate(-299.73 -47.739)" fill="#9a6230"/>
                </g>
              </g>
              <path id="Trazado_724859" data-name="Trazado 724859" d="M318.442,54.013s-4.484-4.445-4.613-4.709-4.441-4.683-4.441-4.683l-4.757,1.108-.251-1.908,5.673-1.852,5.768,1.784,1.387,2.4,1.629,3.807Z" transform="translate(-302.243 -41.968)" fill="#9a6230"/>
            </g>
          </g>
        </g>
      </g>
      <g id="Grupo_1009927" data-name="Grupo 1009927" transform="translate(112.753 105.649)">
        <g id="Grupo_1009911" data-name="Grupo 1009911" transform="translate(0 83.076)">
          <path id="Trazado_724860" data-name="Trazado 724860" d="M203.584,423.627l10.306-1.4c.956-.131,45.843-3.539,56.138.647,1.365.555,2.884,1.593,2.747,3.06-.168,1.8-8.032,2.316-9.507,3.367a1.743,1.743,0,0,0-.562.587,1.533,1.533,0,0,0,.287,1.608c.952,1.185,2.689,1.242,4.165,1.6s3.093,1.253,2.511,2.658a3.115,3.115,0,0,1-2.2,1.461,59.734,59.734,0,0,1-21.771,2.141,8.174,8.174,0,0,1-4.144-1.181c-1.18-.85-1.875-2.089-1.152-3.351.258-.451.683-.843.724-1.361.073-.907-1-1.423-1.892-1.623-5.053-1.14-21.39-.2-27.13-.012-4.9.163-7.178.389-11.742-.75-1.311-.327-2.629-.319-3.669-1.181s-1.761-1.751-1.568-3.089c.292-2.022,6.169-2.983,8.454-3.179" transform="translate(-195.099 -395.755)" fill="#1f3054"/>
          <g id="Grupo_1009910" data-name="Grupo 1009910" transform="translate(17.437)">
            <path id="Trazado_724861" data-name="Trazado 724861" d="M249.122,394.253A59.039,59.039,0,0,1,251.3,372.2a10.39,10.39,0,0,1,2.283-4.523,4.018,4.018,0,0,1,4.664-.947l.02,1.267c-1.464.194-2.321,1.726-2.824,3.114-2.9,8.009-1.732,16.845-.522,25.277" transform="translate(-241.597 -366.324)" fill="#1f3054"/>
            <path id="Trazado_724862" data-name="Trazado 724862" d="M265.131,415.256a3.621,3.621,0,0,1,1.936-3.235" transform="translate(-250.377 -391.016)" fill="none" stroke="#1f3054" stroke-linecap="round" stroke-linejoin="round" stroke-width="3"/>
            <path id="Trazado_724863" data-name="Trazado 724863" d="M241.645,414.14a5.194,5.194,0,0,0-2.256-4.462" transform="translate(-236.468 -389.75)" fill="none" stroke="#1f3054" stroke-linecap="round" stroke-linejoin="round" stroke-width="3"/>
            <path id="Trazado_724864" data-name="Trazado 724864" d="M235.48,418.8a3.522,3.522,0,0,0-2.446-.444" transform="translate(-233.034 -394.41)" fill="none" stroke="#1f3054" stroke-linecap="round" stroke-linejoin="round" stroke-width="3"/>
          </g>
        </g>
        <g id="Grupo_1009926" data-name="Grupo 1009926" transform="translate(53.089)">
          <g id="Grupo_1009922" data-name="Grupo 1009922" transform="translate(7.385)">
            <g id="Grupo_1009912" data-name="Grupo 1009912" transform="translate(36.257 27.78)">
              <path id="Trazado_724865" data-name="Trazado 724865" d="M434.387,256.075c-.472-.251-3.778-2.593-2.872-3.139.61-.368,1.178.792,1.509.743.78-.115.186-1.431.138-1.709-.111-.645-.321-1.419.884-1.811a2.823,2.823,0,0,1,2.357.423c1.219,1.08,1.268,3.741.144,5.194" transform="translate(-419.492 -248.206)" fill="#ffb09a"/>
              <path id="Trazado_724866" data-name="Trazado 724866" d="M421.78,250.35c.581,6.8-8.826,13.031-8.826,13.031s-7.68-11.47-7.4-17.355" transform="translate(-405.541 -246.026)" fill="none" stroke="#ffb09a" stroke-linejoin="round" stroke-width="14.692"/>
            </g>
            <path id="Trazado_724867" data-name="Trazado 724867" d="M387.346,238.873s6.3.184,8.383.407a4.212,4.212,0,0,1,3.681,4.631l-.737,5.008-1.448,9.838-7.894.758Z" transform="translate(-359.453 -214.38)" fill="#fff" opacity="0.99"/>
            <path id="Trazado_724868" data-name="Trazado 724868" d="M399.513,282.132a8.746,8.746,0,0,1,1.633,1.885,22.637,22.637,0,0,1,3.8,12.59c0,8.408-13.36,0-13.36,0V282.132Z" transform="translate(-361.742 -237.755)" fill="#1f3054"/>
            <path id="Trazado_724869" data-name="Trazado 724869" d="M374.34,238.873s-6.148,1.38-8.151,2a4.212,4.212,0,0,0-2.732,5.247l1.678,4.776,3.3,9.382,7.894-.759Z" transform="translate(-346.447 -214.38)" fill="#fff"/>
            <path id="Trazado_724870" data-name="Trazado 724870" d="M367.947,282.132a8.734,8.734,0,0,0-1.633,1.885,22.633,22.633,0,0,0-3.8,12.59c0,8.408,13.36,0,13.36,0V282.132Z" transform="translate(-346.037 -237.755)" fill="#1f3054"/>
            <g id="Grupo_1009913" data-name="Grupo 1009913" transform="translate(0 56.127)">
              <path id="Trazado_724871" data-name="Trazado 724871" d="M345.754,419.147a25.953,25.953,0,0,1,.7-5.924" transform="translate(-336.979 -364.717)" fill="none" stroke="#ffb09a" stroke-miterlimit="10" stroke-width="8.51"/>
              <path id="Trazado_724872" data-name="Trazado 724872" d="M345.841,359.564l7.49-27.5s5.219-18.88,7.419-24.365" transform="translate(-337.026 -307.695)" fill="none" stroke="#1f3054" stroke-linejoin="bevel" stroke-width="27.915"/>
              <path id="Trazado_724873" data-name="Trazado 724873" d="M333.359,423.492s-3.973,1.69-6.314,2.982c-.237.131-.5.422-.321.621a.46.46,0,0,0,.348.1h8.075a2.408,2.408,0,0,1,.981-1.76l.551,1.352c.108.265.164.408.164.408h1.612a6.78,6.78,0,0,0,.01-1.638,6.272,6.272,0,0,0-.725-2.012.65.65,0,0,0-.391-.049c-1.182.1-3.989,0-3.989,0" transform="translate(-326.663 -370.262)" fill="#2b5f91"/>
            </g>
            <g id="Grupo_1009914" data-name="Grupo 1009914" transform="translate(36.31 56.127)">
              <line id="Línea_2865" data-name="Línea 2865" y1="5.925" transform="translate(3.073 48.506)" fill="none" stroke="#ffb09a" stroke-miterlimit="10" stroke-width="8.51"/>
              <path id="Trazado_724874" data-name="Trazado 724874" d="M409.064,359.564c-.086-8.08-.173-27.5-.173-27.5s-1.83-17.9-2.541-24.365" transform="translate(-406.031 -307.695)" fill="none" stroke="#1f3054" stroke-linejoin="bevel" stroke-width="27.915"/>
              <path id="Trazado_724875" data-name="Trazado 724875" d="M410.809,423.492s3.973,1.69,6.314,2.982c.237.131.5.422.321.621a.461.461,0,0,1-.349.1h-8.075a2.406,2.406,0,0,0-.981-1.76l-.55,1.352c-.109.265-.165.408-.165.408h-1.612a6.808,6.808,0,0,1-.01-1.638,6.281,6.281,0,0,1,.725-2.012.648.648,0,0,1,.391-.049c1.182.1,3.989,0,3.989,0" transform="translate(-405.657 -370.262)" fill="#2b5f91"/>
            </g>
            <path id="Trazado_724876" data-name="Trazado 724876" d="M391.438,282.337q-.054,4.176-.107,8.353a5.363,5.363,0,0,0-.734-.988,3.363,3.363,0,0,1-.592-.624,2.016,2.016,0,0,1-.2-.971,37.845,37.845,0,0,1,.28-5.958" transform="translate(-360.771 -237.765)" fill="none" stroke="#0085bf" stroke-miterlimit="10" stroke-width="0.211"/>
            <path id="Trazado_724877" data-name="Trazado 724877" d="M401.586,282.283a6.985,6.985,0,0,0,2.461,4.477,4.682,4.682,0,0,0,4.358.8" transform="translate(-367.147 -237.837)" fill="none" stroke="#0085bf" stroke-miterlimit="10" stroke-width="0.211"/>
            <path id="Trazado_724878" data-name="Trazado 724878" d="M373.678,282.283a6.985,6.985,0,0,1-2.461,4.477,4.682,4.682,0,0,1-4.358.8" transform="translate(-348.382 -237.837)" fill="none" stroke="#0085bf" stroke-miterlimit="10" stroke-width="0.211"/>
            <g id="Grupo_1009915" data-name="Grupo 1009915" transform="translate(14.407 30.218)">
              <path id="Trazado_724879" data-name="Trazado 724879" d="M364.854,284.155c-1.065-5.437-6.849-17.613-6.849-17.613s4.718-11.064,5.7-15.211" transform="translate(-358.005 -251.33)" fill="none" stroke="#ffb09a" stroke-linejoin="round" stroke-width="14.692"/>
            </g>
            <g id="Grupo_1009921" data-name="Grupo 1009921" transform="translate(15.68)">
              <path id="Trazado_724880" data-name="Trazado 724880" d="M362.758,210.091a44.1,44.1,0,0,1-1.983,10.984,29.566,29.566,0,0,0,13,.521l-1.713.165a29.562,29.562,0,0,0,12.664-2.989,44.1,44.1,0,0,1-4.039-10.405" transform="translate(-360.775 -197.897)" fill="#e39b40"/>
              <path id="Trazado_724881" data-name="Trazado 724881" d="M382.265,205.227a12.515,12.515,0,0,0,.465-7.05,6.913,6.913,0,0,0-4.414-5.02,8.813,8.813,0,0,0-2.176-.258,15.9,15.9,0,0,0-5.282.577,7.679,7.679,0,0,0-4.269,3.192,8.923,8.923,0,0,0-.8,1.78,8.469,8.469,0,0,0-.507,3.52,11.974,11.974,0,0,0,1.917,4.745" transform="translate(-363.193 -189.533)" fill="#e39b40" stroke="#e39b40" stroke-linecap="round" stroke-miterlimit="10" stroke-width="0.16"/>
              <g id="Grupo_1009918" data-name="Grupo 1009918" transform="translate(2.186 14.546)">
                <g id="Grupo_1009916" data-name="Grupo 1009916" transform="translate(17.634)">
                  <path id="Trazado_724882" data-name="Trazado 724882" d="M405.1,219.508a.062.062,0,0,1-.079.049" transform="translate(-404.501 -218.463)" fill="none" stroke="#ffb09a" stroke-miterlimit="10" stroke-width="2.226"/>
                  <path id="Trazado_724883" data-name="Trazado 724883" d="M405.822,217.9a.781.781,0,0,0-.414-.544,1.217,1.217,0,0,0-.689-.115c-.388.038-.813.29-.825.68a.689.689,0,0,1,.758.242.854.854,0,0,1-.566,1.329" transform="translate(-403.895 -217.234)" fill="none" stroke="#1f3054" stroke-miterlimit="10" stroke-width="0.278"/>
                </g>
                <g id="Grupo_1009917" data-name="Grupo 1009917" transform="translate(0 1.629)">
                  <path id="Trazado_724884" data-name="Trazado 724884" d="M368.328,223.087l.005.042" transform="translate(-367.042 -222.026)" fill="none" stroke="#ffb09a" stroke-miterlimit="10" stroke-width="2.226"/>
                  <path id="Trazado_724885" data-name="Trazado 724885" d="M365.533,221.7a.782.782,0,0,1,.27-.628,1.213,1.213,0,0,1,.64-.279.841.841,0,0,1,.964.461.689.689,0,0,0-.677.418.854.854,0,0,0,.87,1.153" transform="translate(-365.53 -220.778)" fill="none" stroke="#1f3054" stroke-miterlimit="10" stroke-width="0.278"/>
                </g>
              </g>
              <g id="Grupo_1009919" data-name="Grupo 1009919" transform="translate(11.95 21.751)">
                <line id="Línea_2866" data-name="Línea 2866" x2="0.351" y2="3.653" fill="none" stroke="#ffb09a" stroke-linecap="round" stroke-miterlimit="10" stroke-width="10.284"/>
                <line id="Línea_2867" data-name="Línea 2867" x2="0.351" y2="3.653" fill="none" stroke="#ffb09a" stroke-linecap="round" stroke-miterlimit="10" stroke-width="10.284" opacity="0.2" style="mix-blend-mode: multiply;isolation: isolate"/>
              </g>
              <path id="Trazado_724886" data-name="Trazado 724886" d="M375.737,192.842a6.584,6.584,0,0,1,7.187,5.92l.794,8.263a2.211,2.211,0,0,1-.877,1.922l-3.943,3.175a4.525,4.525,0,0,1-4.953.476l-4.475-2.366a2.209,2.209,0,0,1-1.227-1.719l-.794-8.263a6.584,6.584,0,0,1,5.928-7.18Z" transform="translate(-364.365 -189.491)" fill="#ffb09a"/>
              <path id="Trazado_724887" data-name="Trazado 724887" d="M374.184,197.068c.609,1.693,2.241,2.72,3.767,3.6a11.5,11.5,0,0,0,5.49,2l-.52-5.1s-1.757-2.4-1.907-2.481-1.836-1.389-1.982-1.424-3.088-.8-3.088-.8l-2.406.231-4.477,1.529-1.935,2.633-.825,3.162-.05,2.017a12.393,12.393,0,0,0,5.391-1.481,9.571,9.571,0,0,0,2.183-1.3,3.871,3.871,0,0,0,1.348-2.149" transform="translate(-363.734 -189.517)" fill="#e39b40" stroke="#e39b40" stroke-linecap="round" stroke-miterlimit="10" stroke-width="0.154"/>
              <path id="Trazado_724888" data-name="Trazado 724888" d="M377.883,185.62c-2.162.211-3.812,1.425-3.686,2.711s1.98,2.156,4.141,1.944,3.812-1.425,3.686-2.711S380.044,185.408,377.883,185.62Z" transform="translate(-368.024 -185.588)" fill="#e39b40"/>
              <g id="Grupo_1009920" data-name="Grupo 1009920" transform="translate(3.317 14.233)">
                <path id="Trazado_724889" data-name="Trazado 724889" d="M380.8,219.738a3.545,3.545,0,0,1,.138,2.636" transform="translate(-374.914 -218.273)" fill="none" stroke="#1f3054" stroke-miterlimit="10" stroke-width="0.278"/>
                <path id="Trazado_724890" data-name="Trazado 724890" d="M379.714,224.922a.61.61,0,0,0-.826-.438.74.74,0,0,0-.354.917.946.946,0,0,0,.849.571" transform="translate(-373.663 -220.814)" fill="none" stroke="#1f3054" stroke-miterlimit="10" stroke-width="0.278"/>
                <path id="Trazado_724891" data-name="Trazado 724891" d="M384.892,229.5a1.338,1.338,0,0,1-.909-.147.435.435,0,0,1-.214-.217c-.068-.2.131-.4.337-.421a1.045,1.045,0,0,1,.583.182l.339.187a.972.972,0,0,1,.885-1.238.814.814,0,0,1,0,.855,2.194,2.194,0,0,1-.628.641c-.053.04-.153.066-.167,0" transform="translate(-376.509 -222.656)" fill="none" stroke="#1f3054" stroke-miterlimit="10" stroke-width="0.278"/>
                <path id="Trazado_724892" data-name="Trazado 724892" d="M384.69,229.73a.621.621,0,0,0,.327.289,1.1,1.1,0,0,0-.271-.114,1.135,1.135,0,0,0,1.367-.715.775.775,0,0,1-.3.461,1.125,1.125,0,0,0,.193-.424" transform="translate(-377.014 -223.38)" fill="none" stroke="#1f3054" stroke-miterlimit="10" stroke-width="0.278"/>
                <path id="Trazado_724893" data-name="Trazado 724893" d="M371.692,225.447c-.062.491-.939.815-1.96.723s-1.8-.565-1.738-1.056.939-.815,1.96-.724S371.754,224.956,371.692,225.447Z" transform="translate(-367.991 -220.779)" fill="#ffb09a"/>
                <path id="Trazado_724894" data-name="Trazado 724894" d="M372.008,223.25c-.364.035-.7-.335-.744-.826a.8.8,0,0,1,.573-.952c.364-.035.7.335.745.826A.8.8,0,0,1,372.008,223.25Z" transform="translate(-369.756 -219.209)" fill="#1f3054"/>
                <path id="Trazado_724895" data-name="Trazado 724895" d="M370.975,218.755a.54.54,0,0,1,.25-.44,1,1,0,0,1,.614-.208.71.71,0,0,1,.562.273" transform="translate(-369.602 -217.392)" fill="none" stroke="#e39b40" stroke-linecap="round" stroke-linejoin="round" stroke-width="0.307"/>
                <path id="Trazado_724896" data-name="Trazado 724896" d="M387.064,223.868c.154.471,1.077.622,2.063.337s1.659-.9,1.505-1.368-1.077-.621-2.063-.337S386.91,223.4,387.064,223.868Z" transform="translate(-378.285 -219.688)" fill="#ffb09a"/>
                <path id="Trazado_724897" data-name="Trazado 724897" d="M389.046,221.613a.8.8,0,0,0,.573-.953c-.047-.491-.38-.86-.744-.826a.8.8,0,0,0-.574.952C388.349,221.278,388.682,221.648,389.046,221.613Z" transform="translate(-378.963 -218.324)" fill="#1f3054"/>
                <path id="Trazado_724898" data-name="Trazado 724898" d="M388.966,217.044a.54.54,0,0,0-.33-.384,1,1,0,0,0-.642-.088.714.714,0,0,0-.5.375" transform="translate(-378.53 -216.552)" fill="none" stroke="#e39b40" stroke-linecap="round" stroke-linejoin="round" stroke-width="0.307"/>
              </g>
            </g>
          </g>
          <g id="Grupo_1009924" data-name="Grupo 1009924" transform="translate(0 22.395)">
            <g id="Grupo_1009923" data-name="Grupo 1009923">
              <path id="Trazado_724899" data-name="Trazado 724899" d="M321.553,386.682a4.625,4.625,0,0,0,1.02-3.554c-.251-1.332-1.25-2.5-1.736-3.827a1.537,1.537,0,0,1-.124-.725,1.9,1.9,0,0,1,.45-.822,6.652,6.652,0,0,0,.085-7.3l-.434-2.362c-2.709.6-5.36,1.21-7.405,2.717a6.372,6.372,0,0,0-2.689,6.326c.454,2.065,2.058,3.75,3.572,5.276l2.322,2.341a7.611,7.611,0,0,1,1.829,2.408,2.051,2.051,0,0,1-.082,1.806,4.53,4.53,0,0,0,1.044-.373A6.12,6.12,0,0,0,321.553,386.682Z" transform="translate(-310.596 -306.6)" fill="#fff"/>
              <line id="Línea_2868" data-name="Línea 2868" x1="54.58" y2="62.968" transform="translate(10.597)" fill="none" stroke="#fee435" stroke-miterlimit="10" stroke-width="4.548"/>
              <path id="Trazado_724900" data-name="Trazado 724900" d="M324.381,367.5l6.524-1.882-.936,6.725Z" transform="translate(-318.044 -305.263)" fill="#2b5f91"/>
              <line id="Línea_2869" data-name="Línea 2869" x1="2.482" y2="2.863" transform="translate(11.681 58.854)" fill="none" stroke="#fee435" stroke-miterlimit="10" stroke-width="4.548"/>
            </g>
          </g>
          <g id="Grupo_1009925" data-name="Grupo 1009925" transform="translate(26.858 58.873)">
            <path id="Trazado_724901" data-name="Trazado 724901" d="M369.745,316.968a8.746,8.746,0,0,1,2.431.231.726.726,0,0,1,.566.33.715.715,0,0,1-.012.47,6.325,6.325,0,0,1-1.15,2.272.516.516,0,0,1-.236.194.539.539,0,0,1-.367-.069,5.06,5.06,0,0,1-1.315-.759,1.711,1.711,0,0,1-.633-1.329,2.306,2.306,0,0,1,.716-1.339" transform="translate(-369.027 -315.441)" fill="#ffb09a" stroke="#ffb09a" stroke-miterlimit="10" stroke-width="0.14"/>
            <path id="Trazado_724902" data-name="Trazado 724902" d="M374.194,318.873a6.218,6.218,0,0,1-1.657-1.24.43.43,0,0,1-.125-.194.447.447,0,0,1,.1-.318,33.067,33.067,0,0,1,2.316-3.194.709.709,0,0,1,.262-.228.668.668,0,0,1,.467.038,4.21,4.21,0,0,1,1.755,1.2,9.186,9.186,0,0,0-1.816-.029l1.624,1.361c.116.1.245.236.194.378a18.223,18.223,0,0,0-2.368-.487,7.26,7.26,0,0,1,1.964,1.6c-.835-.113-1.526-.793-2.367-.838l1.384,1.5a.24.24,0,0,1,.085.163c-.008.152-.237.14-.376.08l-1.611-.705c-.023.116.073.221.167.292s.589.529.526.629c-.129.208-.441.071-.527-.011" transform="translate(-370.853 -313.67)" fill="#ffb09a" stroke="#ffb09a" stroke-miterlimit="10" stroke-width="0.14"/>
          </g>
        </g>
        <path id="Trazado_724903" data-name="Trazado 724903" d="M436.714,247.954a6.214,6.214,0,0,1,1.4,1.52.429.429,0,0,1,.088.214.447.447,0,0,1-.157.294,33.141,33.141,0,0,1-2.859,2.719.713.713,0,0,1-.3.177.665.665,0,0,1-.452-.123,4.2,4.2,0,0,1-1.508-1.5,9.144,9.144,0,0,0,1.78.359l-1.35-1.633c-.1-.117-.2-.277-.122-.407a18.286,18.286,0,0,0,2.239.91,7.271,7.271,0,0,1-1.639-1.933c.8.262,1.356,1.057,2.175,1.254l-1.088-1.728a.24.24,0,0,1-.054-.175c.036-.148.259-.095.384-.01l1.455.986a.326.326,0,0,0-.111-.318c-.08-.087-.483-.627-.4-.714.165-.181.446.011.516.107" transform="translate(-323.61 -219.189)" fill="#ffb09a" stroke="#ffb09a" stroke-miterlimit="10" stroke-width="0.14"/>
      </g>
    </g>
  </g>
</svg>
