<svg xmlns="http://www.w3.org/2000/svg" xmlns:xlink="http://www.w3.org/1999/xlink" width="505" height="301" viewBox="0 0 505 301">
  <defs>
    <clipPath id="clip-path">
      <rect id="Rectángulo_348586" data-name="Rectángulo 348586" width="505" height="301" transform="translate(-60)" fill="none"/>
    </clipPath>
  </defs>
  <g id="Grupo_1013476" data-name="Grupo 1013476" transform="translate(-810 -8575)">
    <rect id="_19d0ead6a9" data-name="19d0ead6a9" width="505" height="300" rx="19" transform="translate(810 8575)" fill="#fff"/>
    <g id="Grupo_1009639" data-name="Grupo 1009639" transform="translate(870 8575)" clip-path="url(#clip-path)">
      <g id="Grupo_1009638" data-name="Grupo 1009638" transform="translate(-32.134 -16.738)">
        <path id="Trazado_724459" data-name="Trazado 724459" d="M90.327-27.455C85.891-4.636,72.462,15.457,57.195,32.986S24.55,66.169,9.975,84.279s-26.489,39.418-28.241,62.6c-.716,9.479.86,20.173,8.305,26.083" transform="translate(-20.581 27.455)" fill="none" stroke="#f2b366" stroke-miterlimit="10" stroke-width="1"/>
        <path id="Trazado_724460" data-name="Trazado 724460" d="M81.24-18.964,20.811,86.742C9.986,105.676-.9,124.751-7.986,145.378s-10.21,43.137-5.14,64.35" transform="translate(-21.694 24.08)" fill="none" stroke="#f2b366" stroke-miterlimit="10" stroke-width="1"/>
        <path id="Trazado_724461" data-name="Trazado 724461" d="M351.577-8.932c-1.393,20.623,6.013,41.194,17.8,58.175s27.732,30.68,44.619,42.6c9.758,6.888,20.032,13.374,27.785,22.459s12.721,21.517,9.662,33.063" transform="translate(32.4 20.092)" fill="none" stroke="#f2b366" stroke-miterlimit="10" stroke-width="1"/>
        <path id="Trazado_724462" data-name="Trazado 724462" d="M375.293-14.227a89.194,89.194,0,0,0,4.8,68.482c15.138,29.785,46.058,49.067,61.522,78.684a91.091,91.091,0,0,1,4.006,74.35c-7.957,20.3-22.914,36.9-35.334,54.825s-22.784,39.227-19.452,60.777" transform="translate(24.764 22.196)" fill="none" stroke="#f2b366" stroke-miterlimit="10" stroke-width="1"/>
        <path id="Trazado_724463" data-name="Trazado 724463" d="M496.921,215.266c1.009,14.471-2.624,28.891-7.569,42.527s-11.222,26.774-15.821,40.532a177.862,177.862,0,0,0-.125,111.471" transform="translate(-12.56 -69.034)" fill="none" stroke="#f2b366" stroke-miterlimit="10" stroke-width="1"/>
        <path id="Trazado_724464" data-name="Trazado 724464" d="M-35.477,343.413c13.27,17.916,27.605,35.663,46.455,47.571,17.2,10.867,37.233,16.28,55.485,25.271s35.811,23.261,40.27,43.113" transform="translate(-3.801 -119.976)" fill="none" stroke="#f2b366" stroke-miterlimit="10" stroke-width="1"/>
        <path id="Trazado_724465" data-name="Trazado 724465" d="M105.69,472.426c-8.174-14.515-24.257-22.932-40.418-26.97s-33-4.478-49.389-7.436a163.443,163.443,0,0,1-69.157-30.276" transform="translate(3.274 -145.55)" fill="none" stroke="#f2b366" stroke-miterlimit="10" stroke-width="1"/>
      </g>
    </g>
    <g id="Grupo_1011750" data-name="Grupo 1011750" transform="translate(979.873 8570.755)">
      <path id="Trazado_725299" data-name="Trazado 725299" d="M107.718,101.666s-2.778,31.947-17.779,57.227S59.1,200.009,58.825,221.955s21.67,30.837,52.505,28.614,49.073-13.383,42.226-41.116c-5.557-22.5-25.892-40.437-33.06-60.284C113.275,129.169,107.718,101.666,107.718,101.666Z" transform="translate(6.388 11.08)" fill="#c2e3f9"/>
      <g id="Grupo_1011747" data-name="Grupo 1011747" transform="translate(3.127 26.245)">
        <g id="Grupo_1011744" data-name="Grupo 1011744">
          <path id="Trazado_725300" data-name="Trazado 725300" d="M112.029,106.032a61.526,61.526,0,0,1-11.7-1.109c-2.489-.624-2.224-4.675-1.909-9.359a37.208,37.208,0,0,0,0-8.007c-.84-4.895-3.987-6.336-4.58-6.564-4.467-.143-8.6,1.576-13.365,3.571a65.907,65.907,0,0,1-12.793,4.288c-8.238,1.648-17.238-1.831-23.2-4.13a31.851,31.851,0,0,0-4.554-1.562,7.821,7.821,0,0,0-5.617.876A1.487,1.487,0,0,1,33.1,82.769c-.006-.068-.3-6.744-.443-13.5-.3-13.947.282-14.61.631-15.012.864-.987,2.4-.5,4.518.165,2.157.676,4.843,1.517,7.5,1.089,3.282-.529,3.914-11.189,3.541-17.783a.77.77,0,0,1,.768-.816h27.3a.771.771,0,0,1,.77.761c0,.1.183,10.361,1.485,15.738.475,1.971,3.89,2.18,8.613,2.476,6.241.387,14.789.921,23.5,5.738,15.975,8.838,15.018,38.791,14.971,40.063a.787.787,0,0,1-.194.479C123.4,105.2,117.523,106.032,112.029,106.032Z" transform="translate(0.25 -1.41)" fill="#454545"/>
          <path id="Trazado_725301" data-name="Trazado 725301" d="M93.165,79.281c.232,0,.464,0,.694.013a.8.8,0,0,1,.206.032c.187.061,4.646,1.556,5.714,7.806a38,38,0,0,1,.023,8.372c-.22,3.32-.49,7.451.746,7.756,4.327,1.087,19.571,2.465,24-2.072.062-3.082.176-30.426-14.181-38.369-8.4-4.647-16.751-5.169-22.843-5.55-5.387-.333-9.276-.58-10.021-3.651-1.146-4.737-1.447-12.8-1.512-15.319H50.261c.153,3.865.338,17.739-4.877,18.579-3.015.487-6.012-.457-8.2-1.145a8.575,8.575,0,0,0-2.869-.628c-.6,1.631-.379,14.873.143,26.891a10.134,10.134,0,0,1,5.575-.517,31.467,31.467,0,0,1,4.851,1.643c5.79,2.233,14.54,5.612,22.332,4.054a64.319,64.319,0,0,0,12.508-4.2C84.267,81.079,88.569,79.281,93.165,79.281Z" transform="translate(0.409 -1.251)" fill="#909697"/>
          <g id="Grupo_1011735" data-name="Grupo 1011735" transform="translate(34.365 37.049)" opacity="0.5" style="mix-blend-mode: multiply;isolation: isolate">
            <path id="Trazado_725302" data-name="Trazado 725302" d="M111.317,100.61c-10-4.149-3.214-15.632-6.141-23.4-1.6-4.25-4.86-8.015-9.446-9.138-3.045-.747-6.131-1.1-9.08-2.2a4.685,4.685,0,0,1-3-6.231,5.454,5.454,0,0,1,2.014-2.495c-4.408-.311-7.505-.824-8.164-3.531-1.146-4.737-1.447-12.8-1.512-15.319H50.261c.153,3.865.338,17.739-4.877,18.579-3.015.487-6.012-.457-8.2-1.145a8.575,8.575,0,0,0-2.869-.628c-.6,1.631-.379,14.873.143,26.891a10.134,10.134,0,0,1,5.575-.517,31.467,31.467,0,0,1,4.851,1.643c5.79,2.233,14.54,5.612,22.332,4.054a64.319,64.319,0,0,0,12.508-4.2c4.543-1.9,8.846-3.7,13.442-3.7.232,0,.464,0,.694.013a.8.8,0,0,1,.206.032c.187.061,4.646,1.556,5.714,7.806a38,38,0,0,1,.023,8.372c-.22,3.32-.49,7.451.746,7.756,4.327,1.087,19.571,2.465,24-2.072,0-.114,0-.269,0-.448C120.566,102.677,115.226,102.232,111.317,100.61Z" transform="translate(-33.956 -38.3)" fill="#909697"/>
          </g>
          <g id="Grupo_1011736" data-name="Grupo 1011736" transform="translate(34.365 37.049)" opacity="0.5" style="mix-blend-mode: multiply;isolation: isolate">
            <path id="Trazado_725303" data-name="Trazado 725303" d="M77.369,80.47c-5.114,1.721-10.164,4.959-15.782,3.817C53.064,82.551,44.309,73.475,48.47,64.233c2.152-4.778,7.74-7.531,9.188-12.592A43.686,43.686,0,0,0,59.1,38.3H50.261c.153,3.865.338,17.739-4.877,18.579-3.015.487-6.012-.457-8.2-1.145a8.575,8.575,0,0,0-2.869-.628c-.6,1.631-.379,14.873.143,26.891a10.134,10.134,0,0,1,5.575-.517,31.467,31.467,0,0,1,4.851,1.643c5.79,2.233,14.54,5.612,22.332,4.054a64.319,64.319,0,0,0,12.508-4.2c3.732-1.564,7.3-3.041,11.008-3.522A29.19,29.19,0,0,0,77.369,80.47Z" transform="translate(-33.956 -38.3)" fill="#909697"/>
          </g>
          <path id="Trazado_725304" data-name="Trazado 725304" d="M61.059,40.1H60.03c-3.2,0-5.7-1.544-5.7-3.512V15.336c0-1.969,2.5-3.512,5.7-3.512h1.029c3.2,0,5.7,1.544,5.7,3.512V36.586C66.758,38.554,64.256,40.1,61.059,40.1Z" transform="translate(2.745 -4.288)" fill="#454545"/>
          <path id="Trazado_725305" data-name="Trazado 725305" d="M59.871,13.211c-2.378,0-4.156,1.038-4.156,1.966V36.427c0,.926,1.778,1.969,4.156,1.969H60.9c2.378,0,4.157-1.042,4.157-1.969V15.177c0-.929-1.779-1.966-4.157-1.966Z" transform="translate(2.905 -4.128)" fill="#909697"/>
          <g id="Grupo_1011737" data-name="Grupo 1011737" transform="translate(58.62 9.083)" opacity="0.5" style="mix-blend-mode: multiply;isolation: isolate">
            <path id="Trazado_725306" data-name="Trazado 725306" d="M59.871,13.211c-2.378,0-4.156,1.038-4.156,1.966V36.427c0,.926,1.778,1.969,4.156,1.969H60.9c2.378,0,4.157-1.042,4.157-1.969V15.177c0-.929-1.779-1.966-4.157-1.966Z" transform="translate(-55.715 -13.211)" fill="#909697"/>
          </g>
          <g id="Grupo_1011738" data-name="Grupo 1011738" transform="translate(65.996 16.979)" opacity="0.7" style="mix-blend-mode: multiply;isolation: isolate">
            <path id="Trazado_725307" data-name="Trazado 725307" d="M62.332,31.336c.566.042,1.139.079,1.709.114.082.008.171.009.256.014V20.346c-.591-.025-1.176-.04-1.763-.051C62.558,23.962,62.632,27.671,62.332,31.336Z" transform="translate(-62.332 -20.295)" fill="#909697"/>
          </g>
          <g id="Grupo_1011739" data-name="Grupo 1011739" transform="translate(58.62 16.846)" opacity="0.7" style="mix-blend-mode: multiply;isolation: isolate">
            <path id="Trazado_725308" data-name="Trazado 725308" d="M57.374,31.033a106.247,106.247,0,0,0,.14-10.8c-.6-.01-1.2-.031-1.8-.052V31.067C56.267,31.042,56.821,31.029,57.374,31.033Z" transform="translate(-55.715 -20.176)" fill="#909697"/>
          </g>
          <g id="Grupo_1011740" data-name="Grupo 1011740" transform="translate(19.759 49.17)">
            <path id="Rectángulo_348682" data-name="Rectángulo 348682" d="M4.235,0h12.78a4.238,4.238,0,0,1,4.238,4.238V32.954a4.237,4.237,0,0,1-4.237,4.237H4.234A4.234,4.234,0,0,1,0,32.957V4.235A4.235,4.235,0,0,1,4.235,0Z" fill="#454545"/>
            <path id="Rectángulo_348683" data-name="Rectángulo 348683" d="M3.922,0H15.745a3.922,3.922,0,0,1,3.922,3.922V30.5a3.922,3.922,0,0,1-3.922,3.922H3.918A3.918,3.918,0,0,1,0,30.5V3.922A3.922,3.922,0,0,1,3.922,0Z" transform="translate(0.794 0.986)" fill="#b4b8ba"/>
            <path id="Trazado_725309" data-name="Trazado 725309" d="M40.737,76.776c-1.569,1.462-4.713,1.007-6.245-.873-2.527-3.1-2.537-6.311-2.626-10.119-.128-5.24-.067-10.483-.033-15.725h-5.9a4.37,4.37,0,0,0-4.371,4.367V80.108a4.371,4.371,0,0,0,4.371,4.372H36.864a4.371,4.371,0,0,0,4.367-4.372V76.245C41.067,76.426,40.916,76.608,40.737,76.776Z" transform="translate(-20.771 -49.072)" fill="#b4b8ba" opacity="0.5" style="mix-blend-mode: multiply;isolation: isolate"/>
          </g>
          <g id="Grupo_1011741" data-name="Grupo 1011741" transform="translate(0 43.958)">
            <rect id="Rectángulo_348684" data-name="Rectángulo 348684" width="27.811" height="48.668" rx="5.544" fill="#454545"/>
            <path id="Trazado_725310" data-name="Trazado 725310" d="M29.794,84.978a5.714,5.714,0,0,1-5.716,5.716H9.778a5.717,5.717,0,0,1-5.721-5.716v-33.6a5.724,5.724,0,0,1,5.721-5.724h14.3a5.721,5.721,0,0,1,5.716,5.724Z" transform="translate(-3.02 -44.366)" fill="#b4b8ba"/>
          </g>
          <g id="Grupo_1011742" data-name="Grupo 1011742" transform="translate(43.056 26.963)">
            <path id="Rectángulo_348685" data-name="Rectángulo 348685" d="M4.3,0H36.434a4.3,4.3,0,0,1,4.3,4.3V6.122a4.3,4.3,0,0,1-4.3,4.3H4.3A4.3,4.3,0,0,1,0,6.123V4.3A4.3,4.3,0,0,1,4.3,0Z" transform="translate(0 4.858)" fill="#454545"/>
            <path id="Rectángulo_348686" data-name="Rectángulo 348686" d="M2.913,0H34.729a2.915,2.915,0,0,1,2.915,2.915v1.5A2.914,2.914,0,0,1,34.73,7.334H2.915A2.915,2.915,0,0,1,0,4.419V2.913A2.913,2.913,0,0,1,2.913,0Z" transform="translate(1.545 6.4)" fill="#b4b8ba"/>
            <path id="Trazado_725311" data-name="Trazado 725311" d="M53.763,39.7c3.549.051,14.067-.211,17.617-.114,2.82.076,7.465-.137,8.918-3.016a3.234,3.234,0,0,0-2.766-1.574H46.383a3.242,3.242,0,0,0-3.22,2.968C44.531,39.776,48.943,39.632,53.763,39.7Z" transform="translate(-41.591 -28.594)" fill="#b4b8ba" opacity="0.5" style="mix-blend-mode: multiply;isolation: isolate"/>
            <path id="Trazado_725312" data-name="Trazado 725312" d="M51.635,37.986q5.424.079,10.844-.149c3.433-.139,7.666.118,11.1-.049,1.907-.087,4.646-.373,5.489-2.339a3.265,3.265,0,0,0-1.637-.456H46.281a3.212,3.212,0,0,0-2.223.9C45.117,38.278,49.128,37.946,51.635,37.986Z" transform="translate(-41.489 -28.594)" fill="#b4b8ba" opacity="0.5" style="mix-blend-mode: multiply;isolation: isolate"/>
            <path id="Rectángulo_348687" data-name="Rectángulo 348687" d="M3.414,0h24.3a3.411,3.411,0,0,1,3.411,3.411V4.83a3.413,3.413,0,0,1-3.413,3.413H3.414A3.414,3.414,0,0,1,0,4.829V3.414A3.414,3.414,0,0,1,3.414,0Z" transform="translate(3.97)" fill="#454545"/>
            <path id="Rectángulo_348688" data-name="Rectángulo 348688" d="M2.025,0H26a2.028,2.028,0,0,1,2.028,2.028v1.1A2.024,2.024,0,0,1,26,5.154H2.028A2.028,2.028,0,0,1,0,3.126v-1.1A2.025,2.025,0,0,1,2.025,0Z" transform="translate(5.515 1.544)" fill="#b4b8ba"/>
            <path id="Trazado_725313" data-name="Trazado 725313" d="M46.9,31.886a2.148,2.148,0,0,0-.2.868v.632a2.263,2.263,0,0,0,2.258,2.262H72.471a2.259,2.259,0,0,0,2.257-2.262v-.632a2.23,2.23,0,0,0-.1-.657C71.362,33.915,48.769,34.423,46.9,31.886Z" transform="translate(-41.185 -28.95)" fill="#b4b8ba" opacity="0.5" style="mix-blend-mode: multiply;isolation: isolate"/>
            <path id="Trazado_725314" data-name="Trazado 725314" d="M71.971,34.4a32.907,32.907,0,0,1-3.82.3c-1.4.068-2.819.125-4.235.159-1.8.074-3.6.12-5.41.107H56.925a18.526,18.526,0,0,1-4.492-.2c-1.989-.283-4.421-.188-5.733-1.81v.309a2.263,2.263,0,0,0,2.258,2.262H72.471a2.25,2.25,0,0,0,2.156-1.631A9.129,9.129,0,0,1,71.971,34.4Z" transform="translate(-41.185 -28.827)" fill="#b4b8ba" opacity="0.5" style="mix-blend-mode: multiply;isolation: isolate"/>
          </g>
          <g id="Grupo_1011743" data-name="Grupo 1011743" transform="translate(26.325)">
            <path id="Rectángulo_348689" data-name="Rectángulo 348689" d="M3.287,0H57.044a3.284,3.284,0,0,1,3.284,3.284V7.5a3.288,3.288,0,0,1-3.288,3.288H3.284A3.284,3.284,0,0,1,0,7.5V3.287A3.287,3.287,0,0,1,3.287,0Z" transform="translate(6.915 4.799)" fill="#454545"/>
            <path id="Rectángulo_348690" data-name="Rectángulo 348690" d="M2.226,0H55.745a2.226,2.226,0,0,1,2.226,2.226V6.191a2.227,2.227,0,0,1-2.227,2.227H2.228A2.228,2.228,0,0,1,0,6.191V2.226A2.226,2.226,0,0,1,2.226,0Z" transform="translate(8.095 5.981)" fill="#b4b8ba"/>
            <path id="Trazado_725315" data-name="Trazado 725315" d="M89.492,10.429H83.143a7.194,7.194,0,0,1-13.6,0H55.842a6.8,6.8,0,0,1-6.756,4.7,6.8,6.8,0,0,1-6.755-4.7H36.485A2.485,2.485,0,0,0,34,12.911v3.456a2.482,2.482,0,0,0,2.48,2.48H89.492a2.484,2.484,0,0,0,2.484-2.48V12.911A2.487,2.487,0,0,0,89.492,10.429Z" transform="translate(-25.91 -4.448)" fill="#b4b8ba" style="mix-blend-mode: multiply;isolation: isolate"/>
            <path id="Trazado_725316" data-name="Trazado 725316" d="M36.937,25.449A10.193,10.193,0,1,1,47.129,15.255,10.206,10.206,0,0,1,36.937,25.449Z" transform="translate(-26.743 -5.063)" fill="#454545"/>
            <path id="Trazado_725317" data-name="Trazado 725317" d="M36.815,6.123a9.011,9.011,0,1,0,9.012,9.01A9.02,9.02,0,0,0,36.815,6.123Z" transform="translate(-26.621 -4.941)" fill="#909697"/>
            <path id="Trazado_725318" data-name="Trazado 725318" d="M43.25,8.559c1.785,4.4-.414,10.584-6.606,10.584-5.9,0-8.175-5.608-6.836-9.944a9.013,9.013,0,1,0,13.442-.64Z" transform="translate(-26.621 -4.662)" fill="#909697" opacity="0.5" style="mix-blend-mode: multiply;isolation: isolate"/>
            <path id="Trazado_725319" data-name="Trazado 725319" d="M85.06,25.449A10.193,10.193,0,1,1,95.252,15.255,10.206,10.206,0,0,1,85.06,25.449Z" transform="translate(-21.223 -5.063)" fill="#454545"/>
            <path id="Trazado_725320" data-name="Trazado 725320" d="M84.938,6.123a9.011,9.011,0,1,0,9.013,9.01A9.019,9.019,0,0,0,84.938,6.123Z" transform="translate(-21.102 -4.941)" fill="#909697"/>
            <path id="Trazado_725321" data-name="Trazado 725321" d="M60.965,25.449A10.193,10.193,0,1,1,71.158,15.255,10.206,10.206,0,0,1,60.965,25.449Z" transform="translate(-23.987 -5.063)" fill="#454545"/>
            <path id="Trazado_725322" data-name="Trazado 725322" d="M60.843,6.123a9.011,9.011,0,1,0,9.01,9.01A9.018,9.018,0,0,0,60.843,6.123Z" transform="translate(-23.865 -4.941)" fill="#909697"/>
            <path id="Trazado_725323" data-name="Trazado 725323" d="M67.274,8.547c1.784,4.4-.414,10.583-6.608,10.583-5.9,0-8.172-5.608-6.833-9.946a9.012,9.012,0,1,0,13.441-.636Z" transform="translate(-23.866 -4.663)" fill="#909697" opacity="0.5" style="mix-blend-mode: multiply;isolation: isolate"/>
            <path id="Trazado_725324" data-name="Trazado 725324" d="M91.372,8.531c1.789,4.405-.409,10.586-6.606,10.586-5.9,0-8.17-5.606-6.833-9.946a9.013,9.013,0,1,0,13.439-.64Z" transform="translate(-21.102 -4.665)" fill="#909697" opacity="0.5" style="mix-blend-mode: multiply;isolation: isolate"/>
          </g>
        </g>
        <g id="Grupo_1011745" data-name="Grupo 1011745" transform="translate(1.037 45.244)" opacity="0.5" style="mix-blend-mode: multiply;isolation: isolate">
          <path id="Trazado_725325" data-name="Trazado 725325" d="M26.57,82.68c-2.181,1.712-4.878,2.3-6.948.959-2.977-1.727-4.832-8.883-5.169-11.117A74.76,74.76,0,0,1,13.833,56.8c.241-3.479.2-7.437,1.643-10.692a.4.4,0,0,0,.016-.064c0-.13,0-.257,0-.388H9.778a5.724,5.724,0,0,0-5.721,5.724v33.6a5.717,5.717,0,0,0,5.721,5.716h14.3a5.714,5.714,0,0,0,5.716-5.716V76.59A9.051,9.051,0,0,1,26.57,82.68Z" transform="translate(-4.057 -45.652)" fill="#b4b8ba"/>
        </g>
        <g id="Grupo_1011746" data-name="Grupo 1011746" transform="translate(15.917 1.708)">
          <path id="Trazado_725326" data-name="Trazado 725326" d="M24.222,47.372c-2.072-.934-4.555-.421-6.661.067a.223.223,0,0,0,.016.428c1.522.356,3.063.55,4.6.838a3.821,3.821,0,0,1,2.575,1.766c.523.749.529,1.666,1.037,2.417a.908.908,0,0,0,1.633-.312C28,50.54,25.977,48.167,24.222,47.372Z" transform="translate(-17.406 -1.979)" fill="#b4b8ba" style="mix-blend-mode: screen;isolation: isolate"/>
          <path id="Trazado_725327" data-name="Trazado 725327" d="M26.556,66.381a72.009,72.009,0,0,0-.226-10.275c-.047-.34-.582-.431-.639-.048-.414,2.977-.868,6.065-1.069,9.06-.246,3.68-1.014,8.176.172,11.722a.667.667,0,0,0,1.276-.074C27.113,73.591,26.547,69.7,26.556,66.381Z" transform="translate(-16.633 -0.951)" fill="#b4b8ba" style="mix-blend-mode: screen;isolation: isolate"/>
          <path id="Trazado_725328" data-name="Trazado 725328" d="M37.731,56.635c-.12-1.951.006-5.44-2.545-5.538a.239.239,0,0,0-.1.448c2.3,1.024,1.67,7.153,1.661,9.2A64.281,64.281,0,0,0,37.7,72.4c.051.28.527.247.553-.029C38.752,67.22,38.047,61.788,37.731,56.635Z" transform="translate(-15.393 -1.492)" fill="#b4b8ba" style="mix-blend-mode: screen;isolation: isolate"/>
          <path id="Trazado_725329" data-name="Trazado 725329" d="M50.8,11.114a2.725,2.725,0,0,0-2.1-.325,11.594,11.594,0,0,1-1.468-.057c-.512-.027-.965.186-1.469.171-.1,0-.09.123-.018.148a14.042,14.042,0,0,0,2.889.466,3.258,3.258,0,0,0,2.141-.2A.131.131,0,0,0,50.8,11.114Z" transform="translate(-14.162 -6.122)" fill="#b4b8ba" style="mix-blend-mode: screen;isolation: isolate"/>
          <path id="Trazado_725330" data-name="Trazado 725330" d="M75.417,11.015a7.78,7.78,0,0,0-2.615-.276,26.2,26.2,0,0,0-3.451.134c-.146.025-.194.255-.029.279,1.128.173,2.277.194,3.41.325a6.2,6.2,0,0,0,2.7-.159A.158.158,0,0,0,75.417,11.015Z" transform="translate(-11.464 -6.121)" fill="#b4b8ba" style="mix-blend-mode: screen;isolation: isolate"/>
          <path id="Trazado_725331" data-name="Trazado 725331" d="M89.32,8.27c-2.8-3.126-9.078-1.544-10.788,2.012-.04.086.061.206.146.134A8.387,8.387,0,0,1,83.31,8.232a11.433,11.433,0,0,1,5.759.4A.223.223,0,0,0,89.32,8.27Z" transform="translate(-10.397 -6.596)" fill="#b4b8ba" style="mix-blend-mode: screen;isolation: isolate"/>
          <path id="Trazado_725332" data-name="Trazado 725332" d="M64.984,8.27C62.189,5.145,55.907,6.726,54.2,10.282c-.038.086.064.206.146.134a8.371,8.371,0,0,1,4.636-2.184,11.415,11.415,0,0,1,5.754.4A.222.222,0,0,0,64.984,8.27Z" transform="translate(-13.188 -6.596)" fill="#b4b8ba" style="mix-blend-mode: screen;isolation: isolate"/>
          <path id="Trazado_725333" data-name="Trazado 725333" d="M40.908,8.27c-2.795-3.126-9.079-1.544-10.786,2.012-.039.086.06.206.144.134A8.379,8.379,0,0,1,34.9,8.232a11.428,11.428,0,0,1,5.757.4A.222.222,0,0,0,40.908,8.27Z" transform="translate(-15.949 -6.596)" fill="#b4b8ba" style="mix-blend-mode: screen;isolation: isolate"/>
          <path id="Trazado_725334" data-name="Trazado 725334" d="M110.234,67.088c-2.734-3.575-5.868-6.534-10.256-7.728a40.006,40.006,0,0,0-6.966-1.2c-2.374-.222-4.668-.807-7.057-.982a.1.1,0,0,0-.042.187c1.831.611,3.682,1.248,5.551,1.73,1.955.5,3.979.663,5.92,1.222,2.583.749,4.8,1.372,6.935,3.07a30.708,30.708,0,0,1,4.421,4.655,29.773,29.773,0,0,1,5.723,13.463c.465,2.646,1.07,5.259,1.286,7.94.2,2.521.142,5.046.425,7.563.028.245.415.3.446.035C117.74,87,116.556,75.345,110.234,67.088Z" transform="translate(-9.558 -0.794)" fill="#b4b8ba" style="mix-blend-mode: screen;isolation: isolate"/>
          <path id="Trazado_725335" data-name="Trazado 725335" d="M71.579,31.095c-3.375.02-6.746-.289-10.13-.289-1.941,0-3.887.056-5.823.124a52.823,52.823,0,0,1-6.345.324c-.12-.009-.168.159-.04.188,7.283,1.87,15.052.715,22.343-.25A.049.049,0,1,0,71.579,31.095Z" transform="translate(-13.764 -3.819)" fill="#b4b8ba" style="mix-blend-mode: screen;isolation: isolate"/>
          <path id="Trazado_725336" data-name="Trazado 725336" d="M75.378,39.653c-2.507.186-5.054.106-7.577.271-2.606.171-5.237.206-7.852.206-2.453,0-4.933-.05-7.384-.226-2.584-.182-5.23.091-7.786-.2-.106-.013-.184.14-.068.2,1.87.867,4.28.391,6.308.692a55.582,55.582,0,0,0,8.194.378c5.254,0,11.092.34,16.191-1.115A.1.1,0,0,0,75.378,39.653Z" transform="translate(-14.281 -2.804)" fill="#b4b8ba" style="mix-blend-mode: screen;isolation: isolate"/>
        </g>
      </g>
      <g id="Grupo_1011749" data-name="Grupo 1011749" transform="translate(65.14 186.079)">
        <path id="Trazado_725337" data-name="Trazado 725337" d="M155.455,215.8a48.348,48.348,0,1,1-48.349-48.348A48.348,48.348,0,0,1,155.455,215.8Z" transform="translate(-58.759 -167.454)" fill="#51aee6"/>
        <g id="Grupo_1011748" data-name="Grupo 1011748" transform="translate(20.997)">
          <path id="Trazado_725338" data-name="Trazado 725338" d="M78.393,176.934a3.621,3.621,0,0,0,1.009-.793,2.671,2.671,0,0,1,.67-.612,3.65,3.65,0,0,1,2.13-.282c.506.081.92.387.614.927-.115.206-.013.449-.065.676a1.35,1.35,0,0,1-.167.431,1.762,1.762,0,0,1-.752.641c.835.478.892,1.364.82,2.264.482,0,.731-.2.754-.7a1.552,1.552,0,0,1,.15-.839.963.963,0,0,1,.96-.324c.457.111.788.334,1.273.159a.069.069,0,0,1,.091.038,1.255,1.255,0,0,1-.242,1.306,2.08,2.08,0,0,1-1.257.49c-.3.324-.2.77-.324,1.164a1.074,1.074,0,0,1-.564.654,1.021,1.021,0,0,1-.673.061c-.341-.062-.886-.084-1.1.257-.165.259-.146.65-.387.862a1.346,1.346,0,0,1-.707.231c-.138.018-.279.03-.417.059-.157.033-.231.205-.283.346-.089.241-.125.495-.2.738a1.142,1.142,0,0,1-.4.609,1.44,1.44,0,0,1-.385.191c-.226.065-.176.241-.165.461.038.652.278,1.564-.208,2.111-.259.292-.649.495-.82.855a2.205,2.205,0,0,0-.107,1.228,7.428,7.428,0,0,1,.129,1.889,6.265,6.265,0,0,0,.618-1.1.068.068,0,0,1,.1-.026,3.11,3.11,0,0,0,1.063.712.06.06,0,0,1,.039.055c.021.436.23.835.259,1.269.124-.047.249-.082.37-.137a.05.05,0,0,1,.066.068,5.437,5.437,0,0,0-.428,1.787c-.019.3.021.294.247.439a.834.834,0,0,1,.227.22,2.831,2.831,0,0,1,.233,1.935.053.053,0,0,1-.065.051c-.12-.018-.4-.123-.256.116a3.61,3.61,0,0,0,.217.327c.172.221.366.42.546.634a3.377,3.377,0,0,1,.431.633c.035.067.055.29.181.165a1.22,1.22,0,0,1,.218-.167.051.051,0,0,1,.067.017A2.14,2.14,0,0,1,82.2,201c-.089.221-.045.212.137.336a3.285,3.285,0,0,1,.358.268,6.544,6.544,0,0,1,.655.66c-.305-.806-.564-1.631-.813-2.455a24.655,24.655,0,0,0-.894-2.4,5.459,5.459,0,0,1-.358-1.059,4.738,4.738,0,0,1-.156-.876A5.2,5.2,0,0,1,81.619,194c.009-.023.027-.049.056-.048a2.371,2.371,0,0,1,.527.089,2.134,2.134,0,0,1,.049-.4.059.059,0,0,1,.1-.03c.848.729.38,1.87.647,2.8a.715.715,0,0,0,.5.55c.075.018.242.008.3.055a1.5,1.5,0,0,1,.293.4.914.914,0,0,1,.129.776c-.079.191-.276.294-.02.421a3.647,3.647,0,0,0,.485.189.067.067,0,0,1,.035.071c-.021.117-.257.427-.041.378a.365.365,0,0,1,.276,0,.065.065,0,0,1,.035.069c-.106.538.564,1.174.871,1.546a8.063,8.063,0,0,1,.822,1.05,1.152,1.152,0,0,1,.31.29c.108.165.1.418.353.36.048-.011.085.039.08.08a4.377,4.377,0,0,0,.153,1.644,7.075,7.075,0,0,1,.292,1.4,2.712,2.712,0,0,1-.5,1.7c-.138.226-.365.542-.3.826.076.362.508.6.827.713A7.874,7.874,0,0,0,90.3,209a2.8,2.8,0,0,1,1.933.811c.259.245.566.657.927.752a1.442,1.442,0,0,0,1.127-.376,1.952,1.952,0,0,1,.785-.409,2.887,2.887,0,0,1,.778,0c1.028.109,2.6.513,2.9,1.671a.08.08,0,0,1-.027.075,1.844,1.844,0,0,0-.36.429,4.384,4.384,0,0,1,1.5.693,8.576,8.576,0,0,0,1.53.991,12.693,12.693,0,0,0,2.661.786,4.038,4.038,0,0,0,.635.075c.1,0,.311-.08.39-.051a2.122,2.122,0,0,1,.551.453,7.323,7.323,0,0,1,.585.62,11.1,11.1,0,0,1,1.846,2.951,1.275,1.275,0,0,1,1.554.512,3.192,3.192,0,0,0,.664.729,1,1,0,0,0,1.112-.122.075.075,0,0,1,.114.029c.161.323.492,1.146.96,1.146.3,0,.528-.352.687-.565a3.516,3.516,0,0,1,1.081-1.129.967.967,0,0,0-.1,0,.049.049,0,0,1,0-.1,1.2,1.2,0,0,1,.3.021,1.067,1.067,0,0,1,.232-.046.076.076,0,0,1,.06.129,3.9,3.9,0,0,1,1.606,1.512c.381.6.863,1.612.252,2.206a2.723,2.723,0,0,1,.8,1.412c.091.366.227,1.172-.156,1.446a1.375,1.375,0,0,1-.488.133c-.286.059-.576.11-.857.186-.72.192-1,.9-1.357,1.486a12.067,12.067,0,0,0-1.136,1.892,9.7,9.7,0,0,0-.454,1.868,12.615,12.615,0,0,1-.315,1.792,1.463,1.463,0,0,1-.673.956,7.759,7.759,0,0,1,2.01,2.023c.48.749.847,1.566,1.335,2.311a13,13,0,0,1,1.306,2.335,2.139,2.139,0,0,1,.079,1.916,13.517,13.517,0,0,1,1.86,1.183,4.071,4.071,0,0,0,1.112.6,7.109,7.109,0,0,0,1.012.182,2.023,2.023,0,0,1,1.4.648,1.84,1.84,0,0,1,.388,1.136,13.819,13.819,0,0,1-.338,3.341,10.09,10.09,0,0,1-.347,1.354,4.307,4.307,0,0,1-.9,1.392,6.546,6.546,0,0,0-1.523,2.3c-.3.926-.5,1.884-.807,2.809-.191.57-.414,1.134-.572,1.717-.076.283-.278.919.066,1.117.493.281,1.358-.143,1.807-.329a8.813,8.813,0,0,0,2.011-1.3c.641-.5,1.267-1.033,1.956-1.473a5.316,5.316,0,0,1,1.052-.544c0-.082,0-.166,0-.249a.07.07,0,0,1,.062-.076c.107,0,.231,0,.353,0a.779.779,0,0,1,.233-.087,1.177,1.177,0,0,1,.419,0c.058.007.127.072.181.087a.083.083,0,0,1,.057.068c.052-.019.1-.036.156-.055a5.606,5.606,0,0,0,1.452-.885c.9-.742,1.661-1.648,2.591-2.359,1.177-.9,2.474-1.652,3.662-2.539a22.117,22.117,0,0,0,3.235-2.888,2.057,2.057,0,0,0-.525.159.069.069,0,0,1-.093-.057.913.913,0,0,1,.3-.618,6.63,6.63,0,0,1,.867-.791c.788-.624,1.626-1.18,2.442-1.769a19.582,19.582,0,0,0,2.316-1.954,3.088,3.088,0,0,0,1.1-3.307.058.058,0,0,1,.01-.061,5.447,5.447,0,0,0,1.395-1.784c.291-.706.43-1.468.659-2.194a3.259,3.259,0,0,1,1.208-1.53,3.744,3.744,0,0,0,.949-1.03,3.266,3.266,0,0,0,.354-1.306,7.5,7.5,0,0,1,.443-2.253,2.849,2.849,0,0,0,.273-.819,2.425,2.425,0,0,0-.016-.54c-.027-.215-.01-.4-.232-.492a5.657,5.657,0,0,1-1.782-.836,1.07,1.07,0,0,1-.245-.321c-.082-.173-.418-.065-.575-.045a4.253,4.253,0,0,1-1.277.088.562.562,0,0,1-.512-.387c-.1-.222-.233-.749-.532-.749-.472,0-1.177.379-1.569-.006a1.862,1.862,0,0,1-.419-1.235,1.263,1.263,0,0,0-.223-.7,1,1,0,0,0-.507-.3.061.061,0,0,1-.086,0,.285.285,0,0,1-.028-.026c-.1-.021-.2-.033-.293-.046a.081.081,0,0,1-.074-.066,1.454,1.454,0,0,0-.263-.61.067.067,0,0,1-.011-.036c-.2-.269-.385-.547-.584-.809a4.935,4.935,0,0,0-1.592-1.553,1.687,1.687,0,0,0-1.247-.048,1.528,1.528,0,0,1-.836.052,2.143,2.143,0,0,1-.964-.574,2.856,2.856,0,0,1-.37-.466c-.059-.095-.156-.386-.269-.4-.768-.089-1.245-.747-1.777-1.234a3.716,3.716,0,0,0-.851-.665,1.248,1.248,0,0,0-.449-.07c-.38-.03-.75-.129-1.129-.184-.446-.064-.9-.111-1.348-.139a13.507,13.507,0,0,0-2.97.136.071.071,0,0,1-.081-.08c.018-.118.068-.27-.061-.328-.086-.04-.171-.08-.256-.123-.177-.088-.353-.181-.528-.273a8.251,8.251,0,0,0-.839-.428c-.124.283-.392.455-.512.739a.076.076,0,0,1-.1.041c-.383-.117-.786-.155-1.17-.272a.073.073,0,0,1-.016-.124,4.079,4.079,0,0,0,.41-.365c.011-.012.138-.181.143-.181a1.151,1.151,0,0,0-.48.114,10.1,10.1,0,0,0-1.255.583,6.217,6.217,0,0,1-1.746.826,2.55,2.55,0,0,1-.512.047c-.146,0-.257.2-.342.3-.126.148-.312.323-.45.515a.7.7,0,0,1,.176-.052c.065-.008.113.089.052.125l-.02.01a.074.074,0,0,1,.042.111.055.055,0,0,1-.026.043c0,.012,0,.025,0,.038a.189.189,0,0,1,.053-.017.062.062,0,0,1,.059.089.228.228,0,0,1-.1.1.73.73,0,0,1-.171.546.609.609,0,0,1-.688.023,1.139,1.139,0,0,1-1.724.827,1.513,1.513,0,0,1-.5-.483,1.714,1.714,0,0,1-.147-.284c-.079-.211-.147-.213-.383-.2a2.7,2.7,0,0,0-1.648.565c-.252,1.022-2.3.487-2.313-.592-.022-.012-.043-.027-.064-.04-.233.107-.64-.114-.853-.185a.075.075,0,0,1-.045-.079c.046-.647-.382-1.036-.565-1.608a2.156,2.156,0,0,1,.014-1.265,7.8,7.8,0,0,0,.286-1.5,2.149,2.149,0,0,0-.082-1.086,1.766,1.766,0,0,0-1.543-.815,6.963,6.963,0,0,0-2.169.489,1.521,1.521,0,0,1-1.635-.67,1.084,1.084,0,0,1,.179-1.311,3.205,3.205,0,0,0,.92-1.721,8.825,8.825,0,0,1,.048-1.517,1.6,1.6,0,0,1,.372-.655,3.854,3.854,0,0,1,.341-.333c.158-.135.372-.23.169-.43-.524-.519-1.412-.246-2.016-.03-.33.118-.651.251-.978.376a2.515,2.515,0,0,0-.717.332c-.192.159-.019.494-.045.715a2.286,2.286,0,0,1-.871,1.5,2.126,2.126,0,0,1-1.736.212c-.661-.155-1.3-.377-1.967-.507-.479-.095-.969-.095-1.448-.185-.312-.058-.756-.154-.9-.485-.174-.416.114-.876.356-1.218-.571-.123-.9-.72-1.072-1.236a5.834,5.834,0,0,1-.309-2.253,2.606,2.606,0,0,1,.885-1.726,2,2,0,0,0,.628-.882,1.436,1.436,0,0,0-.521-1.2.067.067,0,0,1,0-.084,3.839,3.839,0,0,1,1.189-.779c.172-.082.353-.164.532-.253a.03.03,0,0,1,.02-.039,3.659,3.659,0,0,0,.331-.165,1.672,1.672,0,0,0,.395-.35c.012-.014.035,0,.025.021a1.858,1.858,0,0,1-.129.152c.4-.264.772-.58,1.169-.832a2.341,2.341,0,0,1,1.731-.548,1.083,1.083,0,0,1,.648.543c.05.095.167.522.256.535.225.037.451.078.676.115.943.149,2.117.3,2.813-.49a2.139,2.139,0,0,0-.712-.232.063.063,0,0,1-.037-.1c.827-.768,2.11-.222,3.1-.293a.067.067,0,0,1,.066.041c.017.045.1.409.12.409.136,0,.274.011.41,0a1.058,1.058,0,0,0,.8-.43.06.06,0,0,1,.086-.007,19.532,19.532,0,0,1,1.541,2.17.062.062,0,0,1-.047.095,1.612,1.612,0,0,0-.543.145,5.738,5.738,0,0,0,2,2,.052.052,0,0,1,.016.068c-.242.336-.448.691-.674,1.036a1.318,1.318,0,0,0,.532-.095,1.6,1.6,0,0,0,.485-.375,4.114,4.114,0,0,1,.461-.441.529.529,0,0,0,.127-.129,1.4,1.4,0,0,0-.012-.208.422.422,0,0,0-.056-.08,2.412,2.412,0,0,0-.274-.259c-.061-.05-.007-.165.074-.127a.954.954,0,0,1,.155.1,9.9,9.9,0,0,1-.535-1.109.831.831,0,0,1-.01-1.266c.1-.107.134-.1.022-.2a2.359,2.359,0,0,1-.211-.2,1.919,1.919,0,0,1-.281-.4,2.034,2.034,0,0,1-.243-.719.056.056,0,0,1-.047-.091.207.207,0,0,1,.031-.031v-.02a.051.051,0,0,1,.037-.052.2.2,0,0,0-.045-.035.6.6,0,0,1-.208-.182.879.879,0,0,1-.132-.531,2.384,2.384,0,0,1,.461-1.227,1.617,1.617,0,0,1,1.069-.574,1.244,1.244,0,0,0,1.119-.908c-.759-.33.474-1.068.786-1.248a9.9,9.9,0,0,1,1.128-.57c.576-.241,1.221-.532,1.33-1.2-.412.06-.878.212-1.169-.187a1.161,1.161,0,0,1-.245-.716,1.017,1.017,0,0,0-.342-.963.076.076,0,0,1-.006-.123,15.169,15.169,0,0,1,2.078-1.455c.325-.179.7-.291,1.014-.479.242-.143.191-.357.078-.581a.7.7,0,0,0-.725-.406.079.079,0,0,1-.062-.137c.027-.025.052-.046.08-.07a3.032,3.032,0,0,1-1.6.23c-.838-.177-1.568-.678-2.461-.489a4.837,4.837,0,0,1-2.148.308,2.084,2.084,0,0,1-1.382-1.353c-.4.1-.4.387-.519.74a.35.35,0,0,1-.445.247c-.939-.159-1-1.184-1.427-1.838a.082.082,0,0,1,.026-.125c.772-.383,1.617,1,2.225.119a.072.072,0,0,1,.1-.016c.532.386.922.959,1.489,1.3a2.132,2.132,0,0,0,1.009.285c.168.007.336.007.5.01s.3.029.3-.194a.076.076,0,0,1,.083-.064,14.916,14.916,0,0,1,1.468.342,2.959,2.959,0,0,0,1.6-.037,5.216,5.216,0,0,1,1.225-.353,4.438,4.438,0,0,1,1.174.144,6.361,6.361,0,0,0,1.357.215,4.774,4.774,0,0,0,1.35-.289c.583-.165,1.561-.4,1.553-1.159a.063.063,0,0,1,.058-.069,3.306,3.306,0,0,0,.862-.119c.575-1.046-2.74-1-1.961-2.452a.076.076,0,0,1,.1-.042c.446.175.838.475,1.291.629a11.84,11.84,0,0,0,1.644.207c.584.113,1.121.4,1.7.541.3.072.593.136.893.2.057.01.443.138.419-.009a.907.907,0,0,0-.081-.271,1.652,1.652,0,0,0-1.226-.916c-.336-.077-.63-.161-.723-.523-.059-.226-.393-.416-.572-.546a5.323,5.323,0,0,0-.575-.378,2.222,2.222,0,0,0-.844-.309c-.286-.025-.262.065-.347.309a.085.085,0,0,1-.144.027,3.308,3.308,0,0,0-.754-.788,1.781,1.781,0,0,0-.876-.256c-.446-.04-.857-.162-.972-.652a1.016,1.016,0,0,1,.008-.514c.032-.136.123-.334.047-.467-.161-.272-.63-.348-.907-.408-.319-.067-.645-.1-.961-.187a1.749,1.749,0,0,1-1.194-.849c-.079-.208-.178-.231-.412-.269a5.612,5.612,0,0,1-.984-.231c-.343-.12-.676-.27-1.018-.388a6.5,6.5,0,0,0-1.162-.266,12.218,12.218,0,0,1-2.335-.639.074.074,0,0,1-.048-.093,3.644,3.644,0,0,0-1.266-.127,12.045,12.045,0,0,1-1.546-.189,7.5,7.5,0,0,1-1.6-.546,5.894,5.894,0,0,1-1.445-.72.08.08,0,0,1-.006-.124c1.135-1.076,2.691.023,3.814.541a10.851,10.851,0,0,0,2.691.694,21.1,21.1,0,0,0,2.578.3,1.718,1.718,0,0,1-.639-.567.081.081,0,0,1,.047-.128c2.251-.565,4.225,1.388,6.454.818a2.138,2.138,0,0,0-.309-.179.072.072,0,0,1-.017-.123c.775-.486,1.383-.14,2.1.254a6.9,6.9,0,0,0,3.218.489c.322.016.644.05.963.094A48.4,48.4,0,0,0,77.8,175.787,1.488,1.488,0,0,1,78.393,176.934Z" transform="translate(-77.595 -167.454)" fill="#288d8a"/>
        </g>
      </g>
      <path id="Trazado_725339" data-name="Trazado 725339" d="M78.892,248.993q1.56-2.779,3.238-5.483c.14-.227.283-.455.425-.681A37.277,37.277,0,0,1,72.119,229a48.784,48.784,0,0,1-4.379-20.653c.069-8.733,3.554-16.684,6.793-24.7a.519.519,0,0,0-.947-.417C69.052,191.2,63.971,199.06,62.161,208.1c-1.535,7.674.461,16.573,3.522,23.688A41.443,41.443,0,0,0,78.892,248.993Z" transform="translate(6.71 20.403)" fill="#fff"/>
      <path id="Trazado_725340" data-name="Trazado 725340" d="M84.325,239.047c-.216.35-.435.7-.65,1.051q-1.522,2.478-2.947,5.022a36.794,36.794,0,0,0,20.936,4.834q.664-2.406,1.358-4.805C96.656,243.578,90.009,242.222,84.325,239.047Z" transform="translate(8.9 26.837)" fill="#fff"/>
      <path id="Trazado_725341" data-name="Trazado 725341" d="M142.074,197.176c-4.4-8.51-10.591-16.063-16.175-23.8a104.743,104.743,0,0,1-13.8-25.538c-1.687-4.625-3.153-9.341-4.459-14.085-1.437-5.219-3.005-10.471-4.117-15.762-.021-.1-.176-.086-.156.013,1.015,4.833,1.558,9.76,2.489,14.619a132.992,132.992,0,0,0,3.288,13.911,99.082,99.082,0,0,0,12.891,26.148c5.207,7.791,11.013,15.181,15.8,23.249a111.017,111.017,0,0,1,6.533,12.444,39.448,39.448,0,0,1,2.909,15.491c0,.437.68.38.674-.056C147.842,214.709,146.284,205.308,142.074,197.176Z" transform="translate(11.497 12.945)" fill="#fff"/>
    </g>
  </g>
</svg>
