<svg xmlns="http://www.w3.org/2000/svg" xmlns:xlink="http://www.w3.org/1999/xlink" width="505" height="301" viewBox="0 0 505 301">
  <defs>
    <clipPath id="clip-path">
      <rect id="Rectángulo_348593" data-name="Rectángulo 348593" width="505" height="301" transform="translate(-60)" fill="none"/>
    </clipPath>
    <clipPath id="clip-path-2">
      <path id="Trazado_730284" data-name="Trazado 730284" d="M70.96,188.615,63.12,221.933l6.939,3.8,1.061-.237,8.592-36.509-.844-.685Z" transform="translate(-63.12 -188.306)" fill="none"/>
    </clipPath>
  </defs>
  <g id="Grupo_1013479" data-name="Grupo 1013479" transform="translate(-998 2103)">
    <rect id="_19d0ead6a9" data-name="19d0ead6a9" width="505" height="300" rx="19" transform="translate(998 -2103)" fill="#fff"/>
    <g id="Grupo_1009658" data-name="Grupo 1009658" transform="translate(1058 -2103)" clip-path="url(#clip-path)">
      <g id="Grupo_1009657" data-name="Grupo 1009657" transform="translate(-32.134 -16.738)">
        <path id="Trazado_724480" data-name="Trazado 724480" d="M90.327-27.455C85.891-4.636,72.462,15.457,57.195,32.986S24.55,66.169,9.975,84.279s-26.489,39.418-28.241,62.6c-.716,9.479.86,20.173,8.305,26.083" transform="translate(-20.581 27.455)" fill="none" stroke="#f2b366" stroke-miterlimit="10" stroke-width="1"/>
        <path id="Trazado_724481" data-name="Trazado 724481" d="M81.24-18.964,20.811,86.742C9.986,105.676-.9,124.751-7.986,145.378s-10.21,43.137-5.14,64.35" transform="translate(-21.694 24.08)" fill="none" stroke="#f2b366" stroke-miterlimit="10" stroke-width="1"/>
        <path id="Trazado_724482" data-name="Trazado 724482" d="M351.577-8.932c-1.393,20.623,6.013,41.194,17.8,58.175s27.732,30.68,44.619,42.6c9.758,6.888,20.032,13.374,27.785,22.459s12.721,21.517,9.662,33.063" transform="translate(32.4 20.092)" fill="none" stroke="#f2b366" stroke-miterlimit="10" stroke-width="1"/>
        <path id="Trazado_724483" data-name="Trazado 724483" d="M375.293-14.227a89.194,89.194,0,0,0,4.8,68.482c15.138,29.785,46.058,49.067,61.522,78.684a91.091,91.091,0,0,1,4.006,74.35c-7.957,20.3-22.914,36.9-35.334,54.825s-22.784,39.227-19.452,60.777" transform="translate(24.764 22.196)" fill="none" stroke="#f2b366" stroke-miterlimit="10" stroke-width="1"/>
        <path id="Trazado_724484" data-name="Trazado 724484" d="M496.921,215.266c1.009,14.471-2.624,28.891-7.569,42.527s-11.222,26.774-15.821,40.532a177.862,177.862,0,0,0-.125,111.471" transform="translate(-12.56 -69.034)" fill="none" stroke="#f2b366" stroke-miterlimit="10" stroke-width="1"/>
        <path id="Trazado_724485" data-name="Trazado 724485" d="M-35.477,343.413c13.27,17.916,27.605,35.663,46.455,47.571,17.2,10.867,37.233,16.28,55.485,25.271s35.811,23.261,40.27,43.113" transform="translate(-3.801 -119.976)" fill="none" stroke="#f2b366" stroke-miterlimit="10" stroke-width="1"/>
        <path id="Trazado_724486" data-name="Trazado 724486" d="M105.69,472.426c-8.174-14.515-24.257-22.932-40.418-26.97s-33-4.478-49.389-7.436a163.443,163.443,0,0,1-69.157-30.276" transform="translate(3.274 -145.55)" fill="none" stroke="#f2b366" stroke-miterlimit="10" stroke-width="1"/>
      </g>
    </g>
    <g id="Grupo_1012133" data-name="Grupo 1012133" transform="translate(1071.256 -2133.499)">
      <g id="Grupo_1012058" data-name="Grupo 1012058" transform="translate(79.799 233.074)">
        <g id="Grupo_1012057" data-name="Grupo 1012057">
          <path id="Trazado_730268" data-name="Trazado 730268" d="M103.667,369.781l59.686-6.874L120.3,317.386Z" transform="translate(-103.667 -317.386)" fill="#5e8083"/>
        </g>
        <path id="Trazado_730269" data-name="Trazado 730269" d="M114.922,384.631l.973-3.4-3.5-1.551,1.164-3.256-4.162-1.65,1.214-3.592-2.081-.585-4.864,15.325Z" transform="translate(-103.667 -333.532)" fill="#fff"/>
      </g>
      <g id="Grupo_1012060" data-name="Grupo 1012060" transform="translate(79.996 258.259)">
        <path id="Trazado_730270" data-name="Trazado 730270" d="M162.081,353.54l4.29,3s-5.243,7.223-13.24,17.85c-7.316,9.722-13.659,17.788-13.659,17.788l-1.659-1.161s5.478-8.678,12.037-18.924C157.945,359.451,162.081,353.54,162.081,353.54Z" transform="translate(-114.224 -353.54)" fill="#839da0"/>
        <path id="Trazado_730271" data-name="Trazado 730271" d="M164.018,368.987c5.669-7.6,9.189-12.445,9.189-12.445l-4.29-3s-2.893,4.135-8.571,12.878Z" transform="translate(-121.061 -353.54)" fill="#a7b9bb"/>
        <path id="Trazado_730272" data-name="Trazado 730272" d="M135.952,404.541l3.209,2.245a1.645,1.645,0,0,1,.4,2.29l-3.418,3.382a2.346,2.346,0,0,1-2.995.254l-.709-.5a2.345,2.345,0,0,1-.786-2.9l2.006-4.37A1.644,1.644,0,0,1,135.952,404.541Z" transform="translate(-112.291 -368.924)" fill="#fff"/>
        <g id="Grupo_1012059" data-name="Grupo 1012059" transform="translate(0 17.105)">
          <path id="Trazado_730273" data-name="Trazado 730273" d="M136.163,412.591A65.673,65.673,0,0,1,136.5,423.9a31.719,31.719,0,0,1-2.128,10.409s-.147.229-.632-.926-1.457-8.969-.8-11.589a44.478,44.478,0,0,1,1.849-5.668,16.543,16.543,0,0,0,.387-3.506Z" transform="translate(-112.677 -388.561)" fill="#14afde"/>
          <path id="Trazado_730274" data-name="Trazado 730274" d="M138.446,409.9a65.589,65.589,0,0,1,11.313-.332,31.711,31.711,0,0,1,10.409,2.127s.228.148-.926.632-8.969,1.457-11.589.8a44.506,44.506,0,0,1-5.668-1.849,16.506,16.506,0,0,0-3.506-.387Z" transform="translate(-114.416 -387.614)" fill="#14afde"/>
          <path id="Trazado_730275" data-name="Trazado 730275" d="M135.754,399.835a65.662,65.662,0,0,1-.332-11.313,31.71,31.71,0,0,1,2.127-10.409s.148-.229.632.926,1.457,8.97.8,11.589a44.485,44.485,0,0,1-1.849,5.668,16.5,16.5,0,0,0-.387,3.505Z" transform="translate(-113.469 -378.095)" fill="#14afde"/>
          <path id="Trazado_730276" data-name="Trazado 730276" d="M125.69,410.308a65.657,65.657,0,0,1-11.313.332,31.718,31.718,0,0,1-10.409-2.128s-.228-.147.926-.632,8.97-1.457,11.589-.8a44.491,44.491,0,0,1,5.668,1.849,16.532,16.532,0,0,0,3.505.387Z" transform="translate(-103.95 -386.822)" fill="#14afde"/>
          <path id="Trazado_730277" data-name="Trazado 730277" d="M133.336,409.658a2.506,2.506,0,1,1,2.216,2.766A2.506,2.506,0,0,1,133.336,409.658Z" transform="translate(-112.861 -386.994)" fill="#a7b9bb"/>
        </g>
      </g>
      <g id="Grupo_1012061" data-name="Grupo 1012061" transform="translate(25 149.932)">
        <path id="Trazado_730278" data-name="Trazado 730278" d="M25,241.856l68.326,39.6L89.86,198.032Z" transform="translate(-25 -198.032)" fill="#5e8083"/>
        <path id="Trazado_730279" data-name="Trazado 730279" d="M36.331,263.448l2.85-1.992-4.131-4.125,4.721-2.063-4.131-3.094,4.131-3.61-.965-1.012L25,256.88Z" transform="translate(-25 -213.056)" fill="#fff"/>
      </g>
      <g id="Grupo_1012071" data-name="Grupo 1012071" transform="translate(48.208 141.689)">
        <rect id="Rectángulo_349516" data-name="Rectángulo 349516" width="36.358" height="22.933" transform="translate(11.202 37.879) rotate(-76.757)" fill="#f5e782"/>
        <g id="Grupo_1012064" data-name="Grupo 1012064" transform="translate(16.403 6.218)">
          <g id="Grupo_1012062" data-name="Grupo 1012062" transform="translate(5.077 0)">
            <rect id="Rectángulo_349517" data-name="Rectángulo 349517" width="8.746" height="7.825" transform="matrix(0.229, -0.973, 0.973, 0.229, 0, 8.513)" fill="#874f17"/>
            <rect id="Rectángulo_349518" data-name="Rectángulo 349518" width="7.48" height="6.887" transform="translate(0.602 8.004) rotate(-76.757)" fill="#bbe8f5"/>
            <path id="Trazado_730280" data-name="Trazado 730280" d="M95.029,196.3l-.923,3.92-3.472-.817-.158.672,3.472.817-.923,3.92.672.158.923-3.92,3.472.817.158-.672-3.472-.817.923-3.921Z" transform="translate(-89.553 -195.48)" fill="#874f17"/>
          </g>
          <g id="Grupo_1012063" data-name="Grupo 1012063" transform="translate(0 21.573)">
            <rect id="Rectángulo_349519" data-name="Rectángulo 349519" width="8.746" height="7.825" transform="matrix(0.229, -0.973, 0.973, 0.229, 0, 8.513)" fill="#874f17"/>
            <rect id="Rectángulo_349520" data-name="Rectángulo 349520" width="7.48" height="6.887" transform="translate(0.601 8.004) rotate(-76.757)" fill="#bbe8f5"/>
            <path id="Trazado_730281" data-name="Trazado 730281" d="M87.74,227.266l-.923,3.921-3.472-.817-.158.672,3.472.817-.923,3.92.672.158.923-3.92,3.472.817.158-.672-3.472-.817.923-3.92Z" transform="translate(-82.265 -226.449)" fill="#874f17"/>
          </g>
          <path id="Trazado_730282" data-name="Trazado 730282" d="M107.179,224.6l-11.5-2.706a4.037,4.037,0,0,1,1.849-7.854l11.5,2.706Z" transform="translate(-85.152 -200.834)" fill="#874f17"/>
        </g>
        <g id="Grupo_1012068" data-name="Grupo 1012068" transform="translate(3.346 1.079)">
          <path id="Trazado_730283" data-name="Trazado 730283" d="M70.96,188.615,63.12,221.933l6.939,3.8,1.061-.237,8.592-36.509-.844-.685Z" transform="translate(-63.12 -187.917)" fill="#dd474a"/>
          <rect id="Rectángulo_349521" data-name="Rectángulo 349521" width="39.396" height="1.695" transform="translate(6.614 38.348) rotate(-76.757)" fill="#874f17"/>
          <g id="Grupo_1012067" data-name="Grupo 1012067" transform="translate(0 0.389)">
            <g id="Grupo_1012066" data-name="Grupo 1012066" clip-path="url(#clip-path-2)">
              <g id="Grupo_1012065" data-name="Grupo 1012065" transform="translate(-0.636 1.022)">
                <rect id="Rectángulo_349522" data-name="Rectángulo 349522" width="11.246" height="0.691" transform="translate(7.311 0.23) rotate(-1.173)" fill="#874f17"/>
                <rect id="Rectángulo_349523" data-name="Rectángulo 349523" width="0.691" height="11.119" transform="translate(6.593 3.965) rotate(-88.402)" fill="#874f17"/>
                <rect id="Rectángulo_349524" data-name="Rectángulo 349524" width="0.69" height="11.02" transform="matrix(0.078, -0.997, 0.997, 0.078, 5.86, 7.004)" fill="#874f17"/>
                <rect id="Rectángulo_349525" data-name="Rectángulo 349525" width="0.691" height="10.948" transform="matrix(0.128, -0.992, 0.992, 0.128, 5.127, 10.044)" fill="#874f17"/>
                <rect id="Rectángulo_349526" data-name="Rectángulo 349526" width="0.691" height="10.905" transform="matrix(0.179, -0.984, 0.984, 0.179, 4.394, 13.082)" fill="#874f17"/>
                <rect id="Rectángulo_349527" data-name="Rectángulo 349527" width="0.69" height="10.89" transform="matrix(0.229, -0.973, 0.973, 0.229, 3.661, 16.119)" fill="#874f17"/>
                <rect id="Rectángulo_349528" data-name="Rectángulo 349528" width="0.691" height="10.905" transform="translate(2.928 19.154) rotate(-73.79)" fill="#874f17"/>
                <rect id="Rectángulo_349529" data-name="Rectángulo 349529" width="0.691" height="10.948" transform="matrix(0.328, -0.945, 0.945, 0.328, 2.195, 22.192)" fill="#874f17"/>
                <rect id="Rectángulo_349530" data-name="Rectángulo 349530" width="0.69" height="11.02" transform="translate(1.463 25.228) rotate(-67.992)" fill="#874f17"/>
                <rect id="Rectángulo_349531" data-name="Rectángulo 349531" width="0.691" height="11.119" transform="translate(0.732 28.259) rotate(-65.1)" fill="#874f17"/>
                <rect id="Rectángulo_349532" data-name="Rectángulo 349532" width="0.691" height="11.246" transform="matrix(0.464, -0.886, 0.886, 0.464, 0, 31.296)" fill="#874f17"/>
              </g>
            </g>
          </g>
        </g>
        <g id="Grupo_1012070" data-name="Grupo 1012070" transform="translate(0)">
          <g id="Grupo_1012069" data-name="Grupo 1012069" transform="translate(0)">
            <rect id="Rectángulo_349533" data-name="Rectángulo 349533" width="14.642" height="6.189" rx="2.492" transform="matrix(0.229, -0.973, 0.973, 0.229, 0, 14.252)" fill="#95abad"/>
            <path id="Trazado_730285" data-name="Trazado 730285" d="M76.932,191l-3.25,13.811-7.934-3.844L68.117,190.9Z" transform="translate(-60.571 -187.624)" fill="#4f7477"/>
            <path id="Trazado_730286" data-name="Trazado 730286" d="M76.435,192.273l-2.766,11.754-6.824-3.288,2.016-8.567Z" transform="translate(-60.903 -188.011)" fill="#eaf8fc"/>
          </g>
          <path id="Trazado_730287" data-name="Trazado 730287" d="M75.367,203.909l2.814-11.955h-.4l-2.772,11.78Z" transform="translate(-63.38 -187.944)" fill="#4f7477"/>
          <path id="Trazado_730288" data-name="Trazado 730288" d="M73.634,203.31l2.674-11.364h-.4l-2.633,11.188Z" transform="translate(-62.854 -187.942)" fill="#4f7477"/>
          <path id="Trazado_730289" data-name="Trazado 730289" d="M71.9,202.712l2.535-10.772h-.4l-2.494,10.6Z" transform="translate(-62.329 -187.94)" fill="#4f7477"/>
          <path id="Trazado_730290" data-name="Trazado 730290" d="M70.168,202.114l2.4-10.18h-.4l-2.354,10Z" transform="translate(-61.803 -187.938)" fill="#4f7477"/>
          <path id="Trazado_730291" data-name="Trazado 730291" d="M68.434,201.515l2.256-9.589h-.4l-2.215,9.413Z" transform="translate(-61.277 -187.936)" fill="#4f7477"/>
        </g>
      </g>
      <g id="Grupo_1012077" data-name="Grupo 1012077" transform="translate(245.129 236.895)">
        <path id="Trazado_730292" data-name="Trazado 730292" d="M394.916,382.682l5.656-11.613-1.993-1.715-8.148,9.469Z" transform="translate(-356.002 -336.974)" fill="#799598"/>
        <g id="Grupo_1012076" data-name="Grupo 1012076" transform="translate(0 0)">
          <rect id="Rectángulo_349534" data-name="Rectángulo 349534" width="18.537" height="44.488" transform="matrix(-0.652, 0.758, -0.758, -0.652, 45.813, 29.017)" fill="#4f7477"/>
          <rect id="Rectángulo_349535" data-name="Rectángulo 349535" width="14.99" height="2.235" transform="matrix(-0.652, 0.758, -0.758, -0.652, 42.167, 28.219)" fill="#799598"/>
          <rect id="Rectángulo_349536" data-name="Rectángulo 349536" width="14.99" height="2.235" transform="matrix(-0.652, 0.758, -0.758, -0.652, 38.246, 24.846)" fill="#799598"/>
          <rect id="Rectángulo_349537" data-name="Rectángulo 349537" width="14.99" height="2.235" transform="matrix(-0.652, 0.758, -0.758, -0.652, 34.326, 21.472)" fill="#799598"/>
          <g id="Grupo_1012072" data-name="Grupo 1012072" transform="translate(18.934 16.641)">
            <rect id="Rectángulo_349538" data-name="Rectángulo 349538" width="5.391" height="2.235" transform="translate(6.261 4.087) rotate(-49.289)" fill="#799598"/>
            <rect id="Rectángulo_349539" data-name="Rectángulo 349539" width="5.391" height="2.235" transform="translate(0 11.363) rotate(-49.289)" fill="#799598"/>
          </g>
          <g id="Grupo_1012073" data-name="Grupo 1012073" transform="translate(15.013 13.267)">
            <rect id="Rectángulo_349540" data-name="Rectángulo 349540" width="5.391" height="2.235" transform="matrix(0.652, -0.758, 0.758, 0.652, 6.261, 4.087)" fill="#799598"/>
            <rect id="Rectángulo_349541" data-name="Rectángulo 349541" width="5.391" height="2.235" transform="matrix(0.652, -0.758, 0.758, 0.652, 0, 11.363)" fill="#799598"/>
          </g>
          <g id="Grupo_1012074" data-name="Grupo 1012074" transform="translate(11.093 9.894)">
            <rect id="Rectángulo_349542" data-name="Rectángulo 349542" width="5.391" height="2.235" transform="matrix(0.652, -0.758, 0.758, 0.652, 6.261, 4.087)" fill="#799598"/>
            <rect id="Rectángulo_349543" data-name="Rectángulo 349543" width="5.391" height="2.235" transform="matrix(0.652, -0.758, 0.758, 0.652, 0, 11.363)" fill="#799598"/>
          </g>
          <g id="Grupo_1012075" data-name="Grupo 1012075" transform="translate(7.173 6.521)">
            <rect id="Rectángulo_349544" data-name="Rectángulo 349544" width="5.391" height="2.235" transform="translate(6.261 4.087) rotate(-49.29)" fill="#799598"/>
            <rect id="Rectángulo_349545" data-name="Rectángulo 349545" width="5.391" height="2.235" transform="matrix(0.652, -0.758, 0.758, 0.652, 0, 11.363)" fill="#799598"/>
          </g>
        </g>
      </g>
      <g id="Grupo_1012080" data-name="Grupo 1012080" transform="translate(246.927 90.257)">
        <path id="Trazado_730293" data-name="Trazado 730293" d="M431.649,134.588a1.7,1.7,0,0,0-2.644-.5,1.581,1.581,0,0,0-1.284-.571,1.462,1.462,0,0,0-.184.027,2.29,2.29,0,0,0,.04-.511,2.317,2.317,0,0,0-3.976-1.519,3.532,3.532,0,0,0-5.691,1.521,2.769,2.769,0,0,0-3.349.469,2.312,2.312,0,0,0-4.085.874,2.184,2.184,0,0,0-.595-.064,2.228,2.228,0,0,0-.247.037,2.191,2.191,0,0,0-4.2.38,1.842,1.842,0,0,0-.56-.07,1.823,1.823,0,0,0-1.064.408.965.965,0,0,0-.641-.208.979.979,0,0,0-.934,1.021.965.965,0,0,0,.022.149.84.84,0,0,0-.139-.022.856.856,0,1,0,.893.817.369.369,0,0,0-.009-.037.951.951,0,0,0,.155.02,1.829,1.829,0,0,0,3.514.334,2.175,2.175,0,0,0,1.016.208,2.088,2.088,0,0,0,.248-.036,2.192,2.192,0,0,0,3.656.694,1.951,1.951,0,0,0,3.225-.09,1.829,1.829,0,0,0,2.631,1.537,2.305,2.305,0,0,0,3.586-.713,2.781,2.781,0,0,0,4.35.692,2.668,2.668,0,0,0,1.64.479c.033,0,.063-.011.095-.014a2.312,2.312,0,0,0,3.811.46,2.88,2.88,0,0,0,.77.079,2.928,2.928,0,0,0-.054-5.853Z" transform="translate(-361.099 -117.906)" fill="#999"/>
        <path id="Trazado_730294" data-name="Trazado 730294" d="M423.4,149.942a1.746,1.746,0,0,0-1.723-.877,1.724,1.724,0,0,0-.837.339,1.624,1.624,0,0,0-2.524.089,2.257,2.257,0,0,0-.4-.069,1.587,1.587,0,0,0,.007-.394,10.77,10.77,0,0,1-4.382-2.423,1.615,1.615,0,0,1-2.469-.066,1.623,1.623,0,0,0-1.321,1.023,1.146,1.146,0,0,0-.214-.013,10.847,10.847,0,0,1-2.228-.105.932.932,0,1,0,1,1.185.9.9,0,0,0,.1.031,1.116,1.116,0,0,0,0,.18,1.158,1.158,0,0,0,1.977.685,1.618,1.618,0,0,0,1.062.253,1.655,1.655,0,0,0,.35-.083,1.394,1.394,0,0,0,1.532,1.154,1.318,1.318,0,0,0,.157-.035,1.381,1.381,0,0,0,2.066.68,2.172,2.172,0,0,0,.006.387,2.212,2.212,0,0,0,2.451,1.944,2.166,2.166,0,0,0,.365-.08,2.2,2.2,0,0,0,2.082.969,2.177,2.177,0,0,0,.7-.21,2.9,2.9,0,1,0,2.249-4.563Z" transform="translate(-362.671 -122.731)" fill="#999"/>
        <path id="Trazado_730295" data-name="Trazado 730295" d="M424.969,114.391a3.629,3.629,0,0,0-1.535.372,4.857,4.857,0,0,0-8.957,1.531,3.929,3.929,0,0,0-1.938-.472c-.084,0-.167.01-.249.017a3.024,3.024,0,0,0-5.446-.15,3.388,3.388,0,0,0-.687-.06,3.333,3.333,0,0,0-3.241,2.892,2.374,2.374,0,0,0-2.954,1.71,2.718,2.718,0,0,0-4,3.473,1.519,1.519,0,1,0,1.551,1.491,1.405,1.405,0,0,0-.02-.172,2.707,2.707,0,0,0,3.571-2.079,2.408,2.408,0,0,0,3.453-1.109,3.291,3.291,0,0,0,4.336-.841,3.946,3.946,0,0,0,7.468.106,4.84,4.84,0,0,0,6.272-.361,3.643,3.643,0,1,0,2.375-6.348Z" transform="translate(-359.028 -112.365)" fill="#999"/>
        <g id="Grupo_1012079" data-name="Grupo 1012079" transform="translate(0 12.391)">
          <rect id="Rectángulo_349546" data-name="Rectángulo 349546" width="2.731" height="24.575" transform="translate(35.485 0) rotate(54.113)" fill="#604730"/>
          <rect id="Rectángulo_349547" data-name="Rectángulo 349547" width="2.731" height="24.575" transform="translate(39.786 5.945) rotate(54.112)" fill="#604730"/>
          <g id="Grupo_1012078" data-name="Grupo 1012078" transform="translate(0 8.498)">
            <rect id="Rectángulo_349548" data-name="Rectángulo 349548" width="2.731" height="24.575" transform="translate(44.088 3.393) rotate(54.113)" fill="#604730"/>
            <path id="Trazado_730296" data-name="Trazado 730296" d="M371.549,162.468l5.254-3.8-3.2-4.424-5.254,3.8-1.1-1.521,5.254-3.8-3.2-4.424-5.254,3.8-1.1-1.521,5.254-3.8-3.2-4.424-5.254,3.8-1.5-2.074-14.656,10.6,16.607,22.952,14.656-10.6Z" transform="translate(-343.587 -142.351)" fill="#874f17"/>
          </g>
          <rect id="Rectángulo_349549" data-name="Rectángulo 349549" width="2.503" height="4.068" transform="translate(12.274 15.463) rotate(54.112)" fill="#f5e782"/>
          <rect id="Rectángulo_349550" data-name="Rectángulo 349550" width="2.504" height="4.068" transform="translate(14.65 18.805) rotate(54.113)" fill="#f5e782"/>
          <rect id="Rectángulo_349551" data-name="Rectángulo 349551" width="2.503" height="4.068" transform="matrix(0.586, 0.81, -0.81, 0.586, 17.027, 22.147)" fill="#f5e782"/>
          <rect id="Rectángulo_349552" data-name="Rectángulo 349552" width="2.503" height="4.068" transform="translate(19.403 25.489) rotate(54.112)" fill="#f5e782"/>
          <rect id="Rectángulo_349553" data-name="Rectángulo 349553" width="2.503" height="4.068" transform="translate(21.78 28.832) rotate(54.112)" fill="#f5e782"/>
          <rect id="Rectángulo_349554" data-name="Rectángulo 349554" width="2.503" height="4.068" transform="translate(24.156 32.174) rotate(54.112)" fill="#f5e782"/>
        </g>
      </g>
      <g id="Grupo_1012086" data-name="Grupo 1012086" transform="translate(267.497 161.143)">
        <rect id="Rectángulo_349555" data-name="Rectángulo 349555" width="21.38" height="34.519" transform="translate(34.138 0.331) rotate(81.48)" fill="#8ba3a5"/>
        <rect id="Rectángulo_349556" data-name="Rectángulo 349556" width="8.847" height="4.328" transform="matrix(0.148, 0.989, -0.989, 0.148, 41.015, 9.592)" fill="#8ba3a5"/>
        <rect id="Rectángulo_349557" data-name="Rectángulo 349557" width="1.752" height="3.221" transform="translate(39.666 10.84) rotate(81.479)" fill="#4f7477"/>
        <rect id="Rectángulo_349558" data-name="Rectángulo 349558" width="21.72" height="1.164" transform="matrix(0.148, 0.989, -0.989, 0.148, 35.202, 0)" fill="#4f7477"/>
        <g id="Grupo_1012081" data-name="Grupo 1012081" transform="translate(29.599 3.305)">
          <rect id="Rectángulo_349559" data-name="Rectángulo 349559" width="2.687" height="5.085" transform="translate(0 0.398) rotate(-8.52)" fill="#4f7477"/>
          <rect id="Rectángulo_349560" data-name="Rectángulo 349560" width="2.687" height="5.085" transform="matrix(0.989, -0.148, 0.148, 0.989, 1.607, 11.126)" fill="#4f7477"/>
        </g>
        <g id="Grupo_1012082" data-name="Grupo 1012082" transform="translate(23.487 4.22)">
          <rect id="Rectángulo_349561" data-name="Rectángulo 349561" width="2.687" height="5.085" transform="matrix(0.989, -0.148, 0.148, 0.989, 0, 0.398)" fill="#4f7477"/>
          <rect id="Rectángulo_349562" data-name="Rectángulo 349562" width="2.687" height="5.085" transform="matrix(0.989, -0.148, 0.148, 0.989, 1.607, 11.126)" fill="#4f7477"/>
        </g>
        <g id="Grupo_1012083" data-name="Grupo 1012083" transform="translate(17.378 5.156)">
          <rect id="Rectángulo_349563" data-name="Rectángulo 349563" width="2.711" height="5.13" transform="matrix(0.989, -0.148, 0.148, 0.989, 0, 0.402)" fill="#4f7477"/>
          <rect id="Rectángulo_349564" data-name="Rectángulo 349564" width="2.711" height="5.13" transform="matrix(0.989, -0.148, 0.148, 0.989, 1.622, 11.226)" fill="#4f7477"/>
        </g>
        <g id="Grupo_1012084" data-name="Grupo 1012084" transform="translate(11.263 6.051)">
          <rect id="Rectángulo_349565" data-name="Rectángulo 349565" width="2.687" height="5.085" transform="translate(0 0.398) rotate(-8.52)" fill="#4f7477"/>
          <rect id="Rectángulo_349566" data-name="Rectángulo 349566" width="2.687" height="5.085" transform="translate(1.607 11.126) rotate(-8.52)" fill="#4f7477"/>
        </g>
        <g id="Grupo_1012085" data-name="Grupo 1012085" transform="translate(5.151 6.967)">
          <rect id="Rectángulo_349567" data-name="Rectángulo 349567" width="2.687" height="5.085" transform="matrix(0.989, -0.148, 0.148, 0.989, 0, 0.398)" fill="#4f7477"/>
          <rect id="Rectángulo_349568" data-name="Rectángulo 349568" width="2.687" height="5.085" transform="matrix(0.989, -0.148, 0.148, 0.989, 1.607, 11.126)" fill="#4f7477"/>
        </g>
        <rect id="Rectángulo_349569" data-name="Rectángulo 349569" width="9.242" height="0.752" transform="translate(41.495 9.32) rotate(81.48)" fill="#4f7477"/>
      </g>
      <g id="Grupo_1012092" data-name="Grupo 1012092" transform="translate(261.523 131.506)">
        <g id="Grupo_1012090" data-name="Grupo 1012090" transform="translate(0 0)">
          <rect id="Rectángulo_349570" data-name="Rectángulo 349570" width="21.501" height="48.889" transform="matrix(0.317, 0.949, -0.949, 0.317, 46.374, 0)" fill="#799598"/>
          <path id="Trazado_730297" data-name="Trazado 730297" d="M427.76,192.342l-.608-1.821,3.642-1.216.608,1.821Zm-1.216-3.642-.608-1.821,3.642-1.216.608,1.821Zm-1.216-3.642-.607-1.822,3.642-1.216.607,1.821Zm-1.216-3.642-.608-1.821,3.643-1.216.607,1.821Z" transform="translate(-382.431 -173.643)" fill="#4f7477"/>
          <path id="Trazado_730298" data-name="Trazado 730298" d="M416.085,196.24l-.608-1.821,3.642-1.216.608,1.821Zm-1.216-3.642-.607-1.821,3.642-1.216.607,1.821Zm-1.216-3.643-.608-1.821,3.643-1.216.607,1.821Zm-1.216-3.642-.608-1.821,3.642-1.216.608,1.821Z" transform="translate(-378.888 -174.826)" fill="#4f7477"/>
          <g id="Grupo_1012087" data-name="Grupo 1012087" transform="translate(24.807 10.167)">
            <path id="Trazado_730299" data-name="Trazado 730299" d="M404.409,200.137l-.608-1.821,3.642-1.216.608,1.821Zm-1.216-3.642-.607-1.821,3.642-1.216.607,1.821Zm-1.216-3.642-.608-1.821,3.642-1.216.608,1.821Zm-1.216-3.642-.608-1.821,3.642-1.216L404.4,188Z" transform="translate(-400.153 -186.175)" fill="#4f7477"/>
          </g>
          <g id="Grupo_1012088" data-name="Grupo 1012088" transform="translate(16.674 12.882)">
            <path id="Trazado_730300" data-name="Trazado 730300" d="M392.732,204.035l-.607-1.821L395.766,201l.607,1.821Zm-1.216-3.642-.608-1.821,3.643-1.216.607,1.821Zm-1.216-3.642-.608-1.821,3.642-1.216.608,1.821Zm-1.216-3.642-.607-1.821,3.642-1.216.608,1.821Z" transform="translate(-388.477 -190.073)" fill="#4f7477"/>
          </g>
          <g id="Grupo_1012089" data-name="Grupo 1012089" transform="translate(8.54 15.597)">
            <path id="Trazado_730301" data-name="Trazado 730301" d="M381.056,207.933l-.607-1.821,3.642-1.216.607,1.821Zm-1.216-3.642-.608-1.821,3.642-1.216.608,1.821Zm-1.216-3.642-.608-1.821,3.642-1.216.608,1.821Zm-1.216-3.642-.607-1.821,3.642-1.216.608,1.821Z" transform="translate(-376.801 -193.97)" fill="#4f7477"/>
          </g>
        </g>
        <g id="Grupo_1012091" data-name="Grupo 1012091" transform="translate(46.961 0.666)">
          <rect id="Rectángulo_349571" data-name="Rectángulo 349571" width="12.414" height="3.456" transform="translate(3.278 0) rotate(71.54)" fill="#4f7477"/>
          <path id="Trazado_730302" data-name="Trazado 730302" d="M438.969,178.939l-1.216-3.642,3.034-1.014s.5.154.995,1.629c.528,1.565.222,2.014.222,2.014Z" transform="translate(-433.715 -173.067)" fill="#799598"/>
          <rect id="Rectángulo_349572" data-name="Rectángulo 349572" width="3.93" height="2.304" transform="matrix(0.317, 0.949, -0.949, 0.317, 8.016, 6.919)" fill="#799598"/>
          <path id="Trazado_730303" data-name="Trazado 730303" d="M442.324,185.077a.868.868,0,1,1,.549-1.1A.868.868,0,0,1,442.324,185.077Z" transform="translate(-434.755 -175.828)" fill="#4f7477"/>
          <rect id="Rectángulo_349573" data-name="Rectángulo 349573" width="1.116" height="1.365" transform="translate(8.406 9.406) rotate(71.539)" fill="#4f7477"/>
        </g>
      </g>
      <g id="Grupo_1012093" data-name="Grupo 1012093" transform="translate(77.658 86.912)">
        <path id="Trazado_730304" data-name="Trazado 730304" d="M100.593,107.563,112.666,171.3l51.419-50.456Z" transform="translate(-100.593 -107.563)" fill="#5e8083"/>
        <path id="Trazado_730305" data-name="Trazado 730305" d="M112.189,119.381l6.084.473-.358-6.092,6.084.473-.106-1.8-23.3-4.872,4.431,23.389,1.8.14L106.463,125l6.084.473Z" transform="translate(-100.593 -107.563)" fill="#fff"/>
      </g>
      <g id="Grupo_1012095" data-name="Grupo 1012095" transform="translate(42.268 77.959)">
        <path id="Trazado_730306" data-name="Trazado 730306" d="M121.4,155.126l-3.257,4.1s-6.891-5.672-17.011-14.3C91.868,137.03,84.2,130.208,84.2,130.208l1.26-1.585s8.328,6,18.156,13.166C115.746,150.637,121.4,155.126,121.4,155.126Z" transform="translate(-60.23 -104.999)" fill="#839da0"/>
        <path id="Trazado_730307" data-name="Trazado 730307" d="M115.889,156.771c7.236,6.12,11.863,9.929,11.863,9.929l3.257-4.1s-3.952-3.14-12.333-9.339Z" transform="translate(-69.844 -112.475)" fill="#a7b9bb"/>
        <path id="Trazado_730308" data-name="Trazado 730308" d="M84.972,126.773l-2.436,3.066a1.644,1.644,0,0,1-2.311.265l-3.168-3.618a2.345,2.345,0,0,1-.071-3l.538-.678a2.347,2.347,0,0,1,2.943-.609l4.24,2.269A1.644,1.644,0,0,1,84.972,126.773Z" transform="translate(-57.886 -102.965)" fill="#fff"/>
        <g id="Grupo_1012094" data-name="Grupo 1012094">
          <path id="Trazado_730309" data-name="Trazado 730309" d="M71.378,126.318a65.645,65.645,0,0,1-11.313-.357,31.715,31.715,0,0,1-10.26-2.756s-.219-.162.963-.575,9.042-.908,11.616-.094a44.626,44.626,0,0,1,5.546,2.19,16.525,16.525,0,0,0,3.475.6Z" transform="translate(-49.789 -103.02)" fill="#14afde"/>
          <path id="Trazado_730310" data-name="Trazado 730310" d="M81.4,129.076a65.589,65.589,0,0,1-.357,11.312,31.716,31.716,0,0,1-2.756,10.261s-.162.219-.575-.963-.908-9.042-.094-11.616a44.35,44.35,0,0,1,2.19-5.546,16.532,16.532,0,0,0,.6-3.475Z" transform="translate(-58.099 -105.129)" fill="#14afde"/>
          <path id="Trazado_730311" data-name="Trazado 730311" d="M84.155,126.591a65.673,65.673,0,0,1,11.312.357,31.725,31.725,0,0,1,10.261,2.757s.219.162-.963.575-9.041.908-11.616.094a44.577,44.577,0,0,1-5.546-2.19,16.531,16.531,0,0,0-3.475-.6Z" transform="translate(-60.208 -104.353)" fill="#14afde"/>
          <path id="Trazado_730312" data-name="Trazado 730312" d="M81.67,116.3a65.674,65.674,0,0,1,.357-11.312,31.725,31.725,0,0,1,2.757-10.261s.161-.219.574.963.909,9.042.095,11.616a44.481,44.481,0,0,1-2.191,5.546,16.566,16.566,0,0,0-.6,3.475Z" transform="translate(-59.432 -94.71)" fill="#14afde"/>
          <path id="Trazado_730313" data-name="Trazado 730313" d="M81.724,123.945a2.506,2.506,0,1,1-2.9,2.044A2.506,2.506,0,0,1,81.724,123.945Z" transform="translate(-58.589 -103.569)" fill="#a7b9bb"/>
        </g>
      </g>
      <g id="Grupo_1012097" data-name="Grupo 1012097" transform="translate(81.424 92.093)">
        <g id="Grupo_1012096" data-name="Grupo 1012096">
          <circle id="Elipse_8820" data-name="Elipse 8820" cx="96.13" cy="96.13" r="96.13" fill="#0490ba"/>
          <path id="Trazado_730314" data-name="Trazado 730314" d="M196.672,123.387a39.734,39.734,0,0,1-5.841-7.411l-.011-.021A96.132,96.132,0,0,0,124.557,268.2,46.742,46.742,0,0,0,128,260.746c1.009-2.809,1.72-6.031.365-8.691-1.807-3.547-6.6-4.759-8.411-8.307-1.693-3.324-.052-7.486,2.544-10.165a8.178,8.178,0,0,1,3.558-2.337c6.56-1.823,11.5,8.744,18.187,7.447,3.738-.725,5.778-5.186,5.133-8.939s-3.216-6.857-5.844-9.612-5.482-5.462-6.951-8.975a13.8,13.8,0,0,1,1.746-13.451c4.46-5.814,12.567-7.015,19.816-8.083s15.421-3.12,18.833-9.605c2.988-5.681,1.551-13.609,6.373-17.845,3.71-3.261,9.331-2.646,14.042-4.13a16.291,16.291,0,0,0,10.7-18.089C206.761,133.285,201.387,128.3,196.672,123.387Z" transform="translate(-106 -115.29)" fill="#8fc026"/>
          <path id="Trazado_730315" data-name="Trazado 730315" d="M244.846,286.818c-7.445-6.509-19.787-4.372-27.24-10.871-7.535-6.569-5.072-15.637-10.725-23.88-3.065-4.469-8.382-7.619-13.775-7.087s-10.314,5.385-9.99,10.794c.305,5.093,3.186,6.48,2.36,11.514-.682,4.155-4.651,6.818-8.211,9.067s-7.432,5.183-7.705,9.385c-.253,3.9,2.759,7.286,3.284,11.159.736,5.429-3.4,10.137-6.866,14.381-3.493,4.278-6.646,9.233-7.851,14.52a95.718,95.718,0,0,0,59.819,20.881c1,0,2-.021,3-.051a19.074,19.074,0,0,1-1.218-7.236c.4-8.838,8.189-15.283,15.26-20.6s14.768-11.961,14.859-20.808A14.842,14.842,0,0,0,244.846,286.818Z" transform="translate(-121.816 -154.419)" fill="#8fc026"/>
        </g>
        <path id="Trazado_730316" data-name="Trazado 730316" d="M291.6,127.783l-.1-.054q-1.246-.717-2.515-1.4l-.149-.079q-2.6-1.388-5.3-2.617l-.2-.089q-1.327-.6-2.674-1.165l-.178-.072q-1.294-.537-2.605-1.037l-.2-.077q-1.247-.471-2.51-.906-.353-.122-.706-.242c-.167-.056-.333-.116-.506-.164a96.006,96.006,0,0,0-30.3-4.883c-.256,0-.51.008-.766.01.226.276.451.541.66.786,5.725,6.734,14.744,9.066,22.66,12.211a3.42,3.42,0,0,1,2.736,4.175c-.2,5.769.327,11.01,3.31,16.084,1.829,3.111,4.4,6.121,4.38,9.73-.024,3.8-2.983,6.954-6.136,9.083-3.653,2.465-7.8,4.145-11.359,6.75s-6.59,6.526-6.485,10.932c.148,6.251,6.408,10.652,12.461,12.222s12.565,1.434,18.291,3.948c2.449,1.076,4.8,2.757,5.824,5.231,1.833,4.446-1.205,9.67.213,14.266,2.457,7.959,15.313,7.636,19.053,15.078,3.78,7.519-4.35,17.763.66,24.524,1.149,1.549,2.871,2.649,3.8,4.338,1.45,2.635.562,6-1.077,8.517s-3.948,4.545-5.665,7.013a18,18,0,0,0-2.777,6.465A96.13,96.13,0,0,0,291.6,127.783Z" transform="translate(-147.536 -115)" fill="#c7a36d"/>
      </g>
      <g id="Grupo_1012099" data-name="Grupo 1012099" transform="translate(157.247 54.743)">
        <path id="Trazado_730317" data-name="Trazado 730317" d="M251.914,108.8l.118,6.131,2.081-.09-.129-6.669C253.288,108.359,252.6,108.558,251.914,108.8Z" transform="translate(-226.094 -75.577)" fill="#b66f20"/>
        <path id="Trazado_730318" data-name="Trazado 730318" d="M259.219,105.394l-.939,8.118,2.069.492,1.032-9.173C260.658,105,259.936,105.169,259.219,105.394Z" transform="translate(-228.025 -74.565)" fill="#b66f20"/>
        <path id="Trazado_730319" data-name="Trazado 730319" d="M268.115,110.964l-1.59,5.328,2.013.543,1.259-4.2A16.26,16.26,0,0,1,268.115,110.964Z" transform="translate(-230.527 -76.426)" fill="#b66f20"/>
        <path id="Trazado_730320" data-name="Trazado 730320" d="M277.107,112.523l-1.8,6.15,2.024.5,1.732-5.929C278.388,113.028,277.732,112.791,277.107,112.523Z" transform="translate(-233.192 -76.899)" fill="#b66f20"/>
        <g id="Grupo_1012098" data-name="Grupo 1012098">
          <path id="Trazado_730321" data-name="Trazado 730321" d="M238.151,83.9l-1.592,1.342,10.907,12.953c.435-.548.9-1.083,1.36-1.618Z" transform="translate(-221.435 -68.214)" fill="#b66f20"/>
          <path id="Trazado_730322" data-name="Trazado 730322" d="M234.135,66.316a4.563,4.563,0,0,0-8.29-2.99,6.051,6.051,0,0,0-8.3,7.523,5.566,5.566,0,0,0,4.182,10.176A3.565,3.565,0,0,0,228.4,82.8a5.187,5.187,0,0,0,7.946-6.655,5.081,5.081,0,0,0-2.21-9.834Z" transform="translate(-214.848 -61.383)" fill="#18672e"/>
        </g>
      </g>
      <path id="Trazado_730323" data-name="Trazado 730323" d="M299.137,60.509a6.014,6.014,0,0,0-6.362-5.644,6.083,6.083,0,0,0-.683.083c0-.126,0-.25,0-.377A10.022,10.022,0,0,0,272.968,51a8,8,0,0,0-9.717,8.307c0,.042.011.084.014.126l35.588,3.278A5.974,5.974,0,0,0,299.137,60.509Z" transform="translate(-72.282 -1.713)" fill="#333"/>
      <path id="Trazado_730324" data-name="Trazado 730324" d="M457.423,216.157a5.28,5.28,0,0,0-2.316-6.531,5.754,5.754,0,0,0,.189-2.573,7.792,7.792,0,0,0-9.518-12.338l5.886,24.718A5.283,5.283,0,0,0,457.423,216.157Z" transform="translate(-127.666 -46.622)" fill="#333"/>
      <g id="Grupo_1012104" data-name="Grupo 1012104" transform="translate(254.344 191.418)">
        <path id="Trazado_730325" data-name="Trazado 730325" d="M437.811,282.665a3.489,3.489,0,0,0-6.13-2.079,1.641,1.641,0,0,0-2.554,1.306c-.068,0-.133-.013-.2-.008a2.548,2.548,0,0,0-.882.219,1.891,1.891,0,0,0-2.714-.706,2.326,2.326,0,0,0-3.778-.734,1.957,1.957,0,0,0-2.423.1,1.9,1.9,0,0,0-.232-.133,1.911,1.911,0,0,0-1.681-3.009,1.928,1.928,0,0,0-.256.041,1.347,1.347,0,0,0-1.306-.943,1.172,1.172,0,0,0,.006-.148,1.138,1.138,0,1,0-1.3,1.191,1.327,1.327,0,0,0-.038.381,1.348,1.348,0,0,0,1.094,1.246,2.006,2.006,0,0,0-.011.26,1.913,1.913,0,0,0,1.077,1.608,1.917,1.917,0,0,0,2.736,2.618,1.973,1.973,0,0,0,1.3.4c.043,0,.083-.015.125-.02a1.905,1.905,0,0,0,2,2.25,1.9,1.9,0,0,1,2.38.505,1.318,1.318,0,0,1,2.217.6,2.566,2.566,0,0,0,4.461,1.479,3.294,3.294,0,0,0,5.263-3.939A3.475,3.475,0,0,0,437.811,282.665Z" transform="translate(-372.181 -263.02)" fill="#6e6e6e"/>
        <path id="Trazado_730326" data-name="Trazado 730326" d="M424.783,337.416a3.86,3.86,0,0,0-3.461-2,3.152,3.152,0,0,0-.175-.41A3.1,3.1,0,0,0,420,333.845a3.281,3.281,0,0,0-2.869-3.659,3.461,3.461,0,0,0-2.126-.589,3.527,3.527,0,0,0-.54.086,2.686,2.686,0,0,0-2.5-1.392,2.792,2.792,0,0,0-.327.052,2.724,2.724,0,0,0,.019-.46,2.693,2.693,0,0,0-2.322-2.513,2.412,2.412,0,0,0-2.3-1.341,2.388,2.388,0,0,0-1.516.668,1.381,1.381,0,0,0-1.5-.055,6.562,6.562,0,0,1-4.5-.325,1.847,1.847,0,0,0-.57.134c0-.033.006-.067,0-.1a1.134,1.134,0,1,0-1.067,1.2h0a4.148,4.148,0,0,0,5.842,1.324c.02.02.038.042.06.061a1.837,1.837,0,0,0,2.769,2.313,2.683,2.683,0,0,0,.8.939,1.942,1.942,0,0,0-.079.648,1.958,1.958,0,0,0,2.667,1.739,2.7,2.7,0,0,0,.722.674,2.26,2.26,0,0,0-.07,1.737,3.038,3.038,0,0,0,.419,3.855,3.84,3.84,0,0,0,.355,2.822c.061.11.126.215.2.316a4.412,4.412,0,1,0,7.264,4.685,3.648,3.648,0,0,0,4.321-3.946c.037-.018.075-.033.111-.054A3.861,3.861,0,0,0,424.783,337.416Z" transform="translate(-367.116 -277.519)" fill="#6e6e6e"/>
        <path id="Trazado_730327" data-name="Trazado 730327" d="M432.01,309.722a4.063,4.063,0,0,0-3.037-4.465,3.456,3.456,0,0,0-3.692-1.934,2.882,2.882,0,0,0-4.506-.161,2.389,2.389,0,0,0-3.089-.168,1.6,1.6,0,0,0-2.151.035,1.42,1.42,0,0,0-1.209.08,1.927,1.927,0,0,0-3.211-.853,1.128,1.128,0,0,0-1.122-.742,1.22,1.22,0,0,0-.2.032,1.289,1.289,0,0,0-1.714-.545,1.13,1.13,0,0,0-.954-.455c0-.026,0-.052,0-.078a1,1,0,1,0-1.077,1.045,1.12,1.12,0,0,0,1.459,1.239,1.292,1.292,0,0,0,.771.639,1.446,1.446,0,0,0,1.516,1.7l.016,0a1.368,1.368,0,0,0,2.518.481,1.909,1.909,0,0,0,.238.01,1.29,1.29,0,0,0,.968.8c0,.067-.013.133-.009.2a2.015,2.015,0,0,0,3.179,1.534,1.453,1.453,0,0,0,1.234.563,1.35,1.35,0,0,0,.271-.058,2.368,2.368,0,0,0,2.242,3.02c.009,0,.016.01.024.014a2.893,2.893,0,0,0,1.277.24,4.089,4.089,0,0,0,6.581,4,3.657,3.657,0,0,0,3.681-6.173Z" transform="translate(-369.677 -270.313)" fill="#6e6e6e"/>
        <g id="Grupo_1012103" data-name="Grupo 1012103">
          <path id="Trazado_730328" data-name="Trazado 730328" d="M408.076,275.014l.589-1.67-12.105-5.07-1.09,3.089Z" transform="translate(-366.746 -260.83)" fill="#4d3118"/>
          <path id="Trazado_730329" data-name="Trazado 730329" d="M399.655,298.874l.589-1.67-12.105-5.07-1.09,3.089Z" transform="translate(-364.191 -268.069)" fill="#4d3118"/>
          <path id="Trazado_730330" data-name="Trazado 730330" d="M391.235,322.735l.589-1.67L379.719,316l-1.09,3.089Z" transform="translate(-361.636 -275.308)" fill="#4d3118"/>
          <path id="Trazado_730331" data-name="Trazado 730331" d="M372.921,296.417l4.053,1.43,1.813-18.052,4.053,1.43,1.906-18.985-12.611-4.654-17.9,50.723,16.874,6.158Z" transform="translate(-354.235 -257.587)" fill="#874f17"/>
          <g id="Grupo_1012100" data-name="Grupo 1012100" transform="translate(19.231 4.514)">
            <path id="Trazado_730332" data-name="Trazado 730332" d="M381.842,277.746l.467-1.324,2.206.779-.467,1.324Zm.623-1.764.467-1.324,2.206.779-.467,1.324Zm.623-1.765.467-1.324,2.207.779-.467,1.324Zm.623-1.765.467-1.324,2.207.779-.467,1.324Zm.623-1.765.467-1.324,2.206.779-.467,1.324Zm.623-1.765.467-1.324,2.206.778-.467,1.324Zm.623-1.765.467-1.324,2.206.779-.467,1.324Zm.623-1.765.467-1.324,2.207.779-.467,1.324Z" transform="translate(-381.842 -264.067)" fill="#f5e782"/>
          </g>
          <g id="Grupo_1012101" data-name="Grupo 1012101" transform="translate(13.366 21.135)">
            <path id="Trazado_730333" data-name="Trazado 730333" d="M373.422,301.607l.467-1.324,2.207.778-.467,1.324Zm.623-1.765.467-1.324,2.206.779-.467,1.323Zm.623-1.765.467-1.324,2.206.779-.467,1.324Zm.623-1.765.467-1.324,2.206.779-.467,1.323Zm.623-1.765.467-1.324,2.207.779-.467,1.324Zm.624-1.765.467-1.324,2.207.779-.467,1.324Zm.623-1.765.467-1.324,2.206.779-.467,1.324Zm.623-1.765.467-1.324,2.206.778-.467,1.324Z" transform="translate(-373.422 -287.928)" fill="#f5e782"/>
          </g>
          <g id="Grupo_1012102" data-name="Grupo 1012102" transform="translate(7.5 37.756)">
            <path id="Trazado_730334" data-name="Trazado 730334" d="M365,325.468l.467-1.324,2.206.779-.467,1.324Zm.623-1.765.467-1.323,2.206.778-.467,1.324Zm.624-1.765.467-1.323,2.207.778-.467,1.324Zm.623-1.765.467-1.324,2.207.778-.467,1.324Zm.623-1.765.467-1.324,2.206.779-.467,1.324Zm.623-1.765.467-1.324,2.206.779-.467,1.324Zm.623-1.765.467-1.324,2.206.779-.467,1.324Zm.624-1.764.467-1.324,2.207.779-.467,1.324Z" transform="translate(-365.001 -311.788)" fill="#f5e782"/>
          </g>
        </g>
      </g>
      <g id="Grupo_1012115" data-name="Grupo 1012115" transform="translate(207.179 39.499)">
        <path id="Trazado_730335" data-name="Trazado 730335" d="M407.722,76.45a6.366,6.366,0,0,0-1.969.472,3.681,3.681,0,0,0-6.54,1.06,4.416,4.416,0,0,0-7.07,2.84,4.667,4.667,0,0,0-8.244,3.335,4.722,4.722,0,0,0,.185.991c-.118,0-.236,0-.356.008a3.428,3.428,0,0,0-1.489.47,3.93,3.93,0,0,0-6.888,2.871c.007.087.021.171.033.257-.086,0-.172,0-.259.006a3.194,3.194,0,0,0-2.945,2.961,1.679,1.679,0,0,0-.284-.007,1.721,1.721,0,1,0,1.5,2.745,3.19,3.19,0,0,0,5.161-2.394,3.891,3.891,0,0,0,3.225-.838,3.429,3.429,0,0,0,4.268.111,4.906,4.906,0,0,0,7.718-1.518,3.666,3.666,0,0,0,1.965-.8,5.4,5.4,0,0,0,8.772-.983,6.391,6.391,0,1,0,3.218-11.585Z" transform="translate(-311.946 -50.378)" fill="#6e6e6e"/>
        <path id="Trazado_730336" data-name="Trazado 730336" d="M378.652,52.933a4.857,4.857,0,0,0-9.656-.29,5.709,5.709,0,0,0-6.257,4.964,4.856,4.856,0,0,0-3.289,4.961c.007.1.023.189.036.283a3.8,3.8,0,0,0-.679-.013,3.754,3.754,0,0,0-3.05,5.474,3.537,3.537,0,0,0-2.129,2.358,2.868,2.868,0,0,0-2.432,5.05,1.77,1.77,0,1,0,2.682.46,2.871,2.871,0,0,0,1.627-1.39,3.525,3.525,0,0,0,5.052-3.3,4.407,4.407,0,0,0,6.356-5.2,4.878,4.878,0,0,0,1.266-1.184,5.3,5.3,0,0,0,7.527-7.347A4.856,4.856,0,0,0,378.652,52.933Z" transform="translate(-305.814 -42.211)" fill="#6e6e6e"/>
        <path id="Trazado_730337" data-name="Trazado 730337" d="M346.33,46.082a4.7,4.7,0,1,0-8.4.394c-.079,0-.16,0-.241.006a2.735,2.735,0,0,0-1.851,4.536,3.921,3.921,0,0,0-.353.319,2.734,2.734,0,0,0-3.142,3.983,3.316,3.316,0,0,0-.61,4.533,2.346,2.346,0,0,0-.146,4.131,1.758,1.758,0,1,0,1.987.178,2.335,2.335,0,0,0,1.411-2.974,3.324,3.324,0,0,0,2.766-3.217,3.915,3.915,0,0,0,4.42-3.8,4.693,4.693,0,0,0,4.156-8.093Z" transform="translate(-299.847 -39.499)" fill="#6e6e6e"/>
        <g id="Grupo_1012114" data-name="Grupo 1012114" transform="translate(0 24.028)">
          <path id="Trazado_730338" data-name="Trazado 730338" d="M356.869,167.289c-.364.33-.327.9-.493,1.364a2.448,2.448,0,0,1-1.431,1.294,17.625,17.625,0,0,0-1.842.736c-.119.068-.247.163-.254.3a.443.443,0,0,0,.147.288l3.456,3.886a6.473,6.473,0,0,0,1.8-3.328,1.351,1.351,0,0,1,.245-.862c.268-.267.725-.2,1.048-.4.41-.249.465-.806.55-1.278a4.666,4.666,0,0,1,.943-2.078,1.523,1.523,0,0,0-1.746-2.42c-.86.411-.365,1.093-.775,1.714C358.143,167.085,357.347,166.855,356.869,167.289Z" transform="translate(-306.65 -101.491)" fill="#44260c"/>
          <g id="Grupo_1012107" data-name="Grupo 1012107" transform="translate(47.678 52.578)">
            <g id="Grupo_1012105" data-name="Grupo 1012105">
              <path id="Trazado_730339" data-name="Trazado 730339" d="M362.207,162.628l-2.6-2.676a2.509,2.509,0,0,0-.012-3.608l-4.62-4.177,2.584-2.7,4.62,4.177a6.24,6.24,0,0,1,.031,8.979Z" transform="translate(-354.972 -149.471)" fill="#4e686d"/>
            </g>
            <g id="Grupo_1012106" data-name="Grupo 1012106">
              <path id="Trazado_730340" data-name="Trazado 730340" d="M361.621,164.494l2.6,2.676a6.2,6.2,0,0,0,1.571-2.508,8.222,8.222,0,0,1-4.132-.219C361.647,164.46,361.637,164.479,361.621,164.494Z" transform="translate(-356.989 -154.014)" fill="#474747"/>
              <path id="Trazado_730341" data-name="Trazado 730341" d="M362.755,153.526a16.585,16.585,0,0,1-.942,4.219,2.471,2.471,0,0,1,.625,1.629v.008a6.808,6.808,0,0,0,3.181-2.569,6.227,6.227,0,0,0-1.367-1.935Z" transform="translate(-357.048 -150.701)" fill="#474747"/>
              <path id="Trazado_730342" data-name="Trazado 730342" d="M357.556,149.471l-2.584,2.7,2.327,2.1c.224-1.439.417-2.871.766-4.34Z" transform="translate(-354.972 -149.471)" fill="#474747"/>
            </g>
          </g>
          <path id="Trazado_730343" data-name="Trazado 730343" d="M306.885,96.617l17.192-20.77,2.5,1.628-11.951,24.036Z" transform="translate(-292.704 -74.555)" fill="#1c2d2d"/>
          <g id="Grupo_1012108" data-name="Grupo 1012108" transform="translate(30.081 0)">
            <rect id="Rectángulo_349574" data-name="Rectángulo 349574" width="1.867" height="4.848" transform="translate(0 1.563) rotate(-56.886)" fill="#4e686d"/>
          </g>
          <path id="Trazado_730344" data-name="Trazado 730344" d="M330.648,145.866l-44.12-28.519,10.374-15.9,44.12,28.519Z" transform="translate(-286.528 -82.324)" fill="#4e686d"/>
          <g id="Grupo_1012109" data-name="Grupo 1012109" transform="translate(9.519 23.99)">
            <path id="Trazado_730345" data-name="Trazado 730345" d="M310.1,117.49l-1.565-1.018,1.7-2.608,1.565,1.018Zm-2.086-1.358-1.565-1.018,1.7-2.607,1.565,1.018Zm-2.086-1.358-1.565-1.018,1.7-2.607,1.565,1.018Zm-2.087-1.358-1.565-1.018,1.7-2.608,1.565,1.018Zm-2.086-1.358-1.565-1.018,1.7-2.607,1.565,1.018Z" transform="translate(-300.193 -108.432)" fill="#f5e782"/>
          </g>
          <path id="Trazado_730346" data-name="Trazado 730346" d="M326.339,109.193l17.192-20.77,2.5,1.629-11.951,24.036Z" transform="translate(-298.607 -78.371)" fill="#1c2d2d"/>
          <g id="Grupo_1012110" data-name="Grupo 1012110" transform="translate(43.633 8.76)">
            <rect id="Rectángulo_349575" data-name="Rectángulo 349575" width="1.867" height="4.848" transform="translate(0 1.563) rotate(-56.886)" fill="#4e686d"/>
          </g>
          <g id="Grupo_1012111" data-name="Grupo 1012111" transform="translate(23.071 32.75)">
            <path id="Trazado_730347" data-name="Trazado 730347" d="M329.558,130.065l-1.565-1.018,1.7-2.607,1.565,1.018Zm-2.086-1.358-1.565-1.018,1.7-2.608,1.565,1.018Zm-2.086-1.358-1.565-1.018,1.7-2.607,1.565,1.018Zm-2.087-1.358-1.565-1.018,1.7-2.607L325,123.384Zm-2.086-1.358-1.565-1.018,1.7-2.608,1.565,1.018Z" transform="translate(-319.648 -121.007)" fill="#f5e782"/>
          </g>
          <path id="Trazado_730348" data-name="Trazado 730348" d="M345.793,121.768,362.985,101l2.5,1.629L353.53,126.662Z" transform="translate(-304.509 -82.186)" fill="#1c2d2d"/>
          <g id="Grupo_1012112" data-name="Grupo 1012112" transform="translate(57.184 17.52)">
            <rect id="Rectángulo_349576" data-name="Rectángulo 349576" width="1.867" height="4.848" transform="translate(0 1.563) rotate(-56.886)" fill="#4e686d"/>
          </g>
          <g id="Grupo_1012113" data-name="Grupo 1012113" transform="translate(36.623 41.51)">
            <path id="Trazado_730349" data-name="Trazado 730349" d="M349.012,142.64l-1.565-1.018,1.7-2.607,1.565,1.018Zm-2.086-1.358-1.565-1.018,1.7-2.607,1.565,1.018Zm-2.086-1.358-1.565-1.018,1.7-2.608,1.565,1.018Zm-2.086-1.358-1.565-1.018,1.7-2.607,1.565,1.018Zm-2.086-1.358L339.1,136.19l1.7-2.607,1.565,1.018Z" transform="translate(-339.102 -133.583)" fill="#f5e782"/>
          </g>
        </g>
      </g>
      <g id="Grupo_1012118" data-name="Grupo 1012118" transform="translate(54.152 182.729)">
        <rect id="Rectángulo_349577" data-name="Rectángulo 349577" width="2.548" height="15.195" transform="translate(15.576 24.014) rotate(-98.482)" fill="#a7b9bb"/>
        <g id="Grupo_1012117" data-name="Grupo 1012117">
          <path id="Trazado_730350" data-name="Trazado 730350" d="M83.725,245.113,90.3,289.2l-18.614-2.7-4.837-32.433Z" transform="translate(-66.849 -245.113)" fill="#4e686d"/>
          <g id="Grupo_1012116" data-name="Grupo 1012116" transform="translate(1.751 2.116)">
            <path id="Trazado_730351" data-name="Trazado 730351" d="M75.078,296.662l.691,4.635,7.476.932-.788-5.284Z" transform="translate(-71.097 -262.869)" fill="#eaf8fc"/>
            <path id="Trazado_730352" data-name="Trazado 730352" d="M74.658,293.652l7.367.206-.788-5.284-7.271.443Z" transform="translate(-70.76 -260.415)" fill="#eaf8fc"/>
            <path id="Trazado_730353" data-name="Trazado 730353" d="M87.037,302.41l7.476.933-.89-5.968-7.379-.284Z" transform="translate(-74.484 -262.999)" fill="#bbe8f5"/>
            <path id="Trazado_730354" data-name="Trazado 730354" d="M93.129,293.871l-.89-5.968-7.271.443.793,5.319Z" transform="translate(-74.097 -260.212)" fill="#bbe8f5"/>
            <path id="Trazado_730355" data-name="Trazado 730355" d="M72.776,280.693l.691,4.635,7.251-.573-.788-5.284Z" transform="translate(-70.398 -257.653)" fill="#eaf8fc"/>
            <path id="Trazado_730356" data-name="Trazado 730356" d="M71.665,272.924l.691,4.635,7.143-1.3-.788-5.284Z" transform="translate(-70.061 -255.076)" fill="#eaf8fc"/>
            <path id="Trazado_730357" data-name="Trazado 730357" d="M84.4,284.163l7.251-.573-.89-5.968L83.6,278.844Z" transform="translate(-73.683 -257.092)" fill="#bbe8f5"/>
            <path id="Trazado_730358" data-name="Trazado 730358" d="M83.12,275.294l7.143-1.3-.89-5.968-7.046,1.948Z" transform="translate(-73.296 -254.181)" fill="#bbe8f5"/>
            <path id="Trazado_730359" data-name="Trazado 730359" d="M70.474,264.6l.691,4.635,7.027-2.078-.788-5.284Z" transform="translate(-69.7 -252.314)" fill="#eaf8fc"/>
            <path id="Trazado_730360" data-name="Trazado 730360" d="M76.184,253.377l-6.822,3.454.691,4.635,6.918-2.8Z" transform="translate(-69.362 -249.736)" fill="#eaf8fc"/>
            <path id="Trazado_730361" data-name="Trazado 730361" d="M81.754,265.792l7.027-2.078-.89-5.968-6.93,2.727Z" transform="translate(-72.881 -251.062)" fill="#bbe8f5"/>
            <path id="Trazado_730362" data-name="Trazado 730362" d="M79.685,251.6l.793,5.319,6.919-2.8-.89-5.968Z" transform="translate(-72.494 -248.15)" fill="#bbe8f5"/>
          </g>
        </g>
      </g>
      <g id="Grupo_1012119" data-name="Grupo 1012119" transform="translate(59.83 223.109)">
        <rect id="Rectángulo_349578" data-name="Rectángulo 349578" width="2.022" height="20.432" transform="translate(16.886 11.476) rotate(-110.42)" fill="#b66f20"/>
        <path id="Trazado_730363" data-name="Trazado 730363" d="M82.189,306.8a4.432,4.432,0,0,0-5.445,6.6,5.877,5.877,0,0,0,4.163,10.054,5.489,5.489,0,0,0,.226.812,5.408,5.408,0,0,0,10.447-1.308,3.462,3.462,0,0,0,3.812-5.525A5.037,5.037,0,0,0,91.9,307.99a4.934,4.934,0,0,0-9.715-1.195Z" transform="translate(-75 -303.081)" fill="#18672e"/>
      </g>
      <g id="Grupo_1012120" data-name="Grupo 1012120" transform="translate(64.363 119.66)">
        <rect id="Rectángulo_349579" data-name="Rectángulo 349579" width="1.982" height="20.029" transform="matrix(0.508, -0.861, 0.861, 0.508, 14.424, 14.805)" fill="#b66f20"/>
        <path id="Trazado_730364" data-name="Trazado 730364" d="M96.639,155.374a5.759,5.759,0,0,0-8.517,3.547,4.578,4.578,0,0,0-4.5,7.958,3.089,3.089,0,1,0,2.565,5.6,5.754,5.754,0,0,0,11.1,2.152,5.764,5.764,0,0,0,4.826-9.107,3.228,3.228,0,0,0,.2-.289,3.09,3.09,0,0,0-2.833-4.655A5.767,5.767,0,0,0,96.639,155.374Z" transform="translate(-81.508 -154.574)" fill="#58a816"/>
      </g>
      <g id="Grupo_1012121" data-name="Grupo 1012121" transform="translate(131.471 265.368)">
        <rect id="Rectángulo_349580" data-name="Rectángulo 349580" width="1.926" height="19.465" transform="translate(13.787 19.025) rotate(-160.907)" fill="#b66f20"/>
        <path id="Trazado_730365" data-name="Trazado 730365" d="M178.155,390.066a5.6,5.6,0,0,0,5.019,7.43,4.449,4.449,0,0,0,8.448,2.755,3,3,0,1,0,4.838-3.521,5.591,5.591,0,0,0-.088-10.987,5.6,5.6,0,0,0-9.6-2.844,2.9,2.9,0,0,0-.313-.13,3,3,0,0,0-3.888,3.6A5.6,5.6,0,0,0,178.155,390.066Z" transform="translate(-177.845 -369.018)" fill="#58a816"/>
      </g>
      <g id="Grupo_1012122" data-name="Grupo 1012122" transform="translate(102.181 76.149)">
        <rect id="Rectángulo_349581" data-name="Rectángulo 349581" width="2.082" height="21.04" transform="matrix(0.802, -0.598, 0.598, 0.802, 15.262, 17.189)" fill="#b66f20"/>
        <path id="Trazado_730366" data-name="Trazado 730366" d="M156.328,94.354a5.572,5.572,0,0,0-7.8-1.135,5.483,5.483,0,0,0-.649.576,6.051,6.051,0,0,0-9.219,6.369,4.567,4.567,0,0,0,1.018,8.753,5.08,5.08,0,0,0,9.07,4.4,5.187,5.187,0,0,0,8.293-6.218,3.566,3.566,0,0,0-.21-6.908A5.567,5.567,0,0,0,156.328,94.354Z" transform="translate(-135.797 -92.113)" fill="#18672e"/>
      </g>
      <g id="Grupo_1012123" data-name="Grupo 1012123" transform="translate(120.703 65.71)">
        <rect id="Rectángulo_349582" data-name="Rectángulo 349582" width="2.082" height="21.04" transform="matrix(0.922, -0.387, 0.387, 0.922, 13.857, 17.252)" fill="#b66f20"/>
        <path id="Trazado_730367" data-name="Trazado 730367" d="M183.824,84.078a4.565,4.565,0,0,0-7.022-5.326,6.051,6.051,0,0,0-10.17,4.7,5.565,5.565,0,0,0,.956,10.96,3.565,3.565,0,0,0,5.843,3.692A5.187,5.187,0,0,0,183,94.123a5.081,5.081,0,0,0,.823-10.046Z" transform="translate(-162.387 -77.127)" fill="#58a816"/>
      </g>
      <g id="Grupo_1012124" data-name="Grupo 1012124" transform="translate(116.973 245.088)">
        <rect id="Rectángulo_349583" data-name="Rectángulo 349583" width="2.007" height="20.285" transform="translate(15.625 18.464) rotate(-149.278)" fill="#b66f20"/>
        <path id="Trazado_730368" data-name="Trazado 730368" d="M160.326,357.975a4.4,4.4,0,0,0-.1,8.5,5.834,5.834,0,0,0,9.481,5.18,5.313,5.313,0,0,0,.68.487,5.369,5.369,0,0,0,7.261-7.518,3.437,3.437,0,0,0-.494-6.645,5,5,0,0,0-8.578-5.127,4.9,4.9,0,0,0-8.255,5.127Z" transform="translate(-157.032 -339.472)" fill="#18672e"/>
      </g>
      <g id="Grupo_1012125" data-name="Grupo 1012125" transform="translate(70.279 178.582)">
        <rect id="Rectángulo_349584" data-name="Rectángulo 349584" width="1.869" height="18.885" transform="matrix(0.059, -0.998, 0.998, 0.059, 15.867, 11.925)" fill="#b66f20"/>
        <path id="Trazado_730369" data-name="Trazado 730369" d="M100.56,240.906a4.1,4.1,0,0,0-7.066,3.555,5.432,5.432,0,0,0-.227,10.055,5.078,5.078,0,0,0-.112.77,5,5,0,0,0,9.323,2.788,3.2,3.2,0,0,0,5.284-3.251,4.656,4.656,0,0,0,.57-9.286,4.561,4.561,0,0,0-7.771-4.632Z" transform="translate(-90 -239.16)" fill="#58a816"/>
      </g>
      <g id="Grupo_1012126" data-name="Grupo 1012126" transform="translate(63.889 233.614)">
        <rect id="Rectángulo_349585" data-name="Rectángulo 349585" width="2.27" height="22.942" transform="translate(18.542 17.068) rotate(-132.11)" fill="#b66f20"/>
        <path id="Trazado_730370" data-name="Trazado 730370" d="M86.031,334.093a4.976,4.976,0,0,0-2.94,9.148A6.6,6.6,0,0,0,91.606,352a6.158,6.158,0,0,0,.573.754,6.072,6.072,0,0,0,10.356-5.7,3.887,3.887,0,0,0,1.684-7.346,5.655,5.655,0,0,0-7.557-8.4,5.54,5.54,0,0,0-10.631,2.785Z" transform="translate(-80.827 -321.098)" fill="#58a816"/>
      </g>
      <g id="Grupo_1012128" data-name="Grupo 1012128" transform="translate(102.746 124.096)">
        <g id="Grupo_1012127" data-name="Grupo 1012127" transform="translate(29.24 33.089)">
          <path id="Trazado_730371" data-name="Trazado 730371" d="M183.572,231.078a1.161,1.161,0,1,1-1.161-1.161A1.161,1.161,0,0,1,183.572,231.078Z" transform="translate(-179.392 -214.958)" fill="#14afde"/>
          <path id="Trazado_730372" data-name="Trazado 730372" d="M179.861,228.639a.639.639,0,1,1-.639-.639A.639.639,0,0,1,179.861,228.639Z" transform="translate(-178.583 -214.376)" fill="#14afde"/>
          <path id="Trazado_730373" data-name="Trazado 730373" d="M211.361,210.472a.639.639,0,1,1-.639-.639A.639.639,0,0,1,211.361,210.472Z" transform="translate(-188.14 -208.865)" fill="#14afde"/>
          <path id="Trazado_730374" data-name="Trazado 730374" d="M215.075,210.857a1.48,1.48,0,1,1,2.082.214A1.48,1.48,0,0,1,215.075,210.857Z" transform="translate(-189.554 -208.443)" fill="#14afde"/>
          <path id="Trazado_730375" data-name="Trazado 730375" d="M180.457,239.915a1.48,1.48,0,1,1,2.083.213A1.481,1.481,0,0,1,180.457,239.915Z" transform="translate(-179.051 -217.259)" fill="#14afde"/>
        </g>
        <path id="Trazado_730376" data-name="Trazado 730376" d="M188.6,198.424c-1.963.955-3.081,4.315-5.385,3.959-2.475-.382-3.474-3.365-3.845-5.841q-.487-3.251-.7-6.535a40.873,40.873,0,0,0-.836-7.565,10.2,10.2,0,0,0-4.084-6.221c-2.123-1.343-4.758-1.505-7.268-1.629-3.424-.169-14.63,5.2-21.073.147-2.586-2.026-4.3-8.65-5.166-11.72-.1-.34-.243-1.069-.44-2.079q-1.648,1.839-3.2,3.762c.554,4.822,1.024,8.521,1.256,9.38a26.787,26.787,0,0,0,3.514,8.441,11.091,11.091,0,0,0,7.439,4.923,16.953,16.953,0,0,0,5.934-.683l6.766-1.606c2.35-.558,5-1.072,7.043.214,2.164,1.361,2.8,4.235,2.751,6.79-.049,2.766-1.085,5.438-1.971,8.067-.641,1.9-2.028,6.01,1.179,6.538a9.026,9.026,0,0,0,2.034-.126,1.9,1.9,0,0,1,1.806.71c1.5,2.561-5.808,5.572-3,8.139,1.086.991,3.85,1.7,8.882-.871,5.549-2.833,7.891-6.533,10.546-9.969C193.269,201.444,193.05,196.262,188.6,198.424Z" transform="translate(-136.608 -160.942)" fill="#14afde"/>
      </g>
      <g id="Grupo_1012129" data-name="Grupo 1012129" transform="translate(192.787 129.637)">
        <path id="Trazado_730377" data-name="Trazado 730377" d="M331.413,171.545a13.477,13.477,0,0,0-8.122-2.646c-1.388.02-2.942.367-3.677,1.545-.968,1.553,0,3.54.892,5.139a62.183,62.183,0,0,1,4.4,9.808c.545,1.565.579,3.947-1.06,4.2-1.027.157-1.895-.776-2.913-.979-1.576-.315-2.974,1.221-3.362,2.781-.823,3.309,1.223,6.627,3.474,9.188,2.995,3.406,5.768,7.49,6.775,11.977,1.6,7.116-10.175,1.675-13.239,2.495-2.507.67-5.144,2.254-5.9,4.739-.828,2.735-1.007,5.381-2.463,7.41a3.707,3.707,0,0,1-3.3,1.756c-3.971-.088-7.548-8.581-11.368-5.243-.9.79-1.257,2.054-2.1,2.912-1.684,1.718-4.561,1.2-6.771.245a7.329,7.329,0,0,0-3.425-.933c-1.976.173-3.321,2.084-4.049,3.929-1.438,3.646-1.039,8.712,2.529,10.334,2.772,1.262,6.272-.141,8.949,1.312,2.892,1.569,3.287,5.5,3.222,8.788s.035,7.153,2.715,9.063a6.963,6.963,0,0,0,6.31.472c5.876-2.1,9-9.752,6.28-15.368-.683-1.409-1.659-2.667-2.28-4.1a6.687,6.687,0,0,1,.941-6.615c1.6-2.105,4.458-2.687,6.006-4.853,2.283-3.192,1.487-8.508,4.942-10.368,4.147-2.232,9.447,3.351,13.621,1.171,1.991-1.04,2.788-3.455,3.171-5.668s.588-4.6,1.99-6.353a1.474,1.474,0,0,1,.514-.45c.947-.431,1.645.9,2.083,1.84.947,2.039,4.067,3.232,5.411,1.431.819-1.1.539-2.572.481-3.839a5.424,5.424,0,0,1,.144-1.976c.44-1.306,1.321-.371,1.819.341.592.846.9,2.174,2.11,2.259a1.418,1.418,0,0,0,.995-.3A95.637,95.637,0,0,0,331.413,171.545Z" transform="translate(-268.466 -168.897)" fill="#44260c"/>
        <path id="Trazado_730378" data-name="Trazado 730378" d="M277.347,276.629a1.871,1.871,0,1,0,1.87,1.871A1.871,1.871,0,0,0,277.347,276.629Z" transform="translate(-268.782 -201.583)" fill="#44260c"/>
        <path id="Trazado_730379" data-name="Trazado 730379" d="M268.008,251.267a2.141,2.141,0,1,0,2.141,2.141A2.141,2.141,0,0,0,268.008,251.267Z" transform="translate(-265.867 -193.888)" fill="#44260c"/>
        <path id="Trazado_730380" data-name="Trazado 730380" d="M288.491,276.749a.984.984,0,1,0,.984.984A.985.985,0,0,0,288.491,276.749Z" transform="translate(-272.433 -201.62)" fill="#44260c"/>
        <path id="Trazado_730381" data-name="Trazado 730381" d="M306.546,302.752a1.874,1.874,0,1,0,1.874,1.873A1.873,1.873,0,0,0,306.546,302.752Z" transform="translate(-277.641 -209.509)" fill="#44260c"/>
        <path id="Trazado_730382" data-name="Trazado 730382" d="M320.728,293.531a1.07,1.07,0,1,0,1.071,1.07A1.07,1.07,0,0,0,320.728,293.531Z" transform="translate(-282.187 -206.712)" fill="#44260c"/>
      </g>
      <path id="Trazado_730383" data-name="Trazado 730383" d="M399.233,264.472l.511-.375a22.265,22.265,0,0,1-1.693-2.547c.036-.309.171-1.615.264-2.535l.914.265.55,1.227.435-.194-.64-1.427-1.209-.352c.025-.252.043-.427.046-.456l.011-.113-3.352-5.059,2.642,1.15,2.9,1.854.819,1.557.965,1.039.347-.326-.906-.963-.668-1.269,2.245.142,1.308,1.7-.562,1.218.024,2.076.476-.006-.024-1.968.414-.894,1.129,1.47,3.139,1.006.194-.6-2.1-.673.653-1.228,1.187-.287-.112-.462-1.395.336-.794,1.493-.388-.125-2.82-3.67-2.923-.186-2.814-1.793-3.135-1.367,4.83,1.084,2.591-1.224-.076.14,2.5,1.356,1.424-.276,1.519,1.124.283-.383-1.168-.864,1.7-.33-.121-.624-3.539.686-1.992-1.082,2.788-1.317,4.134.541,2.577-2.345-.427-.47-2.359,2.148-1.888-.247,1.2-2.2-.418-.227-1.284,2.366-1.635-.214-1.612.761.187-1.822-.631-.065-.227,2.2-3.6,1.7-4.1-.92,2.914-.2,5.227-4.726,1.974.07.017-.475-1.92-.069-.191-.819,1.829-2.021,2.986.391.062-.472-3.233-.423-1.775,1.96-.738-3.169,2.768-2.459-.421-.474-3.05,2.71,1.14,4.895-1.281,1.158-.856-.953-.194-2.881-.633.042.209,3.1,1,1.117-3.185,2.879-3.053.205L396.4,246.8l1.661-.295.7-1.367-.424-.217-.591,1.156-1.192.212.165-.548-.953-1.4,1.122-1.832-.407-.248-1.009,1.647-.813-1.2.052-2.617-.635-.013-.055,2.818,2,2.949-.628,2.09-1.186-.68-.368-1.3-.458.129.42,1.491,1.45.832-.75,2.493.3.091-17.122-2.931-.326,2.49,15.626,1.717-.111,3.17-2.176,1.843-1.305,3.2.587.24.857-2.1.428.76.28,1.441.467-.09-.287-1.48-.659-1.192.161-.394.924-.782,1.089,2,.021,1.927.635-.007-.022-2.086-1.228-2.254.853-.723.12-3.4.2.022.187.081,2.221,3.352-.875.842.059,2.646.635-.015-.054-2.368.591-.568,1.19,1.8c-.058.573-.319,3.142-.351,3.388-.011.085-.027.233.453,1l-.455,1.156.443.174.332-.841C398.445,263.379,398.782,263.858,399.233,264.472Zm-4.294-13.441-.138.01.006-.049Z" transform="translate(-106.906 -60.452)" fill="#604730"/>
      <path id="Trazado_730384" data-name="Trazado 730384" d="M334.267,154.109l-3.152-.969L330,151.107l1.963-.523-.009.019,2.711,1.269,2.171-.629-.146-.5-1.981.574-1.986-.93.17-.045,2.214-2.356,2.659.072.019-.7-1.573-.043.793-1.259-.445-.28-.959,1.523-.79-.021-2.293,2.44-4.192,1.139-3.4-.366,2.175-2.683,1.9.151,2.637-.648-.172-.679-1.091.276.52-.92.8-.485-.272-.449-.917.556-.835,1.476-.671.17-1.363-.109.795-.98,3.475-3.327,2.255-3.56-.593-.373-1.849,2.935-.351-1.193.551-1.35-.487-.2-.621,1.519.527,1.793-2.286,2.191-.252-.923.43-1.99-.514-.112-.444,2.053.35,1.383-.706.677-3.457,4.262.364-3.962.972-2.4-.115-1.247.105.113,1.613-1.515.511-2.207-.512-.119-.475,2.051-1.286,1.207-.287-3.094,1.084-1.721-.593-.374-1.211,1.923.452,4.877-.532,1.311-1.169-1.757-.431-1.614-.507.135.442,1.656,1.427,2.167-.157.388-.46,4.881-1.741-.936-.312-3.612-2.183-2.946-.871-.339-.077-2.02-.525.02.068,1.792-1.161-.452-.565-2.224-.679.172.654,2.574,2.715,1.056,1.258,1.7-1.443,0-1.258-.589-.222.476,1.311.614,2,.021.3.4.328,3.792,1.737.934-4.645.1-2.323-1.567-.169-.064-.242-1.637-.585-.714-.407.333.494.6.177,1.2-2.3-.877-.25.654,2.955,1.128,1.986,1.339-.913.583-1.4-.288-.106.515,1.607.331,1.306-.835,5.006-.108-10.51,14.426,2.347,1.479,9.26-15.4.317,1.213-.319,2.823.623,2.811.513-.117-.608-2.679.064-.571.543.287.767,1.191.442-.285-.841-1.307-.847-.447.191-1.7-.467-1.852.025-.042,1.291,1.149.715,2.578,2.066,1.714.158,1.4.523-.059-.1-.852,1.684,1.4.448-.539-3.615-3,1.7-.013,1.61,1.621.372-.37-1.765-1.778-2.482.018-.694-2.5-1.294-1.152,2.978.321.987-.263,1.335,2.433.76.234.6,1.292.477-.222-.4-.861,1.986.611Z" transform="translate(-87.293 -29.487)" fill="#604730"/>
      <path id="Trazado_730385" data-name="Trazado 730385" d="M357.074,289.073l.986,1.575.486-.3-.883-1.411.237-2.524,1.047.989.385,1.678.419-.1-.414-1.8-1.315-1.243-.086.091.1-1.018-.789-1.961-.355-3.943.1.021.006-.047,2.484,1.753.81.2-.013,2.269.451.47-.082,1.162.428.03.055-.775,1.177,1.225.413-.4-1.868-1.944.011-1.9,1.61.406-.013.01,1.433,1.984,1.8.412.1-.419-1.644-.376-1.05-1.453.139.035,2.518-.806,1.871,1.108.291-.493-1.107-.655,1.067-.585-.207-.377-1.29.708-.556-.329-2.608.834-3.45-.85-2.588-1.827,5.034-1.164,0,0,.69,1.312,1.232.533.171-.395-1.094-.473-.6-1.137,3.263-1.293,3.322-.271-.047-.571-3.043.248.2-.87,1.08-1.267-.327-.279-1.149,1.347-.264,1.149-3.611,1.421-.361.083,1.152-1.558,2.357-1.06-.235-.523-1.473.663.363-1.075.8-.557-.245-.353-.918.638-.535,1.588-.486.219-1.638,2.217-3.244.748,1.055-1.364.073-2.553,2.353-.151,1.318-.878-.238-.358-1.223.814-1.9.123,2.877-3.42-.439-.368-1.364,1.622-.135-1.073-.426.054.185,1.467-1.166,1.386-1.288-3.318.551-2.048,0-.129,1.142-.566.378-.6-.364-.229-.314.5-.83.411.047-1.853-.572-.015-.062,2.4-.466,1.733-.659-.508-.151-1.07-.426.06.176,1.244.958.738,1.473,3.794-.075,2.59-1.369,1.77-.074.017.011.048-.012,0-.393-1.59-1.038-1.5.549-.827.115-1.548-.428-.031-.107,1.436-.391.59-.375-.542-.751-2.669-.414.117.761,2.7,1.672,2.411.321,1.3-13.969-4.288-.518,2.208,13.582,2.89-.914.434-.5,2.328-.227.248h-1.2l-.985.393.166.4.863-.36h.767l-.838.916-1.859.65-.627,1.59.533.21.531-1.346.685-.239-.157.962.424.07.195-1.193.6-.21,1.659-1.816.474-2.2,1.335-.634.147.031.375,4.161.153.387-1.144,1.713-.391,1.415.415.111.353-1.317.96-1.436.427,1.08Z" transform="translate(-96.073 -68.501)" fill="#604730"/>
      <path id="Trazado_730386" data-name="Trazado 730386" d="M151.082,58.965a5.229,5.229,0,0,0-5.089,3.066,7.971,7.971,0,0,0-11.472,8.125,5.771,5.771,0,0,0-4.168,9l25.5-16.147A5.232,5.232,0,0,0,151.082,58.965Z" transform="translate(-31.658 -5.903)" fill="#fff"/>
      <path id="Trazado_730387" data-name="Trazado 730387" d="M50.515,294.529a5.67,5.67,0,0,0-5.064,9.1,8.343,8.343,0,0,0,9.674,13.561Z" transform="translate(-5.262 -77.368)" fill="#fff"/>
      <path id="Trazado_730388" data-name="Trazado 730388" d="M75.953,390.814a5.67,5.67,0,0,0,.557,10.4,8.343,8.343,0,0,0,15.409,6.329Z" transform="translate(-14.504 -106.59)" fill="#fff"/>
      <g id="Grupo_1012132" data-name="Grupo 1012132" transform="translate(233.255 249.48)">
        <path id="Trazado_730389" data-name="Trazado 730389" d="M372.5,381.825a1.619,1.619,0,0,0-1.656-1.582,1.592,1.592,0,0,0-.508.1,1.37,1.37,0,0,0-2.08.449,1.039,1.039,0,1,0-.956,1.381h.012c0,.039-.01.077-.009.118a1.156,1.156,0,0,0,.748,1.054,1.619,1.619,0,1,0,3.109.593c0-.053-.013-.1-.019-.154a1.291,1.291,0,0,0,.251-.394A1.614,1.614,0,0,0,372.5,381.825Z" transform="translate(-336.788 -352.802)" fill="#999"/>
        <path id="Trazado_730390" data-name="Trazado 730390" d="M365.335,388.765a1.613,1.613,0,0,0-2.717-1.145,1.733,1.733,0,0,0-.94-.475,1.175,1.175,0,0,0,.026-.263,1.157,1.157,0,1,0-1.748,1.018,1.726,1.726,0,0,0,.474,2.39,2.078,2.078,0,0,0,4.089-.089A1.612,1.612,0,0,0,365.335,388.765Z" transform="translate(-334.711 -354.534)" fill="#999"/>
        <path id="Trazado_730391" data-name="Trazado 730391" d="M357.193,396.393a2.421,2.421,0,0,0-2.476-2.364c-.039,0-.075.012-.114.015a1.93,1.93,0,0,0-.916-1.034,1.291,1.291,0,1,0-1.859.043,1.924,1.924,0,0,0-.041,3.316,2.707,2.707,0,0,0,5.406.026Z" transform="translate(-332.051 -356.08)" fill="#999"/>
        <g id="Grupo_1012131" data-name="Grupo 1012131">
          <path id="Trazado_730392" data-name="Trazado 730392" d="M340.978,371.941l-1.855,1.285,8.834,12.895,1.855-1.285Z" transform="translate(-328.562 -350.344)" fill="#333"/>
          <path id="Trazado_730393" data-name="Trazado 730393" d="M348.134,366.984l-1.855,1.285,8.834,12.895,1.855-1.285Z" transform="translate(-330.733 -348.841)" fill="#333"/>
          <g id="Grupo_1012130" data-name="Grupo 1012130">
            <path id="Trazado_730394" data-name="Trazado 730394" d="M355.29,362.028l-1.855,1.285,8.834,12.895,1.855-1.285Z" transform="translate(-332.904 -347.337)" fill="#333"/>
            <path id="Trazado_730395" data-name="Trazado 730395" d="M348.1,356.174l1.126,1.719-3.71,2.569-1.126-1.719-1.275.883,1.126,1.719-3.71,2.569L339.4,362.2l-1.275.883,1.126,1.719-3.71,2.569-1.126-1.719-1.739,1.2-8.718-12.587,19.245-13.329,8.718,12.587Z" transform="translate(-323.961 -340.938)" fill="#4e686d"/>
          </g>
          <rect id="Rectángulo_349586" data-name="Rectángulo 349586" width="2.069" height="3.443" transform="matrix(0.822, -0.569, 0.569, 0.822, 6.281, 18.267)" fill="#f5e782"/>
          <rect id="Rectángulo_349587" data-name="Rectángulo 349587" width="2.069" height="3.443" transform="matrix(0.822, -0.569, 0.569, 0.822, 9.051, 16.314)" fill="#f5e782"/>
          <rect id="Rectángulo_349588" data-name="Rectángulo 349588" width="2.069" height="3.443" transform="translate(11.82 14.361) rotate(-34.707)" fill="#f5e782"/>
          <rect id="Rectángulo_349589" data-name="Rectángulo 349589" width="2.069" height="3.443" transform="translate(14.589 12.408) rotate(-34.707)" fill="#f5e782"/>
          <rect id="Rectángulo_349590" data-name="Rectángulo 349590" width="2.069" height="3.443" transform="matrix(0.822, -0.569, 0.569, 0.822, 17.359, 10.455)" fill="#f5e782"/>
          <rect id="Rectángulo_349591" data-name="Rectángulo 349591" width="2.069" height="3.443" transform="matrix(0.822, -0.569, 0.569, 0.822, 20.128, 8.502)" fill="#f5e782"/>
        </g>
        <path id="Trazado_730396" data-name="Trazado 730396" d="M358.815,409.473a2.43,2.43,0,1,0-4.718,1.083,1.754,1.754,0,0,0-.48,1.248c0,.019.006.036.007.056a1.621,1.621,0,1,0,1.861,2.327,1.485,1.485,0,0,0,2.476-.86c.009,0,.017,0,.026,0a2.025,2.025,0,0,0,.828-3.855Z" transform="translate(-332.601 -361.104)" fill="#999"/>
        <path id="Trazado_730397" data-name="Trazado 730397" d="M361.919,422.809a1.609,1.609,0,0,0-2.868-1.4,2.986,2.986,0,0,0-3.38.443,2.739,2.739,0,1,0-1.306,5.109c.067,0,.13-.018.2-.024a2.938,2.938,0,0,0-.026.343,3.066,3.066,0,1,0,6.067-.644,1.946,1.946,0,0,0,.213.016,2.1,2.1,0,0,0,1.1-3.847Z" transform="translate(-332.335 -365.136)" fill="#999"/>
        <path id="Trazado_730398" data-name="Trazado 730398" d="M373.037,401.419a1.732,1.732,0,0,0-3.32-.656,1.96,1.96,0,1,0-2.006,3.342,1.486,1.486,0,0,0-.152.679,1.5,1.5,0,0,0,2.9.529,1.95,1.95,0,0,0,2.248-2.844A1.719,1.719,0,0,0,373.037,401.419Z" transform="translate(-336.891 -358.774)" fill="#999"/>
        <path id="Trazado_730399" data-name="Trazado 730399" d="M383.692,411.924a2.026,2.026,0,0,0-3.663-1.155,2.591,2.591,0,0,0-3.076,2.042c-.023,0-.045-.006-.068,0a2.32,2.32,0,0,0-2.122,1.518c-.056,0-.11-.015-.167-.013a2.759,2.759,0,1,0,2.235,4.44,1.871,1.871,0,0,0,3.04-1.237c.059,0,.114.015.173.013a2.164,2.164,0,0,0,1.872-3.186,2.559,2.559,0,0,0,.12-.38A2.029,2.029,0,0,0,383.692,411.924Z" transform="translate(-338.506 -361.872)" fill="#999"/>
        <path id="Trazado_730400" data-name="Trazado 730400" d="M385.43,387.339a1.714,1.714,0,0,0-3.152-.892,2.217,2.217,0,0,0-3.03,2.743,2.109,2.109,0,1,0,3.835,1.556,1.433,1.433,0,0,0,1.865-1.417,1.431,1.431,0,0,0-.16-.621A1.7,1.7,0,0,0,385.43,387.339Z" transform="translate(-340.631 -354.508)" fill="#999"/>
        <path id="Trazado_730401" data-name="Trazado 730401" d="M395.6,396.637a2.428,2.428,0,0,0-4.2-1.6,1.876,1.876,0,0,0-.35-.027,1.845,1.845,0,0,0-1.558.933,1.6,1.6,0,0,0-.505-.076,1.616,1.616,0,0,0-1.491,1.1,2.12,2.12,0,0,0-.221-.017,2.075,2.075,0,0,0-1.686,3.227,1.61,1.61,0,0,0,2.418,1.836,2.256,2.256,0,0,0,4.1-1.354c0-.052-.014-.1-.019-.149a1.958,1.958,0,0,0,1.518-1.428A2.424,2.424,0,0,0,395.6,396.637Z" transform="translate(-342.555 -357.117)" fill="#999"/>
      </g>
      <path id="Trazado_730402" data-name="Trazado 730402" d="M461.5,261.968a7.016,7.016,0,0,0-4.164-6.02,4.779,4.779,0,0,0-4.99-5.835,4.87,4.87,0,0,0-.932.147l-2.253,27.048a6.047,6.047,0,0,0,9.259-4.843,5.076,5.076,0,0,0,1.436-5.587A6.988,6.988,0,0,0,461.5,261.968Z" transform="translate(-128.693 -63.899)" fill="#333"/>
      <path id="Trazado_730403" data-name="Trazado 730403" d="M58.058,144.374a6,6,0,0,0-4.475,2.55,10.347,10.347,0,0,0-8.919,17.239,7.68,7.68,0,0,0,1.2,13.388l17.39-30.877A6.008,6.008,0,0,0,58.058,144.374Z" transform="translate(-4.94 -31.814)" fill="#fff"/>
      <path id="Trazado_730404" data-name="Trazado 730404" d="M399.886,411.1a6.568,6.568,0,0,0,11.219-1.627,8.133,8.133,0,0,0,3.642-15.4Z" transform="translate(-113.742 -107.577)" fill="#333"/>
    </g>
  </g>
</svg>
