<svg xmlns="http://www.w3.org/2000/svg" width="260" height="155" viewBox="0 0 260 155">
  <g id="Grupo_1013477" data-name="Grupo 1013477" transform="translate(1633 10326)">
    <rect id="doctor-realizando-investigaciones-medicas-laboratorio" width="260" height="155" rx="10" transform="translate(-1633 -10326)" fill="#fff"/>
    <g id="Grupo_1008672" data-name="Grupo 1008672" transform="translate(-1898.2 -10593.701)">
      <g id="Grupo_1008612" data-name="Grupo 1008612" transform="translate(277.2 275.701)">
        <path id="Trazado_722908" data-name="Trazado 722908" d="M482.659,373.243s-30.263-2.5-30.263-47.734,56.158-54.286,78.933-48.046,44.3,19.655,57.094,40.87,30.263,3.744,36.815,12.168S592.479,406,482.659,373.243Z" transform="translate(-435.523 -275.701)" fill="#d8ebed"/>
        <g id="Grupo_1008611" data-name="Grupo 1008611" transform="translate(0 4.438)">
          <g id="Grupo_1008564" data-name="Grupo 1008564" transform="translate(92.35 0.124)">
            <g id="Grupo_1008556" data-name="Grupo 1008556" transform="translate(0 11.564)">
              <g id="Grupo_1008528" data-name="Grupo 1008528" transform="translate(0 2.528)">
                <g id="Grupo_1008526" data-name="Grupo 1008526" transform="translate(0 18.252)">
                  <path id="Trazado_722909" data-name="Trazado 722909" d="M1268.441,679.023s-5.557-24.284-32.336-19.486C1236.1,659.537,1243.307,685.107,1268.441,679.023Z" transform="translate(-1236.105 -658.909)" fill="#29716e"/>
                  <path id="Trazado_722910" data-name="Trazado 722910" d="M1269.211,679.026a27.662,27.662,0,0,1-13.4.215c1.372-2.953.942-8.165-3.128-12.813-5.377-6.141-13.033-6.853-15.723-6.9C1263.665,654.792,1269.211,679.026,1269.211,679.026Z" transform="translate(-1236.875 -658.912)" fill="#225453"/>
                  <path id="Trazado_722911" data-name="Trazado 722911" d="M1236.1,665.426q.564.191,1.122.4t1.114.419c.74.286,1.477.579,2.208.885q2.2.913,4.346,1.927.538.253,1.072.512l.534.26.532.264q1.062.532,2.113,1.086c.35.185.7.373,1.047.561l.521.285.519.289c.691.387,1.378.78,2.058,1.185a87.839,87.839,0,0,1,7.9,5.262,76.926,76.926,0,0,1,7.246,6.152c-.54-.583-1.087-1.158-1.654-1.716l-.211-.21c-.07-.071-.143-.138-.214-.208l-.43-.413c-.144-.137-.29-.272-.435-.408s-.29-.272-.438-.405l-.442-.4c-.148-.133-.3-.263-.447-.4s-.3-.263-.45-.391l-.454-.388c-.152-.128-.305-.255-.458-.382l-.23-.191c-.077-.063-.155-.125-.232-.188l-.464-.375-.469-.369a73.583,73.583,0,0,0-7.889-5.371l-.515-.3-.517-.3c-.172-.1-.346-.2-.519-.295s-.346-.2-.521-.291q-1.045-.577-2.106-1.124-2.121-1.094-4.3-2.064t-4.414-1.808q-.559-.208-1.121-.407c-.375-.133-.75-.264-1.127-.388C1237.63,665.873,1236.872,665.633,1236.1,665.426Z" transform="translate(-1236.105 -664.798)" fill="#5c894d"/>
                </g>
                <g id="Grupo_1008527" data-name="Grupo 1008527" transform="translate(13.627)">
                  <path id="Trazado_722912" data-name="Trazado 722912" d="M1398.711,505.513s7.851-26.193-20.313-36.121C1378.4,469.392,1371.421,497.7,1398.711,505.513Z" transform="translate(-1377.599 -469.392)" fill="#7eb056"/>
                  <path id="Trazado_722913" data-name="Trazado 722913" d="M1391.28,486.822c-4.62-5.069-5.381-14.384-5.507-17.382l.011-.048c10.33,3.641,15.815,9.47,18.62,15.393C1402.713,490.573,1395.685,491.655,1391.28,486.822Z" transform="translate(-1384.986 -469.392)" fill="#88ba5d"/>
                  <path id="Trazado_722914" data-name="Trazado 722914" d="M1399.715,497.739a30.88,30.88,0,0,1-1,7.774c-27.29-7.808-20.313-36.121-20.313-36.121l.039.014c.262,2.982,1.7,16.158,7.111,21.97C1390.6,496.8,1395.833,498.449,1399.715,497.739Z" transform="translate(-1377.599 -469.392)" fill="#288d8a"/>
                  <path id="Trazado_722915" data-name="Trazado 722915" d="M1385.891,469.392c.311.308.614.623.913.941s.6.64.888.964q.877.974,1.72,1.977.423.5.837,1.008t.819,1.022q.2.257.4.516c.134.172.268.344.4.518l.2.26.2.261.2.261.2.263q1.558,2.105,3,4.295.716,1.1,1.4,2.211t1.333,2.253q.649,1.137,1.261,2.294c.409.771.8,1.55,1.187,2.333l.284.59c.047.1.1.2.141.3l.138.3c.092.2.185.4.276.594l.27.6c.091.2.176.4.264.6s.176.4.26.6l.255.6c.043.1.084.2.125.3l.124.3c.167.4.323.811.483,1.217.079.2.154.408.231.613s.155.408.228.614l.223.616c.074.205.143.412.215.619.146.412.278.828.415,1.242.035.1.067.208.1.312l.1.312.1.312.049.156.047.157.187.628.047.157.045.158.089.315.089.315c.029.105.061.21.088.316l.169.633c.028.106.058.211.084.317l.08.318.161.636-.134-.642-.068-.321c-.023-.107-.048-.213-.072-.32l-.147-.639c-.024-.107-.051-.213-.078-.319l-.079-.318-.079-.319c-.013-.053-.026-.106-.04-.159l-.043-.159-.17-.634-.043-.159-.045-.158-.09-.316-.09-.316c-.03-.105-.06-.211-.092-.315-.128-.419-.252-.839-.389-1.255-.068-.208-.133-.417-.2-.625l-.21-.622c-.069-.208-.143-.414-.217-.62s-.146-.413-.222-.618c-.154-.41-.3-.822-.466-1.229-.631-1.635-1.337-3.241-2.091-4.823-.192-.394-.382-.789-.581-1.179l-.148-.294-.074-.147-.076-.146-.3-.584q-.615-1.162-1.263-2.306t-1.342-2.26q-.692-1.117-1.419-2.213t-1.491-2.164c-.255-.356-.511-.711-.773-1.063-.13-.177-.262-.351-.394-.526s-.264-.349-.4-.523q-1.6-2.087-3.336-4.058-.435-.492-.88-.975t-.9-.957C1387.155,470.6,1386.538,469.981,1385.891,469.392Z" transform="translate(-1385.092 -469.392)" fill="#29716e"/>
                </g>
              </g>
              <g id="Grupo_1008531" data-name="Grupo 1008531" transform="translate(80.61 14.691)">
                <g id="Grupo_1008529" data-name="Grupo 1008529" transform="translate(12.014 16.304)">
                  <path id="Trazado_722916" data-name="Trazado 722916" d="M2210.725,834.666s10.99-.885,15.449-9.63,3.84-10.1,9.275-14.512,8.017-10.123,8.809-16.812,1.4-13.964,2.814-18.466,2.012-9.971.249-10.253-3.8,2.87-5.934,7.536-2.169,6.608-6.807,8.648-11.663,5.089-17.081,18.967-17.63,7.613-19.646,27.18Z" transform="translate(-2197.851 -764.974)" fill="#225453"/>
                  <path id="Trazado_722917" data-name="Trazado 722917" d="M2298.394,775.409c-1.416,4.5-2.022,11.777-2.814,18.466s-3.373,12.4-8.808,16.812-4.817,5.767-9.275,14.512-15.449,9.63-15.449,9.63l-7.4-4.224c4.819-15.7,18.466-17.618,19.858-23.818a21.812,21.812,0,0,1,10.339-13.783c4.621-2.807,6.313-2.954,6.475-9.186s2.489-7.737,4.466-10.967a27.52,27.52,0,0,0,2.86-7.7c.151.073.3.147.447.222C2300.282,766.488,2299.672,771.342,2298.394,775.409Z" transform="translate(-2249.174 -765.138)" fill="#29716e"/>
                </g>
                <g id="Grupo_1008530" data-name="Grupo 1008530">
                  <path id="Trazado_722918" data-name="Trazado 722918" d="M2116.723,635.853s7.409-9.8,7.463-15.358-.505-8.148.954-12.922,2.435-10.877.08-11.81-4.79,6.467-9.715,9.435-16.192,6.452-18.855,17.014-6.785,15.467-11.531,18.185-14.179,17.345-11.568,33.2l12.146,6.671s11.7-2.719,20.385-17.882S2108.565,645.119,2116.723,635.853Z" transform="translate(-2073.101 -595.682)" fill="#88ba5d"/>
                  <path id="Trazado_722919" data-name="Trazado 722919" d="M2113.831,676.933c2.374-8.022,5.7-16.646,12.032-19.866,7.492-3.808,12.194-14.946,15.61-25.873s7.589-14.848,12.641-19.047c3.73-3.1,6.745-10.977,8.068-14.886,2.155,1.138,1.19,7.073-.235,11.738-1.459,4.774-.9,7.367-.953,12.922s-7.463,15.358-7.463,15.358c-8.158,9.266-1.958,11.371-10.641,26.534S2122.5,681.7,2122.5,681.7Z" transform="translate(-2109.908 -597.11)" fill="#288d8a"/>
                </g>
              </g>
              <g id="Grupo_1008555" data-name="Grupo 1008555" transform="translate(31.706)">
                <path id="Trazado_722920" data-name="Trazado 722920" d="M1565.32,443.808V544.388a.67.67,0,0,0,.671.671h76.44a.671.671,0,0,0,.671-.671V443.808a.671.671,0,0,0-.671-.67h-76.44A.67.67,0,0,0,1565.32,443.808Zm43.6,3.308a1.229,1.229,0,0,1-1.229,1.229h-6.951a1.229,1.229,0,1,1,0-2.459h6.951a1.229,1.229,0,0,1,1.229,1.229Z" transform="translate(-1565.32 -443.138)" fill="#eaeaea"/>
                <g id="Grupo_1008554" data-name="Grupo 1008554" transform="translate(3.685 9.493)">
                  <g id="Grupo_1008552" data-name="Grupo 1008552" transform="translate(0 6.262)">
                    <path id="Trazado_722921" data-name="Trazado 722921" d="M1717.269,1174.2l-5.254,5.328a35.907,35.907,0,0,0,11.771,7.732l2.776-6.914A32.8,32.8,0,0,1,1717.269,1174.2Z" transform="translate(-1701.572 -1119.552)" fill="#32407d"/>
                    <path id="Trazado_722922" data-name="Trazado 722922" d="M1832.6,1055.064a10.852,10.852,0,0,0,3.847,2.528l-2.992,7.565s-4.368-1.729-6.542-4.331Z" transform="translate(-1805.402 -1011.885)" fill="#8f9ed7"/>
                    <path id="Trazado_722923" data-name="Trazado 722923" d="M1766.567,1120.6l5.812-5.712a20.882,20.882,0,0,0,6.481,4.25l-3,7.608S1771.573,1125.486,1766.567,1120.6Z" transform="translate(-1750.87 -1065.951)" fill="#0e73cf"/>
                    <path id="Trazado_722924" data-name="Trazado 722924" d="M1897.835,1081.311a9.437,9.437,0,0,0,4.182.818l.019,8.1a19.791,19.791,0,0,1-7.193-1.357Z" transform="translate(-1866.792 -1035.604)" fill="#6c9fd4"/>
                    <path id="Trazado_722925" data-name="Trazado 722925" d="M1847.229,1240.054l-.025,7.361a31.46,31.46,0,0,1-12.961-2.478l2.776-6.914S1840.513,1239.831,1847.229,1240.054Z" transform="translate(-1812.029 -1177.223)" fill="#3f4788"/>
                    <path id="Trazado_722926" data-name="Trazado 722926" d="M1866.125,1159.859l-3.061,7.528a25.644,25.644,0,0,0,10.2,1.9l.056-8.067A19.466,19.466,0,0,1,1866.125,1159.859Z" transform="translate(-1838.074 -1106.588)" fill="#0275ce"/>
                    <path id="Trazado_722927" data-name="Trazado 722927" d="M1968.567,1082.459a15.8,15.8,0,0,0,4.2-.762l3.011,7.565a20.8,20.8,0,0,1-7.193,1.32Z" transform="translate(-1933.416 -1035.953)" fill="#acd1eb"/>
                    <path id="Trazado_722928" data-name="Trazado 722928" d="M1969.125,1161.564l-.043,8.2s6.964-.347,10.136-2.057l-2.974-7.466A21.729,21.729,0,0,1,1969.125,1161.564Z" transform="translate(-1933.881 -1106.936)" fill="#028fdf"/>
                    <path id="Trazado_722929" data-name="Trazado 722929" d="M1978.96,1238.15l2.788,6.927a33.069,33.069,0,0,1-12.924,2.454l.012-7.5S1974.871,1240.145,1978.96,1238.15Z" transform="translate(-1933.648 -1177.338)" fill="#246bbb"/>
                    <path id="Trazado_722930" data-name="Trazado 722930" d="M2012.183,1057.454a13.863,13.863,0,0,0,3.829-2.583l5.725,5.762a15.357,15.357,0,0,1-6.542,4.386Z" transform="translate(-1972.832 -1011.711)" fill="#cae3e8"/>
                    <path id="Trazado_722931" data-name="Trazado 722931" d="M2049.99,1114.7l5.781,5.781a29.04,29.04,0,0,1-9.374,6.109l-2.949-7.5S2048.559,1116.557,2049.99,1114.7Z" transform="translate(-2001.086 -1065.777)" fill="#68b9e4"/>
                    <path id="Trazado_722932" data-name="Trazado 722932" d="M2074.07,1180.363l2.788,6.927a31.512,31.512,0,0,0,11.833-7.782l-5.328-5.3A24.874,24.874,0,0,1,2074.07,1180.363Z" transform="translate(-2028.758 -1119.552)" fill="#0073b4"/>
                    <path id="Trazado_722933" data-name="Trazado 722933" d="M2051.94,1018.944a11.948,11.948,0,0,0,2.528-3.829l7.546,3.085a16.954,16.954,0,0,1-4.275,6.468Z" transform="translate(-2008.76 -975.784)" fill="#c5e0d1"/>
                    <path id="Trazado_722934" data-name="Trazado 722934" d="M2079.023,971.71a11.121,11.121,0,0,1-.836,4.163l7.546,3.085a15.516,15.516,0,0,0,1.394-7.267Z" transform="translate(-2032.479 -936.542)" fill="#dfe9d0"/>
                    <path id="Trazado_722935" data-name="Trazado 722935" d="M2079.219,905.17a13.653,13.653,0,0,0-.775-4.253l7.559-2.949a19.978,19.978,0,0,1,1.313,7.175Z" transform="translate(-2032.711 -869.919)" fill="#eeebd8"/>
                    <path id="Trazado_722936" data-name="Trazado 722936" d="M2062.4,836.228s-1.84-4.368-4.368-6.58l-5.706,5.706a15.685,15.685,0,0,1,2.516,3.823Z" transform="translate(-2009.108 -808.179)" fill="#f3ecd0"/>
                    <path id="Trazado_722937" data-name="Trazado 722937" d="M2016.4,795.124l5.706-5.706s-1.8-2.354-6.487-4.287l-3.048,7.484A12.625,12.625,0,0,1,2016.4,795.124Z" transform="translate(-1973.18 -767.949)" fill="#f4e4cb"/>
                    <path id="Trazado_722938" data-name="Trazado 722938" d="M1972.979,779.532l3.048-7.484a15.413,15.413,0,0,0-7.193-1.382l-.074,8.029A13.123,13.123,0,0,1,1972.979,779.532Z" transform="translate(-1933.59 -754.866)" fill="#f5d2be"/>
                    <path id="Trazado_722939" data-name="Trazado 722939" d="M2112.154,1053.62l5.706,5.818s3.166-2.8,6.115-9.318l-7.546-2.968A15.923,15.923,0,0,1,2112.154,1053.62Z" transform="translate(-2063.174 -1004.735)" fill="#04b452"/>
                    <path id="Trazado_722940" data-name="Trazado 722940" d="M2171.4,1087.284a29.284,29.284,0,0,0,6.115-9.318l6.951,2.739s-.917,4.411-7.819,11.834Z" transform="translate(-2116.717 -1032.581)" fill="#286543"/>
                    <path id="Trazado_722941" data-name="Trazado 722941" d="M2156.542,979.307l7.546,2.968a27.9,27.9,0,0,0,1.933-10.2l-8.129.037A16.69,16.69,0,0,1,2156.542,979.307Z" transform="translate(-2103.288 -936.891)" fill="#c4e08b"/>
                    <path id="Trazado_722942" data-name="Trazado 722942" d="M2236.83,972.077l7.546.074s-.149,7.844-2.528,12.862l-6.952-2.738A24.306,24.306,0,0,0,2236.83,972.077Z" transform="translate(-2174.096 -936.891)" fill="#81a63d"/>
                    <path id="Trazado_722943" data-name="Trazado 722943" d="M2156.928,869.714l7.583-3.011s2.044,5.874,1.859,10.148l-8.129.037A19.33,19.33,0,0,0,2156.928,869.714Z" transform="translate(-2103.636 -841.665)" fill="#f0edc0"/>
                    <path id="Trazado_722944" data-name="Trazado 722944" d="M2242.546,838.526a35.833,35.833,0,0,1,2.528,12.936l-7.546-.074a28.755,28.755,0,0,0-1.859-10.148Z" transform="translate(-2174.794 -816.202)" fill="#c5d046"/>
                    <path id="Trazado_722945" data-name="Trazado 722945" d="M2111.575,776.28l5.743-5.688s3.457,2.825,6.208,9.256l-7.584,3.011A18.978,18.978,0,0,0,2111.575,776.28Z" transform="translate(-2062.651 -754.81)" fill="#fde75d"/>
                    <path id="Trazado_722946" data-name="Trazado 722946" d="M2171.209,720.363l5.279-5.353a32.858,32.858,0,0,1,7.807,11.9l-6.877,2.714S2174.443,723.188,2171.209,720.363Z" transform="translate(-2116.542 -704.581)" fill="#d1bf37"/>
                    <path id="Trazado_722947" data-name="Trazado 722947" d="M2050.707,718.6l5.743-5.688a27.119,27.119,0,0,0-9.275-6.147l-2.956,7.547A19.616,19.616,0,0,1,2050.707,718.6Z" transform="translate(-2001.783 -697.129)" fill="#fc9f37"/>
                    <path id="Trazado_722948" data-name="Trazado 722948" d="M2089.353,642.769l-5.171,5.47a26,26,0,0,0-9.275-6.147l2.953-6.892A37.744,37.744,0,0,1,2089.353,642.769Z" transform="translate(-2029.515 -632.458)" fill="#b68737"/>
                    <path id="Trazado_722949" data-name="Trazado 722949" d="M1976.207,696l2.955-7.547s-3.178-1.729-10.2-1.952l.055,8.117S1973.809,694.737,1976.207,696Z" transform="translate(-1933.771 -678.817)" fill="#fdca7b"/>
                    <path id="Trazado_722950" data-name="Trazado 722950" d="M1968.567,609.1l.038,7.427s5.9-.144,10.2,1.952l2.819-6.9A29.438,29.438,0,0,0,1968.567,609.1Z" transform="translate(-1933.416 -608.846)" fill="#ff9e38"/>
                    <path id="Trazado_722951" data-name="Trazado 722951" d="M1895.229,772.2a16.164,16.164,0,0,1,7.156-1.431l-.074,8.029s-3.141.242-4.108.837Z" transform="translate(-1867.141 -754.97)" fill="#ff9052"/>
                    <path id="Trazado_722952" data-name="Trazado 722952" d="M1864.35,688.44a25.271,25.271,0,0,1,10.075-1.94l.055,8.117a21.122,21.122,0,0,0-7.156,1.431Z" transform="translate(-1839.236 -678.817)" fill="#fd5d2d"/>
                    <path id="Trazado_722953" data-name="Trazado 722953" d="M1835.787,611.316a33.61,33.61,0,0,1,12.912-2.453l-.086,7.477a26.5,26.5,0,0,0-10.075,1.94Z" transform="translate(-1813.424 -608.656)" fill="#ea4f23"/>
                    <path id="Trazado_722954" data-name="Trazado 722954" d="M1832.579,794.388s.836-1.282,3.885-2.528l-2.974-7.565a19.543,19.543,0,0,0-6.58,4.349Z" transform="translate(-1805.402 -767.194)" fill="#feaa9f"/>
                    <path id="Trazado_722955" data-name="Trazado 722955" d="M1767.275,712.731a26.3,26.3,0,0,1,9.349-6.084l2.974,7.478a25.277,25.277,0,0,0-6.58,4.349Z" transform="translate(-1751.51 -697.024)" fill="#fc3c2d"/>
                    <path id="Trazado_722956" data-name="Trazado 722956" d="M1711.886,642.145s5.446-5.688,11.933-7.807l2.751,6.964a30.616,30.616,0,0,0-9.349,6.084Z" transform="translate(-1701.456 -631.68)" fill="#e8262e"/>
                    <path id="Trazado_722957" data-name="Trazado 722957" d="M1791.667,1019.56a15.652,15.652,0,0,1-2.546-3.866l-7.565,2.974a16.5,16.5,0,0,0,4.368,6.505Z" transform="translate(-1764.416 -976.307)" fill="#d6a4c9"/>
                    <path id="Trazado_722958" data-name="Trazado 722958" d="M1703.394,1049.547l7.528-2.974s2.175,4.628,4.368,6.505l-5.812,5.787S1705.011,1054.119,1703.394,1049.547Z" transform="translate(-1693.781 -1004.212)" fill="#d36dac"/>
                    <path id="Trazado_722959" data-name="Trazado 722959" d="M1631.408,1080.183l6.933-2.732a37.923,37.923,0,0,0,6.084,9.318l-5.192,5.272S1633.012,1085.766,1631.408,1080.183Z" transform="translate(-1628.728 -1032.116)" fill="#d52276"/>
                    <path id="Trazado_722960" data-name="Trazado 722960" d="M1775.722,971.5a10.927,10.927,0,0,0,.818,4.256l-7.491,2.974a15.443,15.443,0,0,1-1.394-7.175Z" transform="translate(-1751.835 -936.367)" fill="#d394c6"/>
                    <path id="Trazado_722961" data-name="Trazado 722961" d="M1683.268,972.114l8.141-.037a18.968,18.968,0,0,0,1.394,7.175l-7.583,3.048A25.71,25.71,0,0,1,1683.268,972.114Z" transform="translate(-1675.589 -936.891)" fill="#cc62a9"/>
                    <path id="Trazado_722962" data-name="Trazado 722962" d="M1605.545,972.463s-.068,7.868,2.49,12.843l6.933-2.732s-1.474-2.9-1.933-10.111Z" transform="translate(-1605.356 -937.239)" fill="#c61a71"/>
                    <path id="Trazado_722963" data-name="Trazado 722963" d="M1789.466,839.089a11.157,11.157,0,0,1,2.652-3.916l-5.787-5.719a18.233,18.233,0,0,0-4.324,6.561Z" transform="translate(-1764.823 -808.004)" fill="#f79089"/>
                    <path id="Trazado_722964" data-name="Trazado 722964" d="M1709.9,769.82a23.4,23.4,0,0,0-6.115,9.232l7.534,3.073s.62-2.392,4.324-6.561Z" transform="translate(-1694.13 -754.113)" fill="#ef2920"/>
                    <path id="Trazado_722965" data-name="Trazado 722965" d="M1639.449,715.4a36.009,36.009,0,0,0-7.72,11.8l6.939,2.676a25.773,25.773,0,0,1,6.115-9.231Z" transform="translate(-1629.018 -704.93)" fill="#d31a28"/>
                    <path id="Trazado_722966" data-name="Trazado 722966" d="M1776.58,900.5a11.157,11.157,0,0,0-.8,4.294l-8.1-.037a15.683,15.683,0,0,1,1.363-7.174Z" transform="translate(-1751.857 -869.57)" fill="#ce7cad"/>
                    <path id="Trazado_722967" data-name="Trazado 722967" d="M1685.292,866.317l7.534,3.011s-1.1,2.175-1.363,7.175l-8.141.037S1683.266,870.61,1685.292,866.317Z" transform="translate(-1675.642 -841.316)" fill="#c6558b"/>
                    <path id="Trazado_722968" data-name="Trazado 722968" d="M1608.063,837.883a33.615,33.615,0,0,0-2.521,12.961h7.49a24.875,24.875,0,0,1,1.97-10.223Z" transform="translate(-1605.353 -815.62)" fill="#c41c58"/>
                    <g id="Grupo_1008551" data-name="Grupo 1008551">
                      <g id="Grupo_1008532" data-name="Grupo 1008532">
                        <path id="Trazado_722969" data-name="Trazado 722969" d="M1638.79,677.136a35.1,35.1,0,1,1,13.7-2.767A34.986,34.986,0,0,1,1638.79,677.136Zm0-70.042a34.837,34.837,0,1,0,34.836,34.837A34.876,34.876,0,0,0,1638.79,607.094Zm0,46.324a11.488,11.488,0,1,1,8.123-3.365A11.413,11.413,0,0,1,1638.79,653.418Zm0-22.606a11.119,11.119,0,1,0,11.119,11.119A11.131,11.131,0,0,0,1638.79,630.812Z" transform="translate(-1603.585 -606.725)" fill="#eaeaea"/>
                      </g>
                      <g id="Grupo_1008533" data-name="Grupo 1008533" transform="translate(35.021 46.508)">
                        <rect id="Rectángulo_348322" data-name="Rectángulo 348322" width="0.369" height="23.718" fill="#eaeaea"/>
                      </g>
                      <g id="Grupo_1008534" data-name="Grupo 1008534" transform="translate(35.021 0.184)">
                        <rect id="Rectángulo_348323" data-name="Rectángulo 348323" width="0.369" height="23.718" fill="#eaeaea"/>
                      </g>
                      <g id="Grupo_1008535" data-name="Grupo 1008535" transform="translate(46.508 35.021)">
                        <rect id="Rectángulo_348324" data-name="Rectángulo 348324" width="23.718" height="0.369" fill="#eaeaea"/>
                      </g>
                      <g id="Grupo_1008536" data-name="Grupo 1008536" transform="translate(0.184 35.021)">
                        <rect id="Rectángulo_348325" data-name="Rectángulo 348325" width="23.718" height="0.369" fill="#eaeaea"/>
                      </g>
                      <g id="Grupo_1008537" data-name="Grupo 1008537" transform="translate(43.061 43.061)">
                        <rect id="Rectángulo_348326" data-name="Rectángulo 348326" width="0.369" height="23.727" transform="translate(0 0.261) rotate(-45)" fill="#eaeaea"/>
                      </g>
                      <g id="Grupo_1008538" data-name="Grupo 1008538" transform="translate(10.311 10.311)">
                        <rect id="Rectángulo_348327" data-name="Rectángulo 348327" width="0.369" height="23.685" transform="translate(0 0.261) rotate(-45)" fill="#eaeaea"/>
                      </g>
                      <g id="Grupo_1008539" data-name="Grupo 1008539" transform="translate(43.074 10.311)">
                        <rect id="Rectángulo_348328" data-name="Rectángulo 348328" width="23.709" height="0.369" transform="matrix(0.707, -0.707, 0.707, 0.707, 0, 16.766)" fill="#eaeaea"/>
                      </g>
                      <g id="Grupo_1008540" data-name="Grupo 1008540" transform="translate(10.311 43.066)">
                        <rect id="Rectángulo_348329" data-name="Rectángulo 348329" width="23.72" height="0.369" transform="translate(0 16.773) rotate(-45)" fill="#eaeaea"/>
                      </g>
                      <g id="Grupo_1008541" data-name="Grupo 1008541" transform="translate(45.649 39.225)">
                        <rect id="Rectángulo_348330" data-name="Rectángulo 348330" width="0.369" height="23.704" transform="translate(0 0.343) rotate(-68.265)" fill="#eaeaea"/>
                      </g>
                      <g id="Grupo_1008542" data-name="Grupo 1008542" transform="translate(2.606 22.065)">
                        <rect id="Rectángulo_348331" data-name="Rectángulo 348331" width="0.369" height="23.696" transform="translate(0 0.343) rotate(-68.265)" fill="#eaeaea"/>
                      </g>
                      <g id="Grupo_1008543" data-name="Grupo 1008543" transform="translate(39.226 2.606)">
                        <rect id="Rectángulo_348332" data-name="Rectángulo 348332" width="23.7" height="0.369" transform="translate(0 22.015) rotate(-68.263)" fill="#eaeaea"/>
                      </g>
                      <g id="Grupo_1008544" data-name="Grupo 1008544" transform="translate(22.065 45.63)">
                        <rect id="Rectángulo_348333" data-name="Rectángulo 348333" width="23.725" height="0.369" transform="matrix(0.37, -0.929, 0.929, 0.37, 0, 22.038)" fill="#eaeaea"/>
                      </g>
                      <g id="Grupo_1008545" data-name="Grupo 1008545" transform="translate(45.655 22.142)">
                        <rect id="Rectángulo_348334" data-name="Rectángulo 348334" width="23.709" height="0.369" transform="translate(0 8.728) rotate(-21.6)" fill="#eaeaea"/>
                      </g>
                      <g id="Grupo_1008546" data-name="Grupo 1008546" transform="translate(2.576 39.192)">
                        <rect id="Rectángulo_348335" data-name="Rectángulo 348335" width="23.724" height="0.369" transform="translate(0 8.733) rotate(-21.599)" fill="#eaeaea"/>
                      </g>
                      <g id="Grupo_1008547" data-name="Grupo 1008547" transform="translate(22.143 2.576)">
                        <rect id="Rectángulo_348336" data-name="Rectángulo 348336" width="0.369" height="23.673" transform="matrix(0.93, -0.368, 0.368, 0.93, 0, 0.136)" fill="#eaeaea"/>
                      </g>
                      <g id="Grupo_1008548" data-name="Grupo 1008548" transform="translate(39.201 45.663)">
                        <rect id="Rectángulo_348337" data-name="Rectángulo 348337" width="0.369" height="23.701" transform="translate(0 0.136) rotate(-21.599)" fill="#eaeaea"/>
                      </g>
                      <g id="Grupo_1008549" data-name="Grupo 1008549" transform="translate(7.488 7.488)">
                        <path id="Trazado_722970" data-name="Trazado 722970" d="M1709.052,739.91a27.631,27.631,0,1,1,10.789-2.178A27.542,27.542,0,0,1,1709.052,739.91Zm0-55.066a27.349,27.349,0,1,0,27.349,27.349A27.38,27.38,0,0,0,1709.052,684.844Z" transform="translate(-1681.335 -684.475)" fill="#eaeaea"/>
                      </g>
                      <g id="Grupo_1008550" data-name="Grupo 1008550" transform="translate(15.603 15.603)">
                        <path id="Trazado_722971" data-name="Trazado 722971" d="M1785.2,807.942a19.542,19.542,0,1,1,7.63-1.541A19.477,19.477,0,0,1,1785.2,807.942Zm0-38.835a19.233,19.233,0,1,0,19.233,19.233A19.255,19.255,0,0,0,1785.2,769.107Z" transform="translate(-1765.599 -768.738)" fill="#eaeaea"/>
                      </g>
                    </g>
                  </g>
                  <g id="Grupo_1008553" data-name="Grupo 1008553" transform="translate(10.839)">
                    <rect id="Rectángulo_348338" data-name="Rectángulo 348338" width="48.623" height="2.528" rx="1.264" transform="translate(0 81.187)" fill="#e5e3e4"/>
                    <rect id="Rectángulo_348339" data-name="Rectángulo 348339" width="48.623" height="2.528" rx="1.264" fill="#e5e3e4"/>
                    <rect id="Rectángulo_348340" data-name="Rectángulo 348340" width="26.616" height="2.528" rx="1.264" transform="translate(11.003 84.682)" fill="#e5e3e4"/>
                  </g>
                </g>
              </g>
            </g>
            <g id="Grupo_1008563" data-name="Grupo 1008563" transform="translate(63.273)">
              <g id="Grupo_1008557" data-name="Grupo 1008557" transform="translate(0 28.962)">
                <path id="Trazado_722972" data-name="Trazado 722972" d="M1928.686,631.011a4.123,4.123,0,0,0-5.882-3.563l-6.04-3.658a15.354,15.354,0,0,1-1.484,14.271,242.245,242.245,0,0,1-16.2,21.618l-3.178,3.746a11.812,11.812,0,0,0-1.14,13.687,4.122,4.122,0,0,0,3.427,2.011,11.4,11.4,0,0,0,10.884-7.111l5.582-13.752a113.154,113.154,0,0,1,8.057-16.057l.092-.152a15.346,15.346,0,0,1,11.688-7.328l.287-.027ZM1903.9,671.076c-1.324,2.186-3.526,3.274-4.918,2.431s-1.448-3.3-.125-5.485,3.526-3.274,4.918-2.431S1905.219,668.89,1903.9,671.076Z" transform="translate(-1893.093 -623.79)" fill="#89563d"/>
                <path id="Trazado_722973" data-name="Trazado 722973" d="M2148.823,627.649a4.119,4.119,0,0,0-3.9-.2l-6.04-3.658a15.331,15.331,0,0,1,1.095,6.42l10.571,6.4a15.337,15.337,0,0,1,6.057-1.888l.287-.027-6.087-3.686A4.119,4.119,0,0,0,2148.823,627.649Z" transform="translate(-2115.212 -623.79)" fill="#7f4934"/>
              </g>
              <g id="Grupo_1008562" data-name="Grupo 1008562" transform="translate(15.559)">
                <g id="Grupo_1008559" data-name="Grupo 1008559" transform="translate(2.998)">
                  <path id="Trazado_722974" data-name="Trazado 722974" d="M2130.522,342.851l.016-.874a.366.366,0,0,0-.541-.328l-.767.419a.366.366,0,0,1-.365-.008l-.521-.315a.366.366,0,0,1-.176-.319l.016-.874a.366.366,0,0,0-.541-.328l-.767.419a.366.366,0,0,1-.365-.008l-.521-.316a.366.366,0,0,1-.177-.319l.016-.874a.366.366,0,0,0-.541-.328l-.767.419a.366.366,0,0,1-.365-.008l-.521-.315a.366.366,0,0,1-.176-.32l.016-.874a.366.366,0,0,0-.541-.328l-.768.419a.365.365,0,0,1-.365-.008l-.521-.315a.365.365,0,0,1-.176-.319l.016-.874a.366.366,0,0,0-.541-.328l-.768.419a.366.366,0,0,1-.365-.008l-.521-.315a.366.366,0,0,1-.177-.319l.016-.874a.366.366,0,0,0-.541-.328l-.768.419a.366.366,0,0,1-.365-.008l-.521-.315a.365.365,0,0,1-.176-.32l.016-.874a.366.366,0,0,0-.541-.328l-.768.419a.365.365,0,0,1-.365-.008l-.521-.315a.367.367,0,0,1-.177-.32l.016-.874a.366.366,0,0,0-.541-.328l-.768.419a.366.366,0,0,1-.365-.008l-.521-.315a.365.365,0,0,1-.177-.319l.016-.874a.366.366,0,0,0-.541-.328l-.767.419a.366.366,0,0,1-.365-.008l-.521-.315a.366.366,0,0,1-.176-.319l.016-.874a.366.366,0,0,0-.541-.328l-.768.419a.366.366,0,0,1-.365-.008l-.521-.315a.366.366,0,0,1-.177-.32l.016-.874a.366.366,0,0,0-.541-.328l-.767.419a.366.366,0,0,1-.365-.008l-.521-.315a.367.367,0,0,1-.176-.319l.016-.874a.366.366,0,0,0-.541-.328l-.767.419a.366.366,0,0,1-.365-.008l-.521-.315a.365.365,0,0,1-.176-.319l.016-.874a.366.366,0,0,0-.541-.328l-.768.419a.366.366,0,0,1-.365-.008l-.521-.315a.366.366,0,0,1-.176-.32l.016-.874a.366.366,0,0,0-.541-.328l-.767.419a.366.366,0,0,1-.365-.008.366.366,0,0,0-.5.123l-11.915,19.673a.366.366,0,0,0,.124.5l32.461,19.66a.366.366,0,0,0,.5-.123l11.915-19.673a.365.365,0,0,0-.123-.5l-.016-.01A.366.366,0,0,1,2130.522,342.851Z" transform="translate(-2085.783 -323.064)" fill="#ead096"/>
                  <g id="Grupo_1008558" data-name="Grupo 1008558" transform="translate(5.345 0.679)">
                    <path id="Trazado_722975" data-name="Trazado 722975" d="M2149.528,330.115c-.622,1.175-1.276,2.331-1.94,3.48s-1.341,2.291-2.027,3.427-1.384,2.264-2.1,3.384-1.432,2.236-2.186,3.331c.622-1.175,1.275-2.331,1.939-3.48s1.341-2.291,2.028-3.426,1.385-2.264,2.1-3.384S2148.775,331.211,2149.528,330.115Z" transform="translate(-2141.278 -330.115)" fill="#eac488"/>
                    <path id="Trazado_722976" data-name="Trazado 722976" d="M2173.647,344.723c-.622,1.175-1.276,2.33-1.94,3.48s-1.341,2.291-2.027,3.427-1.385,2.264-2.1,3.384-1.432,2.235-2.185,3.331c.622-1.175,1.275-2.331,1.939-3.48s1.341-2.291,2.028-3.426,1.385-2.264,2.1-3.384S2172.894,345.819,2173.647,344.723Z" transform="translate(-2163.074 -343.316)" fill="#eac488"/>
                    <path id="Trazado_722977" data-name="Trazado 722977" d="M2198.361,359.691c-.622,1.175-1.276,2.33-1.94,3.48s-1.341,2.291-2.027,3.427-1.385,2.264-2.1,3.384-1.432,2.235-2.186,3.331c.622-1.175,1.275-2.331,1.939-3.48s1.341-2.291,2.028-3.426,1.385-2.264,2.1-3.384S2197.608,360.787,2198.361,359.691Z" transform="translate(-2185.408 -356.843)" fill="#eac488"/>
                    <path id="Trazado_722978" data-name="Trazado 722978" d="M2223.075,374.659c-.622,1.175-1.275,2.33-1.94,3.48s-1.341,2.291-2.028,3.427-1.385,2.264-2.1,3.384-1.433,2.235-2.186,3.331c.622-1.175,1.275-2.331,1.939-3.48s1.341-2.291,2.028-3.426,1.385-2.264,2.1-3.384S2222.323,375.755,2223.075,374.659Z" transform="translate(-2207.743 -370.369)" fill="#eac488"/>
                    <path id="Trazado_722979" data-name="Trazado 722979" d="M2247.193,389.266c-.622,1.175-1.276,2.331-1.94,3.48s-1.34,2.291-2.027,3.427-1.385,2.264-2.1,3.384-1.432,2.236-2.186,3.331c.622-1.175,1.275-2.331,1.939-3.48s1.341-2.291,2.028-3.426,1.385-2.264,2.1-3.384S2246.44,390.362,2247.193,389.266Z" transform="translate(-2229.537 -383.569)" fill="#eac488"/>
                    <path id="Trazado_722980" data-name="Trazado 722980" d="M2271.311,403.872c-.623,1.175-1.276,2.33-1.94,3.48s-1.341,2.291-2.027,3.427-1.385,2.264-2.1,3.384-1.433,2.236-2.186,3.331c.622-1.175,1.275-2.331,1.939-3.48s1.341-2.291,2.028-3.426,1.385-2.264,2.1-3.384S2270.558,404.968,2271.311,403.872Z" transform="translate(-2251.332 -396.769)" fill="#eac488"/>
                    <path id="Trazado_722981" data-name="Trazado 722981" d="M2295.875,418.749c-.622,1.175-1.276,2.331-1.94,3.48s-1.341,2.291-2.027,3.427-1.385,2.264-2.1,3.384-1.432,2.236-2.185,3.331c.622-1.175,1.275-2.331,1.939-3.48s1.341-2.291,2.028-3.426,1.385-2.264,2.1-3.384S2295.122,419.845,2295.875,418.749Z" transform="translate(-2273.531 -410.213)" fill="#eac488"/>
                    <path id="Trazado_722982" data-name="Trazado 722982" d="M2320.886,433.9c-.622,1.175-1.276,2.331-1.94,3.48s-1.341,2.291-2.027,3.427-1.384,2.264-2.1,3.384-1.432,2.235-2.186,3.331c.622-1.175,1.275-2.331,1.939-3.48s1.341-2.291,2.028-3.426,1.385-2.264,2.1-3.384S2320.133,434.993,2320.886,433.9Z" transform="translate(-2296.133 -423.902)" fill="#eac488"/>
                    <path id="Trazado_722983" data-name="Trazado 722983" d="M2345,448.5c-.622,1.175-1.276,2.33-1.94,3.48s-1.341,2.291-2.027,3.427-1.385,2.264-2.1,3.384-1.433,2.235-2.186,3.331c.622-1.175,1.275-2.331,1.939-3.48s1.341-2.291,2.028-3.426,1.385-2.264,2.1-3.384S2344.25,449.6,2345,448.5Z" transform="translate(-2317.927 -437.102)" fill="#eac488"/>
                    <path id="Trazado_722984" data-name="Trazado 722984" d="M2369.567,463.381c-.622,1.175-1.276,2.33-1.94,3.48s-1.341,2.291-2.027,3.427-1.385,2.264-2.1,3.384-1.433,2.235-2.186,3.331c.622-1.175,1.275-2.331,1.94-3.48s1.341-2.291,2.028-3.426,1.385-2.264,2.1-3.384S2368.814,464.477,2369.567,463.381Z" transform="translate(-2340.125 -450.546)" fill="#eac488"/>
                    <path id="Trazado_722985" data-name="Trazado 722985" d="M2393.685,477.988c-.622,1.175-1.276,2.331-1.94,3.48s-1.341,2.291-2.027,3.427-1.385,2.264-2.1,3.384-1.432,2.235-2.186,3.331c.622-1.175,1.275-2.331,1.94-3.48s1.34-2.291,2.028-3.426,1.385-2.264,2.1-3.384S2392.932,479.084,2393.685,477.988Z" transform="translate(-2361.92 -463.747)" fill="#eac488"/>
                    <path id="Trazado_722986" data-name="Trazado 722986" d="M2418.249,492.865c-.622,1.175-1.275,2.33-1.939,3.48s-1.341,2.291-2.027,3.427-1.385,2.264-2.1,3.384-1.433,2.235-2.186,3.331c.622-1.175,1.275-2.331,1.939-3.48s1.341-2.291,2.028-3.426,1.385-2.264,2.1-3.384S2417.5,493.961,2418.249,492.865Z" transform="translate(-2384.119 -477.191)" fill="#eac488"/>
                    <path id="Trazado_722987" data-name="Trazado 722987" d="M2442.813,507.742c-.622,1.175-1.276,2.33-1.94,3.48s-1.341,2.291-2.027,3.427-1.384,2.265-2.1,3.385-1.432,2.235-2.185,3.331c.622-1.175,1.275-2.331,1.939-3.48s1.341-2.291,2.028-3.426,1.385-2.264,2.1-3.384S2442.06,508.838,2442.813,507.742Z" transform="translate(-2406.317 -490.635)" fill="#eac488"/>
                    <path id="Trazado_722988" data-name="Trazado 722988" d="M2467.377,522.619c-.623,1.175-1.276,2.33-1.94,3.48s-1.341,2.291-2.027,3.427-1.385,2.265-2.1,3.384-1.432,2.236-2.186,3.331c.622-1.175,1.275-2.331,1.939-3.48s1.341-2.291,2.028-3.426,1.385-2.264,2.1-3.384S2466.624,523.715,2467.377,522.619Z" transform="translate(-2428.515 -504.079)" fill="#eac488"/>
                  </g>
                </g>
                <path id="Trazado_722989" data-name="Trazado 722989" d="M2083.755,557.92l-27.092-16.408a4.175,4.175,0,0,1-1.408-5.733l1.684-2.78,34.233,20.733-1.684,2.78A4.175,4.175,0,0,1,2083.755,557.92Z" transform="translate(-2054.65 -512.78)" fill="#89563d"/>
                <g id="Grupo_1008561" data-name="Grupo 1008561" transform="translate(2.288 14.149)">
                  <path id="Trazado_722990" data-name="Trazado 722990" d="M2112.643,496.785l-34.233-20.733,3.4-5.616a.94.94,0,0,1,1.291-.317l32.626,19.76a.939.939,0,0,1,.317,1.29Z" transform="translate(-2078.41 -469.983)" fill="#ccc"/>
                  <g id="Grupo_1008560" data-name="Grupo 1008560" transform="translate(3.787 3.607)">
                    <path id="Trazado_722991" data-name="Trazado 722991" d="M2119.471,508.864a.939.939,0,1,1-.317-1.289A.939.939,0,0,1,2119.471,508.864Z" transform="translate(-2117.729 -507.438)" fill="#bcbcbc"/>
                    <circle id="Elipse_8714" data-name="Elipse 8714" cx="0.939" cy="0.939" r="0.939" transform="translate(28.543 18.829) rotate(-62.81)" fill="#bcbcbc"/>
                    <path id="Trazado_722992" data-name="Trazado 722992" d="M2175.452,545.456l-23.463-14.21a.257.257,0,0,1,.266-.44l23.463,14.21a.257.257,0,0,1-.266.44Z" transform="translate(-2148.578 -528.522)" fill="#bcbcbc"/>
                  </g>
                </g>
              </g>
            </g>
          </g>
          <g id="Grupo_1008567" data-name="Grupo 1008567" transform="translate(65.807 0)">
            <ellipse id="Elipse_8715" data-name="Elipse 8715" cx="2.78" cy="9.953" rx="2.78" ry="9.953" transform="translate(45.882 1.414) rotate(-14.739)" fill="#edcd68"/>
            <rect id="Rectángulo_348341" data-name="Rectángulo 348341" width="41.276" height="19.906" transform="matrix(-0.967, 0.254, -0.254, -0.967, 53.64, 19.977)" fill="#edcd68"/>
            <ellipse id="Elipse_8716" data-name="Elipse 8716" cx="2.78" cy="9.953" rx="2.78" ry="9.953" transform="translate(5.96 11.917) rotate(-14.739)" fill="#edc05e"/>
            <g id="Grupo_1008566" data-name="Grupo 1008566" transform="translate(0 20.33)">
              <path id="Trazado_722993" data-name="Trazado 722993" d="M1198.932,894.836l9.534-2.508a1.779,1.779,0,0,0,1.268-2.173l-5.249-19.951-12.974,3.413,5.249,19.951A1.779,1.779,0,0,0,1198.932,894.836Z" transform="translate(-1169.262 -837.716)" fill="#eda54b"/>
              <path id="Trazado_722994" data-name="Trazado 722994" d="M1195.313,901.616c8.01-3.33,4.419-14.4,3.685-16.422l-7.487,1.97Z" transform="translate(-1169.262 -851.262)" fill="#edab4e"/>
              <path id="Trazado_722995" data-name="Trazado 722995" d="M1191.537,873.128c.068.258,3.807-.5,6.61-1.239s6.432-1.916,6.364-2.175-3.807.5-6.61,1.239S1191.469,872.87,1191.537,873.128Z" transform="translate(-1169.285 -837.227)" fill="#edb14f"/>
              <g id="Grupo_1008565" data-name="Grupo 1008565">
                <path id="Trazado_722996" data-name="Trazado 722996" d="M989.219,567.378a.486.486,0,0,1-.47-.362l-1.108-4.213a12.452,12.452,0,0,0-6.964-8.224l-13.828-6.219a11.108,11.108,0,0,1-6.186-7.3,5.136,5.136,0,0,1,3.656-6.267l7.226-1.9a.486.486,0,1,1,.247.94l-7.227,1.9a4.158,4.158,0,0,0-2.963,5.079,10.091,10.091,0,0,0,5.645,6.665l13.827,6.219a13.478,13.478,0,0,1,7.506,8.863l1.108,4.213a.486.486,0,0,1-.47.61Z" transform="translate(-960.494 -532.872)" fill="#a7c1c4"/>
              </g>
            </g>
            <path id="Trazado_722997" data-name="Trazado 722997" d="M1102.921,407.721l.006.022,12.481-3.284c2.713-2.784,6.525-9.171,2.654-21.281l-8.659,2.278C1110.3,388.986,1112.064,399.768,1102.921,407.721Z" transform="translate(-1089.204 -377.265)" fill="#edc05e"/>
            <path id="Trazado_722998" data-name="Trazado 722998" d="M1311.8,367.992l8.017-2.109c2.212-2.92,4.978-9.3.967-20.838l-6.74,1.773C1315.259,349.874,1318.652,360.339,1311.8,367.992Z" transform="translate(-1277.967 -342.804)" fill="#edc05e"/>
          </g>
          <g id="Grupo_1008610" data-name="Grupo 1008610" transform="translate(0 7.565)">
            <g id="Grupo_1008570" data-name="Grupo 1008570" transform="translate(0 27.533)">
              <g id="Grupo_1008568" data-name="Grupo 1008568" transform="translate(0 17.266)">
                <path id="Trazado_722999" data-name="Trazado 722999" d="M322.163,930.7s-11.021.346-16.426-7.848-4.941-9.6-10.835-13.388-9.1-9.167-10.628-15.726-2.946-13.721-4.855-18.037-3.111-9.685-1.39-10.161,4.093,2.429,6.737,6.827,2.893,6.324,7.729,7.835,12.158,3.758,19.089,16.944,18.369,5.6,22.554,24.82Z" transform="translate(-277.2 -865.491)" fill="#225453"/>
                <path id="Trazado_723000" data-name="Trazado 723000" d="M279.419,876.182c1.909,4.317,3.323,11.479,4.855,18.037s4.734,11.943,10.628,15.725,5.43,5.194,10.835,13.388,16.426,7.848,16.426,7.848l6.887-5.023c-6.539-15.06-20.315-15.45-22.39-21.455a21.81,21.81,0,0,0-11.811-12.544c-4.9-2.275-6.6-2.232-7.459-8.406s-3.336-7.411-5.66-10.4a27.5,27.5,0,0,1-3.7-7.33q-.213.134-.42.271C276.548,867.527,277.7,872.283,279.419,876.182Z" transform="translate(-277.201 -865.97)" fill="#29716e"/>
              </g>
              <g id="Grupo_1008569" data-name="Grupo 1008569" transform="translate(7.252)">
                <path id="Trazado_723001" data-name="Trazado 723001" d="M366.483,725.235s-8.456-8.916-9.129-14.431-.406-8.154-2.388-12.735-3.632-10.538-1.4-11.727,5.481,5.893,10.706,8.293,16.811,4.606,20.634,14.806,8.467,14.614,13.487,16.786,16.024,15.656,15.2,31.7l-11.327,7.984s-11.931-1.4-22.251-15.5S375.623,733.534,366.483,725.235Z" transform="translate(-352.497 -686.209)" fill="#88ba5d"/>
                <path id="Trazado_723002" data-name="Trazado 723002" d="M410.355,762.3c-3.254-7.707-7.517-15.907-14.172-18.4-7.87-2.949-13.784-13.494-18.4-23.971s-9.2-13.91-14.686-17.519c-4.053-2.665-7.927-10.156-9.678-13.894-2.014,1.371-.394,7.161,1.543,11.639,1.982,4.581,1.716,7.221,2.388,12.735s9.129,14.431,9.129,14.431c9.14,8.3,3.213,11.082,13.533,25.182S402.268,768,402.268,768Z" transform="translate(-352.497 -688.291)" fill="#288d8a"/>
              </g>
            </g>
            <g id="Grupo_1008609" data-name="Grupo 1008609" transform="translate(11.597)">
              <ellipse id="Elipse_8717" data-name="Elipse 8717" cx="18.957" cy="1.921" rx="18.957" ry="1.921" transform="translate(16.994 69.765)" fill="#e8d1cf"/>
              <g id="Grupo_1008593" data-name="Grupo 1008593" transform="translate(6.068)">
                <path id="Trazado_723003" data-name="Trazado 723003" d="M497.625,484.944l-16.83,3.89a.8.8,0,0,1-.956-.6l-19.2-83.042a.8.8,0,0,1,.6-.956l16.83-3.89a.8.8,0,0,1,.956.6l19.2,83.042A.8.8,0,0,1,497.625,484.944Z" transform="translate(-460.623 -400.329)" fill="#ccc"/>
                <g id="Grupo_1008571" data-name="Grupo 1008571" transform="translate(13.495 3.523)">
                  <path id="Trazado_723004" data-name="Trazado 723004" d="M602.206,438.58c-.809.187-1.324-.01-1.446-.537-.107-.465.255-.88,1.04-1.069s1.316.058,1.428.541C603.344,438.016,602.963,438.4,602.206,438.58Zm-.335-1.283c-.618.143-.926.414-.858.707.076.329.5.4,1.1.257.586-.135.935-.374.858-.707C602.91,437.272,602.518,437.147,601.871,437.3Z" transform="translate(-600.741 -436.912)" fill="#bcbbbb"/>
                </g>
                <g id="Grupo_1008572" data-name="Grupo 1008572" transform="translate(15.31 11.276)">
                  <path id="Trazado_723005" data-name="Trazado 723005" d="M621.67,517.9l0-.007-.319-.362.231-.119.4.455.063.274-2.378.55-.072-.311Z" transform="translate(-619.592 -517.413)" fill="#bcbbbb"/>
                </g>
                <g id="Grupo_1008573" data-name="Grupo 1008573" transform="translate(16.918 18.756)">
                  <path id="Trazado_723006" data-name="Trazado 723006" d="M636.286,595.522l.2-.046.3.2c.719.474,1.089.677,1.449.6a.435.435,0,0,0,.356-.579.831.831,0,0,0-.318-.458l.2-.155a1.072,1.072,0,0,1,.4.617.687.687,0,0,1-.523.888c-.439.1-.867-.135-1.466-.524l-.22-.15-.007,0,.247,1.068-.267.062Z" transform="translate(-636.286 -595.077)" fill="#bcbbbb"/>
                </g>
                <g id="Grupo_1008574" data-name="Grupo 1008574" transform="translate(18.753 26.419)">
                  <path id="Trazado_723007" data-name="Trazado 723007" d="M655.66,675.073a1.106,1.106,0,0,0-.028.562c.1.413.389.481.585.431.332-.081.406-.414.334-.725l-.042-.179.242-.056.041.179c.054.234.244.5.525.438a.368.368,0,0,0,.262-.5.9.9,0,0,0-.267-.439l.215-.138a1.161,1.161,0,0,1,.327.58.592.592,0,0,1-1.071.5l-.007,0a.636.636,0,0,1-.488.672c-.381.088-.782-.131-.914-.7a1.239,1.239,0,0,1,.018-.656Z" transform="translate(-655.338 -674.645)" fill="#bcbbbb"/>
                </g>
                <g id="Grupo_1008575" data-name="Grupo 1008575" transform="translate(20.687 34.201)">
                  <path id="Trazado_723008" data-name="Trazado 723008" d="M675.419,756.756l.648-.15-.255-1.1.212-.049,1.764.71.08.348-1.478.342.077.333-.252.058-.077-.333-.648.15Zm.9-.208.794-.183q.187-.043.376-.075l0-.011c-.156-.041-.272-.076-.4-.116l-.943-.4-.007,0Z" transform="translate(-675.419 -755.452)" fill="#bcbbbb"/>
                </g>
                <g id="Grupo_1008576" data-name="Grupo 1008576" transform="translate(22.284 41.897)">
                  <path id="Trazado_723009" data-name="Trazado 723009" d="M694.38,836.555l-.21-.907-.632.05a1.3,1.3,0,0,1,.06.191,1.032,1.032,0,0,1-.01.542.7.7,0,0,1-.532.482.847.847,0,0,1-1.017-.7,1.194,1.194,0,0,1,.009-.627l.264.024a1.094,1.094,0,0,0-.014.539.539.539,0,0,0,.646.444c.307-.075.479-.33.369-.806a2.54,2.54,0,0,0-.1-.323l1.177-.11.263,1.138Z" transform="translate(-692.003 -835.355)" fill="#bcbbbb"/>
                </g>
                <g id="Grupo_1008577" data-name="Grupo 1008577" transform="translate(24.116 49.506)">
                  <path id="Trazado_723010" data-name="Trazado 723010" d="M713.373,915.535a1.2,1.2,0,0,0-.07-.238.992.992,0,0,0-1.036-.631l0,.011a.744.744,0,0,1-.2,1.406.816.816,0,0,1-1.021-.6c-.118-.509.2-.933.819-1.076a1.535,1.535,0,0,1,1.165.155,1.329,1.329,0,0,1,.527.68,1.57,1.57,0,0,1,.072.23Zm-1.393.226a.5.5,0,0,0,.432-.616.544.544,0,0,0-.4-.393.282.282,0,0,0-.151,0c-.39.1-.637.344-.56.681A.511.511,0,0,0,711.979,915.761Z" transform="translate(-711.028 -914.362)" fill="#bcbbbb"/>
                </g>
                <g id="Grupo_1008578" data-name="Grupo 1008578" transform="translate(25.805 56.968)">
                  <path id="Trazado_723011" data-name="Trazado 723011" d="M731.262,993.347l-.212.049-2.405-.535-.077-.333,2.342.546.007,0-.269-1.164.267-.062Z" transform="translate(-728.567 -991.847)" fill="#bcbbbb"/>
                </g>
                <g id="Grupo_1008579" data-name="Grupo 1008579" transform="translate(27.641 64.761)">
                  <path id="Trazado_723012" data-name="Trazado 723012" d="M748.12,1072.964a.7.7,0,0,1,.746.325l.01-.006a.6.6,0,0,1,.447-.5.684.684,0,0,1,.8.589.63.63,0,0,1-.426.827.62.62,0,0,1-.647-.263l-.011,0a.677.677,0,0,1-.5.622.752.752,0,0,1-.878-.649A.722.722,0,0,1,748.12,1072.964Zm.311,1.277c.289-.067.382-.3.4-.643a.53.53,0,0,0-.589-.315.451.451,0,0,0-.344.58A.442.442,0,0,0,748.431,1074.242Zm.984-1.16c-.238.055-.324.264-.334.555a.481.481,0,0,0,.516.262.379.379,0,0,0,.295-.492A.388.388,0,0,0,749.416,1073.081Z" transform="translate(-747.631 -1072.766)" fill="#bcbbbb"/>
                </g>
                <g id="Grupo_1008580" data-name="Grupo 1008580" transform="translate(29.31 72.381)">
                  <path id="Trazado_723013" data-name="Trazado 723013" d="M765.22,1152.417a1.37,1.37,0,0,0,.071.257.92.92,0,0,0,.346.444,1.071,1.071,0,0,0,.706.168l0-.011a.716.716,0,0,1-.385-.5.707.707,0,0,1,.566-.871.837.837,0,0,1,1.033.617c.113.487-.213.878-.821,1.018a1.542,1.542,0,0,1-1.211-.152,1.221,1.221,0,0,1-.478-.618,1.55,1.55,0,0,1-.087-.292Zm1.4-.2a.47.47,0,0,0-.4.574.546.546,0,0,0,.357.411.217.217,0,0,0,.124,0c.406-.094.682-.316.6-.652A.525.525,0,0,0,766.616,1152.218Z" transform="translate(-764.957 -1151.881)" fill="#bcbbbb"/>
                </g>
                <g id="Grupo_1008581" data-name="Grupo 1008581" transform="translate(31.017 79.23)">
                  <path id="Trazado_723014" data-name="Trazado 723014" d="M784.764,1223.486l0-.007-.319-.362.231-.119.4.455.063.274-2.378.55-.072-.311Z" transform="translate(-782.686 -1222.998)" fill="#bcbbbb"/>
                  <path id="Trazado_723015" data-name="Trazado 723015" d="M788.178,1243.134c-.809.187-1.324-.01-1.446-.537-.107-.465.255-.88,1.04-1.069s1.316.058,1.428.541C789.316,1242.57,788.935,1242.958,788.178,1243.134Zm-.335-1.283c-.618.143-.926.414-.858.707.076.329.5.4,1.1.257.585-.135.935-.374.858-.707C788.882,1241.826,788.49,1241.7,787.843,1241.851Z" transform="translate(-786.325 -1239.687)" fill="#bcbbbb"/>
                </g>
                <g id="Grupo_1008582" data-name="Grupo 1008582" transform="translate(16.782 3.273)">
                  <rect id="Rectángulo_348342" data-name="Rectángulo 348342" width="2.171" height="0.306" transform="translate(0 0.489) rotate(-13.016)" fill="#bcbbbb"/>
                </g>
                <g id="Grupo_1008583" data-name="Grupo 1008583" transform="translate(18.559 10.961)">
                  <rect id="Rectángulo_348343" data-name="Rectángulo 348343" width="2.171" height="0.306" transform="translate(0 0.489) rotate(-13.016)" fill="#bcbbbb"/>
                </g>
                <g id="Grupo_1008584" data-name="Grupo 1008584" transform="translate(20.336 18.649)">
                  <rect id="Rectángulo_348344" data-name="Rectángulo 348344" width="2.171" height="0.306" transform="translate(0 0.489) rotate(-13.015)" fill="#bcbbbb"/>
                </g>
                <g id="Grupo_1008585" data-name="Grupo 1008585" transform="translate(22.113 26.337)">
                  <rect id="Rectángulo_348345" data-name="Rectángulo 348345" width="2.171" height="0.306" transform="translate(0 0.489) rotate(-13.015)" fill="#bcbbbb"/>
                </g>
                <g id="Grupo_1008586" data-name="Grupo 1008586" transform="translate(23.89 34.025)">
                  <rect id="Rectángulo_348346" data-name="Rectángulo 348346" width="2.171" height="0.306" transform="translate(0 0.489) rotate(-13.015)" fill="#bcbbbb"/>
                </g>
                <g id="Grupo_1008587" data-name="Grupo 1008587" transform="translate(25.667 41.712)">
                  <rect id="Rectángulo_348347" data-name="Rectángulo 348347" width="2.171" height="0.306" transform="translate(0 0.489) rotate(-13.015)" fill="#bcbbbb"/>
                </g>
                <g id="Grupo_1008588" data-name="Grupo 1008588" transform="translate(27.444 49.4)">
                  <rect id="Rectángulo_348348" data-name="Rectángulo 348348" width="2.171" height="0.306" transform="translate(0 0.489) rotate(-13.015)" fill="#bcbbbb"/>
                </g>
                <g id="Grupo_1008589" data-name="Grupo 1008589" transform="translate(29.221 57.088)">
                  <rect id="Rectángulo_348349" data-name="Rectángulo 348349" width="2.171" height="0.306" transform="translate(0 0.489) rotate(-13.015)" fill="#bcbbbb"/>
                </g>
                <g id="Grupo_1008590" data-name="Grupo 1008590" transform="translate(30.998 64.776)">
                  <rect id="Rectángulo_348350" data-name="Rectángulo 348350" width="2.171" height="0.306" transform="translate(0 0.489) rotate(-13.016)" fill="#bcbbbb"/>
                </g>
                <g id="Grupo_1008591" data-name="Grupo 1008591" transform="translate(32.775 72.464)">
                  <rect id="Rectángulo_348351" data-name="Rectángulo 348351" width="2.171" height="0.306" transform="translate(0 0.489) rotate(-13.015)" fill="#bcbbbb"/>
                </g>
                <g id="Grupo_1008592" data-name="Grupo 1008592" transform="translate(34.553 80.152)">
                  <rect id="Rectángulo_348352" data-name="Rectángulo 348352" width="2.171" height="0.306" transform="translate(0 0.489) rotate(-13.015)" fill="#bcbbbb"/>
                </g>
                <path id="Trazado_723016" data-name="Trazado 723016" d="M471.274,416.857l-10.033,2.319a.8.8,0,0,0-.6.956l12.229,52.9C485.829,464.965,473.943,425.208,471.274,416.857Z" transform="translate(-460.623 -415.265)" fill="#d6d6d6"/>
              </g>
              <g id="Grupo_1008607" data-name="Grupo 1008607" transform="translate(0 14.64)">
                <g id="Grupo_1008594" data-name="Grupo 1008594" transform="translate(0 6.935)">
                  <rect id="Rectángulo_348353" data-name="Rectángulo 348353" width="5.344" height="73.483" transform="translate(0.693 8.258) rotate(-23.608)" fill="#ef5656"/>
                  <path id="Trazado_723017" data-name="Trazado 723017" d="M436.242,776.547,406.5,710.739l-1.689-.651,29.429,67.332Z" transform="translate(-404.12 -701.83)" fill="#f46464"/>
                  <path id="Trazado_723018" data-name="Trazado 723018" d="M715.005,1386.4c.1.225-.918.886-2.271,1.477s-2.528.888-2.626.663.918-.886,2.271-1.477S714.907,1386.175,715.005,1386.4Z" transform="translate(-680.007 -1312.939)" fill="#e85b5b"/>
                  <path id="Trazado_723019" data-name="Trazado 723019" d="M397.617,624.343l.693,8.258,1.406.623a.481.481,0,0,0,.662-.327l.2-.813a.481.481,0,0,1,.71-.3l.7.407a.481.481,0,0,0,.695-.252l.532-1.475Z" transform="translate(-397.617 -624.343)" fill="#ffc3aa"/>
                  <path id="Trazado_723020" data-name="Trazado 723020" d="M399.716,633.224a.476.476,0,0,0,.284.032l0,0-2.382-8.909.693,8.258Z" transform="translate(-397.617 -624.343)" fill="#ffcab8"/>
                  <path id="Trazado_723021" data-name="Trazado 723021" d="M397.909,627.827a5.034,5.034,0,0,0,2.059-.911l-2.351-2.573Z" transform="translate(-397.617 -624.343)" fill="#2d2d2d"/>
                  <path id="Trazado_723022" data-name="Trazado 723022" d="M398.508,627.674l-.891-3.331.292,3.484A4.34,4.34,0,0,0,398.508,627.674Z" transform="translate(-397.617 -624.343)" fill="#353535"/>
                </g>
                <g id="Grupo_1008597" data-name="Grupo 1008597" transform="translate(10.545 1.273)">
                  <rect id="Rectángulo_348354" data-name="Rectángulo 348354" width="5.344" height="73.483" transform="translate(0 8.284) rotate(-17.404)" fill="#2f353f"/>
                  <path id="Trazado_723023" data-name="Trazado 723023" d="M529.094,721.7l2.042-.64-22.183-68.681-1.839-.8Z" transform="translate(-507.114 -643.293)" fill="#353f4c"/>
                  <g id="Grupo_1008595" data-name="Grupo 1008595">
                    <path id="Trazado_723024" data-name="Trazado 723024" d="M507.317,565.557l-.2,8.285,1.331.771a.481.481,0,0,0,.693-.254l.282-.787a.481.481,0,0,1,.739-.224l.649.48a.481.481,0,0,0,.718-.176l.688-1.409Z" transform="translate(-507.114 -565.557)" fill="#ffc3aa"/>
                    <path id="Trazado_723025" data-name="Trazado 723025" d="M508.445,574.612a.48.48,0,0,0,.5-.012l-1.629-9.043-.2,8.285Z" transform="translate(-507.114 -565.557)" fill="#ffcab8"/>
                  </g>
                  <ellipse id="Elipse_8718" data-name="Elipse 8718" cx="2.672" cy="0.444" rx="2.672" ry="0.444" transform="translate(21.826 77.987) rotate(-17.404)" fill="#2d2d2d"/>
                  <g id="Grupo_1008596" data-name="Grupo 1008596" transform="translate(0.118)">
                    <path id="Trazado_723026" data-name="Trazado 723026" d="M508.335,569.052a5.033,5.033,0,0,0,2.145-.683l-2.059-2.812Z" transform="translate(-508.335 -565.557)" fill="#2d2d2d"/>
                    <path id="Trazado_723027" data-name="Trazado 723027" d="M509.031,568.946l-.61-3.389-.086,3.5A4.429,4.429,0,0,0,509.031,568.946Z" transform="translate(-508.335 -565.557)" fill="#353535"/>
                  </g>
                </g>
                <g id="Grupo_1008598" data-name="Grupo 1008598" transform="translate(34.8 2.294)">
                  <rect id="Rectángulo_348355" data-name="Rectángulo 348355" width="73.483" height="5.344" transform="translate(0.023 81.075) rotate(-86.992)" fill="#68b9e4"/>
                  <path id="Trazado_723028" data-name="Trazado 723028" d="M759.19,729.422l1.95.1,3.623-72.293-1.717-1.191Z" transform="translate(-759.168 -648.347)" fill="#71c5ea"/>
                  <path id="Trazado_723029" data-name="Trazado 723029" d="M764.291,1415.213c-.013.245-1.218.381-2.692.3s-2.658-.339-2.645-.584,1.218-.381,2.692-.3S764.3,1414.968,764.291,1415.213Z" transform="translate(-758.954 -1333.857)" fill="#68b9e4"/>
                  <path id="Trazado_723030" data-name="Trazado 723030" d="M802.31,576.158l-3.08,7.693.978,1.187a.481.481,0,0,0,.739,0l.539-.639a.481.481,0,0,1,.77.048l.44.676a.481.481,0,0,0,.734.086l1.136-1.081Z" transform="translate(-795.351 -576.158)" fill="#ffc3aa"/>
                  <path id="Trazado_723031" data-name="Trazado 723031" d="M799.23,583.851l.978,1.187a.481.481,0,0,0,.739,0l1.363-8.884Z" transform="translate(-795.351 -576.158)" fill="#ffcab8"/>
                  <path id="Trazado_723032" data-name="Trazado 723032" d="M817.719,579.4a4.761,4.761,0,0,0,1.1.18,4.712,4.712,0,0,0,1.152-.072l-.949-3.354Z" transform="translate(-812.059 -576.158)" fill="#2d2d2d"/>
                  <path id="Trazado_723033" data-name="Trazado 723033" d="M817.719,579.4a4.487,4.487,0,0,0,.778.154l.522-3.4Z" transform="translate(-812.059 -576.158)" fill="#353535"/>
                </g>
                <g id="Grupo_1008603" data-name="Grupo 1008603" transform="translate(17.747 0)">
                  <g id="Grupo_1008599" data-name="Grupo 1008599" transform="translate(5.285 18.302)">
                    <path id="Trazado_723034" data-name="Trazado 723034" d="M658.6,790.242l-11.481-47.869-10.354,2.482,11.445,47.872c.084.352,2.473.082,5.335-.6S658.68,790.595,658.6,790.242Z" transform="translate(-636.761 -742.373)" fill="#351234"/>
                    <path id="Trazado_723035" data-name="Trazado 723035" d="M654.43,817.462a38.327,38.327,0,0,1-4.889.366l6.7,28.02c6.872-3.859,3.48-19.526,1.7-26.1A3.143,3.143,0,0,0,654.43,817.462Z" transform="translate(-648.31 -810.198)" fill="#3d163d"/>
                  </g>
                  <g id="Grupo_1008602" data-name="Grupo 1008602">
                    <g id="Grupo_1008600" data-name="Grupo 1008600" transform="translate(12.255 2.664)">
                      <rect id="Rectángulo_348356" data-name="Rectángulo 348356" width="2.95" height="0.807" transform="translate(0 0.688) rotate(-13.481)" fill="#351234"/>
                      <rect id="Rectángulo_348357" data-name="Rectángulo 348357" width="2.95" height="0.807" transform="translate(3.575 15.602) rotate(-13.481)" fill="#351234"/>
                    </g>
                    <g id="Grupo_1008601" data-name="Grupo 1008601">
                      <path id="Trazado_723036" data-name="Trazado 723036" d="M600.989,580.708l-4.86-20.3-12.245,2.936,4.86,20.3c.1.431,2.928.123,6.31-.688s6.039-1.817,5.936-2.248Z" transform="translate(-583.692 -559.632)" fill="#4f2a4f"/>
                      <path id="Trazado_723037" data-name="Trazado 723037" d="M587.733,591.62c6.9-2.924,4.424-13.239,2.972-17.71l-6.821,1.635Z" transform="translate(-583.692 -571.832)" fill="#582f59"/>
                      <ellipse id="Elipse_8719" data-name="Elipse 8719" cx="6.296" cy="0.802" rx="6.296" ry="0.802" transform="translate(0 2.935) rotate(-13.481)" fill="#5a325b"/>
                    </g>
                    <path id="Trazado_723038" data-name="Trazado 723038" d="M735.651,573.729a1.128,1.128,0,0,1-1.36-.834l-4.34-18.1a1.128,1.128,0,1,1,2.194-.526l4.339,18.1A1.128,1.128,0,0,1,735.651,573.729Z" transform="translate(-715.664 -553.299)" fill="#4f2a4f"/>
                  </g>
                </g>
                <g id="Grupo_1008604" data-name="Grupo 1008604" transform="translate(40.057 7.571)">
                  <rect id="Rectángulo_348358" data-name="Rectángulo 348358" width="73.483" height="5.344" transform="matrix(0.088, -0.996, 0.996, 0.088, 0.023, 80.78)" fill="#ef5656"/>
                  <path id="Trazado_723039" data-name="Trazado 723039" d="M821.5,710.994l-1.284-1.341-6.439,73.2,1.592.14Z" transform="translate(-813.757 -702.073)" fill="#f46464"/>
                  <path id="Trazado_723040" data-name="Trazado 723040" d="M818.866,1467.67c-.022.244-1.231.338-2.7.208s-2.644-.432-2.623-.677,1.231-.338,2.7-.208S818.887,1467.426,818.866,1467.67Z" transform="translate(-813.542 -1386.422)" fill="#ef5656"/>
                  <path id="Trazado_723041" data-name="Trazado 723041" d="M883.989,630.947l-3.349,7.58.936,1.22a.481.481,0,0,0,.738.03l.561-.62a.481.481,0,0,1,.768.075l.416.691a.481.481,0,0,0,.731.112l1.174-1.04Z" transform="translate(-874.178 -630.947)" fill="#ffc3aa"/>
                  <path id="Trazado_723042" data-name="Trazado 723042" d="M883.989,630.947l-3.349,7.58.936,1.22a.478.478,0,0,0,.342.186l.006-.066,2.065-8.921Z" transform="translate(-874.178 -630.947)" fill="#ffcab8"/>
                  <path id="Trazado_723043" data-name="Trazado 723043" d="M900.745,634.145a4.762,4.762,0,0,0,1.09.219,4.7,4.7,0,0,0,1.154-.032l-.831-3.385Z" transform="translate(-892.347 -630.947)" fill="#2d2d2d"/>
                  <path id="Trazado_723044" data-name="Trazado 723044" d="M902.158,630.947l-1.413,3.2a4.364,4.364,0,0,0,.636.159l.777-3.357Z" transform="translate(-892.347 -630.947)" fill="#353535"/>
                </g>
                <g id="Grupo_1008606" data-name="Grupo 1008606" transform="translate(33.403 14.35)">
                  <path id="Trazado_723045" data-name="Trazado 723045" d="M750.827,778.416l-5-1.877,25.815-68.8,5.258-6.406-.254,8.283Z" transform="translate(-745.692 -701.334)" fill="#68b9e4"/>
                  <g id="Grupo_1008605" data-name="Grupo 1008605" transform="translate(0 75.005)">
                    <path id="Trazado_723046" data-name="Trazado 723046" d="M750.557,1483.186c-.086.23-1.276,0-2.658-.523s-2.432-1.125-2.346-1.354,1.276,0,2.658.523S750.643,1482.956,750.557,1483.186Z" transform="translate(-745.443 -1481.116)" fill="#fff"/>
                    <path id="Trazado_723047" data-name="Trazado 723047" d="M749.292,1482.4a3.155,3.155,0,0,1-.586-.072,13.88,13.88,0,0,1-3.57-1.339c-.676-.391-.712-.577-.668-.7s.194-.235.96-.085a13.892,13.892,0,0,1,3.57,1.34c.677.391.712.577.668.7C749.637,1482.323,749.561,1482.4,749.292,1482.4Zm-4.626-2.032a9.827,9.827,0,1,0,2.52.582A5.92,5.92,0,0,0,744.667,1480.369Z" transform="translate(-744.455 -1480.138)" fill="#1d1d1b"/>
                  </g>
                  <path id="Trazado_723048" data-name="Trazado 723048" d="M1019.124,701.334l-5.258,6.406.575,1.427a.481.481,0,0,0,.7.227l.707-.447a.481.481,0,0,1,.72.278l.216.778a.481.481,0,0,0,.674.3l1.409-.688Z" transform="translate(-987.919 -701.334)" fill="#ffc3aa"/>
                  <path id="Trazado_723049" data-name="Trazado 723049" d="M1045.426,704.036a5.032,5.032,0,0,0,2.111.781l.107-3.484Z" transform="translate(-1016.44 -701.334)" fill="#2d2d2d"/>
                </g>
              </g>
              <g id="Grupo_1008608" data-name="Grupo 1008608" transform="translate(16.994 71.686)">
                <path id="Trazado_723050" data-name="Trazado 723050" d="M611.988,1144.664c0,1.061-8.487,1.921-18.957,1.921s-18.957-.86-18.957-1.921v23.8a11.618,11.618,0,0,0,4.374,9.083,6.954,6.954,0,0,1,2.447,3.9A3.265,3.265,0,0,0,584.08,1184h17.9a3.265,3.265,0,0,0,3.185-2.546,6.954,6.954,0,0,1,2.447-3.9,11.618,11.618,0,0,0,4.374-9.083v-23.8Z" transform="translate(-574.074 -1144.664)" fill="#efe1df"/>
                <path id="Trazado_723051" data-name="Trazado 723051" d="M640.181,1513.033a3.265,3.265,0,0,0,3.185,2.546h17.9a3.266,3.266,0,0,0,3.185-2.546,6.95,6.95,0,0,1,.5-1.451c-3.354.3-7.783.489-12.639.489s-9.285-.185-12.639-.489a6.964,6.964,0,0,1,.5,1.451Z" transform="translate(-633.361 -1476.245)" fill="#e8d1cf"/>
                <path id="Trazado_723052" data-name="Trazado 723052" d="M574.074,1144.665v23.8a11.611,11.611,0,0,0,.754,4.117c19.023,2.511,19.368-19.279,19.029-26l-.826,0C582.561,1146.586,574.074,1145.726,574.074,1144.665Z" transform="translate(-574.074 -1144.665)" fill="#f2e8e7"/>
              </g>
            </g>
          </g>
        </g>
      </g>
      <g id="Grupo_1008671" data-name="Grupo 1008671" transform="translate(314.68 320.189)">
        <g id="Grupo_1008639" data-name="Grupo 1008639" transform="translate(11.32 0)">
          <g id="Grupo_1008637" data-name="Grupo 1008637" transform="translate(17.798 5.395)">
            <g id="Grupo_1008613" data-name="Grupo 1008613">
              <rect id="Rectángulo_348359" data-name="Rectángulo 348359" width="100.163" height="72.169" fill="#ede8db"/>
              <rect id="Rectángulo_348360" data-name="Rectángulo 348360" width="5.635" height="72.169" fill="#eae2d0"/>
              <rect id="Rectángulo_348361" data-name="Rectángulo 348361" width="5.635" height="72.169" transform="translate(94.528)" fill="#eae2d0"/>
            </g>
            <g id="Grupo_1008636" data-name="Grupo 1008636" transform="translate(9.062 9.548)">
              <g id="Grupo_1008634" data-name="Grupo 1008634">
                <rect id="Rectángulo_348362" data-name="Rectángulo 348362" width="56.646" height="10.878" transform="translate(6.672 41.918)" fill="#edd4c3"/>
                <path id="Trazado_723053" data-name="Trazado 723053" d="M1105.183,918.089h1.142V897.426H1062.8V939.9h6.672V938.9h35.714Z" transform="translate(-1062.796 -896.979)" fill="#edd4c3"/>
                <rect id="Rectángulo_348363" data-name="Rectángulo 348363" width="41.245" height="40.386" transform="translate(1.142 1.532)" fill="#ede8db"/>
                <path id="Trazado_723054" data-name="Trazado 723054" d="M1190.07,1313.477h6.568v8.867H1141.88v-8.867h42l-2.234-1.641,8.094-1.024Z" transform="translate(-1134.264 -1270.553)" fill="#ede8db"/>
                <path id="Trazado_723055" data-name="Trazado 723055" d="M1251.66,1324.792l-1.375-1.095,7.469-.364v2.844Z" transform="translate(-1232.228 -1281.868)" fill="#ede8db"/>
                <path id="Trazado_723056" data-name="Trazado 723056" d="M1502.908,1119.024v-7.052h29.95v28.362h-.94l-8.426.008v-21.318Z" transform="translate(-1460.521 -1090.863)" fill="#edd4c3"/>
                <path id="Trazado_723057" data-name="Trazado 723057" d="M1523.84,1262.6v-7.553h-20.932v-6.222l1.076-1.557,20.817,1.557v12.239Z" transform="translate(-1460.521 -1213.13)" fill="#edd4c3"/>
                <path id="Trazado_723058" data-name="Trazado 723058" d="M1501.228,1123.72v5.795l-1.442.077.156,7.741,1.286-1.758v7.822h19.79v7.553h7.958v-27.23Z" transform="translate(-1457.7 -1101.48)" fill="#ede8db"/>
                <rect id="Rectángulo_348364" data-name="Rectángulo 348364" width="15.026" height="1.942" transform="translate(70.847 42.354) rotate(-90)" fill="#edd4c3"/>
                <rect id="Rectángulo_348365" data-name="Rectángulo 348365" width="15.026" height="1.942" transform="translate(14.251)" fill="#edd4c3"/>
                <g id="Grupo_1008614" data-name="Grupo 1008614" transform="translate(14.261 0.823)">
                  <rect id="Rectángulo_348366" data-name="Rectángulo 348366" width="15.034" height="0.297" fill="#e5c0a8"/>
                </g>
                <g id="Grupo_1008615" data-name="Grupo 1008615" transform="translate(71.67 27.352)">
                  <rect id="Rectángulo_348367" data-name="Rectángulo 348367" width="0.297" height="15.025" fill="#e5c0a8"/>
                </g>
                <g id="Grupo_1008618" data-name="Grupo 1008618" transform="translate(19.978 51.332)">
                  <rect id="Rectángulo_348368" data-name="Rectángulo 348368" width="15.026" height="1.942" transform="translate(30.028 1.942) rotate(180)" fill="#edd4c3"/>
                  <g id="Grupo_1008616" data-name="Grupo 1008616" transform="translate(15.027 0.823)">
                    <rect id="Rectángulo_348369" data-name="Rectángulo 348369" width="15.025" height="0.297" fill="#e5c0a8"/>
                  </g>
                  <rect id="Rectángulo_348370" data-name="Rectángulo 348370" width="15.026" height="1.942" transform="translate(15.026 1.942) rotate(180)" fill="#edd4c3"/>
                  <g id="Grupo_1008617" data-name="Grupo 1008617" transform="translate(0.001 0.823)">
                    <rect id="Rectángulo_348371" data-name="Rectángulo 348371" width="15.025" height="0.297" fill="#e5c0a8"/>
                  </g>
                </g>
                <g id="Grupo_1008622" data-name="Grupo 1008622" transform="translate(63.19 49.315)">
                  <g id="Grupo_1008619" data-name="Grupo 1008619">
                    <path id="Trazado_723059" data-name="Trazado 723059" d="M1719.515,1405.156h-.445a.156.156,0,1,1,0-.312h.445a.156.156,0,0,1,0,.312Z" transform="translate(-1718.914 -1404.844)" fill="#edd4c3"/>
                  </g>
                  <g id="Grupo_1008620" data-name="Grupo 1008620" transform="translate(1.241)">
                    <path id="Trazado_723060" data-name="Trazado 723060" d="M1737.524,1405.156h-.8a.156.156,0,0,1,0-.312h.8a.156.156,0,0,1,0,.312Zm-1.592,0h-.8a.156.156,0,1,1,0-.312h.8a.156.156,0,1,1,0,.312Zm-1.592,0h-.8a.156.156,0,0,1,0-.312h.8a.156.156,0,0,1,0,.312Zm-1.591,0h-.8a.156.156,0,0,1,0-.312h.8a.156.156,0,0,1,0,.312Z" transform="translate(-1731.798 -1404.844)" fill="#edd4c3"/>
                  </g>
                  <g id="Grupo_1008621" data-name="Grupo 1008621" transform="translate(7.607)">
                    <path id="Trazado_723061" data-name="Trazado 723061" d="M1798.5,1405.156h-.445a.156.156,0,1,1,0-.312h.445a.156.156,0,1,1,0,.312Z" transform="translate(-1797.898 -1404.844)" fill="#edd4c3"/>
                  </g>
                </g>
                <g id="Grupo_1008623" data-name="Grupo 1008623" transform="translate(70.473 48.398)">
                  <path id="Trazado_723062" data-name="Trazado 723062" d="M1794.693,1400.57a.156.156,0,0,1-.1-.274c.017-.016,1.138-1.057.6-4.8a.156.156,0,1,1,.308-.045c.573,3.952-.65,5.034-.7,5.078A.155.155,0,0,1,1794.693,1400.57Z" transform="translate(-1794.537 -1395.322)" fill="#706f6f"/>
                </g>
                <g id="Grupo_1008624" data-name="Grupo 1008624" transform="translate(63.163 49.315)">
                  <path id="Trazado_723063" data-name="Trazado 723063" d="M1726.1,1409.174a.153.153,0,0,1-.074-.019l-7.313-4.019a.156.156,0,0,1,.149-.274l7.313,4.019a.156.156,0,0,1-.075.292Z" transform="translate(-1718.634 -1404.844)" fill="#edd4c3"/>
                </g>
                <g id="Grupo_1008625" data-name="Grupo 1008625" transform="translate(19.215 42.775)">
                  <path id="Trazado_723064" data-name="Trazado 723064" d="M1268.7,1337.238h-.89a.148.148,0,1,1,0-.3h.89a.148.148,0,1,1,0,.3Zm-1.78,0h-.89a.148.148,0,0,1,0-.3h.89a.148.148,0,1,1,0,.3Zm-1.78,0h-.89a.148.148,0,1,1,0-.3h.89a.148.148,0,1,1,0,.3Zm-1.78,0h-.89a.148.148,0,0,1,0-.3h.89a.148.148,0,1,1,0,.3Z" transform="translate(-1262.316 -1336.941)" fill="#edd4c3"/>
                </g>
                <g id="Grupo_1008626" data-name="Grupo 1008626" transform="translate(49.467 42.775)">
                  <path id="Trazado_723065" data-name="Trazado 723065" d="M1582.809,1337.238h-.89a.148.148,0,1,1,0-.3h.89a.148.148,0,1,1,0,.3Zm-1.78,0h-.89a.148.148,0,1,1,0-.3h.89a.148.148,0,1,1,0,.3Zm-1.78,0h-.89a.148.148,0,1,1,0-.3h.89a.148.148,0,0,1,0,.3Zm-1.781,0h-.89a.148.148,0,1,1,0-.3h.89a.148.148,0,1,1,0,.3Z" transform="translate(-1576.43 -1336.941)" fill="#edd4c3"/>
                </g>
                <g id="Grupo_1008627" data-name="Grupo 1008627" transform="translate(24.231 41.862)">
                  <path id="Trazado_723066" data-name="Trazado 723066" d="M1314.544,1332.333a.148.148,0,0,1-.091-.266,3.124,3.124,0,0,0,.756-1.033,5.621,5.621,0,0,0,.373-3.4.148.148,0,0,1,.293-.048,5.9,5.9,0,0,1-.407,3.6,3.324,3.324,0,0,1-.833,1.12A.147.147,0,0,1,1314.544,1332.333Z" transform="translate(-1314.395 -1327.458)" fill="#706f6f"/>
                </g>
                <g id="Grupo_1008628" data-name="Grupo 1008628" transform="translate(54.51 41.771)">
                  <path id="Trazado_723067" data-name="Trazado 723067" d="M1628.944,1331.35a.149.149,0,0,1-.093-.264,2.96,2.96,0,0,0,.7-1.013,5.825,5.825,0,0,0,.321-3.387.148.148,0,1,1,.293-.047,6.1,6.1,0,0,1-.353,3.577,3.16,3.16,0,0,1-.779,1.1A.148.148,0,0,1,1628.944,1331.35Z" transform="translate(-1628.795 -1326.513)" fill="#706f6f"/>
                </g>
                <g id="Grupo_1008629" data-name="Grupo 1008629" transform="translate(43.38 27.887)">
                  <path id="Trazado_723068" data-name="Trazado 723068" d="M1513.369,1188.706a.149.149,0,0,1-.148-.149v-.719a.148.148,0,0,1,.3,0v.719A.148.148,0,0,1,1513.369,1188.706Zm0-1.609a.149.149,0,0,1-.148-.148v-.89a.148.148,0,0,1,.3,0v.89A.148.148,0,0,1,1513.369,1187.1Zm0-1.78a.148.148,0,0,1-.148-.148v-.89a.148.148,0,0,1,.3,0v.89A.148.148,0,0,1,1513.369,1185.316Zm0-1.78a.149.149,0,0,1-.148-.148v-.89a.148.148,0,0,1,.3,0v.89A.148.148,0,0,1,1513.369,1183.536Z" transform="translate(-1513.221 -1182.349)" fill="#edd4c3"/>
                </g>
                <g id="Grupo_1008630" data-name="Grupo 1008630" transform="translate(42.326 27.876)">
                  <path id="Trazado_723069" data-name="Trazado 723069" d="M1506.931,1183.714a.155.155,0,0,1-.123-.06,2.829,2.829,0,0,0-.988-.691,5.782,5.782,0,0,0-3.359-.31.156.156,0,0,1-.05-.308,6.067,6.067,0,0,1,3.559.344,3.043,3.043,0,0,1,1.083.773.156.156,0,0,1-.123.252Z" transform="translate(-1502.281 -1182.237)" fill="#706f6f"/>
                </g>
                <g id="Grupo_1008631" data-name="Grupo 1008631" transform="translate(18.083 41.907)">
                  <path id="Trazado_723070" data-name="Trazado 723070" d="M1256.851,1332.757a.155.155,0,0,1-.092-.03l-6.141-4.527a.156.156,0,0,1,.185-.251l6.141,4.527a.156.156,0,0,1-.093.281Z" transform="translate(-1250.555 -1327.918)" fill="#edd4c3"/>
                </g>
                <g id="Grupo_1008632" data-name="Grupo 1008632" transform="translate(42.371 29.048)">
                  <path id="Trazado_723071" data-name="Trazado 723071" d="M1502.9,1201.163a.156.156,0,0,1-.127-.246l4.463-6.443a.156.156,0,1,1,.255.18l-4.463,6.443A.156.156,0,0,1,1502.9,1201.163Z" transform="translate(-1502.746 -1194.408)" fill="#edd4c3"/>
                </g>
                <g id="Grupo_1008633" data-name="Grupo 1008633" transform="translate(48.035 41.917)">
                  <path id="Trazado_723072" data-name="Trazado 723072" d="M1568.181,1332.746a.155.155,0,0,1-.09-.028l-6.461-4.409a.156.156,0,1,1,.18-.255l6.461,4.409a.156.156,0,0,1-.09.283Z" transform="translate(-1561.564 -1328.026)" fill="#edd4c3"/>
                </g>
              </g>
              <g id="Grupo_1008635" data-name="Grupo 1008635" transform="translate(49.777 0.469)">
                <rect id="Rectángulo_348372" data-name="Rectángulo 348372" width="35.39" height="4.532" fill="#edd4c3"/>
                <rect id="Rectángulo_348373" data-name="Rectángulo 348373" width="11.006" height="2.05" transform="translate(0 6.582)" fill="#edd4c3"/>
                <rect id="Rectángulo_348374" data-name="Rectángulo 348374" width="28.16" height="2.05" transform="translate(0 10.466)" fill="#edd4c3"/>
                <rect id="Rectángulo_348375" data-name="Rectángulo 348375" width="5.045" height="2.05" transform="translate(30.345 10.466)" fill="#edd4c3"/>
                <rect id="Rectángulo_348376" data-name="Rectángulo 348376" width="22.119" height="2.05" transform="translate(13.271 6.582)" fill="#edd4c3"/>
              </g>
            </g>
          </g>
          <g id="Grupo_1008638" data-name="Grupo 1008638" transform="translate(0)">
            <path id="Rectángulo_348377" data-name="Rectángulo 348377" d="M8.9,0h0a8.9,8.9,0,0,1,8.9,8.9V74.059a8.9,8.9,0,0,1-8.9,8.9h0a8.9,8.9,0,0,1-8.9-8.9V8.9A8.9,8.9,0,0,1,8.9,0Z" transform="translate(135.76 82.959) rotate(180)" fill="#ede8db"/>
            <path id="Rectángulo_348378" data-name="Rectángulo 348378" d="M8.9,0h0a8.9,8.9,0,0,1,8.9,8.9V74.059a8.9,8.9,0,0,1-8.9,8.9h0a8.9,8.9,0,0,1-8.9-8.9V8.9A8.9,8.9,0,0,1,8.9,0Z" transform="translate(17.8 82.959) rotate(180)" fill="#ede8db"/>
          </g>
        </g>
        <g id="Grupo_1008652" data-name="Grupo 1008652" transform="translate(0 36.128)">
          <path id="Trazado_723073" data-name="Trazado 723073" d="M742.954,1604.416l22.34-5.722L775.6,1605.2l-20.749,5.406-1.971.182Z" transform="translate(-735.577 -1551.895)" fill="#eaeaea"/>
          <g id="Grupo_1008651" data-name="Grupo 1008651">
            <g id="Grupo_1008643" data-name="Grupo 1008643" transform="translate(6.439 43.375)">
              <g id="Grupo_1008640" data-name="Grupo 1008640" transform="translate(9.2 4.587)">
                <path id="Trazado_723074" data-name="Trazado 723074" d="M828.751,1610.767l.607,9.871,1.056,1.064,1.971-.182,1.405-10.58Z" transform="translate(-828.751 -1610.767)" fill="#89563d"/>
                <path id="Trazado_723075" data-name="Trazado 723075" d="M830.682,1611.011l-1.931-.245.607,9.871,1.056,1.064Z" transform="translate(-828.751 -1610.767)" fill="#7f4934"/>
              </g>
              <g id="Grupo_1008641" data-name="Grupo 1008641" transform="translate(29.847)">
                <path id="Trazado_723076" data-name="Trazado 723076" d="M1043.132,1563.135l.6,9.711.832.847,2.3-.626,1.3-9.761Z" transform="translate(-1043.132 -1563.135)" fill="#89563d"/>
                <path id="Trazado_723077" data-name="Trazado 723077" d="M1045.063,1563.379l-1.931-.244.6,9.711.832.847Z" transform="translate(-1043.132 -1563.135)" fill="#7f4934"/>
              </g>
              <g id="Grupo_1008642" data-name="Grupo 1008642" transform="translate(0 0.169)">
                <path id="Trazado_723078" data-name="Trazado 723078" d="M733.22,1564.894l.937,8.977,1.379.9.487-8.172Z" transform="translate(-733.22 -1564.894)" fill="#7f4934"/>
                <path id="Trazado_723079" data-name="Trazado 723079" d="M757.275,1590.818l1.435-.33,1.374-7.47-2.322-.372Z" transform="translate(-754.958 -1580.936)" fill="#89563d"/>
              </g>
            </g>
            <g id="Grupo_1008650" data-name="Grupo 1008650">
              <path id="Trazado_723080" data-name="Trazado 723080" d="M934.16,1355.073s-3.6-3.081-16.27-3.442L917.1,1360l16.253,3.617Z" transform="translate(-892.951 -1328.626)" fill="#edba57"/>
              <g id="Grupo_1008644" data-name="Grupo 1008644">
                <path id="Trazado_723081" data-name="Trazado 723081" d="M671.415,1145.459s-1.947-11.985-3.671-18.688-2.393-9.275,1.392-11.5,17.03-3.181,19.96-1.991,3.274,12.02,3.384,15.681.707,11.017,1.182,12.431Z" transform="translate(-666.365 -1112.761)" fill="#edd670"/>
                <path id="Trazado_723082" data-name="Trazado 723082" d="M667.957,1147.376c-2.428,2.081-1.728,4.781-.212,10.676,1.724,6.7,3.671,18.688,3.671,18.688l.018,0a89.144,89.144,0,0,0-2.918-24.552A11.118,11.118,0,0,1,667.957,1147.376Z" transform="translate(-666.366 -1144.042)" fill="#edc05e"/>
              </g>
              <g id="Grupo_1008649" data-name="Grupo 1008649" transform="translate(2.627 26.201)">
                <g id="Grupo_1008646" data-name="Grupo 1008646" transform="translate(2.423 1.609)">
                  <g id="Grupo_1008645" data-name="Grupo 1008645" transform="translate(0 4.889)">
                    <path id="Trazado_723083" data-name="Trazado 723083" d="M718.8,1452.275l.18,10.966s2.6,3.592,11.219,5.724c1.846.363,18.476-2.5,23.888-4.816a2.057,2.057,0,0,0,1.225-1.578,36.568,36.568,0,0,0,.349-9.853Z" transform="translate(-718.798 -1452.275)" fill="#edc05e"/>
                    <path id="Trazado_723084" data-name="Trazado 723084" d="M836.966,1535.551c.015.729,0,1.453-.024,2.176s-.053,1.443-.087,2.164-.068,1.44-.1,2.161-.064,1.44-.106,2.169q-.054-.268-.1-.539l-.022-.135-.017-.135-.032-.271-.029-.272c-.009-.091-.014-.181-.021-.272s-.013-.182-.018-.272-.013-.182-.015-.273c-.031-.727-.026-1.455.007-2.181s.1-1.45.185-2.171c.023-.18.046-.36.073-.54s.054-.359.085-.538.064-.358.1-.536S836.922,1535.728,836.966,1535.551Z" transform="translate(-825.052 -1527.531)" fill="#eeac5c"/>
                  </g>
                  <path id="Trazado_723085" data-name="Trazado 723085" d="M730.712,1414.421s18.565.944,23.761-5.763c0,0-3.38-6.605-14.079-7.11s-21.147,4.388-21.6,4.853C718.8,1406.4,724.781,1412.288,730.712,1414.421Z" transform="translate(-718.798 -1401.512)" fill="#edcd68"/>
                </g>
                <g id="Grupo_1008647" data-name="Grupo 1008647" transform="translate(35.165 0)">
                  <ellipse id="Elipse_8720" data-name="Elipse 8720" cx="4.29" cy="2.621" rx="4.29" ry="2.621" transform="translate(0 8.541) rotate(-84.6)" fill="#edc05e"/>
                  <ellipse id="Elipse_8721" data-name="Elipse 8721" cx="2.199" cy="1.343" rx="2.199" ry="1.343" transform="matrix(0.094, -0.996, 0.996, 0.094, 1.861, 6.448)" fill="#edba57"/>
                </g>
                <g id="Grupo_1008648" data-name="Grupo 1008648" transform="translate(0 0.014)">
                  <path id="Trazado_723086" data-name="Trazado 723086" d="M696.12,1384.957s-2.818.849-2.444,4.939,11.321,10.526,16.7,9.678l1.754-8.271S709.224,1386.761,696.12,1384.957Z" transform="translate(-693.643 -1384.957)" fill="#edba57"/>
                  <ellipse id="Elipse_8722" data-name="Elipse 8722" cx="4.29" cy="3.043" rx="4.29" ry="3.043" transform="matrix(0.094, -0.996, 0.996, 0.094, 13.704, 14.331)" fill="#edc05e"/>
                  <path id="Trazado_723087" data-name="Trazado 723087" d="M863.841,1469.353c-.131,1.384-.858,2.448-1.623,2.375s-1.28-1.253-1.149-2.637.858-2.448,1.623-2.375S863.972,1467.969,863.841,1469.353Z" transform="translate(-844.926 -1458.838)" fill="#edba57"/>
                </g>
              </g>
            </g>
          </g>
        </g>
        <g id="Grupo_1008670" data-name="Grupo 1008670" transform="translate(81.324 8.925)">
          <ellipse id="Elipse_8723" data-name="Elipse 8723" cx="19.563" cy="3.542" rx="19.563" ry="3.542" transform="translate(9.565 75.484)" fill="#eaeaea"/>
          <g id="Grupo_1008669" data-name="Grupo 1008669">
            <g id="Grupo_1008655" data-name="Grupo 1008655" transform="translate(17.813 28.563)">
              <g id="Grupo_1008653" data-name="Grupo 1008653" transform="translate(4.181 3.33)">
                <g id="shoe_R" data-name="shoe R" transform="translate(7.789 34.79)">
                  <path id="Trazado_723088" data-name="Trazado 723088" d="M1820.074,1574.634s-.086.289.4.175,4.433-1.9,4.935-2.512,1.573-3.033,1.7-3.05.452,1.329.452,1.329l.307-.1a8.919,8.919,0,0,1-.193-1.417c.039-.273.027-1.075-.182-1.264S1820.074,1574.634,1820.074,1574.634Z" transform="translate(-1820.064 -1563.443)" fill="#754444"/>
                  <path id="Trazado_723089" data-name="Trazado 723089" d="M1837.454,1524c.147.049,1.256,3.1.962,3.691a17.792,17.792,0,0,1-2.454,4.351c-.476.477-.074.511.555.268a6.99,6.99,0,0,0,1.132-.585,13.193,13.193,0,0,0,3.7-3.789c.262-.37.525-1.215.126-1.431a2.064,2.064,0,0,1-1.037-1.038c-.654-1.257-.8-2.827-.948-2.778S1837.454,1524,1837.454,1524Z" transform="translate(-1834.238 -1522.688)" fill="#ffcac5"/>
                  <path id="Trazado_723090" data-name="Trazado 723090" d="M1823.761,1559.591s-.074.191-.187.433c-.341.732-1.005,2.179-.785,2.2.672.054,1.663-.97,2.427-2.13a14.291,14.291,0,0,0,1.34-3.175.007.007,0,0,1,.01,0c.129.06,1.872.9.808,1.909-.707.671-1.859,3.385-2.643,3.865s-4.542,2.431-4.7,2.12,1.511-1.858,1.835-2.263A27.318,27.318,0,0,0,1823.761,1559.591Z" transform="translate(-1820.019 -1553.615)" fill="#ef5656"/>
                </g>
                <path id="Trazado_723091" data-name="Trazado 723091" d="M1763.276,1386.758s8.7,16.867,9.389,16.672c0,0,2.347-.978,2.132-1.467-.316-.72-1.865-14.047-5.168-15.2Z" transform="translate(-1760.952 -1365.06)" fill="#0283bc"/>
                <path id="Trazado_723092" data-name="Trazado 723092" d="M1751.744,1161.653s-.264,1.83-.646,4.433c-.9,6.149-2.472,16.612-2.79,17.437-.233.6-1.386,1.1-2.693,1.282a5.316,5.316,0,0,1-3.5-.5c-1.454-.974-3.507-11.988-2.844-16.233.111-.715.234-1.387.373-2,.466-2.084,1.1-3.542,2.05-3.931a9.922,9.922,0,0,1,2.647-.555A46.27,46.27,0,0,1,1751.744,1161.653Z" transform="translate(-1739.147 -1161.457)" fill="#0283bc"/>
                <path id="Trazado_723093" data-name="Trazado 723093" d="M1789.779,1251.534a42.482,42.482,0,0,0,1.715-8.217c-.725-2.8-1.688-5.438-2.92-6.379.157-.543.519-2.667.951-5.388-1.431-4.862-3.292-9.525-4.473-10.893,0,0,.192,1.949.3,2.635s-.6,6.507-.8,9.8,0,6.315-.055,7c-.037.462-.335.649-.828.321C1785.5,1243.888,1788.176,1248.891,1789.779,1251.534Z" transform="translate(-1779.387 -1214.956)" fill="#0073b4"/>
              </g>
              <g id="Grupo_1008654" data-name="Grupo 1008654">
                <g id="shoe_L" data-name="shoe L" transform="translate(0 37.274)">
                  <path id="Trazado_723094" data-name="Trazado 723094" d="M1695.777,1619.578s-.228.326.424.391,6.291-.489,7.171-1.043,3.227-3.129,3.39-3.1,0,1.858,0,1.858h.424a11.934,11.934,0,0,1,.358-1.858c.163-.326.487-1.336.308-1.662S1695.777,1619.578,1695.777,1619.578Z" transform="translate(-1695.738 -1604.499)" fill="#754444"/>
                  <path id="Trazado_723095" data-name="Trazado 723095" d="M1743.131,1517.883c.072.218-.784,2.891-.617,3.738.086.435.186.715.261,1.1a1.733,1.733,0,0,1-1.154,1.979c-3.589,1.176-5.944,3.643-6.763,3.175-.913-.522.13-1.434,1.76-3.129a12.368,12.368,0,0,0,3.37-8.931C1739.917,1510.539,1743.131,1517.883,1743.131,1517.883Z" transform="translate(-1730.785 -1513.91)" fill="#ffcac5"/>
                  <path id="Trazado_723096" data-name="Trazado 723096" d="M1702.092,1596.939s-.272.328-.621.712c-.534.59-1.15,1.329-.519,1.29a5.624,5.624,0,0,0,3.585-1.284,23.612,23.612,0,0,0,3.282-3.67s1.216,2.64-.074,3c-1.229.342-3.729,3.448-4.9,3.716s-6.649,1.108-6.715.652,2.64-1.708,3.227-2.053A17.638,17.638,0,0,0,1702.092,1596.939Z" transform="translate(-1696.091 -1586.275)" fill="#ef5656"/>
                </g>
                <path id="Trazado_723097" data-name="Trazado 723097" d="M1791.12,1377.453s-.1.057-.268.137c-.108.052-.245.114-.4.176-.871.345-3.311-.032-3.31-.992,0-.523,1.067-13,1.276-16.741.032-.6.059-1,.071-1.13.136-1.378,3.67-1.85,5.021-1.423a1.349,1.349,0,0,1,.285.125.391.391,0,0,1,.231.348c-.01.191.056.874.1,1.935A40.6,40.6,0,0,1,1791.12,1377.453Z" transform="translate(-1778.339 -1335.134)" fill="#0283bc"/>
                <path id="Trazado_723098" data-name="Trazado 723098" d="M1802.033,1137.129a22.106,22.106,0,0,1-1.335,6.6c-2.879,8.447-3.672,9.864-3.57,10.466.2,1.177-2.987,1.763-4.37-.64a4.818,4.818,0,0,1-.592-1.961c-.337-3.316.123-7.851.609-13.1a27.038,27.038,0,0,1-.98-3.055,11.107,11.107,0,0,1-.307-5.11,4.344,4.344,0,0,1,1.558-2.588,4.294,4.294,0,0,1,2.386-.869c.34.361,1.884.113,2.429.35a3.057,3.057,0,0,1,.487.268,7.173,7.173,0,0,1,2.11,2.785,14.481,14.481,0,0,1,1.327,3.829A13.975,13.975,0,0,1,1802.033,1137.129Z" transform="translate(-1782.109 -1126.877)" fill="#0283bc"/>
                <path id="Trazado_723099" data-name="Trazado 723099" d="M1762.135,1139.909a20.281,20.281,0,0,1-3.545.727c-1.327.2-12.065,1.72-11.091-1.379.424-1.349.967-2.271,1.69-2.568a9.926,9.926,0,0,1,2.647-.555,4.344,4.344,0,0,1,1.558-2.588l5.3-.251a7.171,7.171,0,0,1,2.11,2.785A14.477,14.477,0,0,1,1762.135,1139.909Z" transform="translate(-1742.458 -1132.677)" fill="#0073b4"/>
              </g>
            </g>
            <g id="Grupo_1008668" data-name="Grupo 1008668">
              <g id="Grupo_1008657" data-name="Grupo 1008657" transform="translate(0 12.304)">
                <path id="Trazado_723100" data-name="Trazado 723100" d="M1760.8,996.616a.019.019,0,0,0-.009,0C1760.811,996.6,1760.815,996.6,1760.8,996.616Z" transform="translate(-1736.711 -992.889)" fill="#ffcac5"/>
                <path id="Trazado_723101" data-name="Trazado 723101" d="M1677.077,1004.167s-3.34,3.334-6.209,4.182c-2.394.708-2.9-2.417-1.717-4.284a2.935,2.935,0,0,1,.9-.92c.294-.186.612-.407.944-.652a64.248,64.248,0,0,0,6.436-5.74C1679.6,996.946,1677.077,1004.167,1677.077,1004.167Z" transform="translate(-1653.343 -993.026)" fill="#ffcac5"/>
                <path id="Trazado_723102" data-name="Trazado 723102" d="M1677.133,1059.9c-.689.583-1.547-.649-2.213-1.969a2.935,2.935,0,0,1,.9-.92c.294-.187.612-.407.944-.652C1677.372,1057.524,1677.947,1059.209,1677.133,1059.9Z" transform="translate(-1659.112 -1046.89)" fill="#ffb8b1"/>
                <path id="Trazado_723103" data-name="Trazado 723103" d="M1606,987.308s6.756,7.037,7.3,8.436.445,4.773-1.634,3.939-7.009-10.8-7.07-11.386S1606,987.308,1606,987.308Z" transform="translate(-1595.566 -984.491)" fill="#ffcac5"/>
                <path id="Trazado_723104" data-name="Trazado 723104" d="M1543.5,958.836c.166-.2,4.5-2.691,7.51,2.448,0,0-1.5,1.181-1.789.582s-4.4-.824-4.534-1.442,1.461-.266,1.917-.237.594-1.591-.411-1.351-2.511,1.389-2.511.928.594-.689.594-.689S1542.814,959.647,1543.5,958.836Z" transform="translate(-1540.183 -958.06)" fill="#ffcac5"/>
                <path id="Trazado_723105" data-name="Trazado 723105" d="M1734.434,984.271a11.14,11.14,0,0,1-1.5,3.424,3.712,3.712,0,0,1-1.79,1.33,5.167,5.167,0,0,1-1.229.287c-.831.1-1.125-6.311-1.125-7.142s5.327-4.136,5.361-4.085C1735.094,979.493,1735.037,982,1734.434,984.271Z" transform="translate(-1707.797 -976.156)" fill="#eff3f9"/>
                <path id="Trazado_723106" data-name="Trazado 723106" d="M1751.945,991.87a11.14,11.14,0,0,1-1.5,3.424,3.713,3.713,0,0,1-1.79,1.33c-.1-.463-.248-1.076-.479-1.885-.205-.717,3.456-8.245,3.456-8.245Z" transform="translate(-1725.308 -983.755)" fill="#d9dfe8"/>
                <g id="Grupo_1008656" data-name="Grupo 1008656" transform="translate(0 0.674)">
                  <path id="Trazado_723107" data-name="Trazado 723107" d="M1526.966,965.27l.024.1a.28.28,0,0,1-.206.337l-7.342,1.765-.155-.644,7.342-1.765A.28.28,0,0,1,1526.966,965.27Z" transform="translate(-1518.468 -965.056)" fill="#2d2d2d"/>
                  <path id="Trazado_723108" data-name="Trazado 723108" d="M1511.756,984.118l-.495-.015-.4-.014c-.076,0-.108-.145-.043-.181l.39-.217.394-.217Z" transform="translate(-1510.782 -981.701)" fill="#eaeaea"/>
                </g>
                <path id="Trazado_723109" data-name="Trazado 723109" d="M1511.268,986.036a.965.965,0,0,1-.007.1l-.4-.014c-.076,0-.108-.144-.043-.181l.39-.217A.757.757,0,0,1,1511.268,986.036Z" transform="translate(-1510.782 -983.06)" fill="#2d2d2d"/>
              </g>
              <g id="Grupo_1008659" data-name="Grupo 1008659" transform="translate(26.002)">
                <path id="Trazado_723110" data-name="Trazado 723110" d="M1790.226,830.968a7.155,7.155,0,0,0-4.256-.6c-2.773.3-3.734,1.647-3.487,2.691,0,0-1.043.357-.8,1.263a1.784,1.784,0,0,1-.275,1.812c-.357.467-.906,1.373-.494,2s-.439,2.526.659,3.267-1.51,2.252.357,3.213a3.681,3.681,0,0,0,3.514-.11Z" transform="translate(-1780.772 -830.302)" fill="#2d2d2d"/>
                <g id="Grupo_1008658" data-name="Grupo 1008658" transform="translate(0.093 7.317)">
                  <path id="Trazado_723111" data-name="Trazado 723111" d="M1785.11,923.681c-1.871-.489-3.968-9.138-3.216-9.883a4.047,4.047,0,0,1,2.486-1.153.307.307,0,0,0,.275-.353l-.045-.293-.5-3.276-.378-2.449h4.6s0,1.042.112,2.391c.017.217.039.443.063.672.236,2.181.785,4.8,2.067,5.249C1792.822,915.37,1786.983,924.17,1785.11,923.681Z" transform="translate(-1781.737 -906.275)" fill="#ffcac5"/>
                  <path id="Trazado_723112" data-name="Trazado 723112" d="M1810.719,921.966c-.128,1.8-2.707,2.559-3.891,2.662l-.5-3.276c1.363-1.258,3.885-1.648,4.332-.059a1.985,1.985,0,0,1,.051.25A1.961,1.961,0,0,1,1810.719,921.966Z" transform="translate(-1803.956 -918.903)" fill="#ffb8b1"/>
                </g>
              </g>
              <g id="Grupo_1008661" data-name="Grupo 1008661" transform="translate(22.61 13.749)">
                <path id="Trazado_723113" data-name="Trazado 723113" d="M1881.734,1021s2.145,10.126.647,11.294c-3.845,3-3.513-5.449-4.905-9.029C1876.518,1020.8,1881.041,1019.138,1881.734,1021Z" transform="translate(-1864.65 -1015.661)" fill="#ffcac5"/>
                <g id="Grupo_1008660" data-name="Grupo 1008660">
                  <path id="Trazado_723114" data-name="Trazado 723114" d="M1758.765,984.668c-.017.273-.023.572-.019.888a59.25,59.25,0,0,0,.965,8.059c-5.42,1.2-11.242,2.886-14.16,1.074l1.488-8.7-.279-2.482a3.666,3.666,0,0,1,.131-1.463c.372-1.236,1.207-4.077,2.408-8.5a2.914,2.914,0,0,1,1.481-.458.1.1,0,0,1,.1.077c.172.827,1.612,7.714,1.875,7.161.034-.071.111-.26.222-.541.8-2.045,3.038-6.654,3.494-6.721.52-.077,5.122,1.8,5.6,3.442.558,1.891,1.386,4.578,1.386,4.578a20.447,20.447,0,0,1-4.684,3.4C1758.775,984.542,1758.77,984.6,1758.765,984.668Z" transform="translate(-1745.552 -973.057)" fill="#eff3f9"/>
                  <path id="Trazado_723115" data-name="Trazado 723115" d="M1849.363,1051.185h-3.538c1.619-.266,2.338-2.182,2.323-5.44a.064.064,0,0,1,.128-.009l.506,3.766.6.8C1849.364,1050.57,1849.358,1050.869,1849.363,1051.185Z" transform="translate(-1836.168 -1038.686)" fill="#d9dfe8"/>
                  <path id="Trazado_723116" data-name="Trazado 723116" d="M1819.559,1077.15c-1.091-1.2-2.8-10.457-2.8-10.457.034-.071.111-.261.222-.541Z" transform="translate(-1809.902 -1057.186)" fill="#d9dfe8"/>
                </g>
              </g>
              <g id="Grupo_1008664" data-name="Grupo 1008664" transform="translate(27.055 0.413)">
                <g id="Grupo_1008662" data-name="Grupo 1008662" transform="translate(0 0.661)">
                  <path id="face" d="M1793.713,842.475s-2.207,4.028-2,7.006c.082,1.174.55,3.26,1.441,3.295,1.606.062,4.24.012,6.042-5.072S1795.8,839.835,1793.713,842.475Z" transform="translate(-1791.701 -841.461)" fill="#ffcac5"/>
                  <path id="Trazado_723117" data-name="Trazado 723117" d="M1802.22,842.475a21.332,21.332,0,0,0-1.106,2.461,5.435,5.435,0,0,1,2.835-1.86s-.474,2.409,1.462,2.595c0,0,.206,1.112,1.174.927a12.725,12.725,0,0,0,1.486-1.2C1807.88,841.85,1803.963,840.269,1802.22,842.475Z" transform="translate(-1800.207 -841.461)" fill="#ffb8b1"/>
                </g>
                <path id="Trazado_723118" data-name="Trazado 723118" d="M1833.505,837.345s-.082,1.771,1.4,1.894c0,0,.33,1.359,1.441,1.359,0,0,.041,1.112.124,1.853,0,0-1.647,1.689-1.235,2.347a1.472,1.472,0,0,0,.329,1.864,1.1,1.1,0,0,0,.659,1.555c1.194.453,1.977,1.565,3.212,1.071s1.153-.988.618-1.977a2.166,2.166,0,0,1-.33-2.141c.247-.989-.206-1.4-.659-2.059s2.224-2.306,1.29-5.052c-.791-2.327-2.2-3.391-2.9-3.349S1833.134,833.68,1833.505,837.345Z" transform="translate(-1829.455 -834.594)" fill="#2d2d2d"/>
                <g id="Grupo_1008663" data-name="Grupo 1008663" transform="translate(5.902 5.219)">
                  <path id="Trazado_723119" data-name="Trazado 723119" d="M1853.2,889.489c.033-.1.876-1.107,1.565-.531s-.358,3.92-1.4,3.3C1852.62,891.82,1853.2,889.489,1853.2,889.489Z" transform="translate(-1852.983 -888.782)" fill="#ffcac5"/>
                  <path id="Trazado_723120" data-name="Trazado 723120" d="M1859.961,897.68a3.431,3.431,0,0,0-.9.1.067.067,0,0,0-.036,0l-.022.009a.077.077,0,0,0,.041.149c.046-.012.092-.021.138-.031a.085.085,0,0,0,.025.009c.625.083.52,1,.3,1.369a.077.077,0,0,0,.133.078c.253-.425.3-1.225-.161-1.506a3.315,3.315,0,0,1,.481-.023A.077.077,0,0,0,1859.961,897.68Z" transform="translate(-1858.378 -896.822)" fill="#ffb8b1"/>
                  <path id="earring" d="M1859.267,919.449c.12-.155-.1-.375-.218-.218a1,1,0,0,0-.072.107.124.124,0,0,0-.075.133l0,.028a.848.848,0,0,0,.078.737c.075.121.3.083.287-.078l-.054-.627A.53.53,0,0,1,1859.267,919.449Z" transform="translate(-1858.289 -916.25)" fill="#fff1b6"/>
                </g>
              </g>
              <path id="Trazado_723121" data-name="Trazado 723121" d="M1802.417,838.682a4.331,4.331,0,0,0-3.871,2.5s.412-4.722,4.365-4.036Z" transform="translate(-1770.832 -836.424)" fill="#2d2d2d"/>
              <g id="Grupo_1008667" data-name="Grupo 1008667" transform="translate(26.994 27.433)">
                <g id="Grupo_1008665" data-name="Grupo 1008665" transform="translate(0 0.877)">
                  <path id="Rectángulo_348379" data-name="Rectángulo 348379" d="M4.3,0h0a4.3,4.3,0,0,1,4.3,4.3V7.372a4.3,4.3,0,0,1-4.3,4.3h0A4.3,4.3,0,0,1,0,7.372V4.3A4.3,4.3,0,0,1,4.3,0Z" transform="matrix(0.946, -0.323, 0.323, 0.946, 0, 2.775)" fill="#2f353f"/>
                  <path id="Trazado_723122" data-name="Trazado 723122" d="M1811.113,1144.733c-.484.8-2.241,3.7-2.471,4.059-.267.412-.865-.6-2.059-.391s-2.2.885-1.524,1.195a4.184,4.184,0,0,1-1.554-.548l1.113,3.261c.856.427,3.132,1.4,4.58.458a20.7,20.7,0,0,0,3.535-3.286Z" transform="translate(-1802.307 -1142.761)" fill="#282f38"/>
                </g>
                <g id="Grupo_1008666" data-name="Grupo 1008666" transform="translate(0.747)">
                  <path id="Trazado_723123" data-name="Trazado 723123" d="M1843.969,1116.911l-.022.126a3.56,3.56,0,0,1-.654,1.529c-1.424,1.914-4.98,6.482-6.44,6.882-3.031.831-2.645-.675-2.477-.785,3.569-2.334,5.534-9.319,7.04-9.485C1843.971,1114.9,1843.969,1116.911,1843.969,1116.911Z" transform="translate(-1830.85 -1115.152)" fill="#ffcac5"/>
                  <path id="Trazado_723124" data-name="Trazado 723124" d="M1804.681,1192.461a6.646,6.646,0,0,0-2.795-.1c-.39.016-.843-.015-1.532-.031a8.047,8.047,0,0,1-1.166-.659.241.241,0,0,0-.335.326,4.029,4.029,0,0,0,.813.955c-.351.315.84.922,1.1,1.138,1.455,1.224,3.695,1.071,4.521.155C1805.359,1194.164,1805.762,1193.7,1804.681,1192.461Z" transform="translate(-1798.82 -1184.269)" fill="#ffcac5"/>
                  <path id="Trazado_723125" data-name="Trazado 723125" d="M1824.741,1186.644a7.473,7.473,0,0,0-1.961-1.5c-.812-.468-2.568.108-2.58.467-.018.564,2.031.35,2.031.35.1.267-1.558.393-1.558.393C1819.668,1186.64,1824.741,1186.644,1824.741,1186.644Z" transform="translate(-1818.141 -1178.241)" fill="#ffcac5"/>
                </g>
              </g>
            </g>
          </g>
        </g>
      </g>
    </g>
  </g>
</svg>
