<svg xmlns="http://www.w3.org/2000/svg" width="260" height="155" viewBox="0 0 260 155">
  <g id="Grupo_1013479" data-name="Grupo 1013479" transform="translate(1633 9706)">
    <rect id="doctor-realizando-investigaciones-medicas-laboratorio" width="260" height="155" rx="10" transform="translate(-1633 -9706)" fill="#fff"/>
    <g id="Grupo_1009225" data-name="Grupo 1009225" transform="translate(19.799 -81)">
      <g id="Grupo_1009224" data-name="Grupo 1009224" transform="translate(-1637.158 -9598)">
        <g id="Layer_3" data-name="Layer 3" transform="translate(3.414 4.406)">
          <path id="Trazado_723553" data-name="Trazado 723553" d="M707.828,270.982a5.094,5.094,0,0,1,10.1.215,5.166,5.166,0,1,1,1.5,10.111H708.059a5.166,5.166,0,0,1-.231-10.326Z" transform="translate(-606.302 -246.627)" fill="#c2e3f9"/>
          <path id="Trazado_723554" data-name="Trazado 723554" d="M962.013,354.675a5.094,5.094,0,0,0-10.1.215,5.166,5.166,0,1,0-1.5,10.111h11.366a5.166,5.166,0,0,0,.231-10.326Z" transform="translate(-810.744 -317.227)" fill="#c2e3f9"/>
          <path id="Trazado_723555" data-name="Trazado 723555" d="M302.208,247.935a4.846,4.846,0,0,0-9.61.2,4.915,4.915,0,1,0-1.424,9.62h10.814a4.915,4.915,0,0,0,.22-9.825Z" transform="translate(-254.846 -227.363)" fill="#c2e3f9"/>
          <g id="Grupo_1009097" data-name="Grupo 1009097" transform="translate(176.439 0)">
            <circle id="Elipse_8752" data-name="Elipse 8752" cx="6.748" cy="6.748" r="6.748" transform="translate(0 9.543) rotate(-45)" fill="#e39b40"/>
          </g>
          <path id="Trazado_723556" data-name="Trazado 723556" d="M1232.453,516.957l-20.9-13.8a1.518,1.518,0,0,0-1.561,0l-20.9,13.8a1.33,1.33,0,0,0-.376,1.837h0a1.331,1.331,0,0,0,1.838.376l20.219-13.348,20.219,13.348a1.33,1.33,0,0,0,1.837-.376h0A1.33,1.33,0,0,0,1232.453,516.957Z" transform="translate(-1015.938 -445.952)" fill="#2a221f"/>
          <path id="Trazado_723557" data-name="Trazado 723557" d="M224.542,503.752l20.9-13.8a1.518,1.518,0,0,1,1.561,0l20.9,13.8a1.33,1.33,0,0,1,.376,1.837h0a1.33,1.33,0,0,1-1.837.376l-20.219-13.348L226,505.965a1.33,1.33,0,0,1-1.837-.376h0A1.33,1.33,0,0,1,224.542,503.752Z" transform="translate(-202.283 -434.813)" fill="#2a221f"/>
          <path id="Trazado_723558" data-name="Trazado 723558" d="M863.134,699.661l-15-9.9a1.09,1.09,0,0,0-1.12,0l-15,9.9a.955.955,0,0,0-.27,1.319h0a.955.955,0,0,0,1.319.27l14.513-9.581,14.513,9.581a.955.955,0,0,0,1.319-.27h0A.955.955,0,0,0,863.134,699.661Z" transform="translate(-714.86 -603.411)" fill="#3d3734"/>
          <path id="Trazado_723559" data-name="Trazado 723559" d="M617.6,766.156l-11.782-7.778a.856.856,0,0,0-.88,0l-11.782,7.778a.75.75,0,0,0-.212,1.036h0a.75.75,0,0,0,1.036.212l11.4-7.525,11.4,7.525a.75.75,0,0,0,1.036-.212h0A.75.75,0,0,0,617.6,766.156Z" transform="translate(-513.449 -661.324)" fill="#3d3734"/>
          <path id="Trazado_723560" data-name="Trazado 723560" d="M882.982,707.287v22.741H858.994V707.287l12.036-7.93Z" transform="translate(-737.982 -611.64)" fill="#d7d1b5"/>
          <path id="Trazado_723561" data-name="Trazado 723561" d="M1250.153,754.234v22.742H1212.29V754.367Z" transform="translate(-1036.009 -657.932)" fill="#e39b40"/>
          <path id="Trazado_723562" data-name="Trazado 723562" d="M1250.153,538.41v15.8H1212.29v-15.84L1231.15,526Z" transform="translate(-1036.009 -465.402)" fill="#e39b40"/>
          <path id="Trazado_723563" data-name="Trazado 723563" d="M287.706,519.938V569.1H249.844V519.649L268.656,507.2Z" transform="translate(-224.127 -449.544)" fill="#288d8a"/>
          <path id="Trazado_723564" data-name="Trazado 723564" d="M111.7,652.22H85.459V605.737h26.194Z" transform="translate(-85.459 -532.666)" fill="#288d8a"/>
          <g id="Grupo_1009098" data-name="Grupo 1009098" transform="translate(218.336 82.554)">
            <path id="Trazado_723565" data-name="Trazado 723565" d="M1507.129,666.356c.014,0,.029,0,.043.005s.029-.005.043-.005Z" transform="translate(-1503.058 -666.356)" fill="#9ab239"/>
            <path id="Trazado_723566" data-name="Trazado 723566" d="M1485.222,666.39c-2.166.224-5,17.191-3.849,21.723,1.006,3.963,3.849,4.7,3.849,4.7s2.843-.735,3.849-4.7C1490.221,683.581,1487.388,666.614,1485.222,666.39Z" transform="translate(-1481.108 -666.385)" fill="#9ab239"/>
          </g>
          <g id="Grupo_1009099" data-name="Grupo 1009099" transform="translate(65.975 83.452)">
            <path id="Trazado_723567" data-name="Trazado 723567" d="M533.082,672.094c.014,0,.029,0,.043.005s.029-.005.043-.005Z" transform="translate(-529.03 -672.094)" fill="#9ab239"/>
            <path id="Trazado_723568" data-name="Trazado 723568" d="M511.278,672.127c-2.156.223-4.975,17.109-3.83,21.62,1,3.944,3.83,4.676,3.83,4.676s2.829-.732,3.831-4.676C516.254,689.236,513.435,672.35,511.278,672.127Z" transform="translate(-507.184 -672.122)" fill="#9ab239"/>
          </g>
          <circle id="Elipse_8753" data-name="Elipse 8753" cx="4.498" cy="4.498" r="4.498" transform="translate(71.64 108.065)" fill="#9ab239"/>
          <path id="Trazado_723569" data-name="Trazado 723569" d="M788.505,663.5h14.662l-4.952-16.329H747.787L742.836,663.5h14.547L772.9,653.278Z" transform="translate(-639.996 -567.615)" fill="#3d3734"/>
          <rect id="Rectángulo_348509" data-name="Rectángulo 348509" width="6.384" height="9.529" transform="translate(110.048 100.785)" fill="#bee2f7"/>
          <rect id="Rectángulo_348510" data-name="Rectángulo 348510" width="6.384" height="9.529" transform="translate(149.843 100.785)" fill="#bee2f7"/>
          <rect id="Rectángulo_348511" data-name="Rectángulo 348511" width="7.1" height="11.9" transform="translate(57.529 89.13) rotate(180)" fill="#fff"/>
          <rect id="Rectángulo_348512" data-name="Rectángulo 348512" width="7.1" height="11.9" transform="translate(48.079 89.13) rotate(180)" fill="#fff"/>
          <rect id="Rectángulo_348513" data-name="Rectángulo 348513" width="7.1" height="11.9" transform="translate(57.379 107.317) rotate(180)" fill="#fff"/>
          <rect id="Rectángulo_348514" data-name="Rectángulo 348514" width="7.1" height="11.9" transform="translate(47.929 107.317) rotate(180)" fill="#fff"/>
          <rect id="Rectángulo_348515" data-name="Rectángulo 348515" width="7.1" height="11.9" transform="translate(38.704 89.13) rotate(180)" fill="#fff"/>
          <rect id="Rectángulo_348516" data-name="Rectángulo 348516" width="7.1" height="11.9" transform="translate(38.554 107.317) rotate(180)" fill="#fff"/>
          <path id="Trazado_723570" data-name="Trazado 723570" d="M608.74,787.829V774.568l10.524-7.026,10.61,7.026v13.261Z" transform="translate(-526.878 -669.158)" fill="#d7d1b5"/>
          <rect id="Rectángulo_348517" data-name="Rectángulo 348517" width="11.502" height="19.16" transform="translate(7.038 100.478)" fill="#fff"/>
          <rect id="Rectángulo_348518" data-name="Rectángulo 348518" width="17.1" height="7.759" transform="translate(21.512 85.671) rotate(180)" fill="#fff"/>
          <rect id="Rectángulo_348519" data-name="Rectángulo 348519" width="6.379" height="6.379" transform="translate(182.351 76.621)" fill="#fff"/>
          <rect id="Rectángulo_348520" data-name="Rectángulo 348520" width="6.379" height="6.379" transform="translate(201.627 76.621)" fill="#fff"/>
          <path id="Trazado_723571" data-name="Trazado 723571" d="M1259.98,815.794V800.419a.017.017,0,0,0-.016-.018h-8.573a.01.01,0,0,0-.009.01v15.383Z" transform="translate(-1068.985 -696.877)" fill="#fff"/>
          <rect id="Rectángulo_348521" data-name="Rectángulo 348521" width="11.126" height="8.335" transform="translate(196.949 100.52)" fill="#fff"/>
          <rect id="Rectángulo_348522" data-name="Rectángulo 348522" width="8.678" height="14.493" transform="translate(128.51 104.374)" fill="#fff"/>
          <rect id="Rectángulo_348523" data-name="Rectángulo 348523" width="14.1" height="10.5" transform="translate(85.38 108.221)" fill="#fff"/>
          <circle id="Elipse_8754" data-name="Elipse 8754" cx="3.553" cy="3.553" r="3.553" transform="translate(40.826 62.242)" fill="#fff"/>
          <circle id="Elipse_8755" data-name="Elipse 8755" cx="3.553" cy="3.553" r="3.553" transform="translate(129.297 92.093)" fill="#fff"/>
          <circle id="Elipse_8756" data-name="Elipse 8756" cx="3.553" cy="3.553" r="3.553" transform="translate(190.56 70.746) rotate(-76.717)" fill="#fff"/>
        </g>
        <g id="Layer_2" data-name="Layer 2" transform="translate(0 0)">
          <g id="Grupo_1009100" data-name="Grupo 1009100" transform="translate(97.544 23.114)">
            <path id="Trazado_723572" data-name="Trazado 723572" d="M704.241,273.987H692.876a5.713,5.713,0,0,1-.691-11.385,5.642,5.642,0,0,1,11,.055,5.714,5.714,0,1,1,1.051,11.33Zm-6.56-14.657a4.571,4.571,0,0,0-4.5,3.864l-.067.446-.45.02a4.618,4.618,0,0,0,.207,9.232h11.365a4.618,4.618,0,1,0-1.338-9.039l-.632.191-.07-.657A4.534,4.534,0,0,0,697.681,259.33Z" transform="translate(-687.162 -258.235)"/>
          </g>
          <g id="Grupo_1009101" data-name="Grupo 1009101" transform="translate(135.393 35.438)">
            <path id="Trazado_723573" data-name="Trazado 723573" d="M946.176,352.764H934.81a5.714,5.714,0,1,1,1.051-11.33,5.642,5.642,0,0,1,11-.055,5.713,5.713,0,0,1-.69,11.385ZM934.81,342.432a4.618,4.618,0,0,0,0,9.237h11.365a4.618,4.618,0,0,0,.207-9.232l-.45-.02-.067-.446a4.546,4.546,0,0,0-9.014.192l-.07.657-.633-.191A4.622,4.622,0,0,0,934.81,342.432Z" transform="translate(-929.097 -337.012)"/>
          </g>
          <g id="Grupo_1009102" data-name="Grupo 1009102" transform="translate(32.693 19.461)">
            <path id="Trazado_723574" data-name="Trazado 723574" d="M288.895,249.925H278.081a5.463,5.463,0,1,1,.98-10.837,5.395,5.395,0,0,1,10.512-.046,5.463,5.463,0,0,1-.679,10.883Zm-10.814-9.831a4.368,4.368,0,0,0,0,8.735h10.814a4.367,4.367,0,0,0,.2-8.73l-.45-.02-.067-.446a4.3,4.3,0,0,0-8.524.182l-.07.657-.633-.191A4.371,4.371,0,0,0,278.081,240.095Z" transform="translate(-272.618 -234.885)"/>
          </g>
          <g id="Grupo_1009103" data-name="Grupo 1009103" transform="translate(37.659 37.373)">
            <path id="Trazado_723575" data-name="Trazado 723575" d="M304.912,352.989a.547.547,0,0,1-.548-.548v-2.51a.548.548,0,0,1,1.1,0v2.51A.547.547,0,0,1,304.912,352.989Z" transform="translate(-304.364 -349.384)"/>
          </g>
          <g id="Grupo_1009104" data-name="Grupo 1009104" transform="translate(37.659 43.231)">
            <path id="Trazado_723576" data-name="Trazado 723576" d="M304.912,393.3a.548.548,0,0,1-.548-.548v-5.374a.548.548,0,0,1,1.1,0v5.374A.548.548,0,0,1,304.912,393.3Z" transform="translate(-304.364 -386.829)"/>
          </g>
          <g id="Grupo_1009105" data-name="Grupo 1009105" transform="translate(41.8 46.094)">
            <path id="Trazado_723577" data-name="Trazado 723577" d="M331.378,408.735a.547.547,0,0,1-.548-.548v-2.511a.548.548,0,0,1,1.1,0v2.511A.548.548,0,0,1,331.378,408.735Z" transform="translate(-330.83 -405.129)"/>
          </g>
          <g id="Grupo_1009106" data-name="Grupo 1009106" transform="translate(41.8 37.373)">
            <path id="Trazado_723578" data-name="Trazado 723578" d="M331.378,355.852a.547.547,0,0,1-.548-.548v-5.373a.548.548,0,0,1,1.1,0V355.3A.548.548,0,0,1,331.378,355.852Z" transform="translate(-330.83 -349.384)"/>
          </g>
          <g id="Grupo_1009107" data-name="Grupo 1009107" transform="translate(45.984 37.373)">
            <path id="Trazado_723579" data-name="Trazado 723579" d="M358.124,352.989a.547.547,0,0,1-.548-.548v-2.51a.548.548,0,1,1,1.1,0v2.51A.547.547,0,0,1,358.124,352.989Z" transform="translate(-357.576 -349.384)"/>
          </g>
          <g id="Grupo_1009108" data-name="Grupo 1009108" transform="translate(45.984 43.231)">
            <path id="Trazado_723580" data-name="Trazado 723580" d="M358.124,393.3a.548.548,0,0,1-.548-.548v-5.374a.548.548,0,0,1,1.1,0v5.374A.548.548,0,0,1,358.124,393.3Z" transform="translate(-357.576 -386.829)"/>
          </g>
          <g id="Grupo_1009109" data-name="Grupo 1009109" transform="translate(50.124 46.094)">
            <path id="Trazado_723581" data-name="Trazado 723581" d="M384.59,408.735a.547.547,0,0,1-.548-.548v-2.511a.548.548,0,0,1,1.1,0v2.511A.548.548,0,0,1,384.59,408.735Z" transform="translate(-384.042 -405.129)"/>
          </g>
          <g id="Grupo_1009110" data-name="Grupo 1009110" transform="translate(50.124 37.373)">
            <path id="Trazado_723582" data-name="Trazado 723582" d="M384.59,355.852a.547.547,0,0,1-.548-.548v-5.373a.548.548,0,1,1,1.1,0V355.3A.548.548,0,0,1,384.59,355.852Z" transform="translate(-384.042 -349.384)"/>
          </g>
          <g id="Grupo_1009142" data-name="Grupo 1009142" transform="translate(176.53 0)">
            <g id="Grupo_1009112" data-name="Grupo 1009112" transform="translate(4.855 5.161)">
              <g id="Grupo_1009111" data-name="Grupo 1009111">
                <path id="Trazado_723583" data-name="Trazado 723583" d="M1237.093,150.884a6.614,6.614,0,1,1-6.614-6.614,6.694,6.694,0,0,1,6.614,6.614.391.391,0,0,0,.782,0,7.4,7.4,0,1,0-3.094,6.015,7.505,7.505,0,0,0,3.094-6.015A.391.391,0,0,0,1237.093,150.884Z" transform="translate(-1223.088 -143.478)" fill="#2b292a"/>
              </g>
            </g>
            <g id="Grupo_1009141" data-name="Grupo 1009141">
              <g id="Grupo_1009114" data-name="Grupo 1009114" transform="translate(2.325 4.593)">
                <g id="Grupo_1009113" data-name="Grupo 1009113">
                  <path id="Trazado_723584" data-name="Trazado 723584" d="M1207.051,140.491l3.177,2.551c.389.313.946-.237.553-.553l-3.177-2.551c-.389-.313-.947.237-.553.553Z" transform="translate(-1206.917 -139.845)" fill="#2b292a"/>
                </g>
              </g>
              <g id="Grupo_1009116" data-name="Grupo 1009116" transform="translate(6.583 1.186)">
                <g id="Grupo_1009115" data-name="Grupo 1009115">
                  <path id="Trazado_723585" data-name="Trazado 723585" d="M1236.69,121.867l-1.83-3.6c-.229-.45-.9-.054-.676.395l1.831,3.6c.229.45.9.054.675-.395Z" transform="translate(-1234.137 -118.066)" fill="#2b292a"/>
                </g>
              </g>
              <g id="Grupo_1009118" data-name="Grupo 1009118" transform="translate(0 13.949)">
                <g id="Grupo_1009117" data-name="Grupo 1009117">
                  <path id="Trazado_723586" data-name="Trazado 723586" d="M1192.545,201.339l4.025-.919c.492-.112.283-.866-.208-.754l-4.026.919c-.491.112-.283.866.208.754Z" transform="translate(-1192.056 -199.655)" fill="#2b292a"/>
                </g>
              </g>
              <g id="Grupo_1009120" data-name="Grupo 1009120" transform="translate(0 9.452)">
                <g id="Grupo_1009119" data-name="Grupo 1009119">
                  <path id="Trazado_723587" data-name="Trazado 723587" d="M1196.554,171.835l-4.009-.915c-.491-.112-.7.642-.208.754l4.009.915c.491.112.7-.642.208-.754Z" transform="translate(-1192.056 -170.909)" fill="#2b292a"/>
                </g>
              </g>
              <g id="Grupo_1009122" data-name="Grupo 1009122" transform="translate(11.858)">
                <g id="Grupo_1009121" data-name="Grupo 1009121">
                  <path id="Trazado_723588" data-name="Trazado 723588" d="M1267.854,110.865v4.241a.391.391,0,0,0,.782,0v-4.241a.391.391,0,0,0-.782,0Z" transform="translate(-1267.854 -110.487)" fill="#2b292a"/>
                </g>
              </g>
              <g id="Grupo_1009124" data-name="Grupo 1009124" transform="translate(15.415 1.183)">
                <g id="Grupo_1009123" data-name="Grupo 1009123">
                  <path id="Trazado_723589" data-name="Trazado 723589" d="M1291.311,122.247l1.735-3.6c.218-.452-.457-.849-.676-.395l-1.735,3.6c-.218.452.457.849.676.395Z" transform="translate(-1290.593 -118.048)" fill="#2b292a"/>
                </g>
              </g>
              <g id="Grupo_1009126" data-name="Grupo 1009126" transform="translate(2.324 17.233)">
                <g id="Grupo_1009125" data-name="Grupo 1009125">
                  <path id="Trazado_723590" data-name="Trazado 723590" d="M1207.6,223.823l3.177-2.533c.394-.314-.163-.864-.553-.553l-3.177,2.533c-.394.314.163.864.553.553Z" transform="translate(-1206.914 -220.645)" fill="#2b292a"/>
                </g>
              </g>
              <g id="Grupo_1009128" data-name="Grupo 1009128" transform="translate(19.703 13.949)">
                <g id="Grupo_1009127" data-name="Grupo 1009127">
                  <path id="Trazado_723591" data-name="Trazado 723591" d="M1322.517,200.585l-4.025-.919c-.491-.112-.7.642-.208.754l4.025.919c.491.112.7-.642.208-.754Z" transform="translate(-1318.003 -199.655)" fill="#2b292a"/>
                </g>
              </g>
              <g id="Grupo_1009130" data-name="Grupo 1009130" transform="translate(18.002 17.096)">
                <g id="Grupo_1009129" data-name="Grupo 1009129">
                  <path id="Trazado_723592" data-name="Trazado 723592" d="M1307.263,220.413l3.349,2.67c.39.311.948-.239.553-.553l-3.349-2.67c-.39-.311-.948.239-.553.553Z" transform="translate(-1307.129 -219.768)" fill="#2b292a"/>
                </g>
              </g>
              <g id="Grupo_1009132" data-name="Grupo 1009132" transform="translate(19.703 9.452)">
                <g id="Grupo_1009131" data-name="Grupo 1009131">
                  <path id="Trazado_723593" data-name="Trazado 723593" d="M1318.492,172.593l4.025-.919c.492-.112.283-.866-.208-.754l-4.025.919c-.492.112-.283.866.208.754Z" transform="translate(-1318.003 -170.909)" fill="#2b292a"/>
                </g>
              </g>
              <g id="Grupo_1009134" data-name="Grupo 1009134" transform="translate(18.152 4.593)">
                <g id="Grupo_1009133" data-name="Grupo 1009133">
                  <path id="Trazado_723594" data-name="Trazado 723594" d="M1311.42,139.941l-3.2,2.551c-.394.314.163.864.553.553l3.2-2.551c.394-.314-.163-.864-.553-.553Z" transform="translate(-1308.087 -139.849)" fill="#2b292a"/>
                </g>
              </g>
              <g id="Grupo_1009136" data-name="Grupo 1009136" transform="translate(15.32 19.317)">
                <g id="Grupo_1009135" data-name="Grupo 1009135">
                  <path id="Trazado_723595" data-name="Trazado 723595" d="M1292.532,237.966l-1.831-3.8c-.219-.454-.893-.057-.675.395l1.83,3.8c.219.454.893.057.676-.395Z" transform="translate(-1289.983 -233.964)" fill="#2b292a"/>
                </g>
              </g>
              <g id="Grupo_1009138" data-name="Grupo 1009138" transform="translate(11.858 20.148)">
                <g id="Grupo_1009137" data-name="Grupo 1009137">
                  <path id="Trazado_723596" data-name="Trazado 723596" d="M1267.854,239.655v4.193a.391.391,0,0,0,.782,0v-4.193a.391.391,0,0,0-.782,0Z" transform="translate(-1267.854 -239.276)" fill="#2b292a"/>
                </g>
              </g>
              <g id="Grupo_1009140" data-name="Grupo 1009140" transform="translate(6.584 19.498)">
                <g id="Grupo_1009139" data-name="Grupo 1009139">
                  <path id="Trazado_723597" data-name="Trazado 723597" d="M1234.861,239.336l1.83-3.623c.227-.449-.448-.845-.675-.395l-1.83,3.623c-.227.449.448.845.675.395Z" transform="translate(-1234.14 -235.119)" fill="#2b292a"/>
                </g>
              </g>
            </g>
          </g>
          <g id="Grupo_1009143" data-name="Grupo 1009143" transform="translate(0.504 126.832)">
            <path id="Trazado_723598" data-name="Trazado 723598" d="M653.092,921.228h-68.32a.548.548,0,1,0,0,1.1h68.32a.548.548,0,1,0,0-1.1Z" transform="translate(-503.287 -921.228)"/>
            <path id="Trazado_723599" data-name="Trazado 723599" d="M140.915,921.228H67.407a.548.548,0,1,0,0,1.1h73.508a.548.548,0,0,0,0-1.1Z" transform="translate(-66.859 -921.228)"/>
            <path id="Trazado_723600" data-name="Trazado 723600" d="M1437.818,921.228h-15.5a.548.548,0,1,0,0,1.1h15.5a.548.548,0,0,0,0-1.1Z" transform="translate(-1209.805 -921.228)"/>
            <path id="Trazado_723601" data-name="Trazado 723601" d="M1197.28,921.228h-30.091a.548.548,0,0,0,0,1.1h30.091a.548.548,0,1,0,0-1.1Z" transform="translate(-994.591 -921.228)"/>
          </g>
          <g id="Grupo_1009144" data-name="Grupo 1009144" transform="translate(174.896 59.659)">
            <path id="Trazado_723602" data-name="Trazado 723602" d="M1225.379,509.381a1.863,1.863,0,0,1-1.029-.309l-19.917-13.149-19.917,13.149a1.874,1.874,0,1,1-2.064-3.127l20.9-13.8a2.062,2.062,0,0,1,2.164,0l20.9,13.8h0a1.873,1.873,0,0,1-1.035,3.437Zm-20.947-14.662a.546.546,0,0,1,.3.091l20.219,13.348a.779.779,0,1,0,.858-1.3l-20.9-13.8a.773.773,0,0,0-.457-.126h-.044a.767.767,0,0,0-.457.126l-20.9,13.8a.779.779,0,1,0,.858,1.3l20.219-13.348A.546.546,0,0,1,1204.432,494.719Z" transform="translate(-1181.61 -491.839)"/>
          </g>
          <g id="Grupo_1009145" data-name="Grupo 1009145" transform="translate(118.945 88.972)">
            <path id="Trazado_723603" data-name="Trazado 723603" d="M855.528,692.114a1.486,1.486,0,0,1-.821-.248L840.5,682.484l-14.211,9.382a1.5,1.5,0,0,1-1.652-2.5l15-9.9a1.634,1.634,0,0,1,1.724,0l15,9.9a1.5,1.5,0,0,1-.526,2.719A1.515,1.515,0,0,1,855.528,692.114Zm-15.071-11.805a.4.4,0,0,0-.22.065l-15,9.9a.4.4,0,0,0,.446.675l14.513-9.581a.547.547,0,0,1,.6,0l14.513,9.581a.4.4,0,0,0,.445-.675l-15-9.9a.405.405,0,0,0-.237-.065h-.06Z" transform="translate(-823.959 -679.214)"/>
          </g>
          <g id="Grupo_1009146" data-name="Grupo 1009146" transform="translate(178.165 74.988)">
            <path id="Trazado_723604" data-name="Trazado 723604" d="M1240.919,607.736h-37.863a.547.547,0,0,1-.547-.547V590.471a.548.548,0,0,1,1.1,0v16.17h36.767V590.373a.547.547,0,1,1,1.095,0v16.816A.547.547,0,0,1,1240.919,607.736Z" transform="translate(-1202.509 -589.825)"/>
          </g>
          <g id="Grupo_1009147" data-name="Grupo 1009147" transform="translate(178.165 99.321)">
            <path id="Trazado_723605" data-name="Trazado 723605" d="M1240.919,769.206h-37.863a.547.547,0,0,1-.547-.547v-22.61a.548.548,0,0,1,1.1,0V768.11h36.767V745.916a.547.547,0,1,1,1.095,0v22.743A.547.547,0,0,1,1240.919,769.206Z" transform="translate(-1202.509 -745.368)"/>
          </g>
          <g id="Grupo_1009148" data-name="Grupo 1009148" transform="translate(193.544 67.882)">
            <path id="Trazado_723606" data-name="Trazado 723606" d="M1304.911,552.6a4.1,4.1,0,1,1,4.1-4.1A4.105,4.105,0,0,1,1304.911,552.6Zm0-7.106a3.005,3.005,0,1,0,3.005,3.005A3.009,3.009,0,0,0,1304.911,545.5Z" transform="translate(-1300.811 -544.404)"/>
          </g>
          <g id="Grupo_1009149" data-name="Grupo 1009149" transform="translate(197.096 67.882)">
            <path id="Trazado_723607" data-name="Trazado 723607" d="M1324.069,552.6a.548.548,0,0,1-.547-.548v-7.106a.547.547,0,1,1,1.095,0v7.106A.548.548,0,0,1,1324.069,552.6Z" transform="translate(-1323.522 -544.404)"/>
          </g>
          <g id="Grupo_1009150" data-name="Grupo 1009150" transform="translate(193.544 71.435)">
            <path id="Trazado_723608" data-name="Trazado 723608" d="M1308.437,568.21h-7.078a.548.548,0,1,1,0-1.1h7.078a.548.548,0,0,1,0,1.1Z" transform="translate(-1300.811 -567.115)"/>
          </g>
          <g id="Grupo_1009151" data-name="Grupo 1009151" transform="translate(131.438 95.566)">
            <path id="Trazado_723609" data-name="Trazado 723609" d="M907.919,729.567a4.1,4.1,0,1,1,4.1-4.1A4.105,4.105,0,0,1,907.919,729.567Zm0-7.106a3.005,3.005,0,1,0,3.005,3.005A3.009,3.009,0,0,0,907.919,722.461Z" transform="translate(-903.819 -721.366)"/>
          </g>
          <g id="Grupo_1009152" data-name="Grupo 1009152" transform="translate(134.991 95.566)">
            <path id="Trazado_723610" data-name="Trazado 723610" d="M927.078,729.567a.548.548,0,0,1-.547-.547v-7.106a.548.548,0,1,1,1.1,0v7.106A.548.548,0,0,1,927.078,729.567Z" transform="translate(-926.53 -721.366)"/>
          </g>
          <g id="Grupo_1009153" data-name="Grupo 1009153" transform="translate(131.438 99.119)">
            <path id="Trazado_723611" data-name="Trazado 723611" d="M911.445,745.172h-7.079a.548.548,0,1,1,0-1.1h7.079a.548.548,0,0,1,0,1.1Z" transform="translate(-903.819 -744.077)"/>
          </g>
          <g id="Grupo_1009154" data-name="Grupo 1009154" transform="translate(184.41 79.768)">
            <path id="Trazado_723612" data-name="Trazado 723612" d="M1249.354,627.855h-6.379a.547.547,0,0,1-.547-.547v-6.379a.548.548,0,0,1,.547-.547h6.379a.548.548,0,0,1,.548.547v6.379A.548.548,0,0,1,1249.354,627.855Zm-5.832-1.095h5.284v-5.284h-5.284Z" transform="translate(-1242.428 -620.381)"/>
          </g>
          <g id="Grupo_1009155" data-name="Grupo 1009155" transform="translate(203.686 79.768)">
            <path id="Trazado_723613" data-name="Trazado 723613" d="M1372.568,627.855h-6.379a.547.547,0,0,1-.547-.547v-6.379a.548.548,0,0,1,.547-.547h6.379a.548.548,0,0,1,.547.547v6.379A.547.547,0,0,1,1372.568,627.855Zm-5.832-1.095h5.284v-5.284h-5.284Z" transform="translate(-1365.642 -620.381)"/>
          </g>
          <g id="Grupo_1009156" data-name="Grupo 1009156" transform="translate(175.258 91.804)">
            <path id="Trazado_723614" data-name="Trazado 723614" d="M1228.153,705.93h-43.682a.548.548,0,0,1-.513-.74l2.818-7.517a.548.548,0,0,1,.513-.355h38.046a.547.547,0,0,1,.513.355l2.818,7.517a.547.547,0,0,1-.512.74Zm-42.892-1.1h42.1l-2.408-6.422h-37.287Z" transform="translate(-1183.923 -697.318)"/>
          </g>
          <g id="Grupo_1009157" data-name="Grupo 1009157" transform="translate(184.456 106.671)">
            <path id="Trazado_723615" data-name="Trazado 723615" d="M1251.868,808.837h-8.6a.547.547,0,0,1-.547-.548V792.907a.564.564,0,0,1,.556-.558h8.572a.566.566,0,0,1,.564.566v15.374A.548.548,0,0,1,1251.868,808.837Zm-8.05-1.1h7.5v-14.3h-7.5Z" transform="translate(-1242.723 -792.349)"/>
          </g>
          <g id="Grupo_1009158" data-name="Grupo 1009158" transform="translate(199.008 103.666)">
            <path id="Trazado_723616" data-name="Trazado 723616" d="M1347.413,782.573h-11.126a.547.547,0,0,1-.547-.548v-8.335a.547.547,0,0,1,.547-.548h11.126a.547.547,0,0,1,.547.548v8.335A.547.547,0,0,1,1347.413,782.573Zm-10.579-1.1h10.031v-7.24h-10.031Z" transform="translate(-1335.739 -773.143)"/>
          </g>
          <g id="Grupo_1009159" data-name="Grupo 1009159" transform="translate(199.008 105.33)">
            <path id="Trazado_723617" data-name="Trazado 723617" d="M1347.344,784.876h-11.057a.548.548,0,0,1,0-1.1h11.057a.548.548,0,0,1,0,1.1Z" transform="translate(-1335.739 -783.781)"/>
          </g>
          <g id="Grupo_1009160" data-name="Grupo 1009160" transform="translate(184.41 81.293)">
            <path id="Trazado_723618" data-name="Trazado 723618" d="M1249.354,631.227h-6.379a.547.547,0,1,1,0-1.095h6.379a.547.547,0,1,1,0,1.095Z" transform="translate(-1242.428 -630.132)"/>
          </g>
          <g id="Grupo_1009161" data-name="Grupo 1009161" transform="translate(203.686 81.293)">
            <path id="Trazado_723619" data-name="Trazado 723619" d="M1372.568,631.227h-6.379a.547.547,0,1,1,0-1.095h6.379a.547.547,0,0,1,0,1.095Z" transform="translate(-1365.642 -630.132)"/>
          </g>
          <g id="Grupo_1009162" data-name="Grupo 1009162" transform="translate(81.626 99.896)">
            <path id="Trazado_723620" data-name="Trazado 723620" d="M586.716,759.537a1.309,1.309,0,0,1-.266-.027,1.3,1.3,0,0,1-.458-2.367l11.941-7.883a1.412,1.412,0,0,1,1.5,0l11.941,7.883h0a1.305,1.305,0,0,1-1.438,2.179l-11.25-7.427-11.25,7.427A1.3,1.3,0,0,1,586.716,759.537Zm11.934-9.4a.2.2,0,0,0-.113.033L586.6,758.057a.21.21,0,0,0,.232.351l11.552-7.626a.547.547,0,0,1,.6,0l11.552,7.626a.21.21,0,0,0,.232-.351l-11.941-7.883a.209.209,0,0,0-.122-.033h-.053Z" transform="translate(-585.407 -749.045)"/>
          </g>
          <g id="Grupo_1009163" data-name="Grupo 1009163" transform="translate(92.91 105.425)">
            <path id="Trazado_723621" data-name="Trazado 723621" d="M659.57,788.454a2.033,2.033,0,1,1,2.033-2.033A2.035,2.035,0,0,1,659.57,788.454Zm0-2.971a.938.938,0,1,0,.938.938A.939.939,0,0,0,659.57,785.483Z" transform="translate(-657.537 -784.388)"/>
          </g>
          <g id="Grupo_1009164" data-name="Grupo 1009164" transform="translate(83.828 108.568)">
            <path id="Trazado_723622" data-name="Trazado 723622" d="M621.168,818.983H600.034a.548.548,0,0,1-.548-.547v-13.41a.548.548,0,0,1,1.1,0v12.862H620.62V805.026a.548.548,0,1,1,1.1,0v13.41A.547.547,0,0,1,621.168,818.983Z" transform="translate(-599.486 -804.478)"/>
          </g>
          <g id="Grupo_1009165" data-name="Grupo 1009165" transform="translate(87.303 111.121)">
            <path id="Trazado_723623" data-name="Trazado 723623" d="M636.342,832.389a.547.547,0,0,1-.548-.548v-9.953h-13v9.953a.548.548,0,1,1-1.1,0v-10.5a.547.547,0,0,1,.548-.548h14.1a.548.548,0,0,1,.547.548v10.5A.547.547,0,0,1,636.342,832.389Z" transform="translate(-621.695 -820.794)"/>
          </g>
          <g id="Grupo_1009166" data-name="Grupo 1009166" transform="translate(87.459 112.794)">
            <path id="Trazado_723624" data-name="Trazado 723624" d="M637.186,832.273h-14.1a.391.391,0,0,1,0-.782h14.1a.391.391,0,1,1,0,.782Z" transform="translate(-622.695 -831.491)"/>
          </g>
          <g id="Grupo_1009167" data-name="Grupo 1009167" transform="translate(87.459 114.371)">
            <path id="Trazado_723625" data-name="Trazado 723625" d="M637.186,842.355h-14.1a.391.391,0,0,1,0-.782h14.1a.391.391,0,1,1,0,.782Z" transform="translate(-622.695 -841.573)"/>
          </g>
          <g id="Grupo_1009168" data-name="Grupo 1009168" transform="translate(87.459 115.948)">
            <path id="Trazado_723626" data-name="Trazado 723626" d="M637.186,852.437h-14.1a.391.391,0,0,1,0-.782h14.1a.391.391,0,1,1,0,.782Z" transform="translate(-622.695 -851.655)"/>
          </g>
          <g id="Grupo_1009169" data-name="Grupo 1009169" transform="translate(87.459 117.526)">
            <path id="Trazado_723627" data-name="Trazado 723627" d="M637.186,862.518h-14.1a.391.391,0,0,1,0-.782h14.1a.391.391,0,1,1,0,.782Z" transform="translate(-622.695 -861.736)"/>
          </g>
          <g id="Grupo_1009170" data-name="Grupo 1009170" transform="translate(87.459 119.103)">
            <path id="Trazado_723628" data-name="Trazado 723628" d="M637.186,872.6h-14.1a.391.391,0,0,1,0-.782h14.1a.391.391,0,1,1,0,.782Z" transform="translate(-622.695 -871.818)"/>
          </g>
          <g id="Grupo_1009171" data-name="Grupo 1009171" transform="translate(87.459 120.68)">
            <path id="Trazado_723629" data-name="Trazado 723629" d="M637.186,882.681h-14.1a.391.391,0,0,1,0-.782h14.1a.391.391,0,1,1,0,.782Z" transform="translate(-622.695 -881.899)"/>
          </g>
          <g id="Grupo_1009172" data-name="Grupo 1009172" transform="translate(224.289 96.288)">
            <path id="Trazado_723630" data-name="Trazado 723630" d="M1497.893,753.318a.548.548,0,0,1-.547-.548V726.53a.548.548,0,1,1,1.1,0V752.77A.548.548,0,0,1,1497.893,753.318Z" transform="translate(-1497.346 -725.982)"/>
          </g>
          <g id="Grupo_1009173" data-name="Grupo 1009173" transform="translate(222.141 99.016)">
            <path id="Trazado_723631" data-name="Trazado 723631" d="M1486.306,746.663a.547.547,0,0,1-.387-.16l-2.149-2.148a.548.548,0,1,1,.774-.774l2.149,2.148a.548.548,0,0,1-.387.935Z" transform="translate(-1483.61 -743.419)"/>
          </g>
          <g id="Grupo_1009174" data-name="Grupo 1009174" transform="translate(224.289 101.784)">
            <path id="Trazado_723632" data-name="Trazado 723632" d="M1497.893,765.6a.548.548,0,0,1-.449-.86l2.355-3.389a.548.548,0,0,1,.9.625l-2.355,3.388A.547.547,0,0,1,1497.893,765.6Z" transform="translate(-1497.346 -761.114)"/>
          </g>
          <g id="Grupo_1009176" data-name="Grupo 1009176" transform="translate(220.237 85.803)">
            <g id="Grupo_1009175" data-name="Grupo 1009175">
              <path id="Trazado_723633" data-name="Trazado 723633" d="M1476.1,686.478a.549.549,0,0,1-.137-.017c-.129-.034-3.169-.865-4.242-5.094-1.092-4.3,1.18-18.963,3.377-21.787a1.62,1.62,0,0,1,.717-.568.545.545,0,0,1,.243-.057h.086a.545.545,0,0,1,.243.057,1.62,1.62,0,0,1,.717.568c2.2,2.824,4.469,17.484,3.377,21.787-1.073,4.228-4.113,5.06-4.242,5.094A.551.551,0,0,1,1476.1,686.478Zm0-26.389c-.57.422-1.718,3.363-2.673,9.019-.881,5.218-1.14,10.036-.645,11.989a5.753,5.753,0,0,0,3.318,4.257c.55-.2,2.524-1.131,3.317-4.257.5-1.953.236-6.771-.645-11.989C1477.82,663.452,1476.673,660.511,1476.1,660.089Z" transform="translate(-1471.44 -658.956)"/>
            </g>
          </g>
          <g id="Grupo_1009177" data-name="Grupo 1009177" transform="translate(71.909 97.136)">
            <path id="Trazado_723634" data-name="Trazado 723634" d="M523.847,758.612a.548.548,0,0,1-.548-.548V731.949a.548.548,0,1,1,1.1,0v26.116A.548.548,0,0,1,523.847,758.612Z" transform="translate(-523.299 -731.401)"/>
          </g>
          <g id="Grupo_1009178" data-name="Grupo 1009178" transform="translate(69.771 99.851)">
            <path id="Trazado_723635" data-name="Trazado 723635" d="M512.315,751.988a.546.546,0,0,1-.387-.16l-2.139-2.138a.548.548,0,1,1,.774-.774l2.139,2.138a.548.548,0,0,1-.387.935Z" transform="translate(-509.629 -748.754)"/>
          </g>
          <g id="Grupo_1009179" data-name="Grupo 1009179" transform="translate(71.909 102.606)">
            <path id="Trazado_723636" data-name="Trazado 723636" d="M523.846,770.833a.548.548,0,0,1-.449-.86l2.344-3.373a.548.548,0,0,1,.9.625L524.3,770.6A.547.547,0,0,1,523.846,770.833Z" transform="translate(-523.299 -766.366)"/>
          </g>
          <g id="Grupo_1009181" data-name="Grupo 1009181" transform="translate(67.876 86.7)">
            <g id="Grupo_1009180" data-name="Grupo 1009180" transform="translate(0)">
              <path id="Trazado_723637" data-name="Trazado 723637" d="M502.159,692.09a.545.545,0,0,1-.137-.017c-.128-.033-3.156-.861-4.224-5.071-1.087-4.283,1.175-18.875,3.361-21.685a1.614,1.614,0,0,1,.714-.566.548.548,0,0,1,.242-.056h.086a.546.546,0,0,1,.242.056,1.613,1.613,0,0,1,.715.566c2.186,2.811,4.448,17.4,3.361,21.685-1.069,4.21-4.1,5.038-4.224,5.071A.546.546,0,0,1,502.159,692.09Zm0-26.26c-.478.385-1.629,2.876-2.658,8.975-.877,5.192-1.134,9.985-.641,11.927a5.722,5.722,0,0,0,3.3,4.235c.548-.2,2.51-1.127,3.3-4.235.493-1.943.235-6.736-.641-11.927C503.788,668.706,502.637,666.215,502.159,665.83Z" transform="translate(-497.516 -664.694)"/>
            </g>
          </g>
          <g id="Grupo_1009182" data-name="Grupo 1009182" transform="translate(122.899 99.169)">
            <path id="Trazado_723638" data-name="Trazado 723638" d="M873.771,768.233H849.784a.548.548,0,0,1-.548-.548V744.945a.548.548,0,1,1,1.1,0v22.194h22.893V744.945a.548.548,0,1,1,1.1,0v22.741A.548.548,0,0,1,873.771,768.233Z" transform="translate(-849.236 -744.397)"/>
          </g>
          <g id="Grupo_1009183" data-name="Grupo 1009183" transform="translate(104.825 82.541)">
            <path id="Trazado_723639" data-name="Trazado 723639" d="M794.583,655.533H779.921a.548.548,0,1,1,0-1.1h13.924l-4.62-15.234H739.609l-4.62,15.234H748.8a.548.548,0,0,1,0,1.1H734.251a.548.548,0,0,1-.524-.706l4.952-16.329a.548.548,0,0,1,.524-.389h50.428a.548.548,0,0,1,.524.389l4.952,16.329a.548.548,0,0,1-.524.706Z" transform="translate(-733.704 -638.109)"/>
          </g>
          <g id="Grupo_1009184" data-name="Grupo 1009184" transform="translate(107.066 98.949)">
            <path id="Trazado_723640" data-name="Trazado 723640" d="M804.238,766.968H748.5a.469.469,0,0,1-.469-.469v-23.04a.469.469,0,0,1,.939,0v22.571h54.8l.1-22.573a.469.469,0,0,1,.469-.467h0a.47.47,0,0,1,.467.471l-.1,23.04A.469.469,0,0,1,804.238,766.968Z" transform="translate(-748.028 -742.989)"/>
          </g>
          <g id="Grupo_1009185" data-name="Grupo 1009185" transform="translate(130.552 107.417)">
            <path id="Trazado_723641" data-name="Trazado 723641" d="M907.383,812.711H898.7a.548.548,0,0,1-.548-.548V797.671a.548.548,0,0,1,.548-.547h8.678a.548.548,0,0,1,.548.547v14.493A.548.548,0,0,1,907.383,812.711Zm-8.131-1.1h7.583v-13.4h-7.583Z" transform="translate(-898.157 -797.123)"/>
          </g>
          <g id="Grupo_1009186" data-name="Grupo 1009186" transform="translate(111.772 103.934)">
            <path id="Trazado_723642" data-name="Trazado 723642" d="M785.038,785.482h-6.383a.548.548,0,0,1-.548-.548v-9.529a.548.548,0,0,1,.548-.548h6.383a.548.548,0,0,1,.547.548v9.529A.547.547,0,0,1,785.038,785.482Zm-5.836-1.1h5.288v-8.434H779.2Z" transform="translate(-778.107 -774.858)"/>
          </g>
          <g id="Grupo_1009187" data-name="Grupo 1009187" transform="translate(151.566 103.934)">
            <path id="Trazado_723643" data-name="Trazado 723643" d="M1039.415,785.482h-6.384a.547.547,0,0,1-.547-.548v-9.529a.547.547,0,0,1,.547-.548h6.384a.548.548,0,0,1,.547.548v9.529A.548.548,0,0,1,1039.415,785.482Zm-5.836-1.1h5.289v-8.434h-5.289Z" transform="translate(-1032.484 -774.858)"/>
          </g>
          <g id="Grupo_1009188" data-name="Grupo 1009188" transform="translate(181.514 61.827)">
            <path id="Trazado_723644" data-name="Trazado 723644" d="M1224.463,514.665a.548.548,0,0,1-.548-.548v-7.87a.548.548,0,0,1,.548-.548h5.336a.548.548,0,0,1,.547.548v4.347a.548.548,0,0,1-1.1,0v-3.8h-4.241v7.322A.548.548,0,0,1,1224.463,514.665Z" transform="translate(-1223.915 -505.7)"/>
          </g>
          <g id="Grupo_1009189" data-name="Grupo 1009189" transform="translate(180.652 59.659)">
            <path id="Trazado_723645" data-name="Trazado 723645" d="M1224.825,495.1h-4.8a1.622,1.622,0,0,1-1.62-1.621v-.022a1.622,1.622,0,0,1,1.62-1.621h4.8a1.622,1.622,0,0,1,1.62,1.621v.022A1.622,1.622,0,0,1,1224.825,495.1Zm-4.8-2.168a.526.526,0,0,0-.525.525v.022a.526.526,0,0,0,.525.525h4.8a.526.526,0,0,0,.526-.525v-.022a.526.526,0,0,0-.526-.525Z" transform="translate(-1218.403 -491.84)"/>
          </g>
          <g id="Grupo_1009190" data-name="Grupo 1009190" transform="translate(163.44 110.39)">
            <path id="Trazado_723646" data-name="Trazado 723646" d="M1121.253,828.742h-12.32a.547.547,0,0,1-.547-.548v-11.52a.548.548,0,0,1,.547-.548h12.32a.547.547,0,0,1,.547.548v11.52A.547.547,0,0,1,1121.253,828.742Zm-11.773-1.1h11.225V817.222H1109.48Z" transform="translate(-1108.385 -816.127)"/>
          </g>
          <g id="Grupo_1009191" data-name="Grupo 1009191" transform="translate(164.999 110.39)">
            <path id="Trazado_723647" data-name="Trazado 723647" d="M1118.9,828.742a.547.547,0,0,1-.548-.548v-11.52a.548.548,0,1,1,1.1,0v11.52A.548.548,0,0,1,1118.9,828.742Z" transform="translate(-1118.349 -816.127)"/>
          </g>
          <g id="Grupo_1009192" data-name="Grupo 1009192" transform="translate(166.817 110.39)">
            <path id="Trazado_723648" data-name="Trazado 723648" d="M1130.52,828.742a.547.547,0,0,1-.548-.548v-11.52a.548.548,0,1,1,1.1,0v11.52A.548.548,0,0,1,1130.52,828.742Z" transform="translate(-1129.972 -816.127)"/>
          </g>
          <g id="Grupo_1009193" data-name="Grupo 1009193" transform="translate(168.636 110.39)">
            <path id="Trazado_723649" data-name="Trazado 723649" d="M1142.143,828.742a.547.547,0,0,1-.548-.548v-11.52a.548.548,0,0,1,1.1,0v11.52A.548.548,0,0,1,1142.143,828.742Z" transform="translate(-1141.595 -816.127)"/>
          </g>
          <g id="Grupo_1009194" data-name="Grupo 1009194" transform="translate(170.454 110.39)">
            <path id="Trazado_723650" data-name="Trazado 723650" d="M1153.765,828.742a.547.547,0,0,1-.547-.548v-11.52a.548.548,0,1,1,1.1,0v11.52A.548.548,0,0,1,1153.765,828.742Z" transform="translate(-1153.217 -816.127)"/>
          </g>
          <g id="Grupo_1009195" data-name="Grupo 1009195" transform="translate(172.272 110.39)">
            <path id="Trazado_723651" data-name="Trazado 723651" d="M1165.387,828.742a.547.547,0,0,1-.547-.548v-11.52a.547.547,0,1,1,1.095,0v11.52A.548.548,0,0,1,1165.387,828.742Z" transform="translate(-1164.84 -816.127)"/>
          </g>
          <g id="Grupo_1009196" data-name="Grupo 1009196" transform="translate(174.09 110.39)">
            <path id="Trazado_723652" data-name="Trazado 723652" d="M1177.01,828.742a.548.548,0,0,1-.548-.548v-11.52a.548.548,0,0,1,1.1,0v11.52A.548.548,0,0,1,1177.01,828.742Z" transform="translate(-1176.462 -816.127)"/>
          </g>
          <g id="Grupo_1009197" data-name="Grupo 1009197" transform="translate(78.04 114.107)">
            <path id="Trazado_723653" data-name="Trazado 723653" d="M563.034,853.705a.548.548,0,0,1-.547-.548V840.433a.547.547,0,1,1,1.095,0v12.725A.548.548,0,0,1,563.034,853.705Z" transform="translate(-562.486 -839.885)"/>
          </g>
          <g id="Grupo_1009198" data-name="Grupo 1009198" transform="translate(76.798 115.194)">
            <path id="Trazado_723654" data-name="Trazado 723654" d="M556.338,849.162a.546.546,0,0,1-.386-.159l-1.242-1.234a.547.547,0,0,1,.772-.777l1.242,1.234a.548.548,0,0,1-.386.936Z" transform="translate(-554.549 -846.833)"/>
          </g>
          <g id="Grupo_1009199" data-name="Grupo 1009199" transform="translate(78.04 116.428)">
            <path id="Trazado_723655" data-name="Trazado 723655" d="M563.033,858.025a.548.548,0,0,1-.454-.853l1.486-2.208a.548.548,0,1,1,.908.612l-1.486,2.208A.547.547,0,0,1,563.033,858.025Z" transform="translate(-562.485 -854.721)"/>
          </g>
          <g id="Grupo_1009200" data-name="Grupo 1009200" transform="translate(73.542 111.313)">
            <path id="Trazado_723656" data-name="Trazado 723656" d="M538.779,832.116a5.046,5.046,0,1,1,5.046-5.046A5.051,5.051,0,0,1,538.779,832.116Zm0-9a3.951,3.951,0,1,0,3.951,3.951A3.955,3.955,0,0,0,538.779,823.12Z" transform="translate(-533.733 -822.025)"/>
          </g>
          <g id="Grupo_1009201" data-name="Grupo 1009201" transform="translate(24.125 57.398)">
            <path id="Trazado_723657" data-name="Trazado 723657" d="M261.619,494.933a1.863,1.863,0,0,1-1.029-.309l-19.917-13.149-19.917,13.149a1.874,1.874,0,1,1-2.065-3.127h0l20.9-13.8a2.062,2.062,0,0,1,2.164,0l20.9,13.8a1.873,1.873,0,0,1-1.035,3.437Zm-42.325-2.523a.779.779,0,0,0,.858,1.3l20.219-13.348a.547.547,0,0,1,.6,0l20.219,13.348a.779.779,0,0,0,.858-1.3l-20.9-13.8a.776.776,0,0,0-.457-.126h-.044a.777.777,0,0,0-.457.126Z" transform="translate(-217.849 -477.391)"/>
          </g>
          <g id="Grupo_1009202" data-name="Grupo 1009202" transform="translate(27.543 72.727)">
            <path id="Trazado_723658" data-name="Trazado 723658" d="M278.11,625.92H240.248a.548.548,0,0,1-.548-.548V575.924a.548.548,0,1,1,1.1,0v48.9h36.768V576.213a.548.548,0,0,1,1.1,0v49.16A.548.548,0,0,1,278.11,625.92Z" transform="translate(-239.7 -575.376)"/>
          </g>
          <g id="Grupo_1009203" data-name="Grupo 1009203" transform="translate(42.922 65.622)">
            <path id="Trazado_723659" data-name="Trazado 723659" d="M342.1,538.156a4.1,4.1,0,1,1,4.1-4.1A4.105,4.105,0,0,1,342.1,538.156Zm0-7.106a3.005,3.005,0,1,0,3.005,3.005A3.009,3.009,0,0,0,342.1,531.05Z" transform="translate(-338.003 -529.955)"/>
          </g>
          <g id="Grupo_1009204" data-name="Grupo 1009204" transform="translate(46.475 65.622)">
            <path id="Trazado_723660" data-name="Trazado 723660" d="M361.262,538.156a.547.547,0,0,1-.548-.548V530.5a.548.548,0,1,1,1.1,0v7.106A.547.547,0,0,1,361.262,538.156Z" transform="translate(-360.714 -529.955)"/>
          </g>
          <g id="Grupo_1009205" data-name="Grupo 1009205" transform="translate(42.949 69.174)">
            <path id="Trazado_723661" data-name="Trazado 723661" d="M345.8,553.76h-7.078a.548.548,0,1,1,0-1.1H345.8a.548.548,0,1,1,0,1.1Z" transform="translate(-338.177 -552.665)"/>
          </g>
          <g id="Grupo_1009206" data-name="Grupo 1009206" transform="translate(52.374 80.294)">
            <path id="Trazado_723662" data-name="Trazado 723662" d="M406.075,636.736h-7.1a.548.548,0,0,1-.548-.548v-11.9a.548.548,0,0,1,.548-.548h7.1a.548.548,0,0,1,.548.548v11.9A.548.548,0,0,1,406.075,636.736Zm-6.552-1.1h6v-10.8h-6Z" transform="translate(-398.427 -623.741)"/>
          </g>
          <g id="Grupo_1009207" data-name="Grupo 1009207" transform="translate(52.374 86.043)">
            <path id="Trazado_723663" data-name="Trazado 723663" d="M406.075,661.591h-7.1a.548.548,0,0,1,0-1.1h7.1a.548.548,0,0,1,0,1.1Z" transform="translate(-398.427 -660.496)"/>
          </g>
          <g id="Grupo_1009208" data-name="Grupo 1009208" transform="translate(42.924 80.294)">
            <path id="Trazado_723664" data-name="Trazado 723664" d="M345.669,636.736h-7.1a.548.548,0,0,1-.548-.548v-11.9a.548.548,0,0,1,.548-.548h7.1a.548.548,0,0,1,.548.548v11.9A.548.548,0,0,1,345.669,636.736Zm-6.553-1.1h6v-10.8h-6Z" transform="translate(-338.021 -623.741)"/>
          </g>
          <g id="Grupo_1009209" data-name="Grupo 1009209" transform="translate(42.924 86.043)">
            <path id="Trazado_723665" data-name="Trazado 723665" d="M345.669,661.591h-7.1a.548.548,0,1,1,0-1.1h7.1a.548.548,0,0,1,0,1.1Z" transform="translate(-338.021 -660.496)"/>
          </g>
          <g id="Grupo_1009210" data-name="Grupo 1009210" transform="translate(52.224 98.48)">
            <path id="Trazado_723666" data-name="Trazado 723666" d="M405.116,752.991h-7.1a.548.548,0,0,1-.547-.548v-11.9a.548.548,0,0,1,.547-.548h7.1a.548.548,0,0,1,.548.548v11.9A.548.548,0,0,1,405.116,752.991Zm-6.553-1.1h6v-10.8h-6Z" transform="translate(-397.468 -739.996)"/>
          </g>
          <g id="Grupo_1009211" data-name="Grupo 1009211" transform="translate(52.224 104.23)">
            <path id="Trazado_723667" data-name="Trazado 723667" d="M405.116,777.846h-7.1a.548.548,0,0,1,0-1.1h7.1a.548.548,0,1,1,0,1.1Z" transform="translate(-397.468 -776.751)"/>
          </g>
          <g id="Grupo_1009212" data-name="Grupo 1009212" transform="translate(42.775 98.48)">
            <path id="Trazado_723668" data-name="Trazado 723668" d="M344.71,752.991h-7.1a.548.548,0,0,1-.548-.548v-11.9a.548.548,0,0,1,.548-.548h7.1a.548.548,0,0,1,.548.548v11.9A.548.548,0,0,1,344.71,752.991Zm-6.552-1.1h6v-10.8h-6Z" transform="translate(-337.063 -739.996)"/>
          </g>
          <g id="Grupo_1009213" data-name="Grupo 1009213" transform="translate(42.775 104.23)">
            <path id="Trazado_723669" data-name="Trazado 723669" d="M344.71,777.846h-7.1a.548.548,0,0,1,0-1.1h7.1a.548.548,0,1,1,0,1.1Z" transform="translate(-337.063 -776.751)"/>
          </g>
          <g id="Grupo_1009214" data-name="Grupo 1009214" transform="translate(33.55 80.294)">
            <path id="Trazado_723670" data-name="Trazado 723670" d="M285.743,636.736h-7.1a.548.548,0,0,1-.548-.548v-11.9a.548.548,0,0,1,.548-.548h7.1a.548.548,0,0,1,.548.548v11.9A.548.548,0,0,1,285.743,636.736Zm-6.552-1.1h6v-10.8h-6Z" transform="translate(-278.095 -623.741)"/>
          </g>
          <g id="Grupo_1009215" data-name="Grupo 1009215" transform="translate(33.55 86.043)">
            <path id="Trazado_723671" data-name="Trazado 723671" d="M285.743,661.591h-7.1a.548.548,0,0,1,0-1.1h7.1a.548.548,0,0,1,0,1.1Z" transform="translate(-278.095 -660.496)"/>
          </g>
          <g id="Grupo_1009216" data-name="Grupo 1009216" transform="translate(33.4 98.48)">
            <path id="Trazado_723672" data-name="Trazado 723672" d="M284.784,752.991h-7.1a.548.548,0,0,1-.548-.548v-11.9a.548.548,0,0,1,.548-.548h7.1a.548.548,0,0,1,.548.548v11.9A.548.548,0,0,1,284.784,752.991Zm-6.552-1.1h6v-10.8h-6Z" transform="translate(-277.136 -739.996)"/>
          </g>
          <g id="Grupo_1009217" data-name="Grupo 1009217" transform="translate(33.4 104.23)">
            <path id="Trazado_723673" data-name="Trazado 723673" d="M284.784,777.846h-7.1a.548.548,0,1,1,0-1.1h7.1a.548.548,0,1,1,0,1.1Z" transform="translate(-277.136 -776.751)"/>
          </g>
          <g id="Grupo_1009218" data-name="Grupo 1009218" transform="translate(0 59.145)">
            <path id="Trazado_723674" data-name="Trazado 723674" d="M91.729,506.2H64.186a.547.547,0,0,1-.414-.905l14.285-16.549a.547.547,0,0,1,.415-.19h29.019a.548.548,0,0,1,0,1.1H78.721L65.382,505.1H91.729a.548.548,0,0,1,0,1.1Z" transform="translate(-63.638 -488.553)"/>
          </g>
          <g id="Grupo_1009219" data-name="Grupo 1009219" transform="translate(1.305 75.694)">
            <path id="Trazado_723675" data-name="Trazado 723675" d="M98.768,641.916H72.531a.548.548,0,0,1-.548-.547V594.886a.548.548,0,1,1,1.1,0v45.935h25.69a.548.548,0,1,1,0,1.1Z" transform="translate(-71.983 -594.338)"/>
          </g>
          <g id="Grupo_1009220" data-name="Grupo 1009220" transform="translate(8.617 103.016)">
            <path id="Trazado_723676" data-name="Trazado 723676" d="M130.772,789.243h-11.5a.548.548,0,0,1-.548-.548v-19.16a.548.548,0,0,1,.548-.547h11.5a.548.548,0,0,1,.548.547v19.16A.548.548,0,0,1,130.772,789.243Zm-10.954-1.1h10.407V770.082H119.818Z" transform="translate(-118.723 -768.987)"/>
          </g>
          <g id="Grupo_1009221" data-name="Grupo 1009221" transform="translate(5.993 80.294)">
            <path id="Trazado_723677" data-name="Trazado 723677" d="M119.591,632.6h-17.1a.547.547,0,0,1-.548-.547v-7.76a.548.548,0,0,1,.548-.548h17.1a.547.547,0,0,1,.548.548v7.76A.547.547,0,0,1,119.591,632.6Zm-16.552-1.1h16v-6.664h-16Z" transform="translate(-101.944 -623.741)"/>
          </g>
          <g id="Grupo_1009222" data-name="Grupo 1009222" transform="translate(5.993 81.764)">
            <path id="Trazado_723678" data-name="Trazado 723678" d="M119.591,634.236h-17.1a.548.548,0,0,1,0-1.1h17.1a.548.548,0,0,1,0,1.1Z" transform="translate(-101.944 -633.141)"/>
          </g>
          <g id="Grupo_1009223" data-name="Grupo 1009223" transform="translate(14.542 81.886)">
            <path id="Trazado_723679" data-name="Trazado 723679" d="M157.145,641.182a.548.548,0,0,1-.548-.548v-6.167a.548.548,0,1,1,1.1,0v6.167A.548.548,0,0,1,157.145,641.182Z" transform="translate(-156.597 -633.919)"/>
          </g>
        </g>
      </g>
    </g>
  </g>
</svg>
