<svg xmlns="http://www.w3.org/2000/svg" width="260" height="155" viewBox="0 0 260 155">
  <g id="Grupo_1013481" data-name="Grupo 1013481" transform="translate(1633 9086)">
    <rect id="doctor-realizando-investigaciones-medicas-laboratorio" width="260" height="155" rx="10" transform="translate(-1633 -9086)" fill="#fff"/>
    <g id="Grupo_1008716" data-name="Grupo 1008716" transform="translate(-1602.355 -9109.433)">
      <g id="Grupo_1008713" data-name="Grupo 1008713" transform="translate(32.355 30.433)">
        <path id="Trazado_723126" data-name="Trazado 723126" d="M189.208,363.857c0,4.08-17.694,7.388-39.519,7.388s-39.52-3.308-39.52-7.388,17.694-7.388,39.52-7.388S189.208,359.777,189.208,363.857Z" transform="translate(-80.147 -230.678)" fill="#cccdcf" style="mix-blend-mode: multiply;isolation: isolate"/>
        <line id="Línea_2709" data-name="Línea 2709" x2="48.545" y2="31.274" transform="translate(2.5 31.5)" fill="none" stroke="#041123" stroke-linecap="round" stroke-linejoin="round" stroke-width="1.583" stroke-dasharray="3 3"/>
        <line id="Línea_2710" data-name="Línea 2710" y1="33" transform="translate(69.5 12.5)" fill="none" stroke="#041123" stroke-linecap="round" stroke-linejoin="round" stroke-width="1.583" stroke-dasharray="3 3"/>
        <line id="Línea_2711" data-name="Línea 2711" y1="30" x2="54" transform="translate(85.5 39.5)" fill="none" stroke="#041123" stroke-linecap="round" stroke-linejoin="round" stroke-width="1.583" stroke-dasharray="3 3"/>
        <g id="Grupo_1008683" data-name="Grupo 1008683" transform="translate(31.409 28.642)">
          <path id="Trazado_723127" data-name="Trazado 723127" d="M190.029,144.69,151.6,104.669l-37.84,40.021h6.212v61.44h63.719V144.69Z" transform="translate(-113.763 -104.669)" fill="#00a2e5"/>
          <path id="Trazado_723128" data-name="Trazado 723128" d="M208.527,104.669l-2.081,2.2v99.26h4.416V107.1Z" transform="translate(-170.687 -104.669)" fill="#fff"/>
          <path id="Trazado_723129" data-name="Trazado 723129" d="M161.491,122.131l32.092,33.346V149.5l-32.092-33.822-31.6,33.388-.026,6.559Z" transform="translate(-123.652 -111.433)" fill="#004e83"/>
          <g id="Grupo_1008677" data-name="Grupo 1008677" transform="translate(28.793 71.314)">
            <rect id="Rectángulo_348383" data-name="Rectángulo 348383" width="18.348" height="30.147" fill="#00375a"/>
            <rect id="Rectángulo_348384" data-name="Rectángulo 348384" width="13.959" height="10.824" transform="translate(2.066 17.113)" fill="#253b54"/>
            <rect id="Rectángulo_348385" data-name="Rectángulo 348385" width="13.959" height="2.399" transform="translate(2.066 13.788)" fill="#253b54"/>
            <g id="Grupo_1008676" data-name="Grupo 1008676" transform="translate(2.066 1.98)">
              <rect id="Rectángulo_348386" data-name="Rectángulo 348386" width="13.959" height="10.794" fill="#fff"/>
              <rect id="Rectángulo_348387" data-name="Rectángulo 348387" width="12.436" height="9.488" transform="translate(0.762 0.653)" fill="#f98823"/>
              <path id="Trazado_723130" data-name="Trazado 723130" d="M204.749,296.333l-4.88,9.488h2.415l4.907-9.488Z" transform="translate(-197.506 -295.68)" fill="#fff" opacity="0.3"/>
              <path id="Trazado_723131" data-name="Trazado 723131" d="M213.07,296.333l-4.892,9.488h2.429l4.737-9.488Z" transform="translate(-202.61 -295.68)" fill="#fff" opacity="0.3"/>
            </g>
          </g>
          <g id="Grupo_1008678" data-name="Grupo 1008678" transform="translate(13.29 38.224)">
            <rect id="Rectángulo_348388" data-name="Rectángulo 348388" width="17.665" height="16.876" fill="#fff"/>
            <rect id="Rectángulo_348389" data-name="Rectángulo 348389" width="15.246" height="14.563" transform="translate(1.209 1.156)" fill="#f98823"/>
            <path id="Trazado_723132" data-name="Trazado 723132" d="M160.711,206.738l-9.368,7.977V219l13.589-12.267Z" transform="translate(-150.134 -205.582)" fill="#fff" opacity="0.3"/>
            <path id="Trazado_723133" data-name="Trazado 723133" d="M166.09,206.738,151.343,220.18V221.3h2.794l12.452-11.38v-3.183Z" transform="translate(-150.134 -205.582)" fill="#fff" opacity="0.3"/>
            <rect id="Rectángulo_348390" data-name="Rectángulo 348390" width="15.712" height="1.63" transform="translate(0.9 4.416)" fill="#fff"/>
          </g>
          <g id="Grupo_1008679" data-name="Grupo 1008679" transform="translate(45.268 38.224)">
            <rect id="Rectángulo_348391" data-name="Rectángulo 348391" width="17.665" height="16.876" fill="#fff"/>
            <rect id="Rectángulo_348392" data-name="Rectángulo 348392" width="15.246" height="14.563" transform="translate(1.209 1.156)" fill="#f98823"/>
            <path id="Trazado_723134" data-name="Trazado 723134" d="M243.6,206.738l-9.368,7.977V219l13.589-12.267Z" transform="translate(-233.018 -205.582)" fill="#fff" opacity="0.3"/>
            <path id="Trazado_723135" data-name="Trazado 723135" d="M248.974,206.738,234.227,220.18V221.3h2.794l12.452-11.38v-3.183Z" transform="translate(-233.018 -205.582)" fill="#fff" opacity="0.3"/>
            <rect id="Rectángulo_348393" data-name="Rectángulo 348393" width="15.712" height="1.63" transform="translate(0.901 4.416)" fill="#fff"/>
          </g>
          <g id="Grupo_1008682" data-name="Grupo 1008682" transform="translate(14.23 64.993)">
            <g id="Grupo_1008680" data-name="Grupo 1008680">
              <rect id="Rectángulo_348394" data-name="Rectángulo 348394" width="10.813" height="22.332" fill="#fff"/>
              <rect id="Rectángulo_348395" data-name="Rectángulo 348395" width="8.204" height="19.416" transform="translate(1.305 1.459)" fill="#f98823"/>
              <path id="Trazado_723136" data-name="Trazado 723136" d="M161.141,276.9l-7.114,14.4v2.482l8.2-15.868V276.9Z" transform="translate(-152.723 -275.446)" fill="#fff" opacity="0.3"/>
              <path id="Trazado_723137" data-name="Trazado 723137" d="M154.027,301.525h1.331l6.873-13.846v-2.3Z" transform="translate(-152.723 -280.651)" fill="#fff" opacity="0.3"/>
            </g>
            <g id="Grupo_1008681" data-name="Grupo 1008681" transform="translate(36.505)">
              <rect id="Rectángulo_348396" data-name="Rectángulo 348396" width="10.813" height="22.332" fill="#fff"/>
              <rect id="Rectángulo_348397" data-name="Rectángulo 348397" width="8.204" height="19.416" transform="translate(1.304 1.459)" fill="#f98823"/>
              <path id="Trazado_723138" data-name="Trazado 723138" d="M255.757,276.9l-7.114,14.4v2.482l8.2-15.868V276.9Z" transform="translate(-247.339 -275.446)" fill="#fff" opacity="0.3"/>
              <path id="Trazado_723139" data-name="Trazado 723139" d="M248.643,301.525h1.331l6.873-13.846v-2.3Z" transform="translate(-247.339 -280.651)" fill="#fff" opacity="0.3"/>
            </g>
          </g>
          <rect id="Rectángulo_348398" data-name="Rectángulo 348398" width="69.304" height="3.645" transform="translate(3.186 59.402)" fill="#00375a"/>
          <rect id="Rectángulo_348399" data-name="Rectángulo 348399" width="63.798" height="4.04" transform="translate(6.212 101.461)" fill="#1f3352"/>
          <path id="Trazado_723140" data-name="Trazado 723140" d="M151.6,111.118l32.234,33.572h6.192L151.6,104.669l-37.84,40.021h6.1Z" transform="translate(-113.763 -104.669)" fill="#00375a"/>
        </g>
        <g id="Grupo_1008686" data-name="Grupo 1008686" transform="translate(-17 11.078)">
          <circle id="Elipse_8724" data-name="Elipse 8724" cx="14.101" cy="14.101" r="14.101" transform="translate(0 19.942) rotate(-45)" fill="#253b54"/>
          <g id="Grupo_1008685" data-name="Grupo 1008685" transform="translate(12.444 8.737)">
            <path id="Trazado_723141" data-name="Trazado 723141" d="M72.115,92.721a7.594,7.594,0,0,0-7.505,7.63,7.386,7.386,0,0,0,1.505,4.6c2.2,3.264,2.1,5.775,2.027,6.43a.618.618,0,0,0-.024.167c0,.81,1.507,1.466,4,1.466s3.869-.656,3.869-1.466a11.108,11.108,0,0,1,1.55-5.921,10.917,10.917,0,0,0,2.086-5.279A7.569,7.569,0,0,0,72.115,92.721Z" transform="translate(-64.609 -92.721)" fill="#f98823"/>
            <g id="Grupo_1008684" data-name="Grupo 1008684" transform="translate(5.36 9.928)">
              <line id="Línea_2713" data-name="Línea 2713" x1="1.488" y1="8.517" fill="none" stroke="#fee0d4" stroke-linecap="round" stroke-linejoin="round" stroke-width="0.905"/>
              <line id="Línea_2714" data-name="Línea 2714" y1="8.517" x2="1.489" transform="translate(2.802)" fill="none" stroke="#fee0d4" stroke-linecap="round" stroke-linejoin="round" stroke-width="0.905"/>
            </g>
            <path id="Trazado_723142" data-name="Trazado 723142" d="M82.281,115.214l-1.018-1.61-1.017,1.61-1.017-1.61-1.018,1.61-1-1.61-1.017,1.61" transform="translate(-71.726 -105.547)" fill="none" stroke="#fee0d4" stroke-linecap="round" stroke-linejoin="round" stroke-width="0.905"/>
            <path id="Trazado_723143" data-name="Trazado 723143" d="M82.191,148.164a.6.6,0,0,1-.591.6H77.265a.6.6,0,0,1-.591-.6v-.076a.6.6,0,0,1,.591-.6H81.6a.6.6,0,0,1,.591.6Z" transform="translate(-72.019 -126.357)" fill="#fff"/>
            <path id="Trazado_723144" data-name="Trazado 723144" d="M80.451,139.012H73.49a.9.9,0,0,0-.9.9v.3a.9.9,0,0,0,.9.9h.019a.786.786,0,0,0-.211.538v.259a.766.766,0,0,0,.755.778h5.836a.766.766,0,0,0,.755-.778v-.259a.786.786,0,0,0-.211-.538h.019a.9.9,0,0,0,.9-.9v-.3A.9.9,0,0,0,80.451,139.012Z" transform="translate(-69.511 -121.152)" fill="#fff"/>
          </g>
        </g>
        <g id="Grupo_1008688" data-name="Grupo 1008688" transform="translate(55.399 -2)">
          <path id="Trazado_723145" data-name="Trazado 723145" d="M157.961,44.534a14.1,14.1,0,1,1-14.1-14.1A14.1,14.1,0,0,1,157.961,44.534Z" transform="translate(-129.759 -30.433)" fill="#253b54"/>
          <g id="Grupo_1008687" data-name="Grupo 1008687" transform="translate(5.95 2.061)">
            <path id="Trazado_723146" data-name="Trazado 723146" d="M158.811,42.093c-.964,3.07-2.463,2.357-2.463,2.357,1.285-3.677-.036-5.105-.036-5.105-.714,2.535-2.213,2.284-2.213,2.284.928-3.962-1.428-5.854-1.428-5.854a4.489,4.489,0,0,1-1.357,4.427c-.678.678-1.428-2.534-1.428-2.534a10.04,10.04,0,0,0-.5,9c-1.909-.546-1.487-2.708-1.487-2.708a9.712,9.712,0,0,0-2.618,8.277c.411,3.738,3.369,6.207,7.51,6.207,4.533,0,6.7-2.3,7.292-6.15C161.156,45.274,158.811,42.093,158.811,42.093Z" transform="translate(-145.181 -35.774)" fill="#f98823"/>
            <path id="Trazado_723147" data-name="Trazado 723147" d="M161.232,57.389c-.652,1.945-1.665,1.493-1.665,1.493.869-2.33-.024-3.234-.024-3.234-.483,1.606-1.5,1.448-1.5,1.448a3.507,3.507,0,0,0-.965-3.709,2.743,2.743,0,0,1-.917,2.8c-.459.429-.966-1.606-.966-1.606a6.005,6.005,0,0,0-.338,5.7,1.445,1.445,0,0,1-1.006-1.716,5.9,5.9,0,0,0-1.77,5.244c.278,2.368,2.279,3.933,5.079,3.933,3.066,0,4.533-1.456,4.931-3.9C162.818,59.4,161.232,57.389,161.232,57.389Z" transform="translate(-149.378 -46.591)" fill="#c41c7f"/>
          </g>
        </g>
        <g id="Grupo_1008706" data-name="Grupo 1008706" transform="translate(125.894 22.76)">
          <path id="Trazado_723148" data-name="Trazado 723148" d="M254.675,44.534a14.1,14.1,0,1,1-14.1-14.1A14.1,14.1,0,0,1,254.675,44.534Z" transform="translate(-226.473 -30.433)" fill="#253b54"/>
          <g id="Grupo_1008705" data-name="Grupo 1008705" transform="translate(9.542 2.822)">
            <rect id="Rectángulo_348400" data-name="Rectángulo 348400" width="10.217" height="21.143" fill="#fff"/>
            <path id="Trazado_723149" data-name="Trazado 723149" d="M261.093,54.152V41.834c0-.5-.541-.9-1.207-.9s-1.207.4-1.207.9V54.152a2.866,2.866,0,1,0,2.414,0Z" transform="translate(-254.777 -39.703)" fill="#00a2e5"/>
            <path id="Trazado_723150" data-name="Trazado 723150" d="M262.147,56.849V44.217a.5.5,0,1,0-.989,0V56.849a1.756,1.756,0,1,0,.989,0Z" transform="translate(-256.544 -41.409)" fill="#b82484"/>
            <g id="Grupo_1008696" data-name="Grupo 1008696" transform="translate(1.341 3.351)">
              <g id="Grupo_1008695" data-name="Grupo 1008695">
                <g id="Grupo_1008689" data-name="Grupo 1008689">
                  <rect id="Rectángulo_348401" data-name="Rectángulo 348401" width="1.805" height="0.367" fill="#00a2e5"/>
                </g>
                <g id="Grupo_1008690" data-name="Grupo 1008690" transform="translate(0 1.844)">
                  <rect id="Rectángulo_348402" data-name="Rectángulo 348402" width="1.805" height="0.367" fill="#00a2e5"/>
                </g>
                <g id="Grupo_1008691" data-name="Grupo 1008691" transform="translate(0 3.688)">
                  <rect id="Rectángulo_348403" data-name="Rectángulo 348403" width="1.805" height="0.367" fill="#00a2e5"/>
                </g>
                <g id="Grupo_1008692" data-name="Grupo 1008692" transform="translate(0 5.532)">
                  <rect id="Rectángulo_348404" data-name="Rectángulo 348404" width="1.805" height="0.367" fill="#00a2e5"/>
                </g>
                <g id="Grupo_1008693" data-name="Grupo 1008693" transform="translate(0 7.376)">
                  <rect id="Rectángulo_348405" data-name="Rectángulo 348405" width="1.805" height="0.367" fill="#00a2e5"/>
                </g>
                <g id="Grupo_1008694" data-name="Grupo 1008694" transform="translate(0 9.22)">
                  <rect id="Rectángulo_348406" data-name="Rectángulo 348406" width="1.805" height="0.367" fill="#00a2e5"/>
                </g>
              </g>
            </g>
            <g id="Grupo_1008704" data-name="Grupo 1008704" transform="translate(6.971 3.351)">
              <g id="Grupo_1008703" data-name="Grupo 1008703">
                <g id="Grupo_1008697" data-name="Grupo 1008697">
                  <rect id="Rectángulo_348407" data-name="Rectángulo 348407" width="1.805" height="0.367" fill="#00a2e5"/>
                </g>
                <g id="Grupo_1008698" data-name="Grupo 1008698" transform="translate(0 1.844)">
                  <rect id="Rectángulo_348408" data-name="Rectángulo 348408" width="1.805" height="0.367" fill="#00a2e5"/>
                </g>
                <g id="Grupo_1008699" data-name="Grupo 1008699" transform="translate(0 3.688)">
                  <rect id="Rectángulo_348409" data-name="Rectángulo 348409" width="1.805" height="0.367" fill="#00a2e5"/>
                </g>
                <g id="Grupo_1008700" data-name="Grupo 1008700" transform="translate(0 5.532)">
                  <rect id="Rectángulo_348410" data-name="Rectángulo 348410" width="1.805" height="0.367" fill="#00a2e5"/>
                </g>
                <g id="Grupo_1008701" data-name="Grupo 1008701" transform="translate(0 7.376)">
                  <rect id="Rectángulo_348411" data-name="Rectángulo 348411" width="1.805" height="0.367" fill="#00a2e5"/>
                </g>
                <g id="Grupo_1008702" data-name="Grupo 1008702" transform="translate(0 9.22)">
                  <rect id="Rectángulo_348412" data-name="Rectángulo 348412" width="1.805" height="0.367" fill="#00a2e5"/>
                </g>
              </g>
            </g>
          </g>
        </g>
      </g>
    </g>
  </g>
</svg>
