<svg xmlns="http://www.w3.org/2000/svg" xmlns:xlink="http://www.w3.org/1999/xlink" width="260" height="155.669" viewBox="0 0 260 155.669">
  <defs>
    <clipPath id="clip-path">
      <path id="Rectángulo_348417" data-name="Rectángulo 348417" d="M0,0H113.532a0,0,0,0,1,0,0V.971A56.766,56.766,0,0,1,56.766,57.737h0A56.766,56.766,0,0,1,0,.971V0A0,0,0,0,1,0,0Z" transform="translate(113.532 57.737) rotate(180)" fill="none"/>
    </clipPath>
    <clipPath id="clip-path-2">
      <path id="SVGID" d="M1370.013,660.025c15.05-2.021,16.587,15.983.317,19.235S1348.366,662.933,1370.013,660.025Z" transform="translate(-1355.864 -659.867)" fill="none"/>
    </clipPath>
    <clipPath id="clip-path-3">
      <path id="SVGID-2" data-name="SVGID" d="M1276.233,659.425c12.994-5.3,22.365,11.377,8.789,18.118S1257.544,667.053,1276.233,659.425Z" transform="translate(-1267.175 -658.4)" fill="none"/>
    </clipPath>
    <clipPath id="clip-path-4">
      <path id="Trazado_723294" data-name="Trazado 723294" d="M1207.264,658.8h-5.358a5.82,5.82,0,0,0-5.819,5.82V677.1H1082.554V664.622a5.82,5.82,0,0,0-5.82-5.82h-5.358a5.82,5.82,0,0,0-5.82,5.82v38.42h147.526v-38.42A5.82,5.82,0,0,0,1207.264,658.8Z" transform="translate(-1065.557 -658.802)" fill="none"/>
    </clipPath>
  </defs>
  <g id="Grupo_1013482" data-name="Grupo 1013482" transform="translate(1633 8776)">
    <rect id="doctor-realizando-investigaciones-medicas-laboratorio" width="260" height="155" rx="10" transform="translate(-1633 -8776)" fill="#fff"/>
    <g id="Grupo_1008761" data-name="Grupo 1008761" transform="translate(-2466.835 -9012.395)">
      <g id="BACKGROUND" transform="translate(855.835 354.879)">
        <path id="Trazado_723151" data-name="Trazado 723151" d="M855.835,797.189H1072V788.3H858.175Z" transform="translate(-855.835 -788.305)" fill="#acdaf4" opacity="0.5" style="mix-blend-mode: multiply;isolation: isolate"/>
      </g>
      <g id="OBJECTS" transform="translate(866.495 244.394)">
        <g id="Grupo_1008726" data-name="Grupo 1008726" transform="translate(64.244)">
          <g id="Grupo_1008719" data-name="Grupo 1008719" transform="translate(17.896 15.153)">
            <g id="Grupo_1008718" data-name="Grupo 1008718" transform="translate(21.045)">
              <path id="Trazado_723152" data-name="Trazado 723152" d="M1437.115,322.718c.406-1.351,2.63-3.994,3.887-3.7s-.586,2.53-.586,2.53" transform="translate(-1432.884 -318.991)" fill="#e9a493"/>
              <g id="Grupo_1008717" data-name="Grupo 1008717" transform="translate(0 0.26)">
                <path id="Trazado_723153" data-name="Trazado 723153" d="M1423.817,322.565s3.439-3.481,4.422-1.862c1.035,1.7-2.018,2.372-2.018,2.372s2.382-1.906,3.14-.651c.843,1.4-2.236,2.615-2.236,2.615s2.151-1.832,2.9-.325c.683,1.371-2.191,2.19-2.191,2.19s1.133-1.108,1.815-.038-1.464,2.359-4.321,3.267a51.808,51.808,0,0,1-2.887,6.682l-6.158-6.637a24.181,24.181,0,0,0,4.231-6.437" transform="translate(-1416.284 -320.273)" fill="#e9a493"/>
                <path id="Trazado_723154" data-name="Trazado 723154" d="M1417.37,361.941l.969-2.038,7.254,4.014-2.286,4.476Z" transform="translate(-1417.15 -351.853)" fill="#fff"/>
                <path id="Trazado_723155" data-name="Trazado 723155" d="M1470.649,328.284a12.258,12.258,0,0,0-1.223.674" transform="translate(-1458.631 -326.657)" fill="none" stroke="#ab6453" stroke-miterlimit="10" stroke-width="1.618"/>
                <path id="Trazado_723156" data-name="Trazado 723156" d="M1450.548,329.762a12.239,12.239,0,0,0-1.223.674" transform="translate(-1442.614 -327.835)" fill="none" stroke="#ab6453" stroke-miterlimit="10" stroke-width="1.618"/>
                <line id="Línea_2715" data-name="Línea 2715" x1="1.195" y2="0.746" transform="translate(11.617 3.666)" fill="none" stroke="#ab6453" stroke-miterlimit="10" stroke-width="1.618"/>
                <line id="Línea_2716" data-name="Línea 2716" x1="0.87" y2="0.375" transform="translate(12.181 6.01)" fill="none" stroke="#ab6453" stroke-miterlimit="10" stroke-width="1.618"/>
              </g>
            </g>
            <path id="Trazado_723157" data-name="Trazado 723157" d="M1319.5,366.361l7.893,7.677,6.893-9.844s9.1,4.748,8.887,4.951-7.31,15.046-12.1,16.949-18.387-10.238-18.387-10.238" transform="translate(-1312.683 -355.012)" fill="#51aee6"/>
          </g>
          <g id="Grupo_1008720" data-name="Grupo 1008720" transform="translate(33.51)">
            <path id="Trazado_723158" data-name="Trazado 723158" d="M1394.829,283.57c3.857-1.313,7.218,3.3-2.79,9.745C1386.694,284.315,1391.082,280.9,1394.829,283.57Z" transform="translate(-1389.554 -274.906)" fill="#288d8a"/>
            <path id="Trazado_723159" data-name="Trazado 723159" d="M1429.983,246.265c2.434.955,2.171,4.606-5.4,3.619C1425.688,243.26,1429.255,243.4,1429.983,246.265Z" transform="translate(-1417.464 -244.394)" fill="#288d8a"/>
            <path id="Trazado_723160" data-name="Trazado 723160" d="M1446.038,307.1c.343-6.268-5.132-5.1-6.075-2.73" transform="translate(-1429.723 -290.674)" fill="#a5d3d4"/>
            <path id="Trazado_723161" data-name="Trazado 723161" d="M1420.683,280.062c.159-4.146-4.646-3.135-5.029-.573" transform="translate(-1410.352 -270.582)" fill="#a5d3d4"/>
            <path id="Trazado_723162" data-name="Trazado 723162" d="M1457.479,263.662c-3.94-1.037-6.966,3.8,3.473,9.523C1465.647,263.83,1461.028,260.729,1457.479,263.662Z" transform="translate(-1440.768 -258.899)" fill="#288d8a"/>
            <path id="Trazado_723163" data-name="Trazado 723163" d="M1440.9,277.761s-3.736-9.247-.015-14.852c1.655-3.284,4.4-3.36,4.96-.831" transform="translate(-1429.145 -257.069)" fill="#a5d3d4"/>
            <path id="Trazado_723164" data-name="Trazado 723164" d="M1452.5,252.577c2.241-1.1-.884-3.044-2.712-1.04" transform="translate(-1437.553 -249.394)" fill="#a5d3d4"/>
            <path id="Trazado_723165" data-name="Trazado 723165" d="M1433.034,319.993c.132-2.776,1.136-2.473,1.5-1.953" transform="translate(-1424.202 -302.806)" fill="#a5d3d4"/>
            <path id="Trazado_723166" data-name="Trazado 723166" d="M1444.193,278.456c.75-.335,2.316.1,1.493,2.661" transform="translate(-1433.094 -271.458)" fill="#a5d3d4"/>
            <path id="Trazado_723167" data-name="Trazado 723167" d="M1435.334,286.828c2.409-1.016,5.992,2.352-1.341,6.365C1428.486,286.954,1432.813,285.287,1435.334,286.828Z" transform="translate(-1422.84 -277.78)" fill="#288d8a"/>
            <path id="Trazado_723168" data-name="Trazado 723168" d="M1412.132,343.631v-4.552h12.059v4.552a7.316,7.316,0,0,0,.675,3.069l.77,1.666a7.316,7.316,0,0,1,.675,3.069h0A7.315,7.315,0,0,1,1419,358.75h-1.669a7.315,7.315,0,0,1-7.315-7.315h0a7.316,7.316,0,0,1,.675-3.069l.77-1.666A7.313,7.313,0,0,0,1412.132,343.631Z" transform="translate(-1405.856 -319.846)" fill="#fff"/>
            <path id="Trazado_723169" data-name="Trazado 723169" d="M1452.1,316.115c3.42-1.542,8.019,2.7,0,9.66C1444.316,317.4,1447.665,313.776,1452.1,316.115Z" transform="translate(-1435.677 -300.991)" fill="#288d8a" stroke="#29716e" stroke-miterlimit="10" stroke-width="1"/>
            <path id="Trazado_723170" data-name="Trazado 723170" d="M1419.363,322.96c2.515-.715,4.518,2.348-2.106,6.154C1414.125,323.172,1417.049,321.124,1419.363,322.96Z" transform="translate(-1410.542 -306.482)" fill="#288d8a"/>
          </g>
          <path id="Trazado_723171" data-name="Trazado 723171" d="M1264.722,289.447c-4.348-1.572-8.478-1.208-9.373,2.676a29.521,29.521,0,0,1-3.037,8c-2.015,3.336.427,7.721,4.13,7.346a30.215,30.215,0,0,1,6.441.362,3.693,3.693,0,0,0,3.951-4.171c-.357-3.924-.36-9.5-.423-10.53A9.328,9.328,0,0,0,1264.722,289.447Z" transform="translate(-1246.102 -279.601)" fill="#59240b"/>
          <path id="Trazado_723172" data-name="Trazado 723172" d="M1263.481,366.281a15.351,15.351,0,0,0,.688-3.167,40.48,40.48,0,0,0-7.351-2.608l-4.359-.12a20.842,20.842,0,0,0-2.94,1.064,21.1,21.1,0,0,0-5.332,3.453l.344.962A24.533,24.533,0,0,0,1263.481,366.281Z" transform="translate(-1240.205 -336.825)" fill="#e9a493"/>
          <path id="Trazado_723173" data-name="Trazado 723173" d="M1245.217,367.056c-14.134,4.248,7.1,13.315,11.628,13.872,4.491.552,6.465-13.079.8-14.374a2.455,2.455,0,0,1-1.948,2.576C1250.579,370.827,1245.881,367.537,1245.217,367.056Z" transform="translate(-1237.212 -341.74)" fill="#fff"/>
          <path id="Trazado_723174" data-name="Trazado 723174" d="M1285.1,335.791l-1.338,5.662a4.08,4.08,0,0,0,5.341,1.43,29.953,29.953,0,0,0,1.419-4.609" transform="translate(-1271.74 -317.226)" fill="#e9a493"/>
          <path id="Trazado_723175" data-name="Trazado 723175" d="M1229.673,508.191s-3.092,15.637-5.089,23.022c16.188,11.738,32.779.56,32.779.56l-7.207-23.705A28.969,28.969,0,0,1,1229.673,508.191Z" transform="translate(-1224.584 -454.508)" fill="#373c40"/>
          <g id="Grupo_1008722" data-name="Grupo 1008722" transform="translate(1.8 25.238)">
            <g id="Grupo_1008721" data-name="Grupo 1008721">
              <path id="Trazado_723176" data-name="Trazado 723176" d="M1241.709,370.974a4.472,4.472,0,0,0-5.312-.736,5.882,5.882,0,0,0-2.7,3.727c-1.048,3.195,1.492,17.2,1.931,25.195,6.882,2.73,21.652,2.671,23.009-.969.32-15.647,2.95-28.673-5.51-29.552.017.058.712,9.985-6.509,6.542a11.3,11.3,0,0,1-3.449-2.612Z" transform="translate(-1233.443 -368.638)" fill="#51aee6"/>
            </g>
          </g>
          <path id="Trazado_723177" data-name="Trazado 723177" d="M1288.248,304.621c2.835,3.008,4.135,3.036,4.976,3,2.523-.1,3.245-.753,3.405-5.4.124-3.587-.22-6.539-2.129-6.51S1286.177,292.98,1288.248,304.621Z" transform="translate(-1274.991 -285.078)" fill="#e9a493"/>
          <path id="Trazado_723178" data-name="Trazado 723178" d="M1302.042,351.044a6.15,6.15,0,0,0,2.6.95" transform="translate(-1286.308 -329.38)" fill="none" stroke="#ab6453" stroke-miterlimit="10" stroke-width="0.25"/>
          <path id="Trazado_723179" data-name="Trazado 723179" d="M1326.672,327.264c0,.211.128.36.283.333a.421.421,0,0,0,.278-.432c0-.211-.128-.36-.283-.333A.421.421,0,0,0,1326.672,327.264Z" transform="translate(-1305.935 -310.084)" fill="#21262b"/>
          <path id="Trazado_723180" data-name="Trazado 723180" d="M1314.277,327.143c0,.211.128.36.283.333a.422.422,0,0,0,.278-.432c0-.211-.128-.36-.283-.333A.421.421,0,0,0,1314.277,327.143Z" transform="translate(-1296.058 -309.988)" fill="#21262b"/>
          <path id="Trazado_723181" data-name="Trazado 723181" d="M1470.4,318.849a13.467,13.467,0,0,1,.319,7.449" transform="translate(-1420.465 -303.725)" fill="none" stroke="#5f823c" stroke-linecap="round" stroke-linejoin="round" stroke-width="1.618"/>
          <path id="Trazado_723182" data-name="Trazado 723182" d="M1446.511,288.331a23.129,23.129,0,0,0-1.137,5.4" transform="translate(-1400.525 -279.406)" fill="none" stroke="#29716e" stroke-linecap="round" stroke-linejoin="round" stroke-width="1.618"/>
          <path id="Trazado_723183" data-name="Trazado 723183" d="M1404.826,287.631s-2.559,4.549-2.843,8.53" transform="translate(-1365.947 -278.848)" fill="none" stroke="#29716e" stroke-linecap="round" stroke-linejoin="round" stroke-width="1.618"/>
          <path id="Trazado_723184" data-name="Trazado 723184" d="M1426.784,324.724a10.277,10.277,0,0,0-1.706,5.118" transform="translate(-1384.352 -308.407)" fill="none" stroke="#29716e" stroke-linecap="round" stroke-linejoin="round" stroke-width="1.618"/>
          <path id="Trazado_723185" data-name="Trazado 723185" d="M1473.369,266.635s2.7,2.559,2.7,7.961" transform="translate(-1422.833 -262.117)" fill="none" stroke="#29716e" stroke-linecap="round" stroke-linejoin="round" stroke-width="1.618"/>
          <path id="Trazado_723186" data-name="Trazado 723186" d="M1433.4,251.937s-3.27,1.706-4.123,3.128" transform="translate(-1387.698 -250.405)" fill="none" stroke="#29716e" stroke-linecap="round" stroke-linejoin="round" stroke-width="1.618"/>
          <path id="Trazado_723187" data-name="Trazado 723187" d="M1323.322,332.293c.7-.153.777.745-.208.961" transform="translate(-1303.099 -314.424)" fill="none" stroke="#ab6453" stroke-miterlimit="10" stroke-width="0.25"/>
          <path id="Trazado_723188" data-name="Trazado 723188" d="M1315.688,341.022c.275.506.993.276,1.234.258" transform="translate(-1297.182 -321.394)" fill="none" stroke="#ab6453" stroke-miterlimit="10" stroke-width="0.25"/>
          <path id="Trazado_723189" data-name="Trazado 723189" d="M1327.238,320.463a.91.91,0,0,0-.566-.252" transform="translate(-1305.935 -304.81)" fill="none" stroke="#59240b" stroke-miterlimit="10" stroke-width="0.25"/>
          <path id="Trazado_723190" data-name="Trazado 723190" d="M1314.069,319.74a1.125,1.125,0,0,0-.757.347" transform="translate(-1295.289 -304.435)" fill="none" stroke="#59240b" stroke-miterlimit="10" stroke-width="0.25"/>
          <path id="Trazado_723191" data-name="Trazado 723191" d="M1289.014,293.936s1.093,1.11-3.076,4.927c-2,1.834-8.16-9.151,3.2-7.682,3.347.3,3.8,3.8,3.86,4.979S1290.857,296.012,1289.014,293.936Z" transform="translate(-1270.711 -281.57)" fill="#59240b"/>
          <path id="Trazado_723192" data-name="Trazado 723192" d="M1319.557,302.258s-2.076-.836-2.518-2.229" transform="translate(-1298.259 -288.728)" fill="none" stroke="#4a170c" stroke-linecap="round" stroke-linejoin="round" stroke-width="1.618"/>
          <path id="Trazado_723193" data-name="Trazado 723193" d="M1299.464,300.029s.343,2.507-.958,2.714a2.447,2.447,0,0,0-1.742,1.638" transform="translate(-1282.102 -288.728)" fill="none" stroke="#4a170c" stroke-linecap="round" stroke-linejoin="round" stroke-width="1.618"/>
          <path id="Trazado_723194" data-name="Trazado 723194" d="M1293.752,297.833c0,1.455-2.036,1.8-2.488,3.661" transform="translate(-1277.719 -286.978)" fill="none" stroke="#4a170c" stroke-linecap="round" stroke-linejoin="round" stroke-width="1.618"/>
          <path id="Trazado_723195" data-name="Trazado 723195" d="M1268.055,295.449c-.194,1.4-3.086,1.449-3.184,4.145s-1.471,6.312-3.824,6.342" transform="translate(-1253.64 -285.078)" fill="none" stroke="#4a170c" stroke-linecap="round" stroke-linejoin="round" stroke-width="1.618"/>
          <path id="Trazado_723196" data-name="Trazado 723196" d="M1273.91,302.14a6.728,6.728,0,0,0-1.52,4.236" transform="translate(-1262.679 -290.41)" fill="none" stroke="#4a170c" stroke-linecap="round" stroke-linejoin="round" stroke-width="1.618"/>
          <path id="Trazado_723197" data-name="Trazado 723197" d="M1268.865,337.092c-.049.343-.758,3.261-2.806,3.837" transform="translate(-1257.634 -318.262)" fill="none" stroke="#4a170c" stroke-linecap="round" stroke-linejoin="round" stroke-width="1.618"/>
          <path id="Trazado_723198" data-name="Trazado 723198" d="M1277.558,344.515s-.472,2.582-1.428,2.841" transform="translate(-1265.659 -324.177)" fill="none" stroke="#4a170c" stroke-linecap="round" stroke-linejoin="round" stroke-width="1.618"/>
          <path id="Trazado_723199" data-name="Trazado 723199" d="M1320.563,294.991a2.376,2.376,0,0,1,1.037,1.452" transform="translate(-1301.067 -284.713)" fill="none" stroke="#4a170c" stroke-linecap="round" stroke-linejoin="round" stroke-width="1.618"/>
          <line id="Línea_2717" data-name="Línea 2717" x1="0.322" y2="0.901" transform="translate(17.701 24.055)" fill="none" stroke="#ab6453" stroke-miterlimit="10" stroke-width="0.25"/>
          <g id="Grupo_1008725" data-name="Grupo 1008725" transform="translate(5.938 31.119)">
            <g id="Grupo_1008724" data-name="Grupo 1008724" transform="translate(26.259 1.803)">
              <path id="Trazado_723200" data-name="Trazado 723200" d="M1405.077,409.972c.485-1.325,2.862-3.831,4.1-3.468s-.735,2.491-.735,2.491" transform="translate(-1400.61 -406.469)" fill="#e9a493"/>
              <g id="Grupo_1008723" data-name="Grupo 1008723" transform="translate(0 0.453)">
                <path id="Trazado_723201" data-name="Trazado 723201" d="M1390.917,410.772s3.64-3.271,4.525-1.6c.932,1.763-2.155,2.248-2.155,2.248s2.491-1.761,3.173-.464c.759,1.444-2.387,2.478-2.387,2.478s2.256-1.7,2.916-.153c.6,1.409-2.317,2.056-2.317,2.056s1.2-1.039,1.814.07-1.6,2.268-4.508,3a25.549,25.549,0,0,0-5.53,2.224l-3.364-6.6c.291.145,3.767-.381,4.467-2.293" transform="translate(-1383.085 -408.698)" fill="#e9a493"/>
                <path id="Trazado_723202" data-name="Trazado 723202" d="M1383.314,432.827l2.064-.912,2.878,7.775-4.653,1.9Z" transform="translate(-1383.268 -427.199)" fill="#fff"/>
                <path id="Trazado_723203" data-name="Trazado 723203" d="M1438.931,416.952a12.216,12.216,0,0,0-1.261.6" transform="translate(-1426.582 -415.275)" fill="none" stroke="#ab6453" stroke-miterlimit="10" stroke-width="1.618"/>
                <path id="Trazado_723204" data-name="Trazado 723204" d="M1418.778,417.235a12.229,12.229,0,0,0-1.261.6" transform="translate(-1410.523 -415.501)" fill="none" stroke="#ab6453" stroke-miterlimit="10" stroke-width="1.618"/>
                <line id="Línea_2718" data-name="Línea 2718" x1="1.238" y2="0.674" transform="translate(11.783 3.759)" fill="none" stroke="#ab6453" stroke-miterlimit="10" stroke-width="1.618"/>
                <line id="Línea_2719" data-name="Línea 2719" x1="0.891" y2="0.322" transform="translate(12.23 6.113)" fill="none" stroke="#ab6453" stroke-miterlimit="10" stroke-width="1.618"/>
              </g>
            </g>
            <path id="Trazado_723205" data-name="Trazado 723205" d="M1264.412,402.33s7.158,9.028,8.269,9.216,11.647-2.962,11.647-2.962,3.8,9.538,3.5,9.551-13.6,6.03-18.472,4.348-11.537-9.2-11.537-9.2" transform="translate(-1257.009 -401.368)" fill="#51aee6"/>
            <path id="Trazado_723206" data-name="Trazado 723206" d="M1274.839,462.311c-3.214.764-7.041,1.395-8.674.831-4.87-1.683-12.351-9.789-12.351-9.789" transform="translate(-1253.814 -442.026)" fill="none" stroke="#2e6a90" stroke-miterlimit="10" stroke-width="0.25"/>
            <path id="Trazado_723207" data-name="Trazado 723207" d="M1286.615,397.593s7.9,9.99,9.009,10.179c.483.082,8.408-2.129,11.647-2.962" transform="translate(-1279.952 -397.593)" fill="none" stroke="#2e6a90" stroke-miterlimit="10" stroke-width="0.25"/>
          </g>
          <path id="Trazado_723208" data-name="Trazado 723208" d="M1286.359,324.555c-.9-2.749-2.533-1.4-2.323.5.16,1.455,1.211,2.267,2.021,1.356" transform="translate(-1271.944 -307.029)" fill="#e9a493"/>
          <path id="Trazado_723209" data-name="Trazado 723209" d="M1350.221,408.116c.087-.023.37-6.774.266-8.953" transform="translate(-1324.7 -367.725)" fill="none" stroke="#2e6a90" stroke-miterlimit="10" stroke-width="0.25"/>
          <path id="Trazado_723210" data-name="Trazado 723210" d="M1246.525,526.391s12.511,5.108,22.284-.148" transform="translate(-1242.068 -468.991)" fill="none" stroke="#21262b" stroke-miterlimit="10" stroke-width="1.618"/>
          <line id="Línea_2720" data-name="Línea 2720" x1="3.85" y2="20.358" transform="translate(4.457 58.807)" fill="none" stroke="#21262b" stroke-miterlimit="10" stroke-width="1.618"/>
          <path id="Trazado_723211" data-name="Trazado 723211" d="M1261.832,542.126c.518,0,5.849,1.777,6.885-4.22" transform="translate(-1254.266 -478.285)" fill="none" stroke="#21262b" stroke-miterlimit="10" stroke-width="1.618"/>
          <path id="Trazado_723212" data-name="Trazado 723212" d="M1343.833,532.075s.592,4.294,3.7,3.479" transform="translate(-1319.61 -473.638)" fill="none" stroke="#21262b" stroke-miterlimit="10" stroke-width="1.618"/>
          <path id="Trazado_723213" data-name="Trazado 723213" d="M1241.656,403.54a.481.481,0,1,1-.481-.481A.481.481,0,0,1,1241.656,403.54Z" transform="translate(-1237.422 -370.829)" fill="#51aee6"/>
          <path id="Trazado_723214" data-name="Trazado 723214" d="M1276.644,403.54a.481.481,0,1,1-.481-.481A.481.481,0,0,1,1276.644,403.54Z" transform="translate(-1265.302 -370.829)" fill="#51aee6"/>
          <circle id="Elipse_8725" data-name="Elipse 8725" cx="0.481" cy="0.481" r="0.481" transform="translate(8.701 41.064)" fill="#51aee6"/>
          <path id="Trazado_723215" data-name="Trazado 723215" d="M1275.732,496.779a.481.481,0,1,1-.481-.481A.481.481,0,0,1,1275.732,496.779Z" transform="translate(-1264.576 -445.129)" fill="#51aee6"/>
          <circle id="Elipse_8726" data-name="Elipse 8726" cx="0.481" cy="0.481" r="0.481" transform="translate(6.542 28.861)" fill="#51aee6"/>
          <path id="Trazado_723216" data-name="Trazado 723216" d="M1257.51,416.843a.481.481,0,1,1-.481-.481A.481.481,0,0,1,1257.51,416.843Z" transform="translate(-1250.055 -381.43)" fill="#51aee6"/>
          <circle id="Elipse_8727" data-name="Elipse 8727" cx="0.481" cy="0.481" r="0.481" transform="translate(5.21 48.011)" fill="#51aee6"/>
          <circle id="Elipse_8728" data-name="Elipse 8728" cx="0.481" cy="0.481" r="0.481" transform="translate(3.729 39.472)" fill="#51aee6"/>
          <path id="Trazado_723217" data-name="Trazado 723217" d="M1314.3,407.671a.481.481,0,1,1-.481-.481A.481.481,0,0,1,1314.3,407.671Z" transform="translate(-1295.312 -374.121)" fill="#51aee6"/>
          <path id="Trazado_723218" data-name="Trazado 723218" d="M1336.171,424.678a.481.481,0,1,1-.481-.481A.481.481,0,0,1,1336.171,424.678Z" transform="translate(-1312.737 -387.674)" fill="#51aee6"/>
          <path id="Trazado_723219" data-name="Trazado 723219" d="M1343.216,399.41a.481.481,0,1,1-.481-.481A.481.481,0,0,1,1343.216,399.41Z" transform="translate(-1318.352 -367.538)" fill="#51aee6"/>
          <path id="Trazado_723220" data-name="Trazado 723220" d="M1338.9,379.487a.481.481,0,1,1-.481-.481A.481.481,0,0,1,1338.9,379.487Z" transform="translate(-1314.915 -351.662)" fill="#51aee6"/>
          <path id="Trazado_723221" data-name="Trazado 723221" d="M1366.3,405a.481.481,0,1,1-.481-.481A.481.481,0,0,1,1366.3,405Z" transform="translate(-1336.745 -371.991)" fill="#51aee6"/>
          <circle id="Elipse_8729" data-name="Elipse 8729" cx="0.481" cy="0.481" r="0.481" transform="translate(27.962 36.857)" fill="#51aee6"/>
          <path id="Trazado_723222" data-name="Trazado 723222" d="M1354.211,454.017a.481.481,0,1,1-.481-.481A.481.481,0,0,1,1354.211,454.017Z" transform="translate(-1327.113 -411.053)" fill="#51aee6"/>
          <path id="Trazado_723223" data-name="Trazado 723223" d="M1312.906,454.746a.481.481,0,1,1-.481-.481A.481.481,0,0,1,1312.906,454.746Z" transform="translate(-1294.199 -411.634)" fill="#51aee6"/>
          <path id="Trazado_723224" data-name="Trazado 723224" d="M1370,479.528a.481.481,0,1,1-.481-.481A.481.481,0,0,1,1370,479.528Z" transform="translate(-1339.697 -431.382)" fill="#51aee6"/>
          <path id="Trazado_723225" data-name="Trazado 723225" d="M1334.045,489a.481.481,0,1,1-.481-.481A.481.481,0,0,1,1334.045,489Z" transform="translate(-1311.043 -438.933)" fill="#51aee6"/>
          <path id="Trazado_723226" data-name="Trazado 723226" d="M1306.833,515.973a.481.481,0,1,1-.481-.481A.481.481,0,0,1,1306.833,515.973Z" transform="translate(-1289.359 -460.424)" fill="#51aee6"/>
          <path id="Trazado_723227" data-name="Trazado 723227" d="M1340.119,509.9a.481.481,0,1,1-.481-.481A.481.481,0,0,1,1340.119,509.9Z" transform="translate(-1315.883 -455.584)" fill="#51aee6"/>
          <path id="Trazado_723228" data-name="Trazado 723228" d="M1292.5,467.623a.481.481,0,1,1-.481-.481A.481.481,0,0,1,1292.5,467.623Z" transform="translate(-1277.935 -421.895)" fill="#51aee6"/>
          <path id="Trazado_723229" data-name="Trazado 723229" d="M1311.206,486.817a.481.481,0,1,1-.481-.481A.481.481,0,0,1,1311.206,486.817Z" transform="translate(-1292.843 -437.19)" fill="#51aee6"/>
          <path id="Trazado_723230" data-name="Trazado 723230" d="M1253.136,509.17a.481.481,0,1,1-.481-.481A.481.481,0,0,1,1253.136,509.17Z" transform="translate(-1246.57 -455.003)" fill="#51aee6"/>
          <path id="Trazado_723231" data-name="Trazado 723231" d="M1382.395,449.886a.481.481,0,1,1-.481-.481A.481.481,0,0,1,1382.395,449.886Z" transform="translate(-1349.572 -407.761)" fill="#51aee6"/>
          <circle id="Elipse_8730" data-name="Elipse 8730" cx="0.481" cy="0.481" r="0.481" transform="translate(33.391 35.524)" fill="#51aee6"/>
        </g>
        <g id="Grupo_1008727" data-name="Grupo 1008727" transform="translate(143.927 1.518)">
          <path id="Trazado_723232" data-name="Trazado 723232" d="M1703.576,387.407h-1.234V267.837a14.737,14.737,0,1,0-29.474,0v17.344h-1.233V267.837a15.971,15.971,0,0,1,31.941,0Z" transform="translate(-1660.508 -251.867)" fill="#6073c9"/>
          <path id="Trazado_723233" data-name="Trazado 723233" d="M1764.751,867.516h2.613l13.933,11.62h-30.48Z" transform="translate(-1723.606 -742.459)" fill="#6073c9"/>
          <circle id="Elipse_8731" data-name="Elipse 8731" cx="10.236" cy="10.236" r="10.236" transform="translate(0 17.173) rotate(-9.217)" fill="#fff"/>
          <path id="Trazado_723234" data-name="Trazado 723234" d="M1649.8,332.237h-17.02a10.234,10.234,0,0,1,17.02,0Z" transform="translate(-1629.545 -312.286)" fill="#6073c9"/>
        </g>
        <g id="Grupo_1008729" data-name="Grupo 1008729" transform="translate(0 89.7)">
          <path id="Trazado_723235" data-name="Trazado 723235" d="M927.309,715.993s9.487-13.8,7.417-24.147c-9.486,6.727-9.141,21.215-9.141,20.7s4.829-19.49-6.382-26.562c-2.587,17.076,3.622,26.562,3.622,26.562s-3.277-18.456-10.176-20.87c-3.277,10.349,6.9,21.215,6.9,21.215s-6.037-12.764-11.211-13.281c-.517,8.279,8.969,15.7,8.969,15.7Z" transform="translate(-908.316 -685.981)" fill="#5f823c"/>
          <line id="Línea_2721" data-name="Línea 2721" x1="8.452" y2="20.008" transform="translate(16.924 8.279)" fill="none" stroke="#506e33" stroke-miterlimit="10" stroke-width="0.5"/>
          <path id="Trazado_723236" data-name="Trazado 723236" d="M970.4,704.661s3.1,14.661,1.725,23.975" transform="translate(-957.79 -700.867)" fill="none" stroke="#506e33" stroke-miterlimit="10" stroke-width="0.5"/>
          <path id="Trazado_723237" data-name="Trazado 723237" d="M933.89,730.984s6.727,12.591,6.382,20.353" transform="translate(-928.695 -721.843)" fill="none" stroke="#506e33" stroke-miterlimit="10" stroke-width="0.5"/>
          <path id="Trazado_723238" data-name="Trazado 723238" d="M916.908,768.345s7.244,7.589,8.452,12.419" transform="translate(-915.163 -751.614)" fill="none" stroke="#506e33" stroke-miterlimit="10" stroke-width="0.5"/>
          <path id="Trazado_723429" data-name="Trazado 723429" d="M9.659,0a9.659,9.659,0,0,1,9.659,9.659v6.382H0V9.659A9.659,9.659,0,0,1,9.659,0Z" transform="translate(23.823 43.983) rotate(-180)" fill="#f4d9b9" stroke="#a83f3c" stroke-width="0.5"/>
        </g>
        <g id="Grupo_1008732" data-name="Grupo 1008732" transform="translate(48.938 66.632)">
          <g id="Grupo_1008731" data-name="Grupo 1008731" clip-path="url(#clip-path)">
            <path id="Rectángulo_348416" data-name="Rectángulo 348416" d="M0,0H113.532a0,0,0,0,1,0,0V.971A56.766,56.766,0,0,1,56.766,57.737h0A56.766,56.766,0,0,1,0,.971V0A0,0,0,0,1,0,0Z" transform="translate(113.532 57.737) rotate(180)" fill="#288d8a"/>
            <g id="Grupo_1008730" data-name="Grupo 1008730" transform="translate(-18.252 -3.285)">
              <line id="Línea_2722" data-name="Línea 2722" y2="68.762" transform="translate(2.406)" fill="#a5d3d4"/>
              <line id="Línea_2723" data-name="Línea 2723" y2="68.762" transform="translate(7.539)" fill="#a5d3d4"/>
              <line id="Línea_2724" data-name="Línea 2724" y2="68.762" transform="translate(12.672)" fill="#a5d3d4"/>
              <line id="Línea_2725" data-name="Línea 2725" y2="68.762" transform="translate(17.805)" fill="#a5d3d4"/>
              <line id="Línea_2726" data-name="Línea 2726" y2="68.762" transform="translate(22.937)" fill="#a5d3d4"/>
              <line id="Línea_2727" data-name="Línea 2727" y2="68.762" transform="translate(28.07)" fill="#a5d3d4"/>
              <line id="Línea_2728" data-name="Línea 2728" y2="68.762" transform="translate(33.203)" fill="#a5d3d4"/>
              <line id="Línea_2729" data-name="Línea 2729" y2="68.762" transform="translate(38.336)" fill="#a5d3d4"/>
              <line id="Línea_2730" data-name="Línea 2730" y2="68.762" transform="translate(43.469)" fill="#a5d3d4"/>
              <line id="Línea_2731" data-name="Línea 2731" y2="68.762" transform="translate(48.601)" fill="#a5d3d4"/>
              <line id="Línea_2732" data-name="Línea 2732" y2="68.762" transform="translate(53.734)" fill="#a5d3d4"/>
              <line id="Línea_2733" data-name="Línea 2733" y2="68.762" transform="translate(58.867)" fill="#a5d3d4"/>
              <line id="Línea_2734" data-name="Línea 2734" y2="68.762" transform="translate(64)" fill="#a5d3d4"/>
              <line id="Línea_2735" data-name="Línea 2735" y2="68.762" transform="translate(69.133)" fill="#a5d3d4"/>
              <line id="Línea_2736" data-name="Línea 2736" y2="68.762" transform="translate(74.265)" fill="#a5d3d4"/>
              <line id="Línea_2737" data-name="Línea 2737" y2="68.762" transform="translate(79.398)" fill="#a5d3d4"/>
              <line id="Línea_2738" data-name="Línea 2738" y2="68.762" transform="translate(84.531)" fill="#a5d3d4"/>
              <line id="Línea_2739" data-name="Línea 2739" y2="68.762" transform="translate(89.664)" fill="#a5d3d4"/>
              <line id="Línea_2740" data-name="Línea 2740" y2="68.762" transform="translate(94.797)" fill="#a5d3d4"/>
              <line id="Línea_2741" data-name="Línea 2741" y2="68.762" transform="translate(99.929)" fill="#a5d3d4"/>
              <line id="Línea_2742" data-name="Línea 2742" y2="68.762" transform="translate(105.062)" fill="#a5d3d4"/>
              <line id="Línea_2743" data-name="Línea 2743" y2="68.762" transform="translate(110.195)" fill="#a5d3d4"/>
              <line id="Línea_2744" data-name="Línea 2744" y2="68.762" transform="translate(115.328)" fill="#a5d3d4"/>
              <line id="Línea_2745" data-name="Línea 2745" y2="68.762" transform="translate(120.461)" fill="#a5d3d4"/>
              <line id="Línea_2746" data-name="Línea 2746" y2="68.762" transform="translate(125.594)" fill="#a5d3d4"/>
              <line id="Línea_2747" data-name="Línea 2747" y2="68.762" transform="translate(130.726)" fill="#a5d3d4"/>
              <line id="Línea_2748" data-name="Línea 2748" y2="68.762" transform="translate(135.859)" fill="#a5d3d4"/>
              <line id="Línea_2749" data-name="Línea 2749" y2="68.762" transform="translate(140.992)" fill="#a5d3d4"/>
              <line id="Línea_2750" data-name="Línea 2750" y2="68.762" transform="translate(146.125)" fill="#a5d3d4"/>
              <path id="Trazado_723239" data-name="Trazado 723239" d="M1059.379,582.49h150.036" transform="translate(-1059.379 -577.16)" fill="#a5d3d4"/>
              <path id="Trazado_723240" data-name="Trazado 723240" d="M1059.379,608.73h150.036" transform="translate(-1059.379 -598.07)" fill="#a5d3d4"/>
              <path id="Trazado_723241" data-name="Trazado 723241" d="M1059.379,634.971h150.036" transform="translate(-1059.379 -618.98)" fill="#a5d3d4"/>
              <path id="Trazado_723242" data-name="Trazado 723242" d="M1059.379,661.211h150.036" transform="translate(-1059.379 -639.89)" fill="#a5d3d4"/>
              <path id="Trazado_723243" data-name="Trazado 723243" d="M1059.379,687.452h150.036" transform="translate(-1059.379 -660.801)" fill="#a5d3d4"/>
              <path id="Trazado_723244" data-name="Trazado 723244" d="M1059.379,713.692h150.036" transform="translate(-1059.379 -681.711)" fill="#a5d3d4"/>
              <path id="Trazado_723245" data-name="Trazado 723245" d="M1059.379,739.932h150.036" transform="translate(-1059.379 -702.621)" fill="#a5d3d4"/>
              <path id="Trazado_723246" data-name="Trazado 723246" d="M1059.379,766.173h150.036" transform="translate(-1059.379 -723.531)" fill="#a5d3d4"/>
              <path id="Trazado_723247" data-name="Trazado 723247" d="M1059.379,792.413h150.036" transform="translate(-1059.379 -744.441)" fill="#a5d3d4"/>
              <path id="Trazado_723248" data-name="Trazado 723248" d="M1059.379,818.654h150.036" transform="translate(-1059.379 -765.352)" fill="#a5d3d4"/>
              <path id="Trazado_723249" data-name="Trazado 723249" d="M1059.379,844.894h150.036" transform="translate(-1059.379 -786.261)" fill="#a5d3d4"/>
              <path id="Trazado_723250" data-name="Trazado 723250" d="M1059.379,871.134h150.036" transform="translate(-1059.379 -807.171)" fill="#a5d3d4"/>
            </g>
          </g>
        </g>
        <g id="Grupo_1008735" data-name="Grupo 1008735" transform="translate(90.911 84.395)">
          <g id="Grupo_1008734" data-name="Grupo 1008734" clip-path="url(#clip-path-2)">
            <path id="Trazado_723251" data-name="Trazado 723251" d="M1370.013,660.025c15.05-2.021,16.587,15.983.317,19.235S1348.366,662.933,1370.013,660.025Z" transform="translate(-1355.864 -659.867)" fill="#51aee6"/>
            <g id="Grupo_1008733" data-name="Grupo 1008733" transform="translate(2.047 2.042)">
              <path id="Trazado_723252" data-name="Trazado 723252" d="M1449.6,737.548c1.818.814.226,1.19-.351.387.7,1.994-.871,1.546-.338.163-1.5,1.638-1.62.1-.2-.254-1.669-.041-.649-1.16.147-.3-.295-1.516.743-1.76.391-.336C1450.965,736.012,1451.154,737.181,1449.6,737.548Z" transform="translate(-1431.1 -722.79)" fill="#e6f3fd"/>
              <path id="Trazado_723253" data-name="Trazado 723253" d="M1440.688,711.208c1.027,1.8-.509,1.4-.516.239-.589,2.5-1.625,1.224-.374,0-2.2,1-1.4-.712-.019-.377-1.356-.891.142-1.579.294-.243.643-1.783,1.644-1.519.52-.163C1442.718,710.247,1442.19,711.6,1440.688,711.208Z" transform="translate(-1423.707 -701.517)" fill="#e6f3fd"/>
              <path id="Trazado_723254" data-name="Trazado 723254" d="M1434.691,672.3c2.819.1.906,1.214-.267.582,1.938,1.893-.365,2.092-.364.329-1.149,2.47-2.09.828-.4-.191-2.228.693-1.448-.994.045-.391-1.162-1.543.087-2.271.346-.543C1435.718,670,1436.564,671.207,1434.691,672.3Z" transform="translate(-1418.799 -670.737)" fill="#e6f3fd"/>
              <path id="Trazado_723255" data-name="Trazado 723255" d="M1473.366,709.661c.66,2.12-.785,1.419-.56.168-1.086,2.6-1.859,1.039-.373-.061-2.383.7-1.246-1.011.057-.41-1.169-1.2.457-1.679.341-.211,1-1.812,1.936-1.354.549-.086C1475.574,708.977,1474.778,710.349,1473.366,709.661Z" transform="translate(-1449.695 -700.221)" fill="#e6f3fd"/>
              <path id="Trazado_723256" data-name="Trazado 723256" d="M1415.4,747.029c2.047.026.678.858-.183.422,1.438,1.331-.229,1.508-.259.242-.792,1.791-1.5.626-.292-.131-1.6.53-1.068-.692.026-.281-.87-1.091.024-1.633.242-.4C1416.1,745.362,1416.737,746.217,1415.4,747.029Z" transform="translate(-1403.961 -730.58)" fill="#e6f3fd"/>
              <path id="Trazado_723257" data-name="Trazado 723257" d="M1379.127,709.127c-.166,2.532-1.259,1.3-.586,0-1.977,2.495-2.124.541-.326-.186-2.491,0-.793-1.506.2-.431-.651-1.684,1.048-1.691.4-.122,1.6-1.664,2.313-.861.546.082C1381.447,709.086,1380.195,710.333,1379.127,709.127Z" transform="translate(-1374.691 -699.654)" fill="#e6f3fd"/>
              <path id="Trazado_723258" data-name="Trazado 723258" d="M1393.089,671.487c.019,2.14-1.011,1.167-.51.036-1.557,2.211-1.811.575-.3-.138-2.165.143-.787-1.223.15-.374-.675-1.381.8-1.482.338-.125,1.285-1.491,1.956-.854.48.038C1395.1,671.322,1394.1,672.442,1393.089,671.487Z" transform="translate(-1386.014 -669.92)" fill="#e6f3fd"/>
              <path id="Trazado_723259" data-name="Trazado 723259" d="M1413.219,722.322c2.035.885.266,1.318-.386.432.8,2.2-.954,1.724-.375.184-1.653,1.831-1.8.128-.229-.28-1.86-.029-.736-1.28.161-.329-.345-1.678.809-1.959.432-.376C1414.727,720.6,1414.95,721.9,1413.219,722.322Z" transform="translate(-1401.951 -710.549)" fill="#e6f3fd"/>
              <path id="Trazado_723260" data-name="Trazado 723260" d="M1379.835,736.083c2.035.885.266,1.318-.386.432.8,2.2-.953,1.724-.375.184-1.653,1.831-1.8.129-.229-.28-1.86-.029-.736-1.28.161-.329-.345-1.678.809-1.959.432-.376C1381.342,734.365,1381.566,735.661,1379.835,736.083Z" transform="translate(-1375.347 -721.514)" fill="#e6f3fd"/>
              <path id="Trazado_723261" data-name="Trazado 723261" d="M1457.7,685.254c1.236,2.151-.606,1.674-.618.287-.7,3-1.943,1.469-.448.006-2.63,1.207-1.677-.848-.024-.451-1.628-1.062.166-1.89.352-.292.765-2.135,1.965-1.823.622-.2C1460.129,684.1,1459.5,685.723,1457.7,685.254Z" transform="translate(-1436.907 -680.578)" fill="#e6f3fd"/>
              <path id="Trazado_723262" data-name="Trazado 723262" d="M1408.422,687.914c.2,2.782-1.254,1.59-.678.084-1.9,2.987-2.372.878-.407-.158-2.881.342-1.153-1.534.169-.5-1.017-1.747.948-1.985.44-.187,1.592-2.031,2.542-1.252.644.015C1411.1,687.554,1409.846,689.082,1408.422,687.914Z" transform="translate(-1397.681 -682.661)" fill="#e6f3fd"/>
              <path id="Trazado_723263" data-name="Trazado 723263" d="M1367.6,697.314c.937,1.195-.252,1.033-.365.211-.21,1.823-1.1,1-.28.033-1.554.889-1.114-.393-.049-.266-1.1-.523-.039-1.132.2-.2.317-1.317,1.091-1.21.374-.158C1369.032,696.469,1368.762,697.474,1367.6,697.314Z" transform="translate(-1365.943 -690.805)" fill="#e6f3fd"/>
            </g>
            <path id="Trazado_723264" data-name="Trazado 723264" d="M1441.007,678.483c5.485-4.176,9.48-15.424.5-18.669" transform="translate(-1423.712 -659.825)" fill="none" stroke="#2e6a90" stroke-miterlimit="10" stroke-width="0.25"/>
          </g>
        </g>
        <g id="Grupo_1008738" data-name="Grupo 1008738" transform="translate(72.895 84.097)">
          <g id="Grupo_1008737" data-name="Grupo 1008737" clip-path="url(#clip-path-3)">
            <path id="Trazado_723265" data-name="Trazado 723265" d="M1276.233,659.425c12.994-5.3,22.365,11.377,8.789,18.118S1257.544,667.053,1276.233,659.425Z" transform="translate(-1267.175 -658.4)" fill="#e39b40"/>
            <g id="Grupo_1008736" data-name="Grupo 1008736" transform="translate(1.775 1.95)">
              <path id="Trazado_723266" data-name="Trazado 723266" d="M1370.343,729.482c2.037.36.735,1.074-.153.445,1.524,1.728-.121,1.659-.24.23-.66,1.887-1.45.461-.3-.195-1.558.338-1.111-.951.006-.312-.942-1.367-.091-1.832.213-.406C1370.927,727.721,1371.619,728.784,1370.343,729.482Z" transform="translate(-1349.808 -716.11)" fill="#e39b40"/>
              <path id="Trazado_723267" data-name="Trazado 723267" d="M1351.52,705.568c1.743,1.47.148,1.436-.371.342.561,2.5-.958,1.524-.344.088-1.585,1.445-1.6-.358-.184-.352-1.645-.537-.566-1.525.164-.3-.195-1.831.846-1.807.407-.271C1352.968,704.2,1353.08,705.6,1351.52,705.568Z" transform="translate(-1334.62 -696.647)" fill="#e39b40"/>
              <path id="Trazado_723268" data-name="Trazado 723268" d="M1328.753,669.48c2.643-.545,1.372.944.011.61,2.624,1.353.587,2.06-.191.393.031,2.6-1.563,1.254-.451-.091-1.75,1.157-1.775-.613-.132-.38-1.753-1.2-.923-2.167.08-.592C1328.685,667.073,1330,668.025,1328.753,669.48Z" transform="translate(-1316.45 -668)" fill="#e39b40"/>
              <path id="Trazado_723269" data-name="Trazado 723269" d="M1380.566,696.418c1.545,1.856-.1,1.519-.443.285.145,2.7-1.256,1.4-.371.027-1.889,1.2-1.6-.675-.129-.4-1.607-.868-.32-1.69.221-.277.117-1.938,1.188-1.716.468-.2C1382.3,695.273,1382.172,696.75,1380.566,696.418Z" transform="translate(-1357.605 -689.242)" fill="#e39b40"/>
              <path id="Trazado_723270" data-name="Trazado 723270" d="M1343.089,745.324c1.9-.436,1,.659.017.44,1.915.934.455,1.477-.132.287.061,1.872-1.11.93-.327-.058-1.247.863-1.291-.414-.1-.272-1.284-.836-.7-1.549.049-.428C1343,743.588,1343.967,744.254,1343.089,745.324Z" transform="translate(-1328.323 -728.763)" fill="#e39b40"/>
              <path id="Trazado_723271" data-name="Trazado 723271" d="M1292.516,717.505c.965,2.432-.587,1.515-.539.136-.722,2.8-1.721.99-.383-.1-2.3.565-1.4-1.246,0-.453-1.345-1.446.22-1.835.313-.2.742-1.935,1.754-1.335.539-.045C1294.638,716.943,1294.033,718.4,1292.516,717.505Z" transform="translate(-1287.289 -705.963)" fill="#e39b40"/>
              <path id="Trazado_723272" data-name="Trazado 723272" d="M1288.578,678.749c.963,2.02-.417,1.331-.454.149-.461,2.442-1.418.951-.334-.064-1.935.623-1.266-.979-.027-.387-1.233-1.154.086-1.582.256-.194.527-1.7,1.427-1.249.46-.072C1290.364,678.139,1289.928,679.425,1288.578,678.749Z" transform="translate(-1284.409 -675.279)" fill="#e39b40"/>
              <path id="Trazado_723273" data-name="Trazado 723273" d="M1330.283,723.16c2.269.379.827,1.187-.166.5,1.712,1.9-.119,1.845-.264.258-.716,2.1-1.607.528-.335-.213-1.729.392-1.244-1.045,0-.347-1.06-1.509-.12-2.035.233-.453C1330.915,721.2,1331.694,722.371,1330.283,723.16Z" transform="translate(-1317.736 -710.982)" fill="#e39b40"/>
              <path id="Trazado_723274" data-name="Trazado 723274" d="M1305.556,743.7c2.269.378.827,1.186-.166.5,1.711,1.9-.118,1.845-.264.258-.716,2.1-1.607.528-.335-.214-1.729.392-1.244-1.045,0-.347-1.06-1.509-.119-2.035.233-.453C1306.189,741.732,1306.968,742.907,1305.556,743.7Z" transform="translate(-1298.032 -727.347)" fill="#e39b40"/>
              <path id="Trazado_723275" data-name="Trazado 723275" d="M1356.434,676.746c2.091,1.755.181,1.719-.443.41.678,2.991-1.144,1.827-.412.107-1.894,1.734-1.923-.424-.221-.421-1.971-.638-.682-1.824.2-.355-.237-2.192,1.008-2.166.487-.326C1358.165,675.106,1358.3,676.784,1356.434,676.746Z" transform="translate(-1338.233 -673.426)" fill="#e39b40"/>
              <path id="Trazado_723276" data-name="Trazado 723276" d="M1310.73,689.77c1.417,2.585-.454,1.786-.588.232-.431,3.253-1.8,1.365-.445-.058-2.507.973-1.741-1.191-.063-.508-1.711-1.423,0-2.091.324-.276.572-2.28,1.792-1.757.6-.131C1313.042,688.826,1312.56,690.554,1310.73,689.77Z" transform="translate(-1301.55 -683.639)" fill="#e39b40"/>
              <path id="Trazado_723277" data-name="Trazado 723277" d="M1277.268,709.624c1.392.919.224,1.033-.243.282.612,1.771-.577,1.194-.244.094-1.041,1.191-1.2-.121-.163-.24-1.245-.247-.537-1.061.1-.23-.289-1.317.473-1.39.276-.233C1278.217,708.5,1278.411,709.513,1277.268,709.624Z" transform="translate(-1275.915 -700.258)" fill="#e39b40"/>
            </g>
            <path id="Trazado_723278" data-name="Trazado 723278" d="M1335.759,676.379c3.217-5.185,1.934-16.722-7.784-17.768" transform="translate(-1315.625 -658.568)" fill="none" stroke="#e6b52f" stroke-miterlimit="10" stroke-width="1.618"/>
          </g>
        </g>
        <path id="Trazado_723279" data-name="Trazado 723279" d="M1485.629,686.751c3.377,8.895,4.546,18.963-21.773,16.206-18.593-1.948-19.015-2.048-18.046-9.425,1.081-8.231,14.565-6.793,17.06-6.78C1470.049,686.786,1485.629,686.751,1485.629,686.751Z" transform="translate(-1336.397 -596.812)" fill="#6073c9"/>
        <g id="Grupo_1008742" data-name="Grupo 1008742" transform="translate(31.941 84.179)">
          <path id="Trazado_723280" data-name="Trazado 723280" d="M1695.946,801.126h-3.986l-1.666-33.429h7.318Z" transform="translate(-1563.391 -745.577)" fill="#232e5c"/>
          <path id="Trazado_723281" data-name="Trazado 723281" d="M1136.872,801.126h-3.986L1131.22,767.7h7.318Z" transform="translate(-1117.882 -745.577)" fill="#232e5c"/>
          <path id="Rectángulo_348418" data-name="Rectángulo 348418" d="M8.5,0h0A8.5,8.5,0,0,1,17,8.5V44.24a0,0,0,0,1,0,0H0a0,0,0,0,1,0,0V8.5A8.5,8.5,0,0,1,8.5,0Z" transform="translate(130.529)" fill="#288d8a"/>
          <path id="Rectángulo_348419" data-name="Rectángulo 348419" d="M8.5,0h0A8.5,8.5,0,0,1,17,8.5V44.24a0,0,0,0,1,0,0H0a0,0,0,0,1,0,0V8.5A8.5,8.5,0,0,1,8.5,0Z" transform="translate(0)" fill="#288d8a"/>
          <rect id="Rectángulo_348420" data-name="Rectángulo 348420" width="113.532" height="18.96" transform="translate(130.529 44.24) rotate(180)" fill="#288d8a"/>
          <rect id="Rectángulo_348421" data-name="Rectángulo 348421" width="113.532" height="6.985" transform="translate(130.529 25.28) rotate(180)" fill="#288d8a"/>
          <g id="Grupo_1008741" data-name="Grupo 1008741">
            <g id="Grupo_1008740" data-name="Grupo 1008740" clip-path="url(#clip-path-4)">
              <g id="Grupo_1008739" data-name="Grupo 1008739" transform="translate(-1.255 -20.832)">
                <line id="Línea_2751" data-name="Línea 2751" y2="68.762" transform="translate(2.406)" fill="#a5d3d4"/>
                <line id="Línea_2752" data-name="Línea 2752" y2="68.762" transform="translate(7.539)" fill="#a5d3d4"/>
                <line id="Línea_2753" data-name="Línea 2753" y2="68.762" transform="translate(12.672)" fill="#a5d3d4"/>
                <line id="Línea_2754" data-name="Línea 2754" y2="68.762" transform="translate(17.805)" fill="#a5d3d4"/>
                <line id="Línea_2755" data-name="Línea 2755" y2="68.762" transform="translate(22.937)" fill="#a5d3d4"/>
                <line id="Línea_2756" data-name="Línea 2756" y2="68.762" transform="translate(28.07)" fill="#a5d3d4"/>
                <line id="Línea_2757" data-name="Línea 2757" y2="68.762" transform="translate(33.203)" fill="#a5d3d4"/>
                <line id="Línea_2758" data-name="Línea 2758" y2="68.762" transform="translate(38.336)" fill="#a5d3d4"/>
                <line id="Línea_2759" data-name="Línea 2759" y2="68.762" transform="translate(43.469)" fill="#a5d3d4"/>
                <line id="Línea_2760" data-name="Línea 2760" y2="68.762" transform="translate(48.601)" fill="#a5d3d4"/>
                <line id="Línea_2761" data-name="Línea 2761" y2="68.762" transform="translate(53.734)" fill="#a5d3d4"/>
                <line id="Línea_2762" data-name="Línea 2762" y2="68.762" transform="translate(58.867)" fill="#a5d3d4"/>
                <line id="Línea_2763" data-name="Línea 2763" y2="68.762" transform="translate(64)" fill="#a5d3d4"/>
                <line id="Línea_2764" data-name="Línea 2764" y2="68.762" transform="translate(69.133)" fill="#a5d3d4"/>
                <line id="Línea_2765" data-name="Línea 2765" y2="68.762" transform="translate(74.265)" fill="#a5d3d4"/>
                <line id="Línea_2766" data-name="Línea 2766" y2="68.762" transform="translate(79.398)" fill="#a5d3d4"/>
                <line id="Línea_2767" data-name="Línea 2767" y2="68.762" transform="translate(84.531)" fill="#a5d3d4"/>
                <line id="Línea_2768" data-name="Línea 2768" y2="68.762" transform="translate(89.664)" fill="#a5d3d4"/>
                <line id="Línea_2769" data-name="Línea 2769" y2="68.762" transform="translate(94.797)" fill="#a5d3d4"/>
                <line id="Línea_2770" data-name="Línea 2770" y2="68.762" transform="translate(99.929)" fill="#a5d3d4"/>
                <line id="Línea_2771" data-name="Línea 2771" y2="68.762" transform="translate(105.062)" fill="#a5d3d4"/>
                <line id="Línea_2772" data-name="Línea 2772" y2="68.762" transform="translate(110.195)" fill="#a5d3d4"/>
                <line id="Línea_2773" data-name="Línea 2773" y2="68.762" transform="translate(115.328)" fill="#a5d3d4"/>
                <line id="Línea_2774" data-name="Línea 2774" y2="68.762" transform="translate(120.461)" fill="#a5d3d4"/>
                <line id="Línea_2775" data-name="Línea 2775" y2="68.762" transform="translate(125.594)" fill="#a5d3d4"/>
                <line id="Línea_2776" data-name="Línea 2776" y2="68.762" transform="translate(130.726)" fill="#a5d3d4"/>
                <line id="Línea_2777" data-name="Línea 2777" y2="68.762" transform="translate(135.859)" fill="#a5d3d4"/>
                <line id="Línea_2778" data-name="Línea 2778" y2="68.762" transform="translate(140.992)" fill="#a5d3d4"/>
                <line id="Línea_2779" data-name="Línea 2779" y2="68.762" transform="translate(146.125)" fill="#a5d3d4"/>
                <path id="Trazado_723282" data-name="Trazado 723282" d="M1059.379,582.49h150.036" transform="translate(-1059.379 -577.16)" fill="#a5d3d4"/>
                <path id="Trazado_723283" data-name="Trazado 723283" d="M1059.379,608.73h150.036" transform="translate(-1059.379 -598.07)" fill="#a5d3d4"/>
                <path id="Trazado_723284" data-name="Trazado 723284" d="M1059.379,634.971h150.036" transform="translate(-1059.379 -618.98)" fill="#a5d3d4"/>
                <path id="Trazado_723285" data-name="Trazado 723285" d="M1059.379,661.211h150.036" transform="translate(-1059.379 -639.89)" fill="#a5d3d4"/>
                <path id="Trazado_723286" data-name="Trazado 723286" d="M1059.379,687.452h150.036" transform="translate(-1059.379 -660.801)" fill="#a5d3d4"/>
                <path id="Trazado_723287" data-name="Trazado 723287" d="M1059.379,713.692h150.036" transform="translate(-1059.379 -681.711)" fill="#a5d3d4"/>
                <path id="Trazado_723288" data-name="Trazado 723288" d="M1059.379,739.932h150.036" transform="translate(-1059.379 -702.621)" fill="#a5d3d4"/>
                <path id="Trazado_723289" data-name="Trazado 723289" d="M1059.379,766.173h150.036" transform="translate(-1059.379 -723.531)" fill="#a5d3d4"/>
                <path id="Trazado_723290" data-name="Trazado 723290" d="M1059.379,792.413h150.036" transform="translate(-1059.379 -744.441)" fill="#a5d3d4"/>
                <path id="Trazado_723291" data-name="Trazado 723291" d="M1059.379,818.654h150.036" transform="translate(-1059.379 -765.352)" fill="#a5d3d4"/>
                <path id="Trazado_723292" data-name="Trazado 723292" d="M1059.379,844.894h150.036" transform="translate(-1059.379 -786.261)" fill="#a5d3d4"/>
                <path id="Trazado_723293" data-name="Trazado 723293" d="M1059.379,871.134h150.036" transform="translate(-1059.379 -807.171)" fill="#a5d3d4"/>
              </g>
            </g>
          </g>
          <line id="Línea_2780" data-name="Línea 2780" x1="113.532" transform="translate(16.997 41.312)" fill="none" stroke="#5f823c" stroke-miterlimit="10" stroke-width="0.25"/>
          <line id="Línea_2781" data-name="Línea 2781" x1="113.532" transform="translate(16.997 25.03)" fill="none" stroke="#5f823c" stroke-miterlimit="10" stroke-width="0.25"/>
          <line id="Línea_2782" data-name="Línea 2782" x1="113.532" transform="translate(16.997 18.295)" fill="none" stroke="#5f823c" stroke-miterlimit="10" stroke-width="0.25"/>
          <path id="Trazado_723430" data-name="Trazado 723430" d="M0,41.476V15.344" transform="translate(130.612 2.764)" fill="none" stroke="#5f823c" stroke-width="0.25"/>
          <line id="Línea_2784" data-name="Línea 2784" y2="41.476" transform="translate(16.997 2.764)" fill="none" stroke="#5f823c" stroke-miterlimit="10" stroke-width="1.618"/>
        </g>
        <g id="Grupo_1008748" data-name="Grupo 1008748" transform="translate(12.851 72.829)">
          <path id="Trazado_723295" data-name="Trazado 723295" d="M1125.946,604.814c-4.559.522-6.79,5.406-7.056,7.735s-13.51,4.85-5.454,12.274,23.459,4.012,15.386-7.111C1126.166,608.841,1125.946,604.814,1125.946,604.814Z" transform="translate(-1082.553 -604.431)" fill="#21262b"/>
          <path id="Trazado_723296" data-name="Trazado 723296" d="M1130.1,629.174c-.3.049-2.714.641-3.6-3.455,1.925,0,3.455,2.32,3.455,2.32a4.7,4.7,0,0,1,.444-4.245c2.023.395,1.036,4.985,1.036,4.985" transform="translate(-1095.031 -619.555)" fill="#51aee6"/>
          <path id="Trazado_723297" data-name="Trazado 723297" d="M1147.127,648.532a6.767,6.767,0,0,1-4.243-4.437c-1.182-.1-1.839,1.5-1.839,1.5a6.746,6.746,0,0,0,6,3.574C1147.58,648.745,1147.127,648.532,1147.127,648.532Z" transform="translate(-1106.622 -635.729)" fill="#51aee6"/>
          <path id="Trazado_723298" data-name="Trazado 723298" d="M1125.777,661.769s-3.426,1.426-3.561,2.667" transform="translate(-1091.617 -649.817)" fill="none" stroke="#2c3136" stroke-miterlimit="10" stroke-width="1.618"/>
          <path id="Trazado_723299" data-name="Trazado 723299" d="M1132.277,667.191s-1.954,1.941-3.11,2.2" transform="translate(-1097.156 -654.137)" fill="none" stroke="#2c3136" stroke-miterlimit="10" stroke-width="1.618"/>
          <path id="Trazado_723300" data-name="Trazado 723300" d="M1291.489,779.134c.04-.107-5.626,0-5.626,0l-1.059,6.989a47.7,47.7,0,0,0,6.894.442" transform="translate(-1221.178 -743.303)" fill="#e9a493"/>
          <path id="Trazado_723301" data-name="Trazado 723301" d="M1046.538,924.509s-10.317.758-14.019-.962-4.33,3.574-2.1,7.654,8.595-.972,11.2-.241,4.764.559,5.959-1.229Z" transform="translate(-1017.437 -858.154)" fill="#e9a493"/>
          <path id="Trazado_723302" data-name="Trazado 723302" d="M1022.518,930.775c-2.844-1.42.125-4.275,2.016-2.208" transform="translate(-1011.234 -861.84)" fill="#e9a493" stroke="#ab6453" stroke-miterlimit="10" stroke-width="0.5"/>
          <path id="Trazado_723303" data-name="Trazado 723303" d="M1024.9,940.9c-1.376-.675-2.4.86-.745,1.847,0,0,.659.277.951,0" transform="translate(-1012.793 -872.118)" fill="#e9a493" stroke="#ab6453" stroke-miterlimit="10" stroke-width="0.5"/>
          <path id="Trazado_723304" data-name="Trazado 723304" d="M1027.763,949.426c-1.978-.742-.95-2.5.273-2.234" transform="translate(-1015.465 -877.24)" fill="#e9a493" stroke="#ab6453" stroke-miterlimit="10" stroke-width="0.5"/>
          <path id="Trazado_723305" data-name="Trazado 723305" d="M1032.58,956.392c-1.981-.353-1.713-2.307-.055-2.236" transform="translate(-1019.078 -882.809)" fill="#e9a493" stroke="#ab6453" stroke-miterlimit="10" stroke-width="0.5"/>
          <path id="Trazado_723306" data-name="Trazado 723306" d="M1039.6,961.968c-2.012.292-2.281-2.476-.075-2" transform="translate(-1024.491 -887.401)" fill="#e9a493" stroke="#ab6453" stroke-miterlimit="10" stroke-width="0.5"/>
          <path id="Trazado_723307" data-name="Trazado 723307" d="M1040.626,866.392c8.359-4.36,9.829-8.435,6.125-12.794-2.356-2.772-16.626-5.109-35.632,1.272-23.587-5.362-34.807-7.986-38.192-2.122s24.078,14.276,33.055,13.71S1040.626,866.392,1040.626,866.392Z" transform="translate(-972.424 -799.348)" fill="#51aee6"/>
          <path id="Trazado_723308" data-name="Trazado 723308" d="M1155.416,875.969c-10.8,14.7-44.018,7.62-44.018,7.62l-3.7-3.66s12.879-4.547,23.984-8.987,18.968-3.507,18.968-3.507C1156.6,867.563,1157.519,873.106,1155.416,875.969Z" transform="translate(-1080.049 -813.639)" fill="#e9a493"/>
          <path id="Trazado_723309" data-name="Trazado 723309" d="M973.518,855.214c2.9-1.993,8.681-.494,14.152,2.139a47.93,47.93,0,0,1,9.228,5.777c6.216,5.106,15.283,5.914,15.283,5.914,1.3-.1,10.7-.891,15.285-2.223,4.351-1.265,5.3,3.694,2.961,8.3-1.881,3.709-9.6-.359-12.413.667-2.276.829-4.284.981-5.748.019h0s-22.76-1.288-30.885-5.175S968.772,858.47,973.518,855.214Z" transform="translate(-971.579 -803.236)" fill="#e9a493"/>
          <path id="Trazado_723310" data-name="Trazado 723310" d="M1136.243,915.785a34.712,34.712,0,0,0,7.154,1.6c1.3-.1,10.7-.891,15.285-2.223,4.014-1.167,5.129,2.963,3.444,7.224" transform="translate(-1102.795 -851.582)" fill="none" stroke="#ab6453" stroke-miterlimit="10" stroke-width="0.5"/>
          <path id="Trazado_723311" data-name="Trazado 723311" d="M1105.111,690.124q-1.968-.336-3.9-.817c-.16-2.608.176-4.732,1.1-5.824,3.379-3.986,24.47-5.746,23.669.365C1120.566,692.289,1112.6,691.485,1105.111,690.124Z" transform="translate(-1074.852 -664.233)" fill="#e9a493"/>
          <path id="Trazado_723312" data-name="Trazado 723312" d="M1206.87,686.381c5.659,3.969,6.824,16.192,6.824,16.192l10.962,2.573-1.584,9.736s-7.394.112-11.019-3.475-7.647-10.262-7.647-10.262Z" transform="translate(-1157.112 -669.429)" fill="#3276b6"/>
          <line id="Línea_2785" data-name="Línea 2785" x1="1.733" y2="10.059" transform="translate(64.045 35.303)" fill="none" stroke="#3b488a" stroke-miterlimit="10" stroke-width="0.5"/>
          <line id="Línea_2786" data-name="Línea 2786" x1="1.37" y2="10.278" transform="translate(62.971 34.965)" fill="none" stroke="#3b488a" stroke-miterlimit="10" stroke-width="0.5"/>
          <path id="Trazado_723313" data-name="Trazado 723313" d="M1097.877,707.8c-.4-5.212-2.284-16.372.35-19.4,1.082-1.243,3.448-1.963,3.574-2.071,2.114,6.372,6.595,10.755,13.208,9.063,3.806-.993,5.251-5.263,5.382-9.358,1.684,1,3.762,3.328,2.426,8.778a50.259,50.259,0,0,0,.485,26.34c-11.209,7.377-27.257.529-27.257.529S1098.167,711.563,1097.877,707.8Z" transform="translate(-1070.762 -669.156)" fill="#3276b6"/>
          <path id="Trazado_723314" data-name="Trazado 723314" d="M1136.441,693.169c-6.614,1.692-11.388-2.51-13.5-8.882a4.679,4.679,0,0,1,1.665-.581c.821,1.523,3.62,7.524,9.3,7.629,6.82.127,6.266-8.093,6.266-8.093a15.86,15.86,0,0,1,1.783.637C1141.82,687.975,1140.247,692.176,1136.441,693.169Z" transform="translate(-1092.193 -666.928)" fill="#6073c9"/>
          <path id="Trazado_723315" data-name="Trazado 723315" d="M1126.4,889.891s-2.385-5.015-5.315-6.392" transform="translate(-1090.715 -826.506)" fill="none" stroke="#2e6a90" stroke-miterlimit="10" stroke-width="0.5"/>
          <path id="Trazado_723316" data-name="Trazado 723316" d="M1155.436,655.582l3.71-6.821,5.213,3.1-.85,4.9S1157.242,658.45,1155.436,655.582Z" transform="translate(-1118.089 -639.451)" fill="#e9a493"/>
          <path id="Trazado_723317" data-name="Trazado 723317" d="M1178.645,609.386c-7.086.177-6.805,12.535-.574,13.613,4.062.7,4.877-6.018,5.142-9.364S1179.7,609.36,1178.645,609.386Z" transform="translate(-1132.375 -608.073)" fill="#e9a493"/>
          <path id="Trazado_723318" data-name="Trazado 723318" d="M1167.176,636.673c-.9-2.39-2.974-1.912-2.549.425s2.178,2.709,2.549,1.222" transform="translate(-1125.368 -628.562)" fill="#e9a493"/>
          <path id="Trazado_723319" data-name="Trazado 723319" d="M1181.029,610.277a11.767,11.767,0,0,1-1.607-2.8c-.9,2.178-6.2,4.214-7.259,4.037-1.693-.282-3.016-6.956,1.682-8.286C1177.722,602.133,1182.835,603.911,1181.029,610.277Z" transform="translate(-1130.177 -602.927)" fill="#21262b"/>
          <path id="Trazado_723320" data-name="Trazado 723320" d="M1181.889,663.5a4.638,4.638,0,0,1-4-3.289" transform="translate(-1135.978 -648.576)" fill="none" stroke="#ab6453" stroke-miterlimit="10" stroke-width="0.5"/>
          <line id="Línea_2787" data-name="Línea 2787" x1="0.276" y2="1.288" transform="translate(45.42 16.025)" fill="none" stroke="#ab6453" stroke-miterlimit="10" stroke-width="0.5"/>
          <path id="Trazado_723321" data-name="Trazado 723321" d="M1215.913,648.814c-.063.253-.008.484.122.516s.286-.147.348-.4.008-.484-.122-.516S1215.975,648.561,1215.913,648.814Z" transform="translate(-1166.26 -639.172)" fill="#21262b"/>
          <path id="Trazado_723322" data-name="Trazado 723322" d="M1202.178,645.572c-.039.258.037.483.17.5s.271-.173.309-.43-.037-.483-.17-.5S1202.216,645.314,1202.178,645.572Z" transform="translate(-1155.328 -636.565)" fill="#21262b"/>
          <path id="Trazado_723323" data-name="Trazado 723323" d="M1209.888,648.341s-.473.966.086,1.358c.529.371.24,1.171-.654.791" transform="translate(-1161.028 -639.116)" fill="none" stroke="#ab6453" stroke-miterlimit="10" stroke-width="0.5"/>
          <path id="Trazado_723324" data-name="Trazado 723324" d="M1201.04,661.591a1.063,1.063,0,0,1-1.153-.779" transform="translate(-1153.511 -649.054)" fill="none" stroke="#ab6453" stroke-miterlimit="10" stroke-width="0.5"/>
          <path id="Trazado_723325" data-name="Trazado 723325" d="M1186.722,620.58s-1.747,2.805-4.6,3.107" transform="translate(-1139.352 -616.994)" fill="none" stroke="#2c3136" stroke-miterlimit="10" stroke-width="1.618"/>
          <path id="Trazado_723326" data-name="Trazado 723326" d="M1184.147,614.092s-3.357,1.215-3.914,2.534" transform="translate(-1137.849 -611.824)" fill="none" stroke="#2c3136" stroke-miterlimit="10" stroke-width="1.618"/>
          <path id="Trazado_723327" data-name="Trazado 723327" d="M1166.7,610.137s-4.782,1.56-5.862,5.308" transform="translate(-1122.394 -608.672)" fill="none" stroke="#2c3136" stroke-miterlimit="10" stroke-width="1.618"/>
          <path id="Trazado_723328" data-name="Trazado 723328" d="M1316.333,777.379c-1.772.424-3.2-1.486-5.387-.874s-3.461-3.156,1.616-2.449S1316.333,777.379,1316.333,777.379Z" transform="translate(-1240.481 -739.224)" fill="#e9a493"/>
          <g id="Grupo_1008745" data-name="Grupo 1008745" transform="translate(28.236 30.461)">
            <g id="Grupo_1008743" data-name="Grupo 1008743" transform="translate(53.134)">
              <rect id="Rectángulo_348422" data-name="Rectángulo 348422" width="0.453" height="3.479" transform="matrix(0.985, -0.174, 0.174, 0.985, 0.504, 1.94)" fill="#dea94d"/>
              <path id="Trazado_723329" data-name="Trazado 723329" d="M1373.009,758.385h0a.589.589,0,0,1-.675-.444l-.156-.66a.589.589,0,0,1,.471-.716l.077-.014a.589.589,0,0,1,.687.511l.079.674A.589.589,0,0,1,1373.009,758.385Z" transform="translate(-1372.161 -755.8)" fill="#fff"/>
              <rect id="Rectángulo_348423" data-name="Rectángulo 348423" width="0.453" height="3.479" transform="translate(2.236 1.532) rotate(-9.998)" fill="#dea94d"/>
              <path id="Trazado_723330" data-name="Trazado 723330" d="M1381.536,756.379h0a.589.589,0,0,1-.676-.444l-.156-.66a.589.589,0,0,1,.471-.716l.077-.014a.589.589,0,0,1,.688.511l.079.674A.589.589,0,0,1,1381.536,756.379Z" transform="translate(-1378.956 -754.201)" fill="#fff"/>
              <rect id="Rectángulo_348424" data-name="Rectángulo 348424" width="0.453" height="3.479" transform="matrix(0.985, -0.174, 0.174, 0.985, 4.041, 1.197)" fill="#dea94d"/>
              <path id="Trazado_723331" data-name="Trazado 723331" d="M1390.419,754.729h0a.589.589,0,0,1-.675-.444l-.157-.66a.589.589,0,0,1,.471-.716l.077-.014a.589.589,0,0,1,.687.511l.079.674A.589.589,0,0,1,1390.419,754.729Z" transform="translate(-1386.035 -752.886)" fill="#fff"/>
              <rect id="Rectángulo_348425" data-name="Rectángulo 348425" width="0.453" height="3.479" transform="translate(5.95 9.417) rotate(169.994)" fill="#dea94d"/>
              <path id="Trazado_723332" data-name="Trazado 723332" d="M1397.849,796.029h0a.589.589,0,0,1,.675.444l.156.66a.589.589,0,0,1-.471.716l-.077.014a.589.589,0,0,1-.687-.511l-.079-.674A.589.589,0,0,1,1397.849,796.029Z" transform="translate(-1392.243 -787.258)" fill="#fff"/>
              <rect id="Rectángulo_348426" data-name="Rectángulo 348426" width="0.453" height="3.479" transform="translate(4.145 9.752) rotate(169.999)" fill="#dea94d"/>
              <path id="Trazado_723333" data-name="Trazado 723333" d="M1388.966,797.679h0a.589.589,0,0,1,.676.444l.156.66a.589.589,0,0,1-.471.716l-.077.014a.589.589,0,0,1-.687-.512l-.079-.674A.589.589,0,0,1,1388.966,797.679Z" transform="translate(-1385.165 -788.573)" fill="#fff"/>
              <rect id="Rectángulo_348427" data-name="Rectángulo 348427" width="0.453" height="3.479" transform="translate(2.413 10.159) rotate(170.003)" fill="#dea94d"/>
              <path id="Trazado_723334" data-name="Trazado 723334" d="M1380.439,799.686h0a.589.589,0,0,1,.675.444l.156.66a.589.589,0,0,1-.471.716l-.077.014a.589.589,0,0,1-.687-.511l-.079-.674A.589.589,0,0,1,1380.439,799.686Z" transform="translate(-1378.37 -790.172)" fill="#fff"/>
            </g>
            <path id="Trazado_723335" data-name="Trazado 723335" d="M1136.6,754.475l-3.637.641a4.46,4.46,0,0,0-2.216,1.111,5.58,5.58,0,0,1-.924.669,5.815,5.815,0,0,1-2.467-1.079,7.7,7.7,0,0,0-5.977-1.626l-3.637.641c-5.049.89-8.13,7.347-6.883,14.422s6.351,12.089,11.4,11.2l3.637-.641a7.718,7.718,0,0,0,5.087-3.613,5.747,5.747,0,0,1,1.946-1.861,5.677,5.677,0,0,1,1.1.306,4.448,4.448,0,0,0,2.425.271l3.637-.641c3.5-.616,5.548-5.548,4.584-11.015S1140.1,753.859,1136.6,754.475Z" transform="translate(-1110.585 -753.844)" fill="#dea94d"/>
            <path id="Trazado_723336" data-name="Trazado 723336" d="M1150.87,754.475a4.461,4.461,0,0,0-2.216,1.111,5.462,5.462,0,0,1-7.029.231,7.7,7.7,0,0,0-5.977-1.626c-5.049.89-8.13,7.347-6.882,14.422s6.352,12.089,11.4,11.2a7.718,7.718,0,0,0,5.087-3.613,5.47,5.47,0,0,1,6.683-2.2,4.451,4.451,0,0,0,2.425.271c3.5-.616,5.548-5.548,4.584-11.015S1154.365,753.859,1150.87,754.475Z" transform="translate(-1124.852 -753.844)" fill="#e39b40"/>
            <path id="Trazado_723337" data-name="Trazado 723337" d="M1268.625,761.381l-8.352,2.063-1.105,1.137-25.591,3.24c.853.211,1.333,2.654,1.333,2.654s.384,2.459-.345,2.949l25.23-5.287,1.427.69,8.546-.967a4.874,4.874,0,0,0-1.142-6.478Zm-.485,5.67-5.152.812a.577.577,0,0,1-.619-.521h0a.568.568,0,0,1,.441-.672l5.152-.812a.577.577,0,0,1,.619.521A.568.568,0,0,1,1268.14,767.051Zm-.156-4.056a.577.577,0,0,1-.4.7l-5.079,1.23a.567.567,0,0,1-.644-.48h0a.577.577,0,0,1,.4-.7l5.078-1.23a.568.568,0,0,1,.644.48Z" transform="translate(-1208.594 -759.656)" fill="#dea94d"/>
            <path id="Trazado_723338" data-name="Trazado 723338" d="M1369.016,761.381l-8.352,2.063-1.105,1.137.627,3.555,1.427.69,8.546-.967a4.873,4.873,0,0,0-1.142-6.478Zm-.486,5.67-5.152.812a.577.577,0,0,1-.619-.521h0a.568.568,0,0,1,.441-.672l5.152-.812a.577.577,0,0,1,.619.521A.567.567,0,0,1,1368.53,767.051Zm-.156-4.056a.577.577,0,0,1-.4.7l-5.079,1.23a.567.567,0,0,1-.644-.48h0a.577.577,0,0,1,.4-.7l5.078-1.23a.568.568,0,0,1,.644.48Z" transform="translate(-1308.984 -759.656)" fill="#e39b40"/>
            <rect id="Rectángulo_348428" data-name="Rectángulo 348428" width="0.735" height="3.958" transform="translate(49.796 4.834) rotate(-9.998)" fill="#ab6453"/>
            <path id="Trazado_723339" data-name="Trazado 723339" d="M1216.128,791.407a3.747,3.747,0,1,1-4.391-3.481A3.976,3.976,0,0,1,1216.128,791.407Z" transform="translate(-1188.792 -780.768)" fill="none"/>
            <path id="Trazado_723340" data-name="Trazado 723340" d="M1216.128,791.407a3.747,3.747,0,1,1-4.391-3.481A3.976,3.976,0,0,1,1216.128,791.407Z" transform="translate(-1188.792 -780.768)" fill="#ab6453"/>
            <ellipse id="Elipse_8732" data-name="Elipse 8732" cx="3.024" cy="3.406" rx="3.024" ry="3.406" transform="translate(20.102 8.456) rotate(-10)" fill="#e39b40"/>
            <path id="Trazado_723341" data-name="Trazado 723341" d="M1219.307,796.333a2.663,2.663,0,1,1-3.121-2.474A2.827,2.827,0,0,1,1219.307,796.333Z" transform="translate(-1193.031 -785.508)" fill="#313032"/>
            <rect id="Rectángulo_348429" data-name="Rectángulo 348429" width="1.614" height="12.725" transform="translate(11.397 6.989) rotate(-10)" fill="#dea94d"/>
            <g id="Grupo_1008744" data-name="Grupo 1008744" transform="translate(13.892 5.256)">
              <line id="Línea_2788" data-name="Línea 2788" y1="6.262" x2="36.74" fill="none" stroke="#fff" stroke-miterlimit="10" stroke-width="1.618"/>
              <line id="Línea_2789" data-name="Línea 2789" y1="6.262" x2="36.74" transform="translate(0.102 0.581)" fill="none" stroke="#fff" stroke-miterlimit="10" stroke-width="1.618"/>
              <line id="Línea_2790" data-name="Línea 2790" y1="6.262" x2="36.74" transform="translate(0.205 1.162)" fill="none" stroke="#fff" stroke-miterlimit="10" stroke-width="1.618"/>
              <line id="Línea_2791" data-name="Línea 2791" y1="6.262" x2="36.74" transform="translate(0.307 1.743)" fill="none" stroke="#fff" stroke-miterlimit="10" stroke-width="1.618"/>
              <line id="Línea_2792" data-name="Línea 2792" y1="6.262" x2="36.74" transform="translate(0.41 2.325)" fill="none" stroke="#fff" stroke-miterlimit="10" stroke-width="1.618"/>
              <line id="Línea_2793" data-name="Línea 2793" y1="6.262" x2="36.74" transform="translate(0.512 2.906)" fill="none" stroke="#fff" stroke-miterlimit="10" stroke-width="1.618"/>
            </g>
          </g>
          <g id="Grupo_1008746" data-name="Grupo 1008746" transform="translate(68.13 36.186)">
            <path id="Trazado_723342" data-name="Trazado 723342" d="M1307.06,785.637c-.017-1.82-.261-3.063.184-3.38.352-.309,1.394.309,1.8,2.4-.228-2.438-.477-3.478.187-3.521.523-.015,1.959.967,1.839,3.221.329-2.624.311-3.442.968-3.272a3.022,3.022,0,0,1,1.306,3.416c1.057-4.367,3.07-1.921,1.474,1.112C1313.1,787.876,1306.357,789.99,1307.06,785.637Z" transform="translate(-1306.978 -781.066)" fill="#e9a493"/>
            <path id="Trazado_723343" data-name="Trazado 723343" d="M1316.7,793.572a7.223,7.223,0,0,1,.182,2.305" transform="translate(-1314.723 -791.032)" fill="none" stroke="#ab6453" stroke-miterlimit="10" stroke-width="0.3"/>
            <path id="Trazado_723344" data-name="Trazado 723344" d="M1326.639,791.222a7.379,7.379,0,0,1,.377,2.354" transform="translate(-1322.645 -789.159)" fill="none" stroke="#ab6453" stroke-miterlimit="10" stroke-width="0.3"/>
            <path id="Trazado_723345" data-name="Trazado 723345" d="M1337.7,792.156a7.3,7.3,0,0,1-.214,1.939" transform="translate(-1331.29 -789.903)" fill="none" stroke="#ab6453" stroke-miterlimit="10" stroke-width="0.3"/>
          </g>
          <g id="Grupo_1008747" data-name="Grupo 1008747" transform="translate(16.39 19.308)">
            <path id="Trazado_723346" data-name="Trazado 723346" d="M1174.523,837.77c1.416-.328,4.034-.812,4.7.337s-2.315,1.338-2.315,1.338" transform="translate(-1149.688 -809.066)" fill="#e9a493"/>
            <path id="Trazado_723347" data-name="Trazado 723347" d="M1144.408,830.924s7.517.761,6.99,2.639c-.555,1.977-5.685-.472-5.685-.472s5.272,1.341,4.86,2.793c-.458,1.616-5.7-.733-5.7-.733s5.142,1.251,4.536,2.875c-.551,1.478-5.439-1.029-5.439-1.029s3.876.947,3.55,2.213-6.478-.3-8.75-2.391a26.292,26.292,0,0,0-5.031-3.514l3.792-6.615c.039.332,2.45,3.032,4.493,2.559" transform="translate(-1117.188 -800.545)" fill="#e9a493"/>
            <path id="Trazado_723348" data-name="Trazado 723348" d="M1063.415,697.98c-7.039,7.406-12.989,22.354-10.622,26.987S1069.365,735,1069.365,735l5.757-9.809-11.171-5.637,2.5-7.985S1066.61,702.657,1063.415,697.98Z" transform="translate(-1052.264 -697.98)" fill="#3276b6"/>
            <path id="Trazado_723349" data-name="Trazado 723349" d="M1200.315,860.562a18.132,18.132,0,0,0-2.8-.914" transform="translate(-1168.011 -826.808)" fill="none" stroke="#ab6453" stroke-miterlimit="10" stroke-width="0.3"/>
            <line id="Línea_2794" data-name="Línea 2794" x1="2.552" y1="0.914" transform="translate(28.495 34.942)" fill="none" stroke="#ab6453" stroke-miterlimit="10" stroke-width="0.3"/>
            <line id="Línea_2795" data-name="Línea 2795" x1="2.102" y1="0.747" transform="translate(27.408 36.754)" fill="none" stroke="#ab6453" stroke-miterlimit="10" stroke-width="0.3"/>
          </g>
          <path id="Trazado_723350" data-name="Trazado 723350" d="M1203.949,639.429a.651.651,0,0,0-.928-.139" transform="translate(-1156.008 -631.784)" fill="none" stroke="#21262b" stroke-miterlimit="10" stroke-width="0.5"/>
          <path id="Trazado_723351" data-name="Trazado 723351" d="M1217.518,642.633a.362.362,0,0,0-.635-.21" transform="translate(-1167.054 -634.298)" fill="none" stroke="#21262b" stroke-miterlimit="10" stroke-width="0.5"/>
          <path id="Trazado_723352" data-name="Trazado 723352" d="M1201.078,623.3a3.029,3.029,0,0,1-3.307,2.78,2.926,2.926,0,0,0,3.7-2.481" transform="translate(-1151.825 -619.164)" fill="#21262b"/>
          <path id="Trazado_723353" data-name="Trazado 723353" d="M1250.294,910.938c1.738-2.852-2.5-3.734-3.027-.839" transform="translate(-1191.266 -846.282)" fill="#e9a493" stroke="#ab6453" stroke-miterlimit="10" stroke-width="0.5"/>
          <path id="Trazado_723354" data-name="Trazado 723354" d="M1259.867,921.343c.918-1.8-.847-2.6-1.695-1.228" transform="translate(-1199.957 -855.133)" fill="#e9a493" stroke="#ab6453" stroke-miterlimit="10" stroke-width="0.5"/>
          <path id="Trazado_723355" data-name="Trazado 723355" d="M1260.822,929.686c1.346-1.765-.549-2.753-1.49-1.835" transform="translate(-1200.88 -861.571)" fill="#e9a493" stroke="#ab6453" stroke-miterlimit="10" stroke-width="0.5"/>
          <path id="Trazado_723356" data-name="Trazado 723356" d="M1260.531,938.552c1.566-1.421.236-3.009-1.2-2.021" transform="translate(-1200.88 -868.521)" fill="#e9a493" stroke="#ab6453" stroke-miterlimit="10" stroke-width="0.5"/>
          <path id="Trazado_723357" data-name="Trazado 723357" d="M1256.787,947.168c1.953-.864.647-3.477-1.048-1.817" transform="translate(-1198.018 -875.363)" fill="#e9a493" stroke="#ab6453" stroke-miterlimit="10" stroke-width="0.5"/>
          <path id="Trazado_723358" data-name="Trazado 723358" d="M1040.771,939.173s-14.726-1.651-20.183-4.11" transform="translate(-1010.633 -867.596)" fill="#e9a493" stroke="#ab6453" stroke-miterlimit="10" stroke-width="0.5"/>
          <line id="Línea_2796" data-name="Línea 2796" y1="13.151" x2="4.198" transform="translate(28.076 27.735)" fill="none" stroke="#3b488a" stroke-miterlimit="10" stroke-width="0.5"/>
          <path id="Trazado_723359" data-name="Trazado 723359" d="M1226.007,729.81a18.316,18.316,0,0,1,.112-7.044" transform="translate(-1174.099 -698.423)" fill="none" stroke="#3b488a" stroke-miterlimit="10" stroke-width="0.5"/>
          <line id="Línea_2797" data-name="Línea 2797" x1="5.211" y2="9.969" transform="translate(31.52 45.453)" fill="none" stroke="#3b488a" stroke-miterlimit="10" stroke-width="0.5"/>
          <line id="Línea_2798" data-name="Línea 2798" x1="5.298" y2="9.991" transform="translate(30.369 44.716)" fill="none" stroke="#3b488a" stroke-miterlimit="10" stroke-width="0.5"/>
        </g>
        <g id="Grupo_1008757" data-name="Grupo 1008757" transform="translate(96.338 37.542)">
          <path id="Trazado_723360" data-name="Trazado 723360" d="M1439.2,550.865l-2.095,4.423-7.864-8.8-1.7,8.073s4.357,10.847,9.656,11.227c3.486.25,6.638-3.181,8.324-4.915C1442.664,557.989,1440.209,554.712,1439.2,550.865Z" transform="translate(-1418.405 -522.668)" fill="#ac4946"/>
          <path id="Trazado_723361" data-name="Trazado 723361" d="M1491.263,553.737c1.555-1.714,3.016-3.3,3.016-3.3l-2.776-12.908-6.559,6.195C1485.955,547.572,1488.41,550.849,1491.263,553.737Z" transform="translate(-1464.151 -515.528)" fill="#e39b40"/>
          <path id="Trazado_723362" data-name="Trazado 723362" d="M1510.452,552.121c-1.1-9.781-4.379-21.233-3.629-28.439s19.654-7.792,25.571-2.465c6.5,5.85,2.324,31.773,2.324,31.773S1516.091,558.574,1510.452,552.121Z" transform="translate(-1481.498 -499.71)" fill="#e39b40"/>
          <path id="Trazado_723363" data-name="Trazado 723363" d="M1538.085,520.731c.74,4.294,9.427,6.219,11.895-.2" transform="translate(-1506.497 -501.984)" fill="none" stroke="#e6b52f" stroke-miterlimit="10" stroke-width="0.5"/>
          <path id="Trazado_723364" data-name="Trazado 723364" d="M1524.462,680.015s9.813,5.42,24.093.945" transform="translate(-1495.642 -629.07)" fill="none" stroke="#e6b52f" stroke-miterlimit="10" stroke-width="0.5"/>
          <g id="Grupo_1008752" data-name="Grupo 1008752">
            <path id="Trazado_723365" data-name="Trazado 723365" d="M1387.635,548.457c-4.2.159-5.339-2-4.142-2.665-1.481-.968-.75-2.45.019-2.547a1.4,1.4,0,0,1,.437-2.638c-3.183-.321-.485-3.873,4.709-2.433,2.162.6,4.932,3.97,3.437,5.933" transform="translate(-1382.58 -515.768)" fill="#ac4946"/>
            <path id="Trazado_723366" data-name="Trazado 723366" d="M1527.756,544.832l-6.3,10.415-9.344-7.768-2.327,6.637s7.166,12.564,14.337,12.173c4.757-.259,9.584-11.638,9.584-11.638" transform="translate(-1483.95 -521.346)" fill="#ac4946"/>
            <line id="Línea_2799" data-name="Línea 2799" x2="2.178" y2="2.011" transform="translate(37.511 33.9)" fill="none" stroke="#753130" stroke-linecap="round" stroke-linejoin="round" stroke-width="0.25"/>
            <g id="Grupo_1008749" data-name="Grupo 1008749" transform="translate(3.751 15.414)">
              <path id="Trazado_723367" data-name="Trazado 723367" d="M1425.766,507.952a6.352,6.352,0,0,0-1.063-.84c-4.671.616-6.679-.946-10.54.619-.688-1.043-5-1.274-6.235-2.635a5.336,5.336,0,0,0-1.9.4l.248,4.274,17.06-.049Z" transform="translate(-1405.018 -505.096)" fill="#fff"/>
              <path id="Trazado_723368" data-name="Trazado 723368" d="M1494.656,542.892c-3.7-4.3-3.881-6.2-7.5-2.526C1489.289,541.843,1494.656,542.892,1494.656,542.892Z" transform="translate(-1469.665 -531.648)" fill="#ac4946"/>
              <path id="Trazado_723369" data-name="Trazado 723369" d="M1422.678,508.559l-.585,18.074-11.611.661-2.681-.49-6.754-2.689.617-18.267,6.823,2.928,2.457.414Z" transform="translate(-1401.046 -505.697)" fill="#6073c9"/>
              <line id="Línea_2800" data-name="Línea 2800" x1="0.971" y2="18.099" transform="translate(9.435 3.499)" fill="none" stroke="#495aab" stroke-miterlimit="10" stroke-width="0.25"/>
              <line id="Línea_2801" data-name="Línea 2801" y1="18.028" x2="0.686" transform="translate(6.754 3.081)" fill="none" stroke="#495aab" stroke-miterlimit="10" stroke-width="0.25"/>
              <path id="Trazado_723370" data-name="Trazado 723370" d="M1411.8,516.846l-4.73-2.229.036,2.743,4.518,1.991Z" transform="translate(-1405.848 -512.683)" fill="#7081cf"/>
            </g>
            <g id="Grupo_1008750" data-name="Grupo 1008750" transform="translate(17.176 23.448)">
              <path id="Trazado_723371" data-name="Trazado 723371" d="M1479.615,549.6l-2.805,5.523c-5.045,1.78-8.292-.082-7.251-2.059-2.235.177-3.869-3.115,0-2.614-2.182.446-4.158-3.065.085-2.977-4.181-.052-3.216-4.344,3.786-2.257C1476.673,546.393,1479.734,547.621,1479.615,549.6Z" transform="translate(-1467.139 -544.648)" fill="#ac4946"/>
              <line id="Línea_2802" data-name="Línea 2802" y1="0.028" x2="2.884" transform="translate(1.272 5.789)" fill="none" stroke="#753130" stroke-linecap="round" stroke-linejoin="round" stroke-width="0.25"/>
              <line id="Línea_2803" data-name="Línea 2803" x2="2.541" y2="0.935" transform="translate(5.9 0.461)" fill="none" stroke="#753130" stroke-linecap="round" stroke-linejoin="round" stroke-width="0.25"/>
              <line id="Línea_2804" data-name="Línea 2804" x2="2.816" y2="0.197" transform="translate(1.645 2.769)" fill="none" stroke="#753130" stroke-linecap="round" stroke-linejoin="round" stroke-width="0.25"/>
              <line id="Línea_2805" data-name="Línea 2805" x2="2.203" y2="0.154" transform="translate(2.419 8.42)" fill="none" stroke="#753130" stroke-linecap="round" stroke-linejoin="round" stroke-width="0.25"/>
            </g>
            <path id="Trazado_723372" data-name="Trazado 723372" d="M1402.076,540.519c2.2-.476,1.939-2.462-.083-2.691" transform="translate(-1398.05 -515.765)" fill="#ac4946"/>
            <path id="Trazado_723373" data-name="Trazado 723373" d="M1390.8,552.946c2.632-.841,1.442-3.447-2.528-2.331" transform="translate(-1387.115 -525.736)" fill="#ac4946"/>
            <path id="Trazado_723374" data-name="Trazado 723374" d="M1390.237,565.128c2.1-.839.363-3.735-3.069-2.261" transform="translate(-1386.236 -535.39)" fill="#ac4946"/>
            <path id="Trazado_723375" data-name="Trazado 723375" d="M1387.017,575.282c4.514-1.695,5.176,2.052,1.883,1.736" transform="translate(-1386.116 -545.259)" fill="#ac4946"/>
            <g id="Grupo_1008751" data-name="Grupo 1008751" transform="translate(37.985 21.702)">
              <path id="Trazado_723376" data-name="Trazado 723376" d="M1569.58,545.368l10.957,7C1590.6,539.324,1577.047,526.97,1569.58,545.368Z" transform="translate(-1569.58 -536.051)" fill="#e39b40"/>
              <line id="Línea_2806" data-name="Línea 2806" y1="6.775" x2="4.4" transform="translate(0.615 3.118)" fill="none" stroke="#e6b52f" stroke-miterlimit="10" stroke-width="0.5"/>
              <line id="Línea_2807" data-name="Línea 2807" y1="7.307" x2="4.375" transform="translate(9.657 8.521)" fill="none" stroke="#e6b52f" stroke-miterlimit="10" stroke-width="0.5"/>
              <line id="Línea_2808" data-name="Línea 2808" x2="8.961" y2="5.662" transform="translate(1.863 7.972)" fill="none" stroke="#e6b52f" stroke-miterlimit="10" stroke-width="0.5"/>
            </g>
            <line id="Línea_2809" data-name="Línea 2809" x1="0.308" y1="3.374" transform="translate(26.295 34.149)" fill="none" stroke="#e6b52f" stroke-miterlimit="10" stroke-width="0.5"/>
            <path id="Trazado_723377" data-name="Trazado 723377" d="M1389.175,574.562a3.319,3.319,0,0,0-3.339.484" transform="translate(-1385.175 -544.824)" fill="none" stroke="#753130" stroke-linecap="round" stroke-linejoin="round" stroke-width="0.25"/>
            <path id="Trazado_723378" data-name="Trazado 723378" d="M1389.745,562.76a3.319,3.319,0,0,0-3.372.093" transform="translate(-1385.602 -535.29)" fill="none" stroke="#753130" stroke-linecap="round" stroke-linejoin="round" stroke-width="0.25"/>
            <path id="Trazado_723379" data-name="Trazado 723379" d="M1389.747,550.568a4.3,4.3,0,0,0-3.88.08" transform="translate(-1385.199 -525.569)" fill="none" stroke="#753130" stroke-linecap="round" stroke-linejoin="round" stroke-width="0.25"/>
            <path id="Trazado_723380" data-name="Trazado 723380" d="M1393.342,584.892a2.8,2.8,0,0,1-2.053-.137" transform="translate(-1389.52 -553.16)" fill="none" stroke="#753130" stroke-linecap="round" stroke-linejoin="round" stroke-width="0.25"/>
            <path id="Trazado_723381" data-name="Trazado 723381" d="M1569.719,458.421c2.021-.388,2.848-.543,2.77-1.474s5.2-6.335,1.422-10.472C1569.154,443.062,1565.423,457.438,1569.719,458.421Z" transform="translate(-1530.199 -442.552)" fill="#59240b"/>
            <path id="Trazado_723382" data-name="Trazado 723382" d="M1552.415,517.511s-.566,4.006-6.885,3.386a3.565,3.565,0,0,1-3.563-3.175S1546,516.326,1552.415,517.511Z" transform="translate(-1509.591 -499.195)" fill="#ac4946"/>
            <path id="Trazado_723383" data-name="Trazado 723383" d="M1554.28,494.764h0c-1.868.205-3.531-.836-3.7-2.291l-.3-2.54,7.039-4.051-.128,6.955C1557.448,494.27,1556.137,494.56,1554.28,494.764Z" transform="translate(-1516.216 -474.372)" fill="#ac4946"/>
            <ellipse id="Elipse_8733" data-name="Elipse 8733" cx="2.666" cy="3.59" rx="2.666" ry="3.59" transform="translate(30.709 2.348)" fill="#59240b"/>
            <path id="Trazado_723384" data-name="Trazado 723384" d="M1535.208,444.264c-.767,4.514-1.612,8.036,3.1,8.671,3.292.443,6.069-2.31,6.836-6.825s.45-7.233-2.825-7.79S1535.976,439.749,1535.208,444.264Z" transform="translate(-1503.727 -436.398)" fill="#ac4946"/>
            <path id="Trazado_723385" data-name="Trazado 723385" d="M1542.883,476.868c-.931-.993-1.341.335-.311,1.149" transform="translate(-1509.591 -466.906)" fill="none" stroke="#753130" stroke-linecap="round" stroke-linejoin="round" stroke-width="0.25"/>
            <path id="Trazado_723386" data-name="Trazado 723386" d="M1551.115,510.123a5.84,5.84,0,0,1-2.513-.189" transform="translate(-1514.878 -493.537)" fill="none" stroke="#753130" stroke-linecap="round" stroke-linejoin="round" stroke-width="0.25"/>
            <path id="Trazado_723387" data-name="Trazado 723387" d="M1577.444,476.841a1.888,1.888,0,0,0,.374,2.567c.74.381,1.773-.15,2.306-1.187a1.887,1.887,0,0,0-.375-2.567C1579.01,475.274,1577.977,475.8,1577.444,476.841Z" transform="translate(-1537.613 -466.123)" fill="#ac4946"/>
            <path id="Trazado_723388" data-name="Trazado 723388" d="M1556.3,475.137c-.067.261.015.508.183.551s.359-.134.426-.4-.015-.508-.183-.551S1556.369,474.875,1556.3,475.137Z" transform="translate(-1520.996 -465.488)" fill="#0a0f22"/>
            <path id="Trazado_723389" data-name="Trazado 723389" d="M1539.39,470.815c-.067.262.015.508.183.551s.359-.134.426-.4-.015-.508-.183-.551S1539.457,470.553,1539.39,470.815Z" transform="translate(-1507.519 -462.044)" fill="#0a0f22"/>
            <path id="Trazado_723390" data-name="Trazado 723390" d="M1559.45,467.963s-.33-.371-.658-.287" transform="translate(-1522.998 -459.853)" fill="none" stroke="#59240b" stroke-linecap="round" stroke-linejoin="round" stroke-width="0.25"/>
            <path id="Trazado_723391" data-name="Trazado 723391" d="M1542,464.193a.469.469,0,0,0-.5.077" transform="translate(-1509.213 -457.054)" fill="none" stroke="#59240b" stroke-linecap="round" stroke-linejoin="round" stroke-width="0.25"/>
            <path id="Trazado_723392" data-name="Trazado 723392" d="M1547.452,489.594a1.3,1.3,0,0,1-1.87-.207" transform="translate(-1512.472 -477.164)" fill="none" stroke="#753130" stroke-linecap="round" stroke-linejoin="round" stroke-width="0.25"/>
            <path id="Trazado_723393" data-name="Trazado 723393" d="M1546.26,438.622a3.641,3.641,0,0,0-1.906,2,2.86,2.86,0,0,1-.095-3.194c.362-.387-1.176-1.55-.343-2.662a4.148,4.148,0,0,1-2.079.42,4.375,4.375,0,0,1-2.947-1.515,2.532,2.532,0,0,1-3.173-1.206,2.453,2.453,0,0,1,1-2.828c.659-.414,1.057-.087,3.258-.207a17.584,17.584,0,0,1,2.307-.2c1.109.107,1.132.443,3.381,1.18,1.124.368,1.465.4,1.853.8a2.9,2.9,0,0,1,.688,2.027C1549.577,433.809,1548.89,438.988,1546.26,438.622Z" transform="translate(-1504.494 -429.214)" fill="#59240b"/>
            <path id="Trazado_723394" data-name="Trazado 723394" d="M1579.378,445.615a2.178,2.178,0,0,0-2.246.388" transform="translate(-1537.613 -442.159)" fill="none" stroke="#3d120a" stroke-linecap="round" stroke-linejoin="round" stroke-width="0.5"/>
            <path id="Trazado_723395" data-name="Trazado 723395" d="M1564.595,436.514s-2.853-.517-3.2,1.138" transform="translate(-1525.076 -434.97)" fill="none" stroke="#3d120a" stroke-linecap="round" stroke-linejoin="round" stroke-width="0.5"/>
            <path id="Trazado_723396" data-name="Trazado 723396" d="M1546.745,437.626a1.623,1.623,0,0,1,1.522-2.339" transform="translate(-1513.286 -434.053)" fill="none" stroke="#3d120a" stroke-linecap="round" stroke-linejoin="round" stroke-width="0.5"/>
            <path id="Trazado_723397" data-name="Trazado 723397" d="M1584.152,459.218a6.192,6.192,0,0,0,2.327,0" transform="translate(-1543.207 -453.123)" fill="none" stroke="#3d120a" stroke-linecap="round" stroke-linejoin="round" stroke-width="0.5"/>
            <path id="Trazado_723398" data-name="Trazado 723398" d="M1585.266,467.151a3.659,3.659,0,0,0,2.623.508" transform="translate(-1544.094 -459.445)" fill="none" stroke="#3d120a" stroke-linecap="round" stroke-linejoin="round" stroke-width="0.5"/>
            <path id="Trazado_723399" data-name="Trazado 723399" d="M1554.422,438.543a1.587,1.587,0,0,1,1.143-2.105" transform="translate(-1519.442 -434.971)" fill="none" stroke="#3d120a" stroke-linecap="round" stroke-linejoin="round" stroke-width="0.5"/>
            <line id="Línea_2810" data-name="Línea 2810" y2="1.2" transform="translate(34.264 17.927)" fill="none" stroke="#753130" stroke-linecap="round" stroke-linejoin="round" stroke-width="0.25"/>
          </g>
          <path id="Trazado_723400" data-name="Trazado 723400" d="M1552.719,691.155c6.917.09,9.071,3.322,11.725,4.951s.694,8.116-10.059,6.875S1546.125,691.07,1552.719,691.155Z" transform="translate(-1513.636 -637.946)" fill="#6073c9"/>
          <line id="Línea_2811" data-name="Línea 2811" x2="2.054" y2="1.166" transform="translate(46.135 54.874)" fill="none" stroke="#495aab" stroke-linecap="round" stroke-linejoin="round" stroke-width="0.25"/>
          <g id="Grupo_1008754" data-name="Grupo 1008754" transform="translate(29.142 91.75)">
            <path id="Trazado_723401" data-name="Trazado 723401" d="M1572.391,880.9l.85,6.883-9.633-.6V881.63Z" transform="translate(-1555.978 -880.896)" fill="#ac4946" stroke="#707070" stroke-width="0.25"/>
            <g id="Grupo_1008753" data-name="Grupo 1008753" transform="translate(0 3.473)">
              <path id="Trazado_723402" data-name="Trazado 723402" d="M1543.123,898.444c-1.256,1.438-3.554,2.52-4.42,1.268-1.739-2.511-5.22-2-5.671-.2a13.992,13.992,0,0,1-3.689,2.343h0c-3.845,2.021-3.688,3.74-2.715,7.242,5.683,3.267,19.259-4.667,16.817-3.581a9.36,9.36,0,0,0,.322-4.149A15.133,15.133,0,0,0,1543.123,898.444Z" transform="translate(-1526.043 -897.992)" fill="#373c40" stroke="#707070" stroke-width="0.25"/>
              <path id="Trazado_723403" data-name="Trazado 723403" d="M1540,930.5c-2.593,1.467-6.367,3.456-13.3.835-.078.645.4,1.37.445,2.138,5.5,3.159,10.332.691,12.948-.79a19.707,19.707,0,0,1,4.37-1.922l-.093-2.183A19.7,19.7,0,0,0,1540,930.5Z" transform="translate(-1526.56 -922.362)" fill="#fff" stroke="#707070" stroke-width="0.25"/>
            </g>
            <path id="Trazado_723404" data-name="Trazado 723404" d="M1537.468,917.951c2.792-1.5,9.442.466,9.621,4.381" transform="translate(-1535.147 -910.022)" fill="none" stroke="#21262b" stroke-linecap="round" stroke-linejoin="round" stroke-width="0.25"/>
            <line id="Línea_2812" data-name="Línea 2812" y1="3.134" x2="3.499" transform="translate(9.16 5.193)" fill="none" stroke="#21262b" stroke-linecap="round" stroke-linejoin="round" stroke-width="0.25"/>
          </g>
          <g id="Grupo_1008756" data-name="Grupo 1008756" transform="translate(2.194 91.572)">
            <path id="Trazado_723405" data-name="Trazado 723405" d="M1451.659,880.619l-.341,5.053-9.479.219,1.152-5.875Z" transform="translate(-1431.997 -880.016)" fill="#ac4946"/>
            <g id="Grupo_1008755" data-name="Grupo 1008755" transform="translate(0 1.833)">
              <path id="Trazado_723406" data-name="Trazado 723406" d="M1413.006,889.939c-1.428,1.359-5.336,1.789-6.052.561-2.054-3.522-3.854.151-9.742,2.39h0c-4.084,1.863-4.134,3.527-3.581,6.929,3.557,2.208,18.849-3.044,18.849-3.044a9.165,9.165,0,0,0,.819-4A13.542,13.542,0,0,0,1413.006,889.939Z" transform="translate(-1393.383 -889.04)" fill="#373c40"/>
              <path id="Trazado_723407" data-name="Trazado 723407" d="M1406.927,922.647c-2.767,1.358-8.314,3.557-13.392.5-.155.621.232,1.331.188,2.074,5.114,3.175,10.243.9,13.035-.468a21.27,21.27,0,0,1,6.211-1.725l.168-2.11A21.276,21.276,0,0,0,1406.927,922.647Z" transform="translate(-1393.475 -914.446)" fill="#fff" stroke="#707070" stroke-width="0.25"/>
            </g>
            <path id="Trazado_723408" data-name="Trazado 723408" d="M1407.888,909.246c2.971-1.388,6.348,1.5,6.058,5.285" transform="translate(-1404.942 -903.026)" fill="none" stroke="#21262b" stroke-linecap="round" stroke-linejoin="round" stroke-width="0.25"/>
            <line id="Línea_2813" data-name="Línea 2813" y1="3.66" x2="6.588" transform="translate(7.689 3.826)" fill="none" stroke="#21262b" stroke-linecap="round" stroke-linejoin="round" stroke-width="0.25"/>
          </g>
          <path id="Trazado_723409" data-name="Trazado 723409" d="M1544.467,705.189l2.459,32.281c1.516.59,8.06,2.039,11.474-1.054.075-6.5-.307-20.015-.813-32.03a6.572,6.572,0,0,0-6.567-6.292h0A6.573,6.573,0,0,0,1544.467,705.189Z" transform="translate(-1511.566 -643.476)" fill="#6073c9"/>
          <path id="Trazado_723410" data-name="Trazado 723410" d="M1441.571,704.346c-.578,11.558-.723,24.107-.983,30.135,2.271,2.547,6.106,3.479,11.782,2.322,1.091-2.56,2.007-19.467,2.7-31.765a6.573,6.573,0,0,0-6.563-6.944h-.37A6.577,6.577,0,0,0,1441.571,704.346Z" transform="translate(-1428.805 -643.476)" fill="#6073c9"/>
          <path id="Trazado_723411" data-name="Trazado 723411" d="M1442.093,868.957s3.646,2.964,11.9,2.068" transform="translate(-1430.004 -779.632)" fill="none" stroke="#495aab" stroke-linecap="round" stroke-linejoin="round" stroke-width="0.25"/>
          <path id="Trazado_723412" data-name="Trazado 723412" d="M1556.1,876.325s4.233,2.133,11.594-1.248" transform="translate(-1520.852 -784.509)" fill="none" stroke="#495aab" stroke-linecap="round" stroke-linejoin="round" stroke-width="0.25"/>
          <path id="Trazado_723413" data-name="Trazado 723413" d="M1597.75,732.678c-.175-4.03.411-14.706.085-29.333a1.69,1.69,0,0,1,2.556-1.488l2.275,1.363a1.529,1.529,0,0,0,2.312-1.4l-.275-6.835" transform="translate(-1554.016 -640.998)" fill="none" stroke="#495aab" stroke-linecap="round" stroke-linejoin="round" stroke-width="0.25"/>
          <path id="Trazado_723414" data-name="Trazado 723414" d="M1487.953,757.992l3.082-29.27a1.76,1.76,0,0,1,2.252-1.539l6.178.722" transform="translate(-1466.549 -666.599)" fill="none" stroke="#495aab" stroke-linecap="round" stroke-linejoin="round" stroke-width="0.25"/>
          <path id="Trazado_723415" data-name="Trazado 723415" d="M1546.546,701.27c-2.054,2.665-2.039,6.917-1.525,13.339" transform="translate(-1511.794 -646.007)" fill="none" stroke="#495aab" stroke-linecap="round" stroke-linejoin="round" stroke-width="0.25"/>
          <line id="Línea_2814" data-name="Línea 2814" x2="0.13" y2="3.575" transform="translate(46.168 62.967)" fill="none" stroke="#495aab" stroke-linecap="round" stroke-linejoin="round" stroke-width="0.25"/>
          <line id="Línea_2815" data-name="Línea 2815" x1="0.294" y2="3.896" transform="translate(25.838 62.967)" fill="none" stroke="#495aab" stroke-linecap="round" stroke-linejoin="round" stroke-width="0.25"/>
        </g>
        <g id="Grupo_1008760" data-name="Grupo 1008760" transform="translate(28.008 1.285)">
          <path id="Trazado_723416" data-name="Trazado 723416" d="M1137,250.719h15.547v19.927H1137Z" transform="translate(-1118.558 -250.719)" fill="#e6b52f"/>
          <rect id="Rectángulo_348430" data-name="Rectángulo 348430" width="10.742" height="15.123" transform="translate(20.848 2.402)" fill="#fff"/>
          <g id="Grupo_1008758" data-name="Grupo 1008758" transform="translate(22.422 5.489)">
            <path id="Trazado_723417" data-name="Trazado 723417" d="M1169.7,282.144c1.43-1.58,1.36-4.165-.163-2.865-.087-1.645-1.3-1.523-1.677-.145-.152-2.109-1.3-1.523-1.544-.211-1.652-1.663-1.567.644-1.108,2.237S1167.686,284.365,1169.7,282.144Z" transform="translate(-1163.224 -277.743)" fill="#e39b40"/>
            <path id="Trazado_723418" data-name="Trazado 723418" d="M1170.742,293.576c.946-1.363-.991-1-1.371-.33.264-1.5-1.626-1.477-1.484-.124-.267-1.572-1.605-1.67-1.358-.237S1168.779,295.79,1170.742,293.576Z" transform="translate(-1164.483 -289.003)" fill="#288d8a"/>
            <path id="Trazado_723419" data-name="Trazado 723419" d="M1170.362,301.093a10.46,10.46,0,0,0-1.089,4.412" transform="translate(-1166.682 -296.35)" fill="#a5d3d4"/>
            <path id="Trazado_723420" data-name="Trazado 723420" d="M1159.455,301.745a2.978,2.978,0,0,0-2.75-2.409C1155.864,301.11,1159.455,301.745,1159.455,301.745Z" transform="translate(-1156.577 -294.95)" fill="#288d8a"/>
            <path id="Trazado_723421" data-name="Trazado 723421" d="M1169.589,308.429s2.176-2.386,4.506-1.29C1172.251,309.194,1170.072,308.835,1169.589,308.429Z" transform="translate(-1166.946 -300.938)" fill="#288d8a"/>
          </g>
          <path id="Trazado_723422" data-name="Trazado 723422" d="M1061.742,338.359H1046.2V318.432h15.546Z" transform="translate(-1046.196 -304.677)" fill="#e6b52f"/>
          <rect id="Rectángulo_348431" data-name="Rectángulo 348431" width="10.742" height="15.123" transform="translate(2.402 16.156)" fill="#fff"/>
          <g id="Grupo_1008759" data-name="Grupo 1008759" transform="translate(4.07 19.244)">
            <path id="Trazado_723423" data-name="Trazado 723423" d="M1067.262,349.857c-1.429-1.58-1.36-4.165.163-2.865.087-1.644,1.3-1.522,1.677-.145.152-2.109,1.3-1.523,1.544-.211,1.651-1.663,1.567.644,1.108,2.237S1069.272,352.078,1067.262,349.857Z" transform="translate(-1066.235 -345.456)" fill="#51aee6"/>
            <path id="Trazado_723424" data-name="Trazado 723424" d="M1071.688,356.438c-1.021-1.128-.971-2.974.116-2.045.062-1.174.929-1.087,1.2-.1.109-1.506.929-1.087,1.1-.151,1.179-1.187,1.119.46.791,1.6A1.777,1.777,0,0,1,1071.688,356.438Z" transform="translate(-1069.995 -351.703)" fill="#ab3a15"/>
            <path id="Trazado_723425" data-name="Trazado 723425" d="M1071.331,361.289c-.946-1.362.991-1,1.371-.329-.264-1.5,1.626-1.477,1.485-.124.266-1.572,1.605-1.67,1.358-.237S1073.294,363.5,1071.331,361.289Z" transform="translate(-1070.09 -356.716)" fill="#288d8a"/>
            <path id="Trazado_723426" data-name="Trazado 723426" d="M1085.039,368.806a10.462,10.462,0,0,1,1.089,4.412" transform="translate(-1081.219 -364.063)" fill="#a5d3d4"/>
            <path id="Trazado_723427" data-name="Trazado 723427" d="M1088.99,369.458a2.978,2.978,0,0,1,2.75-2.409C1092.581,368.823,1088.99,369.458,1088.99,369.458Z" transform="translate(-1084.368 -362.663)" fill="#288d8a"/>
            <path id="Trazado_723428" data-name="Trazado 723428" d="M1072.468,376.141s-2.176-2.386-4.506-1.291C1069.806,376.906,1071.986,376.548,1072.468,376.141Z" transform="translate(-1067.611 -368.651)" fill="#288d8a"/>
          </g>
        </g>
      </g>
    </g>
  </g>
</svg>
