<svg xmlns="http://www.w3.org/2000/svg" width="152" height="153" viewBox="0 0 152 153">
  <g id="Grupo_1013476" data-name="Grupo 1013476" transform="translate(-467 -2401)">
    <g id="Elipse_156" data-name="Elipse 156" transform="translate(467 2401)" fill="#fff" stroke="#4db1f0" stroke-width="10">
      <ellipse cx="76" cy="76.5" rx="76" ry="76.5" stroke="none"/>
      <ellipse cx="76" cy="76.5" rx="71" ry="71.5" fill="none"/>
    </g>
    <g id="Grupo_1006537" data-name="Grupo 1006537" transform="translate(495 2386.499)">
      <rect id="Rectángulo_347917" data-name="Rectángulo 347917" width="7.471" height="10.46" transform="translate(10.461 70.828)" fill="#e1945f"/>
      <path id="Trazado_720480" data-name="Trazado 720480" d="M8.967,92.69A5.977,5.977,0,0,0,2.99,98.667v10.46A2.989,2.989,0,0,1,0,112.116c0,2.476,4.483,7.471,10.46,4.483l1.494-2.989V92.69Z" transform="translate(0 -29.334)" fill="#643c3e"/>
      <path id="Trazado_720481" data-name="Trazado 720481" d="M70.012,78.3h0a8.218,8.218,0,0,1-8.219-8.219V65.6a8.218,8.218,0,0,1,8.219-8.219h0A8.219,8.219,0,0,1,78.23,65.6V70.08A8.218,8.218,0,0,1,70.012,78.3Z" transform="translate(-51.332 0)" fill="#f5af73"/>
      <path id="Trazado_720482" data-name="Trazado 720482" d="M217.06,264.142c-3.76-3.634-8.414-1.633-12.453,1.692l-16.055,13.157,6.261,11.906.611-.482c8.27-6.492,16.5-18.128,16.5-18.128L229.855,288.8l7.471-1.494S222.378,269.282,217.06,264.142Z" transform="translate(-156.634 -170.153)" fill="#f5c882"/>
      <path id="Trazado_720483" data-name="Trazado 720483" d="M210.816,368.44l2.493,4.674.611-.482a75.139,75.139,0,0,0,9.827-9.7,1.063,1.063,0,0,0-1.436-1.549A107.564,107.564,0,0,1,210.816,368.44Z" transform="translate(-175.13 -252.369)" fill="#f5af73"/>
      <path id="Trazado_720484" data-name="Trazado 720484" d="M63.419,234.925A18.207,18.207,0,0,1,55.95,224.4c-.438-1.839,3.113-2.989,2.366-7.1-.305-1.679-5.355-4.109-8.343-10.086l-8.756-.047c-3.238,17,3.4,25.635,9.752,32.734.837.935,1.667,2.03,2.546,3.126Z" transform="translate(-33.536 -124.437)" fill="#7df5a5"/>
      <path id="Trazado_720485" data-name="Trazado 720485" d="M133.2,345.662l-15.17,12.417c1.873,2.335,3.992,4.681,7.043,5.528,5.348,1.486,8.436-1.245,11.767-3.86a58.074,58.074,0,0,0,5.206-4.7Z" transform="translate(-98.046 -239.484)" fill="#afb9d2"/>
      <path id="Trazado_720486" data-name="Trazado 720486" d="M53.516,243.033l4.208-3.445c-12.2-9.913-13.124-25.477-11.68-31.049l-4.826-1.366c-3.238,17,3.4,25.635,9.752,32.734C51.807,240.842,52.637,241.937,53.516,243.033Z" transform="translate(-33.536 -124.438)" fill="#64dca0"/>
      <path id="Trazado_720487" data-name="Trazado 720487" d="M142.042,387.591l-2.595-2.753c-3.145,1.914-6.053,3.469-8.145,4.529a6.671,6.671,0,0,1-6.747-.455c-.819-.553-1.586-1.135-2.322-1.732l-4.208,3.445c1.873,2.335,3.992,4.681,7.043,5.528,5.348,1.486,8.436-1.245,11.767-3.86A58.125,58.125,0,0,0,142.042,387.591Z" transform="translate(-98.046 -272.029)" fill="#959cb5"/>
      <path id="Trazado_720488" data-name="Trazado 720488" d="M348.147,327.651l-16.4-17.018a2.6,2.6,0,0,0-3.62-.123l-1.49,1.349,17.929,16.509Z" transform="translate(-271.343 -209.724)" fill="#f5af73"/>
      <path id="Trazado_720489" data-name="Trazado 720489" d="M440.023,410.483h-5.977a1.494,1.494,0,0,0-1.494,1.494v5.977H446V416.46A5.977,5.977,0,0,0,440.023,410.483Z" transform="translate(-359.332 -293.333)" fill="#d5dced"/>
      <path id="Trazado_720490" data-name="Trazado 720490" d="M70.012,57.379A8.218,8.218,0,0,0,61.793,65.6V70.08a8.175,8.175,0,0,0,.767,3.45c6.763-2.577,7.7-7.853,15.671-7.329v-.6A8.219,8.219,0,0,0,70.012,57.379Z" transform="translate(-51.332 0)" fill="#785353"/>
      <path id="Trazado_720491" data-name="Trazado 720491" d="M48.518,94.642a3.955,3.955,0,0,1-3.644-2.336A3.769,3.769,0,0,1,47.2,87.122l19.688-6.241L48.855,71.864a2.989,2.989,0,1,1,2.674-5.347l18.036,9.018a5.977,5.977,0,0,1-.4,10.873l-19.331,7.96A4.025,4.025,0,0,1,48.518,94.642Z" transform="translate(-37.005 -7.329)" fill="#f5c882"/>
    </g>
  </g>
</svg>
