<svg xmlns="http://www.w3.org/2000/svg" width="124" height="124" viewBox="0 0 124 124">
  <g id="Grupo_1013479" data-name="Grupo 1013479" transform="translate(3594 8124)">
    <circle id="Elipse_8646" data-name="Elipse 8646" cx="62" cy="62" r="62" transform="translate(-3594 -8124)" fill="#3076b6"/>
    <g id="Grupo_1007763" data-name="Grupo 1007763" transform="translate(-3581.944 -8111.944)">
      <g id="Grupo_1007760" data-name="Grupo 1007760" transform="translate(7.5 7.5)">
        <g id="Grupo_1007758" data-name="Grupo 1007758" transform="translate(39.674)">
          <path id="Trazado_721775" data-name="Trazado 721775" d="M379.918,235.241v4.116a3.762,3.762,0,0,1-3.763,3.763h-10.17c.21-7.965-.277-16.2-2.763-23.16,0,0,.9-.06,1.355-.06A15.342,15.342,0,0,1,379.918,235.241Z" transform="translate(-341.578 -183.287)" fill="#e39b40"/>
          <path id="Trazado_721776" data-name="Trazado 721776" d="M334.441,220.25a15.235,15.235,0,0,0-5.995,1.814,24.43,24.43,0,0,1,2.364,21.346H337.2a30.39,30.39,0,0,0-2.763-23.16Z" transform="translate(-312.797 -183.577)" fill="#cb8133"/>
          <g id="Grupo_1007757" data-name="Grupo 1007757">
            <g id="Grupo_1007756" data-name="Grupo 1007756">
              <g id="Grupo_1007755" data-name="Grupo 1007755">
                <g id="Grupo_1007754" data-name="Grupo 1007754">
                  <g id="Grupo_1007753" data-name="Grupo 1007753" transform="translate(0 19.709)">
                    <path id="Trazado_721777" data-name="Trazado 721777" d="M240.366,129.864c.043.016.429.466.867.973a24.3,24.3,0,0,1,4.493,2.224,22.087,22.087,0,0,1-1.534-7.791,17.165,17.165,0,0,1,.279-2.454,4.14,4.14,0,1,0-4.106,7.047Z" transform="translate(-237.661 -121.84)" fill="#ffb2a6"/>
                    <circle id="Elipse_8643" data-name="Elipse 8643" cx="4.14" cy="4.14" r="4.14" transform="translate(37.716)" fill="#ffcbbe"/>
                  </g>
                  <path id="Trazado_721778" data-name="Trazado 721778" d="M306.243,63.654a17.132,17.132,0,0,1-16.522,17.122c-4.326-7.829-11.452-13.479-17.731-17.843a17.134,17.134,0,0,1,34.253.721Z" transform="translate(-266.073 -39.794)" fill="#ffddcf"/>
                  <path id="Trazado_721779" data-name="Trazado 721779" d="M271.9,141.74a16.811,16.811,0,0,0,1.28,7.268,24.5,24.5,0,0,1,9.141,9.229,16.8,16.8,0,0,0,7.309,1.346A30.553,30.553,0,0,0,271.9,141.74Z" transform="translate(-265.985 -118.6)" fill="#ffcbbe"/>
                  <path id="Trazado_721780" data-name="Trazado 721780" d="M265.891,7.5c11.1,0,21.878,9,21.878,20.1q0,.471-.022.937c-1.623,0-5.037-.436-5.037-.436-2.257-8.067-12.414-9.659-16.481-7.158a.691.691,0,0,1-.69.027c-4.7-2.514-14.1-.47-16.474,7.131a30.889,30.889,0,0,1-5.109.436q-.022-.465-.022-.937C243.936,16.5,254.791,7.5,265.891,7.5Z" transform="translate(-242.854 -7.5)" fill="#2a486b"/>
                </g>
              </g>
            </g>
          </g>
        </g>
        <path id="Trazado_721781" data-name="Trazado 721781" d="M25.767,407.38l-6.635,6.635A6.814,6.814,0,0,1,9.5,404.379l6.8-6.8Z" transform="translate(-7.5 -330.34)" fill="#7a8fa5"/>
        <path id="Trazado_721782" data-name="Trazado 721782" d="M72.06,384.618l-4.068,4.059a30.637,30.637,0,0,1-9.472-9.8l3.9-3.9Z" transform="translate(-49.725 -311.637)" fill="#5b778f"/>
        <path id="Trazado_721783" data-name="Trazado 721783" d="M221.667,187.282a25.228,25.228,0,0,1-21.2,24.9c-8.783-13.446-9.322-36.152.25-49.765A25.228,25.228,0,0,1,221.667,187.282Z" transform="translate(-161.615 -135.716)" fill="#a5d3d4"/>
        <path id="Trazado_721784" data-name="Trazado 721784" d="M92.481,210.447a25.224,25.224,0,1,1,.25-49.765C85.417,174.494,85.729,196.617,92.481,210.447Z" transform="translate(-53.623 -133.978)" fill="#288d8a"/>
        <path id="Trazado_721785" data-name="Trazado 721785" d="M215.457,222.638a17.544,17.544,0,0,1-16.315,17.5c-3.793-7.97-4.558-19.028-2.44-28.46-.063.268-.023.1.018-.077a25.366,25.366,0,0,1,2.489-6.462A17.547,17.547,0,0,1,215.457,222.638Z" transform="translate(-163.081 -171.072)" fill="#fff4e5"/>
        <path id="Trazado_721786" data-name="Trazado 721786" d="M126.54,239.907c-.407.031-.819.045-1.232.045a17.546,17.546,0,1,1,0-35.092q.657,0,1.3.048A65.352,65.352,0,0,0,126.54,239.907Z" transform="translate(-90.478 -170.84)" fill="#ffe0b7"/>
        <g id="Grupo_1007759" data-name="Grupo 1007759" transform="translate(26.003 45.086)">
          <path id="Trazado_721787" data-name="Trazado 721787" d="M210.494,274.2l-6.586,7.912a3.134,3.134,0,0,1-2.222,1.124.133.133,0,0,1-.026,0,13.094,13.094,0,0,1-.438-7.7l4.452-5.347a3.136,3.136,0,1,1,4.82,4.013Z" transform="translate(-193.517 -269.059)" fill="#a5d3d4"/>
          <path id="Trazado_721788" data-name="Trazado 721788" d="M166.492,299.289c-.055,0-.109.005-.162.005a3.135,3.135,0,0,1-2.153-.855l-4.844-4.57a3.136,3.136,0,1,1,4.3-4.563l2.417,2.28A68.417,68.417,0,0,0,166.492,299.289Z" transform="translate(-158.348 -285.109)" fill="#288d8a"/>
        </g>
      </g>
      <g id="Grupo_1007761" data-name="Grupo 1007761" transform="translate(7.5 7.5)">
        <path id="Trazado_721789" data-name="Trazado 721789" d="M65.028,176.158a25.253,25.253,0,1,0,2.911-5.3" transform="translate(-53.618 -133.977)" fill="none" stroke="#000" stroke-linecap="round" stroke-linejoin="round" stroke-width="2"/>
        <path id="Trazado_721790" data-name="Trazado 721790" d="M238.764,129.53a4.138,4.138,0,0,0,.615,6.172" transform="translate(-197.985 -108.495)" fill="none" stroke="#000" stroke-linecap="round" stroke-linejoin="round" stroke-width="2"/>
        <path id="Trazado_721791" data-name="Trazado 721791" d="M468.527,135.934a4.139,4.139,0,0,0,5.1-6.4" transform="translate(-389.057 -108.495)" fill="none" stroke="#000" stroke-linecap="round" stroke-linejoin="round" stroke-width="2"/>
        <path id="Trazado_721792" data-name="Trazado 721792" d="M347.832,254.372h15.586a3.764,3.764,0,0,0,3.764-3.764v-4.115a15.33,15.33,0,0,0-7.191-13" transform="translate(-289.167 -194.538)" fill="none" stroke="#000" stroke-linecap="round" stroke-linejoin="round" stroke-width="2"/>
        <path id="Trazado_721793" data-name="Trazado 721793" d="M272.211,126.954a17.215,17.215,0,0,0,.522,8.562" transform="translate(-226.322 -106.363)" fill="none" stroke="#000" stroke-linecap="round" stroke-linejoin="round" stroke-width="2"/>
        <path id="Trazado_721794" data-name="Trazado 721794" d="M340,146.532A17.144,17.144,0,0,0,362.223,127" transform="translate(-282.688 -106.404)" fill="none" stroke="#000" stroke-linecap="round" stroke-linejoin="round" stroke-width="2"/>
        <line id="Línea_2688" data-name="Línea 2688" y2="1.941" transform="translate(72.818 25.013)" fill="none" stroke="#000" stroke-linecap="round" stroke-linejoin="round" stroke-width="2"/>
        <line id="Línea_2689" data-name="Línea 2689" y2="1.941" transform="translate(52.615 25.013)" fill="none" stroke="#000" stroke-linecap="round" stroke-linejoin="round" stroke-width="2"/>
        <path id="Trazado_721795" data-name="Trazado 721795" d="M361.21,163.534a3.53,3.53,0,0,1-5.326,0" transform="translate(-295.831 -136.638)" fill="none" stroke="#000" stroke-linecap="round" stroke-linejoin="round" stroke-width="2"/>
        <circle id="Elipse_8644" data-name="Elipse 8644" cx="17.546" cy="17.546" r="17.546" transform="translate(17.283 34.019)" fill="none" stroke="#000" stroke-linecap="round" stroke-linejoin="round" stroke-width="2"/>
        <path id="Trazado_721796" data-name="Trazado 721796" d="M166.325,283.247a3.136,3.136,0,0,1-2.152-.855l-4.845-4.57a3.136,3.136,0,1,1,4.3-4.563l2.417,2.28,4.452-5.348a3.136,3.136,0,0,1,4.821,4.013l-6.587,7.912a3.137,3.137,0,0,1-2.222,1.124C166.451,283.245,166.388,283.247,166.325,283.247Z" transform="translate(-132.342 -223.975)" fill="none" stroke="#000" stroke-linecap="round" stroke-linejoin="round" stroke-width="2"/>
        <path id="Trazado_721797" data-name="Trazado 721797" d="M278.347,11.354A22.787,22.787,0,0,0,265.89,7.5c-11.1,0-21.955,9-21.955,20.1q0,.471.022.937a30.889,30.889,0,0,0,5.109-.436c2.434-7.8,12.256-9.746,16.825-6.93,3.809-2.816,14.5-1.372,16.82,6.929,0,0,3.413.433,5.037.436q.022-.465.022-.937A18.615,18.615,0,0,0,282.9,15.31" transform="translate(-203.179 -7.5)" fill="none" stroke="#000" stroke-linecap="round" stroke-linejoin="round" stroke-width="2"/>
        <path id="Trazado_721798" data-name="Trazado 721798" d="M20.08,375.623,9.5,386.207a6.814,6.814,0,0,0,9.636,9.636l10.382-10.382" transform="translate(-7.5 -312.167)" fill="none" stroke="#000" stroke-linecap="round" stroke-linejoin="round" stroke-width="2"/>
      </g>
    </g>
  </g>
</svg>
