<svg xmlns="http://www.w3.org/2000/svg" width="124" height="124" viewBox="0 0 124 124">
  <g id="Grupo_1013480" data-name="Grupo 1013480" transform="translate(3245 8124)">
    <circle id="Elipse_8645" data-name="Elipse 8645" cx="62" cy="62" r="62" transform="translate(-3245 -8124)" fill="#3076b6"/>
    <g id="Grupo_1007810" data-name="Grupo 1007810" transform="translate(-3230 -8109)">
      <g id="Grupo_1007808" data-name="Grupo 1007808" transform="translate(1.503 1.503)">
        <g id="Grupo_1007784" data-name="Grupo 1007784" transform="translate(80.836 33.062)">
          <path id="Trazado_721850" data-name="Trazado 721850" d="M452.459,195.541a9.074,9.074,0,0,0,5.816-5.606h.511a3.015,3.015,0,0,1,3.006,3.006v12.022a3.014,3.014,0,0,1-3.006,3.006H455.78v-3.006A15.013,15.013,0,0,0,452.459,195.541Z" transform="translate(-452.459 -189.935)" fill="#e6e9ed"/>
        </g>
        <g id="Grupo_1007785" data-name="Grupo 1007785" transform="translate(48.09 33.062)">
          <path id="Trazado_721851" data-name="Trazado 721851" d="M278.527,204.963v3.006h-.511a9.066,9.066,0,0,0-5.5-5.5v-9.528a3.015,3.015,0,0,1,3.006-3.006h.511a9.037,9.037,0,0,0,5.816,5.606A15.013,15.013,0,0,0,278.527,204.963Z" transform="translate(-272.516 -189.935)" fill="#e6e9ed"/>
        </g>
        <g id="Grupo_1007786" data-name="Grupo 1007786" transform="translate(28.373 33.062)">
          <path id="Trazado_721852" data-name="Trazado 721852" d="M171.865,204.963a15.037,15.037,0,0,0-7.695-13.12,9.161,9.161,0,0,0,2.39-1.909h8.311a3.015,3.015,0,0,1,3.006,3.006v9.528a9.066,9.066,0,0,0-5.5,5.5h-.511Z" transform="translate(-164.17 -189.935)" fill="#e6e9ed"/>
        </g>
        <g id="Grupo_1007787" data-name="Grupo 1007787" transform="translate(0 33.062)">
          <path id="Trazado_721853" data-name="Trazado 721853" d="M11.264,189.935h8.311a9.161,9.161,0,0,0,2.39,1.909,15.037,15.037,0,0,0-7.695,13.12v3.006H11.264a3.014,3.014,0,0,1-3.006-3.006V192.941A3.015,3.015,0,0,1,11.264,189.935Z" transform="translate(-8.258 -189.935)" fill="#e6e9ed"/>
        </g>
        <g id="Grupo_1007789" data-name="Grupo 1007789" transform="translate(22.542 34.97)">
          <g id="Grupo_1007788" data-name="Grupo 1007788">
            <path id="Trazado_721854" data-name="Trazado 721854" d="M137.96,200.423a15.037,15.037,0,0,1,7.695,13.12v3.006h-10.52l-3.006-9.017,1.8-2.705,2.7,2.705,1.172-7.033a1.418,1.418,0,0,1,.15-.075Z" transform="translate(-132.129 -200.423)" fill="#a5d3d4"/>
          </g>
        </g>
        <g id="Grupo_1007790" data-name="Grupo 1007790" transform="translate(21.039 35.046)">
          <path id="Trazado_721855" data-name="Trazado 721855" d="M126.877,201.858a9.038,9.038,0,0,0,4.178-1.022l-1.172,7.033-2.7-2.705-3.306-3.306Z" transform="translate(-123.871 -200.836)" fill="#b4dd7f"/>
        </g>
        <g id="Grupo_1007791" data-name="Grupo 1007791" transform="translate(13.856 35.046)">
          <path id="Trazado_721856" data-name="Trazado 721856" d="M88.274,205.164l-2.7,2.705L84.4,200.836a9.038,9.038,0,0,0,4.178,1.022h3.006Z" transform="translate(-84.397 -200.836)" fill="#b4dd7f"/>
        </g>
        <g id="Grupo_1007793" data-name="Grupo 1007793" transform="translate(6.011 34.97)">
          <g id="Grupo_1007792" data-name="Grupo 1007792">
            <path id="Trazado_721857" data-name="Trazado 721857" d="M50.307,207.531l2.7-2.705,1.8,2.705-3.006,9.017H41.29v-3.006a15.037,15.037,0,0,1,7.695-13.12,1.417,1.417,0,0,1,.15.075Z" transform="translate(-41.29 -200.423)" fill="#a5d3d4"/>
          </g>
        </g>
        <g id="Grupo_1007794" data-name="Grupo 1007794" transform="translate(54.101 34.97)">
          <path id="Trazado_721858" data-name="Trazado 721858" d="M308.869,204.12a15.242,15.242,0,0,1,4.373-3.7,10.4,10.4,0,0,0,1.322.586v.511a15.09,15.09,0,0,0,6.011,12.022,14.868,14.868,0,0,0,4.418-5.3c.12-.225.225-.466.331-.706a14.815,14.815,0,0,0,1.262-6.011v-.511a10.4,10.4,0,0,0,1.322-.586,14.985,14.985,0,0,1,4.358,3.7h.015a15.013,15.013,0,0,1,3.321,9.423v3.006h-10.52l-2.329,4.674a2.444,2.444,0,0,1-4.358,0l-2.329-4.674h-10.52v-3.006A15.013,15.013,0,0,1,308.869,204.12Z" transform="translate(-305.548 -200.423)" fill="#3276b6"/>
        </g>
        <g id="Grupo_1007795" data-name="Grupo 1007795" transform="translate(63.118 35.557)">
          <path id="Trazado_721859" data-name="Trazado 721859" d="M367.119,204.155a14.815,14.815,0,0,1-1.262,6.011h-9.5a14.812,14.812,0,0,1-1.262-6.011v-.511a9.079,9.079,0,0,0,3.006.511h6.011a9.079,9.079,0,0,0,3.006-.511Z" transform="translate(-355.097 -203.644)" fill="#ecc19c"/>
        </g>
        <g id="Grupo_1007796" data-name="Grupo 1007796" transform="translate(64.381 42.079)">
          <path id="Trazado_721860" data-name="Trazado 721860" d="M371.532,239.484c-.105.24-.211.481-.331.706a14.868,14.868,0,0,1-4.418,5.3,14.919,14.919,0,0,1-4.749-6.011Z" transform="translate(-362.034 -239.484)" fill="#fcd770"/>
        </g>
        <g id="Grupo_1007798" data-name="Grupo 1007798" transform="translate(16.531 42.079)">
          <g id="Grupo_1007797" data-name="Grupo 1007797">
            <path id="Trazado_721861" data-name="Trazado 721861" d="M105.108,239.484l3.006,9.017-2.329,4.674a2.444,2.444,0,0,1-4.358,0L99.1,248.5l3.006-9.017Z" transform="translate(-99.097 -239.484)" fill="#3276b6"/>
          </g>
        </g>
        <g id="Grupo_1007799" data-name="Grupo 1007799" transform="translate(17.733 36.068)">
          <path id="Trazado_721862" data-name="Trazado 721862" d="M112.315,209.758l-1.8,2.705h-3.006l-1.8-2.705,3.306-3.306Z" transform="translate(-105.703 -206.452)" fill="#3276b6"/>
        </g>
        <g id="Grupo_1007801" data-name="Grupo 1007801" transform="translate(51.096)">
          <g id="Grupo_1007800" data-name="Grupo 1007800">
            <path id="Trazado_721863" data-name="Trazado 721863" d="M302.557,20.281h-1.5a6.009,6.009,0,0,0-6.011,6.011v9.017a9.044,9.044,0,0,0,4.689,7.92,15.243,15.243,0,0,0-4.373,3.7,9,9,0,0,1-6.327-8.611V20.281A12.019,12.019,0,0,1,301.055,8.258h12.022A12.019,12.019,0,0,1,325.1,20.281V38.314a9,9,0,0,1-6.327,8.611h-.015a14.985,14.985,0,0,0-4.358-3.7,9.045,9.045,0,0,0,4.689-7.92V26.292a3.015,3.015,0,0,0-3.006-3.006h-7.514A7.528,7.528,0,0,1,302.557,20.281Z" transform="translate(-289.032 -8.258)" fill="#9a6230"/>
          </g>
        </g>
        <g id="Grupo_1007803" data-name="Grupo 1007803" transform="translate(3.006)">
          <g id="Grupo_1007802" data-name="Grupo 1007802">
            <path id="Trazado_721864" data-name="Trazado 721864" d="M29.282,26.292a4.5,4.5,0,0,0-3.967,2.359,29.278,29.278,0,0,1-.541-5.606A14.777,14.777,0,0,1,39.562,8.258H57.836l-1.5,4.508,4.508,1.5-3.006,4.509,3.006,1.5v2.765a29.277,29.277,0,0,1-.541,5.606,4.5,4.5,0,0,0-3.967-2.359h-1.5a3.014,3.014,0,0,0-3.006-3.006H44.311A7.528,7.528,0,0,1,38.3,20.281H36.8a6.01,6.01,0,0,0-6.011,6.011Z" transform="translate(-24.774 -8.258)" fill="#e39b40"/>
          </g>
        </g>
        <g id="Grupo_1007804" data-name="Grupo 1007804" transform="translate(57.107 12.023)">
          <path id="Trazado_721865" data-name="Trazado 721865" d="M322.065,89.351V80.334a6.009,6.009,0,0,1,6.011-6.011h1.5a7.528,7.528,0,0,0,6.011,3.006H343.1a3.015,3.015,0,0,1,3.006,3.006v9.017a9.045,9.045,0,0,1-4.689,7.92,10.4,10.4,0,0,1-1.322.586,9.079,9.079,0,0,1-3.006.511h-6.011a9.079,9.079,0,0,1-3.006-.511,10.4,10.4,0,0,1-1.322-.586A9.044,9.044,0,0,1,322.065,89.351Z" transform="translate(-322.065 -74.323)" fill="#f5e0cd"/>
        </g>
        <g id="Grupo_1007805" data-name="Grupo 1007805" transform="translate(33.062 18.034)">
          <path id="Trazado_721866" data-name="Trazado 721866" d="M191.438,107.355a4.508,4.508,0,0,1,0,9.017h-1.5v-9.017Z" transform="translate(-189.935 -107.355)" fill="#cf9e76"/>
        </g>
        <g id="Grupo_1007806" data-name="Grupo 1007806" transform="translate(3.006 18.034)">
          <path id="Trazado_721867" data-name="Trazado 721867" d="M30.785,107.355v9.017h-1.5a4.508,4.508,0,1,1,0-9.017Z" transform="translate(-24.774 -107.355)" fill="#cf9e76"/>
        </g>
        <g id="Grupo_1007807" data-name="Grupo 1007807" transform="translate(9.017 12.023)">
          <path id="Trazado_721868" data-name="Trazado 721868" d="M81.851,80.334v9.017a8.972,8.972,0,0,1-2.3,6.011,9.161,9.161,0,0,1-2.39,1.909,1.416,1.416,0,0,0-.15.075,9.038,9.038,0,0,1-4.178,1.022H66.823a9.038,9.038,0,0,1-4.178-1.022,1.416,1.416,0,0,0-.15-.075,9.161,9.161,0,0,1-2.39-1.909,8.973,8.973,0,0,1-2.3-6.011V80.334a6.01,6.01,0,0,1,6.011-6.011h1.5a7.528,7.528,0,0,0,6.011,3.006h7.514a3.014,3.014,0,0,1,3.006,3.006Z" transform="translate(-57.806 -74.323)" fill="#dfb28b"/>
        </g>
      </g>
      <g id="Grupo_1007809" data-name="Grupo 1007809">
        <circle id="Elipse_8658" data-name="Elipse 8658" cx="1.503" cy="1.503" r="1.503" transform="translate(15.028 21.039)"/>
        <circle id="Elipse_8659" data-name="Elipse 8659" cx="1.503" cy="1.503" r="1.503" transform="translate(27.051 21.039)"/>
        <path id="Trazado_721869" data-name="Trazado 721869" d="M105.108,151.651H99.1v3.006h6.011a6.017,6.017,0,0,0,6.011-6.011h-3.006A3.009,3.009,0,0,1,105.108,151.651Z" transform="translate(-81.063 -121.594)"/>
        <circle id="Elipse_8660" data-name="Elipse 8660" cx="1.503" cy="1.503" r="1.503" transform="translate(63.118 21.039)"/>
        <circle id="Elipse_8661" data-name="Elipse 8661" cx="1.503" cy="1.503" r="1.503" transform="translate(75.141 21.039)"/>
        <path id="Trazado_721870" data-name="Trazado 721870" d="M369.366,151.651h-6.011v3.006h6.011a6.017,6.017,0,0,0,6.011-6.011h-3.006A3.009,3.009,0,0,1,369.366,151.651Z" transform="translate(-297.231 -121.594)"/>
        <path id="Trazado_721871" data-name="Trazado 721871" d="M90.024,33.295a10.691,10.691,0,0,0,.144-1.736V13.525A13.541,13.541,0,0,0,76.643,0H64.621A13.541,13.541,0,0,0,51.1,13.525V31.559a10.691,10.691,0,0,0,.144,1.736,4.5,4.5,0,0,0-3.15,4.276V45.2a9.448,9.448,0,0,0-3.006,0V37.57a4.514,4.514,0,0,0-4.508-4.509H35.038a10.427,10.427,0,0,0,.909-3.006h.12a6,6,0,0,0,5.517-8.389,30.9,30.9,0,0,0,.494-5.38V12.6l-2.314-1.157,3.153-4.728L37.969,5.06,39.655,0H19.293A16.306,16.306,0,0,0,3.006,16.287a30.911,30.911,0,0,0,.494,5.38,6,6,0,0,0,5.517,8.389h.12a10.427,10.427,0,0,0,.909,3.006H4.508A4.514,4.514,0,0,0,0,37.57V49.593A4.514,4.514,0,0,0,4.508,54.1H17.1l1.918,3.837a3.935,3.935,0,0,0,7.039,0L27.979,54.1h8.208a10.564,10.564,0,0,0-.12,1.5v1.5h3.006V55.6a7.514,7.514,0,1,1,7.514,7.514h-1.5V75.141H48.09V66.017a10.432,10.432,0,0,0,8.9-11.916h8.208l1.918,3.837a3.935,3.935,0,0,0,7.039,0L76.069,54.1h12.6a4.514,4.514,0,0,0,4.508-4.508V37.57a4.5,4.5,0,0,0-3.15-4.276ZM36.068,51.1H28.134L25.7,43.8l.379-.568,3.473,3.473,1.3-7.771a13.536,13.536,0,0,1,5.216,10.655Zm-19.117,0H9.017v-1.5a13.536,13.536,0,0,1,5.216-10.655l1.3,7.771L19,43.236l.379.568Zm.583-10.641-.274-1.637a10.529,10.529,0,0,0,1.683.225Zm8.607-1.411a10.347,10.347,0,0,0,1.683-.225l-.274,1.637Zm-.592-2.976H19.537a7.523,7.523,0,0,1-7.514-7.514V19.537a4.514,4.514,0,0,1,4.508-4.508h.8a8.994,8.994,0,0,0,6.715,3.006h7.514a1.5,1.5,0,0,1,1.5,1.5v9.017A7.523,7.523,0,0,1,25.548,36.068Zm-3.7,6.011-.675-1.011L22.542,39.7l1.372,1.372-.673,1.011ZM36.068,27.051V21.039a3.006,3.006,0,1,1,0,6.011ZM19.293,3.006H35.486l-1.32,3.957,4.068,1.354-2.858,4.289,3.7,1.848v1.833c0,.839-.045,1.68-.122,2.516a5.938,5.938,0,0,0-2.884-.769h-.277a4.5,4.5,0,0,0-4.232-3.006H24.045a6.017,6.017,0,0,1-6.011-6.011H15.028a8.989,8.989,0,0,0,.536,3.067,7.527,7.527,0,0,0-6.387,5.95H9.017a5.939,5.939,0,0,0-2.884.769c-.077-.837-.122-1.677-.122-2.516A13.3,13.3,0,0,1,19.293,3.006ZM6.011,24.045a3.009,3.009,0,0,1,3.006-3.006v6.011A3.009,3.009,0,0,1,6.011,24.045ZM3.006,49.593V37.57a1.5,1.5,0,0,1,1.5-1.5h7.681c.122.12.253.231.38.346a16.555,16.555,0,0,0-6.558,13.18v1.5h-1.5A1.5,1.5,0,0,1,3.006,49.593Zm18.705,7-2.054-4.11,2.466-7.4h.839l2.466,7.4-2.054,4.11A.964.964,0,0,1,21.711,56.593Zm17.278-8.244a16.533,16.533,0,0,0-6.474-11.935c.128-.114.259-.225.38-.346h7.681a1.5,1.5,0,0,1,1.5,1.5v8.543A10.561,10.561,0,0,0,38.989,48.348ZM54.1,13.525a10.532,10.532,0,0,1,10.52-10.52H76.643a10.532,10.532,0,0,1,10.52,10.52V31.559a7.461,7.461,0,0,1-4.42,6.832,16.474,16.474,0,0,0-2.137-1.978,10.488,10.488,0,0,0,3.551-7.86V19.537a4.514,4.514,0,0,0-4.509-4.508H72.135a6.017,6.017,0,0,1-6.011-6.011H63.118a8.989,8.989,0,0,0,.536,3.067,7.526,7.526,0,0,0-6.548,7.452v9.017a10.488,10.488,0,0,0,3.551,7.86,16.474,16.474,0,0,0-2.137,1.978,7.464,7.464,0,0,1-4.42-6.832ZM73.638,36.068H67.627a7.523,7.523,0,0,1-7.514-7.514V19.537a4.514,4.514,0,0,1,4.508-4.508h.8a8.995,8.995,0,0,0,6.715,3.006h7.514a1.5,1.5,0,0,1,1.5,1.5v9.017A7.523,7.523,0,0,1,73.638,36.068Zm.708,6.011H66.917a13.56,13.56,0,0,1-.72-3.114,10.7,10.7,0,0,0,1.429.108h6.011a10.65,10.65,0,0,0,1.428-.108A13.474,13.474,0,0,1,74.346,42.079Zm-1.513,3.006a13.443,13.443,0,0,1-2.2,2.565,13.444,13.444,0,0,1-2.2-2.565ZM51.1,46.114V37.57a1.486,1.486,0,0,1,1.066-1.414,10.416,10.416,0,0,0,4.492,4.665,16.492,16.492,0,0,0-2.467,7.527,10.561,10.561,0,0,0-3.09-2.235ZM74.212,51.1l-2.749,5.5a.962.962,0,0,1-1.661,0l-2.75-5.5H57.107v-1.5A13.523,13.523,0,0,1,63.165,38.35,16.6,16.6,0,0,0,69.73,50.8l.9.676.9-.676A16.6,16.6,0,0,0,78.1,38.35a13.523,13.523,0,0,1,6.058,11.242v1.5Zm15.957-1.5a1.5,1.5,0,0,1-1.5,1.5h-1.5v-1.5a16.506,16.506,0,0,0-2.552-8.772A10.424,10.424,0,0,0,89.1,36.156a1.485,1.485,0,0,1,1.065,1.414Z"/>
        <path id="Trazado_721872" data-name="Trazado 721872" d="M235.734,429.419a4.508,4.508,0,1,0,4.508,4.509A4.514,4.514,0,0,0,235.734,429.419Zm0,6.011a1.5,1.5,0,1,1,1.5-1.5A1.5,1.5,0,0,1,235.734,435.43Z" transform="translate(-189.147 -351.273)"/>
        <path id="Trazado_721873" data-name="Trazado 721873" d="M103.605,462.452a4.508,4.508,0,1,0,4.508,4.508A4.514,4.514,0,0,0,103.605,462.452Zm0,6.011a1.5,1.5,0,1,1,1.5-1.5A1.5,1.5,0,0,1,103.605,468.463Z" transform="translate(-81.063 -378.294)" fill="#ffa031"/>
        <path id="Trazado_721874" data-name="Trazado 721874" d="M90.1,346.839a7.522,7.522,0,0,0-7.514,7.514v1.5h3.006v-1.5a4.508,4.508,0,1,1,4.508,4.508h-1.5v6.011H91.6v-3.157a7.514,7.514,0,0,0-1.5-14.876Z" transform="translate(-67.553 -283.721)" fill="#ffa031"/>
        <path id="Trazado_721875" data-name="Trazado 721875" d="M367.863,462.452a4.508,4.508,0,1,0,4.508,4.508A4.514,4.514,0,0,0,367.863,462.452Zm0,6.011a1.5,1.5,0,1,1,1.5-1.5A1.5,1.5,0,0,1,367.863,468.463Z" transform="translate(-297.231 -378.294)" fill="#ffa031"/>
        <path id="Trazado_721876" data-name="Trazado 721876" d="M354.353,346.839a7.523,7.523,0,0,0-7.514,7.514v1.5h3.006v-1.5a4.508,4.508,0,1,1,4.508,4.508h-1.5v6.011h3.006v-3.157a7.514,7.514,0,0,0-1.5-14.876Z" transform="translate(-283.721 -283.721)" fill="#ffa031"/>
      </g>
    </g>
  </g>
</svg>
