<svg xmlns="http://www.w3.org/2000/svg" xmlns:xlink="http://www.w3.org/1999/xlink" width="105" height="105" viewBox="0 0 105 105">
  <defs>
    <clipPath id="clip-path">
      <rect id="Rect치ngulo_347991" data-name="Rect치ngulo 347991" width="84.333" height="84.333" fill="none" stroke="#707070" stroke-width="3"/>
    </clipPath>
  </defs>
  <g id="Grupo_1013477" data-name="Grupo 1013477" transform="translate(3262 6417)">
    <rect id="Rect치ngulo_347990" data-name="Rect치ngulo 347990" width="105" height="105" transform="translate(-3262 -6417)" fill="#fff"/>
    <circle id="Elipse_8666" data-name="Elipse 8666" cx="11.5" cy="11.5" r="11.5" transform="translate(-3258 -6396)" fill="#ffa031"/>
    <circle id="Elipse_8667" data-name="Elipse 8667" cx="5.5" cy="5.5" r="5.5" transform="translate(-3238 -6408)" fill="#008b8a"/>
    <g id="g6423" transform="translate(-3252 -6407)">
      <g id="g6425" transform="translate(0 0)">
        <g id="Grupo_1007840" data-name="Grupo 1007840" transform="translate(0 0)">
          <g id="Grupo_1007839" data-name="Grupo 1007839" clip-path="url(#clip-path)">
            <g id="g6427" transform="translate(1.235 2.6)">
              <g id="g6433" transform="translate(8.186 19.101)">
                <g id="Grupo_1007833" data-name="Grupo 1007833">
                  <path id="path6435" d="M87.18,181.946H76.265v-4.963a1.318,1.318,0,0,1,1.318-1.318h8.28a1.318,1.318,0,0,1,1.318,1.318Z" transform="translate(-76.265 -175.665)" fill="#f4d9b9" stroke="#707070" stroke-width="3"/>
                </g>
              </g>
              <g id="g6437" transform="translate(13.995 19.101)">
                <g id="Grupo_1007834" data-name="Grupo 1007834">
                  <path id="path6439" d="M127.076,175.665h-3.788a1.318,1.318,0,0,1,1.318,1.318v4.634h3.788v-4.634a1.318,1.318,0,0,0-1.318-1.318" transform="translate(-123.288 -175.665)" fill="#e39b40" stroke="#707070" stroke-width="3"/>
                </g>
              </g>
              <g id="g6441" transform="translate(62.762 19.101)">
                <path id="path6443" d="M528.961,181.617H518.046v-4.634a1.318,1.318,0,0,1,1.318-1.318h8.28a1.318,1.318,0,0,1,1.318,1.318Z" transform="translate(-518.046 -175.665)" fill="#868eaf" stroke="#707070" stroke-width="3"/>
              </g>
              <g id="g6445" transform="translate(46.389 19.101)">
                <path id="path6447" d="M396.426,181.617H385.511v-4.634a1.318,1.318,0,0,1,1.318-1.318h8.28a1.318,1.318,0,0,1,1.318,1.318Z" transform="translate(-385.511 -175.665)" fill="#868eaf" stroke="#707070" stroke-width="3"/>
              </g>
              <g id="g6449" transform="translate(68.57 19.101)">
                <path id="path6451" d="M568.856,175.665h-3.788a1.318,1.318,0,0,1,1.318,1.318v4.634h3.788v-4.634a1.318,1.318,0,0,0-1.318-1.318" transform="translate(-565.068 -175.665)" fill="#7d83ad" stroke="#707070" stroke-width="3"/>
              </g>
              <g id="g6453" transform="translate(52.198 19.101)">
                <path id="path6455" d="M436.322,175.665h-3.788a1.318,1.318,0,0,1,1.318,1.318v4.634h3.788v-4.634a1.318,1.318,0,0,0-1.318-1.318" transform="translate(-432.534 -175.665)" fill="#7d83ad" stroke="#707070" stroke-width="3"/>
              </g>
              <g id="g6457" transform="translate(43.66 24.559)">
                <g id="Grupo_1007835" data-name="Grupo 1007835">
                  <path id="path6459" d="M363.422,274.419h32.745a5.457,5.457,0,0,0,5.457-5.458V225.3a5.457,5.457,0,0,0-5.457-5.457H363.422Z" transform="translate(-363.422 -219.844)" fill="#51aee6" stroke="#707070" stroke-width="3"/>
                </g>
              </g>
              <g id="g6461" transform="translate(0 24.559)">
                <g id="Grupo_1007836" data-name="Grupo 1007836">
                  <path id="path6463" d="M56.389,219.844H15.458A5.457,5.457,0,0,0,10,225.3v43.661a5.458,5.458,0,0,0,5.458,5.458H56.389Z" transform="translate(-10 -219.844)" fill="#a5d3d4" stroke="#707070" stroke-width="3"/>
                </g>
              </g>
              <g id="g6465" transform="translate(5.457 34.11)">
                <path id="path6467" d="M89.65,314.893a17.737,17.737,0,1,1-17.737-17.737A17.737,17.737,0,0,1,89.65,314.893" transform="translate(-54.176 -297.156)" fill="#868eaf" stroke="#707070" stroke-width="3"/>
              </g>
              <g id="g6469" transform="translate(16.372 45.025)">
                <path id="path6471" d="M156.177,392.334a6.822,6.822,0,1,1-6.822-6.822,6.822,6.822,0,0,1,6.822,6.822" transform="translate(-142.533 -385.512)" fill="#7d83ad" stroke="#707070" stroke-width="3"/>
              </g>
              <g id="g6473" transform="translate(51.846 30.016)">
                <path id="path6475" d="M452.93,272.207H431.007a1.318,1.318,0,0,1-1.318-1.318v-5.551a1.318,1.318,0,0,1,1.318-1.318H452.93a1.318,1.318,0,0,1,1.318,1.318v5.551a1.318,1.318,0,0,1-1.318,1.318" transform="translate(-429.689 -264.021)" fill="#f9f5f3" stroke="#707070" stroke-width="3"/>
              </g>
              <g id="g6477" transform="translate(51.847 43.66)">
                <path id="path6479" d="M437.876,378.559a4.093,4.093,0,1,1-4.093-4.093,4.093,4.093,0,0,1,4.093,4.093" transform="translate(-429.69 -374.466)" fill="#868eaf" stroke="#707070" stroke-width="3"/>
              </g>
              <g id="g6481" transform="translate(68.219 43.66)">
                <path id="path6483" d="M570.41,378.559a4.093,4.093,0,1,1-4.093-4.093,4.093,4.093,0,0,1,4.093,4.093" transform="translate(-562.224 -374.466)" fill="#868eaf" stroke="#707070" stroke-width="3"/>
              </g>
              <g id="g6485" transform="translate(65.49)">
                <g id="Grupo_1007837" data-name="Grupo 1007837">
                  <path id="path6487" d="M545.592,23.773a2.729,2.729,0,1,1-2.729-2.729,2.729,2.729,0,0,1,2.729,2.729" transform="translate(-540.134 -21.044)" fill="#f4d9b9" stroke="#707070" stroke-width="3"/>
                </g>
              </g>
              <g id="g6489" transform="translate(21.3 34.11)">
                <path id="path6491" d="M184.315,297.156a17.924,17.924,0,0,0-1.894.1,17.738,17.738,0,0,1,0,35.273,18,18,0,0,0,1.894.1,17.737,17.737,0,1,0,0-35.474" transform="translate(-182.421 -297.156)" fill="#7d83ad" stroke="#707070" stroke-width="3"/>
              </g>
              <g id="g6493" transform="translate(71.299 30.016)">
                <path id="path6495" d="M590.945,264.021h-3.788a1.318,1.318,0,0,1,1.318,1.318v5.551a1.318,1.318,0,0,1-1.318,1.318h3.788a1.318,1.318,0,0,0,1.318-1.318v-5.551a1.318,1.318,0,0,0-1.318-1.318" transform="translate(-587.157 -264.021)" fill="#f9eae0" stroke="#707070" stroke-width="3"/>
              </g>
              <g id="g6497" transform="translate(70.418 43.66)">
                <path id="path6499" d="M581.917,374.466a4.075,4.075,0,0,0-1.894.465,4.093,4.093,0,0,1,0,7.257,4.093,4.093,0,1,0,1.894-7.721" transform="translate(-580.023 -374.466)" fill="#7d83ad" stroke="#707070" stroke-width="3"/>
              </g>
              <g id="g6501" transform="translate(54.045 43.66)">
                <path id="path6503" d="M449.384,374.466a4.074,4.074,0,0,0-1.894.465,4.093,4.093,0,0,1,0,7.257,4.093,4.093,0,1,0,1.894-7.721" transform="translate(-447.49 -374.466)" fill="#7d83ad" stroke="#707070" stroke-width="3"/>
              </g>
              <g id="g6505" transform="translate(72.617 24.559)">
                <g id="Grupo_1007838" data-name="Grupo 1007838">
                  <path id="path6507" d="M601.611,219.844h-3.788a5.457,5.457,0,0,1,5.457,5.457v43.661a5.457,5.457,0,0,1-5.457,5.458h3.788a5.457,5.457,0,0,0,5.457-5.458V225.3a5.457,5.457,0,0,0-5.457-5.457" transform="translate(-597.823 -219.844)" fill="#3d8dc2" stroke="#707070" stroke-width="3"/>
                </g>
              </g>
              <g id="g6509" transform="translate(5.457 34.11)">
                <path id="path6511" d="M57.795,325.63a17.733,17.733,0,1,1,3.51,3.479" transform="translate(-54.177 -297.156)" fill="none" stroke="#000" stroke-linecap="round" stroke-linejoin="round" stroke-width="3"/>
              </g>
              <g id="g6513" transform="translate(16.372 45.025)">
                <path id="path6515" d="M156.177,392.334a6.822,6.822,0,1,1-6.822-6.822A6.822,6.822,0,0,1,156.177,392.334Z" transform="translate(-142.533 -385.512)" fill="none" stroke="#000" stroke-linecap="round" stroke-linejoin="round" stroke-width="3"/>
              </g>
              <g id="g6517" transform="translate(0 24.559)">
                <path id="path6519" d="M91.863,234v-8.7a5.457,5.457,0,0,0-5.458-5.457H15.457A5.457,5.457,0,0,0,10,225.3v43.66a5.457,5.457,0,0,0,5.457,5.457H86.405a5.457,5.457,0,0,0,5.458-5.457V238.945" transform="translate(-10 -219.844)" fill="none" stroke="#000" stroke-linecap="round" stroke-linejoin="round" stroke-width="3"/>
              </g>
              <g id="g6521" transform="translate(46.389 24.559)">
                <path id="path6523" d="M385.511,219.844v54.575" transform="translate(-385.511 -219.844)" fill="none" stroke="#000" stroke-linecap="round" stroke-linejoin="round" stroke-width="3"/>
              </g>
              <g id="g6525" transform="translate(51.846 30.016)">
                <path id="path6527" d="M452.93,272.207H431.007a1.318,1.318,0,0,1-1.318-1.318v-5.551a1.318,1.318,0,0,1,1.318-1.318H452.93a1.318,1.318,0,0,1,1.318,1.318v5.551A1.318,1.318,0,0,1,452.93,272.207Z" transform="translate(-429.689 -264.021)" fill="none" stroke="#000" stroke-linecap="round" stroke-linejoin="round" stroke-width="3"/>
              </g>
              <g id="g6529" transform="translate(51.847 43.66)">
                <path id="path6531" d="M437.876,378.559a4.093,4.093,0,1,1-4.093-4.093A4.093,4.093,0,0,1,437.876,378.559Z" transform="translate(-429.69 -374.466)" fill="none" stroke="#000" stroke-linecap="round" stroke-linejoin="round" stroke-width="3"/>
              </g>
              <g id="g6533" transform="translate(68.219 43.66)">
                <path id="path6535" d="M570.41,378.559a4.093,4.093,0,1,1-4.093-4.093A4.093,4.093,0,0,1,570.41,378.559Z" transform="translate(-562.224 -374.466)" fill="none" stroke="#000" stroke-linecap="round" stroke-linejoin="round" stroke-width="3"/>
              </g>
              <g id="g6537" transform="translate(51.846 57.304)">
                <path id="path6539" d="M429.689,484.911h24.559" transform="translate(-429.689 -484.911)" fill="none" stroke="#000" stroke-linecap="round" stroke-linejoin="round" stroke-width="3"/>
              </g>
              <g id="g6541" transform="translate(51.846 62.761)">
                <path id="path6543" d="M429.689,529.089h24.559" transform="translate(-429.689 -529.089)" fill="none" stroke="#000" stroke-linecap="round" stroke-linejoin="round" stroke-width="3"/>
              </g>
              <g id="g6545" transform="translate(51.846 68.219)">
                <path id="path6547" d="M429.689,573.267h24.559" transform="translate(-429.689 -573.267)" fill="none" stroke="#000" stroke-linecap="round" stroke-linejoin="round" stroke-width="3"/>
              </g>
              <g id="g6549" transform="translate(62.762 19.101)">
                <path id="path6551" d="M528.961,181.123H518.046v-4.14a1.318,1.318,0,0,1,1.318-1.318h8.28a1.318,1.318,0,0,1,1.318,1.318Z" transform="translate(-518.046 -175.665)" fill="none" stroke="#000" stroke-linecap="round" stroke-linejoin="round" stroke-width="3"/>
              </g>
              <g id="g6553" transform="translate(46.389 19.101)">
                <path id="path6555" d="M396.426,181.123H385.511v-4.14a1.318,1.318,0,0,1,1.318-1.318h8.28a1.318,1.318,0,0,1,1.318,1.318Z" transform="translate(-385.511 -175.665)" fill="none" stroke="#000" stroke-linecap="round" stroke-linejoin="round" stroke-width="3"/>
              </g>
              <g id="g6557" transform="translate(8.186 19.101)">
                <path id="path6559" d="M87.18,181.123H76.265v-4.14a1.318,1.318,0,0,1,1.318-1.318h8.28a1.318,1.318,0,0,1,1.318,1.318Z" transform="translate(-76.265 -175.665)" fill="none" stroke="#000" stroke-linecap="round" stroke-linejoin="round" stroke-width="3"/>
              </g>
              <g id="g6561" transform="translate(19.001 3.63)">
                <path id="path6563" d="M210.456,50.43,163.814,66.754" transform="translate(-163.814 -50.43)" fill="none" stroke="#000" stroke-linecap="round" stroke-linejoin="round" stroke-width="3"/>
              </g>
              <g id="g6565" transform="translate(65.49)">
                <path id="path6567" d="M545.592,23.773a2.729,2.729,0,1,1-2.729-2.729A2.729,2.729,0,0,1,545.592,23.773Z" transform="translate(-540.134 -21.044)" fill="none" stroke="#000" stroke-linecap="round" stroke-linejoin="round" stroke-width="3"/>
              </g>
            </g>
          </g>
        </g>
      </g>
    </g>
  </g>
</svg>
