<svg xmlns="http://www.w3.org/2000/svg" width="105" height="105" viewBox="0 0 105 105">
  <g id="Grupo_1013478" data-name="Grupo 1013478" transform="translate(3262 6203)">
    <g id="Grupo_1007841" data-name="Grupo 1007841" transform="translate(0 -19)">
      <rect id="Rectángulo_347992" data-name="Rectángulo 347992" width="105" height="105" transform="translate(-3262 -6184)" fill="#fff"/>
      <circle id="Elipse_8668" data-name="Elipse 8668" cx="11.5" cy="11.5" r="11.5" transform="translate(-3258 -6163)" fill="#ffa031"/>
      <circle id="Elipse_8669" data-name="Elipse 8669" cx="5.5" cy="5.5" r="5.5" transform="translate(-3238 -6175)" fill="#008b8a"/>
    </g>
    <g id="Grupo_1007843" data-name="Grupo 1007843" transform="translate(-3247 -6189.4)">
      <rect id="Rectángulo_347993" data-name="Rectángulo 347993" width="73.372" height="47.916" transform="translate(1.123 21.576)" fill="#d9ccbc"/>
      <rect id="Rectángulo_347994" data-name="Rectángulo 347994" width="55.403" height="5.989" transform="translate(10.107 69.492)" fill="#51aee6"/>
      <circle id="Elipse_8670" data-name="Elipse 8670" cx="4.492" cy="4.492" r="4.492" transform="translate(60.869 28.015)" fill="#f25462"/>
      <path id="Trazado_721930" data-name="Trazado 721930" d="M402.442,175.63a7.487,7.487,0,1,0-6.2,0,7.487,7.487,0,1,0,6.2,0Z" transform="translate(-333.983 -136.309)" fill="#c0ab91"/>
      <g id="Grupo_1007842" data-name="Grupo 1007842" transform="translate(5.615 26.069)">
        <circle id="Elipse_8671" data-name="Elipse 8671" cx="4.492" cy="4.492" r="4.492" transform="translate(55.254 15.572)" fill="#f25462"/>
        <path id="Trazado_721931" data-name="Trazado 721931" d="M42.512,168.428a4.492,4.492,0,0,0-4.492,4.492v29.948a4.492,4.492,0,0,0,4.492,4.492h8.236V168.428Z" transform="translate(-38.02 -168.428)" fill="#f25462"/>
      </g>
      <path id="Trazado_721932" data-name="Trazado 721932" d="M304.791,168.428h-8.236V207.36h8.236a4.492,4.492,0,0,0,4.492-4.492V172.92A4.492,4.492,0,0,0,304.791,168.428Z" transform="translate(-252.756 -142.359)" fill="#fca500"/>
      <rect id="Rectángulo_347995" data-name="Rectángulo 347995" width="12.728" height="38.932" transform="translate(18.343 26.068)" fill="#fdd844"/>
      <rect id="Rectángulo_347996" data-name="Rectángulo 347996" width="12.728" height="38.932" transform="translate(31.071 26.068)" fill="#6dcead"/>
      <path id="Trazado_721933" data-name="Trazado 721933" d="M41.015,205.863V173.669a2.246,2.246,0,0,1,2.246-2.246h7.487v-2.995H42.512a4.492,4.492,0,0,0-4.492,4.492v29.948a4.494,4.494,0,0,0,3.188,4.3A4.492,4.492,0,0,1,41.015,205.863Z" transform="translate(-32.405 -142.359)" fill="#ef1e24"/>
      <rect id="Rectángulo_347997" data-name="Rectángulo 347997" width="12.728" height="2.995" transform="translate(18.343 26.068)" fill="#fdbf44"/>
      <rect id="Rectángulo_347998" data-name="Rectángulo 347998" width="12.728" height="2.995" transform="translate(31.071 26.068)" fill="#5fb2b2"/>
      <path id="Trazado_721934" data-name="Trazado 721934" d="M304.791,168.428h-8.236v2.995h12.471A4.493,4.493,0,0,0,304.791,168.428Z" transform="translate(-252.756 -142.359)" fill="#ba7005"/>
      <rect id="Rectángulo_347999" data-name="Rectángulo 347999" width="73.372" height="2.995" transform="translate(1.123 66.497)" fill="#c0ab91"/>
      <rect id="Rectángulo_348000" data-name="Rectángulo 348000" width="55.403" height="2.995" transform="translate(10.107 69.492)" fill="#2e6a90"/>
      <path id="Trazado_721935" data-name="Trazado 721935" d="M76.258,213.864H74.012v-2.246h2.246Zm0-4.492H74.012v-7.487h2.246Z" transform="translate(-63.081 -170.875)" fill="#fff"/>
      <circle id="Elipse_8672" data-name="Elipse 8672" cx="4.492" cy="4.492" r="4.492" transform="translate(60.869 28.015)" fill="#baf038"/>
      <path id="Trazado_721936" data-name="Trazado 721936" d="M0,130.408v50.163H75.618V130.408Zm73.372,47.916H2.246v-45.67H73.372v45.67Z" transform="translate(0 -109.954)"/>
      <path id="Trazado_721937" data-name="Trazado 721937" d="M36.031,202H77.958a5.621,5.621,0,0,0,5.615-5.615V166.438a5.621,5.621,0,0,0-5.615-5.615H36.031a5.621,5.621,0,0,0-5.615,5.615v29.948A5.621,5.621,0,0,0,36.031,202Zm-3.369-35.563a3.373,3.373,0,0,1,3.369-3.369H77.958a3.373,3.373,0,0,1,3.369,3.369v29.948a3.373,3.373,0,0,1-3.369,3.369H36.031a3.373,3.373,0,0,1-3.369-3.369Z" transform="translate(-25.924 -135.877)"/>
      <path id="Trazado_721938" data-name="Trazado 721938" d="M410.146,185.233a5.615,5.615,0,1,0-5.615-5.615A5.621,5.621,0,0,0,410.146,185.233Zm3.369-5.615a3.369,3.369,0,1,1-6.409-1.452l2.962,2.962,1.588-1.588-2.963-2.963a3.369,3.369,0,0,1,4.821,3.04Z" transform="translate(-344.785 -147.111)"/>
      <path id="Trazado_721939" data-name="Trazado 721939" d="M410.146,277.5a5.615,5.615,0,1,0-5.615-5.615A5.621,5.621,0,0,0,410.146,277.5Zm3.369-5.615a3.369,3.369,0,1,1-6.409-1.452l2.962,2.962,1.588-1.588-2.963-2.963a3.369,3.369,0,0,1,4.821,3.04Z" transform="translate(-344.785 -225.746)"/>
      <rect id="Rectángulo_348001" data-name="Rectángulo 348001" width="2.246" height="2.246" transform="translate(68.88 63.802)"/>
      <rect id="Rectángulo_348002" data-name="Rectángulo 348002" width="2.246" height="2.246" transform="translate(68.88 54.818)"/>
      <rect id="Rectángulo_348003" data-name="Rectángulo 348003" width="2.246" height="2.246" transform="translate(68.88 59.31)"/>
      <rect id="Rectángulo_348004" data-name="Rectángulo 348004" width="2.246" height="2.246" transform="translate(64.388 63.802)"/>
      <rect id="Rectángulo_348005" data-name="Rectángulo 348005" width="2.246" height="2.246" transform="translate(64.388 54.818)"/>
      <rect id="Rectángulo_348006" data-name="Rectángulo 348006" width="2.246" height="2.246" transform="translate(64.388 59.31)"/>
      <rect id="Rectángulo_348007" data-name="Rectángulo 348007" width="2.246" height="2.246" transform="translate(59.896 54.818)"/>
      <rect id="Rectángulo_348008" data-name="Rectángulo 348008" width="2.246" height="2.246" transform="translate(59.896 59.31)"/>
      <rect id="Rectángulo_348009" data-name="Rectángulo 348009" width="2.246" height="2.246" transform="translate(59.896 63.802)"/>
      <rect id="Rectángulo_348010" data-name="Rectángulo 348010" width="2.246" height="18.267" transform="translate(25.455 2.574) rotate(-30.001)"/>
      <rect id="Rectángulo_348011" data-name="Rectángulo 348011" width="18.267" height="2.246" transform="translate(39.114 17.22) rotate(-59.999)"/>
      <rect id="Rectángulo_348012" data-name="Rectángulo 348012" width="2.246" height="2.246" transform="translate(29.948 44.411)"/>
      <rect id="Rectángulo_348013" data-name="Rectángulo 348013" width="2.246" height="2.246" transform="translate(25.456 44.411)"/>
      <rect id="Rectángulo_348014" data-name="Rectángulo 348014" width="2.246" height="2.246" transform="translate(34.44 44.411)"/>
      <path id="Trazado_721940" data-name="Trazado 721940" d="M116.235,484.6H63.078v-1.872H60.832v4.118h57.649v-4.118h-2.246Z" transform="translate(-51.848 -410.237)"/>
    </g>
  </g>
</svg>
