<svg xmlns="http://www.w3.org/2000/svg" width="331" height="195" viewBox="0 0 331 195">
  <g id="Grupo_1013476" data-name="Grupo 1013476" transform="translate(-215 -5877.215)">
    <rect id="mano-que-sostiene-flecha-crecimiento-monedas" width="331" height="195" rx="20" transform="translate(215 5877.215)" fill="#fff"/>
    <g id="Grupo_1007885" data-name="Grupo 1007885" transform="translate(138.747 5746.873)">
      <g id="Grupo_1007874" data-name="Grupo 1007874" transform="translate(162.763 142.342)">
        <ellipse id="Elipse_8673" data-name="Elipse 8673" cx="84.453" cy="2.033" rx="84.453" ry="2.033" transform="translate(3.676 146.174)" fill="#a3bcc9"/>
        <path id="Trazado_721941" data-name="Trazado 721941" d="M441.247,502.919a18.442,18.442,0,0,1-4.4,5.078c-.324.3-.644.6-.964.908h-22.4c1.612-9.555,3.47-19.05,4.923-28.64,2.643-2.277,5.434-4.635,8.84-5.388s7.581.714,8.629,4.044c.732,2.33-.2,4.811-.883,7.155s-1.035,5.149.57,6.989c1.39,1.6,3.829,1.936,5.254,3.505C442.335,498.239,442.25,500.9,441.247,502.919Z" transform="translate(-356.74 -360.7)" fill="#288d8a"/>
        <path id="Trazado_721942" data-name="Trazado 721942" d="M314.544,446.381c-2.866,6.479-6.311,13.157-5.861,20.456a16.58,16.58,0,0,0,.988,4.653H271.6a13.634,13.634,0,0,1-.223-3.336c.268-4.6,2.7-8.277,7.038-9.838,1.427-.515,3.15-1,3.205-2.793.051-1.62-1.28-2.879-2.416-3.895a39.829,39.829,0,0,0-6.9-4.537c-3.936-2.268-8.119-5.1-9.588-9.656s1.2-8.73,4.616-11.554c4.228-3.49,9.063-.433,12.845,2.292a60.853,60.853,0,0,1,5.748,5.051c2.344,2.175,7.135,4.176,8.456-.2.83-2.742-.429-5.573-.041-8.352a7.835,7.835,0,0,1,2.653-4.76,8.817,8.817,0,0,1,10.916-.546,10.831,10.831,0,0,1,3.823,4.8c.882,2.176.573,4.9,2.162,6.754.147.168,4.659,5.364,4.594,5.532,2.09.731.576.338.707,2.551C319.4,442.413,315.882,443.351,314.544,446.381Z" transform="translate(-257.409 -323.285)" fill="#288d8a"/>
        <path id="Trazado_721943" data-name="Trazado 721943" d="M584.343,456.967c0,4.85.18,9.724-.545,14.521s-2.421,9.576-5.708,13.144a9.739,9.739,0,0,1-1.119,1.045H551.7c-.345-.229-.679-.465-1.01-.714-1.848-1.39-3.59-3.484-3.174-5.757.573-3.15,4.681-4.255,6.261-7.039,1.549-2.731.257-6.12-.876-9.048s-1.946-6.627.222-8.9c2.7-2.826,7.612-1.077,11.152-2.728,4.688-2.185,5.262-9.361,9.946-11.547a8.248,8.248,0,0,1,6.014-.1,24.412,24.412,0,0,1,5.43,2.872C584.262,447.359,584.339,452.117,584.343,456.967Z" transform="translate(-444.758 -337.47)" fill="#288d8a"/>
        <path id="Trazado_721944" data-name="Trazado 721944" d="M676.653,449.032c-1.978,4.148-4.7,7.895-6.915,11.924a34.927,34.927,0,0,0-2.564,5.716h-27.7c3.738-11.745,2.946-24.658.682-36.86a10.161,10.161,0,0,1-.025-5.328c.623-1.69,2.567-3.03,4.229-2.338,1.077.451,1.766,1.609,2.88,1.95A3.122,3.122,0,0,0,650.315,423a12.905,12.905,0,0,0,1.737-2.955A21.314,21.314,0,0,1,658.6,412.4a9.84,9.84,0,0,1,4.307-1.944,4.816,4.816,0,0,1,4.332,1.468,5.169,5.169,0,0,1,.917,4.019,18.354,18.354,0,0,1-1.28,4.038,61.131,61.131,0,0,0-2.366,7.388c-.6,2.395-.924,5.294.861,7,2.363,2.26,6.414.657,9.413,1.956a6.645,6.645,0,0,1,3.6,5.807A14.556,14.556,0,0,1,676.653,449.032Z" transform="translate(-505.222 -318.466)" fill="#288d8a"/>
        <g id="Grupo_1007859" data-name="Grupo 1007859" transform="translate(18.381 3.786)">
          <g id="Grupo_1007852" data-name="Grupo 1007852">
            <g id="Grupo_1007851" data-name="Grupo 1007851">
              <path id="Trazado_721945" data-name="Trazado 721945" d="M372.281,153.381a70.658,70.658,0,1,0,70.658,70.658A70.661,70.661,0,0,0,372.281,153.381Zm0,123.286a52.628,52.628,0,1,1,52.628-52.628A52.629,52.629,0,0,1,372.281,276.667Z" transform="translate(-301.623 -153.381)" fill="#3276b6"/>
              <path id="Trazado_721946" data-name="Trazado 721946" d="M492.448,358.522h-4.609a1.258,1.258,0,0,1-1.258-1.258V324.586a1.258,1.258,0,0,0-1.258-1.258H464.53a1.258,1.258,0,0,0-1.258,1.258V334.8a1.259,1.259,0,0,0,1.258,1.258h4.608a1.258,1.258,0,0,1,1.258,1.258v19.948a1.258,1.258,0,0,1-1.258,1.258H464.53a1.259,1.259,0,0,0-1.258,1.258v10.214a1.258,1.258,0,0,0,1.258,1.258h27.918a1.258,1.258,0,0,0,1.258-1.258V359.781A1.259,1.259,0,0,0,492.448,358.522Z" transform="translate(-407.831 -265.041)" fill="#3276b6"/>
              <circle id="Elipse_8674" data-name="Elipse 8674" cx="9.168" cy="9.168" r="9.168" transform="translate(57.998 38.45) rotate(-18.316)" fill="#3276b6"/>
            </g>
          </g>
          <g id="Grupo_1007858" data-name="Grupo 1007858" transform="translate(105.416 15.916)">
            <g id="Grupo_1007857" data-name="Grupo 1007857">
              <g id="Grupo_1007854" data-name="Grupo 1007854" transform="translate(15.356 60.29)">
                <g id="Grupo_1007853" data-name="Grupo 1007853">
                  <path id="Trazado_721947" data-name="Trazado 721947" d="M659.447,407.165A66.777,66.777,0,0,0,670,379.357a3.1,3.1,0,0,0-2.1-3.691c-1.4-.385-3.469.48-3.691,2.1a62.814,62.814,0,0,1-9.95,26.375c-2.144,3.225,3.051,6.233,5.182,3.029Z" transform="translate(-653.757 -375.575)" fill="#2b5f91"/>
                </g>
              </g>
              <g id="Grupo_1007856" data-name="Grupo 1007856">
                <g id="Grupo_1007855" data-name="Grupo 1007855">
                  <path id="Trazado_721948" data-name="Trazado 721948" d="M610.47,205.405A61.4,61.4,0,0,1,627.7,225.088a60.042,60.042,0,0,1,5.123,12.319,48.166,48.166,0,0,1,2.306,13.034c0,3.861,6,3.868,6,0a54.143,54.143,0,0,0-2.52-14.629,67.381,67.381,0,0,0-5.728-13.753A68.282,68.282,0,0,0,613.5,200.224a3.022,3.022,0,0,0-4.105,1.077,3.07,3.07,0,0,0,1.077,4.105Z" transform="translate(-608.984 -199.787)" fill="#2b5f91"/>
                </g>
              </g>
            </g>
          </g>
        </g>
        <g id="Grupo_1007862" data-name="Grupo 1007862" transform="translate(106.063)">
          <rect id="Rectángulo_348016" data-name="Rectángulo 348016" width="50.099" height="31.629" rx="11.311" fill="#dfe9f2"/>
          <g id="Grupo_1007860" data-name="Grupo 1007860" transform="translate(13.114 17.699)">
            <path id="Trazado_721949" data-name="Trazado 721949" d="M600.985,198.3a2.736,2.736,0,1,1-2.735-2.735A2.736,2.736,0,0,1,600.985,198.3Z" transform="translate(-595.514 -195.008)" fill="#fff"/>
            <path id="Trazado_721950" data-name="Trazado 721950" d="M627.808,198.3a2.735,2.735,0,1,1-2.735-2.735A2.735,2.735,0,0,1,627.808,198.3Z" transform="translate(-613.138 -195.008)" fill="#fff"/>
            <circle id="Elipse_8675" data-name="Elipse 8675" cx="2.735" cy="2.735" r="2.735" transform="matrix(0.229, -0.973, 0.973, 0.229, 17.845, 5.326)" fill="#fff"/>
          </g>
          <path id="Trazado_721951" data-name="Trazado 721951" d="M677.308,190.171v22.757a3.693,3.693,0,0,1-3.693,3.693H640.585l-10.272,10.273V190.171a3.7,3.7,0,0,1,3.7-3.7h39.6A3.694,3.694,0,0,1,677.308,190.171Z" transform="translate(-605.264 -171.337)" fill="#b6cfe3"/>
          <g id="Grupo_1007861" data-name="Grupo 1007861" transform="translate(38.163 32.61)">
            <path id="Trazado_721952" data-name="Trazado 721952" d="M674.021,240.159a2.736,2.736,0,1,1-2.736-2.736A2.736,2.736,0,0,1,674.021,240.159Z" transform="translate(-668.55 -237.423)" fill="#fff"/>
            <path id="Trazado_721953" data-name="Trazado 721953" d="M700.844,240.159a2.736,2.736,0,1,1-2.735-2.736A2.735,2.735,0,0,1,700.844,240.159Z" transform="translate(-686.173 -237.423)" fill="#fff"/>
            <path id="Trazado_721954" data-name="Trazado 721954" d="M727.667,240.159a2.736,2.736,0,1,1-2.736-2.736A2.736,2.736,0,0,1,727.667,240.159Z" transform="translate(-703.797 -237.423)" fill="#fff"/>
          </g>
        </g>
        <path id="Trazado_721955" data-name="Trazado 721955" d="M621.843,479.9c-.138,3.187-2.821,5.566-4.887,8a25.433,25.433,0,0,0-3.738,5.866H583.273a26.017,26.017,0,0,1-6.038-1.9,8.768,8.768,0,0,1-4.357-4.417,5.349,5.349,0,0,1,1.155-5.848,6.922,6.922,0,0,1,4.952-1.346,46.857,46.857,0,0,0,5.25.326,5.382,5.382,0,0,0,4.448-2.382c.98-1.769.341-4.007-.673-5.757s-2.395-3.324-3-5.259-.081-4.451,1.788-5.228c1.5-.623,3.208.107,4.6.955s2.815,1.866,4.442,1.847c1.95-.028,3.578-1.584,4.473-3.315s1.261-3.688,1.994-5.494,1.984-3.584,3.853-4.138c2.439-.726,5.112,1,6.126,3.337a10.676,10.676,0,0,1-.1,7.463c-.786,2.42-2,4.683-2.777,7.106a4.114,4.114,0,0,0-.082,3.077,3.558,3.558,0,0,0,3.356,1.565c1.305-.029,2.592-.4,3.894-.313A5.842,5.842,0,0,1,621.843,479.9Z" transform="translate(-461.204 -345.555)" fill="#a5d3d4"/>
        <g id="Grupo_1007863" data-name="Grupo 1007863" transform="translate(119.434 139.561)" opacity="0.5">
          <path id="Trazado_721956" data-name="Trazado 721956" d="M609.351,557.9h-1.139a21.633,21.633,0,0,0-11.614-7.723.47.47,0,0,1,.251-.9A22.43,22.43,0,0,1,609.351,557.9Z" transform="translate(-596.265 -549.26)" fill="#288d8a"/>
        </g>
        <g id="Grupo_1007864" data-name="Grupo 1007864" transform="translate(130.719 120.842)" opacity="0.5">
          <path id="Trazado_721957" data-name="Trazado 721957" d="M637.912,522.044h-.933a44.182,44.182,0,0,0-2.955-17.771,34.373,34.373,0,0,0-4.746-8.768c-.376-.466.285-1.133.664-.664a34.7,34.7,0,0,1,4.987,9.181A44.916,44.916,0,0,1,637.912,522.044Z" transform="translate(-629.166 -494.681)" fill="#288d8a"/>
        </g>
        <g id="Grupo_1007865" data-name="Grupo 1007865" transform="translate(141.117 112.719)" opacity="0.5">
          <path id="Trazado_721958" data-name="Trazado 721958" d="M667.679,471.711a58.573,58.573,0,0,0-3.781,10.568,98.87,98.87,0,0,0-3.475,24.2h-.939a99.919,99.919,0,0,1,3.506-24.451,59.773,59.773,0,0,1,3.878-10.8C667.141,470.693,667.952,471.172,667.679,471.711Z" transform="translate(-659.484 -470.997)" fill="#288d8a"/>
        </g>
        <g id="Grupo_1007866" data-name="Grupo 1007866" transform="translate(145.549 133.604)" opacity="0.5">
          <path id="Trazado_721959" data-name="Trazado 721959" d="M683.718,532.756c-5.29,2.639-8.809,8.055-10.349,13.736h-.961c1.571-6.008,5.243-11.758,10.838-14.547C683.784,531.676,684.26,532.487,683.718,532.756Z" transform="translate(-672.408 -531.891)" fill="#288d8a"/>
        </g>
        <g id="Grupo_1007871" data-name="Grupo 1007871" transform="translate(26.295 103.8)">
          <path id="Trazado_721960" data-name="Trazado 721960" d="M370.721,482.6a13.2,13.2,0,0,1-3.167,6.8H334.483a10.62,10.62,0,0,1-.861-2.224c-.649-2.529.01-5.514,2.553-6.7,2.382-1.112,6.194.326,8.044-1.784,2.505-2.859-1.438-7.265-3.456-9.163-4.128-3.885-9.526-6.3-13.191-10.7-1.575-1.894-3.133-4.351-2.838-6.925a7.741,7.741,0,0,1,4.19-5.717c4.945-2.636,10.6-.607,14.221,3.27a20.367,20.367,0,0,1,2.691,3.672c.848,1.458,1.554,3.208,3.082,4.094,3.593,2.083,4.231-2.855,6.369-4.413,1.778-1.294,4.163-.562,5.539.975,2.093,2.34,1.733,6.077,1.493,8.957-.3,3.7-1.366,7.34-1.514,11.046a8.916,8.916,0,0,0,.292,3.431c.322.8.034,1.6,1.609,1.75a5.846,5.846,0,0,0,1.359-.529,6.869,6.869,0,0,1,3.425-.9C369.952,477.8,370.975,480.413,370.721,482.6Z" transform="translate(-324.697 -444.992)" fill="#a5d3d4"/>
          <g id="Grupo_1007867" data-name="Grupo 1007867" transform="translate(9.39 8.475)" opacity="0.5">
            <path id="Trazado_721961" data-name="Trazado 721961" d="M372.409,505.632H371.4a53,53,0,0,0-2.251-11.465,47.509,47.509,0,0,0-10.47-17.985,32.236,32.236,0,0,0-6.355-5.511c-.566-.346-.048-1.239.518-.889a23.758,23.758,0,0,1,2.536,1.88C365.618,480.052,371.208,492.647,372.409,505.632Z" transform="translate(-352.075 -469.702)" fill="#288d8a"/>
          </g>
          <g id="Grupo_1007868" data-name="Grupo 1007868" transform="translate(30.897 12.499)" opacity="0.5">
            <path id="Trazado_721962" data-name="Trazado 721962" d="M416.115,493.064a86.4,86.4,0,0,0,.676,20.277h-1.04a87.142,87.142,0,0,1-.666-20.277,70.858,70.858,0,0,1,1.647-11.263c.158-.642,1.15-.367.992.274A69.425,69.425,0,0,0,416.115,493.064Z" transform="translate(-414.784 -481.436)" fill="#288d8a"/>
          </g>
          <g id="Grupo_1007869" data-name="Grupo 1007869" transform="translate(36.199 36.25)" opacity="0.5">
            <path id="Trazado_721963" data-name="Trazado 721963" d="M435.654,551.675c-2.062,1.562-3.466,4.3-4.31,7.165h-1.1a14.781,14.781,0,0,1,4.89-8.054C435.661,550.384,436.175,551.28,435.654,551.675Z" transform="translate(-430.242 -550.685)" fill="#288d8a"/>
          </g>
          <g id="Grupo_1007870" data-name="Grupo 1007870" transform="translate(12.542 38.883)" opacity="0.5">
            <path id="Trazado_721964" data-name="Trazado 721964" d="M370.524,563.885h-1.232c-1.795-2.533-4.331-4.488-7.529-4.492a.515.515,0,0,1,0-1.03C365.558,558.367,368.527,560.814,370.524,563.885Z" transform="translate(-361.266 -558.364)" fill="#288d8a"/>
          </g>
        </g>
        <g id="Grupo_1007873" data-name="Grupo 1007873" transform="translate(0 40.827)">
          <path id="Trazado_721965" data-name="Trazado 721965" d="M248.03,265.078v22.757a3.693,3.693,0,0,0,3.693,3.693h33.03L295.025,301.8V265.078a3.7,3.7,0,0,0-3.7-3.7h-39.6A3.694,3.694,0,0,0,248.03,265.078Z" transform="translate(-248.03 -261.38)" fill="#c2e3f9"/>
          <g id="Grupo_1007872" data-name="Grupo 1007872" transform="translate(10.011 17.474)">
            <path id="Trazado_721966" data-name="Trazado 721966" d="M330.865,315.065a2.736,2.736,0,1,0,2.736-2.736A2.736,2.736,0,0,0,330.865,315.065Z" transform="translate(-312.466 -312.33)" fill="#fff"/>
            <path id="Trazado_721967" data-name="Trazado 721967" d="M304.042,315.065a2.736,2.736,0,1,0,2.736-2.736A2.736,2.736,0,0,0,304.042,315.065Z" transform="translate(-294.842 -312.33)" fill="#fff"/>
            <path id="Trazado_721968" data-name="Trazado 721968" d="M277.219,315.065a2.736,2.736,0,1,0,2.736-2.736A2.736,2.736,0,0,0,277.219,315.065Z" transform="translate(-277.219 -312.33)" fill="#fff"/>
          </g>
        </g>
      </g>
      <g id="Grupo_1007877" data-name="Grupo 1007877" transform="translate(340.87 222.377)">
        <path id="Trazado_721969" data-name="Trazado 721969" d="M767.336,668.522c0,.782,5.254,1.415,11.734,1.415s11.734-.634,11.734-1.415-5.254-1.415-11.734-1.415S767.336,667.74,767.336,668.522Z" transform="translate(-767.336 -567.163)" fill="#a3bcc9"/>
        <path id="Trazado_721970" data-name="Trazado 721970" d="M809.83,649.836q.351,2.089.675,4.182a4.9,4.9,0,0,1-.136,2.64c-.338.644-1.036.7-1.757.864a7.945,7.945,0,0,1-2.214.092,3.178,3.178,0,0,1-1.153-.2c-.357-.161-.661-.141-.659-.525a2.572,2.572,0,0,1,.707-1.449,6.827,6.827,0,0,0,2.049-5.34C808.047,650.041,809.126,649.89,809.83,649.836Z" transform="translate(-791.811 -555.815)" fill="#2b2a2d"/>
        <path id="Trazado_721971" data-name="Trazado 721971" d="M787.317,649.836q.351,2.089.675,4.182a4.9,4.9,0,0,1-.136,2.64c-.338.644-1.035.7-1.757.864a7.945,7.945,0,0,1-2.214.092,3.178,3.178,0,0,1-1.153-.2c-.357-.161-.661-.141-.659-.525a2.571,2.571,0,0,1,.707-1.449,6.828,6.828,0,0,0,2.049-5.34C785.534,650.041,786.613,649.89,787.317,649.836Z" transform="translate(-777.019 -555.815)" fill="#2b2a2d"/>
        <path id="Trazado_721972" data-name="Trazado 721972" d="M777.15,442.276s-2.85,7.575,3.972,6.867H793.49s5.465,1.9,3.93-6.546A23.681,23.681,0,0,0,777.15,442.276Z" transform="translate(-773.396 -418.033)" fill="#ffa49c"/>
        <path id="Trazado_721973" data-name="Trazado 721973" d="M796.5,479.092c-.17,9.151-3.225,18.87-4.808,27.109a23.019,23.019,0,0,0-.769,5.288c.743,17.608-2.132,26.46-2.2,27.515a4.7,4.7,0,0,1-3.331-.023c-.25-1.745-.423-3.791-.54-5.954-.484-8.963-.008-19.948-.008-19.948-3.3-20.915,0-33.987,0-33.987H796.5Z" transform="translate(-777.875 -443.631)" fill="#6d4e55"/>
        <path id="Trazado_721974" data-name="Trazado 721974" d="M815.073,487c-.078,4.491-1.905,15.544-1.648,21.666a132.5,132.5,0,0,1-2.119,27.461,4.684,4.684,0,0,1-3.325-.009c-.251-1.749-.424-3.8-.541-5.973-.484-8.96-.008-19.936-.008-19.936q-.572-3.634-.9-6.878h0c-1.685-16.5.9-27.108.9-27.108h0l5.361-1.5C815.593,478.726,816.426,483.825,815.073,487Z" transform="translate(-792.717 -440.763)" fill="#6d4e55"/>
        <path id="Trazado_721975" data-name="Trazado 721975" d="M798.552,427.7a4.238,4.238,0,0,1-3.284.69c-.174.947-.346,1.895-.463,2.848a21.98,21.98,0,0,0,1.941,9.6c-2.241,1.66-11.114,2.708-15.685-.874.017-.064,2.485-6.169,2.158-11.508h-.045c-.348,0-3.436-.072-4.891-1.077l.864-4.168.221-1.065a5.787,5.787,0,0,1,1.771-2.893,8.655,8.655,0,0,1,4.267-1.637c2.892-.474,5.844.246,8.752.618a5.374,5.374,0,0,1,3.443,3.912l0,.01c0,.008,0,.015.007.023A19.272,19.272,0,0,1,798.552,427.7Z" transform="translate(-774.528 -403.138)" fill="#f4d9b9"/>
        <path id="Trazado_721976" data-name="Trazado 721976" d="M797.689,385.4a22.473,22.473,0,0,0-1.888,6.854c-.054.491-.067,1.087.346,1.373.658.455,1.857.967,2.328.767,1.673-.712,2.3-2.645,3.44-4.036A14.972,14.972,0,0,0,797.689,385.4Z" transform="translate(-786.021 -382.074)" fill="#ffa49c"/>
        <path id="Trazado_721977" data-name="Trazado 721977" d="M798.831,382.815a2.376,2.376,0,0,1,.7-.394.819.819,0,0,1,.763.117.968.968,0,0,1,.086,1.116,2.924,2.924,0,0,1-1.369,1.419c-.437.808-.723,1.737-1.146,2.553-2.089,4.034-1.254,8.1.173,8.892a12.464,12.464,0,0,0,8.188.265,4.494,4.494,0,0,0,3.009-3.752c.069-2.348-2.326-6.409-1.891-8.72a28.163,28.163,0,0,0,.644-4.036c.08-1.589-.32-2.854-1.773-3.577a8.255,8.255,0,0,0-4.557-.959,4.751,4.751,0,0,0-3.764,2.457C797.223,379.59,797.5,381.992,798.831,382.815Z" transform="translate(-786.565 -375.699)" fill="#39373b"/>
        <path id="Trazado_721978" data-name="Trazado 721978" d="M808.178,506.236a4.823,4.823,0,0,1-5.411.667c-.225-.115-.425.218-.2.332a5.327,5.327,0,0,0,2.765.577c-.054,6.712-.734,15.336-2.652,21.8-.115.386-.231.774-.368,1.154-.085.234.3.335.381.1a33.413,33.413,0,0,0,1.018-3.6,72.492,72.492,0,0,0,1.607-9.791c.26-2.639.39-7.062.411-9.714a5.259,5.259,0,0,0,2.729-1.262C808.646,506.342,808.366,506.071,808.178,506.236Z" transform="translate(-790.308 -461.432)" fill="#593d44"/>
        <g id="Grupo_1007875" data-name="Grupo 1007875" transform="translate(20.084 21.908)">
          <path id="Trazado_721979" data-name="Trazado 721979" d="M826.278,445.822a18.61,18.61,0,0,0,.347-6.106c-.043-.244-.424-.14-.381.1a18.08,18.08,0,0,1-.347,5.9c-.04.242.34.347.381.1Z" transform="translate(-825.894 -439.577)" fill="#eaaa44"/>
        </g>
        <g id="Grupo_1007876" data-name="Grupo 1007876" transform="translate(6.764 22.709)">
          <path id="Trazado_721980" data-name="Trazado 721980" d="M787.453,454.716a31.139,31.139,0,0,0,1.9-12.617c-.012-.247-.407-.248-.4,0a30.839,30.839,0,0,1-1.89,12.515c-.091.231.291.332.381.1Z" transform="translate(-787.058 -441.913)" fill="#eaaa44"/>
        </g>
      </g>
      <g id="Grupo_1007884" data-name="Grupo 1007884" transform="translate(118.253 202.191)">
        <path id="Trazado_721981" data-name="Trazado 721981" d="M169.234,664.633c0,.867-11.412,1.569-25.49,1.569s-25.49-.7-25.49-1.569,11.412-1.569,25.49-1.569S169.234,663.766,169.234,664.633Z" transform="translate(-118.253 -544.32)" fill="#a3bcc9"/>
        <path id="Trazado_721982" data-name="Trazado 721982" d="M238.906,433.872a4.324,4.324,0,0,0,5.906-1.177c-1.563-.054-3.142-.08-4.7-.134a1.353,1.353,0,0,0-.714.106C239.022,432.875,238.954,433.45,238.906,433.872Z" transform="translate(-197.526 -392.871)" fill="#fa7e7c"/>
        <path id="Trazado_721983" data-name="Trazado 721983" d="M183.252,435.678a2.917,2.917,0,0,1-1.4-.4l-.1-.052c-1.051-.52-2.109-1.112-3.127-1.747a31.566,31.566,0,0,1-2.751-1.937,24.778,24.778,0,0,1-2.274-2.032,19.124,19.124,0,0,1-1.758-2.043c-.267-.359-.482-.672-.672-.979-.231-.375-.4-.667-.534-.949a7.609,7.609,0,0,1-.651-1.754,3.849,3.849,0,0,1-.062-1.573,2.1,2.1,0,0,1,.766-1.318,2.181,2.181,0,0,1,1.364-.442h.085a4.171,4.171,0,0,1,1.438.333,10.264,10.264,0,0,1,1.515.81l.183.124c.215.145.416.281.624.433l.151.112c.239.177.465.345.7.539.684.54,1.288,1.067,1.787,1.51.365.317.776.688,1.291,1.163l.061.055c.2.181.4.366.613.555,0,0,.1.093.123.117.174.16.366.338.568.516.484.449.976.892,1.487,1.35.286.255,1.01,1.068,1.28,1.306l10.541-6.105,1.675,1.336-.414.459c-.262.29-6.417,7.093-9.052,8.809l-.366.3-.3.238-.926.693a3.143,3.143,0,0,1-.71.394,3.059,3.059,0,0,1-1.059.19Z" transform="translate(-152.168 -384.913)" fill="#fa7e7c"/>
        <g id="Grupo_1007879" data-name="Grupo 1007879" transform="translate(27.095 24.079)">
          <path id="Trazado_721984" data-name="Trazado 721984" d="M242.285,387.05H223.334a.994.994,0,0,0-.988.879l-1.5,13.926H241.8l1.469-13.694A1,1,0,0,0,242.285,387.05Z" transform="translate(-212.758 -387.05)" fill="#272744"/>
          <path id="Trazado_721985" data-name="Trazado 721985" d="M197.78,430.216a.526.526,0,0,0-.527.527v.461a.527.527,0,0,0,.527.527h28.735a.527.527,0,0,0,.526-.527v-.988Z" transform="translate(-197.253 -415.411)" fill="#393963"/>
          <path id="Trazado_721986" data-name="Trazado 721986" d="M197.78,430.216a.526.526,0,0,0-.527.527v.461a.527.527,0,0,0,.527.527h8.308v-1.515Z" transform="translate(-197.253 -415.411)" fill="#272744"/>
          <path id="Trazado_721987" data-name="Trazado 721987" d="M244.447,387.05H225.5a.994.994,0,0,0-.988.879l-1.5,13.926h20.953l1.469-13.694A.994.994,0,0,0,244.447,387.05Z" transform="translate(-214.178 -387.05)" fill="#4a4a84"/>
          <path id="Trazado_721988" data-name="Trazado 721988" d="M253.23,408.531h-4.342l.2-1.744h4.342Z" transform="translate(-231.179 -400.018)" fill="#fff"/>
          <g id="Grupo_1007878" data-name="Grupo 1007878" transform="translate(27.995 2.201)">
            <path id="Trazado_721989" data-name="Trazado 721989" d="M280.073,393.752c-.354,3.358-.84,7.7-1.193,11.053-.04.382.557.379.6,0,.354-3.358.84-7.695,1.193-11.053.04-.381-.557-.378-.6,0Z" transform="translate(-278.877 -393.467)" fill="#6363aa"/>
          </g>
        </g>
        <path id="Trazado_721990" data-name="Trazado 721990" d="M188.534,646.725a20.04,20.04,0,0,1-.792,7.112,55.506,55.506,0,0,0,10.237.685,2.1,2.1,0,0,0,.935-.151.72.72,0,0,0,.423-.774c-.081-.3-.4-.459-.683-.571-.993-.383-2.051-.587-3.025-1.016a7.168,7.168,0,0,1-4.115-5.378A6.625,6.625,0,0,1,188.534,646.725Z" transform="translate(-163.909 -533.523)" fill="#212022"/>
        <path id="Trazado_721991" data-name="Trazado 721991" d="M139.978,649.264a19.661,19.661,0,0,0-1.6,6.4,2.667,2.667,0,0,0,.214,1.547,2.6,2.6,0,0,0,2.2.979,12.373,12.373,0,0,0,3.407-.276c.446-.1.951-.282,1.1-.715.177-.531-.293-1.033-.673-1.445a6.747,6.747,0,0,1-1.518-6.232A9.386,9.386,0,0,1,139.978,649.264Z" transform="translate(-131.462 -535.253)" fill="#212022"/>
        <path id="Trazado_721992" data-name="Trazado 721992" d="M148.528,390.707l1.281,3.515a4.007,4.007,0,0,0,1.378,2.158,2.031,2.031,0,0,0,2.254-.1,7.816,7.816,0,0,1-2.417-3.126,8.646,8.646,0,0,0-.788-1.717A1.819,1.819,0,0,0,148.528,390.707Z" transform="translate(-138.145 -365.358)" fill="#8a4632"/>
        <path id="Trazado_721993" data-name="Trazado 721993" d="M139.252,545.323a6.723,6.723,0,0,0,.921.323c.123.034.249.065.376.093a8.232,8.232,0,0,0,1.754.185,7.876,7.876,0,0,0,2.69-.456l.489-5.55.031-.406.446-5.919,2.26-30,4.334,25.441,1.973,11.586.914,4.731c.043,0,.089,0,.135,0a12.559,12.559,0,0,0,5.879-1.413c-.123-1.077-.28-2.435-.459-4-.336-2.915-.754-6.572-1.21-10.558-1.419-12.448-3.207-28.115-3.925-34.484-.292-2.6-.474-4.214-.477-4.257-2.764-.662-3.38-1.025-6.5-1.025a27.307,27.307,0,0,0-9.53,1.65c0,.025.052,2.893.127,7.163.16,9.185-.046,30.532-.166,41.407C139.289,542.279,139.264,544.193,139.252,545.323Z" transform="translate(-132.05 -430.357)" fill="#9a6230"/>
        <path id="Trazado_721994" data-name="Trazado 721994" d="M142.8,512.357q-.056,4.33-.115,8.662c-.106,7.938-.209,23.357-.317,31.295l-.056,4.109c-.128-.028-.254-.059-.376-.093q.092-6.783.181-13.567c.1-7.575.2-22.627.3-30.2,0-.159,0-.317.005-.476,0-.2.005-.41.009-.613q.036-2.711.072-5.416a.189.189,0,0,1,.378,0q-.039,2.9-.078,5.8a4.439,4.439,0,0,0,1.93-3.97c-.013-.271.407-.271.422,0A4.845,4.845,0,0,1,142.8,512.357Z" transform="translate(-133.815 -441.041)" fill="#79471f"/>
        <path id="Trazado_721995" data-name="Trazado 721995" d="M161.019,413.071a7.516,7.516,0,0,0-5.429-.674v1.741l4.59.543,1.007-.6Z" transform="translate(-142.784 -379.5)" fill="#6d1526"/>
        <path id="Trazado_721996" data-name="Trazado 721996" d="M151.37,425.928s2.1,19.8,2.419,21.293c-.5.061-.995.114-1.493.166h-.031c-.828.086-1.662.151-2.493.206-.271.015-.535.031-.806.043a64.725,64.725,0,0,1-12.349-.582c-.015-.563-.031-1.194-.052-1.878,0-.135-.006-.271-.012-.409,0-.077-.006-.157-.006-.234-.1-3.02-.375-10.207-.609-13.658-.157-2.287-.342-4.392-.551-5.956-.345-2.518-.671-5.377.954-7.326a8.932,8.932,0,0,1,3.709-2.253c.514-.209,1.034-.415,1.551-.622l.046-.019,2.773-1.114c1.071.545,2.272,1.087,3.466,1.631.265.12.526.24.788.36h0s3.869.1,8.982,6a8.057,8.057,0,0,1-4.242,6.162Z" transform="translate(-129.324 -380.406)" fill="#a5d3d4"/>
        <path id="Trazado_721997" data-name="Trazado 721997" d="M155.306,398.856c0,.265-.16.485-.068.822.108.406.361,3.228.4,3.646,0,.024-.123.933-.123.96.088.967,1.061,1.276.766,2.229,1.8.166,2.8-.319,4.528-.921-.149-.31-.336-.617-.48-.934a2.97,2.97,0,0,1-.13-.328c-.083-.26-.156-.523-.215-.788-.054-.227-.088-1.023-.125-1.254-.028-.177-.052-.354-.071-.534a10.058,10.058,0,0,1-.052-1.229,2.925,2.925,0,0,0-.321-.35A5.709,5.709,0,0,0,155.306,398.856Z" transform="translate(-142.534 -370.724)" fill="#ffa49c"/>
        <path id="Trazado_721998" data-name="Trazado 721998" d="M157.583,401.752s1.3,3.846,4.308,4.812a2.629,2.629,0,0,1-.13-.328c-.084-.26-.156-.522-.215-.789-.054-.226-.088-1.022-.124-1.253-.029-.177-.052-.354-.071-.534a9.872,9.872,0,0,1-.053-1.23,3.049,3.049,0,0,0-.32-.349Z" transform="translate(-144.094 -372.63)" fill="#dc6478"/>
        <path id="Trazado_721999" data-name="Trazado 721999" d="M168.973,416.333l1.42,1.935a1.883,1.883,0,0,0,.535-1.943l-1.116-1.6S169.981,416.3,168.973,416.333Z" transform="translate(-151.578 -381.153)" fill="#fff"/>
        <path id="Trazado_722000" data-name="Trazado 722000" d="M153.938,412.758a6.806,6.806,0,0,0,4.59,2.283l-1.066,2.195a7.355,7.355,0,0,1-4.387-2.928Z" transform="translate(-141.133 -379.862)" fill="#fff"/>
        <path id="Trazado_722001" data-name="Trazado 722001" d="M167.444,380.777a4.411,4.411,0,0,1,.007,3.658c-.212-.866-.425-1.7-.637-2.561a1.322,1.322,0,0,1,.092-1.185.383.383,0,0,1,.331-.147C167.361,380.562,167.5,380.663,167.444,380.777Z" transform="translate(-150.098 -358.692)" fill="#8a4632"/>
        <path id="Trazado_722002" data-name="Trazado 722002" d="M156.925,380.138a8.194,8.194,0,0,0,1.262,5.014,5.277,5.277,0,0,1,1.254,2.653,2.549,2.549,0,0,1-2.692,2.265,4.807,4.807,0,0,1-3.321-1.877,9.014,9.014,0,0,1-2.09-6.676A9.95,9.95,0,0,1,156.925,380.138Z" transform="translate(-139.962 -358.416)" fill="#ffa49c"/>
        <path id="Trazado_722003" data-name="Trazado 722003" d="M145.973,377.8a8.083,8.083,0,0,0,2.247,2.1,3.754,3.754,0,0,0-.349-3.941s6.877,1.06,6-2.273a5.062,5.062,0,0,0-1.071-2.715,6.551,6.551,0,0,0-2.006.411,7.338,7.338,0,0,0-3.254,2.1,3.661,3.661,0,0,0-2,1.485A2.722,2.722,0,0,0,145.973,377.8Z" transform="translate(-136.031 -352.406)" fill="#8a4632"/>
        <path id="Trazado_722004" data-name="Trazado 722004" d="M151.528,395.164a.537.537,0,0,0-.482-.512.7.7,0,0,0-.644.348,1.007,1.007,0,0,0-.091.748,1.86,1.86,0,0,0,.351.683,1.75,1.75,0,0,0,.9.671.924.924,0,0,0,1.012-.347C152.1,396.288,151.513,395.834,151.528,395.164Z" transform="translate(-139.294 -367.963)" fill="#ffa49c"/>
        <g id="Grupo_1007880" data-name="Grupo 1007880" transform="translate(16.935 26.431)">
          <path id="Trazado_722005" data-name="Trazado 722005" d="M167.63,394.869c-.007.034.087.064.216.039a.779.779,0,0,0,.46-.27.024.024,0,0,1,.009-.011.784.784,0,0,0,.157-.331.546.546,0,0,0-.018-.345c-.018-.036-.035-.05-.056-.044a.041.041,0,0,0-.026.014,2.053,2.053,0,0,0-.1.242,1.234,1.234,0,0,1-.149.261.174.174,0,0,1-.023.031,1.254,1.254,0,0,1-.33.284C167.685,394.8,167.625,394.832,167.63,394.869Z" transform="translate(-167.63 -393.907)" fill="#dc6478"/>
        </g>
        <path id="Trazado_722006" data-name="Trazado 722006" d="M164.969,520.855a.189.189,0,0,1,.377,0,39.3,39.3,0,0,1-.233,4.771c-.026.239-.4.241-.378,0A39.234,39.234,0,0,0,164.969,520.855Z" transform="translate(-148.792 -450.765)" fill="#79471f"/>
        <path id="Trazado_722007" data-name="Trazado 722007" d="M165.473,522.23a6.036,6.036,0,0,0,1.718-1.921.189.189,0,0,1,.325.19,6.472,6.472,0,0,1-1.853,2.056C165.467,522.7,165.278,522.371,165.473,522.23Z" transform="translate(-149.224 -450.466)" fill="#79471f"/>
        <g id="Grupo_1007882" data-name="Grupo 1007882" transform="translate(16.048 27.928)">
          <g id="Grupo_1007881" data-name="Grupo 1007881">
            <path id="Trazado_722008" data-name="Trazado 722008" d="M165.21,398.448a4.888,4.888,0,0,0,1.956-.162.162.162,0,0,1,.233.141c-.161,2.031-2.013,1.085-2.338.245C165.014,398.551,165.066,398.43,165.21,398.448Z" transform="translate(-165.044 -398.272)" fill="#fff"/>
          </g>
        </g>
        <path id="Trazado_722009" data-name="Trazado 722009" d="M212.308,423.822l0,0h-4.088l-.376-2.515s2.869-1.508,4.777-.449Z" transform="translate(-177.119 -384.938)" fill="#ffa49c"/>
        <path id="Trazado_722010" data-name="Trazado 722010" d="M179.612,437.088c-.063-.29-.508-.167-.445.123a50.794,50.794,0,0,1,.964,6.325c.026.294.488.3.462,0A51.73,51.73,0,0,0,179.612,437.088Z" transform="translate(-158.271 -395.738)" fill="#288d8a"/>
        <path id="Trazado_722011" data-name="Trazado 722011" d="M153.868,434.009a70.477,70.477,0,0,0,6.334,3.63l.134.075a2.731,2.731,0,0,0,1.288.323,2.775,2.775,0,0,0,1.029-.2,2.978,2.978,0,0,0,.652-.388l10.6-12.19-.194-.3-1.33-2.063s-9.515,7.906-9.854,8.17c-.447-.361-4.811-3.495-5.075-3.721A23.9,23.9,0,0,1,153.868,434.009Z" transform="translate(-141.653 -386.523)" fill="#ffa49c"/>
        <path id="Trazado_722012" data-name="Trazado 722012" d="M151.632,452.972a36.79,36.79,0,0,1-5.991-3.7c-.237-.18-.467.221-.233.4a36.729,36.729,0,0,0,5.991,3.7C151.665,453.5,151.9,453.1,151.632,452.972Z" transform="translate(-136.031 -403.822)" fill="#288d8a"/>
        <path id="Trazado_722013" data-name="Trazado 722013" d="M164.638,434.995a4.382,4.382,0,0,1-1-.639.207.207,0,0,0-.032-.132,2.727,2.727,0,0,1-.4-1.06c-.046-.293-.491-.168-.445.123a3,3,0,0,0,.093.393l-.039-.034c-.539-.467-1.061-.952-1.572-1.45-.213-.207-.539.118-.326.327.571.556,1.156,1.1,1.763,1.614a7.3,7.3,0,0,0,1.726,1.258C164.674,435.51,164.91,435.113,164.638,434.995Z" transform="translate(-146.238 -392.589)" fill="#288d8a"/>
        <path id="Trazado_722014" data-name="Trazado 722014" d="M190.253,318.829v12.228a1.985,1.985,0,0,0,1.984,1.984h17.747l5.52,5.519V318.829a1.986,1.986,0,0,0-1.987-1.987h-21.28A1.985,1.985,0,0,0,190.253,318.829Z" transform="translate(-165.559 -316.842)" fill="#3d8dc2"/>
        <g id="Grupo_1007883" data-name="Grupo 1007883" transform="translate(30.56 8.902)">
          <path id="Trazado_722015" data-name="Trazado 722015" d="M236.183,344.268a1.47,1.47,0,1,0,1.47-1.47A1.47,1.47,0,0,0,236.183,344.268Z" transform="translate(-226.297 -342.798)" fill="#fff"/>
          <path id="Trazado_722016" data-name="Trazado 722016" d="M221.77,344.268a1.47,1.47,0,1,0,1.47-1.47A1.47,1.47,0,0,0,221.77,344.268Z" transform="translate(-216.827 -342.798)" fill="#fff"/>
          <path id="Trazado_722017" data-name="Trazado 722017" d="M207.358,344.268a1.47,1.47,0,1,0,1.47-1.47A1.47,1.47,0,0,0,207.358,344.268Z" transform="translate(-207.358 -342.798)" fill="#fff"/>
        </g>
      </g>
    </g>
  </g>
</svg>
