<svg xmlns="http://www.w3.org/2000/svg" xmlns:xlink="http://www.w3.org/1999/xlink" width="331" height="195.5" viewBox="0 0 331 195.5">
  <defs>
    <clipPath id="clip-path">
      <rect id="fomentar-crecimiento-toma-angulo-alto-grupo-empresarios-irreconocibles-que-perforan-planta-ciernes-mientras-estan-pie-su-oficina" width="331" height="195" rx="20" transform="translate(635 6596.5)" fill="#fff"/>
    </clipPath>
  </defs>
  <g id="Grupo_1013477" data-name="Grupo 1013477" transform="translate(-635 -5876.715)">
    <rect id="mano-que-sostiene-flecha-crecimiento-monedas" width="331" height="195" rx="20" transform="translate(635 5877.215)" fill="#fff"/>
    <g id="Enmascarar_grupo_998585" data-name="Enmascarar grupo 998585" transform="translate(0 -719.785)" clip-path="url(#clip-path)">
      <g id="Grupo_1008051" data-name="Grupo 1008051" transform="translate(263.364 3989.346)">
        <g id="Grupo_1008050" data-name="Grupo 1008050" transform="translate(438.636 2625.445)">
          <g id="Grupo_1007976" data-name="Grupo 1007976" transform="translate(0 0)">
            <g id="Grupo_1007947" data-name="Grupo 1007947" transform="translate(0 90.122)">
              <g id="Grupo_1007937" data-name="Grupo 1007937" transform="translate(10.407 15.17)">
                <g id="Grupo_1007931" data-name="Grupo 1007931" transform="translate(5.174)">
                  <path id="Trazado_722105" data-name="Trazado 722105" d="M598.836,3569.852c-.04-1.836-.321-12.855-1.489-26.094-1.067-12.087-3.029-27.056-3.513-31.193-1.015-7.864-4.845-9.579-11.093-9.579a11.527,11.527,0,0,0-11.527,11.527c0,.322.014.641.04.956l-.04,0s2.545,23.481,13.326,54.647a7.151,7.151,0,0,0,14.3,0C598.842,3570.031,598.84,3569.941,598.836,3569.852Z" transform="translate(-570.765 -3502.175)" fill="#9e5959"/>
                  <g id="Grupo_1007930" data-name="Grupo 1007930">
                    <path id="Trazado_722106" data-name="Trazado 722106" d="M580.41,3496.369s8.628-1.377,10.647,6.792,4.222,35.981,5.048,49.291,1.836,17.9-6.7,19.643c-3.4.367-8.445-2.111-9.638-7.8,0,0-1.469-1.744-.184-3.121,0,0-5.691-16.981-9.638-34.6S565.173,3498.3,580.41,3496.369Z" transform="translate(-567.501 -3496.281)" fill="#db9256"/>
                    <path id="Trazado_722107" data-name="Trazado 722107" d="M570.455,3582.99l11.6-9.816s.612,8.322,1.285,9,4.161-7.037,5.936-8.506c0,0-3.243,8.812-3.794,12.361s-2.264,35.552-2.509,40.081c-.058,1.07-.177,3.59-.323,6.874a11.005,11.005,0,0,1-.289-1.092s-1.469-1.744-.184-3.121c0,0-5.691-16.981-9.638-34.6C571.623,3590.052,570.872,3586.32,570.455,3582.99Z" transform="translate(-570.098 -3563.877)" fill="#d18547"/>
                  </g>
                </g>
                <g id="Grupo_1007936" data-name="Grupo 1007936" transform="translate(0 61.538)">
                  <g id="Grupo_1007934" data-name="Grupo 1007934" transform="translate(0 0.838)">
                    <path id="Trazado_722108" data-name="Trazado 722108" d="M601.928,4021.122a7.152,7.152,0,0,0-13.428-4.768,88.78,88.78,0,0,0-5.963,13.925c-3.58,10.589-4.184,25.958-7.184,36.648a3.522,3.522,0,1,0,6.818,1.772s14.791-35.966,18.868-45.533A7.144,7.144,0,0,0,601.928,4021.122Z" transform="translate(-569.129 -4012.17)" fill="#9e5959"/>
                    <g id="Grupo_1007933" data-name="Grupo 1007933" transform="translate(0 50.078)">
                      <path id="Trazado_722109" data-name="Trazado 722109" d="M567.313,4457.973c-2.3-1.739-6.406-5.194-7.748-6.536s-3.3-2.878-3.649-3.779a3.522,3.522,0,0,0-6.818-1.772,7.511,7.511,0,0,1-1.266,2.371c-1.01,1.193-2.691,2.941-2.432,4.773s2.233,2.878,4.748,3.385a43.1,43.1,0,0,1,8.805,3.318c1.906,1.01,8.887,2.861,9.572,2.488S569.618,4459.712,567.313,4457.973Z" transform="translate(-542.874 -4441.206)" fill="#9e5959"/>
                      <g id="Grupo_1007932" data-name="Grupo 1007932">
                        <path id="Trazado_722110" data-name="Trazado 722110" d="M550.505,4525.8a1.035,1.035,0,0,1,.36.9c-.116.5-.437,1.361-.841,1.486a24.823,24.823,0,0,1-8.655-2.182c-3.986-1.768-6.537-3.268-7.024-3.878s-.533-1.43-1.629-1.9-1.345.569-1.852.7c-.447.116-4.286-1.581-5.822-2.636a.774.774,0,0,1-.285-.914c.348-.917,1.126-2.7,1.944-2.793Z" transform="translate(-524.707 -4503.917)" fill="#6d5c6d"/>
                        <path id="Trazado_722111" data-name="Trazado 722111" d="M524.758,4517.378a.774.774,0,0,0,.285.914c1.536,1.055,5.374,2.751,5.822,2.636.507-.132.756-1.174,1.852-.7s1.142,1.292,1.629,1.9,3.039,2.11,7.024,3.878a28.941,28.941,0,0,0,7.729,2.147c.338-1.932-.472-2.642-.472-2.642a3.905,3.905,0,0,0,.005-.6l-21.93-10.33C525.884,4514.677,525.106,4516.461,524.758,4517.378Z" transform="translate(-524.707 -4503.917)" fill="#635463"/>
                        <path id="Trazado_722112" data-name="Trazado 722112" d="M555.225,4430.122a.924.924,0,0,1,.323.989,3.465,3.465,0,0,0,.109,2.646,42.707,42.707,0,0,0,6.272,6.2c2.491,1.874,3.921,3.54,3.936,5.246s-.422,2.717-.856,3.029c0,0-2.49.326-7.4-2.089s-9.6-4.739-11.986-5.817-4.249-2.432-4.422-3.306a13.352,13.352,0,0,1,2.329-3.894,19.887,19.887,0,0,0,3.393-5.434c.576-1.451.473-1.445,1.286-1.245a21.669,21.669,0,0,1,4.358,2.179c.668.538.678,1.442,1.027,1.792S554.454,4429.94,555.225,4430.122Z" transform="translate(-539.21 -4426.354)" fill="#564756"/>
                        <path id="Trazado_722113" data-name="Trazado 722113" d="M563.269,4507.509a1.032,1.032,0,0,0-.14-.167,6.773,6.773,0,0,0-1.382-4.369c-.934-.934-7.655-3.174-8.365-3.66s-.784-3.249-.784-3.249a44.486,44.486,0,0,0-10.125-2.148,14.226,14.226,0,0,0-1.269,2.5c.173.874,2.038,2.228,4.422,3.306s7.079,3.4,11.986,5.817A20.827,20.827,0,0,0,563.269,4507.509Z" transform="translate(-539.21 -4485.748)" fill="#4f414f"/>
                        <path id="Trazado_722114" data-name="Trazado 722114" d="M644.776,4457.327a.923.923,0,0,1,.323.989,3.466,3.466,0,0,0,.109,2.646,42.738,42.738,0,0,0,6.272,6.2q.9.678,1.612,1.324c-.578.317-1.367.661-1.779.454-.7-.351-7.714-5.175-8.054-6.821a20.884,20.884,0,0,1-.111-4.5C643.5,4457.975,644,4457.145,644.776,4457.327Z" transform="translate(-628.761 -4453.559)" fill="#4a3d4a"/>
                      </g>
                    </g>
                  </g>
                  <g id="Grupo_1007935" data-name="Grupo 1007935" transform="translate(2.021)">
                    <path id="Trazado_722115" data-name="Trazado 722115" d="M573.667,4011.439s.061,3.855-3.3,12.3-12.116,29.862-13.218,32.616-1.285,3.549-1.163,3.855a3.92,3.92,0,0,1,.245,2.325c-.245,1.1.956,1.782,1.14,2.027s-2,1.278-3.832,2.073-5.813-.184-7.833-.857-3.243.551-4.283-.551c0,0,2.142-8.689,3.672-14.931s7.833-32.432,11.81-38.857,9.24-6.854,12.177-5.691S573.79,4008.441,573.667,4011.439Z" transform="translate(-541.419 -4005.241)" fill="#db9256"/>
                    <path id="Trazado_722116" data-name="Trazado 722116" d="M545.09,4091.838c1.53-6.241,7.833-32.432,11.81-38.857.1-.166.206-.327.31-.484-.46,10.135-1.316,30.861-1.167,34.63.166,4.2.981,6.2,4.021,3.578-1.462,3.594-2.572,6.323-2.92,7.192-1.1,2.754-1.285,3.549-1.163,3.855a3.92,3.92,0,0,1,.245,2.325c-.245,1.1.956,1.782,1.14,2.027s-2,1.277-3.832,2.073-5.813-.184-7.833-.856-3.243.551-4.284-.551C541.418,4106.77,543.56,4098.08,545.09,4091.838Z" transform="translate(-541.418 -4046.783)" fill="#d18547"/>
                  </g>
                </g>
              </g>
              <g id="Grupo_1007940" data-name="Grupo 1007940">
                <path id="Trazado_722117" data-name="Trazado 722117" d="M484.268,3383.051c-.093-1.616-.406-5.153-.6-6.691,0,0-2.48-5.576-14.434-5.542-10.528.03-11.752,3.854-11.752,3.854-.044,3.244-4.812,7.506-6.354,10.527-3.425,6.707-3.709,10.61-3.282,15.839s17.177,8.2,24.2,6.088C482.663,3403.924,485.267,3400.318,484.268,3383.051Z" transform="translate(-446.595 -3370.818)" fill="#9e5959"/>
                <g id="Grupo_1007939" data-name="Grupo 1007939" transform="translate(0 4.564)">
                  <path id="Trazado_722118" data-name="Trazado 722118" d="M476.213,3410.032s1.193,11.933,1.285,15.512a14.691,14.691,0,0,1-7.114,13.08c-5.874,3.442-15.65,3.534-21.065,2.2s-9.638-3.718-10.6-5.416a37.74,37.74,0,0,1,1.377-12.162c1.56-5.324,7.8-13.172,8.628-14.686A169.168,169.168,0,0,0,476.213,3410.032Z" transform="translate(-438.636 -3408.564)" fill="#db9256"/>
                  <g id="Grupo_1007938" data-name="Grupo 1007938" transform="translate(8.552)">
                    <path id="Trazado_722119" data-name="Trazado 722119" d="M702.856,3437.032s0,9.179-.367,10.464a3.431,3.431,0,0,1-2.2,2.08c-.612.245-1.469-12.116-1.469-12.116Z" transform="translate(-675.911 -3433.59)" fill="#d18547"/>
                    <path id="Trazado_722120" data-name="Trazado 722120" d="M510.9,3408.564a169.168,169.168,0,0,0,27.491,1.469s.071.715.181,1.845c-1.718.849-6.015,2.328-14.316,1.659-8.769-.707-13.07-1.814-14.89-2.7C510.118,3409.759,510.687,3408.952,510.9,3408.564Z" transform="translate(-509.364 -3408.564)" fill="#c4793b"/>
                    <path id="Trazado_722121" data-name="Trazado 722121" d="M583.466,3585.284c.673.673,4.039-7.037,5.813-8.506,0,0-2.1,5.7-3.206,9.778-4.128,2.335-10.084,3.072-15.124,2.852q-.293-1.712-.495-3.3l10.135-9.388a11.032,11.032,0,0,1,1.744,3.4C582.976,3582.2,583.124,3584.942,583.466,3585.284Z" transform="translate(-563.069 -3556.386)" fill="#d18547"/>
                  </g>
                </g>
              </g>
              <g id="Grupo_1007946" data-name="Grupo 1007946" transform="translate(0.034 18.01)">
                <g id="Grupo_1007941" data-name="Grupo 1007941">
                  <path id="Trazado_722122" data-name="Trazado 722122" d="M471.326,3539.667a11.527,11.527,0,0,0-12.389-10.6c-6.347.5-11.126,4.206-11.554,11.769,0,0-.757,11.194,3.425,30.68,3.888,18.118,4.307,25.188,4.307,25.188a7.152,7.152,0,0,0,14.242.192s1.477-5.915,1.883-24.039c.333-14.87.178-27.684.111-31.806A11.633,11.633,0,0,0,471.326,3539.667Z" transform="translate(-446.312 -3527.917)" fill="#9e5959"/>
                  <path id="Trazado_722123" data-name="Trazado 722123" d="M452.872,3519.775s12.483,0,13.126,11.29-1.928,50.392-3.029,58.653-8.353,7.068-10.739,6.517-4.865-5.691-5.6-8.812c0,0-1.928-.459-.367-2.937,0,0-7.159-33.135-7.343-49.107S452.872,3519.775,452.872,3519.775Z" transform="translate(-438.918 -3519.774)" fill="#db9256"/>
                </g>
                <g id="Grupo_1007945" data-name="Grupo 1007945" transform="translate(4.383 60.52)">
                  <g id="Grupo_1007944" data-name="Grupo 1007944" transform="translate(1.809 1.317)">
                    <path id="Trazado_722124" data-name="Trazado 722124" d="M512.182,4037.426a7.152,7.152,0,0,0-14.13-.322,84.04,84.04,0,0,0-1.6,18.439c.336,9.571,2.134,35.685,2.134,35.685a5.716,5.716,0,0,0,.163,1.5,3.368,3.368,0,0,0,4.449,1.929,3.523,3.523,0,0,0,2.432-3.272s7.148-42.567,6.612-53.161a7.088,7.088,0,0,0-.061-.792Z" transform="translate(-495.655 -4031.213)" fill="#9e5959"/>
                    <g id="Grupo_1007943" data-name="Grupo 1007943" transform="translate(0 56.477)">
                      <path id="Trazado_722125" data-name="Trazado 722125" d="M523.142,4514.421c-2.4-1.713-11.516-4.743-13-5.446a7.239,7.239,0,0,1-2.12-1.4,3.524,3.524,0,0,0-5.4-1.955,3.766,3.766,0,0,0-1.387,3.835,4.9,4.9,0,0,1-.712,1.69c-.557.82-1.755,3.339-1.137,5.292s7.567.994,10.183,1.151c2.762.166,9.441.762,12.7.383C523.839,4517.788,525.542,4516.133,523.142,4514.421Z" transform="translate(-498.114 -4504.184)" fill="#9e5959"/>
                      <g id="Grupo_1007942" data-name="Grupo 1007942">
                        <path id="Trazado_722126" data-name="Trazado 722126" d="M517.122,4602.829s.6.184.688.688.138,1.422-.184,1.7a24.853,24.853,0,0,1-8.812,1.422c-4.36-.046-7.3-.413-7.986-.78s-1.056-1.1-2.249-1.1-1.01,1.055-1.423,1.376c-.365.284-4.561.246-6.39-.115a.774.774,0,0,1-.623-.726c-.044-.98-.035-2.927.679-3.335Z" transform="translate(-490.13 -4589.426)" fill="#6d5c6d"/>
                        <path id="Trazado_722127" data-name="Trazado 722127" d="M505.937,4498.964a.923.923,0,0,1,.688.78c.138.688.321,1.881,1.147,2.386a42.724,42.724,0,0,0,8.215,3.213c3.029.734,5,1.7,5.691,3.258s.688,2.662.413,3.121c0,0-2.157,1.285-7.618,1.01s-10.693-.551-13.309-.6-4.865-.551-5.37-1.285a13.351,13.351,0,0,1,.6-4.5,19.882,19.882,0,0,0,.964-6.333c-.046-1.561-.138-1.515.688-1.652a21.656,21.656,0,0,1,4.865.275c.826.229,1.193,1.056,1.652,1.239S505.157,4499.1,505.937,4498.964Z" transform="translate(-495.101 -4498.32)" fill="#564756"/>
                        <path id="Trazado_722128" data-name="Trazado 722128" d="M569.746,4503.646a.923.923,0,0,1,.688.78c.138.688.321,1.881,1.147,2.386a42.725,42.725,0,0,0,8.215,3.213q1.1.265,2,.577c-.4.52-.993,1.148-1.454,1.121-.78-.046-9.133-1.7-10.1-3.075a20.877,20.877,0,0,1-1.882-4.084C568.828,4504.748,568.966,4503.784,569.746,4503.646Z" transform="translate(-558.909 -4503.002)" fill="#4a3d4a"/>
                      </g>
                    </g>
                  </g>
                  <path id="Trazado_722129" data-name="Trazado 722129" d="M495.111,4027.448s-.734,11.565-1.193,19.735-1.1,25.609-.734,29.739,1.01,6.333.734,6.792-3.672,2.019-6.15,2.019-4.773-.275-6.333.092-5.324.643-6.242-.367c-.184-.734.734-15.42.275-22.947s1.1-28.363,3.121-35.43S492.725,4016.158,495.111,4027.448Z" transform="translate(-475.168 -4020.32)" fill="#db9256"/>
                </g>
              </g>
            </g>
            <g id="Grupo_1007975" data-name="Grupo 1007975" transform="translate(5.124)">
              <g id="Grupo_1007950" data-name="Grupo 1007950" transform="translate(20.237 50.513)">
                <g id="Grupo_1007948" data-name="Grupo 1007948">
                  <path id="Trazado_722130" data-name="Trazado 722130" d="M670.218,3080.752s-4.744-25.42-6.6-30.86a6.619,6.619,0,0,0-12.765,3.5q.065.246.148.484c.945,3.087,6.253,20.225,10.688,30.622a4.7,4.7,0,1,0,8.528-3.749Z" transform="translate(-650.365 -3044.865)" fill="#9e5959"/>
                  <path id="Trazado_722131" data-name="Trazado 722131" d="M691.519,3188.149l-12.529,1.127c2.143,6.531,5.033,14.909,7.625,20.985a4.7,4.7,0,0,0,4.148,3.356c.034,0,.067,0,.1,0v-10.667s1.9-1.5,3.134-2.446C693.32,3197.013,692.421,3192.46,691.519,3188.149Z" transform="translate(-675.29 -3170.626)" fill="#914d4d"/>
                  <path id="Trazado_722132" data-name="Trazado 722132" d="M658.86,3044.024s1.973,1.01,3.58,5.507,5.186,14.457,5.186,14.457-7.068,3.809-13.631,4.819c0,0-4.268-10.969-5.37-16.017s1.882-8.376,3.534-9.133A9.762,9.762,0,0,1,658.86,3044.024Z" transform="translate(-648.387 -3043.221)" fill="#edd8cc"/>
                  <path id="Trazado_722133" data-name="Trazado 722133" d="M711.58,3106.352c-.661.895-1.529,1.853-1.751,1.051-.369-1.335-4.1-11.526-4.1-11.526a22.688,22.688,0,0,0-5.428,10.737,12.124,12.124,0,0,0,.933,8.125,53.328,53.328,0,0,0,11.754-4.461Z" transform="translate(-693.752 -3089.51)" fill="#e6c1ac"/>
                </g>
                <g id="Grupo_1007949" data-name="Grupo 1007949" transform="translate(11.701 34.247)">
                  <path id="Trazado_722134" data-name="Trazado 722134" d="M773.283,3351.086a2.6,2.6,0,0,0-.695-.912c-5.266-6.711-19.557-22.417-19.557-22.417a4.7,4.7,0,0,0-5.194-.862,4.547,4.547,0,0,0-2.307,6.005,6.522,6.522,0,0,0,.736,1.424c2.5,5.008,22.4,19.234,22.4,19.234l.015-.013c1.416,1.176,2.1,1.566,3.319,1.008A2.615,2.615,0,0,0,773.283,3351.086Z" transform="translate(-745.163 -3326.467)" fill="#9e5959"/>
                  <path id="Trazado_722135" data-name="Trazado 722135" d="M749.035,3327.007a4.688,4.688,0,0,0-1.2.364,4.547,4.547,0,0,0-2.307,6.005,6.513,6.513,0,0,0,.736,1.424,15.564,15.564,0,0,0,2.769,3.407Z" transform="translate(-745.163 -3326.942)" fill="#914d4d"/>
                  <path id="Trazado_722136" data-name="Trazado 722136" d="M962.55,3534.938s2.7.888,3.04.888.068-.615,0-1.025-2.766-2.9-4.1-4.371-6.421-6.967-8.128-6.865-3.142,1.878-2.288,3.176,7.1,6.182,8.572,7.172A5.976,5.976,0,0,0,962.55,3534.938Z" transform="translate(-925.955 -3499.733)" fill="#914d4d"/>
                </g>
              </g>
              <g id="Grupo_1007974" data-name="Grupo 1007974">
                <g id="Grupo_1007972" data-name="Grupo 1007972">
                  <path id="Trazado_722137" data-name="Trazado 722137" d="M525.42,3068.538s2.979-1.535,3.392-4.5-1.722-8.836-2.331-13.386a51.421,51.421,0,0,0-2.723-11.551s.7-1.593-10.684-2.186a42.583,42.583,0,0,0-10.208,1.227c-4.968,1.14-5.7,1.947-6.776,3.455-2.987,4.193-.492,9.11,1.506,24.521.308,2.375,1.746,8.3.741,15.818l26.8.826C525.352,3078.151,525.42,3068.538,525.42,3068.538Z" transform="translate(-493.054 -2987.162)" fill="#9e5959"/>
                  <g id="Grupo_1007951" data-name="Grupo 1007951" transform="translate(13.196 34.364)">
                    <path id="Trazado_722138" data-name="Trazado 722138" d="M602.7,2926.482l-1.207-11.811a5.444,5.444,0,0,0-10.871.505l-.458,12.76c-.005.089-.009.493-.009.493a6.367,6.367,0,0,0,12.563,1.36A10.388,10.388,0,0,0,602.7,2926.482Z" transform="translate(-590.152 -2909.661)" fill="#9e5959"/>
                    <path id="Trazado_722139" data-name="Trazado 722139" d="M604.9,2914.671a5.444,5.444,0,0,0-10.871.5l1.348,1.129c2.678,5.35,5.911,8.744,10.662,9.512l-1.139-11.146Z" transform="translate(-593.556 -2909.661)" fill="#914d4d"/>
                  </g>
                  <g id="Grupo_1007971" data-name="Grupo 1007971">
                    <g id="Grupo_1007959" data-name="Grupo 1007959" transform="translate(8.68 15.588)">
                      <path id="Trazado_722140" data-name="Trazado 722140" d="M561.877,2754.507s-10.26,1.3-8.954,13.451c1.254,11.676,11.923,20.375,20.122,17.175,2.59-1.189,3.813-7.437,3.1-16.6S570.932,2753.382,561.877,2754.507Z" transform="translate(-552.808 -2754.371)" fill="#9e5959"/>
                      <g id="Grupo_1007958" data-name="Grupo 1007958" transform="translate(11.587 13.478)">
                        <g id="Grupo_1007952" data-name="Grupo 1007952" transform="translate(0.315 4.685)">
                          <path id="Trazado_722141" data-name="Trazado 722141" d="M656.545,2915.253s-.64-.891-3.014-.357c-1.929.434-2.585.951-2.153,2.106C651.885,2918.359,658.056,2917.459,656.545,2915.253Z" transform="translate(-651.25 -2913.5)" fill="#914d4d"/>
                          <path id="Trazado_722142" data-name="Trazado 722142" d="M724.764,2906.439c.02.525,1.3.974,2.7.967q.054-1.336.031-2.819C725.78,2904.77,724.624,2905.4,724.764,2906.439Z" transform="translate(-715.866 -2904.587)" fill="#914d4d"/>
                        </g>
                        <g id="Grupo_1007953" data-name="Grupo 1007953" transform="translate(2.523 2.158)">
                          <path id="Trazado_722143" data-name="Trazado 722143" d="M669.518,2892.181c.08.659.545,1.145,1.04,1.084a1.085,1.085,0,0,0,.751-1.3c-.08-.659-.545-1.145-1.04-1.085A1.085,1.085,0,0,0,669.518,2892.181Z" transform="translate(-669.506 -2890.006)" fill="#121d3f"/>
                          <path id="Trazado_722144" data-name="Trazado 722144" d="M721.683,2884.95c.077.635.525,1.1,1,1.045a1.045,1.045,0,0,0,.723-1.254c-.077-.635-.525-1.1-1-1.044A1.045,1.045,0,0,0,721.683,2884.95Z" transform="translate(-715.364 -2883.692)" fill="#121d3f"/>
                        </g>
                        <path id="Trazado_722145" data-name="Trazado 722145" d="M705.675,2894.411a3.273,3.273,0,0,0,1.226-.319c.506-.3.305-.759.112-1.2-.032-.073-.062-.154-.1-.239a20.5,20.5,0,0,1-.889-1.934,10.556,10.556,0,0,1-.653-2.461.311.311,0,0,0-.609.129,10.824,10.824,0,0,0,.655,2.489,17,17,0,0,0,.922,2.019c.045.087.074.172.107.248a2.462,2.462,0,0,1,.155.4l-.018.011a3.945,3.945,0,0,1-1.484.264.311.311,0,0,0,.008.623C705.158,2894.445,705.387,2894.441,705.675,2894.411Z" transform="translate(-697.968 -2885.332)" fill="#723333"/>
                        <g id="Grupo_1007954" data-name="Grupo 1007954" transform="translate(0 0.424)">
                          <path id="Trazado_722146" data-name="Trazado 722146" d="M654.12,2869.658a.4.4,0,0,0-.631-.225,31.861,31.861,0,0,1-2.942,1.344c-1.274.476-2.006.658-1.894.77s.712.352,1.995.031a24.389,24.389,0,0,0,3.487-1.189C654.353,2870.242,654.25,2870.058,654.12,2869.658Z" transform="translate(-648.641 -2869.349)" fill="#142347"/>
                        </g>
                        <g id="Grupo_1007955" data-name="Grupo 1007955" transform="translate(8.019)">
                          <path id="Trazado_722147" data-name="Trazado 722147" d="M715.026,2866.206a.4.4,0,0,1,.588-.321c1.285.359,1.559.559,3.045.946a3.667,3.667,0,0,1,.978.338c.128.093.1.474-1.218.357a19.084,19.084,0,0,1-3.292-.6C714.887,2866.819,714.96,2866.622,715.026,2866.206Z" transform="translate(-714.961 -2865.841)" fill="#142347"/>
                        </g>
                        <g id="Grupo_1007957" data-name="Grupo 1007957" transform="translate(4.676 10.454)">
                          <g id="Grupo_1007956" data-name="Grupo 1007956">
                            <path id="Trazado_722148" data-name="Trazado 722148" d="M689.222,2953.81a5,5,0,0,1-1.7-.28.3.3,0,1,1,.207-.573,6.267,6.267,0,0,0,4.714-.6.3.3,0,1,1,.337.508A7.39,7.39,0,0,1,689.222,2953.81Z" transform="translate(-687.317 -2952.306)" fill="#723333"/>
                          </g>
                          <path id="Trazado_722149" data-name="Trazado 722149" d="M704.914,2970.561a.227.227,0,0,0,.108-.033,2.587,2.587,0,0,1,1.455-.257.229.229,0,0,0,.061-.453,3.014,3.014,0,0,0-1.753.319.229.229,0,0,0,.129.424Z" transform="translate(-702.576 -2967.683)" fill="#914d4d"/>
                        </g>
                      </g>
                    </g>
                    <g id="Grupo_1007968" data-name="Grupo 1007968">
                      <g id="Grupo_1007965" data-name="Grupo 1007965">
                        <g id="Grupo_1007960" data-name="Grupo 1007960" transform="translate(0 8.901)">
                          <path id="Trazado_722150" data-name="Trazado 722150" d="M484.918,2699.079a4.212,4.212,0,0,0-2.057.333c-.867.455-1.522,2.913-1.489,4.866s.683,4.468-.009,7.4-.282,4.1.621,4.412,2.3-2.654,2.317-4.9-.492-6.727.139-8.415.994-1.527,1.636-1.735S486.228,2699.255,484.918,2699.079Z" transform="translate(-481.015 -2699.064)" fill="#1a2a4f"/>
                          <path id="Trazado_722151" data-name="Trazado 722151" d="M492.5,2701.038c.642-.208.153-1.784-1.157-1.959a4.212,4.212,0,0,0-2.057.333,2.713,2.713,0,0,0-.962,1.5,4.289,4.289,0,0,1,1.274-1.157c.784-.333,1.159.094,1.391.616s-.514,1.031-.805,2.406a13.03,13.03,0,0,0,.016,4.766c.176.736.356,1.556.495,2.311-.1-2.375-.353-5.682.17-7.079C491.5,2701.085,491.859,2701.246,492.5,2701.038Z" transform="translate(-487.44 -2699.064)" fill="#121d3f"/>
                        </g>
                        <g id="Grupo_1007961" data-name="Grupo 1007961" transform="translate(4.347 11.388)">
                          <path id="Trazado_722152" data-name="Trazado 722152" d="M519.187,2719.7s-1.3.12-1.676,2.151.233,3.719-.4,5.407.941,1.14,1.513.7a3.9,3.9,0,0,0,.965-3.42,5.638,5.638,0,0,1,.481-3.635C520.512,2720.168,520.653,2719.392,519.187,2719.7Z" transform="translate(-516.966 -2719.629)" fill="#1a2a4f"/>
                          <path id="Trazado_722153" data-name="Trazado 722153" d="M524.929,2728.194a2.323,2.323,0,0,0,.4-.24,3.9,3.9,0,0,0,.965-3.42,5.638,5.638,0,0,1,.481-3.635c.44-.731.581-1.508-.885-1.2a1.832,1.832,0,0,0-1.3,1.039,1.027,1.027,0,0,1,.634-.081c.5.115.751.438.663,1.094a6.71,6.71,0,0,0-.231,2.241,8.958,8.958,0,0,1-.167,3.186A2.935,2.935,0,0,1,524.929,2728.194Z" transform="translate(-523.666 -2719.629)" fill="#121d3f"/>
                        </g>
                        <g id="Grupo_1007964" data-name="Grupo 1007964" transform="translate(2.415)">
                          <path id="Trazado_722154" data-name="Trazado 722154" d="M506.216,2638.39a12.422,12.422,0,0,1-4.017-3.6,6.005,6.005,0,0,1-1.1-4.626,2.924,2.924,0,0,1,.4-1.617,3.749,3.749,0,0,1,3-1.68,8.128,8.128,0,0,1,2.872.635,3.7,3.7,0,0,1,2.452-2.01c1.7-.317,2.005,1.09,2.266,1.611,0,0,1.306-1.186,2.281.663a6.281,6.281,0,0,1,3.3.852,2.417,2.417,0,0,1,1.123,2.494c-.15.6.154.762.218,2.121a8.156,8.156,0,0,1-.38,3.275C518.219,2638.006,510.008,2639.693,506.216,2638.39Z" transform="translate(-500.987 -2625.445)" fill="#1a2a4f"/>
                          <path id="Trazado_722155" data-name="Trazado 722155" d="M616.276,2648.327a1.236,1.236,0,0,1,.04-.351,2.417,2.417,0,0,0-1.123-2.494,6.16,6.16,0,0,0-3.26-.853c.2.393.959.7,1.249.917.322.237,1.257.282,1.807.656a5.272,5.272,0,0,1,1.286,2.125Z" transform="translate(-598.519 -2642.31)" fill="#15254a"/>
                          <path id="Trazado_722156" data-name="Trazado 722156" d="M553.735,2627.5a6.46,6.46,0,0,1,4.718-.4c-.261-.521-.564-1.928-2.266-1.611A3.7,3.7,0,0,0,553.735,2627.5Z" transform="translate(-547.357 -2625.445)" fill="#121d3f"/>
                          <path id="Trazado_722157" data-name="Trazado 722157" d="M527.236,2688.7a8.158,8.158,0,0,0,.38-3.275c-.011-.237-.03-.437-.052-.609a4.124,4.124,0,0,0-.262,1.512,3.739,3.739,0,0,1-.537,1.8.779.779,0,0,1-1.373-.232c-.3-.756-.6-.889-.6-.889a1.955,1.955,0,0,1-2.037,1.4,30.267,30.267,0,0,1-5.006-.062c-1.7-.217-2.86.874-3.974.482a15.262,15.262,0,0,1-2.985-1.888l.027.043a12.422,12.422,0,0,0,4.017,3.6C518.621,2691.883,526.832,2690.2,527.236,2688.7Z" transform="translate(-509.6 -2677.635)" fill="#15254a"/>
                          <g id="Grupo_1007963" data-name="Grupo 1007963" transform="translate(0.094 1.154)">
                            <path id="Trazado_722158" data-name="Trazado 722158" d="M569.636,2648.732c-1.47,2.946.168,7.479,2.206,9.489l.959-.06c.232-1,.47-6.708-1.015-7.768A9.6,9.6,0,0,0,569.636,2648.732Z" transform="translate(-560.934 -2647.071)" fill="#15254a"/>
                            <path id="Trazado_722159" data-name="Trazado 722159" d="M501.764,2651.857c.46-.645,1.033-1.761,1.893-1.721C503.078,2650.742,502.324,2651.354,501.764,2651.857Z" transform="translate(-501.764 -2648.304)" fill="#142347"/>
                            <g id="Grupo_1007962" data-name="Grupo 1007962" transform="translate(2.09)">
                              <path id="Trazado_722160" data-name="Trazado 722160" d="M532.281,2645.537c-.317-3.006-.544-6.305-2.854-8.524-2.413-2.827-5.451-1.68-8.022.251-2.447,2.008-3.012,3.1-.254,5.189.7,1.151,1.033,2.722,2.49,3.192-1.467-.388-1.913-1.944-2.621-3.073-2.952-2.081-2.336-3.465.193-5.557,2.659-2.058,5.958-3.183,8.427-.2C531.956,2639.1,532.132,2642.474,532.281,2645.537Z" transform="translate(-519.05 -2634.993)" fill="#142347"/>
                              <path id="Trazado_722161" data-name="Trazado 722161" d="M551.336,2656.94a8.928,8.928,0,0,1-3.213-6.814,2.949,2.949,0,0,1,2.311-2.573,2.388,2.388,0,0,1,1.743.531,4.711,4.711,0,0,1,2.083,2.63,16.13,16.13,0,0,1,.15,6.112c.177-1.938.121-5.068-.744-6.81a5.255,5.255,0,0,0-2.562-2.114,2.565,2.565,0,0,0-2.554,1.6C547.943,2652.238,549.508,2654.994,551.336,2656.94Z" transform="translate(-544.601 -2646.003)" fill="#142347"/>
                              <path id="Trazado_722162" data-name="Trazado 722162" d="M570.736,2658.6a9,9,0,0,1-2.19-3.055,8.14,8.14,0,0,1,.041-6.171A10.1,10.1,0,0,0,570.736,2658.6Z" transform="translate(-562.045 -2647.633)" fill="#142347"/>
                              <path id="Trazado_722163" data-name="Trazado 722163" d="M611.626,2644.632a9.46,9.46,0,0,0,2.252,2.794,6.2,6.2,0,0,1,1.247,6.161,7.138,7.138,0,0,0-1.478-5.957A7.206,7.206,0,0,1,611.626,2644.632Z" transform="translate(-600.433 -2643.467)" fill="#142347"/>
                            </g>
                          </g>
                        </g>
                      </g>
                      <g id="Grupo_1007966" data-name="Grupo 1007966" transform="translate(7.118 11.043)">
                        <path id="Trazado_722164" data-name="Trazado 722164" d="M541.52,2724.015a1.031,1.031,0,0,1-1.183-.6,2.3,2.3,0,0,1-.077-1.655,1.148,1.148,0,0,1-.125-1.415,1.807,1.807,0,0,1-.083-1.772c.417-1.2,1.486-1.135,2.434-1.121a34.108,34.108,0,0,0,4.977.063,35.891,35.891,0,0,0,5.062-.651c1.168-.351,1.854.387,1.4.763a1.722,1.722,0,0,1,1.111.955c.211.7-.56.678-.56.678s.68.619.024,1.153S541.52,2724.015,541.52,2724.015Z" transform="translate(-539.885 -2716.777)" fill="#1a2a4f"/>
                        <path id="Trazado_722165" data-name="Trazado 722165" d="M550.882,2736.109c-1.84-.092-5.555,1.5-6.658,1.97a5.091,5.091,0,0,1-2.113.395,2.3,2.3,0,0,0,.077,1.655,1.031,1.031,0,0,0,1.183.6s12.321-3.064,12.977-3.6-.024-1.153-.024-1.153C555,2735.442,552.722,2736.2,550.882,2736.109Z" transform="translate(-541.736 -2733.485)" fill="#15254a"/>
                        <path id="Trazado_722166" data-name="Trazado 722166" d="M541.946,2726.571c2.977-.276,5.64-1.789,8.6-2.106,1.7-.179,3.663.387,5.185-.612-1.419,1.182-3.451.716-5.151.925C547.658,2725.135,544.942,2726.621,541.946,2726.571Z" transform="translate(-541.697 -2722.997)" fill="#142347"/>
                      </g>
                      <g id="Grupo_1007967" data-name="Grupo 1007967" transform="translate(5.642 14.069)">
                        <path id="Trazado_722167" data-name="Trazado 722167" d="M535.574,2771.5s-.43.368-1.027-.373-3.18-5.188-4.8-8.191-3.322-10.888-.735-13.17c0,0,.49-3.457,1.778-3.754,0,0,1.082-1.561,2.259-1.7,0,0,1.534-2.026,3.278-2.078a5.363,5.363,0,0,1,3.424-.219,5.6,5.6,0,0,1,4.016.4,7.725,7.725,0,0,1,3.5.162c1.565.549,4.518,4.17,5.545,6.521s.463,2.722.233,2.881a10.781,10.781,0,0,1-4.122-.567s-.859,1.254-3.533.432a3.925,3.925,0,0,1-3.907,1.278,4.071,4.071,0,0,0-.274,1.73c0,1.214.244,2.061-.215,3a5.857,5.857,0,0,0-.786,2.82c.02,1.065-.181,2.466-.525,2.689s-1.674.286-2.125.781a7.665,7.665,0,0,0-.874,3.475A11.819,11.819,0,0,1,535.574,2771.5Z" transform="translate(-527.679 -2741.802)" fill="#1a2a4f"/>
                        <path id="Trazado_722168" data-name="Trazado 722168" d="M537.311,2807.7a23.073,23.073,0,0,0,1.892,10.875,23.881,23.881,0,0,0,2.707,4.848c1.026,1.534,2.149,2.532,2.587,4.368-.937-2.663-3.057-4.079-4.356-6.559A21.413,21.413,0,0,1,537.311,2807.7Z" transform="translate(-535.979 -2799.731)" fill="#142347"/>
                        <path id="Trazado_722169" data-name="Trazado 722169" d="M553.393,2776.647c.277,4.46.394,9.1,2.625,13.1,1.18,2.422,2.731,4.745,3.338,7.4-.95-3.03-2.922-5.6-4.221-8.479C553.374,2784.93,553.384,2780.7,553.393,2776.647Z" transform="translate(-550.283 -2772.434)" fill="#142347"/>
                        <path id="Trazado_722170" data-name="Trazado 722170" d="M566.142,2762.55a18.119,18.119,0,0,0,.729,11.175c1.3,2.85,3.414,5.461,3.782,8.657-.6-3.15-2.773-5.673-4.084-8.532A16.385,16.385,0,0,1,566.142,2762.55Z" transform="translate(-560.772 -2760.041)" fill="#142347"/>
                        <path id="Trazado_722171" data-name="Trazado 722171" d="M576.911,2782.023c-.2-.811-.375-1.688-.519-2.506a14.645,14.645,0,0,0-.7-3.712c-.417-.975-1.108-1.811-1.611-2.741a20.1,20.1,0,0,1-2.4-10.514,22.859,22.859,0,0,0,3.686,11.986,6.789,6.789,0,0,1,1.069,3.693C576.516,2779.5,576.718,2780.762,576.911,2782.023Z" transform="translate(-566.308 -2760.041)" fill="#142347"/>
                        <path id="Trazado_722172" data-name="Trazado 722172" d="M582.489,2774.548a4.2,4.2,0,0,1-.789-2.069,15.816,15.816,0,0,0-.967-3.718c-.707-1.478-1.805-2.8-2.6-4.233-.19-.338-.675-1.112-.823-1.465a3.444,3.444,0,0,1-.206-1.685,4.042,4.042,0,0,0-1.285-2.919c1.324.871,1.5,2.554,1.57,3.994a8.234,8.234,0,0,0,1.015,1.914c1,1.754,2.465,3.349,2.973,5.344C581.919,2771.291,581.609,2773.089,582.489,2774.548Z" transform="translate(-569.995 -2756.444)" fill="#142347"/>
                        <path id="Trazado_722173" data-name="Trazado 722173" d="M587.915,2763.7c-.93-3.062-3.244-2.256-3.513-3.974a12.336,12.336,0,0,0-1.85-4.342,7.642,7.642,0,0,0-2.057-1.551,6.439,6.439,0,0,1,2.232,1.4,10.732,10.732,0,0,1,1.995,4.45C584.978,2761.173,587.306,2760.545,587.915,2763.7Z" transform="translate(-574.11 -2752.376)" fill="#142347"/>
                        <path id="Trazado_722174" data-name="Trazado 722174" d="M599.2,2745.365c1.713.547,2.157,2.507,3.567,3.461a7.9,7.9,0,0,1,3,4.066c.285,1.038,1.216,1.993.979,3.163a3.987,3.987,0,0,0-.875-2.3,9.718,9.718,0,0,0-3.307-4.688C601.157,2748.076,600.817,2746.106,599.2,2745.365Z" transform="translate(-590.552 -2744.934)" fill="#142347"/>
                        <path id="Trazado_722175" data-name="Trazado 722175" d="M633.16,2753.382c-.036-2.3-1.848-3.868-2.8-5.8-.66-1.5-1.285-3.243-2.838-4.032,1.687.582,2.453,2.391,3.138,3.9C631.628,2749.344,633.428,2751.067,633.16,2753.382Z" transform="translate(-615.448 -2743.339)" fill="#142347"/>
                        <path id="Trazado_722176" data-name="Trazado 722176" d="M660.733,2746.893c.473,1.544,1.8,1.7,2.74,2.8a4.986,4.986,0,0,1,1.276,2.4c.4,1.246,1.279,2.408,1.142,3.8a36.267,36.267,0,0,0-2.653-5.983C662.314,2748.764,661.006,2748.545,660.733,2746.893Z" transform="translate(-644.646 -2746.277)" fill="#142347"/>
                        <path id="Trazado_722177" data-name="Trazado 722177" d="M668.273,2745.806c1.552,1.414,3.712,1.954,5.015,3.686a5.389,5.389,0,0,1,1.238,3.688,20.245,20.245,0,0,1,.416,2.277c-.059-.794-.54-1.465-.628-2.254a5.953,5.953,0,0,0-2.358-4.578C670.818,2747.562,669.235,2747.068,668.273,2745.806Z" transform="translate(-651.274 -2745.322)" fill="#142347"/>
                      </g>
                    </g>
                    <g id="Grupo_1007970" data-name="Grupo 1007970" transform="translate(13.239 32.926)">
                      <g id="Grupo_1007969" data-name="Grupo 1007969">
                        <path id="Trazado_722178" data-name="Trazado 722178" d="M594.241,2900.5s-.474-2.914-2.485-2.724-1.341,3.813.32,5.985C592.927,2904.876,595.041,2903.321,594.241,2900.5Z" transform="translate(-590.515 -2897.77)" fill="#9e5959"/>
                        <path id="Trazado_722179" data-name="Trazado 722179" d="M598.422,2905.936c.133-.549,2.148.279,2.016,2.828-.159.2-.508-.118-.683.035-.2.122.26.789-.064.9-.457.124-.652-1.485.273-1.338a.8.8,0,0,0-.805-.469c-.582-.108-.036-.766.792-.161C599.476,2905.947,598.5,2906.424,598.422,2905.936Z" transform="translate(-597.466 -2904.806)" fill="#723333"/>
                      </g>
                    </g>
                  </g>
                </g>
                <g id="Grupo_1007973" data-name="Grupo 1007973" transform="translate(0.828 49.709)">
                  <path id="Trazado_722180" data-name="Trazado 722180" d="M500.344,3036.577l-.019.551s6.035,6.379,12.024,4.5c.872-.3,1.359-1.912.326-4.528,0,0,1.188.03,2.152.168a8.211,8.211,0,0,1,3.006,1.147,46.894,46.894,0,0,1,2,6.494s.849,4.245,1.721,8.559,1.882,7.894,1.79,9.867a5.5,5.5,0,0,1-3.35,5.094s.092,5.186,0,7.71.459,6.15-.5,6.884c0,0-20.056,2.754-27.491-1.469,0,0-.78-.872-.918-3.9s-.459-11.933-1.1-17.165-2.839-15.614-1.875-19.331,4.8-3.429,6.864-3.776C497.112,3037.02,500.344,3036.577,500.344,3036.577Z" transform="translate(-487.86 -3036.577)" fill="#edd8cc"/>
                  <path id="Trazado_722181" data-name="Trazado 722181" d="M528.638,3099.794a7.451,7.451,0,0,0-.025-.939,72.8,72.8,0,0,0-7.9,2.04c-1.942.822-5.975,2.689-5.975,2.689l-4.569-9.271,1.792-.9s-5.288-12.891-8.723-14.534c-2.166-1.036-7.064-2.16-9.35,3.756a137.593,137.593,0,0,0,1.387,14.311c.269,2.187.481,5.015.647,7.788a8.036,8.036,0,0,0,2.533-.779s5.378,13.519,7.17,15.834a4.31,4.31,0,0,0,.309.355,70.867,70.867,0,0,0,7.974.183c2.564-1.177,8.45-4.175,11.4-5.687-.024-.708-.041-1.411-.018-2.044.092-2.524,0-7.71,0-7.71A5.5,5.5,0,0,0,528.638,3099.794Z" transform="translate(-493.157 -3073.038)" fill="#e6c1ac"/>
                  <path id="Trazado_722182" data-name="Trazado 722182" d="M673.577,3165.461a25,25,0,0,1,1.927,7.343s-5.691,2.02-9.546,2.111c0,0-2.019-5.6-1.744-8.445C664.214,3166.47,670.639,3164.727,673.577,3165.461Z" transform="translate(-642.869 -3149.719)" fill="#edcfbe"/>
                </g>
              </g>
            </g>
          </g>
          <g id="Grupo_1008023" data-name="Grupo 1008023" transform="translate(110.419 2.257)">
            <g id="Grupo_1007998" data-name="Grupo 1007998" transform="translate(32.065 71.175)">
              <g id="Grupo_1007987" data-name="Grupo 1007987" transform="translate(0 25.323)">
                <g id="Grupo_1007978" data-name="Grupo 1007978" transform="translate(8.829)">
                  <path id="Trazado_722183" data-name="Trazado 722183" d="M1708.82,3449.917s-10.8-.494-11.646,13.053,1.8,57.345,3.528,62.263,12.526,5.412,14.969-4.555,6.567-40.907,6.821-53.589C1722.762,3453.6,1717.167,3450.1,1708.82,3449.917Z" transform="translate(-1696.179 -3448.985)" fill="#f6af9a"/>
                  <g id="Grupo_1007977" data-name="Grupo 1007977">
                    <path id="Trazado_722184" data-name="Trazado 722184" d="M1705.716,3442.343s11.474.735,11.29,15.512-2.57,34.237-4.222,44.426a88.511,88.511,0,0,1-1.836,9.638s1.377,1.377.643,2.294-3.855,10.1-11.657,8.536-7.16-7.8-7.71-12.575-2.111-37.174-2.111-47.822S1692.5,3440.966,1705.716,3442.343Z" transform="translate(-1690.112 -3442.223)" fill="#564756"/>
                    <path id="Trazado_722185" data-name="Trazado 722185" d="M1722.794,3540.559c.612-3,3.06-10.586,3.06-10.586a43.552,43.552,0,0,1,13.419,2.042,24.951,24.951,0,0,1,.135,2.976c-.184,14.778-2.57,34.237-4.222,44.426a88.5,88.5,0,0,1-1.836,9.638s1.377,1.377.643,2.295c-.641.8-3.1,7.9-8.912,8.65a59.673,59.673,0,0,1-1.675-10.975c-.551-6-1.652-29.862-2.2-33.166s-1.713-7.894-2.754-11.994c-.911-3.59-2.479-10.277-2.854-11.884C1716.536,3535.453,1722.2,3543.454,1722.794,3540.559Z" transform="translate(-1712.514 -3519.358)" fill="#4d3f4d"/>
                  </g>
                </g>
                <g id="Grupo_1007986" data-name="Grupo 1007986" transform="translate(0 63.691)">
                  <g id="Grupo_1007984" data-name="Grupo 1007984" transform="translate(0 0.902)">
                    <g id="Grupo_1007983" data-name="Grupo 1007983" transform="translate(0 56.991)">
                      <g id="Grupo_1007979" data-name="Grupo 1007979" transform="translate(0.1 14.902)">
                        <path id="Trazado_722186" data-name="Trazado 722186" d="M1644.282,4571.169a9.357,9.357,0,0,1,1.455-.107c.435.041.568.48.7,1.064a2.254,2.254,0,0,1-.1,1.74c-.332.485-3.931,1.436-7.3,1.493a72.376,72.376,0,0,0-9.258.744c-4.575.547-10.152-.617-11-1.452a2.525,2.525,0,0,1-.808-2.4Z" transform="translate(-1617.912 -4571.056)" fill="#9e5959"/>
                        <path id="Trazado_722187" data-name="Trazado 722187" d="M1810.287,4571.063a9.355,9.355,0,0,0-1.455.107l-2.883.118a4.514,4.514,0,0,0-.687,2.672,2.591,2.591,0,0,1-.169,1.319c2.859-.25,5.505-1,5.788-1.412a2.254,2.254,0,0,0,.1-1.74C1810.855,4571.542,1810.722,4571.1,1810.287,4571.063Z" transform="translate(-1782.461 -4571.056)" fill="#914d4d"/>
                      </g>
                      <path id="Trazado_722188" data-name="Trazado 722188" d="M1634.77,4451.869s.384,4.193-3.255,4.958-12.842,2.89-14.137,4.7,1.963,3.5,5.129,4.012,10.3-.778,15.112-.73,6.19-.667,6.655-1.928c.813-2.206-1.947-6.018-1.634-9.647C1643.151,4447.281,1635,4445.384,1634.77,4451.869Z" transform="translate(-1617.086 -4447.808)" fill="#f6af9a"/>
                      <g id="Grupo_1007982" data-name="Grupo 1007982" transform="translate(0.056 8.505)">
                        <path id="Trazado_722189" data-name="Trazado 722189" d="M1762.173,4524.522a.507.507,0,0,1,.528-.1.98.98,0,0,1,.51.438c.277.5.454,1.523-.019,1.83s-5.918,4.085-9.849,4.446l-.336-1.578s6.945-3.39,7.981-4.118A12.391,12.391,0,0,0,1762.173,4524.522Z" transform="translate(-1736.628 -4523.637)" fill="#9e5959"/>
                        <g id="Grupo_1007981" data-name="Grupo 1007981">
                          <path id="Trazado_722190" data-name="Trazado 722190" d="M1635.473,4527.054a8.538,8.538,0,0,1-.6-1.556,11.74,11.74,0,0,0-1.719-4.2c-1.014-1.218-2.189-2.9-2.881-3.126s-3.351,1.48-4.67,1.939-6.328,2.012-7.214,2.541-.952,1.95-.75,3.088,3.433,2.008,4.737,2.159a68.759,68.759,0,0,0,9.361-.247C1633.809,4527.358,1635.473,4527.054,1635.473,4527.054Z" transform="translate(-1617.546 -4518.152)" fill="#9e5959"/>
                          <g id="Grupo_1007980" data-name="Grupo 1007980" transform="translate(1.247 0.59)">
                            <path id="Trazado_722191" data-name="Trazado 722191" d="M1725.247,4558.719a.581.581,0,1,0,.6-.565A.58.58,0,0,0,1725.247,4558.719Z" transform="translate(-1713.472 -4553.906)" fill="#914d4d"/>
                            <path id="Trazado_722192" data-name="Trazado 722192" d="M1712.313,4538.916a.581.581,0,1,0,.6-.565A.581.581,0,0,0,1712.313,4538.916Z" transform="translate(-1702.102 -4536.498)" fill="#914d4d"/>
                            <path id="Trazado_722193" data-name="Trazado 722193" d="M1692.958,4571.323a.581.581,0,1,0,.6-.565A.58.58,0,0,0,1692.958,4571.323Z" transform="translate(-1685.087 -4564.986)" fill="#914d4d"/>
                            <path id="Trazado_722194" data-name="Trazado 722194" d="M1682.179,4551.817a.581.581,0,1,0,.6-.565A.581.581,0,0,0,1682.179,4551.817Z" transform="translate(-1675.611 -4547.839)" fill="#914d4d"/>
                            <path id="Trazado_722195" data-name="Trazado 722195" d="M1661.833,4576.269a.581.581,0,1,0,.6-.565A.581.581,0,0,0,1661.833,4576.269Z" transform="translate(-1657.724 -4569.335)" fill="#914d4d"/>
                            <path id="Trazado_722196" data-name="Trazado 722196" d="M1651.686,4560.143a.581.581,0,1,0,.6-.565A.581.581,0,0,0,1651.686,4560.143Z" transform="translate(-1648.804 -4555.158)" fill="#914d4d"/>
                            <path id="Trazado_722197" data-name="Trazado 722197" d="M1627.858,4561.677a.581.581,0,1,0,.6-.565A.581.581,0,0,0,1627.858,4561.677Z" transform="translate(-1627.858 -4556.507)" fill="#914d4d"/>
                            <path id="Trazado_722198" data-name="Trazado 722198" d="M1646.779,4544.616a.581.581,0,0,1-.528-.376c.358-.123.729-.248,1.1-.371a.58.58,0,0,1-.571.747Z" transform="translate(-1644.027 -4541.35)" fill="#914d4d"/>
                            <path id="Trazado_722199" data-name="Trazado 722199" d="M1674.686,4535.446a.581.581,0,1,1-1.161-.03c.408-.136.764-.252,1.036-.345A.578.578,0,0,1,1674.686,4535.446Z" transform="translate(-1668.003 -4533.615)" fill="#914d4d"/>
                            <path id="Trazado_722200" data-name="Trazado 722200" d="M1700.023,4523.968a.581.581,0,0,1-.545-.43c.342-.174.688-.35,1.018-.509a.581.581,0,0,1-.472.939Z" transform="translate(-1690.819 -4523.029)" fill="#914d4d"/>
                          </g>
                        </g>
                        <path id="Trazado_722201" data-name="Trazado 722201" d="M1651.085,4578.731a11.628,11.628,0,0,1-3.563-.516.251.251,0,0,1,.154-.478c3.664,1.179,7.942-.056,10-.65.461-.133.824-.238,1.078-.289a28.372,28.372,0,0,1,4.27-.272c.908-.021,1.938-.046,3.071-.092,3.348-.137,4.748-1.108,4.761-1.118a.251.251,0,0,1,.291.409c-.061.043-1.537,1.067-5.032,1.21-1.137.046-2.169.071-3.08.092a28.732,28.732,0,0,0-4.182.263c-.234.047-.589.149-1.038.279A24.479,24.479,0,0,1,1651.085,4578.731Z" transform="translate(-1643.745 -4568.364)" fill="#914d4d"/>
                      </g>
                    </g>
                    <path id="Trazado_722202" data-name="Trazado 722202" d="M1722.152,3984.8s4.515,52.8,5.431,56.057,5.817,4.844,7.236-.824,3.426-24.686,4.331-31.178c1.891-13.567.655-22.1-1.091-26.543C1735.93,3976.9,1722.374,3971.393,1722.152,3984.8Z" transform="translate(-1709.449 -3976.453)" fill="#f6af9a"/>
                  </g>
                  <g id="Grupo_1007985" data-name="Grupo 1007985" transform="translate(11.558)">
                    <path id="Trazado_722203" data-name="Trazado 722203" d="M1722.753,3969.077a11.135,11.135,0,0,1,8.536,7.986c1.359,5.225.337,27.348-.234,37.7-.181,3.288-1.012,15.26-1.012,15.26s-6.224,2.863-12.1.473c0,0-4.829-45.59-5.242-52.061S1716.971,3968.389,1722.753,3969.077Z" transform="translate(-1712.677 -3968.993)" fill="#564756"/>
                    <path id="Trazado_722204" data-name="Trazado 722204" d="M1777.154,3974.968c-.118-1.284-.261-3.388-.419-5.933a11.377,11.377,0,0,1,2.331.044,11.135,11.135,0,0,1,8.536,7.985c1.3,4.984.427,25.334-.152,36.192-1.809-5.275-5.306-15.6-7.115-21.827C1777.827,3982.8,1777.7,3980.965,1777.154,3974.968Z" transform="translate(-1768.99 -3968.994)" fill="#4d3f4d"/>
                  </g>
                </g>
              </g>
              <g id="Grupo_1007989" data-name="Grupo 1007989" transform="translate(9.38)">
                <path id="Trazado_722205" data-name="Trazado 722205" d="M1695.782,3249.7s.355,7.338.472,11.733-1.014,15.059,10.538,21.785c10.417,6.064,20.8.64,22.862-2.19,3.158-4.333,3.624-10.617,2.413-17.053s-3.444-13.785-3.27-24.678C1728.968,3228.675,1694.53,3230.293,1695.782,3249.7Z" transform="translate(-1695.618 -3232.782)" fill="#f6af9a"/>
                <g id="Grupo_1007988" data-name="Grupo 1007988" transform="translate(0 17.519)">
                  <path id="Trazado_722206" data-name="Trazado 722206" d="M1733.035,3400.743a76.308,76.308,0,0,0-1.163-10.892c-.979-4.773-3.06-12.177-3.06-12.177s-24.783,2.692-34.145,1.53c0,0,0,14.625.184,17.624s4.834,11.382,9.607,13.585,9.913,4.773,15.971,3.121S1731.933,3407.841,1733.035,3400.743Z" transform="translate(-1694.667 -3377.673)" fill="#564756"/>
                  <path id="Trazado_722207" data-name="Trazado 722207" d="M1722.794,3540.559a45.276,45.276,0,0,1,3.06-10.586s16.68-.526,24.179,9.059c-2.233,4.416-6.538,7.107-11.207,8.381-6.058,1.652-11.2-.918-15.971-3.121a16.02,16.02,0,0,1-5.548-5.081,56.823,56.823,0,0,1-1.713-7.231C1716.536,3535.453,1722.308,3543.474,1722.794,3540.559Z" transform="translate(-1713.065 -3511.554)" fill="#4d3f4d"/>
                </g>
              </g>
              <g id="Grupo_1007997" data-name="Grupo 1007997" transform="translate(20.686 26.407)">
                <g id="Grupo_1007990" data-name="Grupo 1007990">
                  <path id="Trazado_722208" data-name="Trazado 722208" d="M1808.494,3464.814s-10.813-.128-11.2,13.441,3.746,57.251,5.635,62.108,12.7,4.984,14.806-5.06,5.177-41.106,5-53.789C1822.552,3468.022,1816.841,3464.712,1808.494,3464.814Z" transform="translate(-1796.172 -3463.165)" fill="#f6af9a"/>
                  <path id="Trazado_722209" data-name="Trazado 722209" d="M1804.5,3451.326s9.913,1.193,10.739,14.044-3.4,52.962-3.4,52.962,2.019,1.285.551,2.662c0,0-2.845,12.3-11.657,11.565s-8.812-11.29-9.362-22.213-2.57-26.8-3.029-34.421S1787.147,3449.4,1804.5,3451.326Z" transform="translate(-1788.173 -3451.189)" fill="#564756"/>
                </g>
                <g id="Grupo_1007996" data-name="Grupo 1007996" transform="translate(3.525 63.44)">
                  <g id="Grupo_1007995" data-name="Grupo 1007995" transform="translate(0 2.331)">
                    <path id="Trazado_722210" data-name="Trazado 722210" d="M1839.179,4004.737s14.576,50.944,16.1,53.969,6.64,3.636,6.943-2.2-1.382-24.885-1.741-31.429c-.751-13.678-3.6-21.816-6.171-25.839C1851.182,3994.333,1836.821,3991.539,1839.179,4004.737Z" transform="translate(-1836.309 -3995.16)" fill="#f6af9a"/>
                    <g id="Grupo_1007994" data-name="Grupo 1007994" transform="translate(0 56.343)">
                      <path id="Trazado_722211" data-name="Trazado 722211" d="M1845.81,4587.136a9.846,9.846,0,0,1,1.53-.153c.459.031.612.49.765,1.1a2.373,2.373,0,0,1-.061,1.835c-.336.521-4.1,1.622-7.649,1.775a76.337,76.337,0,0,0-9.729,1.04c-4.8.7-10.709-.367-11.627-1.224a2.66,2.66,0,0,1-.918-2.509Z" transform="translate(-1817.99 -4571.766)" fill="#9e5959"/>
                      <path id="Trazado_722212" data-name="Trazado 722212" d="M1844.877,4465.536s.773,4.139-2.779,5.24-12.516,4.075-13.638,6,2.281,3.3,5.481,3.516,9.726-1.244,14.524-1.646,6.584-1.218,6.929-2.516c.6-2.272-2.529-6.324-2.556-9.967C1852.794,4460.187,1844.5,4459.058,1844.877,4465.536Z" transform="translate(-1826.923 -4461.156)" fill="#f6af9a"/>
                      <g id="Grupo_1007993" data-name="Grupo 1007993" transform="translate(0 8.897)">
                        <path id="Trazado_722213" data-name="Trazado 722213" d="M1969.379,4538.4a.534.534,0,0,1,.553-.115,1.03,1.03,0,0,1,.55.447c.306.52.52,1.591.031,1.927s-6.119,4.467-10.25,4.957l-.4-1.652s7.221-3.764,8.292-4.559A13.087,13.087,0,0,0,1969.379,4538.4Z" transform="translate(-1942.631 -4537.83)" fill="#9e5959"/>
                        <g id="Grupo_1007992" data-name="Grupo 1007992">
                          <path id="Trazado_722214" data-name="Trazado 722214" d="M1836.278,4543.965a9,9,0,0,1-.673-1.622,12.366,12.366,0,0,0-1.927-4.375c-1.1-1.254-2.386-3-3.121-3.212s-3.488,1.652-4.865,2.172-6.609,2.294-7.527,2.876-.948,2.081-.7,3.274,3.672,2.019,5.048,2.142a72.292,72.292,0,0,0,9.852-.521C1834.534,4544.333,1836.278,4543.965,1836.278,4543.965Z" transform="translate(-1817.331 -4534.739)" fill="#9e5959"/>
                          <path id="Trazado_722215" data-name="Trazado 722215" d="M1852.989,4595.734a11.955,11.955,0,0,1-3.365-.45.264.264,0,1,1,.149-.507c3.891,1.14,8.362-.28,10.511-.962.481-.153.862-.274,1.128-.334a29.883,29.883,0,0,1,4.489-.405c.956-.048,2.04-.1,3.232-.182,3.5-.235,4.97-1.3,4.984-1.31a.265.265,0,0,1,.317.423c-.063.047-1.589,1.167-5.266,1.414-1.2.081-2.283.135-3.241.183a30.285,30.285,0,0,0-4.4.393c-.245.056-.616.174-1.086.323A25.013,25.013,0,0,1,1852.989,4595.734Z" transform="translate(-1845.552 -4584.664)" fill="#914d4d"/>
                          <g id="Grupo_1007991" data-name="Grupo 1007991" transform="translate(1.293 0.667)">
                            <path id="Trazado_722216" data-name="Trazado 722216" d="M1930.511,4577.245a.612.612,0,1,0,.612-.612A.612.612,0,0,0,1930.511,4577.245Z" transform="translate(-1918.12 -4572.235)" fill="#914d4d"/>
                            <path id="Trazado_722217" data-name="Trazado 722217" d="M1896.855,4591.416a.612.612,0,1,0,.612-.612A.612.612,0,0,0,1896.855,4591.416Z" transform="translate(-1888.533 -4584.692)" fill="#914d4d"/>
                            <path id="Trazado_722218" data-name="Trazado 722218" d="M1884.962,4571.172a.612.612,0,1,0,.612-.612A.612.612,0,0,0,1884.962,4571.172Z" transform="translate(-1878.078 -4566.896)" fill="#914d4d"/>
                            <circle id="Elipse_8676" data-name="Elipse 8676" cx="0.612" cy="0.612" r="0.612" transform="translate(4.375 6.846)" fill="#914d4d"/>
                            <path id="Trazado_722219" data-name="Trazado 722219" d="M1853.078,4580.788a.612.612,0,1,0,.612-.612A.611.611,0,0,0,1853.078,4580.788Z" transform="translate(-1850.049 -4575.349)" fill="#914d4d"/>
                            <path id="Trazado_722220" data-name="Trazado 722220" d="M1916.341,4556.748a.612.612,0,1,0,.612-.612A.612.612,0,0,0,1916.341,4556.748Z" transform="translate(-1905.663 -4554.216)" fill="#914d4d"/>
                            <path id="Trazado_722221" data-name="Trazado 722221" d="M1828.025,4583.065a.612.612,0,1,0,.612-.612A.612.612,0,0,0,1828.025,4583.065Z" transform="translate(-1828.025 -4577.351)" fill="#914d4d"/>
                            <path id="Trazado_722222" data-name="Trazado 722222" d="M1847.439,4564.468a.611.611,0,0,1-.567-.382c.373-.139.761-.281,1.148-.421a.612.612,0,0,1-.581.8Z" transform="translate(-1844.593 -4560.835)" fill="#914d4d"/>
                            <path id="Trazado_722223" data-name="Trazado 722223" d="M1876.57,4554.049a.612.612,0,0,1-1.224,0c.426-.154.8-.287,1.082-.392A.61.61,0,0,1,1876.57,4554.049Z" transform="translate(-1869.624 -4552.037)" fill="#914d4d"/>
                            <path id="Trazado_722224" data-name="Trazado 722224" d="M1902.968,4541.259a.612.612,0,0,1-.586-.437c.356-.193.715-.388,1.058-.565a.612.612,0,0,1-.471,1Z" transform="translate(-1893.392 -4540.257)" fill="#914d4d"/>
                          </g>
                        </g>
                      </g>
                    </g>
                  </g>
                  <path id="Trazado_722225" data-name="Trazado 722225" d="M1847.054,3982.065s3.488,7.251,4.589,21.295,2.244,33.137,2.244,33.137-3.218,3.606-11.2,2.689c0,0-13.345-45.1-14.447-51.888s2.2-11.2,6.15-11.382S1844.667,3976.19,1847.054,3982.065Z" transform="translate(-1826.73 -3975.884)" fill="#564756"/>
                </g>
              </g>
            </g>
            <g id="Grupo_1008022" data-name="Grupo 1008022">
              <g id="Grupo_1008002" data-name="Grupo 1008002" transform="translate(0 43.767)">
                <g id="Grupo_1008000" data-name="Grupo 1008000" transform="translate(29.544)">
                  <path id="Trazado_722226" data-name="Trazado 722226" d="M1617.794,3010.86s-7.671-2.233-10.969,7.621-5.274,27.465-5.718,33.19,6.464,7.185,9.439,2.231,8.508-25.666,9.7-30.725S1621.661,3012.715,1617.794,3010.86Z" transform="translate(-1600.5 -3010.093)" fill="#ea9a88"/>
                  <g id="Grupo_1007999" data-name="Grupo 1007999">
                    <path id="Trazado_722227" data-name="Trazado 722227" d="M1613.7,3006.334a8.12,8.12,0,0,1,3.469,7.567c-.532,5.1-5.715,25.625-5.715,25.625s-11.964-1.8-15.225-4.475c0,0,4.333-17.776,5.769-21.4S1607.558,3004.922,1613.7,3006.334Z" transform="translate(-1596.23 -3006.094)" fill="#dbc8c8"/>
                    <path id="Trazado_722228" data-name="Trazado 722228" d="M1649.835,3036.394a88.5,88.5,0,0,0-1.195,10.9c-.16,3.993-.509,10.034-.7,13.175a89.742,89.742,0,0,0,8.972,1.885s5.183-20.53,5.715-25.625a7.953,7.953,0,0,0-.882-4.667A65.262,65.262,0,0,0,1649.835,3036.394Z" transform="translate(-1641.69 -3028.925)" fill="#cfb4b4"/>
                  </g>
                </g>
                <g id="Grupo_1008001" data-name="Grupo 1008001" transform="translate(0 36.309)">
                  <path id="Trazado_722229" data-name="Trazado 722229" d="M1431.088,3333.736c3.342-4.316,8.359-11.338,10.67-14.608,3.76-5.323,6.465-10.434,9.5-12.258,2.123-1.276,5.878.1,7.241,3.178a5.633,5.633,0,0,1-1.076,6.1c-4.161,4.46-18.017,19.161-22.8,22.356C1428.968,3342.285,1427.746,3338.052,1431.088,3333.736Z" transform="translate(-1419.892 -3306.395)" fill="#f6af9a"/>
                  <path id="Trazado_722230" data-name="Trazado 722230" d="M1540.061,3306.87c-3.033,1.823-5.737,6.934-9.5,12.258l-.3.421c3.251-.714,10.7-2.37,16.268-3.756a5.616,5.616,0,0,0,.768-5.745C1545.939,3306.97,1542.184,3305.593,1540.061,3306.87Z" transform="translate(-1508.698 -3306.395)" fill="#ea9a88"/>
                  <path id="Trazado_722231" data-name="Trazado 722231" d="M1354.82,3552.616s-2.459.927-2.775.94-.087-.565-.04-.947,2.443-2.792,3.617-4.2,5.661-6.692,7.244-6.665,2.978,1.613,2.24,2.846-6.323,5.993-7.642,6.966A5.529,5.529,0,0,1,1354.82,3552.616Z" transform="translate(-1351.882 -3513.287)" fill="#ea9a88"/>
                </g>
              </g>
              <g id="Grupo_1008021" data-name="Grupo 1008021" transform="translate(34.308)">
                <g id="Grupo_1008006" data-name="Grupo 1008006" transform="translate(2.907 26.192)">
                  <g id="Grupo_1008004" data-name="Grupo 1008004" transform="translate(0.181)">
                    <path id="Trazado_722232" data-name="Trazado 722232" d="M1685.442,2964.631c-6.259-.183-11.025,1.33-16.552,3.812-3.7,1.66-5.129,2.446-6.411,5.419-2.4,5.565-1.069,11.047.589,21.67.825,5.287,1.458,12.953,2.459,18.109.548,2.823,14.857,4.406,22.335,2.2,5.734-1.689,10.471-3.3,10.493-8.767.026-6.449.966-15.312.412-21.128-.868-9.113,1.025-18.173-8.3-20.8A19.792,19.792,0,0,0,1685.442,2964.631Z" transform="translate(-1661.171 -2952.057)" fill="#f6af9a"/>
                    <g id="Grupo_1008003" data-name="Grupo 1008003" transform="translate(8.851)">
                      <path id="Trazado_722233" data-name="Trazado 722233" d="M1734.555,2869.479s.986,5.685.081,8.478,3.655,3.823,6.469,3.409,6.923-2.588,6.96-6.052-1.862-1.894-2.744-11.174C1744.631,2856.882,1732.786,2862.478,1734.555,2869.479Z" transform="translate(-1734.375 -2860.743)" fill="#f6af9a"/>
                      <path id="Trazado_722234" data-name="Trazado 722234" d="M1734.885,2876.841a29.307,29.307,0,0,0-.33-7.355c-1.4-5.56,5.775-10.232,9.136-8.286a15.78,15.78,0,0,1,.535,2.71C1744.287,2864.443,1740.5,2875.136,1734.885,2876.841Z" transform="translate(-1734.375 -2860.75)" fill="#ea9a88"/>
                    </g>
                  </g>
                  <g id="Grupo_1008005" data-name="Grupo 1008005" transform="translate(0 12.082)">
                    <path id="Trazado_722235" data-name="Trazado 722235" d="M1681.909,2960.816s-6.47,7.165-11.029,6.186c-.948-.306-1.487-1.578-1.609-2.771a37.623,37.623,0,0,0-4.327,1.7,9.74,9.74,0,0,0-4.666,6.318,28.189,28.189,0,0,0-.161,10.716c.344,2.846,1.522,12.766,2.134,16.193.531,2.976.411,25.878.37,30.5a1.143,1.143,0,0,0,1.1,1.152c4.379.182,22.254.591,38.531-2.765a.651.651,0,0,0,.508-.749c-.493-2.831-3.7-19.6-3.911-21.957-.245-2.692-.49-18.052-.612-23.865s.367-14.594-4.314-17.623a21.744,21.744,0,0,0-7.9-3.1A18.1,18.1,0,0,0,1681.909,2960.816Z" transform="translate(-1659.674 -2960.671)" fill="#dbc8c8"/>
                    <path id="Trazado_722236" data-name="Trazado 722236" d="M1716.369,3028.974c-.245-2.693-.49-18.052-.612-23.865-.109-5.162.265-12.663-2.928-16.4-5.359-1.895-10.685-2.063-16.188,4.3,0,0-3.212,7.842-4.481,11.8s-3.286,12.771-3.286,12.771l1.643.971-.523,2.241-10.386.986c.06.379.116.72.169,1.013a42.444,42.444,0,0,1,.263,4.413,60.3,60.3,0,0,0,9.307,6.8,7.8,7.8,0,0,0,5.1.862l.081-.014a8.692,8.692,0,0,0,5.783-3.752l4.321-6.5a9.285,9.285,0,0,0,5.452.224l1.493-5.728c.15,2.764-.237,16.2-.237,16.2s.947,9.965-3,12.966-25.95,4.548-28.2,4.951c0,.027,0,.053,0,.079a1.143,1.143,0,0,0,1.1,1.152c4.379.182,22.254.591,38.531-2.765a.651.651,0,0,0,.508-.749C1719.787,3048.1,1716.584,3031.335,1716.369,3028.974Z" transform="translate(-1677.198 -2984.307)" fill="#cfb4b4"/>
                    <path id="Trazado_722237" data-name="Trazado 722237" d="M1737.483,2967.986c-1.185-.226-2.015-1.25-1.9-3.276a2.373,2.373,0,0,1,.409-.137c.122,1.193.66,2.466,1.609,2.771,4.559.979,11.029-6.186,11.029-6.186s.339-.055.926-.1C1748.241,2962.825,1743.287,2968.823,1737.483,2967.986Z" transform="translate(-1726.399 -2961.014)" fill="#cfb4b4"/>
                  </g>
                </g>
                <g id="Grupo_1008020" data-name="Grupo 1008020">
                  <path id="Trazado_722238" data-name="Trazado 722238" d="M1635.838,2767.455a23.1,23.1,0,0,0,1,9.321l2.141-9.706Z" transform="translate(-1635.714 -2752.203)" fill="#8c4949"/>
                  <g id="Grupo_1008019" data-name="Grupo 1008019">
                    <g id="Grupo_1008014" data-name="Grupo 1008014" transform="translate(0.24 6.056)">
                      <path id="Trazado_722239" data-name="Trazado 722239" d="M1653.207,2694.352s-9.013,1.15-9.926,9.3.995,22.645,6.36,23.881c4.9,1.127,11.959-4.344,14.734-9.542,2.921-5.47,3.629-12.237,1.354-17.162C1663.738,2696.516,1660.3,2693.484,1653.207,2694.352Z" transform="translate(-1642.405 -2694.203)" fill="#f6af9a"/>
                      <path id="Trazado_722240" data-name="Trazado 722240" d="M1672.549,2801.984a25,25,0,0,0-.534,5.117c.13,1.905,1.844,4.365,1.29,6.5-.321,1.237-5.887,7.065-12.411,6.406-2.522-.27-4.269-5.389-4.65-8.266a9.865,9.865,0,0,1,2.1-1.187c1.294-.456,1.824-.9,5.568.026,1.987.49,5.069,1.181,5.947.016s.679-9.728,1.186-11.88S1672.66,2800.909,1672.549,2801.984Z" transform="translate(-1653.993 -2785.562)" fill="#8c4949"/>
                      <g id="Grupo_1008013" data-name="Grupo 1008013" transform="translate(0 14.347)">
                        <g id="Grupo_1008007" data-name="Grupo 1008007" transform="translate(2.584 2.919)">
                          <path id="Trazado_722241" data-name="Trazado 722241" d="M1715.437,2838.25c-.008.646.378,1.173.862,1.179s.883-.512.891-1.158-.378-1.173-.862-1.179S1715.445,2837.6,1715.437,2838.25Z" transform="translate(-1708.613 -2837.082)" fill="#121d3f"/>
                          <ellipse id="Elipse_8677" data-name="Elipse 8677" cx="1.169" cy="0.877" rx="1.169" ry="0.877" transform="translate(0 2.337) rotate(-89.289)" fill="#121d3f"/>
                        </g>
                        <g id="Grupo_1008009" data-name="Grupo 1008009" transform="translate(4.064 11.025)">
                          <path id="Trazado_722242" data-name="Trazado 722242" d="M1673.371,2904.065a13.18,13.18,0,0,1,2.613.131,6.106,6.106,0,0,1,2.227,1.1c.24.278-.36,1.572-1.487,1.942-1.813.6-2.156-.429-2.254-.656s-.441-.273-.518-.038-.023.93-.462.884c-1.014-.107-2.192-.924-2.257-1.876S1673.371,2904.065,1673.371,2904.065Z" transform="translate(-1671.232 -2904.05)" fill="#f6af9a"/>
                          <g id="Grupo_1008008" data-name="Grupo 1008008" transform="translate(0.708 0.645)">
                            <path id="Trazado_722243" data-name="Trazado 722243" d="M1678.992,2910.515a5.219,5.219,0,0,1-1.7-.271.3.3,0,0,1,.215-.57,4.826,4.826,0,0,0,1.869.217,5.472,5.472,0,0,0,2.176-.448.3.3,0,0,1,.422.072.308.308,0,0,1-.073.427,5.431,5.431,0,0,1-2.477.556C1679.273,2910.51,1679.13,2910.515,1678.992,2910.515Z" transform="translate(-1677.092 -2909.387)" fill="#e57e73"/>
                          </g>
                        </g>
                        <path id="Trazado_722244" data-name="Trazado 722244" d="M1682.608,2843.253c.218-.015.38-.036.423-.042a.309.309,0,0,0-.084-.612,3.928,3.928,0,0,1-1.5-.04l-.03-.014a2.625,2.625,0,0,1,.145-.581l.024-.076c1.178-3.791.719-4.911.7-4.975a.309.309,0,0,0-.6.136c.005.026.42,1.076-.692,4.655l-.023.075c-.185.595-.346,1.109.24,1.35A3.525,3.525,0,0,0,1682.608,2843.253Z" transform="translate(-1675.586 -2833.794)" fill="#e57e73"/>
                        <g id="Grupo_1008010" data-name="Grupo 1008010" transform="translate(7.848 0.015)">
                          <path id="Trazado_722245" data-name="Trazado 722245" d="M1703.042,2812.994s-.449-.083-.489.218-.048.974.135,1.078a21.9,21.9,0,0,0,3.315.941c.9.124,2.521.252,2.5-.094-.006-.126-.522-.2-1.514-.6C1706.15,2814.2,1704.208,2813.436,1703.042,2812.994Z" transform="translate(-1702.529 -2812.984)" fill="#8c4949"/>
                        </g>
                        <g id="Grupo_1008011" data-name="Grupo 1008011">
                          <path id="Trazado_722246" data-name="Trazado 722246" d="M1642.262,2812.883s.443-.112.5.185.111.969-.065,1.085a21.971,21.971,0,0,1-3.247,1.155c-.89.182-1.824.232-1.829-.115,0-.126.187-.22,1.151-.681C1639.593,2814.12,1641.127,2813.4,1642.262,2812.883Z" transform="translate(-1637.623 -2812.862)" fill="#8c4949"/>
                        </g>
                        <g id="Grupo_1008012" data-name="Grupo 1008012" transform="translate(1.204 6.413)">
                          <path id="Trazado_722247" data-name="Trazado 722247" d="M1711.317,2867.041s.391-1.03,2.832-1.126c1.984-.078,3.493.132,3.55,1.368C1717.927,2868.877,1710.421,2869.573,1711.317,2867.041Z" transform="translate(-1703.546 -2865.9)" fill="#ea9a88"/>
                          <path id="Trazado_722248" data-name="Trazado 722248" d="M1651.156,2871.225c-.078.781-1.749,1.107-3.054,1.291-.2-.924-.374-1.88-.517-2.852C1649.247,2869.665,1651.215,2869.871,1651.156,2871.225Z" transform="translate(-1647.585 -2869.209)" fill="#ea9a88"/>
                        </g>
                      </g>
                    </g>
                    <g id="Grupo_1008018" data-name="Grupo 1008018">
                      <g id="Grupo_1008016" data-name="Grupo 1008016">
                        <g id="Grupo_1008015" data-name="Grupo 1008015" transform="translate(14.618)">
                          <path id="Trazado_722249" data-name="Trazado 722249" d="M1756.535,2650.934a8.8,8.8,0,0,0,1.027-3.35c.371-2.4,2.745-4.25,4.73-3.144s5.18.59,5.948,2.436-2.17,5.093-4.8,6.288S1756.535,2650.934,1756.535,2650.934Z" transform="translate(-1756.535 -2644.112)" fill="#8c4949"/>
                          <path id="Trazado_722250" data-name="Trazado 722250" d="M1790.61,2695.488l-3.729-2.943c1.577-.141,4.581,1.37,5.4,1.8A10.507,10.507,0,0,1,1790.61,2695.488Z" transform="translate(-1783.212 -2686.681)" fill="#804242"/>
                          <path id="Trazado_722251" data-name="Trazado 722251" d="M1822.344,2667.45a1.078,1.078,0,0,0-.764-1.217c-.907-.215-1.861,1-2.148,1.909a15.48,15.48,0,0,1-.549,2.386l.358.239s.072-.334.787-.93S1821.962,2668.834,1822.344,2667.45Z" transform="translate(-1811.345 -2663.537)" fill="#804242"/>
                        </g>
                        <path id="Trazado_722252" data-name="Trazado 722252" d="M1653.166,2693.218a15.817,15.817,0,0,0-.419,3.563,8.114,8.114,0,0,0,1.606,5.192c1.538,1.869,1.22,2.006,1.781,4.143s3.01,7.264,3.067,7.687.751-.2,1.522-3.219a62.91,62.91,0,0,0,1.693-15c-.182-5.268-5.387-10.252-10.383-10.445,0,0-4.869-1.8-9.288.4s-7.572,5.3-7.055,10.024l.994-.034s.166-1.559.4-1.72a3.157,3.157,0,0,1,3.361-.377s4.164,2.007,6.215,1.63C1646.658,2695.053,1650.863,2695.069,1653.166,2693.218Z" transform="translate(-1635.634 -2679.563)" fill="#8c4949"/>
                      </g>
                      <g id="Grupo_1008017" data-name="Grupo 1008017" transform="translate(18.506 20.539)">
                        <path id="Trazado_722253" data-name="Trazado 722253" d="M1788.7,2818.439s-.27-4.241,2.256-4.442,2.756,3.348,1.282,5.762C1791.414,2821.11,1788.995,2822.906,1788.7,2818.439Z" transform="translate(-1788.692 -2813.988)" fill="#f6af9a"/>
                        <path id="Trazado_722254" data-name="Trazado 722254" d="M1801.153,2829.218a1.8,1.8,0,0,0-1.245.383,1.69,1.69,0,0,1,.927-1.117.255.255,0,0,0-.2-.469c-1.793.762-1.362,3.42-1.343,3.532a.255.255,0,0,0,.5-.085,4.989,4.989,0,0,1-.038-1.021c0-.005.01-.008.014-.013a1.767,1.767,0,0,1,1.327-.7.255.255,0,1,0,.055-.507Z" transform="translate(-1797.959 -2826.301)" fill="#e57e73"/>
                      </g>
                    </g>
                  </g>
                </g>
              </g>
            </g>
          </g>
          <g id="Grupo_1008049" data-name="Grupo 1008049" transform="translate(4.607 41.181)">
            <g id="Grupo_1008035" data-name="Grupo 1008035" transform="translate(43.07)">
              <g id="Grupo_1008027" data-name="Grupo 1008027" transform="translate(0 13.117)">
                <path id="Trazado_722255" data-name="Trazado 722255" d="M879.672,3083.438c-19.026-17.223-48.195-8.739-46.657,18.941,1.575,28.345,46.657,47.658,46.657,47.658s45.081-19.312,46.657-47.658C927.867,3074.7,898.7,3066.215,879.672,3083.438Z" transform="translate(-832.957 -3074.522)" fill="#e35f5d"/>
                <g id="Grupo_1008026" data-name="Grupo 1008026">
                  <g id="Grupo_1008024" data-name="Grupo 1008024">
                    <path id="Trazado_722256" data-name="Trazado 722256" d="M853.483,3211.193c-17.065-14.863-17.477-30.229-17.235-37.176a28.934,28.934,0,0,0-3.233,15.827c1.575,28.345,46.657,47.658,46.657,47.658s19.677-8.429,33.485-22.324C901.458,3221.21,876.5,3231.238,853.483,3211.193Z" transform="translate(-832.957 -3161.987)" fill="#d35454"/>
                    <path id="Trazado_722257" data-name="Trazado 722257" d="M1170.112,3174.017l-9.072,14.619,9.362,11.352-6.839,21.648,4.524,15.866-2.518-16.714,7.42-21.684-9.187-11.174Z" transform="translate(-1121.372 -3161.987)" fill="#ba3f3f"/>
                    <path id="Trazado_722258" data-name="Trazado 722258" d="M1238.042,3451.694l-5.363-4.8-8.633-5.961,7.449,7.585Z" transform="translate(-1176.76 -3396.627)" fill="#ba3f3f"/>
                    <path id="Trazado_722259" data-name="Trazado 722259" d="M1033.3,3205.123l1.767,13.828,7.223,5.125,13.571,14.048-12.823-15.049-6.029-5.293Z" transform="translate(-1009.074 -3189.332)" fill="#ba3f3f"/>
                    <path id="Trazado_722260" data-name="Trazado 722260" d="M1254.6,3083.349c12.743,8.455,7.63,27.838,3.838,37.89,4.227-5.659,7.161-11.995,7.542-18.86,1.538-27.679-27.63-36.164-46.656-18.941l2.025,3.114S1237,3071.672,1254.6,3083.349Z" transform="translate(-1172.609 -3074.522)" fill="#d35454"/>
                  </g>
                  <g id="Grupo_1008025" data-name="Grupo 1008025" transform="translate(22.907 4.171)">
                    <path id="Trazado_722261" data-name="Trazado 722261" d="M1257.342,3150.982s15.931-8.877,27.925,1.819c10.728,9.567,3.66,26.185,2.118,27.515-2.118,1.826-2.607.3-3.031-11.326C1283.657,3149.9,1251.309,3155.711,1257.342,3150.982Z" transform="translate(-1228.278 -3142.869)" fill="#f76b6b"/>
                    <path id="Trazado_722262" data-name="Trazado 722262" d="M1041.559,3115.943s-7.292-7.561-14.085-6.884-6.167,3.046-1.573,4.4S1045.853,3121.981,1041.559,3115.943Z" transform="translate(-1022.41 -3109.016)" fill="#f76b6b"/>
                  </g>
                </g>
              </g>
              <g id="Grupo_1008032" data-name="Grupo 1008032" transform="translate(18.301 37.809)">
                <path id="Trazado_722263" data-name="Trazado 722263" d="M1037.42,3295.692c-16.6,6.452-35.381,7.846-44.86,8.113a7.509,7.509,0,0,1-7.522-5.835l-.525-2.29a7.512,7.512,0,0,1,6.971-9.189c9.659-.444,25.546-2.015,40.111-7.3a7.5,7.5,0,0,1,9.828,5.409l.555,2.421A7.5,7.5,0,0,1,1037.42,3295.692Z" transform="translate(-984.32 -3278.744)" fill="#ffcf9f"/>
                <path id="Trazado_722264" data-name="Trazado 722264" d="M1143.2,3318.642l-2.783-13.838a4.75,4.75,0,0,0-.7-1.693,143.01,143.01,0,0,1-23.272,4.154,4.759,4.759,0,0,0-.01,1.934l2.77,13.77a4.774,4.774,0,0,0,.618,1.561,144.377,144.377,0,0,0,23.4-4.09A4.775,4.775,0,0,0,1143.2,3318.642Z" transform="translate(-1100.375 -3300.165)" fill="#ffc08a"/>
                <path id="Trazado_722265" data-name="Trazado 722265" d="M1133.672,3318.411c4.334-.558,8.948-1.3,13.674-2.284a4.353,4.353,0,0,0,3.363-5.123l-2.536-12.609a4.365,4.365,0,0,0-5.2-3.4c-4.462.943-8.831,1.668-12.964,2.225a4.355,4.355,0,0,0-3.693,5.176l2.524,12.547A4.357,4.357,0,0,0,1133.672,3318.411Z" transform="translate(-1109.074 -3292.95)" fill="#f7cf9f"/>
                <g id="Grupo_1008031" data-name="Grupo 1008031" transform="translate(1.134 0.025)">
                  <g id="Grupo_1008028" data-name="Grupo 1008028" transform="translate(0 8.268)">
                    <circle id="Elipse_8678" data-name="Elipse 8678" cx="0.884" cy="0.884" r="0.884" transform="matrix(0.074, -0.997, 0.997, 0.074, 4.163, 2.927)" fill="#ffdbaf"/>
                    <path id="Trazado_722266" data-name="Trazado 722266" d="M1065.737,3353.171a.884.884,0,1,1-1-.749A.884.884,0,0,1,1065.737,3353.171Z" transform="translate(-1055.481 -3351.799)" fill="#ffdbaf"/>
                    <path id="Trazado_722267" data-name="Trazado 722267" d="M1101.062,3348.095a.884.884,0,1,1-1-.749A.884.884,0,0,1,1101.062,3348.095Z" transform="translate(-1086.535 -3347.337)" fill="#ffdbaf"/>
                    <path id="Trazado_722268" data-name="Trazado 722268" d="M999.73,3395.632a.884.884,0,1,1-1-.749A.883.883,0,0,1,999.73,3395.632Z" transform="translate(-997.455 -3389.126)" fill="#ffdbaf"/>
                    <path id="Trazado_722269" data-name="Trazado 722269" d="M1035.055,3390.556a.884.884,0,1,1-1-.749A.884.884,0,0,1,1035.055,3390.556Z" transform="translate(-1028.509 -3384.664)" fill="#ffdbaf"/>
                    <path id="Trazado_722270" data-name="Trazado 722270" d="M1070.38,3385.48a.884.884,0,1,1-1-.749A.884.884,0,0,1,1070.38,3385.48Z" transform="translate(-1059.563 -3380.202)" fill="#ffdbaf"/>
                    <path id="Trazado_722271" data-name="Trazado 722271" d="M1105.705,3380.4a.884.884,0,1,1-1-.749A.884.884,0,0,1,1105.705,3380.4Z" transform="translate(-1090.617 -3375.74)" fill="#ffdbaf"/>
                    <path id="Trazado_722272" data-name="Trazado 722272" d="M1004.372,3427.942a.884.884,0,1,1-1-.749A.884.884,0,0,1,1004.372,3427.942Z" transform="translate(-1001.536 -3417.53)" fill="#ffdbaf"/>
                    <path id="Trazado_722273" data-name="Trazado 722273" d="M1039.7,3422.866a.884.884,0,1,1-1-.749A.883.883,0,0,1,1039.7,3422.866Z" transform="translate(-1032.59 -3413.068)" fill="#ffdbaf"/>
                    <path id="Trazado_722274" data-name="Trazado 722274" d="M1075.023,3417.79a.884.884,0,1,1-1-.749A.883.883,0,0,1,1075.023,3417.79Z" transform="translate(-1063.645 -3408.605)" fill="#ffdbaf"/>
                    <path id="Trazado_722275" data-name="Trazado 722275" d="M1110.348,3412.714a.884.884,0,1,1-1-.749A.884.884,0,0,1,1110.348,3412.714Z" transform="translate(-1094.699 -3404.143)" fill="#ffdbaf"/>
                    <path id="Trazado_722276" data-name="Trazado 722276" d="M1044.34,3455.175a.884.884,0,1,1-1-.749A.884.884,0,0,1,1044.34,3455.175Z" transform="translate(-1036.672 -3441.47)" fill="#ffdbaf"/>
                    <path id="Trazado_722277" data-name="Trazado 722277" d="M1079.665,3450.1a.884.884,0,1,1-1-.749A.884.884,0,0,1,1079.665,3450.1Z" transform="translate(-1067.726 -3437.008)" fill="#ffdbaf"/>
                    <circle id="Elipse_8679" data-name="Elipse 8679" cx="0.884" cy="0.884" r="0.884" transform="matrix(0.074, -0.997, 0.997, 0.074, 14.39, 13.419)" fill="#ffdbaf"/>
                    <path id="Trazado_722278" data-name="Trazado 722278" d="M994.578,3362.583a7.582,7.582,0,0,0-.878,1.152.882.882,0,1,0,.878-1.152Z" transform="translate(-993.7 -3360.74)" fill="#ffdbaf"/>
                    <path id="Trazado_722279" data-name="Trazado 722279" d="M1008.266,3461.252a.883.883,0,1,0-1-.749c0,.02.01.038.014.058a7.5,7.5,0,0,0,.825.7A.891.891,0,0,0,1008.266,3461.252Z" transform="translate(-1005.618 -3445.933)" fill="#ffdbaf"/>
                    <path id="Trazado_722280" data-name="Trazado 722280" d="M1119.724,3477.163a.881.881,0,0,0-1.7.137Q1118.858,3477.237,1119.724,3477.163Z" transform="translate(-1102.994 -3460.949)" fill="#ffdbaf"/>
                    <path id="Trazado_722281" data-name="Trazado 722281" d="M1085.285,3481.949a.88.88,0,0,0-1.381.077C1084.353,3482,1084.813,3481.978,1085.285,3481.949Z" transform="translate(-1072.998 -3465.411)" fill="#ffdbaf"/>
                  </g>
                  <g id="Grupo_1008029" data-name="Grupo 1008029" transform="translate(38.332)">
                    <circle id="Elipse_8680" data-name="Elipse 8680" cx="0.884" cy="0.884" r="0.884" transform="matrix(0.074, -0.997, 0.997, 0.074, 0, 6.285)" fill="#ffdbaf"/>
                    <path id="Trazado_722282" data-name="Trazado 722282" d="M1348.338,3312.563a.884.884,0,1,1-1-.749A.884.884,0,0,1,1348.338,3312.563Z" transform="translate(-1342.246 -3307.832)" fill="#ffdbaf"/>
                    <path id="Trazado_722283" data-name="Trazado 722283" d="M1383.663,3307.487a.884.884,0,1,1-1-.749A.884.884,0,0,1,1383.663,3307.487Z" transform="translate(-1373.3 -3303.37)" fill="#ffdbaf"/>
                    <path id="Trazado_722284" data-name="Trazado 722284" d="M1418.988,3302.411a.884.884,0,1,1-1-.749A.884.884,0,0,1,1418.988,3302.411Z" transform="translate(-1404.354 -3298.908)" fill="#ffdbaf"/>
                    <path id="Trazado_722285" data-name="Trazado 722285" d="M1317.656,3349.948a.884.884,0,1,1-1-.749A.884.884,0,0,1,1317.656,3349.948Z" transform="translate(-1315.274 -3340.698)" fill="#ffdbaf"/>
                    <path id="Trazado_722286" data-name="Trazado 722286" d="M1352.981,3344.872a.884.884,0,1,1-1-.749A.884.884,0,0,1,1352.981,3344.872Z" transform="translate(-1346.327 -3336.235)" fill="#ffdbaf"/>
                    <path id="Trazado_722287" data-name="Trazado 722287" d="M1388.306,3339.8a.884.884,0,1,1-1-.749A.884.884,0,0,1,1388.306,3339.8Z" transform="translate(-1377.381 -3331.773)" fill="#ffdbaf"/>
                    <path id="Trazado_722288" data-name="Trazado 722288" d="M1423.631,3334.72a.884.884,0,1,1-1-.749A.883.883,0,0,1,1423.631,3334.72Z" transform="translate(-1408.435 -3327.311)" fill="#ffdbaf"/>
                    <path id="Trazado_722289" data-name="Trazado 722289" d="M1322.3,3382.258a.884.884,0,1,1-1-.749A.883.883,0,0,1,1322.3,3382.258Z" transform="translate(-1319.354 -3369.101)" fill="#ffdbaf"/>
                    <path id="Trazado_722290" data-name="Trazado 722290" d="M1357.624,3377.182a.884.884,0,1,1-1-.749A.884.884,0,0,1,1357.624,3377.182Z" transform="translate(-1350.409 -3364.638)" fill="#ffdbaf"/>
                    <path id="Trazado_722291" data-name="Trazado 722291" d="M1392.949,3372.106a.884.884,0,1,1-1-.749A.884.884,0,0,1,1392.949,3372.106Z" transform="translate(-1381.463 -3360.176)" fill="#ffdbaf"/>
                    <path id="Trazado_722292" data-name="Trazado 722292" d="M1428.274,3367.03a.884.884,0,1,1-1-.749A.884.884,0,0,1,1428.274,3367.03Z" transform="translate(-1412.517 -3355.714)" fill="#ffdbaf"/>
                    <circle id="Elipse_8681" data-name="Elipse 8681" cx="0.884" cy="0.884" r="0.884" transform="translate(1.394 17.367) rotate(-53.177)" fill="#ffdbaf"/>
                    <path id="Trazado_722293" data-name="Trazado 722293" d="M1362.266,3409.491a.884.884,0,1,1-1-.749A.884.884,0,0,1,1362.266,3409.491Z" transform="translate(-1354.49 -3393.041)" fill="#ffdbaf"/>
                    <circle id="Elipse_8682" data-name="Elipse 8682" cx="0.884" cy="0.884" r="0.884" transform="translate(10.226 16.777) rotate(-85.752)" fill="#ffdbaf"/>
                    <path id="Trazado_722294" data-name="Trazado 722294" d="M1431.916,3398.59a.882.882,0,0,0-.23,1.681,7.379,7.379,0,0,0,1.209-1.017A.881.881,0,0,0,1431.916,3398.59Z" transform="translate(-1416.598 -3384.117)" fill="#ffdbaf"/>
                    <path id="Trazado_722295" data-name="Trazado 722295" d="M1377.3,3279.412a.884.884,0,1,0,1.749-.251.866.866,0,0,0-.06-.21,7.393,7.393,0,0,0-1.694.341A.863.863,0,0,0,1377.3,3279.412Z" transform="translate(-1369.248 -3278.951)" fill="#ffdbaf"/>
                    <path id="Trazado_722296" data-name="Trazado 722296" d="M1346.331,3289.079q-.675.225-1.352.44a.878.878,0,0,0,1.352-.44Z" transform="translate(-1340.839 -3287.854)" fill="#ffdbaf"/>
                  </g>
                  <g id="Grupo_1008030" data-name="Grupo 1008030" transform="translate(17.039 1.931)">
                    <path id="Trazado_722297" data-name="Trazado 722297" d="M1136.387,3343.019a.884.884,0,1,1-1-.749A.884.884,0,0,1,1136.387,3343.019Z" transform="translate(-1134.629 -3336.537)" fill="#ffdbaf"/>
                    <circle id="Elipse_8683" data-name="Elipse 8683" cx="0.884" cy="0.884" r="0.884" transform="matrix(0.074, -0.997, 0.997, 0.074, 4.208, 6.809)" fill="#ffdbaf"/>
                    <path id="Trazado_722298" data-name="Trazado 722298" d="M1207.038,3332.867a.884.884,0,1,1-1-.749A.883.883,0,0,1,1207.038,3332.867Z" transform="translate(-1196.737 -3327.613)" fill="#ffdbaf"/>
                    <circle id="Elipse_8684" data-name="Elipse 8684" cx="0.884" cy="0.884" r="0.884" transform="translate(12.46 4.944) rotate(-53.177)" fill="#ffdbaf"/>
                    <path id="Trazado_722299" data-name="Trazado 722299" d="M1277.688,3322.715a.884.884,0,1,1-1-.749A.883.883,0,0,1,1277.688,3322.715Z" transform="translate(-1258.845 -3318.688)" fill="#ffdbaf"/>
                    <path id="Trazado_722300" data-name="Trazado 722300" d="M1141.03,3375.328a.884.884,0,1,1-1-.749A.884.884,0,0,1,1141.03,3375.328Z" transform="translate(-1138.71 -3364.94)" fill="#ffdbaf"/>
                    <path id="Trazado_722301" data-name="Trazado 722301" d="M1176.355,3370.252a.884.884,0,1,1-1-.749A.884.884,0,0,1,1176.355,3370.252Z" transform="translate(-1169.764 -3360.478)" fill="#ffdbaf"/>
                    <path id="Trazado_722302" data-name="Trazado 722302" d="M1211.68,3365.176a.884.884,0,1,1-1-.749A.884.884,0,0,1,1211.68,3365.176Z" transform="translate(-1200.818 -3356.015)" fill="#ffdbaf"/>
                    <path id="Trazado_722303" data-name="Trazado 722303" d="M1247.006,3360.1a.884.884,0,1,1-1-.749A.884.884,0,0,1,1247.006,3360.1Z" transform="translate(-1231.873 -3351.553)" fill="#ffdbaf"/>
                    <path id="Trazado_722304" data-name="Trazado 722304" d="M1282.331,3355.024a.884.884,0,1,1-1-.749A.884.884,0,0,1,1282.331,3355.024Z" transform="translate(-1262.927 -3347.091)" fill="#ffdbaf"/>
                    <path id="Trazado_722305" data-name="Trazado 722305" d="M1145.673,3407.638a.884.884,0,1,1-1-.749A.884.884,0,0,1,1145.673,3407.638Z" transform="translate(-1142.792 -3393.344)" fill="#ffdbaf"/>
                    <path id="Trazado_722306" data-name="Trazado 722306" d="M1181,3402.562a.884.884,0,1,1-1-.749A.884.884,0,0,1,1181,3402.562Z" transform="translate(-1173.846 -3388.881)" fill="#ffdbaf"/>
                    <path id="Trazado_722307" data-name="Trazado 722307" d="M1216.323,3397.486a.884.884,0,1,1-1-.749A.884.884,0,0,1,1216.323,3397.486Z" transform="translate(-1204.9 -3384.419)" fill="#ffdbaf"/>
                    <path id="Trazado_722308" data-name="Trazado 722308" d="M1251.648,3392.41a.884.884,0,1,1-1-.749A.883.883,0,0,1,1251.648,3392.41Z" transform="translate(-1235.954 -3379.957)" fill="#ffdbaf"/>
                    <path id="Trazado_722309" data-name="Trazado 722309" d="M1286.973,3387.334a.884.884,0,1,1-1-.749A.883.883,0,0,1,1286.973,3387.334Z" transform="translate(-1267.008 -3375.494)" fill="#ffdbaf"/>
                    <path id="Trazado_722310" data-name="Trazado 722310" d="M1150.315,3439.947a.884.884,0,1,1-1-.749A.884.884,0,0,1,1150.315,3439.947Z" transform="translate(-1146.873 -3421.746)" fill="#ffdbaf"/>
                    <path id="Trazado_722311" data-name="Trazado 722311" d="M1185.641,3434.871a.884.884,0,1,1-1-.749A.883.883,0,0,1,1185.641,3434.871Z" transform="translate(-1177.928 -3417.284)" fill="#ffdbaf"/>
                    <path id="Trazado_722312" data-name="Trazado 722312" d="M1220.966,3429.795a.884.884,0,1,1-1-.749A.883.883,0,0,1,1220.966,3429.795Z" transform="translate(-1208.981 -3412.822)" fill="#ffdbaf"/>
                    <circle id="Elipse_8685" data-name="Elipse 8685" cx="0.884" cy="0.884" r="0.884" transform="matrix(0.074, -0.997, 0.997, 0.074, 14.434, 17.301)" fill="#ffdbaf"/>
                    <path id="Trazado_722313" data-name="Trazado 722313" d="M1291.616,3419.643a.884.884,0,1,1-1-.749A.884.884,0,0,1,1291.616,3419.643Z" transform="translate(-1271.089 -3403.897)" fill="#ffdbaf"/>
                    <path id="Trazado_722314" data-name="Trazado 722314" d="M1190.283,3467.181a.884.884,0,1,1-1-.749A.884.884,0,0,1,1190.283,3467.181Z" transform="translate(-1182.008 -3445.687)" fill="#ffdbaf"/>
                    <path id="Trazado_722315" data-name="Trazado 722315" d="M1225.608,3462.1a.884.884,0,1,1-1-.749A.884.884,0,0,1,1225.608,3462.1Z" transform="translate(-1213.062 -3441.225)" fill="#ffdbaf"/>
                    <path id="Trazado_722316" data-name="Trazado 722316" d="M1260.934,3457.029a.884.884,0,1,1-1-.749A.884.884,0,0,1,1260.934,3457.029Z" transform="translate(-1244.117 -3436.762)" fill="#ffdbaf"/>
                    <path id="Trazado_722317" data-name="Trazado 722317" d="M1296.259,3451.953a.884.884,0,1,1-1-.749A.883.883,0,0,1,1296.259,3451.953Z" transform="translate(-1275.171 -3432.301)" fill="#ffdbaf"/>
                    <path id="Trazado_722318" data-name="Trazado 722318" d="M1154.892,3471.508a.879.879,0,0,0-.63.424,4.367,4.367,0,0,0,1.282,1.156.881.881,0,0,0-.652-1.579Z" transform="translate(-1151.889 -3450.149)" fill="#ffdbaf"/>
                    <path id="Trazado_722319" data-name="Trazado 722319" d="M1136.666,3319.262a.868.868,0,0,0,.942-.724A4.341,4.341,0,0,0,1136.666,3319.262Z" transform="translate(-1136.42 -3315.683)" fill="#ffdbaf"/>
                    <path id="Trazado_722320" data-name="Trazado 722320" d="M1165.379,3311.2a.884.884,0,0,0,1.749-.251c0-.009,0-.018-.006-.027q-.878.131-1.744.252C1165.379,3311.186,1165.378,3311.194,1165.379,3311.2Z" transform="translate(-1161.66 -3308.99)" fill="#ffdbaf"/>
                    <path id="Trazado_722321" data-name="Trazado 722321" d="M1200.694,3305.594a.884.884,0,0,0,1.749-.251.9.9,0,0,0-.025-.1q-.868.151-1.727.292C1200.693,3305.554,1200.691,3305.574,1200.694,3305.594Z" transform="translate(-1192.704 -3303.995)" fill="#ffdbaf"/>
                    <path id="Trazado_722322" data-name="Trazado 722322" d="M1236.979,3300.033a.883.883,0,0,0,.749-1,.874.874,0,0,0-.089-.27q-.836.167-1.665.324a.871.871,0,0,0,0,.2A.883.883,0,0,0,1236.979,3300.033Z" transform="translate(-1223.718 -3298.299)" fill="#ffdbaf"/>
                    <path id="Trazado_722323" data-name="Trazado 722323" d="M1272.3,3296.044a.883.883,0,0,0,.754-.8,4.375,4.375,0,0,0-1.727-.316.88.88,0,0,0,.973,1.12Z" transform="translate(-1254.767 -3294.924)" fill="#ffdbaf"/>
                  </g>
                </g>
              </g>
              <g id="Grupo_1008033" data-name="Grupo 1008033" transform="translate(1.981)">
                <path id="Trazado_722324" data-name="Trazado 722324" d="M1432.146,2973.644l2.716-6.448a.919.919,0,0,0-.638-1.124.937.937,0,0,0-1.124.638l-2.716,6.448a.919.919,0,0,0,.638,1.124.938.938,0,0,0,1.124-.638Z" transform="translate(-1360.087 -2966.037)" fill="#f0dfd8"/>
                <path id="Trazado_722325" data-name="Trazado 722325" d="M1477.009,3007.955l2.552-3.021a.977.977,0,0,0,.268-.646.914.914,0,0,0-1.56-.646l-2.552,3.021a.977.977,0,0,0-.268.646.914.914,0,0,0,1.56.646Z" transform="translate(-1399.747 -2998.864)" fill="#f0dfd8"/>
                <path id="Trazado_722326" data-name="Trazado 722326" d="M1529.938,3013.157l7.624-5.275a.937.937,0,0,0,.328-1.25.922.922,0,0,0-1.25-.328l-7.624,5.275a.937.937,0,0,0-.328,1.25.921.921,0,0,0,1.25.328Z" transform="translate(-1446.442 -3001.322)" fill="#f0dfd8"/>
                <path id="Trazado_722327" data-name="Trazado 722327" d="M993.464,2986.182l-2.5-6.535a.94.94,0,0,0-1.124-.638.92.92,0,0,0-.638,1.124l2.5,6.535a.939.939,0,0,0,1.124.638.92.92,0,0,0,.638-1.124Z" transform="translate(-972.252 -2977.411)" fill="#f0dfd8"/>
                <path id="Trazado_722328" data-name="Trazado 722328" d="M948.427,3018.176l-2.451-3.1a.912.912,0,0,0-.646-.268.929.929,0,0,0-.646.268.919.919,0,0,0-.268.646,1.065,1.065,0,0,0,.268.646l2.451,3.1a.913.913,0,0,0,.646.268.929.929,0,0,0,.646-.268.919.919,0,0,0,.268-.646,1.062,1.062,0,0,0-.268-.646Z" transform="translate(-932.921 -3008.908)" fill="#f0dfd8"/>
                <path id="Trazado_722329" data-name="Trazado 722329" d="M858.162,3020.1l-7.444-5.525a.92.92,0,0,0-1.25.328.936.936,0,0,0,.328,1.25l7.444,5.525a.92.92,0,0,0,1.25-.328.935.935,0,0,0-.328-1.25Z" transform="translate(-849.343 -3008.592)" fill="#f0dfd8"/>
                <path id="Trazado_722330" data-name="Trazado 722330" d="M1121.677,3704.64a21.97,21.97,0,0,0-2.813,3.974.914.914,0,0,0,1.578.922,20.88,20.88,0,0,1,1.209-1.942q.157-.224.32-.443c.054-.073.11-.146.164-.219.067-.09-.1.131,0,0l.084-.107q.361-.455.747-.889a.914.914,0,0,0-1.292-1.292Z" transform="translate(-1086.175 -3615.105)" fill="#f0dfd8"/>
                <path id="Trazado_722331" data-name="Trazado 722331" d="M1212.428,3732.961a58.561,58.561,0,0,0,.221,9.476.94.94,0,0,0,.914.914.92.92,0,0,0,.914-.914,58.575,58.575,0,0,1-.221-9.476.914.914,0,1,0-1.827,0Z" transform="translate(-1168.442 -3639.43)" fill="#f0dfd8"/>
                <path id="Trazado_722332" data-name="Trazado 722332" d="M1275.706,3707.687l2.529,5.941a.919.919,0,0,0,1.25.328.938.938,0,0,0,.328-1.25l-2.529-5.941a.919.919,0,0,0-1.25-.328.938.938,0,0,0-.328,1.25Z" transform="translate(-1224.062 -3616.813)" fill="#f0dfd8"/>
              </g>
              <g id="Grupo_1008034" data-name="Grupo 1008034" transform="translate(13.144 67.895)">
                <path id="Trazado_722333" data-name="Trazado 722333" d="M955.218,3538.645a37.851,37.851,0,0,1-3.825-2.937,25.445,25.445,0,0,0-3.108-4.064c-2.227-2.241-4.024-3.722-5.022-4-1.907-.522-1.678,2.056-1.439,2.987a43.266,43.266,0,0,1,4.668,3.98,42.576,42.576,0,0,0,3.484,3.483c.512.41,2.237.41,4.376,1.46,0,0,2.458,1.282,2.608.931C957.267,3539.772,955.218,3538.645,955.218,3538.645Z" transform="translate(-941.667 -3527.579)" fill="#9e5959"/>
                <path id="Trazado_722334" data-name="Trazado 722334" d="M1371.812,3553.87a35.048,35.048,0,0,0,3.42-2.865c.448-.452.356-1.808,2.727-3.593,4.68-3.523,8.085-3.276,7.8-1.95a59.568,59.568,0,0,0-5.024,4.665c-1.218,1.475-3.645,2.633-4.1,3.032s-2.052.467-3.988,1.521c0,0-2.221,1.281-2.374.963C1369.962,3554.993,1371.812,3553.87,1371.812,3553.87Z" transform="translate(-1318.421 -3542.508)" fill="#f6af9a"/>
              </g>
            </g>
            <g id="Grupo_1008048" data-name="Grupo 1008048" transform="translate(0 1.103)">
              <g id="Grupo_1008040" data-name="Grupo 1008040" transform="translate(116.852)">
                <g id="Grupo_1008038" data-name="Grupo 1008038" transform="translate(0 9.722)">
                  <path id="Trazado_722335" data-name="Trazado 722335" d="M1573.81,3148.777c-2.284-2.7-7.659-4.726-13.45-7.717-3.558-1.837-11.2-5.838-15.941-8.553s-8.76-.921-4.239,4.158,26.725,20.5,26.725,20.5C1573.359,3161.235,1577.278,3152.882,1573.81,3148.777Z" transform="translate(-1526.717 -3122.096)" fill="#f6af9a"/>
                  <g id="Grupo_1008037" data-name="Grupo 1008037">
                    <path id="Trazado_722336" data-name="Trazado 722336" d="M1464.89,3068.586a13.411,13.411,0,0,1-2.464-2.523c-1.445-1.941-2.853-4.631-3.41-5.525-1-1.612-9.086-4.261-10.028-4.445s-4.1-.75-4.459-.429.3,1.28.3,1.28-2.015-.093-.821,1.8c0,0-1.869.533.031,2.064,0,0-.2.779,1.516,1.748s6.222,1.686,7.23,3.387c3.566,6.019,7.373,7.6,9.083,7.35S1465.12,3069.412,1464.89,3068.586Z" transform="translate(-1443.188 -3055.567)" fill="#f6af9a"/>
                    <g id="Grupo_1008036" data-name="Grupo 1008036" transform="translate(0.821 1.376)">
                      <path id="Trazado_722337" data-name="Trazado 722337" d="M1456.769,3066.952a47.732,47.732,0,0,1,5.959,1.024,20.876,20.876,0,0,1,4.506,2.15,27.194,27.194,0,0,1-4.656-1.764C1460.744,3067.7,1458.5,3067.49,1456.769,3066.952Z" transform="translate(-1455.948 -3066.952)" fill="#e57e73"/>
                      <path id="Trazado_722338" data-name="Trazado 722338" d="M1449.98,3081.842c2.188.306,4.442.591,6.6,1.052a13.784,13.784,0,0,1,3.778,2.075c-1.517-.457-2.889-1.3-4.389-1.773C1454.248,3082.708,1451.577,3082.341,1449.98,3081.842Z" transform="translate(-1449.98 -3080.042)" fill="#e57e73"/>
                      <path id="Trazado_722339" data-name="Trazado 722339" d="M1450.24,3098.912c3.224.518,6.959.48,9.473,2.808a39.057,39.057,0,0,0-4.627-1.714C1453.532,3099.578,1451.652,3099.355,1450.24,3098.912Z" transform="translate(-1450.208 -3095.048)" fill="#e57e73"/>
                    </g>
                  </g>
                </g>
                <g id="Grupo_1008039" data-name="Grupo 1008039" transform="translate(39.18)">
                  <path id="Trazado_722340" data-name="Trazado 722340" d="M1787.689,2979.7s-7.383-3.856-11.569,5.655-7.82,27.795-8.786,33.456,5.49,7.677,8.907,3.017,11.112-24.708,12.765-29.637S1791.37,2981.9,1787.689,2979.7Z" transform="translate(-1767.236 -2978.473)" fill="#f6af9a"/>
                  <path id="Trazado_722341" data-name="Trazado 722341" d="M1797.6,2975.8s3.932,2.048,3.419,7.473c-.461,4.877-6.611,27.406-6.611,27.406s-11.8-1.333-16.382-5.5c0,0,3.662-13.6,6.026-20.942S1792.261,2973.689,1797.6,2975.8Z" transform="translate(-1776.725 -2975.158)" fill="#dbc8c8"/>
                </g>
              </g>
              <g id="Grupo_1008047" data-name="Grupo 1008047" transform="translate(0 9.385)">
                <g id="Grupo_1008043" data-name="Grupo 1008043">
                  <g id="Grupo_1008042" data-name="Grupo 1008042">
                    <g id="Grupo_1008041" data-name="Grupo 1008041" transform="translate(0.563 0.44)">
                      <path id="Trazado_722342" data-name="Trazado 722342" d="M492.817,3060.349a6.624,6.624,0,0,0-1.107-1.5c-2.561-2.608-6.1-3.443-8.707-.883-2.164,2.125-1.939,6.359-.548,8.893l10.9,28.772a4.7,4.7,0,1,0,8.468-4s-5.242-22.509-8.632-30.456a6.569,6.569,0,0,0-.375-.829Z" transform="translate(-481.393 -3056.417)" fill="#9e5959"/>
                      <path id="Trazado_722343" data-name="Trazado 722343" d="M614.158,3301.456c-2.4,1.131-3.445,4.808-3.445,4.808l4.389-.934C614.869,3304.361,614.547,3303.029,614.158,3301.456Z" transform="translate(-595.077 -3271.829)" fill="#914d4d"/>
                    </g>
                    <path id="Trazado_722344" data-name="Trazado 722344" d="M480.245,3053.218s5.61-2,8.18,2.528,5.63,14.258,5.63,14.258a28.828,28.828,0,0,1-13.768,5.691s-3.2-10.718-3.507-14.389S477.8,3054.2,480.245,3053.218Z" transform="translate(-476.736 -3052.778)" fill="#edd8cc"/>
                  </g>
                </g>
                <g id="Grupo_1008046" data-name="Grupo 1008046" transform="translate(12.914 5.898)">
                  <path id="Trazado_722345" data-name="Trazado 722345" d="M613.956,3191.041s-6.666,4.531-12.43,7.588a124.494,124.494,0,0,0-14.406,8.643,4.653,4.653,0,0,0-.946.739c-1.282,1.3-3.236,4.563-2.445,6.336,1.266,2.839,5.815,2.693,8.048,1.374,5.61-3.315,25.346-20.52,25.346-20.52a2.547,2.547,0,0,0,.228-.183,2.615,2.615,0,0,0-3.394-3.977Z" transform="translate(-583.546 -3179.71)" fill="#9e5959"/>
                  <g id="Grupo_1008045" data-name="Grupo 1008045" transform="translate(26.981)">
                    <path id="Trazado_722346" data-name="Trazado 722346" d="M821.266,3103.854s.75-.433.749-.864c0-.336-.552-.29-.552-.29s.435-.442.209-.613c-.3-.225-1.3.052-1.3.052s.322-.683-.666-.565c-.614.073-2.619.386-3.447.612a1.614,1.614,0,0,0-.436.119c-.711.32-4.946,2.429-5.12,3.162s-1.1,6.837-1.3,7.178-2.025,2.321-2.025,2.321a3.748,3.748,0,0,0-.392,3.6c.528,1.172,1.115,2.58,3.14,1.073,3.052-2.271,6.259-4.9,6.723-6.219s.212-4.871.392-5.254a20.931,20.931,0,0,1,2.091-2.349c1.012-.753,2.562-1.164,2.485-1.8C821.789,3103.727,821.536,3103.823,821.266,3103.854Z" transform="translate(-806.702 -3101.561)" fill="#9e5959"/>
                    <g id="Grupo_1008044" data-name="Grupo 1008044" transform="translate(5.543 0.563)">
                      <path id="Trazado_722347" data-name="Trazado 722347" d="M852.543,3110.052c.306-1.229,2.075-2.466,3.2-2.946a22.423,22.423,0,0,1,2.593-.6c.387-.063.775-.122,1.165-.171s.78-.092,1.175-.113a.015.015,0,0,1,.016.014c-.739.245-1.536.392-2.3.569-.809.181-1.636.289-2.439.485a1.859,1.859,0,0,0-.4.14,8.681,8.681,0,0,0-1.5.888,3.853,3.853,0,0,0-1.484,1.742.015.015,0,0,1-.03-.007Z" transform="translate(-852.543 -3106.22)" fill="#723333"/>
                      <path id="Trazado_722348" data-name="Trazado 722348" d="M867,3114.619a2.4,2.4,0,0,1,1.3-1.7,16.5,16.5,0,0,1,4-1.767,8.593,8.593,0,0,1,2.172-.3.016.016,0,0,1,0,.031c-.71.164-1.406.341-2.092.559a19.538,19.538,0,0,0-4.005,1.605,2.34,2.34,0,0,0-1.347,1.576c-.005.017-.036.009-.029-.01Z" transform="translate(-865.248 -3110.297)" fill="#723333"/>
                      <path id="Trazado_722349" data-name="Trazado 722349" d="M882.817,3123.616c0-.7.841-1.083,1.314-1.475a9.634,9.634,0,0,1,3.225-1.728,2.429,2.429,0,0,1,.822-.078.015.015,0,0,1,0,.03,6.745,6.745,0,0,0-1.3.493c-.493.243-1.136.534-1.614.8s-.92.555-1.37.848c-.424.281-.995.546-1.044,1.112,0,.018-.031.018-.03,0Z" transform="translate(-879.156 -3118.621)" fill="#723333"/>
                    </g>
                  </g>
                </g>
              </g>
            </g>
          </g>
        </g>
      </g>
    </g>
  </g>
</svg>
