<svg xmlns="http://www.w3.org/2000/svg" xmlns:xlink="http://www.w3.org/1999/xlink" width="505" height="301" viewBox="0 0 505 301">
  <defs>
    <clipPath id="clip-path">
      <rect id="Rectángulo_347939" data-name="Rectángulo 347939" width="505" height="301" transform="translate(-60)" fill="none"/>
    </clipPath>
  </defs>
  <g id="Grupo_1013476" data-name="Grupo 1013476" transform="translate(-810 -1968)">
    <rect id="_19d0ead6a9" data-name="19d0ead6a9" width="505" height="300" rx="19" transform="translate(810 1968)" fill="#fff"/>
    <g id="Grupo_1007242" data-name="Grupo 1007242" transform="translate(870 1968)" clip-path="url(#clip-path)">
      <g id="Grupo_1007241" data-name="Grupo 1007241" transform="translate(-32.134 -16.738)">
        <path id="Trazado_720786" data-name="Trazado 720786" d="M90.327-27.455C85.891-4.636,72.462,15.457,57.195,32.986S24.55,66.169,9.975,84.279s-26.489,39.418-28.241,62.6c-.716,9.479.86,20.173,8.305,26.083" transform="translate(-20.581 27.455)" fill="none" stroke="#f2b366" stroke-miterlimit="10" stroke-width="1"/>
        <path id="Trazado_720787" data-name="Trazado 720787" d="M81.24-18.964,20.811,86.742C9.986,105.676-.9,124.751-7.986,145.378s-10.21,43.137-5.14,64.35" transform="translate(-21.694 24.08)" fill="none" stroke="#f2b366" stroke-miterlimit="10" stroke-width="1"/>
        <path id="Trazado_720788" data-name="Trazado 720788" d="M351.577-8.932c-1.393,20.623,6.013,41.194,17.8,58.175s27.732,30.68,44.619,42.6c9.758,6.888,20.032,13.374,27.785,22.459s12.721,21.517,9.662,33.063" transform="translate(32.4 20.092)" fill="none" stroke="#f2b366" stroke-miterlimit="10" stroke-width="1"/>
        <path id="Trazado_720789" data-name="Trazado 720789" d="M375.293-14.227a89.194,89.194,0,0,0,4.8,68.482c15.138,29.785,46.058,49.067,61.522,78.684a91.091,91.091,0,0,1,4.006,74.35c-7.957,20.3-22.914,36.9-35.334,54.825s-22.784,39.227-19.452,60.777" transform="translate(24.764 22.196)" fill="none" stroke="#f2b366" stroke-miterlimit="10" stroke-width="1"/>
        <path id="Trazado_720790" data-name="Trazado 720790" d="M496.921,215.266c1.009,14.471-2.624,28.891-7.569,42.527s-11.222,26.774-15.821,40.532a177.862,177.862,0,0,0-.125,111.471" transform="translate(-12.56 -69.034)" fill="none" stroke="#f2b366" stroke-miterlimit="10" stroke-width="1"/>
        <path id="Trazado_720791" data-name="Trazado 720791" d="M-35.477,343.413c13.27,17.916,27.605,35.663,46.455,47.571,17.2,10.867,37.233,16.28,55.485,25.271s35.811,23.261,40.27,43.113" transform="translate(-3.801 -119.976)" fill="none" stroke="#f2b366" stroke-miterlimit="10" stroke-width="1"/>
        <path id="Trazado_720792" data-name="Trazado 720792" d="M105.69,472.426c-8.174-14.515-24.257-22.932-40.418-26.97s-33-4.478-49.389-7.436a163.443,163.443,0,0,1-69.157-30.276" transform="translate(3.274 -145.55)" fill="none" stroke="#f2b366" stroke-miterlimit="10" stroke-width="1"/>
      </g>
    </g>
    <g id="Grupo_1007246" data-name="Grupo 1007246" transform="translate(8.899 -1.724)">
      <path id="Trazado_720756" data-name="Trazado 720756" d="M202.96,112.93C-20.8,112.93,69.08,338.044,69.08,338.044H336.841S426.723,112.93,202.96,112.93Z" transform="translate(850.321 1925.923)" fill="#d9eeee"/>
      <g id="Grupo_1007238" data-name="Grupo 1007238" transform="translate(937.213 2082.242)">
        <path id="Trazado_720757" data-name="Trazado 720757" d="M145.683,173.984c14.928.57,27.317,8.144,29.691,19.681s-.679,21.038,1.7,24.941,11.029,7.635,11.029,7.635l-10.181,7.8v7.465s-6.786,1.188-16.457-4.92c0,0,1.527,11.537,13.4,13.064,0,0-2.037,9.671-5.091,11.707s-17.715-1.846-17.715-1.846l-.524,19.83H122.694l1.1-29.352s-16.627-10.871-18.324-35.981S119.046,172.965,145.683,173.984Z" transform="translate(-99.696 -170.758)" fill="#fff"/>
        <path id="Trazado_720758" data-name="Trazado 720758" d="M181.825,227.242c0,2.686,1.392,4.864,3.111,4.864s3.111-2.178,3.111-4.864-1.393-4.864-3.111-4.864S181.825,224.556,181.825,227.242Z" transform="translate(-117.797 -182.222)" fill="#1c466d"/>
        <path id="Trazado_720759" data-name="Trazado 720759" d="M176.043,215.428a17.777,17.777,0,0,1,13.008-4.185S186.223,202.874,176.043,215.428Z" transform="translate(-116.428 -178.94)" fill="#1c466d"/>
        <path id="Trazado_720760" data-name="Trazado 720760" d="M138.645,221.887s-1.65-19.537,2.762-30.4,20.95-11.122,27.357-9.378a4.929,4.929,0,0,0,5.9-2.159s-28.079-20.445-55.225-3.394c-13.064,7.465-21.379,28-14.8,50.221,2.163,9.841,15.058,22.4,20.657,22.226Z" transform="translate(-98.983 -169.772)" fill="#1c466d"/>
        <path id="Trazado_720761" data-name="Trazado 720761" d="M147.61,195.391s-11.368-4.242-27.146-2.036" transform="translate(-103.275 -175.203)" fill="none" stroke="#fff" stroke-linecap="round" stroke-linejoin="round" stroke-width="0.75"/>
        <path id="Trazado_720762" data-name="Trazado 720762" d="M119.346,292.023l32,10.859,17.038,71.712H97.945Z" transform="translate(-97.945 -198.705)" fill="#ffdeb7"/>
        <path id="Trazado_720763" data-name="Trazado 720763" d="M159.031,377.69c-11.635-55.2-42.274-72.582-42.274-72.582s-3.853,4.49-6.449,13.651l2.446,1.8L97.945,377.69Z" transform="translate(-97.945 -201.802)" fill="#3d8dc0"/>
        <path id="Trazado_720764" data-name="Trazado 720764" d="M118.9,326.845s14.285,2.262,25.661,37.892l17.141,13.4" transform="translate(-102.905 -206.947)" fill="none" stroke="#2c3045" stroke-linecap="round" stroke-linejoin="round" stroke-width="0.75"/>
        <line id="Línea_2668" data-name="Línea 2668" x1="4.166" y2="11.55" transform="translate(45.867 164.338)" fill="none" stroke="#2c3045" stroke-linecap="round" stroke-linejoin="round" stroke-width="0.75"/>
        <path id="Trazado_720765" data-name="Trazado 720765" d="M112.754,325.344l15.566,28.335,2.87,28.8H97.945l3.324-30.342C102.818,340.289,107.116,330.9,112.754,325.344Z" transform="translate(-97.945 -206.591)" fill="#3d8dc0"/>
        <path id="Trazado_720766" data-name="Trazado 720766" d="M167.795,306.248s7.791,7.635,7.688,21.547l11.584,50.165H181.2l-13.742-53.727Z" transform="translate(-114.396 -202.072)" fill="#568ebf"/>
        <path id="Trazado_720767" data-name="Trazado 720767" d="M161.4,306.248l-.34,17.985-20.63-6.961" transform="translate(-108 -202.072)" fill="none" stroke="#2c3045" stroke-linecap="round" stroke-linejoin="round" stroke-width="0.75"/>
        <line id="Línea_2669" data-name="Línea 2669" x2="1.117" y2="22.159" transform="translate(30.789 153.729)" fill="none" stroke="#2c3045" stroke-linecap="round" stroke-linejoin="round" stroke-width="0.75"/>
        <path id="Trazado_720768" data-name="Trazado 720768" d="M135.6,357.369a34.611,34.611,0,0,1,1.586,4.772" transform="translate(-106.856 -214.171)" fill="none" stroke="#2c3045" stroke-linecap="round" stroke-linejoin="round" stroke-width="0.75"/>
        <path id="Trazado_720769" data-name="Trazado 720769" d="M130.857,349.3a23.684,23.684,0,0,1,2.376,3.571" transform="translate(-105.734 -212.26)" fill="none" stroke="#2c3045" stroke-linecap="round" stroke-linejoin="round" stroke-width="0.75"/>
        <path id="Trazado_720770" data-name="Trazado 720770" d="M109,339.573a20.19,20.19,0,0,1,15.282,5.846" transform="translate(-100.561 -209.953)" fill="none" stroke="#2c3045" stroke-linecap="round" stroke-linejoin="round" stroke-width="0.75"/>
        <line id="Línea_2670" data-name="Línea 2670" x1="6.544" y2="0.763" transform="translate(54.542 125.724)" fill="none" stroke="#2c3045" stroke-linecap="round" stroke-linejoin="round" stroke-width="0.75"/>
        <ellipse id="Elipse_8614" data-name="Elipse 8614" cx="7.926" cy="7.926" rx="7.926" ry="7.926" transform="translate(50.265 49.979)" fill="#f0cda5"/>
        <g id="Grupo_1007237" data-name="Grupo 1007237" transform="translate(22.46 47.636)">
          <ellipse id="Elipse_8615" data-name="Elipse 8615" cx="9.32" cy="10.644" rx="9.32" ry="10.644" transform="translate(0 2.822) rotate(-8.709)" fill="#fff"/>
          <line id="Línea_2671" data-name="Línea 2671" x1="8.096" y2="9.369" transform="translate(7.018 7.082)" fill="none" stroke="#2c3045" stroke-linecap="round" stroke-linejoin="round" stroke-width="0.75"/>
          <line id="Línea_2672" data-name="Línea 2672" x2="9.442" y2="9.323" transform="translate(6.499 7.367)" fill="none" stroke="#2c3045" stroke-linecap="round" stroke-linejoin="round" stroke-width="0.75"/>
        </g>
        <line id="Línea_2673" data-name="Línea 2673" x1="28.251" y1="9.587" transform="translate(23.719 94.104)" fill="none" stroke="#2c3045" stroke-linecap="round" stroke-linejoin="round" stroke-width="0.75"/>
        <line id="Línea_2674" data-name="Línea 2674" y1="13.702" x2="0.515" transform="translate(23.585 79.235)" fill="none" stroke="#2c3045" stroke-linecap="round" stroke-linejoin="round" stroke-width="0.75"/>
        <path id="Trazado_720771" data-name="Trazado 720771" d="M184.314,186.554a20.473,20.473,0,0,1,5.429,10.1c2.375,11.537-.679,21.038,1.7,24.941s11.029,7.635,11.029,7.635l-10.181,7.8V244.5s-6.786,1.188-16.457-4.92c0,0,1.527,11.537,13.4,13.064,0,0-2.037,9.671-5.091,11.707S166.43,262.5,166.43,262.5l-.372,14.1" transform="translate(-114.065 -173.744)" fill="none" stroke="#2c3045" stroke-linecap="round" stroke-linejoin="round" stroke-width="0.75"/>
      </g>
      <g id="Grupo_1007240" data-name="Grupo 1007240" transform="translate(1078.73 2081.092)">
        <path id="Trazado_720772" data-name="Trazado 720772" d="M326.819,168.312c-15.3.585-28,8.349-30.436,20.175a101.243,101.243,0,0,0-1.739,23.389c-4.853,4.4-10,11.454-11.3,18.253l10.436-.25v7.652c4.114,1.127,9.718.145,15.744-1.436,0,0-1.683,6.069-13.857,7.635,0,0,.724,12.063,3.854,14.15s20.766-1.892,20.766-1.892l.537,20.327h29.566l-1.13-30.088s17.044-11.144,18.783-36.883S354.124,167.269,326.819,168.312Z" transform="translate(-283.339 -168.265)" fill="#fff"/>
        <path id="Trazado_720773" data-name="Trazado 720773" d="M357.731,289.311l-32.8,11.131-17.465,73.509h72.2Z" transform="translate(-289.049 -196.913)" fill="#ffdeb7"/>
        <path id="Trazado_720774" data-name="Trazado 720774" d="M320.023,377.126c11.927-56.581,43.334-74.4,43.334-74.4s3.949,4.6,6.611,13.994l-2.508,1.84,15.18,58.567Z" transform="translate(-292.021 -200.088)" fill="#1c466d"/>
        <path id="Trazado_720775" data-name="Trazado 720775" d="M366.967,325.006s-14.643,2.319-26.3,38.842l-17.571,13.739" transform="translate(-292.748 -205.361)" fill="none" stroke="#fff" stroke-linecap="round" stroke-linejoin="round" stroke-width="0.75"/>
        <line id="Línea_2675" data-name="Línea 2675" x2="4.099" y2="11.365" transform="translate(39.333 165.198)" fill="none" stroke="#fff" stroke-linecap="round" stroke-linejoin="round" stroke-width="0.75"/>
        <path id="Trazado_720776" data-name="Trazado 720776" d="M376.309,323.468l-15.956,29.045-2.942,29.523h34.078l-3.408-31.1C386.494,338.787,382.088,329.164,376.309,323.468Z" transform="translate(-300.87 -204.997)" fill="#1c466d"/>
        <path id="Trazado_720777" data-name="Trazado 720777" d="M324.221,303.893s-7.987,7.826-7.88,22.088L304.467,377.4h6.017l14.085-55.073Z" transform="translate(-288.34 -200.365)" fill="#3d8dc0"/>
        <path id="Trazado_720778" data-name="Trazado 720778" d="M330.347,303.893l.348,18.436,21.147-7.135" transform="translate(-294.464 -200.365)" fill="none" stroke="#2c3045" stroke-linecap="round" stroke-linejoin="round" stroke-width="0.75"/>
        <line id="Línea_2676" data-name="Línea 2676" x1="0.842" y2="15.995" transform="translate(57.913 160.339)" fill="none" stroke="#fff" stroke-linecap="round" stroke-linejoin="round" stroke-width="0.75"/>
        <line id="Línea_2677" data-name="Línea 2677" x2="6.708" y2="0.783" transform="translate(28.002 125.616)" fill="none" stroke="#2c3045" stroke-linecap="round" stroke-linejoin="round" stroke-width="0.75"/>
        <line id="Línea_2678" data-name="Línea 2678" y1="9.828" x2="28.959" transform="translate(37.347 93.204)" fill="none" stroke="#2c3045" stroke-linecap="round" stroke-linejoin="round" stroke-width="0.75"/>
        <path id="Trazado_720779" data-name="Trazado 720779" d="M360.044,177.1a15.433,15.433,0,0,1-5.449,7.8,90.493,90.493,0,0,1-8.026,5.393c-11.922,7.846-17.434,18.844-18.421,33.081-.311,4.482.227,10.19-2.079,15.77s-9.03,7.649-13.461,9.4-9.266,1.485-14.028,1.621c0,0-5.951,14.667,1.514,19.757l-1.357-5.09s5.081,6.334,12.664,7.465l-2.143-2.941c17.777,5.849,22.8-8.136,24.317-14.191s1.508-21.748,1.508-21.748a11.894,11.894,0,0,1-.881-6.7c.912-5.956,5.88-10.137,11.1-9.339s8.7,6.275,7.791,12.232a11.221,11.221,0,0,1-6.339,8.7l5.58,10.014s19.7-6.06,21.06-34.222S360.044,177.1,360.044,177.1Z" transform="translate(-286.414 -170.356)" fill="#99601d"/>
        <g id="Grupo_1007239" data-name="Grupo 1007239" transform="translate(46.136 45.571)">
          <ellipse id="Elipse_8616" data-name="Elipse 8616" cx="10.911" cy="9.553" rx="10.911" ry="9.553" transform="translate(0 21.57) rotate(-81.292)" fill="#fff"/>
          <line id="Línea_2679" data-name="Línea 2679" x2="8.299" y2="9.604" transform="translate(6.697 7.26)" fill="none" stroke="#2c3045" stroke-linecap="round" stroke-linejoin="round" stroke-width="0.75"/>
          <line id="Línea_2680" data-name="Línea 2680" x1="9.679" y2="9.556" transform="translate(5.849 7.552)" fill="none" stroke="#2c3045" stroke-linecap="round" stroke-linejoin="round" stroke-width="0.75"/>
        </g>
        <ellipse id="Elipse_8617" data-name="Elipse 8617" cx="7.926" cy="7.926" rx="7.926" ry="7.926" transform="translate(22.754 50.441)" fill="#f0cda5"/>
        <path id="Trazado_720780" data-name="Trazado 720780" d="M314.095,222.906c0,2.754-1.427,4.986-3.188,4.986s-3.188-2.232-3.188-4.986,1.427-4.985,3.188-4.985S314.095,220.153,314.095,222.906Z" transform="translate(-289.109 -180.017)" fill="#1c466d"/>
        <path id="Trazado_720781" data-name="Trazado 720781" d="M317.6,207.879s-7.805-2.036-11.113-1.527C306.483,206.353,310.555,199.9,317.6,207.879Z" transform="translate(-288.817 -176.697)" fill="#1c466d"/>
        <path id="Trazado_720782" data-name="Trazado 720782" d="M372.466,337.661c-4.72,2.24-9.513,7.808-11.511,20.585" transform="translate(-301.708 -208.356)" fill="none" stroke="#fff" stroke-linecap="round" stroke-linejoin="round" stroke-width="0.75"/>
        <path id="Trazado_720783" data-name="Trazado 720783" d="M382.452,335.892a14.691,14.691,0,0,0-3.732.571" transform="translate(-305.913 -207.938)" fill="none" stroke="#fff" stroke-linecap="round" stroke-linejoin="round" stroke-width="0.75"/>
        <path id="Trazado_720784" data-name="Trazado 720784" d="M390.279,336.982a3.8,3.8,0,0,0-1.719-.635" transform="translate(-308.242 -208.045)" fill="none" stroke="#fff" stroke-linecap="round" stroke-linejoin="round" stroke-width="0.75"/>
        <path id="Trazado_720785" data-name="Trazado 720785" d="M355.907,176.594c-7.034-5.75-16.9-8.747-29.088-8.281-15.3.585-28,8.349-30.436,20.175a101.243,101.243,0,0,0-1.739,23.389c-4.853,4.4-10,11.454-11.3,18.253l10.436-.25v7.652c4.114,1.127,9.718.145,15.744-1.436,0,0-1.683,6.069-13.857,7.635,0,0,.1,1.643.38,3.823" transform="translate(-283.339 -168.265)" fill="none" stroke="#2c3045" stroke-linecap="round" stroke-linejoin="round" stroke-width="0.75"/>
        <line id="Línea_2681" data-name="Línea 2681" x1="0.537" y1="14.3" transform="translate(65.915 77.963)" fill="none" stroke="#2c3045" stroke-linecap="round" stroke-linejoin="round" stroke-width="0.75"/>
        <line id="Línea_2682" data-name="Línea 2682" x2="0.073" y2="2.758" transform="translate(37.251 99.427)" fill="none" stroke="#2c3045" stroke-linecap="round" stroke-linejoin="round" stroke-width="0.75"/>
      </g>
      <path id="Trazado_720793" data-name="Trazado 720793" d="M342.717,412H68.532A6.033,6.033,0,0,1,62.5,405.97h0a6.032,6.032,0,0,1,6.032-6.032H342.717a6.032,6.032,0,0,1,6.033,6.032h0A6.033,6.033,0,0,1,342.717,412Z" transform="translate(847.657 1857.998)" fill="#568ebf"/>
      <g id="Grupo_1007245" data-name="Grupo 1007245" transform="translate(898.101 1991.724)">
        <g id="Grupo_1007244" data-name="Grupo 1007244">
          <path id="Trazado_720794" data-name="Trazado 720794" d="M195.294,76.556a29.237,29.237,0,0,0-9.429,56.912l-4.789,11.312,12.694-9.788q.757.039,1.524.04a29.237,29.237,0,1,0,0-58.475Z" transform="translate(-74.953 -57.193)" fill="#008b8a"/>
          <path id="Trazado_720795" data-name="Trazado 720795" d="M414.431,87.884a29.236,29.236,0,0,0-21.845,53.39l-7.18,10.85,14.548-7.607q.729.206,1.478.377a29.237,29.237,0,1,0,13-57.011Z" transform="translate(-125.276 -59.699)" fill="#008b8a"/>
          <path id="Trazado_720796" data-name="Trazado 720796" d="M288.082,51.189a29.237,29.237,0,0,1,9.429,56.912l5.918,12.441-13.823-10.918q-.758.039-1.524.04a29.237,29.237,0,1,1,0-58.475Z" transform="translate(-96.912 -51.189)" fill="#008b8a"/>
          <path id="Trazado_720797" data-name="Trazado 720797" d="M75.434,94.428a29.237,29.237,0,0,1,10.42,56.738l5.506,11.817L77.977,152.827q-.757.053-1.524.066a29.237,29.237,0,1,1-1.02-58.466Z" transform="translate(-46.706 -61.421)" fill="#008b8a"/>
        </g>
      </g>
    </g>
  </g>
</svg>
