<svg xmlns="http://www.w3.org/2000/svg" width="331" height="195" viewBox="0 0 331 195">
  <g id="Grupo_1013478" data-name="Grupo 1013478" transform="translate(-1055 -5877.215)">
    <rect id="concepto-esg-naturaleza-encuentra-tecnologia-energia-verde-recursos-renovables-sostenibles-cuidado-medio-ambiente-ecologia-mano-abrazando-globo-hoj" width="331" height="195" rx="20" transform="translate(1055 5877.215)" fill="#fff"/>
    <g id="Grupo_1007929" data-name="Grupo 1007929" transform="translate(1086.032 5829.174)">
      <g id="Floor" transform="translate(42.016 137.062)">
        <path id="Floor-2" data-name="Floor" d="M69.268,319.525c36.252,18.534,95.027,18.535,131.278,0s36.252-48.585,0-67.119-95.027-18.535-131.278,0S33.017,300.991,69.268,319.525Z" transform="translate(-42.08 -238.506)" fill="#fbefe2"/>
      </g>
      <g id="Shadows" transform="translate(72.74 171.386)">
        <path id="Shadow" d="M129.8,364.184a3.208,3.208,0,0,1-1.582-.4l-13.914-8.03a1.85,1.85,0,0,1,0-3.322l39.2-22.625-7.651-4.418a1.585,1.585,0,0,1,.655-3.057l42.03-4.283a2.857,2.857,0,0,1,.286-.015,2.709,2.709,0,0,1,2.3,1.239h0a1.294,1.294,0,0,1,.148,1.076l-7.328,23.982a2.1,2.1,0,0,1-2.02,1.542,2.241,2.241,0,0,1-1.116-.306l-8.94-5.159-40.492,23.376A3.2,3.2,0,0,1,129.8,364.184Z" transform="translate(-113.27 -318.038)" fill="#e0e0e0"/>
        <ellipse id="Shadow-2" data-name="Shadow" cx="20.492" cy="11.139" rx="20.492" ry="11.139" transform="translate(104.723 6.742)" fill="#f4d9b9"/>
      </g>
      <g id="Plants" transform="translate(204.249 164.289)">
        <g id="Plants-2" data-name="Plants">
          <g id="Grupo_1007888" data-name="Grupo 1007888">
            <g id="Grupo_1007886" data-name="Grupo 1007886">
              <path id="Trazado_722018" data-name="Trazado 722018" d="M417.991,315.274a19.968,19.968,0,0,1,2.034-7.612c1.853-3.394,4.569-5.623,7.223-6.022s4.983,1.9,2.246,3.791-7.689,3.966-9.578,10.436Z" transform="translate(-417.991 -301.593)" fill="#288d8a"/>
              <path id="Trazado_722019" data-name="Trazado 722019" d="M417.991,315.274a19.968,19.968,0,0,1,2.034-7.612c1.853-3.394,4.569-5.623,7.223-6.022s4.983,1.9,2.246,3.791-7.689,3.966-9.578,10.436Z" transform="translate(-417.991 -301.593)" fill="#225453"/>
            </g>
            <g id="Grupo_1007887" data-name="Grupo 1007887" transform="translate(0.579 1.203)">
              <path id="Trazado_722020" data-name="Trazado 722020" d="M419.459,315.716a.134.134,0,0,1-.029-.006.142.142,0,0,1-.091-.18c2.327-7.134,7.484-10.408,9.886-11.142a.143.143,0,1,1,.084.273c-2.353.719-7.408,3.936-9.7,10.958A.142.142,0,0,1,419.459,315.716Z" transform="translate(-419.331 -304.381)" fill="#fff"/>
            </g>
          </g>
          <g id="Grupo_1007894" data-name="Grupo 1007894" transform="translate(0.303 8.48)">
            <g id="Grupo_1007891" data-name="Grupo 1007891">
              <g id="Grupo_1007889" data-name="Grupo 1007889">
                <path id="Trazado_722021" data-name="Trazado 722021" d="M433.427,324.372a2.516,2.516,0,0,1-1.4,1.222,2.906,2.906,0,0,0-1.471,1.148c-.562,1.151.6,2.632-.013,3.757a1.985,1.985,0,0,1-1.3.88,13.143,13.143,0,0,1-1.321.212,5.282,5.282,0,0,1-.635,0,2.881,2.881,0,0,0-1.816.324c-.844.556-1.036,1.685-1.51,2.579a4.183,4.183,0,0,1-2.83,2.066,2.91,2.91,0,0,1-1.539.007.679.679,0,0,1-.087-.047s-.006,0-.008-.006c-.06-.059-.135-.133-.167-.174a.078.078,0,0,1-.018-.025,6.372,6.372,0,0,1-.016-1.77c0-.038,0-.073-.008-.107-.073-.687-.141-1.37-.205-2.056q-.182-1.893-.305-3.793a6.211,6.211,0,0,1,.082-2.513c.325-.878,1.281-.965,1.584-1.826.121-.343.173-.705.29-1.052a2.95,2.95,0,0,1,2.383-1.926c1.665-.2,3.26,1.045,4.921.8a12.67,12.67,0,0,0,1.262-.334,3.627,3.627,0,0,1,3.769,1.018A1.758,1.758,0,0,1,433.427,324.372Z" transform="translate(-418.693 -321.243)" fill="#288d8a"/>
              </g>
              <g id="Grupo_1007890" data-name="Grupo 1007890" opacity="0.07">
                <path id="Trazado_722022" data-name="Trazado 722022" d="M433.427,324.372a2.516,2.516,0,0,1-1.4,1.222,2.906,2.906,0,0,0-1.471,1.148c-.562,1.151.6,2.632-.013,3.757a1.985,1.985,0,0,1-1.3.88,6.836,6.836,0,0,1-1.321.212,5.282,5.282,0,0,1-.635,0,2.881,2.881,0,0,0-1.816.324c-.844.556-1.036,1.685-1.51,2.579a4.183,4.183,0,0,1-2.83,2.066,2.91,2.91,0,0,1-1.539.007.679.679,0,0,1-.087-.047s-.006,0-.008-.006a.4.4,0,0,1-.069-.051.52.52,0,0,1-.1-.123.078.078,0,0,1-.018-.025c-.26-.457-.007-1.255-.016-1.77,0-.038,0-.073-.008-.107-.073-.687-.141-1.37-.205-2.056q-.182-1.893-.305-3.793a6.211,6.211,0,0,1,.082-2.513c.325-.878,1.281-.965,1.584-1.826.121-.343.173-.705.29-1.052a2.95,2.95,0,0,1,2.383-1.926c1.665-.2,3.26,1.045,4.921.8a12.67,12.67,0,0,0,1.262-.334,3.627,3.627,0,0,1,3.769,1.018A1.758,1.758,0,0,1,433.427,324.372Z" transform="translate(-418.693 -321.243)" fill="#263238"/>
              </g>
            </g>
            <g id="Grupo_1007892" data-name="Grupo 1007892" transform="translate(0.174 1.556)">
              <path id="Trazado_722023" data-name="Trazado 722023" d="M419.223,335.736l-.012,0a.142.142,0,0,1-.113-.167c1.7-8.826,10.738-10.721,12.884-10.718a.143.143,0,0,1,0,.286c-2.1,0-10.941,1.851-12.6,10.485A.143.143,0,0,1,419.223,335.736Z" transform="translate(-419.096 -324.849)" fill="#fff"/>
            </g>
            <g id="Grupo_1007893" data-name="Grupo 1007893" transform="translate(3.546 5.51)">
              <path id="Trazado_722024" data-name="Trazado 722024" d="M433.5,335.839a.145.145,0,0,1-.078-.035,7.6,7.6,0,0,0-6.335-1.312.143.143,0,0,1-.062-.279,7.9,7.9,0,0,1,6.585,1.376.143.143,0,0,1-.111.249Z" transform="translate(-426.91 -334.011)" fill="#fff"/>
            </g>
          </g>
        </g>
      </g>
      <g id="Clouds" transform="translate(67.487 60.135)">
        <g id="Clouds-2" data-name="Clouds">
          <g id="Grupo_1007895" data-name="Grupo 1007895">
            <g id="Cloud">
              <path id="Trazado_722025" data-name="Trazado 722025" d="M123.552,62.349l-3.827,2.209a4.609,4.609,0,0,0,.032-.506V62.943c0-1.973-1.385-2.772-3.094-1.786a5.989,5.989,0,0,0-1.844,1.773c-.28-2.481-2.226-3.405-4.59-2.04a10.23,10.23,0,0,0-4.628,8.016v1.658a4.37,4.37,0,0,0,.392,1.922l-3.179,1.835a3.793,3.793,0,0,0-1.716,2.972c0,1.094.768,1.538,1.716.99l20.737-11.972a3.793,3.793,0,0,0,1.716-2.972C125.268,62.245,124.5,61.8,123.552,62.349Z" transform="translate(-101.099 -60.259)" fill="#c2e3f9"/>
            </g>
            <g id="Cloud-2" data-name="Cloud" transform="translate(21.893 10.416)">
              <path id="Trazado_722026" data-name="Trazado 722026" d="M168.287,85.926l-2.805,1.62a3.4,3.4,0,0,0,.023-.371v-.813c0-1.446-1.015-2.033-2.268-1.309a4.4,4.4,0,0,0-1.352,1.3c-.2-1.819-1.632-2.5-3.365-1.5a7.5,7.5,0,0,0-3.393,5.877V91.95a3.2,3.2,0,0,0,.287,1.408l-2.33,1.346a2.779,2.779,0,0,0-1.258,2.179c0,.8.563,1.128,1.258.726l15.2-8.777a2.78,2.78,0,0,0,1.258-2.179C169.545,85.851,168.982,85.525,168.287,85.926Z" transform="translate(-151.827 -84.394)" fill="#c2e3f9"/>
            </g>
          </g>
        </g>
      </g>
      <g id="Arrow" transform="translate(73.487 165.756)">
        <g id="Grupo_1007896" data-name="Grupo 1007896">
          <path id="Trazado_722027" data-name="Trazado 722027" d="M191.273,306.461V309.3a13.46,13.46,0,0,1-.466,3.15l-6.953,22.731a1.312,1.312,0,0,1-.475.7,1.235,1.235,0,0,1-1.4.039l-9.119-5.265-40.68,23.486a2.876,2.876,0,0,1-1.4.337,2.833,2.833,0,0,1-1.385-.328l-12.99-7.505A3.089,3.089,0,0,1,115,344.215v-2.835a2.849,2.849,0,0,1,.41-1.381,2.886,2.886,0,0,1,1-1.049l35.419-20.444-3.858-2.227a3.085,3.085,0,0,1-1.4-2.425v-2.835a1.824,1.824,0,0,1,.561-1.29h.009a1.725,1.725,0,0,1,1.04-.5L189.659,305a1.44,1.44,0,0,1,1.368.634A1.473,1.473,0,0,1,191.273,306.461Z" transform="translate(-115.001 -304.994)" fill="#288d8a"/>
          <path id="Trazado_722028" data-name="Trazado 722028" d="M130.785,394.972v5.606a2.829,2.829,0,0,1-1.385-.33l-12.993-7.5a3.094,3.094,0,0,1-1.4-2.428v-2.835a2.868,2.868,0,0,1,.408-1.379Z" transform="translate(-115.002 -351.099)" fill="#225453"/>
          <path id="Trazado_722029" data-name="Trazado 722029" d="M198.658,321.708l-5.257,3.036-3.858-2.227a3.094,3.094,0,0,1-1.4-2.428v-2.835a1.808,1.808,0,0,1,.563-1.288h.006Z" transform="translate(-156.574 -311.231)" fill="#225453"/>
          <path id="Trazado_722030" data-name="Trazado 722030" d="M259.587,356.448v5.224a1.231,1.231,0,0,1-1.4.039l-9.121-5.263v-6.072Z" transform="translate(-191.208 -330.791)" fill="#225453"/>
          <path id="Trazado_722031" data-name="Trazado 722031" d="M193.648,350.376v6.072L152.97,379.933a2.879,2.879,0,0,1-1.4.337v-5.606Z" transform="translate(-135.789 -330.791)" fill="#225453"/>
          <path id="Trazado_722032" data-name="Trazado 722032" d="M281.334,307.306v2.835a13.46,13.46,0,0,1-.466,3.15l-6.953,22.731a1.312,1.312,0,0,1-.475.7V331.5l7.647-25.014A1.473,1.473,0,0,1,281.334,307.306Z" transform="translate(-205.063 -305.84)" fill="#225453"/>
        </g>
      </g>
      <g id="Gears" transform="translate(41.968 60.041)">
        <g id="Grupo_1007922" data-name="Grupo 1007922">
          <g id="Grupo_1007897" data-name="Grupo 1007897" transform="translate(129.942 7.277)">
            <path id="Trazado_722033" data-name="Trazado 722033" d="M356.795,90.484l-12.334-7.121a20.094,20.094,0,0,0-1.4-6.361,11.92,11.92,0,0,1,7.16,1.221l.272.159C354.033,80.446,356.359,84.611,356.795,90.484Z" transform="translate(-343.058 -76.902)" fill="#288d8a"/>
            <path id="Trazado_722034" data-name="Trazado 722034" d="M356.795,90.484l-12.334-7.121a20.094,20.094,0,0,0-1.4-6.361,11.92,11.92,0,0,1,7.16,1.221l.272.159C354.033,80.446,356.359,84.611,356.795,90.484Z" transform="translate(-343.058 -76.902)" fill="#225453"/>
          </g>
          <g id="Grupo_1007904" data-name="Grupo 1007904" transform="translate(93.869 7.499)">
            <path id="Trazado_722035" data-name="Trazado 722035" d="M358.329,106.854h0a.6.6,0,0,0-.413.039l-4.618,2.08a.547.547,0,0,1-.768-.354c-.181-.583-3.345-1.253-3.6-1.753l1.777-4.409Z" transform="translate(-310.32 -91.651)" fill="#455a64"/>
            <path id="Trazado_722036" data-name="Trazado 722036" d="M299.857,88.239v-.01a.433.433,0,0,0-.4,0l-3.409-7.889a.7.7,0,0,0-.273-.9l-3.34-1.928a.7.7,0,0,0-.919.215l-3.835,5.768a1.277,1.277,0,0,1-1,.5,9.707,9.707,0,0,0-1.34.063V79.834l-2.563-1.478h0a.427.427,0,0,0-.419.037l-5.188,3a1.4,1.4,0,0,0-.618.968l-.52,5.772a1.932,1.932,0,0,1-.539,1.078,31.182,31.182,0,0,0-2.882,3.05.993.993,0,0,1-1.019.289l-3.33-1.163a.812.812,0,0,0-.935.347l-3.814,6.606a.813.813,0,0,0,.167.983l2.672,2.3a.993.993,0,0,1,.259,1.027,31.237,31.237,0,0,0-1.2,4.021,1.93,1.93,0,0,1-.664,1.006L260,111.014a1.4,1.4,0,0,0-.529,1.02v5.99a.422.422,0,0,0,.184.385h0l6.007,3.466-2.191,4.418a.7.7,0,0,0,.273.9l8.166,4.73a.7.7,0,0,0,.919-.215l3.711-3.794a.434.434,0,0,0,.2.354l7.606,4.39.2-5.955a12.679,12.679,0,0,1-1.577-2.432l8.291-9.028a.811.811,0,0,0,.934-.346l3.814-6.606a.813.813,0,0,0-.167-.983l3.672-11.693a1.4,1.4,0,0,0,.529-1.02Zm-20.1,25.2c-2.226,1.286-4.065,1.56-5.4.938-1.57-.73,11.163-22.56,12.5-21.368,1.08.964,1.666,2.751,1.666,5.25C288.523,103.846,284.6,110.642,279.76,113.436Z" transform="translate(-259.473 -77.417)" fill="#263238"/>
            <path id="Trazado_722037" data-name="Trazado 722037" d="M337.91,83.27l-1.031,2.084-3.315,3.824-3.906-2.257-5.472-3.163a.91.91,0,0,0,.276-.268l3.837-5.766a.7.7,0,0,1,.911-.22l3.349,1.933,5.08,2.93A.7.7,0,0,1,337.91,83.27Z" transform="translate(-296.258 -77.418)" fill="#455a64"/>
            <path id="Trazado_722038" data-name="Trazado 722038" d="M265.361,146.677a1.618,1.618,0,0,1-.351.37l-4.74,3.336a1.231,1.231,0,0,0-.325.379l7.969,4.61,6.292-3.579Z" transform="translate(-259.741 -116.786)" fill="#455a64"/>
            <path id="Trazado_722039" data-name="Trazado 722039" d="M273.132,109.7a.81.81,0,0,0-.623.381L268.7,116.69a.781.781,0,0,0-.085.509l8.351,4.832,5.22-7.062Z" transform="translate(-264.661 -95.77)" fill="#455a64"/>
            <path id="Trazado_722040" data-name="Trazado 722040" d="M312.993,83.947v1.9l-4.618,2.667-9.149-5.287a1.383,1.383,0,0,1,.535-.647l5.187-3a.537.537,0,0,1,.259-.078.324.324,0,0,1,.16.039l2.5,1.437.065.039,3.448,1.994Z" transform="translate(-282.07 -78.604)" fill="#455a64"/>
            <path id="Trazado_722041" data-name="Trazado 722041" d="M317.717,104.8V98.808a.387.387,0,0,0-.59-.382l-4.617,2.081a.548.548,0,0,1-.769-.356,10.354,10.354,0,0,0-1.03-2.289,1.274,1.274,0,0,1-.07-1.119l3.078-6.206a.7.7,0,0,0-.273-.9l-3.34-1.928a.7.7,0,0,0-.919.215l-3.836,5.768a1.277,1.277,0,0,1-1,.5,10.344,10.344,0,0,0-2.5.253.548.548,0,0,1-.693-.488l-.506-5.039a.387.387,0,0,0-.625-.321l-5.188,3a1.4,1.4,0,0,0-.619.968l-.52,5.772a1.93,1.93,0,0,1-.539,1.078,31.289,31.289,0,0,0-2.882,3.05.993.993,0,0,1-1.019.289l-3.33-1.163a.812.812,0,0,0-.935.347l-3.814,6.606a.812.812,0,0,0,.167.983l2.672,2.3a1,1,0,0,1,.259,1.028,31.205,31.205,0,0,0-1.2,4.021,1.923,1.923,0,0,1-.664,1.006l-4.739,3.336a1.4,1.4,0,0,0-.529,1.02v5.99a.387.387,0,0,0,.59.382l4.617-2.082a.549.549,0,0,1,.77.356,10.361,10.361,0,0,0,1.029,2.29,1.276,1.276,0,0,1,.07,1.119l-3.078,6.206a.7.7,0,0,0,.273.9l3.34,1.928a.7.7,0,0,0,.919-.215l3.835-5.768a1.277,1.277,0,0,1,1-.5,10.346,10.346,0,0,0,2.5-.254.548.548,0,0,1,.693.488l.506,5.04a.387.387,0,0,0,.625.321l5.188-3a1.4,1.4,0,0,0,.619-.968l.52-5.773a1.929,1.929,0,0,1,.539-1.078,31.216,31.216,0,0,0,2.881-3.049.993.993,0,0,1,1.02-.289l3.33,1.163a.813.813,0,0,0,.935-.347l3.814-6.606a.812.812,0,0,0-.167-.983l-2.672-2.3a.992.992,0,0,1-.259-1.027,31.285,31.285,0,0,0,1.2-4.021,1.929,1.929,0,0,1,.664-1.006l4.739-3.336A1.4,1.4,0,0,0,317.717,104.8ZM297.43,123.635c-4.841,2.795-8.764.529-8.764-5.06s3.924-12.386,8.764-15.18,8.764-.529,8.764,5.06S302.271,120.841,297.43,123.635Z" transform="translate(-269.518 -83.214)" fill="#37474f"/>
            <g id="Grupo_1007903" data-name="Grupo 1007903" transform="translate(20.339 22.231)">
              <g id="Grupo_1007900" data-name="Grupo 1007900">
                <g id="Grupo_1007899" data-name="Grupo 1007899">
                  <g id="Grupo_1007898" data-name="Grupo 1007898">
                    <path id="Trazado_722042" data-name="Trazado 722042" d="M318.577,130.634l-2.305-1.33h0l-.021-.013,0,0a3.99,3.99,0,0,0-3.981.406,12.52,12.52,0,0,0-5.664,9.81,3.984,3.984,0,0,0,1.654,3.663h0l0,0h0l2.1,1.2.5-.838a5.742,5.742,0,0,0,1.624-.632,12.523,12.523,0,0,0,5.664-9.81,6.065,6.065,0,0,0-.178-1.447Z" transform="translate(-306.601 -128.929)" fill="#288d8a"/>
                  </g>
                </g>
              </g>
              <g id="Grupo_1007901" data-name="Grupo 1007901" transform="translate(0.001 0)">
                <path id="Trazado_722043" data-name="Trazado 722043" d="M306.6,145.6a3.982,3.982,0,0,0,1.652,3.663v0l.006,0,2.1,1.2.5-.838a5.788,5.788,0,0,0,1.625-.633,11.784,11.784,0,0,0,4.215-4.607l-8.215-4.742A11.777,11.777,0,0,0,306.6,145.6Z" transform="translate(-306.603 -135.022)" fill="#225453"/>
                <path id="Trazado_722044" data-name="Trazado 722044" d="M321.058,130.635l-2.3-1.33h0l-.023-.013,0,0a3.985,3.985,0,0,0-3.98.405,11.308,11.308,0,0,0-3.78,3.854l8.215,4.742a11.339,11.339,0,0,0,1.45-5.2,6.028,6.028,0,0,0-.179-1.447Z" transform="translate(-309.082 -128.93)" fill="#fff" opacity="0.4"/>
              </g>
              <path id="Trazado_722045" data-name="Trazado 722045" d="M317.339,132.608a12.519,12.519,0,0,0-5.664,9.81c0,3.612,2.536,5.076,5.664,3.27a12.521,12.521,0,0,0,5.664-9.81C323,132.266,320.467,130.8,317.339,132.608Z" transform="translate(-309.485 -130.581)" fill="#288d8a"/>
              <g id="Grupo_1007902" data-name="Grupo 1007902" transform="translate(6.155 4.606)">
                <path id="Trazado_722046" data-name="Trazado 722046" d="M323.861,139.618a.081.081,0,0,1,.107.008.184.184,0,0,1,.045.138v.915a.522.522,0,0,1-.04.2c-.025.066-.05.124-.073.172l-.678,1.444a.786.786,0,0,1,.712.172,1.229,1.229,0,0,1,.275.924,3.334,3.334,0,0,1-.437,1.72,3.3,3.3,0,0,1-1.222,1.2,1.867,1.867,0,0,1-.715.266.869.869,0,0,1-.524-.085.785.785,0,0,1-.328-.359,1.33,1.33,0,0,1-.121-.557.366.366,0,0,1,.036-.154.237.237,0,0,1,.087-.107l.706-.408c.079-.045.139-.052.179-.021s.087.063.138.1a.419.419,0,0,0,.2.063.643.643,0,0,0,.345-.117,1.436,1.436,0,0,0,.445-.4.89.89,0,0,0,.177-.542q0-.3-.177-.339a.671.671,0,0,0-.445.12l-.466.269a.081.081,0,0,1-.107-.008.184.184,0,0,1-.045-.138v-.742a.531.531,0,0,1,.04-.2c.025-.067.052-.128.078-.184l.594-1.266-1.463.845a.082.082,0,0,1-.107-.007.184.184,0,0,1-.045-.138v-.915a.436.436,0,0,1,.045-.19.281.281,0,0,1,.107-.131Z" transform="translate(-320.862 -139.602)" fill="#37474f"/>
              </g>
            </g>
          </g>
          <path id="Trazado_722047" data-name="Trazado 722047" d="M243.1,61.683l-.207-.121c-3.97-2.356-9.495-2.054-15.6,1.467-12.1,6.979-21.911,23.974-21.911,37.952s-9.814,30.983-21.915,37.97a21.4,21.4,0,0,1-8.092,2.887,11.947,11.947,0,0,0,4.661,5.749l.216.129c3.97,2.339,9.482,2.025,15.567-1.489,12.1-6.987,21.911-23.987,21.911-37.969s9.81-30.974,21.915-37.953a21.345,21.345,0,0,1,8.1-2.887,11.921,11.921,0,0,1,7.16,1.221Z" transform="translate(-117.802 -60.041)" fill="#288d8a"/>
          <g id="Grupo_1007913" data-name="Grupo 1007913" transform="translate(49.292 27.803)">
            <g id="Grupo_1007905" data-name="Grupo 1007905" transform="translate(0.001 0)">
              <path id="Trazado_722048" data-name="Trazado 722048" d="M193.691,152.426l10.66-2.391a.071.071,0,0,0-.022-.013c-.255-.147-2.434-1.412-4.557-2.637-2.093-1.212-4.139-2.4-4.229-2.447a.594.594,0,0,0-.3-.086l-3.742-.211a.607.607,0,0,1-.63-.609,20.155,20.155,0,0,0,0-3.608,1.794,1.794,0,0,1,.41-1.1l5.986-.488c.255-.311,5.153-5.037,5.153-5.037l-.026-.013-8.8-5.1a.362.362,0,0,0-.168-.035c-2.533-1.463-6.974-4.035-7.078-4.1a.71.71,0,0,0-.432-.082l-4.363.432a1.217,1.217,0,0,0-.954.665l-2.365,6.344a2.088,2.088,0,0,1-.954.924c-.462.216-.924.462-1.39.729l-4.579-2.65c-.181-.121-.47-.043-.708.208l-4.79,5.058a1.266,1.266,0,0,0-.371,1.053l1.334,4.515a1.516,1.516,0,0,1-.246,1.087,36.515,36.515,0,0,0-2.2,3.828,1.744,1.744,0,0,1-1.04.773l-4.1.988a1.344,1.344,0,0,0-.928.773l-2.063,6.944a.449.449,0,0,0,.155.5c.091.073,4.644,2.693,4.644,2.693,0,.634.022,1.256.078,1.86a1.781,1.781,0,0,1-.406,1.105l-4.182,5.058a1.14,1.14,0,0,0-.25,1.04l1.985,4.389a.319.319,0,0,0,.125.142c.16.095,8.5,4.92,8.808,5.1,0,0,0,0,0,0l0,0h.009a.107.107,0,0,0,.026-.039c.043.026.086.047.129.078h0c2.49,1.441,6.81,3.94,7.082,4.1,0,0,.009,0,.013.008.121-.328,3.716-15.221,3.871-14.984l2.236,3.414a.417.417,0,0,0,.069.078l4.26,2.472,4.6,2.663,0-.009-3.323-10.375C189.077,166.453,195.771,153.829,193.691,152.426Zm-25.808,6.931,16.2-17.1a8.52,8.52,0,0,1,.669,3.556,9.808,9.808,0,0,1,1.1-.561q.052.563.052,1.191c0,5.593-3.923,12.387-8.765,15.183-.354.2-.7.385-1.036.539a9.377,9.377,0,0,1-.069-1.268C172.574,162.922,169.289,162.461,167.882,159.358Z" transform="translate(-156.186 -124.465)" fill="#263238"/>
            </g>
            <path id="Trazado_722049" data-name="Trazado 722049" d="M167.194,235.222l-.423-4.082-10.514-6.07a.815.815,0,0,0,.009.517l1.985,4.388a.3.3,0,0,0,.127.143h0l.021.012C158.825,230.374,167.193,235.221,167.194,235.222Z" transform="translate(-156.205 -181.651)" fill="#455a64"/>
            <path id="Trazado_722050" data-name="Trazado 722050" d="M168.5,186.937l-10.084-5.8a.831.831,0,0,0-.149.269l-2.064,6.946a.453.453,0,0,0,.158.506c.006,0,.032.021.074.046l4.544,2.632.024.014h0L165.23,194Z" transform="translate(-156.184 -156.679)" fill="#455a64"/>
            <path id="Trazado_722051" data-name="Trazado 722051" d="M177.732,145.2l8.82,5.064,5.819-5.834-8.8-5.1h0c-.182-.117-.469-.041-.706.21l-4.793,5.059A1.51,1.51,0,0,0,177.732,145.2Z" transform="translate(-168.432 -132.883)" fill="#455a64"/>
            <path id="Trazado_722052" data-name="Trazado 722052" d="M218.822,124.552a.679.679,0,0,0-.431-.083l-4.364.432a1.292,1.292,0,0,0-.729.346l11.472,6.623,2.931-1.692-.084-.534S218.966,124.643,218.822,124.552Z" transform="translate(-188.65 -124.464)" fill="#455a64"/>
            <g id="Grupo_1007906" data-name="Grupo 1007906" transform="translate(8.813 5.102)">
              <path id="Trazado_722053" data-name="Trazado 722053" d="M215.957,156.756a.071.071,0,0,0-.022-.013.647.647,0,0,0-.272-.069l-3.742-.211a.606.606,0,0,1-.63-.609c.052-.591.082-1.178.086-1.748a17.519,17.519,0,0,0-.082-1.86,1.814,1.814,0,0,1,.41-1.105l4.178-5.058a1.145,1.145,0,0,0,.255-1.041l-1.985-4.389a.294.294,0,0,0-.121-.138l-.026-.013a.605.605,0,0,0-.639.2l-4.462,4.074a.788.788,0,0,1-.975.164,6.946,6.946,0,0,0-1.908-1.109.715.715,0,0,1-.449-.782l1.377-6.244a.387.387,0,0,0-.19-.44.731.731,0,0,0-.414-.074l-4.363.436a1.2,1.2,0,0,0-.954.665l-2.365,6.344a2.036,2.036,0,0,1-.954.92,19.6,19.6,0,0,0-2.7,1.567c-.367.246-.777.263-.937.022l-2.231-3.41c-.16-.241-.518-.189-.807.108L186.243,148a1.262,1.262,0,0,0-.371,1.048l1.334,4.519a1.543,1.543,0,0,1-.242,1.088,36.45,36.45,0,0,0-2.205,3.824,1.749,1.749,0,0,1-1.04.777l-4.1.988a1.358,1.358,0,0,0-.928.768l-2.063,6.949a.492.492,0,0,0,.509.626l3.746.211a.61.61,0,0,1,.63.609,19.771,19.771,0,0,0-.009,3.608,1.761,1.761,0,0,1-.406,1.1l-4.178,5.063a1.139,1.139,0,0,0-.255,1.04l1.985,4.385a.272.272,0,0,0,.121.138s0,0,0,0a.015.015,0,0,0,.013,0,.324.324,0,0,0,.155.039h0a.771.771,0,0,0,.488-.229l4.458-4.078a.8.8,0,0,1,.975-.164,7.066,7.066,0,0,0,1.908,1.11.707.707,0,0,1,.449.781l-1.377,6.25a.384.384,0,0,0,.181.427s.009,0,.013.008a.676.676,0,0,0,.41.073l4.363-.432a1.217,1.217,0,0,0,.954-.665l2.369-6.344a2.064,2.064,0,0,1,.954-.923c.457-.216.924-.462,1.385-.73.436-.255.876-.535,1.316-.833.363-.25.777-.268.932-.025l2.236,3.414a.29.29,0,0,0,.108.1c.181.112.462.035.695-.211l4.795-5.062a1.268,1.268,0,0,0,.367-1.049L205.6,171.7a1.537,1.537,0,0,1,.246-1.087,35.768,35.768,0,0,0,2.2-3.828,1.741,1.741,0,0,1,1.044-.773l4.1-.988a1.335,1.335,0,0,0,.928-.773l2.067-6.944A.463.463,0,0,0,215.957,156.756Zm-21.876,16.969c-.082.022-.16.044-.242.061-.06.017-.117.026-.173.039q-.194.038-.388.064c-.153.022-.3.034-.451.044-.094.006-.187.009-.279.01h-.131a4.381,4.381,0,0,1-4.111-2.764,7.529,7.529,0,0,1-.6-2.288,9.375,9.375,0,0,1-.069-1.268,19.539,19.539,0,0,1,5.412-12.4,15.059,15.059,0,0,1,3.306-2.68,9.807,9.807,0,0,1,1.1-.561,6.956,6.956,0,0,1,3.094-.656.087.087,0,0,1,.035,0c.052,0,.1,0,.155.008s.108.009.16.017a1.18,1.18,0,0,1,.168.022,4.377,4.377,0,0,1,3.431,2.71c1.851,4.1-.272,11.242-4.743,15.96A12.479,12.479,0,0,1,194.081,173.725Z" transform="translate(-176.605 -136.287)" fill="#37474f"/>
            </g>
            <line id="Línea_2702" data-name="Línea 2702" x2="8.821" y2="5.107" transform="translate(37.418 4.222)" fill="#263238"/>
            <g id="Grupo_1007912" data-name="Grupo 1007912" transform="translate(21.089 23.213)">
              <g id="Grupo_1007909" data-name="Grupo 1007909">
                <g id="Grupo_1007908" data-name="Grupo 1007908">
                  <g id="Grupo_1007907" data-name="Grupo 1007907">
                    <path id="Trazado_722054" data-name="Trazado 722054" d="M217.025,179.957l-2.305-1.33h0l-.021-.012,0,0a3.991,3.991,0,0,0-3.981.406,12.521,12.521,0,0,0-5.664,9.811A3.984,3.984,0,0,0,206.7,192.5h0l0,0h0l2.1,1.2.5-.838a5.764,5.764,0,0,0,1.624-.632,12.524,12.524,0,0,0,5.664-9.81,6.069,6.069,0,0,0-.178-1.447Z" transform="translate(-205.049 -178.251)" fill="#288d8a"/>
                  </g>
                </g>
              </g>
              <g id="Grupo_1007910" data-name="Grupo 1007910" transform="translate(0.001 0)">
                <path id="Trazado_722055" data-name="Trazado 722055" d="M205.051,194.925c0,1.8.631,3.07,1.652,3.663v0l.006,0,2.1,1.2.5-.838a5.8,5.8,0,0,0,1.625-.633,11.779,11.779,0,0,0,4.215-4.607l-8.215-4.741A11.776,11.776,0,0,0,205.051,194.925Z" transform="translate(-205.051 -184.345)" fill="#225453"/>
                <path id="Trazado_722056" data-name="Trazado 722056" d="M219.506,179.957l-2.3-1.331h0l-.023-.013,0,0a3.985,3.985,0,0,0-3.98.4,11.313,11.313,0,0,0-3.78,3.855l8.215,4.741a11.336,11.336,0,0,0,1.45-5.2,6.033,6.033,0,0,0-.179-1.448Z" transform="translate(-207.53 -178.252)" fill="#fff" opacity="0.4"/>
              </g>
              <path id="Trazado_722057" data-name="Trazado 722057" d="M215.787,181.931a12.519,12.519,0,0,0-5.664,9.81c0,3.612,2.536,5.076,5.664,3.27a12.52,12.52,0,0,0,5.664-9.81C221.451,181.589,218.915,180.125,215.787,181.931Z" transform="translate(-207.933 -179.903)" fill="#288d8a"/>
              <g id="Grupo_1007911" data-name="Grupo 1007911" transform="translate(6.211 4.955)">
                <path id="Trazado_722058" data-name="Trazado 722058" d="M222.614,191.1a3.792,3.792,0,0,1-.034.5,3.23,3.23,0,0,1-.115.52,4.659,4.659,0,0,1-.213.559,6.462,6.462,0,0,1-.322.618l-.785,1.368,1.407-.812a.082.082,0,0,1,.107.007.185.185,0,0,1,.044.138v.915a.441.441,0,0,1-.044.189.28.28,0,0,1-.107.131l-2.96,1.709a.08.08,0,0,1-.107-.008.183.183,0,0,1-.044-.138v-.742a1.373,1.373,0,0,1,.036-.3,1.042,1.042,0,0,1,.127-.306l1.676-2.814a2.161,2.161,0,0,0,.247-.552,1.715,1.715,0,0,0,.051-.388,1.27,1.27,0,0,0-.014-.16.446.446,0,0,0-.065-.178.233.233,0,0,0-.143-.1.352.352,0,0,0-.249.067.784.784,0,0,0-.255.229,1.3,1.3,0,0,0-.151.273,1.447,1.447,0,0,0-.079.256c-.017.082-.029.143-.037.181a.441.441,0,0,1-.225.328l-.689.4a.066.066,0,0,1-.087-.006.148.148,0,0,1-.036-.113,3.663,3.663,0,0,1,.1-.779,3.954,3.954,0,0,1,.289-.819,3.606,3.606,0,0,1,.482-.753,2.512,2.512,0,0,1,.681-.574,1.3,1.3,0,0,1,.653-.208.7.7,0,0,1,.474.176,1.052,1.052,0,0,1,.289.48A2.353,2.353,0,0,1,222.614,191.1Z" transform="translate(-219.441 -189.734)" fill="#37474f"/>
              </g>
            </g>
          </g>
          <g id="Grupo_1007914" data-name="Grupo 1007914" transform="translate(42.29 57.868)">
            <path id="Trazado_722059" data-name="Trazado 722059" d="M155.244,218.056a21.486,21.486,0,0,1-1.472-8.277c0-6.9-2.387-11.774-6.262-14.1l-.393-.229a11.863,11.863,0,0,0-7.16-1.221,21.55,21.55,0,0,1,1.467,8.273c0,6.953,2.421,11.847,6.348,14.156l12.132,7.147A11.947,11.947,0,0,1,155.244,218.056Z" transform="translate(-139.958 -194.126)" fill="#288d8a"/>
            <path id="Trazado_722060" data-name="Trazado 722060" d="M155.244,218.056a21.486,21.486,0,0,1-1.472-8.277c0-6.9-2.387-11.774-6.262-14.1l-.393-.229a11.863,11.863,0,0,0-7.16-1.221,21.55,21.55,0,0,1,1.467,8.273c0,6.953,2.421,11.847,6.348,14.156l12.132,7.147A11.947,11.947,0,0,1,155.244,218.056Z" transform="translate(-139.958 -194.126)" fill="#225453"/>
          </g>
          <g id="Grupo_1007921" data-name="Grupo 1007921" transform="translate(6.303 58.056)">
            <path id="Trazado_722061" data-name="Trazado 722061" d="M155.429,224h0a.605.605,0,0,0-.413.04l-4.618,2.08a.547.547,0,0,1-.768-.353c-.181-.583-3.345-1.253-3.6-1.754L147.8,219.6Z" transform="translate(-107.42 -208.796)" fill="#455a64"/>
            <path id="Trazado_722062" data-name="Trazado 722062" d="M96.957,205.384v-.01a.433.433,0,0,0-.4,0l-3.409-7.889a.7.7,0,0,0-.273-.9l-3.34-1.928a.7.7,0,0,0-.919.215l-3.835,5.768a1.276,1.276,0,0,1-1,.5,9.775,9.775,0,0,0-1.34.063v-4.218L79.872,195.5h0a.426.426,0,0,0-.419.038l-5.188,3a1.4,1.4,0,0,0-.618.968l-.52,5.772a1.932,1.932,0,0,1-.539,1.078,31.186,31.186,0,0,0-2.882,3.05.993.993,0,0,1-1.019.289l-3.33-1.163a.813.813,0,0,0-.935.347l-3.814,6.606a.813.813,0,0,0,.167.983l2.672,2.3a.994.994,0,0,1,.259,1.028,31.236,31.236,0,0,0-1.2,4.021,1.931,1.931,0,0,1-.664,1.006l-4.74,3.336a1.4,1.4,0,0,0-.529,1.02v5.991a.422.422,0,0,0,.184.385h0l6.006,3.467-2.191,4.417a.7.7,0,0,0,.273.9l8.166,4.73a.7.7,0,0,0,.919-.215l3.711-3.794a.434.434,0,0,0,.2.354l7.606,4.39.2-5.955a12.677,12.677,0,0,1-1.577-2.432l8.291-9.028a.811.811,0,0,0,.934-.346l3.814-6.606a.813.813,0,0,0-.167-.983l3.672-11.693a1.4,1.4,0,0,0,.529-1.02Zm-20.1,25.2c-2.226,1.285-4.065,1.56-5.4.938-1.569-.73,11.163-22.56,12.5-21.368,1.08.964,1.666,2.752,1.666,5.25C85.623,220.991,81.7,227.787,76.859,230.581Z" transform="translate(-56.573 -194.562)" fill="#263238"/>
            <g id="Grupo_1007920" data-name="Grupo 1007920" transform="translate(20.422 21.95)">
              <g id="Grupo_1007917" data-name="Grupo 1007917">
                <g id="Grupo_1007916" data-name="Grupo 1007916">
                  <g id="Grupo_1007915" data-name="Grupo 1007915">
                    <path id="Trazado_722063" data-name="Trazado 722063" d="M115.869,247.127l-2.305-1.33h0l-.021-.012,0,0a3.991,3.991,0,0,0-3.981.406,12.521,12.521,0,0,0-5.664,9.81,3.984,3.984,0,0,0,1.654,3.663h0l0,0h0l2.1,1.2.5-.838a5.765,5.765,0,0,0,1.624-.632,12.524,12.524,0,0,0,5.664-9.81,6.068,6.068,0,0,0-.178-1.447Z" transform="translate(-103.893 -245.422)" fill="#288d8a"/>
                  </g>
                </g>
              </g>
              <g id="Grupo_1007918" data-name="Grupo 1007918" transform="translate(0.001 0)">
                <path id="Trazado_722064" data-name="Trazado 722064" d="M103.895,262.1c0,1.8.631,3.07,1.652,3.663v0l.006,0,2.1,1.2.5-.838a5.8,5.8,0,0,0,1.625-.633,11.782,11.782,0,0,0,4.215-4.607l-8.215-4.741A11.776,11.776,0,0,0,103.895,262.1Z" transform="translate(-103.895 -251.516)" fill="#225453"/>
                <path id="Trazado_722065" data-name="Trazado 722065" d="M118.35,247.128l-2.3-1.331h0l-.021-.013,0,0a3.985,3.985,0,0,0-3.98.4,11.313,11.313,0,0,0-3.78,3.855l8.215,4.741a11.339,11.339,0,0,0,1.45-5.2,6.033,6.033,0,0,0-.179-1.448Z" transform="translate(-106.374 -245.423)" fill="#fff" opacity="0.4"/>
              </g>
              <path id="Trazado_722066" data-name="Trazado 722066" d="M114.631,249.1a12.518,12.518,0,0,0-5.664,9.81c0,3.612,2.536,5.076,5.664,3.27a12.52,12.52,0,0,0,5.664-9.81C120.3,248.76,117.759,247.3,114.631,249.1Z" transform="translate(-106.777 -247.074)" fill="#288d8a"/>
              <g id="Grupo_1007919" data-name="Grupo 1007919" transform="translate(6.168 5.145)">
                <path id="Trazado_722067" data-name="Trazado 722067" d="M118.215,260.56a.22.22,0,0,1-.028-.157.491.491,0,0,1,.062-.191l1.2-2.12c.03-.052.066-.113.11-.184a.428.428,0,0,1,.149-.155l.684-.4a.081.081,0,0,1,.106.008.185.185,0,0,1,.044.138v5.576a.443.443,0,0,1-.044.19.285.285,0,0,1-.106.13l-.735.424a.08.08,0,0,1-.106-.008.181.181,0,0,1-.045-.138v-3.772l-.667,1.162a.227.227,0,0,1-.112.112.079.079,0,0,1-.1-.032Z" transform="translate(-118.184 -257.343)" fill="#37474f"/>
              </g>
            </g>
            <path id="Trazado_722068" data-name="Trazado 722068" d="M135.01,200.415l-1.031,2.084-3.314,3.824-3.906-2.257-5.472-3.163a.91.91,0,0,0,.276-.268l3.837-5.766a.7.7,0,0,1,.911-.22l3.349,1.933,5.08,2.93A.7.7,0,0,1,135.01,200.415Z" transform="translate(-93.358 -194.563)" fill="#455a64"/>
            <path id="Trazado_722069" data-name="Trazado 722069" d="M62.461,263.822a1.617,1.617,0,0,1-.351.37l-4.74,3.336a1.233,1.233,0,0,0-.325.379l7.969,4.61,6.292-3.579Z" transform="translate(-56.841 -233.931)" fill="#455a64"/>
            <path id="Trazado_722070" data-name="Trazado 722070" d="M70.232,226.849a.81.81,0,0,0-.623.38L65.8,233.835a.781.781,0,0,0-.085.509l8.351,4.832,5.22-7.062Z" transform="translate(-61.761 -212.915)" fill="#455a64"/>
            <path id="Trazado_722071" data-name="Trazado 722071" d="M110.093,201.092v1.9l-4.618,2.667-9.149-5.287a1.383,1.383,0,0,1,.535-.647l5.188-3a.537.537,0,0,1,.259-.078.324.324,0,0,1,.16.039l2.5,1.437.065.039,3.448,1.994Z" transform="translate(-79.17 -195.749)" fill="#455a64"/>
            <path id="Trazado_722072" data-name="Trazado 722072" d="M114.816,221.944v-5.991a.387.387,0,0,0-.59-.382l-4.617,2.081a.548.548,0,0,1-.769-.356,10.354,10.354,0,0,0-1.03-2.289,1.274,1.274,0,0,1-.07-1.119l3.078-6.206a.7.7,0,0,0-.273-.9l-3.34-1.928a.7.7,0,0,0-.919.215l-3.836,5.768a1.276,1.276,0,0,1-1,.5,10.346,10.346,0,0,0-2.5.253.548.548,0,0,1-.693-.488l-.506-5.039a.387.387,0,0,0-.625-.32l-5.188,3a1.4,1.4,0,0,0-.619.968l-.52,5.772a1.931,1.931,0,0,1-.539,1.078,31.24,31.24,0,0,0-2.882,3.05.993.993,0,0,1-1.019.289l-3.33-1.163a.812.812,0,0,0-.935.347l-3.814,6.606a.812.812,0,0,0,.167.983l2.672,2.3A1,1,0,0,1,81.376,230a31.209,31.209,0,0,0-1.2,4.021,1.926,1.926,0,0,1-.664,1.006l-4.739,3.336a1.4,1.4,0,0,0-.53,1.02v5.991a.387.387,0,0,0,.59.381l4.617-2.081a.549.549,0,0,1,.769.356,10.365,10.365,0,0,0,1.029,2.29,1.276,1.276,0,0,1,.07,1.119l-3.078,6.206a.7.7,0,0,0,.273.9l3.34,1.928a.7.7,0,0,0,.919-.216l3.835-5.768a1.28,1.28,0,0,1,1-.5,10.344,10.344,0,0,0,2.5-.253.548.548,0,0,1,.693.488l.506,5.04a.386.386,0,0,0,.625.32l5.188-3a1.4,1.4,0,0,0,.619-.968l.52-5.773a1.929,1.929,0,0,1,.539-1.078,31.171,31.171,0,0,0,2.881-3.05.994.994,0,0,1,1.019-.289l3.33,1.163a.813.813,0,0,0,.935-.347l3.814-6.606a.813.813,0,0,0-.167-.984l-2.672-2.3a1,1,0,0,1-.259-1.028,31.214,31.214,0,0,0,1.2-4.021,1.926,1.926,0,0,1,.664-1.006l4.739-3.336A1.4,1.4,0,0,0,114.816,221.944ZM94.53,240.78c-4.841,2.794-8.764.529-8.764-5.06s3.924-12.386,8.764-15.181,8.764-.529,8.764,5.06S99.37,237.986,94.53,240.78Z" transform="translate(-66.617 -200.359)" fill="#37474f"/>
          </g>
          <path id="Trazado_722073" data-name="Trazado 722073" d="M91.418,185.864a11.863,11.863,0,0,0-7.16-1.221,21.366,21.366,0,0,0-8.1,2.888c-11.5,6.638-20.923,22.312-21.838,35.846L41.968,216.1c.911-13.535,10.345-29.214,21.842-35.851,5.977-3.453,11.394-3.815,15.347-1.614l.466.277Z" transform="translate(-41.968 -126.672)" fill="#288d8a"/>
        </g>
      </g>
      <g id="Character" transform="translate(176.329 96.261)">
        <g id="Grupo_1007928" data-name="Grupo 1007928" transform="translate(0 0)">
          <path id="Rectángulo_348017" data-name="Rectángulo 348017" d="M7.8,0h7.437a0,0,0,0,1,0,0V8.009a7.618,7.618,0,0,1-7.618,7.618h0A7.618,7.618,0,0,1,0,8.009V7.8A7.8,7.8,0,0,1,7.8,0Z" transform="translate(28.714 15.627) rotate(180)" fill="#263238"/>
          <path id="Trazado_722074" data-name="Trazado 722074" d="M415.8,145.5l-1.12,1a.751.751,0,0,1,1.12-1Z" transform="translate(-388.079 -144.698)" fill="#263238"/>
          <path id="Trazado_722075" data-name="Trazado 722075" d="M416.251,148.006l-1.468-.315a.751.751,0,1,1,1.468.315Z" transform="translate(-388.247 -145.746)" fill="#263238"/>
          <g id="Grupo_1007923" data-name="Grupo 1007923" transform="translate(9.842 36.071)">
            <path id="Trazado_722076" data-name="Trazado 722076" d="M379.517,346.767a20.2,20.2,0,0,1-2.907,2.528,1.226,1.226,0,0,0-.4.417c-.138.285-.35.991.949,1.444a4.835,4.835,0,0,0,4.011-.385c1.067-.668,1.115-2.058,2.122-2.851.746-.588,1.678-.738,2.281-1.506.42-.534.311-1.245.091-2.125-.239-.961-.349-1.688-.667-1.614l.052.442c-.4.634-2.453.82-3.368.383A37.6,37.6,0,0,1,379.517,346.767Z" transform="translate(-376.103 -292.986)" fill="#263238"/>
            <path id="Trazado_722077" data-name="Trazado 722077" d="M380.805,344.045v-.007c.309-.283.612-.575.9-.892a25.028,25.028,0,0,0,1.678-2.474,2.782,2.782,0,0,0,.47-1.771l-.256-2.368,3.259-.23.378,3.2h0c.079.724-.52,1.367-1.58,2.281s-2.407,3.045-3.367,3.581-1.646.516-2.056.242S379.771,345.1,380.805,344.045Z" transform="translate(-378.293 -289.365)" fill="#ffa8a7"/>
            <path id="Trazado_722078" data-name="Trazado 722078" d="M405.591,352.187V351.7a11.664,11.664,0,0,1-2.448,4.287c-1.08.985-2.554,2.123-2.929,3.222-.39,1.142,2.051,1.526,3.06,1.348a6.226,6.226,0,0,0,3.516-1.888c.581-.713.951-1.559,1.365-2.12s1.37-1.187,1.595-1.837a4.141,4.141,0,0,0-.2-1.8c-.159-.605-.331-1.271-.537-1.214,0,.074,0,.373,0,.373a2.71,2.71,0,0,1-1.712.579C406.8,352.669,405.587,352.569,405.591,352.187Z" transform="translate(-389.785 -298.115)" fill="#263238"/>
            <path id="Trazado_722079" data-name="Trazado 722079" d="M404.3,353.158c.335-.3.672-.591.978-.87a9.939,9.939,0,0,0,2.088-3.336,4.7,4.7,0,0,0,.36-1.8V345.2h3.424v3.177h0v.085l-.017.009c-.165.712-1.736,2.605-2.63,3.839a4.97,4.97,0,0,1-3.095,2.062C404.119,354.541,403.461,354.134,404.3,353.158Z" transform="translate(-391.918 -294.422)" fill="#ffa8a7"/>
            <path id="Trazado_722080" data-name="Trazado 722080" d="M396.231,228.393c2.655,5.8-.1,26.226-.1,26.226.08.941,1.156,2.793,1.557,6.935.473,4.894-.743,17.181-.743,17.181a3.707,3.707,0,0,1-3.461.138s-3.264-18.506-3.878-23.372c-.536-4.246-1.564-14.227-1.564-14.227l-2.922,14.2a16.763,16.763,0,0,1,1.3,4.257c.277,2.862-.019,15.254-.019,15.254a4.716,4.716,0,0,1-3.413.56s-3.8-17.276-4.1-20.72c-.18-2.058,2.166-27.284,2.166-27.284Z" transform="translate(-377.682 -227.545)" fill="#37474f"/>
            <path id="Trazado_722081" data-name="Trazado 722081" d="M392,250.068l-.862-4.742s-3.647-.755-5.3-2.31a9.431,9.431,0,0,0,4.312,2.865l.968,4.147-1.692,12.556Z" transform="translate(-381.638 -236.339)" fill="#263238"/>
          </g>
          <g id="Grupo_1007924" data-name="Grupo 1007924" transform="translate(7.377 16.618)">
            <path id="Trazado_722082" data-name="Trazado 722082" d="M421.2,214.829c-.028-.38-.74-4.44-1.23-6.711l-4.774,1.463.848,4.178,4.022,3.228C421.33,216.737,421.231,215.21,421.2,214.829Z" transform="translate(-395.861 -197.05)" fill="#ffa8a7"/>
            <path id="Trazado_722083" data-name="Trazado 722083" d="M372.646,203.834l-2.256,4.137,3.51,3.008,3.215-5.1Z" transform="translate(-370.39 -194.615)" fill="#f28f8f"/>
            <path id="Trazado_722084" data-name="Trazado 722084" d="M383.317,182.472c-2.237.023-4.7.836-5.55,2.591s-3.5,7.219-3.5,7.219,1.978,2.9,5.115,2.692Z" transform="translate(-372.595 -182.472)" fill="#288d8a"/>
            <path id="Trazado_722085" data-name="Trazado 722085" d="M383.317,182.472c-2.237.023-4.7.836-5.55,2.591s-3.5,7.219-3.5,7.219,1.978,2.9,5.115,2.692Z" transform="translate(-372.595 -182.472)" fill="#225453"/>
            <path id="Trazado_722086" data-name="Trazado 722086" d="M393.859,182.627h0a6.719,6.719,0,0,1,4.494,3.676,5.825,5.825,0,0,1,.161,4.387l-2.372,6.862s1.11,2.684,2.4,5.221c-5.953,3.323-13.386,1.576-15.175-.848-.076-.514.027-2.832-.117-5.47-.154-2.812-.54-5.988-.1-7.726.821-3.227,2.359-6.256,5.419-6.256Z" transform="translate(-377.527 -182.472)" fill="#288d8a"/>
            <path id="Trazado_722087" data-name="Trazado 722087" d="M410.284,182.831c2.031.287,5.014.7,6.042,5.525,1.043,4.893,1.343,6.594,1.343,6.594a6.771,6.771,0,0,1-5.037,1.924l-1.048-3.71Z" transform="translate(-393.067 -182.676)" fill="#288d8a"/>
            <path id="Trazado_722088" data-name="Trazado 722088" d="M413.6,207.785s-.688-2.18-1.1-3.951a27.154,27.154,0,0,0,.552,5.548Z" transform="translate(-394.323 -194.615)" fill="#225453"/>
          </g>
          <g id="Grupo_1007925" data-name="Grupo 1007925" transform="translate(14.274 3.081)">
            <path id="Trazado_722089" data-name="Trazado 722089" d="M388.078,151.1c-.8.476-1.8,2.5-1.7,6.742.083,3.6,1.249,4.484,1.834,4.74a6.183,6.183,0,0,0,2.811-.083v2.158s-1.517,1.761-1.421,2.751,2.189,1.224,3.609.257a9.184,9.184,0,0,0,2.329-2.438v-5.216a1.377,1.377,0,0,0,1.952.184,2.583,2.583,0,0,0,.553-3.511,1.57,1.57,0,0,0-2.506.5,8.672,8.672,0,0,1-4.08-1.216A6.547,6.547,0,0,1,388.078,151.1Z" transform="translate(-386.37 -151.104)" fill="#ffa8a7"/>
            <path id="Trazado_722090" data-name="Trazado 722090" d="M395.687,164.042a.452.452,0,1,0,.475-.448A.46.46,0,0,0,395.687,164.042Z" transform="translate(-391.666 -158.204)" fill="#263238"/>
            <path id="Trazado_722091" data-name="Trazado 722091" d="M394.025,171.7l-1.05.335a.542.542,0,0,0,.683.377A.578.578,0,0,0,394.025,171.7Z" transform="translate(-390.125 -162.808)" fill="#f28f8f"/>
            <path id="Trazado_722092" data-name="Trazado 722092" d="M386.978,160.248l.915-.634a.535.535,0,0,0-.76-.156A.585.585,0,0,0,386.978,160.248Z" transform="translate(-386.664 -155.798)" fill="#263238"/>
            <path id="Trazado_722093" data-name="Trazado 722093" d="M387.586,163.285a.452.452,0,1,0,.475-.448A.46.46,0,0,0,387.586,163.285Z" transform="translate(-387.061 -157.773)" fill="#263238"/>
            <path id="Trazado_722094" data-name="Trazado 722094" d="M390.548,163.275,390.476,166l-1.433-.444Z" transform="translate(-387.89 -158.023)" fill="#f28f8f"/>
            <path id="Trazado_722095" data-name="Trazado 722095" d="M397.149,175.178c1.157-.151,3.535-.835,3.906-1.775a2.433,2.433,0,0,1-.834,1.2,12.517,12.517,0,0,1-3.072,1.3Z" transform="translate(-392.497 -163.779)" fill="#f28f8f"/>
          </g>
          <g id="Grupo_1007927" data-name="Grupo 1007927" transform="translate(0 25.38)">
            <path id="Trazado_722096" data-name="Trazado 722096" d="M353.3,203.245l13.127,3.458,3.875,16.292-12.481-3.625Z" transform="translate(-353.297 -203.041)" fill="#f5f5f5"/>
            <path id="Trazado_722097" data-name="Trazado 722097" d="M363.19,228.224a2.358,2.358,0,0,1-2.368,1.183l-.189-.674Z" transform="translate(-357.467 -217.24)" fill="#e0e0e0"/>
            <path id="Trazado_722098" data-name="Trazado 722098" d="M373.357,229.4c.058.434.951,1.239,2.46,1.741a12.489,12.489,0,0,0,4.352.27l-.236-.81Z" transform="translate(-364.7 -217.911)" fill="#e0e0e0"/>
            <path id="Trazado_722099" data-name="Trazado 722099" d="M362.056,207.769l-.108-.5c-.06-.276.71-.288,1.721-.026l1.934.5c1.01.262,1.878.7,1.937.975l.108.5Z" transform="translate(-358.213 -205.205)" fill="#e0e0e0"/>
            <g id="Grupo_1007926" data-name="Grupo 1007926" transform="translate(2.93)">
              <path id="Trazado_722100" data-name="Trazado 722100" d="M360.09,203.447c-.038-.173.274-.218.7-.1l.766.211s-.228-1.083,1.471-.7a2.663,2.663,0,0,1,2.071,1.608l.818.232c.451.128.861.372.914.544l.1.312-6.762-1.781S360.128,203.62,360.09,203.447Z" transform="translate(-360.087 -202.773)" fill="#37474f"/>
              <path id="Trazado_722101" data-name="Trazado 722101" d="M361.993,205.315c.62.15.877.232.97.658.106.487.149.844.149.844l2.993.791s-.145-.617-.191-.857.056-.385.532-.259l.041-.191-4.69-1.194Z" transform="translate(-361.058 -204.1)" fill="#37474f"/>
              <path id="Trazado_722102" data-name="Trazado 722102" d="M361.866,207.878l-.108-.5c-.06-.277.711-.288,1.721-.026l1.934.5c1.01.262,1.877.7,1.937.975l.108.5Z" transform="translate(-361.035 -205.268)" fill="#37474f"/>
            </g>
          </g>
          <path id="Trazado_722103" data-name="Trazado 722103" d="M395.423,223.208,391.4,219.98s-8.887,1.583-9.932,1.665a2.738,2.738,0,0,1-2.6-1.681c-.4-1.025-1.1-.9-1.1-.9l.408,1.714c.1.415-2.4.756-3.793.286s-3.4.212-2.153,2.1,3.665,2.108,5.347,2.11a17.618,17.618,0,0,0,2.1-.141c.544-.07,1.085-.125,1.633-.164C384.754,224.729,393.858,223.7,395.423,223.208Z" transform="translate(-363.837 -186.652)" fill="#ffa8a7"/>
          <path id="Trazado_722104" data-name="Trazado 722104" d="M355.152,213.9l.583,2.077c.112.4,1.639,1.127,2.6,1.393s2.02.579,1.564,1.928c-.421,1.244-2.009,1.528-2.817,1.493a2.988,2.988,0,0,1-2.351-2.053c-.556-1.589-.257-3.286-.477-4.213S354.668,213.344,355.152,213.9Z" transform="translate(-353.817 -183.551)" fill="#ffa8a7"/>
        </g>
      </g>
    </g>
  </g>
</svg>
