<svg xmlns="http://www.w3.org/2000/svg" xmlns:xlink="http://www.w3.org/1999/xlink" width="505" height="301" viewBox="0 0 505 301">
  <defs>
    <clipPath id="clip-path">
      <rect id="Rectángulo_347943" data-name="Rectángulo 347943" width="505" height="301" transform="translate(-60)" fill="none"/>
    </clipPath>
    <clipPath id="clip-path-2">
      <rect id="Rectángulo_347944" data-name="Rectángulo 347944" width="202.581" height="79.88" transform="translate(202.581 79.88) rotate(180)" fill="none"/>
    </clipPath>
  </defs>
  <g id="Grupo_1013478" data-name="Grupo 1013478" transform="translate(3094 9013)">
    <rect id="_19d0ead6a9" data-name="19d0ead6a9" width="505" height="300" rx="19" transform="translate(-3094 -9013)" fill="#fff"/>
    <g id="Grupo_1007254" data-name="Grupo 1007254" transform="translate(-3034 -9013)" clip-path="url(#clip-path)">
      <g id="Grupo_1007253" data-name="Grupo 1007253" transform="translate(-32.134 -16.738)">
        <path id="Trazado_720805" data-name="Trazado 720805" d="M90.327-27.455C85.891-4.636,72.462,15.457,57.195,32.986S24.55,66.169,9.975,84.279s-26.489,39.418-28.241,62.6c-.716,9.479.86,20.173,8.305,26.083" transform="translate(-20.581 27.455)" fill="none" stroke="#f2b366" stroke-miterlimit="10" stroke-width="1"/>
        <path id="Trazado_720806" data-name="Trazado 720806" d="M81.24-18.964,20.811,86.742C9.986,105.676-.9,124.751-7.986,145.378s-10.21,43.137-5.14,64.35" transform="translate(-21.694 24.08)" fill="none" stroke="#f2b366" stroke-miterlimit="10" stroke-width="1"/>
        <path id="Trazado_720807" data-name="Trazado 720807" d="M351.577-8.932c-1.393,20.623,6.013,41.194,17.8,58.175s27.732,30.68,44.619,42.6c9.758,6.888,20.032,13.374,27.785,22.459s12.721,21.517,9.662,33.063" transform="translate(32.4 20.092)" fill="none" stroke="#f2b366" stroke-miterlimit="10" stroke-width="1"/>
        <path id="Trazado_720808" data-name="Trazado 720808" d="M375.293-14.227a89.194,89.194,0,0,0,4.8,68.482c15.138,29.785,46.058,49.067,61.522,78.684a91.091,91.091,0,0,1,4.006,74.35c-7.957,20.3-22.914,36.9-35.334,54.825s-22.784,39.227-19.452,60.777" transform="translate(24.764 22.196)" fill="none" stroke="#f2b366" stroke-miterlimit="10" stroke-width="1"/>
        <path id="Trazado_720809" data-name="Trazado 720809" d="M496.921,215.266c1.009,14.471-2.624,28.891-7.569,42.527s-11.222,26.774-15.821,40.532a177.862,177.862,0,0,0-.125,111.471" transform="translate(-12.56 -69.034)" fill="none" stroke="#f2b366" stroke-miterlimit="10" stroke-width="1"/>
        <path id="Trazado_720810" data-name="Trazado 720810" d="M-35.477,343.413c13.27,17.916,27.605,35.663,46.455,47.571,17.2,10.867,37.233,16.28,55.485,25.271s35.811,23.261,40.27,43.113" transform="translate(-3.801 -119.976)" fill="none" stroke="#f2b366" stroke-miterlimit="10" stroke-width="1"/>
        <path id="Trazado_720811" data-name="Trazado 720811" d="M105.69,472.426c-8.174-14.515-24.257-22.932-40.418-26.97s-33-4.478-49.389-7.436a163.443,163.443,0,0,1-69.157-30.276" transform="translate(3.274 -145.55)" fill="none" stroke="#f2b366" stroke-miterlimit="10" stroke-width="1"/>
      </g>
    </g>
    <g id="Grupo_1007386" data-name="Grupo 1007386" transform="translate(-3079.151 -9008.287)">
      <g id="Grupo_1007259" data-name="Grupo 1007259" transform="translate(26.151 33.287)">
        <path id="Trazado_720812" data-name="Trazado 720812" d="M428.577,293.066H39.684c-11.209-5.133-15.064-23.783-13-35.937s9.29-22.717,16.439-32.761,14.58-20.4,17.154-32.456c4.357-20.4-5.949-40.835-8.161-61.581A79.815,79.815,0,0,1,126.584,42.2c23.869-1.467,47.205,7.78,71.115,8.241,21.113.407,41.662-6.021,62.155-11.114s42.193-8.875,62.545-3.242,38.795,23.171,39.017,44.286c.147,13.984-7.336,28.519-1.852,41.383,5.511,12.927,21.055,17.4,33.8,23.332A96.993,96.993,0,0,1,445.848,209C452.62,236.7,445.957,270.465,428.577,293.066Z" transform="translate(-26.151 -33.287)" fill="#d9eeee"/>
        <path id="Trazado_720813" data-name="Trazado 720813" d="M592,134.8c3.276,8.258,10.321,14.437,17.737,19.329,6.607,4.358,14.149,8.068,22.051,7.622,9.257-.524,17.606-7.026,21.54-15.422s3.789-18.341.852-27.135-8.475-16.533-14.909-23.209c-6.2-6.434-13.751-12.208-22.6-13.477-10.177-1.461-20.164,4.357-22,14.546C592.415,109.595,586.972,122.122,592,134.8Z" transform="translate(-248.688 -52.627)" fill="#d9eeee"/>
      </g>
      <g id="Grupo_1007301" data-name="Grupo 1007301" transform="translate(38.113 194.458)">
        <g id="Grupo_1007295" data-name="Grupo 1007295" transform="translate(102.249 18.746)">
          <g id="Grupo_1007294" data-name="Grupo 1007294" clip-path="url(#clip-path-2)">
            <g id="Grupo_1007293" data-name="Grupo 1007293" transform="translate(7.095 2.087)">
              <g id="Grupo_1007260" data-name="Grupo 1007260" transform="translate(120.652 51.504)">
                <path id="Trazado_720814" data-name="Trazado 720814" d="M469.959,451.742a71.623,71.623,0,0,1-15.909,6.641l-1.9.52c-.63.153-1.257.287-1.873.418-1.237.255-2.431.5-3.606.675a48.851,48.851,0,0,1-6.6.551c-8.195.1-13.426-2.187-14.092-5.542-.692-3.445,3.046-7.309,8.908-11.462,1.48-1.008,3.07-2.134,4.8-3.189.863-.539,1.741-1.12,2.658-1.668l1.4-.827,1.418-.869c3.847-2.282,8.058-4.656,12.468-7.159s8.245-4.625,11.682-6.269a53.389,53.389,0,0,1,9.048-3.646,21.313,21.313,0,0,1,3.712-.736,12.81,12.81,0,0,1,3.172-.018,7.751,7.751,0,0,1,4.76,2.269,6.955,6.955,0,0,1,1.885,4.915,12.314,12.314,0,0,1-.472,3.334,20.614,20.614,0,0,1-1.6,3.83,37.051,37.051,0,0,1-7,8.872A65.657,65.657,0,0,1,469.959,451.742Z" transform="translate(-425.897 -419.075)" fill="#ffa031"/>
                <path id="Trazado_720815" data-name="Trazado 720815" d="M489.457,423.884h0a181.817,181.817,0,0,1-30,19.791,171.58,171.58,0,0,1-17.414,7.835c-5.713,2.206-11.2,3.965-16.007,5.394h0a97.762,97.762,0,0,0,16.61-3.658,110.041,110.041,0,0,0,17.942-7.4A103.929,103.929,0,0,0,489.457,423.884Z" transform="translate(-425.951 -420.973)" fill="#fff1e0"/>
              </g>
              <g id="Grupo_1007274" data-name="Grupo 1007274" transform="translate(117.543 15.251)">
                <g id="Grupo_1007261" data-name="Grupo 1007261" transform="translate(15.631 34.663)">
                  <path id="Trazado_720816" data-name="Trazado 720816" d="M446.585,433.656h0a23.738,23.738,0,0,0,8.855.9,31.04,31.04,0,0,0,5.113-.935,31.171,31.171,0,0,0,10.042-4.94,29.5,29.5,0,0,0,4.269-3.736c.645-.672,1.277-1.35,1.846-2.053.553-.712,1.074-1.432,1.56-2.151a24.2,24.2,0,0,0,2.4-4.292h0l-1.729,1.507-1.87,1.513c-1.284,1.009-2.54,2.074-3.969,3.035-1.405.975-2.819,1.948-4.292,2.849-1.5.881-3.023,1.723-4.536,2.506a62.5,62.5,0,0,1-9.252,3.674C452.05,432.51,449.093,433.079,446.585,433.656Z" transform="translate(-446.585 -416.448)" fill="#ffdeb7"/>
                </g>
                <g id="Grupo_1007262" data-name="Grupo 1007262" transform="translate(9.994 47.854)">
                  <path id="Trazado_720817" data-name="Trazado 720817" d="M437.271,447.1h0a19.622,19.622,0,0,0,7.4,2.405,23.883,23.883,0,0,0,9.263-.663q1.193-.311,2.381-.727c.773-.291,1.528-.625,2.279-.982a26.449,26.449,0,0,0,4.273-2.495,33,33,0,0,0,3.611-3.059,28.035,28.035,0,0,0,2.719-3.338h0l-3.542,2.025c-1.236.675-2.567,1.309-3.9,1.934q-1,.467-2.021.91c-.683.292-1.4.548-2.107.808-1.417.513-2.841.982-4.257,1.394-1.458.371-2.9.686-4.319.948q-1.062.2-2.1.353-1.063.129-2.093.222c-1.372.126-2.693.2-3.951.256S438.41,447.105,437.271,447.1Z" transform="translate(-437.271 -438.241)" fill="#ffdeb7"/>
                </g>
                <g id="Grupo_1007263" data-name="Grupo 1007263" transform="translate(4.743 59.656)">
                  <path id="Trazado_720818" data-name="Trazado 720818" d="M428.6,459.22h0a15.379,15.379,0,0,0,4.946,2.616,18.567,18.567,0,0,0,3.17.721,20.106,20.106,0,0,0,3.383.108,22.269,22.269,0,0,0,3.481-.467,22.819,22.819,0,0,0,3.281-1.088,17.865,17.865,0,0,0,5.349-3.371h0a52.714,52.714,0,0,1-12.021,2.331,44.406,44.406,0,0,1-6.157-.1C432.048,459.778,430.215,459.5,428.6,459.22Z" transform="translate(-428.596 -457.74)" fill="#ffdeb7"/>
                </g>
                <g id="Grupo_1007264" data-name="Grupo 1007264" transform="translate(21.638 25.669)">
                  <path id="Trazado_720819" data-name="Trazado 720819" d="M456.508,421.706h0a23.5,23.5,0,0,0,8.167-.906,28.585,28.585,0,0,0,4.432-1.688c.742-.349,1.494-.723,2.227-1.137q1.071-.639,2.127-1.364a29.716,29.716,0,0,0,4.008-3.225,32.427,32.427,0,0,0,3.439-3.752,38.746,38.746,0,0,0,2.7-4.024,34.289,34.289,0,0,0,1.833-4.021h0a128.647,128.647,0,0,1-14,11.6A115.769,115.769,0,0,1,456.508,421.706Z" transform="translate(-456.508 -401.589)" fill="#ffdeb7"/>
                </g>
                <g id="Grupo_1007265" data-name="Grupo 1007265" transform="translate(28.034 17.451)">
                  <path id="Trazado_720820" data-name="Trazado 720820" d="M467.075,408.908h0c4.081-.5,9.137-3,13.193-7.042a27.55,27.55,0,0,0,7.608-13.854h0c-2.912,3.394-6.207,7.61-9.982,11.282l-1.375,1.385c-.467.452-.958.882-1.43,1.317l-2.788,2.521-2.729,2.29-1.26,1.09Z" transform="translate(-467.075 -388.012)" fill="#ffdeb7"/>
                </g>
                <g id="Grupo_1007266" data-name="Grupo 1007266" transform="translate(32.564 8.56)">
                  <path id="Trazado_720821" data-name="Trazado 720821" d="M474.56,394.812h0a15.907,15.907,0,0,0,2.742-1.155,22.883,22.883,0,0,0,2.749-1.823,23.775,23.775,0,0,0,5.009-5.308,25.937,25.937,0,0,0,1.877-3.278c.275-.562.531-1.13.768-1.7.217-.576.4-1.157.574-1.732a27.255,27.255,0,0,0,.777-3.371,18.962,18.962,0,0,0,.13-3.123h0c-.49.845-.979,1.741-1.485,2.667l-1.662,2.825c-1.071,1.948-2.4,3.882-3.646,5.806C479.748,388.417,476.89,391.925,474.56,394.812Z" transform="translate(-474.56 -373.323)" fill="#ffdeb7"/>
                </g>
                <g id="Grupo_1007267" data-name="Grupo 1007267" transform="translate(13.739 18.524)">
                  <path id="Trazado_720822" data-name="Trazado 720822" d="M445.276,423.057h0a39.367,39.367,0,0,1-1.6-8.535,44.72,44.72,0,0,1-.22-4.709c.019-1.556.017-3.18.166-4.7.165-1.512.3-3.059.57-4.492.288-1.422.564-2.831.941-4.131.185-.652.409-1.269.624-1.878q.3-.925.661-1.767A30.914,30.914,0,0,1,448,389.784h0c.028.561.066,1.149.076,1.743q-.009.889-.018,1.817c-.033,1.237,0,2.587-.1,3.915-.07,1.362-.141,2.764-.214,4.193-.117,1.414-.225,2.876-.321,4.37-.269,2.926-.491,5.993-.871,8.893C446.249,417.684,445.762,420.447,445.276,423.057Z" transform="translate(-443.458 -389.784)" fill="#ffdeb7"/>
                </g>
                <g id="Grupo_1007268" data-name="Grupo 1007268" transform="translate(8.29 27.682)">
                  <path id="Trazado_720823" data-name="Trazado 720823" d="M436.4,434.223h0a32.164,32.164,0,0,1-1.7-7.461,36.763,36.763,0,0,1-.245-4.174c0-1.4.007-2.843.137-4.208q.093-1.03.251-2.018c.088-.674.185-1.344.307-1.988a35.429,35.429,0,0,1,.935-3.653,18.562,18.562,0,0,1,1.273-3.176,15,15,0,0,1,1.508-2.631h0c-.038,1-.078,2.059-.119,3.158-.06,1.106-.179,2.232-.258,3.433l-.125,1.83q-.084.915-.168,1.853c-.113,1.251-.215,2.545-.3,3.864-.126,1.281-.237,2.591-.338,3.91q-.074.994-.146,1.983-.1.97-.189,1.928c-.122,1.3-.242,2.572-.358,3.806S436.563,433.083,436.4,434.223Z" transform="translate(-434.456 -404.914)" fill="#ffdeb7"/>
                </g>
                <g id="Grupo_1007269" data-name="Grupo 1007269" transform="translate(3.322 39.576)">
                  <path id="Trazado_720824" data-name="Trazado 720824" d="M427.667,446.121h0a20.549,20.549,0,0,1-1.281-5.419,25.547,25.547,0,0,1-.135-3.047,26.4,26.4,0,0,1,.163-3.124,22.818,22.818,0,0,1,.534-2.95,19.548,19.548,0,0,1,.784-2.744,16.988,16.988,0,0,1,2.283-4.273h0c-.263,2.983-.829,6.629-1.231,10.471-.237,1.888-.381,3.87-.557,5.75C428.03,442.667,427.839,444.485,427.667,446.121Z" transform="translate(-426.249 -424.564)" fill="#ffdeb7"/>
                </g>
                <g id="Grupo_1007270" data-name="Grupo 1007270" transform="translate(19.819 14.263)">
                  <path id="Trazado_720825" data-name="Trazado 720825" d="M454.767,413.8h0a43.515,43.515,0,0,1-1.136-7.866c-.067-1.4-.153-2.879-.121-4.311.008-.721.043-1.434.081-2.149q.028-1.093.111-2.161c.109-1.425.324-2.79.5-4.162s.518-2.628.785-3.885a25.789,25.789,0,0,1,1.063-3.494,18.979,18.979,0,0,1,1.28-3.024h0a69.72,69.72,0,0,1,.189,15.164A76.537,76.537,0,0,1,454.767,413.8Z" transform="translate(-453.503 -382.745)" fill="#ffdeb7"/>
                </g>
                <g id="Grupo_1007271" data-name="Grupo 1007271" transform="translate(25.661 10.825)">
                  <path id="Trazado_720826" data-name="Trazado 720826" d="M464.008,403.537h0a41.18,41.18,0,0,1-.481-13.952c.643-4.829,1.945-9.376,3.879-12.52h0a62.142,62.142,0,0,1-.5,13.1l-.22,1.786c-.084.593-.2,1.172-.294,1.76-.212,1.183-.423,2.352-.628,3.491-.264,1.123-.536,2.229-.817,3.3q-.221.805-.431,1.575Z" transform="translate(-463.156 -377.065)" fill="#ffdeb7"/>
                </g>
                <g id="Grupo_1007272" data-name="Grupo 1007272" transform="translate(31.177 5.55)">
                  <path id="Trazado_720827" data-name="Trazado 720827" d="M473,392.482h0a22.687,22.687,0,0,1-.495-2.856,27.121,27.121,0,0,1-.238-3.168,35.753,35.753,0,0,1,.482-6.641,29.515,29.515,0,0,1,.662-3.261q.213-.79.475-1.549c.153-.512.309-1.017.487-1.506a21,21,0,0,1,1.217-2.763,17.3,17.3,0,0,1,1.364-2.39h0c.027.87.038,1.793.021,2.755-.058.951-.134,1.942-.22,2.964-.122,2.061-.522,4.162-.8,6.336A67.318,67.318,0,0,1,473,392.482Z" transform="translate(-472.269 -368.349)" fill="#ffdeb7"/>
                </g>
                <g id="Grupo_1007273" data-name="Grupo 1007273" transform="translate(35.107)">
                  <path id="Trazado_720828" data-name="Trazado 720828" d="M486.712,359.18h0A112.446,112.446,0,0,0,482.2,371.1c-.652,2.184-1.435,4.32-1.971,6.423a56.935,56.935,0,0,0-1.47,5.846h0a32.343,32.343,0,0,0,3.387-5.064,40.651,40.651,0,0,0,2.677-6.343A35.14,35.14,0,0,0,486.712,359.18Z" transform="translate(-478.762 -359.18)" fill="#ffdeb7"/>
                </g>
                <path id="Trazado_720829" data-name="Trazado 720829" d="M458.728,388.679h0a142.817,142.817,0,0,1-16.325,25.46,137.657,137.657,0,0,1-10.891,11.793c-3.709,3.583-7.474,6.633-10.752,9.323h0a73.98,73.98,0,0,0,11.963-7.952,84.7,84.7,0,0,0,11.572-11.626A78.506,78.506,0,0,0,458.728,388.679Z" transform="translate(-420.76 -370.824)" fill="#fff1e0"/>
              </g>
              <g id="Grupo_1007275" data-name="Grupo 1007275" transform="translate(0 47.567)">
                <path id="Trazado_720830" data-name="Trazado 720830" d="M260.886,418.974c10.126,5.008,18.165,11.6,22.906,17.5,4.773,5.914,6.339,11.023,4.324,13.587-2.048,2.611-7.182,2.295-13.869.306-6.7-2.01-15.027-5.619-23.946-10.032s-15.214-8.176-19.1-11.829a20.062,20.062,0,0,1-2.447-2.707,12.059,12.059,0,0,1-1.543-2.618,7.2,7.2,0,0,1-.36-4.986,6.715,6.715,0,0,1,3.17-3.857,11.765,11.765,0,0,1,2.927-1.189,19.7,19.7,0,0,1,3.836-.546C242.5,412.322,250.753,413.977,260.886,418.974Z" transform="translate(-226.564 -412.57)" fill="#ffdeb7"/>
                <path id="Trazado_720831" data-name="Trazado 720831" d="M228.262,422.247h0a333.469,333.469,0,0,1,31.143,14.127,341.969,341.969,0,0,1,29.38,17.5h0a124.366,124.366,0,0,0-12.606-10.038,144.6,144.6,0,0,0-15.7-9.525A134.984,134.984,0,0,0,228.262,422.247Z" transform="translate(-227.234 -416.39)" fill="#ffa031"/>
              </g>
              <g id="Grupo_1007276" data-name="Grupo 1007276" transform="translate(96.523 33.871)">
                <path id="Trazado_720832" data-name="Trazado 720832" d="M422.883,389.943h0a71.6,71.6,0,0,0-16.326,10.894,59.985,59.985,0,0,0-18.392,30.34,71.612,71.612,0,0,0-2.107,19.514h0a39.689,39.689,0,0,0,19.688-5.895,44.588,44.588,0,0,0,21.018-34.671A39.689,39.689,0,0,0,422.883,389.943Z" transform="translate(-386.033 -389.943)" fill="#ffdeb7"/>
                <path id="Trazado_720833" data-name="Trazado 720833" d="M418.641,433.587a.333.333,0,0,0,.11-.439.293.293,0,0,0-.422-.085,20.051,20.051,0,0,1-3.63,1.921,19.746,19.746,0,0,1-3.882,1.068,18.358,18.358,0,0,1-7.839-.4l1.48-2.11,1.424-2.149c.965-1.422,1.863-2.888,2.774-4.345a20.433,20.433,0,0,0,8.379-1.335,21.422,21.422,0,0,0,7.341-4.745.325.325,0,0,0,.023-.448.3.3,0,0,0-.432,0A20.924,20.924,0,0,1,417,425.073a20.231,20.231,0,0,1-7.974,1.388q4.357-7.148,7.988-14.705c.007,0,.012,0,.019,0a14.283,14.283,0,0,0,4.884-1.71,14.792,14.792,0,0,0,4.074-3.342.318.318,0,0,0-.023-.439.3.3,0,0,0-.428.035,15.156,15.156,0,0,1-1.732,1.722,15.529,15.529,0,0,1-2,1.381,13.981,13.981,0,0,1-4.468,1.678c1.806-3.848,3.525-7.742,5.024-11.722a.3.3,0,0,0-.173-.389.3.3,0,0,0-.39.173q-2.6,6.818-5.825,13.372a17.056,17.056,0,0,1-1.593-4.436,15.583,15.583,0,0,1-.312-4.629.307.307,0,0,0-.279-.321.284.284,0,0,0-.317.262,16.077,16.077,0,0,0,.364,5,17.1,17.1,0,0,0,1.8,4.777c0,.006.01.007.014.013-1.967,3.917-4.02,7.8-6.292,11.545a25.389,25.389,0,0,1-3.23-15.142.3.3,0,0,0-.263-.326.281.281,0,0,0-.331.235,26.163,26.163,0,0,0,3.474,15.831c-2.241,3.661-4.563,7.277-7.071,10.762a23.054,23.054,0,0,1-3.983-14.542.312.312,0,0,0-.274-.323.27.27,0,0,0-.316.243,22.96,22.96,0,0,0,.79,7.812,23.368,23.368,0,0,0,3.414,7.335l-3.008,4.052c-1.047,1.316-2.06,2.66-3.134,3.954a16.537,16.537,0,0,1-3.206-8.959.312.312,0,0,0-.31-.292.276.276,0,0,0-.284.288,17.328,17.328,0,0,0,3.4,9.443c-1.812,2.215-3.693,4.374-5.621,6.489a.3.3,0,0,0,.018.424.3.3,0,0,0,.427-.018c1.214-1.29,2.348-2.652,3.526-3.975,1.139-1.356,2.276-2.715,3.388-4.093a14.638,14.638,0,0,0,10.163.828.33.33,0,0,0,.229-.386.292.292,0,0,0-.369-.215,14.083,14.083,0,0,1-9.638-.72q2.827-3.554,5.458-7.257A19.2,19.2,0,0,0,418.641,433.587Z" transform="translate(-387.333 -393.499)" fill="#fff1e0"/>
              </g>
              <g id="Grupo_1007277" data-name="Grupo 1007277" transform="translate(28.954 35.352)">
                <path id="Trazado_720834" data-name="Trazado 720834" d="M309.707,408.061a72.74,72.74,0,0,1,10.238,13.817,54.818,54.818,0,0,1,5.494,13c2.1,7.907,1.2,13.537-1.888,15.023-3.163,1.531-7.847-1.128-13.328-5.808-2.736-2.357-5.726-5.214-8.89-8.4s-6.49-6.729-9.985-10.435-6.475-6.95-8.89-9.918a52.86,52.86,0,0,1-5.675-7.981,21.309,21.309,0,0,1-1.579-3.45,12.836,12.836,0,0,1-.748-3.088,7.731,7.731,0,0,1,1.12-5.156,6.973,6.973,0,0,1,4.356-2.962,12.363,12.363,0,0,1,3.351-.307,20.627,20.627,0,0,1,4.092.672,37.283,37.283,0,0,1,10.236,4.732A66.46,66.46,0,0,1,309.707,408.061Z" transform="translate(-274.4 -392.389)" fill="#ffa031"/>
                <path id="Trazado_720835" data-name="Trazado 720835" d="M277.457,398.56h0a192.516,192.516,0,0,1,26.286,24.571,180.932,180.932,0,0,1,11.826,15.019c3.539,5.005,6.6,9.888,9.188,14.191h0a100.781,100.781,0,0,0-7.651-15.2,113.631,113.631,0,0,0-11.522-15.628A107.284,107.284,0,0,0,277.457,398.56Z" transform="translate(-275.607 -394.825)" fill="#fff1e0"/>
              </g>
              <g id="Grupo_1007291" data-name="Grupo 1007291" transform="translate(25.291)">
                <g id="Grupo_1007278" data-name="Grupo 1007278" transform="translate(32.49 18.949)">
                  <path id="Trazado_720836" data-name="Trazado 720836" d="M323.087,399.49h0a36.494,36.494,0,0,0,2.371-8.43,42.117,42.117,0,0,0,.564-4.762c.09-1.594.174-3.245.11-4.824s-.16-3.169-.373-4.675c-.229-1.5-.473-2.973-.821-4.351-.171-.691-.379-1.35-.585-2s-.41-1.281-.646-1.881a29.692,29.692,0,0,0-1.573-3.28h0c-.032.585-.07,1.2-.087,1.815s-.008,1.251-.013,1.9c.007,1.291-.037,2.678.016,4.062.025,1.407.05,2.855.076,4.33.055,1.464.1,2.968.12,4.5.109,3.014.147,6.133.3,9.1C322.63,394,322.849,396.841,323.087,399.49Z" transform="translate(-322.025 -365.29)" fill="#ffdeb7"/>
                </g>
                <g id="Grupo_1007279" data-name="Grupo 1007279" transform="translate(38.09 28.861)">
                  <path id="Trazado_720837" data-name="Trazado 720837" d="M331.488,411.732h0a29.95,29.95,0,0,0,2.526-7.284,34.631,34.631,0,0,0,.649-4.2,39.491,39.491,0,0,0,.21-4.3c-.009-.708-.042-1.408-.1-2.1s-.1-1.393-.182-2.068a33.62,33.62,0,0,0-.734-3.86,20.41,20.41,0,0,0-1.14-3.409,16.7,16.7,0,0,0-1.439-2.858h0c0,1.043,0,2.14,0,3.282.028,1.145.057,2.335.088,3.564.016,2.5.145,5.063.114,7.77.024,1.321.027,2.661.015,4.005q-.015,1.011-.028,2.016t0,1.969c-.012,1.315-.022,2.608-.033,3.859S331.458,410.575,331.488,411.732Z" transform="translate(-331.278 -381.665)" fill="#ffdeb7"/>
                </g>
                <g id="Grupo_1007280" data-name="Grupo 1007280" transform="translate(43.167 41.696)">
                  <path id="Trazado_720838" data-name="Trazado 720838" d="M339.747,424.931h0a19.778,19.778,0,0,0,1.988-5.237,24.4,24.4,0,0,0,.508-3.049,25.358,25.358,0,0,0,.179-3.17,22.793,22.793,0,0,0-.233-3.068,20.114,20.114,0,0,0-.546-2.89,17.283,17.283,0,0,0-1.977-4.647h0c.052,3.086.307,6.871.308,10.8.034,1.942-.039,3.946-.093,5.854S339.788,423.273,339.747,424.931Z" transform="translate(-339.666 -402.87)" fill="#ffdeb7"/>
                </g>
                <g id="Grupo_1007281" data-name="Grupo 1007281" transform="translate(26.615 14.313)">
                  <path id="Trazado_720839" data-name="Trazado 720839" d="M314.3,389.478h0a39.493,39.493,0,0,0,1.691-7.843c.156-1.416.31-2.907.351-4.372.026-.737.027-1.468.021-2.2q.013-1.116-.034-2.217a48.486,48.486,0,0,0-1.1-8.363,27.979,27.979,0,0,0-1.048-3.669,21.024,21.024,0,0,0-1.306-3.181h0a90.709,90.709,0,0,0-.418,15.606A97.453,97.453,0,0,0,314.3,389.478Z" transform="translate(-312.319 -357.63)" fill="#ffdeb7"/>
                </g>
                <g id="Grupo_1007282" data-name="Grupo 1007282" transform="translate(20.679 10.674)">
                  <path id="Trazado_720840" data-name="Trazado 720840" d="M305.516,378.677h0a37.917,37.917,0,0,0,1.011-14.122c-.547-4.966-1.908-9.689-3.9-12.937h0a77.5,77.5,0,0,0,.477,13.411c.214,2.433.609,4.819.95,7.168.216,1.149.44,2.278.674,3.369l.36,1.606Q305.309,377.945,305.516,378.677Z" transform="translate(-302.513 -351.618)" fill="#ffdeb7"/>
                </g>
                <g id="Grupo_1007283" data-name="Grupo 1007283" transform="translate(14.667 5.329)">
                  <path id="Trazado_720841" data-name="Trazado 720841" d="M296.514,367.284h0a21.9,21.9,0,0,0,.59-2.864,26.576,26.576,0,0,0,.307-3.193,33.651,33.651,0,0,0-.416-6.759,28.234,28.234,0,0,0-4.415-11.679h0c0,.888.018,1.829.062,2.807.076.969.169,1.977.273,3.014.169,2.087.56,4.226.848,6.423A81.369,81.369,0,0,0,296.514,367.284Z" transform="translate(-292.579 -342.788)" fill="#ffdeb7"/>
                </g>
                <g id="Grupo_1007284" data-name="Grupo 1007284" transform="translate(0.593 34.362)">
                  <path id="Trazado_720842" data-name="Trazado 720842" d="M302.2,409.608h0a25.011,25.011,0,0,1-8.922.107,32.147,32.147,0,0,1-5-1.3A32.421,32.421,0,0,1,278.688,403a30.791,30.791,0,0,1-4-3.821c-.6-.678-1.186-1.361-1.713-2.064s-1-1.423-1.447-2.136a24.75,24.75,0,0,1-2.2-4.23h0l1.668,1.493,1.791,1.517c1.228,1.017,2.442,2.085,3.8,3.079,1.342,1,2.7,2.009,4.11,2.959,1.436.936,2.891,1.839,4.349,2.692a72.262,72.262,0,0,0,8.926,4.251C296.861,407.939,299.739,408.79,302.2,409.608Z" transform="translate(-269.327 -390.754)" fill="#ffdeb7"/>
                </g>
                <g id="Grupo_1007285" data-name="Grupo 1007285" transform="translate(7.62 47.459)">
                  <path id="Trazado_720843" data-name="Trazado 720843" d="M311.888,423.611h0a20.683,20.683,0,0,1-7.648,1.58,26.217,26.217,0,0,1-4.5-.3,26.515,26.515,0,0,1-4.6-1.181c-.764-.268-1.524-.569-2.275-.9s-1.454-.721-2.162-1.122a27.2,27.2,0,0,1-4-2.718,31.717,31.717,0,0,1-3.316-3.19,26.859,26.859,0,0,1-2.45-3.385h0l3.368,2.136c1.176.721,2.437,1.418,3.707,2.108a62.422,62.422,0,0,0,8.045,3.626c1.406.483,2.809.916,4.189,1.3q1.036.286,2.052.536,1.039.23,2.052.425c1.349.261,2.657.476,3.908.662S310.748,423.482,311.888,423.611Z" transform="translate(-280.937 -412.392)" fill="#ffdeb7"/>
                </g>
                <g id="Grupo_1007286" data-name="Grupo 1007286" transform="translate(20.017 59.826)">
                  <path id="Trazado_720844" data-name="Trazado 720844" d="M324.647,436.758h0a15.964,15.964,0,0,1-5.27,1.959,19.323,19.323,0,0,1-3.226.33,20.617,20.617,0,0,1-3.359-.264,22.379,22.379,0,0,1-3.367-.822,22.654,22.654,0,0,1-3.108-1.375,17.911,17.911,0,0,1-4.9-3.762h0a58.988,58.988,0,0,0,11.617,3.383,48.774,48.774,0,0,0,6.113.6C321.134,436.857,322.994,436.815,324.647,436.758Z" transform="translate(-301.419 -432.824)" fill="#ffdeb7"/>
                </g>
                <g id="Grupo_1007287" data-name="Grupo 1007287" transform="translate(0 25.566)">
                  <path id="Trazado_720845" data-name="Trazado 720845" d="M296.349,397.242h0a24.921,24.921,0,0,1-8.1-1.47,30.507,30.507,0,0,1-4.312-1.912c-.717-.382-1.44-.789-2.145-1.23q-1.034-.675-2.046-1.43a34.854,34.854,0,0,1-7.1-7.065,37.917,37.917,0,0,1-2.562-3.977,32.985,32.985,0,0,1-1.741-3.938h0a178.437,178.437,0,0,0,13.608,11.666A160.679,160.679,0,0,0,296.349,397.242Z" transform="translate(-268.348 -376.221)" fill="#ffdeb7"/>
                </g>
                <g id="Grupo_1007288" data-name="Grupo 1007288" transform="translate(1.822 17.481)">
                  <path id="Trazado_720846" data-name="Trazado 720846" d="M291.634,384.085h0c-4.061-.738-8.984-3.431-12.895-7.512a28.281,28.281,0,0,1-7.381-13.709h0c2.909,3.3,6.181,7.467,9.841,11.2,1.752,1.913,3.694,3.668,5.422,5.372l2.622,2.411,1.212,1.15Z" transform="translate(-271.358 -362.864)" fill="#ffdeb7"/>
                </g>
                <g id="Grupo_1007289" data-name="Grupo 1007289" transform="translate(3.353 8.662)">
                  <path id="Trazado_720847" data-name="Trazado 720847" d="M288.466,369.8h0a16.59,16.59,0,0,1-2.71-1.244,23.518,23.518,0,0,1-2.712-1.883,24.813,24.813,0,0,1-4.922-5.338c-2.8-4.152-4.38-9.172-4.222-13.044h0c.511.823,1.024,1.7,1.551,2.6l1.7,2.781c1.107,1.917,2.419,3.848,3.67,5.767C283.433,363.248,286.237,366.818,288.466,369.8Z" transform="translate(-273.888 -348.293)" fill="#ffdeb7"/>
                </g>
                <g id="Grupo_1007290" data-name="Grupo 1007290" transform="translate(7.047)">
                  <path id="Trazado_720848" data-name="Trazado 720848" d="M279.992,333.983h0a38.751,38.751,0,0,0,2.263,12.794,45.121,45.121,0,0,0,2.718,6.356,34.314,34.314,0,0,0,3.344,5.136h0a52.841,52.841,0,0,0-1.413-5.913c-.548-2.119-1.322-4.285-2.023-6.478A88.469,88.469,0,0,0,279.992,333.983Z" transform="translate(-279.99 -333.983)" fill="#ffdeb7"/>
                </g>
                <path id="Trazado_720849" data-name="Trazado 720849" d="M289.376,363.412h0a96.3,96.3,0,0,0,13.447,27.695,105.116,105.116,0,0,0,10.462,12.705,90.565,90.565,0,0,0,10.855,9.509h0c-2.86-3.16-6.183-6.731-9.488-10.739s-6.662-8.366-9.816-12.876A217.113,217.113,0,0,1,289.376,363.412Z" transform="translate(-276.648 -345.599)" fill="#fff1e0"/>
              </g>
              <g id="Grupo_1007292" data-name="Grupo 1007292" transform="translate(64.431 6.34)">
                <path id="Trazado_720850" data-name="Trazado 720850" d="M341.935,344.457h0a93.48,93.48,0,0,0-8.022,26.23,81.226,81.226,0,0,0,8.113,49.3,93.472,93.472,0,0,0,16.005,22.276h0a57.058,57.058,0,0,0,14.889-24.324,63.19,63.19,0,0,0-9.086-55.208A57.052,57.052,0,0,0,341.935,344.457Z" transform="translate(-333.012 -344.457)" fill="#fff1e0"/>
                <path id="Trazado_720851" data-name="Trazado 720851" d="M373.5,397.074a.457.457,0,0,0-.281-.558.41.41,0,0,0-.523.291,28.036,28.036,0,0,1-2.093,5.28,27.685,27.685,0,0,1-3.116,4.631,25.962,25.962,0,0,1-8.6,6.734l-.381-3.568-.461-3.558c-.285-2.375-.665-4.737-1.026-7.1a28.929,28.929,0,0,0,7.667-8.967A30.108,30.108,0,0,0,368.26,378.7a.448.448,0,0,0-.375-.493.417.417,0,0,0-.462.384,29.4,29.4,0,0,1-3.348,11.029,28.6,28.6,0,0,1-7.2,8.654q-1.868-11.5-4.7-22.817c.007-.007.016-.007.023-.014a20.042,20.042,0,0,0,3.72-6.162,20.832,20.832,0,0,0,1.434-7.168.437.437,0,0,0-.41-.45.418.418,0,0,0-.431.413,21.1,21.1,0,0,1-.352,3.37,21.6,21.6,0,0,1-.928,3.243,19.778,19.778,0,0,1-3.306,5.757c-1.483-5.729-3.08-11.432-4.941-17.051a.417.417,0,0,0-.527-.269.422.422,0,0,0-.271.529c1.068,3.215,2.016,6.466,2.976,9.714.892,3.267,1.8,6.532,2.579,9.827a23.41,23.41,0,0,1-5.656-3.343,21.656,21.656,0,0,1-4.443-4.72.426.426,0,0,0-.583-.1.4.4,0,0,0-.109.565,22.364,22.364,0,0,0,4.833,5.08,23.568,23.568,0,0,0,6.181,3.524c.008,0,.018,0,.027,0,1.4,5.942,2.685,11.914,3.678,17.939A34.678,34.678,0,0,1,338.6,382.86a.422.422,0,0,0-.573-.117.4.4,0,0,0-.142.551,35.709,35.709,0,0,0,17.946,13.794c.95,5.9,1.792,11.826,2.365,17.779a31.3,31.3,0,0,1-9.85-4.442,30.613,30.613,0,0,1-7.619-7.293.431.431,0,0,0-.582-.094.383.383,0,0,0-.113.549,31.488,31.488,0,0,0,7.956,7.585,32.017,32.017,0,0,0,10.3,4.584l.587,7c.13,2.339.312,4.675.4,7.016a22.726,22.726,0,0,1-11.627-6.385.431.431,0,0,0-.592-.019.39.39,0,0,0-.03.567,23.773,23.773,0,0,0,12.282,6.7c.174,3.982.243,7.969.237,11.954a.419.419,0,1,0,.839,0c.036-2.465-.053-4.93-.073-7.4-.081-2.464-.164-4.928-.287-7.39a20.614,20.614,0,0,0,11.357-8.493.452.452,0,0,0-.115-.609.408.408,0,0,0-.582.114,19.826,19.826,0,0,1-10.712,8.119q-.349-6.31-.989-12.6A27.093,27.093,0,0,0,373.5,397.074Z" transform="translate(-334.914 -349.448)" fill="#ffdeb7"/>
              </g>
            </g>
          </g>
        </g>
        <g id="Grupo_1007297" data-name="Grupo 1007297" transform="translate(315.374)">
          <path id="Trazado_720852" data-name="Trazado 720852" d="M623.846,306.949c-4.039-6.831-13.549-8.871-21.07-6.338s-13.306,8.6-17.953,15.038c-17.046,23.6-22.3,55.255-14.022,83.141h11.6c-.395-12.192,5.087-24.177,12.124-34.306,7.786-11.207,17.548-20.958,25.051-32.358a39.005,39.005,0,0,0,5.763-12.112C626.386,315.644,626.133,310.817,623.846,306.949Z" transform="translate(-566.952 -299.563)" fill="#fff1e0"/>
          <path id="Trazado_720853" data-name="Trazado 720853" d="M586.424,349.939c6.858-14.952,18.707-26.816,28.263-35.482a.606.606,0,1,0-.813-.9c-9.641,8.744-21.6,20.723-28.55,35.874-6.829,14.889-8.969,33.317-6.385,54.818h1.221C577.575,382.915,579.673,364.655,586.424,349.939Z" transform="translate(-571.265 -305.026)" fill="#ffdeb7"/>
          <g id="Grupo_1007296" data-name="Grupo 1007296" transform="translate(15.868 51.354)">
            <path id="Trazado_720854" data-name="Trazado 720854" d="M602.059,431.857c-.113-5.315,3.869-10.323,8.1-13.536s9.177-5.4,13.387-8.651,7.791-8.036,7.551-13.347c-.249-5.509-4.859-10.266-10.227-11.523s-11.162.606-15.444,4.08-7.19,8.4-9.142,13.555a53.943,53.943,0,0,0-1.923,29.423Z" transform="translate(-593.168 -384.407)" fill="#ffa031"/>
            <path id="Trazado_720855" data-name="Trazado 720855" d="M599.314,423.316c.056-.3.126-.592.187-.89a.413.413,0,0,1,.039-.188q.3-1.434.675-2.8c-.722-2.7-.719-8.574-.719-8.825a.422.422,0,0,1,.422-.421h0a.422.422,0,0,1,.421.422,63.307,63.307,0,0,0,.4,7.085,34.708,34.708,0,0,1,4.332-8.961.071.071,0,0,1,.008-.01c.338-.493.682-.978,1.045-1.446.193-.248.39-.488.59-.728a55.376,55.376,0,0,1,1.139-7.971.421.421,0,0,1,.825.173c-.01.049-.869,4.169-1.077,6.775a24.349,24.349,0,0,1,13.069-7.638.421.421,0,1,1,.165.826,24.009,24.009,0,0,0-14.045,9.08c-.079.1-.149.211-.227.314a46.905,46.905,0,0,1,15.055-2.132l.4-.005h.007a.422.422,0,0,1,.006.843l-.4.005a45.938,45.938,0,0,0-15.908,2.453,35.623,35.623,0,0,0-5.133,12.069c4.19-2.953,12.23-4.274,12.6-4.334a.422.422,0,0,1,.133.833c-.093.015-9.347,1.534-13,4.785-.057.281-.124.554-.176.839a64.578,64.578,0,0,0-.867,13.7.423.423,0,0,1-.409.435h-.013a.421.421,0,0,1-.421-.409A65.454,65.454,0,0,1,599.314,423.316Z" transform="translate(-595.229 -389.727)" fill="#fff1e0"/>
          </g>
        </g>
        <g id="Grupo_1007300" data-name="Grupo 1007300" transform="translate(0 3.98)">
          <g id="Grupo_1007298" data-name="Grupo 1007298">
            <path id="Trazado_720856" data-name="Trazado 720856" d="M92.182,400.917c1.438-8.024.225-16.878-4.029-23.831-4.23-6.913-10.779-12.048-17.321-16.832S57.506,350.781,52.5,344.408s-8.046-14.87-5.874-22.678c2.4-8.646,11.048-14.74,19.991-15.5s17.859,3.209,24.427,9.324c10.655,9.919,15.453,24.885,16.005,39.432s-3.273,31.733-6.495,45.929Z" transform="translate(-45.914 -306.139)" fill="#fff1e0"/>
            <path id="Trazado_720857" data-name="Trazado 720857" d="M99.032,359.43a.732.732,0,0,0-.028-.077c-.2-.573-.4-1.149-.611-1.715q-.34-.908-.7-1.8c1.625-6.588,3.215-19.133,3.232-19.261a.605.605,0,0,0-1.2-.151c-.015.117-1.362,10.747-2.833,17.51a71.831,71.831,0,0,0-9.9-16.367,76.611,76.611,0,0,0-.895-16,.605.605,0,0,0-1.193.2,78.554,78.554,0,0,1,.964,14.441q-1.8-2.109-3.739-4.034a.586.586,0,0,0-.185-.179,55.793,55.793,0,0,0-20.474-13.05.605.605,0,1,0-.4,1.142,53.9,53.9,0,0,1,18.422,11.25c-7.17-1.49-17.345-1.116-17.822-1.1a.6.6,0,0,0-.581.628.6.6,0,0,0,.628.581c.127,0,12.67-.466,19.554,1.576a69.691,69.691,0,0,1,15.847,24.645c-6.1-4.721-15.658-7.671-21.8-7.759a.615.615,0,0,0-.614.6.606.606,0,0,0,.6.614c6.526.093,17.134,3.658,22.639,8.826,4.57,13.141,6.134,28.2,4.764,45.961a.605.605,0,0,0,.557.65l.047,0a.606.606,0,0,0,.6-.559C105.291,388.019,103.691,372.761,99.032,359.43Z" transform="translate(-51.732 -311.182)" fill="#ffdeb7"/>
          </g>
          <g id="Grupo_1007299" data-name="Grupo 1007299" transform="translate(16.684 54.028)">
            <path id="Trazado_720858" data-name="Trazado 720858" d="M98.395,436.091c.1-4.558-3.318-8.852-6.95-11.607s-7.87-4.635-11.48-7.418-6.681-6.892-6.476-11.446c.213-4.724,4.167-8.8,8.771-9.882s9.572.519,13.244,3.5a27.066,27.066,0,0,1,7.84,11.624,46.26,46.26,0,0,1,1.649,25.231Z" transform="translate(-73.479 -395.401)" fill="#ffa031"/>
            <path id="Trazado_720859" data-name="Trazado 720859" d="M108.517,428.766c-.048-.259-.108-.507-.16-.763a.362.362,0,0,0-.034-.161q-.256-1.229-.579-2.4a41.181,41.181,0,0,0,.616-7.568.36.36,0,0,0-.361-.36h0a.361.361,0,0,0-.361.362,54.213,54.213,0,0,1-.343,6.076,29.783,29.783,0,0,0-3.715-7.684s0-.005-.007-.009c-.29-.422-.585-.839-.9-1.24-.165-.212-.335-.419-.506-.625a47.538,47.538,0,0,0-.976-6.835.361.361,0,0,0-.708.148c.008.042.745,3.575.923,5.81a20.881,20.881,0,0,0-11.207-6.55.362.362,0,0,0-.141.709,20.584,20.584,0,0,1,12.044,7.786c.068.087.128.182.195.269A40.224,40.224,0,0,0,89.39,413.9l-.343,0h-.005a.362.362,0,0,0-.005.723l.343,0a39.38,39.38,0,0,1,13.642,2.1,30.551,30.551,0,0,1,4.4,10.349c-3.593-2.532-10.488-3.666-10.8-3.716a.362.362,0,0,0-.114.714c.08.013,8.015,1.315,11.149,4.1.049.242.107.476.151.72a55.434,55.434,0,0,1,.744,11.745.363.363,0,0,0,.35.373h.012a.362.362,0,0,0,.361-.35A56.193,56.193,0,0,0,108.517,428.766Z" transform="translate(-79.479 -399.963)" fill="#fff1e0"/>
          </g>
        </g>
      </g>
      <g id="Grupo_1007385" data-name="Grupo 1007385" transform="translate(34.231 44.427)">
        <g id="Grupo_1007384" data-name="Grupo 1007384" transform="translate(16.515 0)">
          <g id="Grupo_1007318" data-name="Grupo 1007318" transform="translate(55.542 52.916)">
            <g id="Grupo_1007305" data-name="Grupo 1007305" transform="translate(0.401 34.884)">
              <g id="Grupo_1007302" data-name="Grupo 1007302" transform="translate(49.546 15.165)">
                <path id="Trazado_720860" data-name="Trazado 720860" d="M242.3,236.011l5.187-4.347-.939-9.781H242.3l-1.235,10.179Z" transform="translate(-241.065 -221.834)" fill="#468097"/>
                <path id="Trazado_720861" data-name="Trazado 720861" d="M246.524,233.549l-4.806-4.634,3.161-7.113,1.926.049Z" transform="translate(-241.322 -221.802)" fill="#1c466d"/>
              </g>
              <g id="Grupo_1007304" data-name="Grupo 1007304">
                <g id="Grupo_1007303" data-name="Grupo 1007303">
                  <path id="Trazado_720862" data-name="Trazado 720862" d="M214.237,211.961h0l-6.029-7.99a9.483,9.483,0,0,0-5.139-3.455l-11.6-3.077-7.312-.692-11.747,2.772a9.484,9.484,0,0,0-6.743,6.012l-6.457,17.891,10.769,2.568L168,252.172h36.555l-1.284-25.292,1.68-9.089,5.038,8.3-.036-2.294A17.717,17.717,0,0,1,214.237,211.961Z" transform="translate(-159.208 -196.747)" fill="#a6d6d6"/>
                  <path id="Trazado_720863" data-name="Trazado 720863" d="M234.781,224.894l1.778-10.151.333,2.244a14.7,14.7,0,0,1-.777,7.314h0l3.7,8.892Z" transform="translate(-189.038 -203.85)" fill="#468097"/>
                </g>
                <path id="Trazado_720864" data-name="Trazado 720864" d="M175.711,230l2.223.47,3.26-15.412-3.186-8.151h0a9.377,9.377,0,0,1,3.631,7.41v.731h0a10.814,10.814,0,0,1,.875,7.093l-2.376,10.932a4.442,4.442,0,0,1-1.2,2.2h0a4.443,4.443,0,0,0-1.286,2.776l-1.342,18.135h-2.574Z" transform="translate(-164.942 -200.758)" fill="#468097"/>
              </g>
            </g>
            <g id="Grupo_1007309" data-name="Grupo 1007309" transform="translate(3.76 90.308)">
              <g id="Grupo_1007306" data-name="Grupo 1007306" transform="translate(0.771)">
                <path id="Trazado_720865" data-name="Trazado 720865" d="M170.694,288.316l-.186.817a75.49,75.49,0,0,0-1.884,18.158l.44,24.693-3.032,48.182h12.217l9.735-45.021,2.075,45.021h12.625l3.676-47.984,1.829-25.132a75.5,75.5,0,0,0-.614-16.528l-.326-2.205Z" transform="translate(-166.032 -288.316)" fill="#265e91"/>
                <path id="Trazado_720866" data-name="Trazado 720866" d="M202.3,341.523l2.332-34.776,9.77-2.272-8.249,4.051.691,23.069-2.766,9.534,1.877,8.6-1.877,3.952,1.581,4.149-1.284,28.719Z" transform="translate(-180.347 -294.694)" fill="#1c466d"/>
                <path id="Trazado_720867" data-name="Trazado 720867" d="M210.778,288.316l.562,5.357a6.862,6.862,0,0,1-.183,2.442L210.2,299.8l1.815-.952a3.936,3.936,0,0,0,1.92-2.288l.427-1.336a2.721,2.721,0,0,0,.1-1.239l-.867-5.667Z" transform="translate(-183.467 -288.316)" fill="#1c466d"/>
              </g>
              <g id="Grupo_1007307" data-name="Grupo 1007307" transform="translate(0 88.545)">
                <path id="Trazado_720868" data-name="Trazado 720868" d="M171.881,441.236a3.331,3.331,0,0,1,2.355-.976h3.827a6.862,6.862,0,0,1-.523-4.825l.215-.831H168.59l-1.272,7.608h2.208A3.331,3.331,0,0,0,171.881,441.236Z" transform="translate(-165.768 -434.604)" fill="#f0bf9c"/>
                <path id="Trazado_720869" data-name="Trazado 720869" d="M184.791,450.015l-2.181-.855a6.859,6.859,0,0,1-2.683-1.9l-1.668-1.924a6.851,6.851,0,0,1-.935-1.392H173.5a3.331,3.331,0,0,0-2.355.976,3.331,3.331,0,0,1-2.355.976h-2.208l-1.132,6.767h22.591A6.855,6.855,0,0,0,184.791,450.015Z" transform="translate(-165.03 -438.293)" fill="#1c466d"/>
                <path id="Trazado_720870" data-name="Trazado 720870" d="M165.175,458.353l-.417,2.495h24.007a6.85,6.85,0,0,0-1-2.495Z" transform="translate(-164.758 -443.978)" fill="#fff"/>
              </g>
              <g id="Grupo_1007308" data-name="Grupo 1007308" transform="translate(24.798 88.545)">
                <path id="Trazado_720871" data-name="Trazado 720871" d="M213.191,441.236a3.33,3.33,0,0,1,2.355-.976h3.334a6.859,6.859,0,0,1-1.093-4.122l.09-1.534h-9.135l.188,4.125-.594,3.483h2.5A3.332,3.332,0,0,0,213.191,441.236Z" transform="translate(-206.757 -434.604)" fill="#f0bf9c"/>
                <path id="Trazado_720872" data-name="Trazado 720872" d="M225.766,450.015l-2.181-.855a6.859,6.859,0,0,1-2.683-1.9l-2.2-2.539a6.82,6.82,0,0,1-.573-.777h-3.334a3.33,3.33,0,0,0-2.355.976,3.332,3.332,0,0,1-2.356.976h-2.5l-1.154,6.767h22.582A6.855,6.855,0,0,0,225.766,450.015Z" transform="translate(-206.004 -438.293)" fill="#1c466d"/>
                <path id="Trazado_720873" data-name="Trazado 720873" d="M206.153,458.353l-.426,2.495h24.007a6.849,6.849,0,0,0-1-2.495Z" transform="translate(-205.727 -443.978)" fill="#fff"/>
              </g>
            </g>
            <g id="Grupo_1007313" data-name="Grupo 1007313" transform="translate(15.269)">
              <g id="Grupo_1007310" data-name="Grupo 1007310" transform="translate(7.953 28.264)">
                <path id="Trazado_720874" data-name="Trazado 720874" d="M200.689,189.846a8.969,8.969,0,0,1-1.9-3.258c-.078-.222-.145-.447-.212-.672l-.626-.105-1.037,8.941,1.632,1.024a8.264,8.264,0,0,0,8.84-.036h0l.436-4.253a6.661,6.661,0,0,1-2.158.419A6.788,6.788,0,0,1,200.689,189.846Z" transform="translate(-196.913 -185.811)" fill="#f0bf9c"/>
                <path id="Trazado_720875" data-name="Trazado 720875" d="M199.66,185.985c.067.225.134.451.212.672a8.969,8.969,0,0,0,1.9,3.258,6.787,6.787,0,0,0,4.974,2.059,6.66,6.66,0,0,0,2.158-.419l.4-3.947Z" transform="translate(-197.997 -185.88)" fill="#1c466d"/>
              </g>
              <g id="Grupo_1007312" data-name="Grupo 1007312">
                <path id="Trazado_720876" data-name="Trazado 720876" d="M203.725,174.447h0a10.077,10.077,0,0,1-10.077-10.077v-6.533a10.077,10.077,0,0,1,10.077-10.077h0A10.077,10.077,0,0,1,213.8,157.838v6.533A10.077,10.077,0,0,1,203.725,174.447Z" transform="translate(-187.671 -142.528)" fill="#f0bf9c"/>
                <path id="Trazado_720877" data-name="Trazado 720877" d="M204.432,141.083a11.193,11.193,0,0,0-15.036,2.169,15.047,15.047,0,0,0-3,8.9,45.669,45.669,0,0,0,.623,9.614h3.709a4.1,4.1,0,0,0,2.861-3.909v-4.164c7.553,0,8.841-2.1,11.56-5.39,4.309,0,5.779,4.256,5.779,8.06v4.594s3.25-9.321,3.31-11.746a9,9,0,0,0-2.519-6.613A7.933,7.933,0,0,0,204.432,141.083Z" transform="translate(-184.792 -139.115)" fill="#6a3649"/>
                <g id="Grupo_1007311" data-name="Grupo 1007311" transform="translate(0 18.922)">
                  <path id="Trazado_720878" data-name="Trazado 720878" d="M191.232,174.106a3.729,3.729,0,1,1-3.73-3.729A3.729,3.729,0,0,1,191.232,174.106Z" transform="translate(-183.773 -170.377)" fill="#f0bf9c"/>
                  <path id="Trazado_720879" data-name="Trazado 720879" d="M190.7,175.1a2.2,2.2,0,1,1-2.2-2.2A2.2,2.2,0,0,1,190.7,175.1Z" transform="translate(-184.768 -171.372)" fill="#eba588"/>
                </g>
              </g>
            </g>
            <g id="Grupo_1007314" data-name="Grupo 1007314" transform="translate(53.876 15.567)">
              <path id="Trazado_720880" data-name="Trazado 720880" d="M257.9,181.186l-.427,26.644a4.959,4.959,0,0,1-5.714,4.822h0a4.959,4.959,0,0,1-4.108-5.871l5.211-26.149-1.215-2.088a9.811,9.811,0,0,1-1.3-4.094l-.306-3.564h0a2.1,2.1,0,0,1,2.166,1.819l.042.308.481-2.809a11.2,11.2,0,0,1,1.175-3.413h0a3.719,3.719,0,0,1,4.139-1.853h0a3.718,3.718,0,0,1,2.7,4.662l-.529,1.8-.179,3.624a11.573,11.573,0,0,1-2.143,6.161Z" transform="translate(-247.556 -164.834)" fill="#f0bf9c"/>
              <path id="Trazado_720881" data-name="Trazado 720881" d="M255.321,178.345h0a6.663,6.663,0,0,1,4.034,5.483l.094.95.182-.763a4.607,4.607,0,0,0-4.31-5.67Z" transform="translate(-250.621 -170.167)" fill="#eba588"/>
            </g>
            <path id="Trazado_720882" data-name="Trazado 720882" d="M161.129,241.677l9.544,2.25-2.321,12.239,2.846,22.766,3.488,4.225a2.662,2.662,0,0,1,.482,2.51l-2.031,6.316-.534.1a3.465,3.465,0,0,1-4.025-4h0A13.059,13.059,0,0,1,165.8,280.5l-6.731-21.813a11.77,11.77,0,0,1-.272-5.889Z" transform="translate(-158.546 -179.598)" fill="#f0bf9c"/>
            <path id="Trazado_720883" data-name="Trazado 720883" d="M162.679,241.677l9.544,2.25-.656,3.461-9.093-4.734Z" transform="translate(-160.097 -179.598)" fill="#1c466d"/>
            <g id="Grupo_1007317" data-name="Grupo 1007317" transform="translate(28.06 15.305)">
              <g id="Grupo_1007315" data-name="Grupo 1007315">
                <path id="Trazado_720884" data-name="Trazado 720884" d="M207.891,164.4a3.747,3.747,0,0,0-2.986,1.485h5.972A3.745,3.745,0,0,0,207.891,164.4Z" transform="translate(-204.905 -164.4)" fill="#7c4756"/>
              </g>
              <path id="Trazado_720885" data-name="Trazado 720885" d="M210.13,170.139a.837.837,0,1,1-.837-.837A.837.837,0,0,1,210.13,170.139Z" transform="translate(-206.306 -166.335)" fill="#1c466d"/>
              <g id="Grupo_1007316" data-name="Grupo 1007316" transform="translate(9.064)">
                <path id="Trazado_720886" data-name="Trazado 720886" d="M222.359,164.4a2.969,2.969,0,0,1,2.479,1.485H219.88A2.969,2.969,0,0,1,222.359,164.4Z" transform="translate(-219.88 -164.4)" fill="#7c4756"/>
              </g>
              <path id="Trazado_720887" data-name="Trazado 720887" d="M222.827,170.139a.707.707,0,1,0,.7-.837A.777.777,0,0,0,222.827,170.139Z" transform="translate(-211.979 -166.335)" fill="#1c466d"/>
              <path id="Trazado_720888" data-name="Trazado 720888" d="M216.316,177.671h-3.109a1.876,1.876,0,0,0,1.471.956A2.181,2.181,0,0,0,216.316,177.671Z" transform="translate(-208.182 -169.638)" fill="#eba588"/>
              <path id="Trazado_720889" data-name="Trazado 720889" d="M216.055,181.35a26.271,26.271,0,0,1-7.373.409,4.209,4.209,0,0,0,3.718,2.33A4.537,4.537,0,0,0,216.055,181.35Z" transform="translate(-206.396 -171.091)" fill="#fff"/>
            </g>
          </g>
          <g id="Grupo_1007345" data-name="Grupo 1007345" transform="translate(237.51)">
            <g id="Grupo_1007343" data-name="Grupo 1007343" transform="translate(16.893 9.359)">
              <path id="Trazado_720890" data-name="Trazado 720890" d="M629.393,152.927a11.7,11.7,0,0,1-.585-8.191,9.761,9.761,0,0,1,5.407-6.073,8.391,8.391,0,0,1,7.993.826c3.363-1.188,7.538-1.307,10.59.537a12.3,12.3,0,0,1,5.726,8.629c.424,2.913-.222,5.86-.6,8.78s-.453,6.052.979,8.624c.942,1.691,2.514,3.11,2.817,5.022.241,1.519-.358,3.286,1.272,4a10.094,10.094,0,0,1,4.176,3.008,7.675,7.675,0,0,1,1.537,5.866,6.447,6.447,0,0,1-3.615,4.774,6.136,6.136,0,0,1-1.984,4.923c-1.343,1.209-3.469,1.775-5.184,2.278a7.5,7.5,0,0,1-6.056-1.183c-1.893-1.327-3.228-3.539-5.442-4.2-2.511-.752-5.076.773-7.655,1.237a9.519,9.519,0,0,1-10.761-12.236c.719-2.275,2.31-4.538,1.632-6.826-.4-1.364-1.575-2.435-1.827-3.835-.361-2.005,1.227-3.759,2.175-5.562C631.539,160.376,630.758,155.972,629.393,152.927Z" transform="translate(-542.547 -95.125)" fill="#1c466d"/>
              <g id="Grupo_1007319" data-name="Grupo 1007319" transform="translate(69.643 133.347)">
                <path id="Trazado_720891" data-name="Trazado 720891" d="M611.863,290.695l-5.922,30.7a87.313,87.313,0,0,0-1.57,18.184,301.7,301.7,0,0,1-2.22,42.671h16.884c3.184-23.246,1.108-48.881,1.108-48.881l9.235-26.112,4.458,28.342c-.159,22.61-1.743,46.652-1.743,46.652h16.783a331.324,331.324,0,0,0-1.507-47.608c3.662-24.68,5.175-27.49,5.175-41.119C638.728,281.8,611.863,290.695,611.863,290.695Z" transform="translate(-602.151 -287.46)" fill="#265e91"/>
                <path id="Trazado_720892" data-name="Trazado 720892" d="M658.362,295.013c0-.484.007-.98.007-1.493-13.817-11.725-40.681-2.826-40.681-2.826l-.781,4.051A56.488,56.488,0,0,0,658.362,295.013Z" transform="translate(-607.975 -287.46)" fill="#1c466d"/>
                <path id="Trazado_720893" data-name="Trazado 720893" d="M637.711,308.309l.933,5.934L629.994,338.7v-10.6a5.447,5.447,0,0,1,1.344-3.583h0a5.446,5.446,0,0,0,1.31-4.184l-.17-1.531a5.449,5.449,0,0,1,2.78-5.371l1.356-.749-3.357-1.653a24.425,24.425,0,0,1-7.629-5.871h0Z" transform="translate(-611.418 -294.45)" fill="#1c466d"/>
                <path id="Trazado_720894" data-name="Trazado 720894" d="M645.591,309.3l15.5-1.629-1.626,1.152a12.539,12.539,0,0,1-12.845.991Z" transform="translate(-619.298 -295.436)" fill="#1c466d"/>
                <path id="Trazado_720895" data-name="Trazado 720895" d="M616.973,361.274a29.234,29.234,0,0,1-7.483,6.443,4.349,4.349,0,0,0,3.6-.4,6.949,6.949,0,0,0,2.28-2.667C615.936,363.614,616.308,362.253,616.973,361.274Z" transform="translate(-605.048 -316.596)" fill="#1c466d"/>
                <path id="Trazado_720896" data-name="Trazado 720896" d="M669.92,360.56a12.409,12.409,0,0,1-6.449,7.323c1.036.272,2.219.719,3.186.257a4.049,4.049,0,0,0,1.661-1.867A17.186,17.186,0,0,0,669.92,360.56Z" transform="translate(-626.355 -316.314)" fill="#1c466d"/>
                <path id="Trazado_720897" data-name="Trazado 720897" d="M657.937,358.831a16.789,16.789,0,0,0,3.212,5.265,4.361,4.361,0,0,1-2.635-1.832A5.114,5.114,0,0,1,657.937,358.831Z" transform="translate(-624.142 -315.632)" fill="#1c466d"/>
              </g>
              <g id="Grupo_1007332" data-name="Grupo 1007332">
                <g id="Grupo_1007330" data-name="Grupo 1007330">
                  <path id="Trazado_720898" data-name="Trazado 720898" d="M580.131,192.9c2.308,3.065,6.909,5.527,6.909,5.527l3.064-7.755-3.457-2.083Z" transform="translate(-523.816 -115.087)" fill="#8c404c"/>
                  <g id="Grupo_1007329" data-name="Grupo 1007329">
                    <g id="Grupo_1007328" data-name="Grupo 1007328">
                      <g id="Grupo_1007320" data-name="Grupo 1007320" transform="translate(56.77 68.87)">
                        <path id="Rectángulo_347945" data-name="Rectángulo 347945" d="M1.549,0h.61A1.549,1.549,0,0,1,3.709,1.549V14.707a0,0,0,0,1,0,0H0a0,0,0,0,1,0,0V1.549A1.549,1.549,0,0,1,1.549,0Z" transform="translate(3.209 14.586) rotate(-149.931)" fill="#e28f50"/>
                        <path id="Trazado_720899" data-name="Trazado 720899" d="M584.57,195.668l1.586.918a.938.938,0,0,0,1.281-.341l6.9-11.916-3.209-1.858-6.9,11.916A.938.938,0,0,0,584.57,195.668Z" transform="translate(-582.154 -181.541)" fill="#efb96d"/>
                      </g>
                      <g id="Grupo_1007321" data-name="Grupo 1007321" transform="translate(61.128 69.917)">
                        <path id="Rectángulo_347946" data-name="Rectángulo 347946" d="M0,0H.3A.986.986,0,0,1,1.29.986V3.077a0,0,0,0,1,0,0H0a0,0,0,0,1,0,0V0A0,0,0,0,1,0,0Z" transform="matrix(-0.865, -0.501, 0.501, -0.865, 1.117, 3.309)" fill="#e8916a"/>
                        <path id="Rectángulo_347947" data-name="Rectángulo 347947" d="M0,0H.3A.986.986,0,0,1,1.29.986V3.077a0,0,0,0,1,0,0H0a0,0,0,0,1,0,0V0A0,0,0,0,1,0,0Z" transform="matrix(-0.865, -0.501, 0.501, -0.865, 1.762, 3.683)" fill="#cc6164"/>
                      </g>
                      <g id="Grupo_1007327" data-name="Grupo 1007327">
                        <g id="Grupo_1007324" data-name="Grupo 1007324" transform="translate(8.923 5.699)">
                          <g id="Grupo_1007322" data-name="Grupo 1007322">
                            <path id="Trazado_720900" data-name="Trazado 720900" d="M598.742,136.415c3.688,2.071,7.229,3.96,10.417,5.8,2.843,1.646,1.678,8.973-2.6,16.364s-10.053,12.05-12.9,10.4c-3.186-1.848-6.586-3.978-10.219-6.145,3.108-1.126,7.344-5.471,10.778-11.4S599.314,139.67,598.742,136.415Z" transform="translate(-534.047 -100.192)" fill="#cc6164"/>
                            <path id="Trazado_720901" data-name="Trazado 720901" d="M566.529,112.793c.571,3.255-1.087,9.092-4.521,15.024s-7.67,10.276-10.778,11.4c-13.161-7.85-29.366-16.178-49.4-13.286L530.41,76.57C537.877,95.382,553.169,105.288,566.529,112.793Z" transform="translate(-501.833 -76.57)" fill="#f7dd8c"/>
                          </g>
                          <g id="Grupo_1007323" data-name="Grupo 1007323" transform="translate(3.653 6.31)">
                            <path id="Trazado_720902" data-name="Trazado 720902" d="M593.8,168.321c3.367,1.965,8.356,4.873,12.272,7.153a25.073,25.073,0,0,1-4.564,4.65c-4.144-2.431-9.053-5.319-12-7.054A31.023,31.023,0,0,0,593.8,168.321Z" transform="translate(-540.094 -119.096)" fill="#a34262"/>
                            <path id="Trazado_720903" data-name="Trazado 720903" d="M558.7,151.911l2.871,1.677a31.023,31.023,0,0,1-4.288,4.749l-1.717-1.014c-13.187-7.806-29.275-16.335-47.7-16.218L513.72,131C529.573,135.323,545.474,144.177,558.7,151.911Z" transform="translate(-507.868 -104.363)" fill="#efb96d"/>
                            <path id="Trazado_720904" data-name="Trazado 720904" d="M605.076,149.7a31.039,31.039,0,0,0,1.984-6.083c2.97,1.687,7.918,4.508,12.09,6.89a25.088,25.088,0,0,1-1.76,6.274C613.463,154.524,608.457,151.646,605.076,149.7Z" transform="translate(-546.238 -109.346)" fill="#e8916a"/>
                            <path id="Trazado_720905" data-name="Trazado 720905" d="M577.011,120.285l1.734.984a31.039,31.039,0,0,1-1.984,6.083l-2.884-1.655c-13.294-7.619-28.889-17-40.536-28.593L539.194,87C548.267,103.032,563.675,112.737,577.011,120.285Z" transform="translate(-517.923 -86.995)" fill="#fbeed1"/>
                          </g>
                        </g>
                        <path id="Trazado_720906" data-name="Trazado 720906" d="M491.09,111.563c.951-5.985,3.693-13.114,7.723-20.073S507.659,78.6,512.375,74.8c4.374-3.529,8.182-4.8,10.446-3.491s3.057,5.246,2.175,10.8c-.951,5.985-3.694,13.114-7.723,20.073s-8.846,12.888-13.563,16.692c-4.374,3.529-8.182,4.8-10.446,3.491S490.208,117.114,491.09,111.563Z" transform="translate(-488.531 -68.594)" fill="#ffa031"/>
                        <g id="Grupo_1007325" data-name="Grupo 1007325" transform="translate(2.207 2.208)">
                          <path id="Trazado_720907" data-name="Trazado 720907" d="M512.375,74.8c4.374-3.529,8.182-4.8,10.446-3.491,1.352.782,2.178,2.5,2.438,4.938a22.712,22.712,0,0,0-4.951,3.146c-4.716,3.805-9.533,9.734-13.562,16.693s-6.771,14.088-7.723,20.073a22.69,22.69,0,0,0-.263,5.859c-2.243.989-4.144,1.127-5.5.345-2.264-1.311-3.057-5.246-2.174-10.8.951-5.985,3.693-13.114,7.723-20.073S507.659,78.6,512.375,74.8Z" transform="translate(-490.738 -70.802)" fill="#efb96d"/>
                          <path id="Trazado_720908" data-name="Trazado 720908" d="M511.92,99.632c4.029-6.96,8.846-12.888,13.562-16.693a22.711,22.711,0,0,1,4.951-3.146,22.744,22.744,0,0,1-.263,5.859c-.952,5.985-3.694,13.114-7.723,20.073s-8.846,12.888-13.562,16.692a22.707,22.707,0,0,1-4.95,3.146,22.687,22.687,0,0,1,.263-5.859C505.149,113.72,507.891,106.591,511.92,99.632Z" transform="translate(-495.911 -74.351)" fill="#e28f50"/>
                        </g>
                        <path id="Trazado_720909" data-name="Trazado 720909" d="M495.462,88.943c-4.161,7.188-7,14.587-7.993,20.833-1.048,6.6.105,11.236,3.249,13.056s7.74.512,12.94-3.683c4.923-3.971,9.925-10.117,14.087-17.306s7-14.587,7.993-20.833c1.049-6.6-.105-11.235-3.249-13.056s-7.74-.512-12.94,3.683C504.626,75.608,499.623,81.754,495.462,88.943Zm-3.637,31.977c-2.264-1.311-3.057-5.246-2.174-10.8.951-5.985,3.693-13.114,7.723-20.073s8.846-12.887,13.562-16.692c4.374-3.529,8.182-4.8,10.446-3.491s3.057,5.246,2.175,10.8c-.952,5.985-3.694,13.114-7.723,20.073s-8.846,12.888-13.563,16.692C497.9,120.958,494.09,122.23,491.825,120.92Z" transform="translate(-487.092 -67.154)" fill="#cc6164"/>
                        <g id="Grupo_1007326" data-name="Grupo 1007326" transform="translate(13.992 19.84)">
                          <path id="Trazado_720910" data-name="Trazado 720910" d="M519.724,121.557c-2.823-2.012-6.084-3.985-9.516-5.972l4.531-7.826,4.531-7.827c3.433,1.987,6.766,3.833,9.917,5.279a77.142,77.142,0,0,1-9.464,16.346Z" transform="translate(-510.208 -99.932)" fill="#f7dd8c"/>
                        </g>
                        <path id="Trazado_720911" data-name="Trazado 720911" d="M509.036,112.174a21.021,21.021,0,0,1,6.526-11.273c1.341-1.082,2.508-1.472,3.2-1.07s.937,1.609.666,3.31a21.015,21.015,0,0,1-6.526,11.273c-1.341,1.082-2.509,1.472-3.2,1.07S508.766,113.876,509.036,112.174Z" transform="translate(-495.711 -79.991)" fill="#fbeed1"/>
                      </g>
                    </g>
                  </g>
                  <path id="Trazado_720912" data-name="Trazado 720912" d="M585.417,184.3l2.09,2.148a1.21,1.21,0,0,1,.077,1.6l-3.666,4.578a1.21,1.21,0,0,1-1.657.222l-2.457-1.786a1.21,1.21,0,0,1-.226-1.744l4.032-4.939A1.211,1.211,0,0,1,585.417,184.3Z" transform="translate(-523.491 -113.25)" fill="#a64f5a"/>
                  <path id="Trazado_720913" data-name="Trazado 720913" d="M588.5,198.135l-4.538,26.552a8.778,8.778,0,0,0,8.652,10.256h0a9.3,9.3,0,0,0,8.478-5.4c2.7-5.852,6.628-14.37,6.628-14.37l-9.647-4.579-4.03,9.048-.575-21.537.258-6.791a1.816,1.816,0,0,0-.49-1.312l-1.489-1.588a1.816,1.816,0,0,0-1.7-.534l-4.12.873h0a2.6,2.6,0,0,0,2.756,2.083l1.557-.122C585.7,193.433,588.5,198.135,588.5,198.135Z" transform="translate(-525.279 -114.793)" fill="#bd6c67"/>
                  <path id="Trazado_720914" data-name="Trazado 720914" d="M607.141,225.436l9.647,4.579-5.45,11.806a14.757,14.757,0,0,1-1.5-12.866L606.8,226.2Z" transform="translate(-534.343 -129.631)" fill="#1c466d"/>
                  <path id="Trazado_720915" data-name="Trazado 720915" d="M600.7,239.994l3.279,4.617c.463-5.411-3.012-5.216-3.012-5.216Z" transform="translate(-531.937 -135.14)" fill="#8c404c"/>
                </g>
                <g id="Grupo_1007331" data-name="Grupo 1007331" transform="translate(71.541 79.46)">
                  <path id="Trazado_720916" data-name="Trazado 720916" d="M618.793,198.432h0a9.184,9.184,0,0,0-6.544,4.315l-6.962,11.434,5.8,2.755Z" transform="translate(-605.287 -198.432)" fill="#c1e4fa"/>
                  <path id="Trazado_720917" data-name="Trazado 720917" d="M612.415,221.465c2.266-5.616,3.761-8.125,5.849-9.766l-4.36,10.473Z" transform="translate(-608.101 -203.669)" fill="#4db1f0"/>
                </g>
              </g>
              <g id="Grupo_1007333" data-name="Grupo 1007333" transform="translate(90.795 70.624)">
                <path id="Trazado_720918" data-name="Trazado 720918" d="M639.433,196.121a6.928,6.928,0,0,0,5.377.959,9.939,9.939,0,0,0,4.814-2.748,14.833,14.833,0,0,0,1.794-2.184l-3.649-.851v-7.463l-7.225,1.553v5.97l-3.448.493A5.426,5.426,0,0,0,639.433,196.121Z" transform="translate(-637.097 -183.833)" fill="#bd6c67"/>
                <path id="Trazado_720919" data-name="Trazado 720919" d="M642.793,188.43c2.239,1.493,5.274-.362,7.225-2.12v-2.477l-7.225,1.553Z" transform="translate(-639.345 -183.833)" fill="#8c404c"/>
              </g>
              <g id="Grupo_1007334" data-name="Grupo 1007334" transform="translate(76.176 78.639)">
                <path id="Trazado_720920" data-name="Trazado 720920" d="M649.4,235.752c0-9.076,5.254-28.9.358-36.542l-7.875-1.836a14.833,14.833,0,0,1-1.794,2.184,9.939,9.939,0,0,1-4.814,2.748,6.928,6.928,0,0,1-5.377-.959,5.426,5.426,0,0,1-2.336-4.272l-5.748.821-8.358,20.078a6.692,6.692,0,0,0,2.247,7.986,6.685,6.685,0,0,1,2.723,6.13c-.737,6.828-2.356,20.781-3.776,25.754,21.973,7.285,42.154,0,42.154,0C656.8,250.918,649.4,244.828,649.4,235.752Z" transform="translate(-612.944 -197.076)" fill="#c1e4fa"/>
                <path id="Trazado_720921" data-name="Trazado 720921" d="M644.412,245.363H624.05c.1-.646.878-.885,1.531-.857a10.5,10.5,0,0,0,1.945.168,4.829,4.829,0,0,0,2.436-1.753c.72-.723,1.789-1.372,2.709-.932.9.432,1.112,1.654,1.9,2.273a2.72,2.72,0,0,0,2.349.308c.793-.2,1.531-.585,2.325-.785A5.876,5.876,0,0,1,644.412,245.363Z" transform="translate(-617.328 -214.748)" fill="#4db1f0"/>
                <path id="Trazado_720922" data-name="Trazado 720922" d="M654.679,211.7H644.423l2.234,27.132-17.316,5.082s-4.819-4.774-8.086-4.587h0c-.205,1.862-.458,4.077-.743,6.418h0c3.773,6.528,8.311,4.856,8.311,4.856l20.3,4.778a10.274,10.274,0,0,0,7.467-1.06c-2-3.791-4.2-7.849-4.2-12.793C652.388,234.482,655.549,220.972,654.679,211.7Z" transform="translate(-615.931 -202.848)" fill="#4db1f0"/>
              </g>
              <g id="Grupo_1007336" data-name="Grupo 1007336" transform="translate(75.856 80.376)">
                <path id="Trazado_720923" data-name="Trazado 720923" d="M667.244,200.1h0a9.783,9.783,0,0,1,7.341,7.459l2.726,12.6-14.728,1.194-2.631-14.3a6.024,6.024,0,0,1,4.505-6.944h0A6.019,6.019,0,0,1,667.244,200.1Z" transform="translate(-631.139 -199.946)" fill="#c1e4fa"/>
                <g id="Grupo_1007335" data-name="Grupo 1007335" transform="translate(0 20.464)">
                  <path id="Trazado_720924" data-name="Trazado 720924" d="M644.9,234.621l2.3,15.131-21.415,4.379L621.28,248.9a4.517,4.517,0,0,0-2.874-1.566,6.031,6.031,0,0,0-5.277,2.42h0a1.97,1.97,0,0,0,2.263.548,6.056,6.056,0,0,1,2.155-.488,11.816,11.816,0,0,0-4.21,2.284,2.784,2.784,0,0,0-.9,2.424l.216,1.658a1.479,1.479,0,0,0,2.522.844,5.447,5.447,0,0,1,2-1.435c2.639,4.912,7.953,2.584,7.953,2.584l22.289,3.063a8.85,8.85,0,0,0,10.008-9.678l-1.841-17.8Z" transform="translate(-612.415 -233.755)" fill="#bd6c67"/>
                  <path id="Trazado_720925" data-name="Trazado 720925" d="M669.788,259.487l5.632,2.866c-1.672-4.6-3.69-3.925-5.786-3.873Z" transform="translate(-635 -243.489)" fill="#8c404c"/>
                  <path id="Trazado_720926" data-name="Trazado 720926" d="M666.083,234.621l10.687-.867.09.867-10.3,3.147Z" transform="translate(-633.599 -233.755)" fill="#1c466d"/>
                </g>
              </g>
              <g id="Grupo_1007338" data-name="Grupo 1007338" transform="translate(88.942 52.118)">
                <path id="Trazado_720927" data-name="Trazado 720927" d="M649.58,164.481a6.23,6.23,0,0,1,.007-3.738,27.053,27.053,0,0,1-3.934-3.157,8.944,8.944,0,0,1-2.411-4.327,12.907,12.907,0,0,1-8.006,4.385l-.087.081-.677,3.226a20.518,20.518,0,0,0,.089,8.833l.059.254a6.582,6.582,0,0,0,1.591,3.072,6.355,6.355,0,0,0,6.351,1.756l2.689-.761a9.915,9.915,0,0,0,4.106-2.333,7.91,7.91,0,0,1,.338-2.5A8.285,8.285,0,0,0,649.58,164.481Z" transform="translate(-634.035 -153.26)" fill="#bd6c67"/>
                <g id="Grupo_1007337" data-name="Grupo 1007337" transform="translate(1.129 5.304)">
                  <path id="Trazado_720928" data-name="Trazado 720928" d="M653.2,169.1l-4.842-1.8a2.743,2.743,0,0,1,2.723-.242A5.28,5.28,0,0,1,653.2,169.1Z" transform="translate(-640.816 -163.915)" fill="#1c466d"/>
                  <path id="Trazado_720929" data-name="Trazado 720929" d="M650.079,171.813a.784.784,0,1,1-.4-1.131A.856.856,0,0,1,650.079,171.813Z" transform="translate(-640.898 -165.425)" fill="#1c466d"/>
                  <path id="Trazado_720930" data-name="Trazado 720930" d="M635.9,162.619l2.763,1.024a1.487,1.487,0,0,0-.913-1.589A2.658,2.658,0,0,0,635.9,162.619Z" transform="translate(-635.9 -162.023)" fill="#1c466d"/>
                  <path id="Trazado_720931" data-name="Trazado 720931" d="M636.826,166.852c-.177.476-.135.93.093,1.015s.557-.232.733-.709.135-.931-.094-1.016S637,166.376,636.826,166.852Z" transform="translate(-636.222 -163.644)" fill="#1c466d"/>
                  <path id="Trazado_720932" data-name="Trazado 720932" d="M641.007,175.286l-2.721-1.008a1.636,1.636,0,0,0,.961,1.345A1.906,1.906,0,0,0,641.007,175.286Z" transform="translate(-636.842 -166.86)" fill="#a64f5a"/>
                  <path id="Trazado_720933" data-name="Trazado 720933" d="M644.974,180.119,638.5,179.7a2.989,2.989,0,0,0,1.743,1.715,3.916,3.916,0,0,0,2.465.078A6.612,6.612,0,0,0,644.974,180.119Z" transform="translate(-636.925 -169.002)" fill="#fff"/>
                </g>
              </g>
              <g id="Grupo_1007340" data-name="Grupo 1007340" transform="translate(88.102 228.134)">
                <g id="Grupo_1007339" data-name="Grupo 1007339">
                  <path id="Trazado_720934" data-name="Trazado 720934" d="M658.729,449.742a18.4,18.4,0,0,0,9.674-1.887,13.464,13.464,0,0,0-1.427-3.794H652.617a10.761,10.761,0,0,1-1,1.463A9.3,9.3,0,0,1,658.729,449.742Z" transform="translate(-640.137 -444.061)" fill="#bd6c67"/>
                  <path id="Trazado_720935" data-name="Trazado 720935" d="M651.241,450.7a9.3,9.3,0,0,0-7.109-4.218,10.678,10.678,0,0,1-3.735,2.958c-1.677.791-3.548,1.136-5.172,2.03a4.809,4.809,0,0,0-2.526,4.695h28.461a19.475,19.475,0,0,0-.245-7.351A18.4,18.4,0,0,1,651.241,450.7Z" transform="translate(-632.648 -445.015)" fill="#1c466d"/>
                </g>
                <path id="Trazado_720936" data-name="Trazado 720936" d="M653.267,444.061h14.359C660.541,447.882,653.267,444.061,653.267,444.061Z" transform="translate(-640.787 -444.061)" fill="#1c466d"/>
              </g>
              <g id="Grupo_1007342" data-name="Grupo 1007342" transform="translate(58.647 228.134)">
                <g id="Grupo_1007341" data-name="Grupo 1007341">
                  <path id="Trazado_720937" data-name="Trazado 720937" d="M610.064,449.742a18.394,18.394,0,0,0,9.674-1.887,13.453,13.453,0,0,0-1.427-3.794h-14.36a10.705,10.705,0,0,1-1,1.463A9.3,9.3,0,0,1,610.064,449.742Z" transform="translate(-591.471 -444.061)" fill="#bd6c67"/>
                  <path id="Trazado_720938" data-name="Trazado 720938" d="M602.576,450.7a9.3,9.3,0,0,0-7.11-4.218,10.671,10.671,0,0,1-3.735,2.958c-1.677.791-3.548,1.136-5.172,2.03a4.808,4.808,0,0,0-2.526,4.695h28.461a19.459,19.459,0,0,0-.245-7.351A18.394,18.394,0,0,1,602.576,450.7Z" transform="translate(-583.983 -445.015)" fill="#1c466d"/>
                </g>
                <path id="Trazado_720939" data-name="Trazado 720939" d="M604.6,444.061h14.36C611.875,447.882,604.6,444.061,604.6,444.061Z" transform="translate(-592.122 -444.061)" fill="#1c466d"/>
              </g>
              <path id="Trazado_720940" data-name="Trazado 720940" d="M647.866,197.374a14.833,14.833,0,0,1-1.794,2.184,9.94,9.94,0,0,1-4.814,2.748,6.928,6.928,0,0,1-5.377-.959,5.426,5.426,0,0,1-2.336-4.272H628.1a12.612,12.612,0,0,0,1.955,6.7,9.927,9.927,0,0,0,5.216,3.9,10.362,10.362,0,0,0,1.161.289l2.06-4.182c-.165,1.445-.32,2.911-.479,4.371a15.014,15.014,0,0,0,2.094-.033,15.679,15.679,0,0,0,7.9-2.87,14.885,14.885,0,0,0,5.245-7.137Z" transform="translate(-542.75 -118.437)" fill="#fff"/>
            </g>
            <g id="Grupo_1007344" data-name="Grupo 1007344">
              <path id="Trazado_720941" data-name="Trazado 720941" d="M463.136,78.4l13.474,5.941-.278-2.912L466.867,75.9Z" transform="translate(-460.743 -61.246)" fill="#454f6b"/>
              <path id="Trazado_720942" data-name="Trazado 720942" d="M479.378,60.053l7.09,8,2.049-.569-6.831-10.623Z" transform="translate(-467.154 -53.73)" fill="#454f6b"/>
              <path id="Trazado_720943" data-name="Trazado 720943" d="M497.189,51.691l3.446,10.115,2.11.267L500.45,52.5Z" transform="translate(-474.184 -51.691)" fill="#454f6b"/>
              <path id="Trazado_720944" data-name="Trazado 720944" d="M460.949,118.649l10.1-3.486.259-2.111-9.564,2.333Z" transform="translate(-459.879 -75.911)" fill="#454f6b"/>
              <path id="Trazado_720945" data-name="Trazado 720945" d="M460.418,97.7l10.634,1.053.74,1.993-12.61.7Z" transform="translate(-459.182 -69.85)" fill="#454f6b"/>
            </g>
          </g>
          <g id="Grupo_1007356" data-name="Grupo 1007356" transform="translate(0 54.678)">
            <g id="Grupo_1007349" data-name="Grupo 1007349" transform="translate(0 90.619)">
              <path id="Trazado_720946" data-name="Trazado 720946" d="M108.548,292.506l7.44,45.146a25.828,25.828,0,0,1,.185,7.066l-3.615,32.4H97.105l-.354-9.537a96.168,96.168,0,0,1,2.815-26.925h0l-9.005-27.73-4.306,31.347h0a115.32,115.32,0,0,1-1.137,27.079l-.929,5.766H68.859L72.3,343.24,69.214,315.83a64.9,64.9,0,0,1,1.491-22.852l.306-1.238Z" transform="translate(-67.582 -291.74)" fill="#645b79"/>
              <path id="Trazado_720947" data-name="Trazado 720947" d="M96.155,322.472l-1.829-5.634-11.347-.911.392.345a11.148,11.148,0,0,0,5.673,2.646h0a5.7,5.7,0,0,1,4.765,4.716L95,330.906Z" transform="translate(-73.177 -301.287)" fill="#4b4560"/>
              <path id="Trazado_720948" data-name="Trazado 720948" d="M137.465,341.823l-5.892-32.157-1.447-7.9a.262.262,0,0,0-.3-.208.259.259,0,0,0-.208.3l1.339,7.309,6,32.744a17.768,17.768,0,0,1,.173,5.273l-3.6,30.953a.259.259,0,0,0,.227.287h.03a.259.259,0,0,0,.257-.228l3.6-30.954A18.339,18.339,0,0,0,137.465,341.823Z" transform="translate(-91.584 -295.615)" fill="#967f92"/>
              <path id="Trazado_720949" data-name="Trazado 720949" d="M113.823,439.133h17.089l.553-6.339H114.376Z" transform="translate(-85.351 -347.417)" fill="#967f92"/>
              <path id="Trazado_720950" data-name="Trazado 720950" d="M66.784,439.133H83.873l.553-6.339H67.337Z" transform="translate(-66.784 -347.417)" fill="#967f92"/>
              <g id="Grupo_1007346" data-name="Grupo 1007346" transform="translate(21.52 3.1)">
                <path id="Trazado_720951" data-name="Trazado 720951" d="M107.568,310.562l-5.1-3.014a.258.258,0,0,1-.127-.222V297.12a.258.258,0,0,1,.258-.258H112.8a.258.258,0,0,1,.258.258v10.205a.258.258,0,0,1-.127.222l-5.1,3.014a.261.261,0,0,1-.131.036A.257.257,0,0,1,107.568,310.562Zm4.975-13.184h-9.688v9.8l4.844,2.861,4.844-2.861Zm-9.951,9.947h0Z" transform="translate(-102.338 -296.862)" fill="#967f92"/>
              </g>
              <g id="Grupo_1007347" data-name="Grupo 1007347" transform="translate(3.623 2.755)">
                <path id="Trazado_720952" data-name="Trazado 720952" d="M76.363,308.04l-3.488-2.572a.258.258,0,0,1-.1-.208V296.55a.258.258,0,0,1,.258-.258H80a.258.258,0,0,1,.258.258v8.709a.258.258,0,0,1-.1.208l-3.488,2.572a.258.258,0,0,1-.306,0Zm3.382-11.232H73.287v8.32l3.229,2.382,3.229-2.382Zm-6.722,8.451h0Z" transform="translate(-72.77 -296.292)" fill="#967f92"/>
              </g>
              <g id="Grupo_1007348" data-name="Grupo 1007348" transform="translate(15.249 0.761)">
                <path id="Trazado_720953" data-name="Trazado 720953" d="M92.909,306.556a.249.249,0,0,0,.051,0,.258.258,0,0,0,.2-.305,34.238,34.238,0,0,1-.1-12.943.258.258,0,0,0-.508-.1,34.772,34.772,0,0,0,.1,13.141A.259.259,0,0,0,92.909,306.556Z" transform="translate(-91.978 -292.998)" fill="#967f92"/>
              </g>
            </g>
            <g id="Grupo_1007350" data-name="Grupo 1007350" transform="translate(13.62)">
              <path id="Trazado_720954" data-name="Trazado 720954" d="M111.943,195.521l-1,3.746h-11.5l4.457-7.622Z" transform="translate(-93.297 -161.612)" fill="#bd6c67"/>
              <path id="Trazado_720955" data-name="Trazado 720955" d="M112.507,184.161h0a10.151,10.151,0,0,0,10.842-9.41l.3-4.255a10.151,10.151,0,0,0-9.411-10.842h0a10.152,10.152,0,0,0-10.842,9.41l-.3,4.255A10.151,10.151,0,0,0,112.507,184.161Z" transform="translate(-94.727 -148.974)" fill="#bd6c67"/>
              <path id="Trazado_720956" data-name="Trazado 720956" d="M99.042,173.3c.016-.07.117.036.133-.033a6.494,6.494,0,0,0,7.662.32,7.828,7.828,0,0,0,3.055-5.788,2.094,2.094,0,0,1,1.891-1.868l1.221-.119-.581,7.019.789-.729a3.322,3.322,0,0,0,1.042-2.023l.429-3.385a3.322,3.322,0,0,0,1.433-2.442l.246-2.726a23.593,23.593,0,0,0,3.231-4,7.4,7.4,0,0,0,.954-4.587,4.576,4.576,0,0,0-2.756-3.615,7.994,7.994,0,0,0-3.319-5.322,6.516,6.516,0,0,0-5.592-.713,4.479,4.479,0,0,0-6.705.53A5.1,5.1,0,0,0,94.8,148.85a4.54,4.54,0,0,0-3.592,2.782,4.747,4.747,0,0,0,.545,4.621,2.881,2.881,0,0,0-1.169,5.182,4.392,4.392,0,0,0-1.033,4.683,4.211,4.211,0,0,0,3.834,2.7,4.826,4.826,0,0,0,1.215,3.5A7.169,7.169,0,0,0,99.042,173.3Z" transform="translate(-89.285 -142.027)" fill="#1c466d"/>
              <path id="Trazado_720957" data-name="Trazado 720957" d="M123.778,182.279a3.234,3.234,0,1,0,3.234-3.234A3.234,3.234,0,0,0,123.778,182.279Z" transform="translate(-102.9 -156.638)" fill="#bd6c67"/>
            </g>
            <path id="Trazado_720958" data-name="Trazado 720958" d="M90.3,202.339l15.6.984,4.086,53.884-37.536-.766,1.387-25.4a92.441,92.441,0,0,1,3.071-19.1h0A13.021,13.021,0,0,1,90.3,202.339Z" transform="translate(-69.021 -165.823)" fill="#ffdeb7"/>
            <path id="Trazado_720959" data-name="Trazado 720959" d="M123.608,218.619c-1.246,6.817,2.243,17.543,4.9,24.353l-1.691-22.3Z" transform="translate(-89.111 -172.259)" fill="#ffa031"/>
            <g id="Grupo_1007351" data-name="Grupo 1007351" transform="translate(34.507 37.5)">
              <path id="Trazado_720960" data-name="Trazado 720960" d="M185.754,229.843a20.018,20.018,0,0,1,4.05-12.631l.015.008a1.682,1.682,0,0,1,.715,2.192,8.623,8.623,0,0,0-.827,2.983,9.63,9.63,0,0,1,1.746-2.994,1.227,1.227,0,0,1,1.714-.166,30,30,0,0,1,2.282,2.045,1.7,1.7,0,0,1,.188,2.169A14.377,14.377,0,0,0,194,226.64c.861,4-1.188,8.885-4.913,9.631Z" transform="translate(-148.248 -209.204)" fill="#bd6c67"/>
              <path id="Trazado_720961" data-name="Trazado 720961" d="M126.167,203.981h0a7.544,7.544,0,0,1,7.062,4.892l9.414,25.063,18.036-10.757c4.75,2.235,4.47,8.662,4.47,8.662L145.7,243.854a8.783,8.783,0,0,1-12.826-4.353l-8-21.056a16.487,16.487,0,0,1,.745-13.39Z" transform="translate(-123.795 -203.981)" fill="#ffdeb7"/>
              <path id="Trazado_720962" data-name="Trazado 720962" d="M154.936,252.758l1.48,3.939a6.4,6.4,0,0,0,.35-5.03Z" transform="translate(-136.087 -222.804)" fill="#ffa031"/>
            </g>
            <g id="Grupo_1007353" data-name="Grupo 1007353" transform="translate(29.071 182.335)">
              <g id="Grupo_1007352" data-name="Grupo 1007352">
                <path id="Trazado_720963" data-name="Trazado 720963" d="M117.734,445.85l.194-2.583h10.153v.586a3.617,3.617,0,0,0,1.039,2.537l2.289,2.328a5.966,5.966,0,0,0,3.146,1.678l.191.036a5.961,5.961,0,0,1,3.917,2.653h-23Z" transform="translate(-115.15 -443.267)" fill="#454f6b"/>
                <path id="Trazado_720964" data-name="Trazado 720964" d="M138.325,459.487a5.949,5.949,0,0,1,.774,1.809H114.813l.517-1.809Z" transform="translate(-114.813 -449.669)" fill="#fff"/>
              </g>
              <path id="Trazado_720965" data-name="Trazado 720965" d="M129.429,443.267H119.275l-.194,2.584,10.347-2Z" transform="translate(-116.498 -443.267)" fill="#1c466d"/>
            </g>
            <g id="Grupo_1007355" data-name="Grupo 1007355" transform="translate(1.621 182.335)">
              <g id="Grupo_1007354" data-name="Grupo 1007354">
                <path id="Trazado_720966" data-name="Trazado 720966" d="M71.557,444.946v-1.679h9.108v1.04a7.285,7.285,0,0,0,.625,2.955l1.157,2.612a3.18,3.18,0,0,0,1.545,1.585h0a3.172,3.172,0,0,1,1.558,1.626H70.025Z" transform="translate(-69.684 -443.267)" fill="#454f6b"/>
                <path id="Trazado_720967" data-name="Trazado 720967" d="M85.328,459.487a3.187,3.187,0,0,1,.177.527l.3,1.282H69.462l.341-1.809Z" transform="translate(-69.462 -449.669)" fill="#fff"/>
              </g>
              <path id="Trazado_720968" data-name="Trazado 720968" d="M81.479,443.267H72.372v1.679l-.283,1.505,9.39-2.635Z" transform="translate(-70.499 -443.267)" fill="#1c466d"/>
            </g>
          </g>
          <g id="Grupo_1007376" data-name="Grupo 1007376" transform="translate(119.888 54.776)">
            <path id="Trazado_720969" data-name="Trazado 720969" d="M323.444,189.46a109.309,109.309,0,0,1-.031-27.2c.441-3.54,1.049-7.185.117-10.629a13.317,13.317,0,0,0-11.579-9.4,15.026,15.026,0,0,0-13.481,6.858c-3.4,5.274-3.361,11.982-3.1,18.251s.565,12.91-2.445,18.416c3.217,4.725,8.4,8.6,14.071,9.324S319.146,193.228,323.444,189.46Z" transform="translate(-275.937 -142.187)" fill="#8c404c"/>
            <g id="Grupo_1007358" data-name="Grupo 1007358" transform="translate(44.489 37.977)">
              <path id="Trazado_720970" data-name="Trazado 720970" d="M338.357,204.93h0a8.018,8.018,0,0,1,4.733,4.885l8.464,24.579,13.23-5,3.963,4.458-13.555,10.422a6.272,6.272,0,0,1-9.154-1.669l-7.163-11.418Z" transform="translate(-338.357 -204.93)" fill="#b6cfe5"/>
              <path id="Trazado_720971" data-name="Trazado 720971" d="M342.383,233.568c.816-3.037,2.2-5.981,2.269-9.125a14.929,14.929,0,0,0-2.479-8.057,34.366,34.366,0,0,0-3.683-4.758l.438,22.206,2.958,4.715A14.086,14.086,0,0,1,342.383,233.568Z" transform="translate(-338.409 -207.574)" fill="#3076b6"/>
              <path id="Trazado_720972" data-name="Trazado 720972" d="M356.58,253.131l-5.487,2.155.414-.611a5.178,5.178,0,0,1,4.832-2.247h0Z" transform="translate(-343.384 -223.667)" fill="#3076b6"/>
              <g id="Grupo_1007357" data-name="Grupo 1007357" transform="translate(25.345 16.479)">
                <path id="Trazado_720973" data-name="Trazado 720973" d="M384.251,232.156l-3.627,7.557a3.992,3.992,0,0,0,.085,3.624h0a3.993,3.993,0,0,0,5.456,1.594l4.63-2.575a7,7,0,0,0,3.063-3.433h0a3.919,3.919,0,0,0-.528-3.915l-1.035-1.327a1.568,1.568,0,0,0-2.567.135l-1.165,1.868-3.871,1.029.549-2.059a2.256,2.256,0,0,0-.99-2.5Z" transform="translate(-380.23 -232.156)" fill="#f0bf9c"/>
                <path id="Trazado_720974" data-name="Trazado 720974" d="M387.6,239.684h0a8.679,8.679,0,0,1,.1,5.664l-.1.314.167-.2a4.4,4.4,0,0,0-.167-5.774Z" transform="translate(-383.139 -235.127)" fill="#eba588"/>
              </g>
            </g>
            <g id="Grupo_1007360" data-name="Grupo 1007360" transform="translate(32.208 93.115)">
              <g id="Grupo_1007359" data-name="Grupo 1007359" transform="translate(3.789 89.446)">
                <path id="Trazado_720975" data-name="Trazado 720975" d="M325.763,444.129,324.326,455.1h18.553a20.247,20.247,0,0,0-5.148-6.5l-5.761-4.8Z" transform="translate(-324.326 -443.802)" fill="#797c99"/>
                <path id="Trazado_720976" data-name="Trazado 720976" d="M335.458,446.132l-2.8-2.33-6.207.327-.374,2.856A16.33,16.33,0,0,0,335.458,446.132Z" transform="translate(-325.019 -443.802)" fill="#006f6e"/>
              </g>
              <path id="Trazado_720977" data-name="Trazado 720977" d="M318.066,296.025l3.658,39.72L320.156,385.8l1.1.28a18.25,18.25,0,0,0,10.01-.28l4.888-50.053.6-39.72Z" transform="translate(-318.066 -296.025)" fill="#005353"/>
            </g>
            <g id="Grupo_1007364" data-name="Grupo 1007364" transform="translate(0 93.115)">
              <g id="Grupo_1007361" data-name="Grupo 1007361" transform="translate(0 87.487)">
                <path id="Trazado_720978" data-name="Trazado 720978" d="M275.308,442.067l.335,2.013a8.514,8.514,0,0,0,2.9,5.1l1.442,1.219a8.51,8.51,0,0,1,2.443,3.427h-9.263a9.511,9.511,0,0,1-7.7-3.923l-.614-.846,4.246-8.493Z" transform="translate(-264.855 -440.564)" fill="#797c99"/>
                <path id="Trazado_720979" data-name="Trazado 720979" d="M277.719,444.621c-.042-.179-.084-.359-.115-.541l-.335-2.013-6.207-1.5-1.239,2.479A18.085,18.085,0,0,0,277.719,444.621Z" transform="translate(-266.816 -440.564)" fill="#006f6e"/>
              </g>
              <g id="Grupo_1007363" data-name="Grupo 1007363" transform="translate(1.241)">
                <g id="Grupo_1007362" data-name="Grupo 1007362">
                  <path id="Trazado_720980" data-name="Trazado 720980" d="M279.188,296.025h0a34.746,34.746,0,0,0-2.442,17l2.442,22.717-12.282,47.113h0a19.978,19.978,0,0,0,10.431,2.94h.249l14.9-45.4,11.362-44.374Z" transform="translate(-266.906 -296.025)" fill="#005353"/>
                </g>
              </g>
            </g>
            <g id="Grupo_1007365" data-name="Grupo 1007365" transform="translate(13.523 34.579)">
              <path id="Trazado_720981" data-name="Trazado 720981" d="M301.765,199.317l-12.347,4.965v16.724l2.664,6.09a21.729,21.729,0,0,1,.476,16.234L287.2,257.852h37.368l-2.122-13.765-1.862-12.081a10.646,10.646,0,0,1,1.058-6.5l.513-1a11.891,11.891,0,0,0,.567-9.613l-4.557-12.184-8.362-3.4-2.253,4Z" transform="translate(-287.197 -199.317)" fill="#b6cfe5"/>
              <path id="Trazado_720982" data-name="Trazado 720982" d="M295.327,221.755l.988,3.316a10.42,10.42,0,0,1-1.416,8.905l-1.367,1.977-2.664-6.09Z" transform="translate(-288.646 -208.174)" fill="#3076b6"/>
            </g>
            <g id="Grupo_1007373" data-name="Grupo 1007373" transform="translate(20.986 11.464)">
              <g id="Grupo_1007367" data-name="Grupo 1007367" transform="translate(7.105 14.035)">
                <g id="Grupo_1007366" data-name="Grupo 1007366">
                  <path id="Trazado_720983" data-name="Trazado 720983" d="M315.168,191.2a6.718,6.718,0,0,0,3.453.813c.3,0,.6-.021.9-.05v-7.645h-7.7a13.125,13.125,0,0,0,.32,2.4A6.953,6.953,0,0,0,315.168,191.2Z" transform="translate(-311.487 -184.315)" fill="#1c466d"/>
                  <path id="Trazado_720984" data-name="Trazado 720984" d="M318.4,192.01a6.718,6.718,0,0,1-3.453-.813,6.953,6.953,0,0,1-3.022-4.477,13.125,13.125,0,0,1-.32-2.4h-.34v9.08l5.783,4,2.253-4V191.96C319,191.989,318.7,192.007,318.4,192.01Z" transform="translate(-311.266 -184.315)" fill="#f0bf9c"/>
                </g>
                <path id="Trazado_720985" data-name="Trazado 720985" d="M311.266,199.317l1.07,7.009a.783.783,0,0,0,1.334.43l3.379-3.442Z" transform="translate(-311.266 -190.237)" fill="#3076b6"/>
                <path id="Trazado_720986" data-name="Trazado 720986" d="M323.073,199.317l-2.253,4,2.378,1.8a.784.784,0,0,0,1.229-.832Z" transform="translate(-315.037 -190.237)" fill="#3076b6"/>
              </g>
              <path id="Trazado_720987" data-name="Trazado 720987" d="M324.065,161.127a32.941,32.941,0,0,1-16.145,7.2v2.819a9.211,9.211,0,0,0,9.211,9.211h0a9.211,9.211,0,0,0,9.212-9.211v-5.978a9.192,9.192,0,0,0-.488-2.942A7.771,7.771,0,0,0,324.065,161.127Z" transform="translate(-302.84 -161.127)" fill="#f0bf9c"/>
              <g id="Grupo_1007369" data-name="Grupo 1007369" transform="translate(12.149 4.884)">
                <g id="Grupo_1007368" data-name="Grupo 1007368">
                  <path id="Trazado_720988" data-name="Trazado 720988" d="M322.235,169.2a3.308,3.308,0,0,0-2.637,1.31h5.273A3.308,3.308,0,0,0,322.235,169.2Z" transform="translate(-319.598 -169.196)" fill="#8c404c"/>
                </g>
                <path id="Trazado_720989" data-name="Trazado 720989" d="M324.211,174.263a.74.74,0,1,1-.74-.739A.74.74,0,0,1,324.211,174.263Z" transform="translate(-320.835 -170.904)" fill="#1c466d"/>
              </g>
              <g id="Grupo_1007371" data-name="Grupo 1007371" transform="translate(19.77 4.884)">
                <g id="Grupo_1007370" data-name="Grupo 1007370">
                  <path id="Trazado_720990" data-name="Trazado 720990" d="M334.056,169.2a2.211,2.211,0,0,1,1.867,1.31h-3.733A2.21,2.21,0,0,1,334.056,169.2Z" transform="translate(-332.189 -169.196)" fill="#8c404c"/>
                </g>
                <path id="Trazado_720991" data-name="Trazado 720991" d="M334.408,174.263c0,.409.234.74.524.74s.524-.331.524-.74-.235-.739-.524-.739S334.408,173.854,334.408,174.263Z" transform="translate(-333.065 -170.904)" fill="#1c466d"/>
              </g>
              <path id="Trazado_720992" data-name="Trazado 720992" d="M331.124,179.45a10.581,10.581,0,0,0-2.491-.033,1.579,1.579,0,0,0,1.211.751A1.672,1.672,0,0,0,331.124,179.45Z" transform="translate(-311.016 -168.323)" fill="#eba588"/>
              <path id="Trazado_720993" data-name="Trazado 720993" d="M329,182.891a27.6,27.6,0,0,1-6.246.3,3.2,3.2,0,0,0,1.665,2.293,2.949,2.949,0,0,0,2.716.012A5.1,5.1,0,0,0,329,182.891Z" transform="translate(-308.694 -169.718)" fill="#fff"/>
              <path id="Trazado_720994" data-name="Trazado 720994" d="M307.92,172.221V176.5l.977-.977a4.035,4.035,0,0,0,1.181-2.852V171Z" transform="translate(-302.84 -165.023)" fill="#8c404c"/>
              <g id="Grupo_1007372" data-name="Grupo 1007372" transform="translate(0 6.648)">
                <path id="Trazado_720995" data-name="Trazado 720995" d="M305.459,175.077a2.966,2.966,0,1,1-2.966-2.966A2.966,2.966,0,0,1,305.459,175.077Z" transform="translate(-299.527 -172.111)" fill="#f0bf9c"/>
                <path id="Trazado_720996" data-name="Trazado 720996" d="M305.037,175.868a1.752,1.752,0,1,1-1.752-1.752A1.752,1.752,0,0,1,305.037,175.868Z" transform="translate(-300.319 -172.902)" fill="#eba588"/>
              </g>
            </g>
            <g id="Grupo_1007375" data-name="Grupo 1007375" transform="translate(4.956 39.544)">
              <g id="Grupo_1007374" data-name="Grupo 1007374" transform="translate(10.69 57.098)">
                <path id="Trazado_720997" data-name="Trazado 720997" d="M301.312,305.191,304.854,308l2.091,3.692h0a3.207,3.207,0,0,1-3.3-1.674Z" transform="translate(-294.892 -303.171)" fill="#f0bf9c"/>
                <path id="Trazado_720998" data-name="Trazado 720998" d="M290.7,303.617l.475,7.351a4.71,4.71,0,0,0,.763,2.279l1.612,2.455a3.136,3.136,0,0,0,3.627,1.248l1.289-.437a3.136,3.136,0,0,0,2.128-3.062l-.09-3.046a4.712,4.712,0,0,0-.739-2.4l-3.938-6.156Z" transform="translate(-290.705 -301.853)" fill="#f0bf9c"/>
                <path id="Trazado_720999" data-name="Trazado 720999" d="M294.319,305.935a7.58,7.58,0,0,0,2.807-2.062l-1.292-2.02-5.128,1.764.186,2.882A7.574,7.574,0,0,0,294.319,305.935Z" transform="translate(-290.705 -301.853)" fill="#1c466d"/>
              </g>
              <path id="Trazado_721000" data-name="Trazado 721000" d="M283.832,207.52h0a5.252,5.252,0,0,0-2.9,3.331l-7.27,25.1a15.676,15.676,0,0,0,.484,10.14l8.509,21.471h.853a10.1,10.1,0,0,0,6.594-2.45h0l-8.967-24.891,6.9-16.216a10.492,10.492,0,0,0,.7-5.791h0a22.187,22.187,0,0,0-4.9-10.69Z" transform="translate(-273.044 -207.52)" fill="#b6cfe5"/>
            </g>
          </g>
          <g id="Grupo_1007378" data-name="Grupo 1007378" transform="translate(193.556 66.173)">
            <path id="Trazado_721001" data-name="Trazado 721001" d="M445.046,163.423l-12.364,1.3a17.873,17.873,0,0,0-10.913-3.7H404.521a17.956,17.956,0,0,0-17.957,17.956h0a17.957,17.957,0,0,0,17.957,17.957h17.248a17.956,17.956,0,0,0,17.956-17.957h0a17.882,17.882,0,0,0-1.615-7.441Z" transform="translate(-386.564 -161.018)" fill="#fff"/>
            <g id="Grupo_1007377" data-name="Grupo 1007377" transform="translate(13.484 10.181)">
              <path id="Trazado_721002" data-name="Trazado 721002" d="M408.84,177.839v15.55h26.195v-15.55l-13.1,10.218Z" transform="translate(-408.84 -177.839)" fill="#f7dd8c"/>
              <path id="Trazado_721003" data-name="Trazado 721003" d="M421.938,188.057l13.1-10.218H408.84Z" transform="translate(-408.84 -177.839)" fill="#fbeed1"/>
            </g>
          </g>
          <g id="Grupo_1007379" data-name="Grupo 1007379" transform="translate(155.581 7.74)">
            <path id="Trazado_721004" data-name="Trazado 721004" d="M396.5,99.393l-14.258-8.231a20.06,20.06,0,0,0,1.107-6.579h0a20.106,20.106,0,0,0-20.106-20.106H343.93a20.106,20.106,0,0,0-20.106,20.106h0a20.105,20.105,0,0,0,20.106,20.106h19.313a20.022,20.022,0,0,0,13.241-4.983Z" transform="translate(-323.824 -64.478)" fill="#fff"/>
            <path id="Trazado_721005" data-name="Trazado 721005" d="M364.22,95.565,355.9,99.937l1.588-9.26-6.728-6.558,9.3-1.351,4.158-8.425,4.158,8.425,9.3,1.351-6.728,6.558,1.588,9.26Z" transform="translate(-334.458 -68.372)" fill="#4db1f0"/>
          </g>
          <g id="Grupo_1007380" data-name="Grupo 1007380" transform="translate(37.949 11.567)">
            <path id="Trazado_721006" data-name="Trazado 721006" d="M162.386,70.8H146.265a16.784,16.784,0,0,0-16.784,16.783h0a16.784,16.784,0,0,0,16.784,16.784H154.6l7.317,11.923-.554-11.923h1.024A16.783,16.783,0,0,0,179.17,87.585h0A16.783,16.783,0,0,0,162.386,70.8Z" transform="translate(-129.481 -70.802)" fill="#fff"/>
            <path id="Trazado_721007" data-name="Trazado 721007" d="M172.391,88.34h0a4.594,4.594,0,0,0-6.5,0l-1.383,1.383-1.382-1.383a4.594,4.594,0,0,0-6.5,0h0a4.594,4.594,0,0,0,0,6.5l1.383,1.383h0l6.5,6.5,6.5-6.5,1.383-1.383A4.6,4.6,0,0,0,172.391,88.34Z" transform="translate(-139.667 -77.193)" fill="#cc6164"/>
          </g>
          <g id="Grupo_1007383" data-name="Grupo 1007383" transform="translate(242.232 109.018)">
            <path id="Trazado_721008" data-name="Trazado 721008" d="M522.068,251.931,521.6,231.8l-10.184,13.25a20.131,20.131,0,0,0-5.021-.632H487.088a20.106,20.106,0,0,0-20.106,20.106h0a20.106,20.106,0,0,0,20.106,20.106H506.4a20.106,20.106,0,0,0,20.106-20.106h0A20.02,20.02,0,0,0,522.068,251.931Z" transform="translate(-466.982 -231.802)" fill="#fff"/>
            <g id="Grupo_1007382" data-name="Grupo 1007382" transform="translate(13.732 17.659)">
              <circle id="Elipse_8618" data-name="Elipse 8618" cx="13.343" cy="13.343" r="13.343" transform="translate(0 25.985) rotate(-76.844)" fill="#ffa031"/>
              <g id="Grupo_1007381" data-name="Grupo 1007381" transform="translate(8.399 11.615)">
                <circle id="Elipse_8619" data-name="Elipse 8619" cx="1.627" cy="1.627" r="1.627" transform="translate(1.536)" fill="#fff1e0"/>
                <circle id="Elipse_8620" data-name="Elipse 8620" cx="1.627" cy="1.627" r="1.627" transform="translate(10.472)" fill="#fff1e0"/>
                <path id="Trazado_721009" data-name="Trazado 721009" d="M503.546,293.5a8.021,8.021,0,0,0,15.261,0Z" transform="translate(-503.546 -285.43)" fill="#fff"/>
              </g>
            </g>
          </g>
        </g>
        <path id="Trazado_721010" data-name="Trazado 721010" d="M444.36,465.04H40.783a1.283,1.283,0,0,1-1.283-1.283h0a1.283,1.283,0,0,1,1.283-1.283H444.36a1.283,1.283,0,0,1,1.283,1.283h0A1.283,1.283,0,0,1,444.36,465.04Z" transform="translate(-39.5 -213.836)" fill="#1c466d"/>
        <path id="Trazado_721011" data-name="Trazado 721011" d="M612.632,465.04H488.375a1.282,1.282,0,0,1-1.283-1.283h0a1.282,1.282,0,0,1,1.283-1.283H612.632a1.283,1.283,0,0,1,1.283,1.283h0A1.283,1.283,0,0,1,612.632,465.04Z" transform="translate(-216.174 -213.836)" fill="#797c99"/>
        <path id="Trazado_721012" data-name="Trazado 721012" d="M250.828,465.04H61.116a1.283,1.283,0,0,1-1.283-1.283h0a1.283,1.283,0,0,1,1.283-1.283H250.828a1.283,1.283,0,0,1,1.283,1.283h0A1.283,1.283,0,0,1,250.828,465.04Z" transform="translate(-47.526 -213.836)" fill="#797c99"/>
      </g>
    </g>
  </g>
</svg>
