<svg xmlns="http://www.w3.org/2000/svg" width="400" height="485" viewBox="0 0 400 485">
  <g id="Grupo_1013477" data-name="Grupo 1013477" transform="translate(-180 -2747)">
    <rect id="tomar-muestra-agua-estanque-comprobar-calidad-agua" width="400" height="485" rx="20" transform="translate(180 2747)" fill="#00a3e5"/>
    <rect id="Rectángulo_347962" data-name="Rectángulo 347962" width="400" height="63" transform="translate(180 3100)" fill="#007eba"/>
    <g id="Grupo_1007541" data-name="Grupo 1007541" transform="translate(130.661 2725.497)">
      <g id="Grupo_1007494" data-name="Grupo 1007494" transform="translate(68.417 98.81)">
        <g id="Grupo_1007493" data-name="Grupo 1007493" transform="translate(0 0)">
          <g id="Grupo_1007492" data-name="Grupo 1007492">
            <path id="Trazado_721299" data-name="Trazado 721299" d="M249.4,98.96c-99.921,0-180.922,84.751-180.922,189.3a195.428,195.428,0,0,0,21.155,88.879H409.17a195.44,195.44,0,0,0,21.155-88.879C430.325,183.711,349.323,98.96,249.4,98.96Z" transform="translate(-68.48 -98.96)" fill="#fbefe1"/>
          </g>
        </g>
        <line id="Línea_2683" data-name="Línea 2683" x1="350.306" transform="translate(5.769 278.176)" fill="none" stroke="#2e6a90" stroke-linecap="round" stroke-linejoin="round" stroke-width="2.072"/>
      </g>
      <g id="Grupo_1007498" data-name="Grupo 1007498" transform="translate(119.794 163.525)">
        <g id="Grupo_1007495" data-name="Grupo 1007495" transform="translate(14.283)">
          <path id="Trazado_721300" data-name="Trazado 721300" d="M143.541,187.1a15.165,15.165,0,0,1-1.484.345,12.62,12.62,0,0,1-1.372.165,10.719,10.719,0,0,1-1.374,0q-.692-.04-1.516-.134a14.962,14.962,0,0,1-.194-2.1q-.025-1.087.033-2.345a16.438,16.438,0,0,0,2.556.151,8.534,8.534,0,0,0,2.072-.3,4.233,4.233,0,0,0,1.981-1.048,1.594,1.594,0,0,0,.341-1.619,1.552,1.552,0,0,0-1.011-1.119,8.515,8.515,0,0,0-1.81-.391l-1.622-.192a14.313,14.313,0,0,1-1.785-.354,5.323,5.323,0,0,1-1.571-.695,4.939,4.939,0,0,1-1.259-1.212,5.854,5.854,0,0,1-.875-1.9,5.729,5.729,0,0,1,.215-4.214,6.367,6.367,0,0,1,3.079-2.865l-.7-2.465a4.386,4.386,0,0,1,.826-.426c.284-.11.527-.193.728-.249s.456-.115.764-.172a3.9,3.9,0,0,1,.913-.065l.673,2.382a15.156,15.156,0,0,1,2.03-.189q1.042-.027,2.246.046a13.161,13.161,0,0,1-.025,4.206,16.679,16.679,0,0,0-2.028-.166,8.5,8.5,0,0,0-2.4.384,6,6,0,0,0-.688.237,1.881,1.881,0,0,0-.575.37,1.319,1.319,0,0,0-.35.542,1.267,1.267,0,0,0,.019.748,1.416,1.416,0,0,0,.9,1.034,5.515,5.515,0,0,0,1.4.3l1.7.143a16.191,16.191,0,0,1,1.977.3,5.979,5.979,0,0,1,1.76.685,5,5,0,0,1,1.455,1.335A6.83,6.83,0,0,1,149.6,178.5a6.4,6.4,0,0,1-.117,4.142,6.477,6.477,0,0,1-2.811,3.188l.912,3.231a3.989,3.989,0,0,1-.812.422c-.294.113-.54.2-.742.253s-.451.114-.751.168a4.451,4.451,0,0,1-.927.069Z" transform="translate(-134.356 -163.889)" fill="none" stroke="#51afe7" stroke-miterlimit="10" stroke-width="1"/>
        </g>
        <path id="Trazado_721301" data-name="Trazado 721301" d="M370.935,278.289v2.089a.472.472,0,1,1-.944,0v-2.089a.472.472,0,1,1,.944,0Zm-7.636-7.636h-2.088a.472.472,0,1,0,0,.945H363.3a.472.472,0,1,0,0-.945Zm7.162-6.219a.472.472,0,0,0,.473-.471v-2.09a.472.472,0,0,0-.944,0v2.09A.47.47,0,0,0,370.461,264.433Zm4.239,3.157c-.243-.243-2.955,2.049-4.17,3.1-1.7-1.592-5.915-5.487-6.1-5.3-.2.2,4.481,5.23,5.683,6.511a1.583,1.583,0,0,0,.129.147c.02.021.041.035.061.053l.088.1a.608.608,0,0,0,.315.164.557.557,0,0,0,.47-.115.68.68,0,0,0,.062-.05C371.276,272.161,374.969,267.859,374.7,267.59Zm5.014,3.063h-2.09a.472.472,0,0,0,0,.945h2.09a.472.472,0,0,0,0-.945Zm3.993.471a13.245,13.245,0,1,1-13.246-13.243A13.245,13.245,0,0,1,383.707,271.124Zm-2.314,0a10.931,10.931,0,1,0-10.932,10.931A10.931,10.931,0,0,0,381.393,271.124Z" transform="translate(-120.808 -164.199)" fill="#288d8a"/>
        <path id="Trazado_721302" data-name="Trazado 721302" d="M375.533,187.768v-4.843h-4.189a8.991,8.991,0,0,0-.839-2.024l2.963-2.962-3.425-3.425-2.962,2.963a8.976,8.976,0,0,0-2.024-.839v-4.189h-4.843v4.189a8.995,8.995,0,0,0-2.024.839l-2.962-2.963-3.424,3.425,2.962,2.962a9,9,0,0,0-.839,2.024h-4.189v4.843h4.189a9,9,0,0,0,.839,2.024l-2.962,2.962,3.424,3.424,2.962-2.962a8.995,8.995,0,0,0,2.024.839v4.189h4.843v-4.189a8.976,8.976,0,0,0,2.024-.839l2.962,2.962,3.425-3.424-2.963-2.962a8.992,8.992,0,0,0,.839-2.024Zm-12.9,3.36a5.781,5.781,0,1,1,5.781-5.782A5.782,5.782,0,0,1,362.635,191.128Z" transform="translate(-120.783 -163.918)" fill="none" stroke="#51afe7" stroke-miterlimit="10" stroke-width="1"/>
        <path id="Trazado_721303" data-name="Trazado 721303" d="M166.615,238.731V235.95h-2.406a5.149,5.149,0,0,0-.482-1.163l1.7-1.7-1.967-1.967-1.7,1.7a5.206,5.206,0,0,0-1.162-.482v-2.406h-2.782v2.406a5.2,5.2,0,0,0-1.163.482l-1.7-1.7-1.967,1.967,1.7,1.7a5.147,5.147,0,0,0-.481,1.163H151.8v2.781h2.406a5.147,5.147,0,0,0,.481,1.163l-1.7,1.7,1.967,1.966,1.7-1.7a5.146,5.146,0,0,0,1.163.481v2.407H160.6v-2.407a5.157,5.157,0,0,0,1.162-.481l1.7,1.7,1.967-1.966-1.7-1.7a5.149,5.149,0,0,0,.482-1.163Zm-7.409,1.931a3.321,3.321,0,1,1,3.321-3.321A3.32,3.32,0,0,1,159.207,240.662Z" transform="translate(-120.131 -164.107)" fill="#288d8a"/>
        <path id="Trazado_721304" data-name="Trazado 721304" d="M133.93,276.189l-.719,4.969a1.02,1.02,0,0,0,.558,1.06l4.5,2.219a1.019,1.019,0,0,1-.278,1.918l-4.948.852a1.02,1.02,0,0,0-.835.859l-.719,4.969a1.019,1.019,0,0,1-1.911.329l-2.338-4.442a1.02,1.02,0,0,0-1.075-.529l-4.948.852a1.019,1.019,0,0,1-.9-1.715l3.5-3.6a1.019,1.019,0,0,0,.171-1.186l-2.339-4.441a1.019,1.019,0,0,1,1.353-1.389l4.5,2.219a1.02,1.02,0,0,0,1.181-.2l3.5-3.6A1.019,1.019,0,0,1,133.93,276.189Z" transform="translate(-120.026 -164.255)" fill="none" stroke="#51afe7" stroke-miterlimit="10" stroke-width="1"/>
        <g id="Grupo_1007497" data-name="Grupo 1007497" transform="translate(114.323 95.509)">
          <path id="Trazado_721305" data-name="Trazado 721305" d="M260.644,259.714H239.238a4.511,4.511,0,0,0-4.511,4.511v9.317c0,3.473,3.788,4.511,3.788,4.511l6.663,6.921v-6.921h15.466a4.511,4.511,0,0,0,4.511-4.511v-9.317A4.511,4.511,0,0,0,260.644,259.714Z" transform="translate(-234.727 -259.714)" fill="none" stroke="#51afe7" stroke-miterlimit="10" stroke-width="1"/>
          <g id="Grupo_1007496" data-name="Grupo 1007496" transform="translate(6.4 7.324)">
            <path id="Trazado_721306" data-name="Trazado 721306" d="M244.839,268.908a1.845,1.845,0,1,1-1.845-1.846A1.845,1.845,0,0,1,244.839,268.908Z" transform="translate(-241.148 -267.062)" fill="#288d8a"/>
            <path id="Trazado_721307" data-name="Trazado 721307" d="M251.831,268.908a1.845,1.845,0,1,1-1.845-1.846A1.845,1.845,0,0,1,251.831,268.908Z" transform="translate(-241.171 -267.062)" fill="#288d8a"/>
            <path id="Trazado_721308" data-name="Trazado 721308" d="M258.823,268.908a1.845,1.845,0,1,1-1.846-1.846A1.846,1.846,0,0,1,258.823,268.908Z" transform="translate(-241.194 -267.062)" fill="#288d8a"/>
          </g>
        </g>
      </g>
      <g id="Grupo_1007499" data-name="Grupo 1007499" transform="translate(102.351 98.81)" style="mix-blend-mode: multiply;isolation: isolate">
        <path id="Trazado_721309" data-name="Trazado 721309" d="M103.431,302.524a.9.9,0,0,0-.905.905v5.006a.9.9,0,0,0,1.809,0v-5.006A.9.9,0,0,0,103.431,302.524Z" transform="translate(-102.526 -99.63)" fill="#fbefe1"/>
        <path id="Trazado_721310" data-name="Trazado 721310" d="M104.335,273.29a.9.9,0,0,0-1.809,0V278.3a.9.9,0,1,0,1.809,0Z" transform="translate(-102.526 -99.531)" fill="#fbefe1"/>
        <path id="Trazado_721311" data-name="Trazado 721311" d="M104.335,243.151a.9.9,0,0,0-1.809,0v5.007a.9.9,0,0,0,1.809,0Z" transform="translate(-102.526 -99.432)" fill="#fbefe1"/>
        <path id="Trazado_721312" data-name="Trazado 721312" d="M104.338,176.179v-.643c-.357.5-.7,1.011-1.057,1.516a.846.846,0,0,0,.152.031A.9.9,0,0,0,104.338,176.179Z" transform="translate(-102.528 -99.212)" fill="#fbefe1"/>
        <path id="Trazado_721313" data-name="Trazado 721313" d="M104.335,286.685a.9.9,0,1,0-1.809,0V296.7a.9.9,0,1,0,1.809,0Z" transform="translate(-102.526 -99.575)" fill="#fbefe1"/>
        <path id="Trazado_721314" data-name="Trazado 721314" d="M104.335,256.547a.9.9,0,1,0-1.809,0V266.56a.9.9,0,0,0,1.809,0Z" transform="translate(-102.526 -99.476)" fill="#fbefe1"/>
        <path id="Trazado_721315" data-name="Trazado 721315" d="M103.431,323.156a.9.9,0,0,0,.9-.9v-5.428a.9.9,0,0,0-1.809,0v5.428A.9.9,0,0,0,103.431,323.156Z" transform="translate(-102.526 -99.674)" fill="#fbefe1"/>
        <path id="Trazado_721316" data-name="Trazado 721316" d="M104.335,182.875a.9.9,0,1,0-1.809,0v5.006a.9.9,0,1,0,1.809,0Z" transform="translate(-102.526 -99.233)" fill="#fbefe1"/>
        <path id="Trazado_721317" data-name="Trazado 721317" d="M104.335,196.27a.9.9,0,1,0-1.809,0v10.013a.9.9,0,1,0,1.809,0Z" transform="translate(-102.526 -99.277)" fill="#fbefe1"/>
        <path id="Trazado_721318" data-name="Trazado 721318" d="M104.335,213.013a.9.9,0,0,0-1.809,0v5.006a.9.9,0,1,0,1.809,0Z" transform="translate(-102.526 -99.333)" fill="#fbefe1"/>
        <path id="Trazado_721319" data-name="Trazado 721319" d="M104.335,226.408a.9.9,0,0,0-1.809,0v10.013a.9.9,0,1,0,1.809,0Z" transform="translate(-102.526 -99.377)" fill="#fbefe1"/>
        <path id="Trazado_721320" data-name="Trazado 721320" d="M408.022,315.919a.9.9,0,0,0-.9.9v5.428a.9.9,0,1,0,1.809,0v-5.428A.9.9,0,0,0,408.022,315.919Z" transform="translate(-103.529 -99.674)" fill="#fbefe1"/>
        <path id="Trazado_721321" data-name="Trazado 721321" d="M188.2,143.546V165.61a12.652,12.652,0,0,0-7.656-2.56,12.389,12.389,0,1,0,0,24.775,12.652,12.652,0,0,0,7.656-2.56V209.1h9.729v5.428a.9.9,0,1,0,1.809,0V209.1h11.5a12.584,12.584,0,1,0,19.985,0h23.022V186.245h0V209.1h23.039a12.211,12.211,0,0,0-2.591,7.525,12.585,12.585,0,0,0,25.167,0,12.211,12.211,0,0,0-2.591-7.525h10.69v5.428a.9.9,0,1,0,1.809,0V209.1h10.54V186.245a12.583,12.583,0,1,0,0-19.968V120.694a12.569,12.569,0,0,0,14.583.517A174.063,174.063,0,0,0,170.376,118.1a12.562,12.562,0,0,0,17.823,2.59v22.851Zm54.647,20.7a12.573,12.573,0,0,0-2.257.953,12.5,12.5,0,0,1,4.711-1.453,12.783,12.783,0,0,1,1.287-.065h0a12.783,12.783,0,0,0-1.287.065A12.514,12.514,0,0,0,242.847,164.242Zm-1.514,23.441a12.6,12.6,0,0,0,1.514.6A12.6,12.6,0,0,1,241.333,187.683Zm12.912-21.406V143.546h0v22.731Zm21.417-25.359a12.515,12.515,0,0,1-.55-1.64A12.515,12.515,0,0,0,275.662,140.917Zm23.208-9.731a12.487,12.487,0,0,0-1.16-2.137A12.487,12.487,0,0,1,298.87,131.187Zm-20.492-4a12.582,12.582,0,0,1,17.8,0,12.591,12.591,0,0,0-20.492,4A12.608,12.608,0,0,1,278.378,127.187Zm-3.942-17.763a12.773,12.773,0,0,1,.065,1.287h0a12.773,12.773,0,0,0-.065-1.287,11.891,11.891,0,0,0-1.1-3.969,11.891,11.891,0,0,1,1.1,3.969Zm-39.344,34.122h0a14.564,14.564,0,0,0,.749-4.629A14.564,14.564,0,0,1,235.092,143.546Zm-28.473-4.629a14.592,14.592,0,0,0,.749,4.629h0A14.592,14.592,0,0,1,206.619,138.917Z" transform="translate(-102.742 -98.96)" fill="#fbefe1"/>
        <path id="Trazado_721322" data-name="Trazado 721322" d="M310.229,222.881a.9.9,0,1,0-1.809,0v5.964a.9.9,0,0,0,1.809,0Z" transform="translate(-103.204 -99.365)" fill="#fbefe1"/>
        <path id="Trazado_721323" data-name="Trazado 721323" d="M199.836,258.786a.9.9,0,1,0-1.809,0v5.964a.9.9,0,1,0,1.809,0Z" transform="translate(-102.841 -99.483)" fill="#fbefe1"/>
        <path id="Trazado_721324" data-name="Trazado 721324" d="M310.229,238.839a.9.9,0,1,0-1.809,0v11.929a.9.9,0,0,0,1.809,0Z" transform="translate(-103.204 -99.418)" fill="#fbefe1"/>
        <path id="Trazado_721325" data-name="Trazado 721325" d="M198.931,273.838a.9.9,0,0,0-.9.9v5.428a.9.9,0,0,0,1.809,0v-5.428A.9.9,0,0,0,198.931,273.838Z" transform="translate(-102.841 -99.536)" fill="#fbefe1"/>
        <path id="Trazado_721326" data-name="Trazado 721326" d="M199.836,238.839a.9.9,0,1,0-1.809,0v11.929a.9.9,0,0,0,1.809,0Z" transform="translate(-102.841 -99.418)" fill="#fbefe1"/>
        <path id="Trazado_721327" data-name="Trazado 721327" d="M408.013,195.367a.9.9,0,0,0-.9.9v10.013a.9.9,0,1,0,1.809,0v-9.207Q408.473,196.22,408.013,195.367Z" transform="translate(-103.529 -99.277)" fill="#fbefe1"/>
        <path id="Trazado_721328" data-name="Trazado 721328" d="M199.836,222.881a.9.9,0,1,0-1.809,0v5.964a.9.9,0,0,0,1.809,0Z" transform="translate(-102.841 -99.365)" fill="#fbefe1"/>
        <path id="Trazado_721329" data-name="Trazado 721329" d="M309.325,273.838a.9.9,0,0,0-.9.9v5.428a.9.9,0,0,0,1.809,0v-5.428A.9.9,0,0,0,309.325,273.838Z" transform="translate(-103.204 -99.536)" fill="#fbefe1"/>
        <path id="Trazado_721330" data-name="Trazado 721330" d="M408.926,273.29a.9.9,0,0,0-1.809,0V278.3a.9.9,0,1,0,1.809,0Z" transform="translate(-103.529 -99.531)" fill="#fbefe1"/>
        <path id="Trazado_721331" data-name="Trazado 721331" d="M408.926,286.685a.9.9,0,1,0-1.809,0V296.7a.9.9,0,1,0,1.809,0Z" transform="translate(-103.529 -99.575)" fill="#fbefe1"/>
        <path id="Trazado_721332" data-name="Trazado 721332" d="M408.926,303.429a.9.9,0,1,0-1.809,0v5.006a.9.9,0,0,0,1.809,0Z" transform="translate(-103.529 -99.63)" fill="#fbefe1"/>
        <path id="Trazado_721333" data-name="Trazado 721333" d="M310.229,258.786a.9.9,0,1,0-1.809,0v5.964a.9.9,0,1,0,1.809,0Z" transform="translate(-103.204 -99.483)" fill="#fbefe1"/>
        <path id="Trazado_721334" data-name="Trazado 721334" d="M408.926,256.547a.9.9,0,1,0-1.809,0V266.56a.9.9,0,0,0,1.809,0Z" transform="translate(-103.529 -99.476)" fill="#fbefe1"/>
        <path id="Trazado_721335" data-name="Trazado 721335" d="M408.926,213.013a.9.9,0,0,0-1.809,0v5.006a.9.9,0,1,0,1.809,0Z" transform="translate(-103.529 -99.333)" fill="#fbefe1"/>
        <path id="Trazado_721336" data-name="Trazado 721336" d="M408.926,226.408a.9.9,0,0,0-1.809,0v10.013a.9.9,0,1,0,1.809,0Z" transform="translate(-103.529 -99.377)" fill="#fbefe1"/>
        <path id="Trazado_721337" data-name="Trazado 721337" d="M408.926,243.151a.9.9,0,0,0-1.809,0v5.007a.9.9,0,0,0,1.809,0Z" transform="translate(-103.529 -99.432)" fill="#fbefe1"/>
      </g>
      <line id="Línea_2684" data-name="Línea 2684" y1="70.5" transform="translate(193.918 204.422)" fill="none" stroke="#51afe7" stroke-linecap="round" stroke-linejoin="round" stroke-width="2" stroke-dasharray="12 10 6 8"/>
      <line id="Línea_2685" data-name="Línea 2685" y1="70.5" transform="translate(303.948 204.422)" fill="none" stroke="#51afe7" stroke-linecap="round" stroke-linejoin="round" stroke-width="2" stroke-dasharray="12 10 6 8"/>
      <path id="Trazado_721338" data-name="Trazado 721338" d="M98.9,317.036V105.92H165.01" transform="translate(-0.163 -0.173)" fill="none" stroke="#51afe7" stroke-linecap="round" stroke-linejoin="round" stroke-width="2" stroke-dasharray="12 10 6 8"/>
      <path id="Trazado_721339" data-name="Trazado 721339" d="M403.264,317.036V105.92H335.679" transform="translate(-0.943 -0.173)" fill="none" stroke="#51afe7" stroke-linecap="round" stroke-linejoin="round" stroke-width="2" stroke-dasharray="12 10 6 8"/>
      <g id="Grupo_1007510" data-name="Grupo 1007510" transform="translate(272.309 262.654)">
        <g id="Grupo_1007500" data-name="Grupo 1007500" transform="translate(0 77.588)">
          <rect id="Rectángulo_347953" data-name="Rectángulo 347953" width="18.478" height="25.307" transform="translate(1.482 30.028)" fill="#b98b72"/>
          <path id="Trazado_721340" data-name="Trazado 721340" d="M273.046,371.218h21.442V341.19s-21.442,5.88-21.442,19.638Z" transform="translate(-273.046 -341.19)" fill="#c1e3f9"/>
        </g>
        <g id="Grupo_1007502" data-name="Grupo 1007502" transform="translate(7.648 72.428)">
          <path id="Trazado_721341" data-name="Trazado 721341" d="M299.111,340.115c11.382-1.1,25.208-4.759,41.735,2.722,11.05,5,.977,45.348,1.275,53.679h-61.4V360.172C280.719,352.686,287.688,341.216,299.111,340.115Z" transform="translate(-280.719 -336.02)" fill="#c1e3f9"/>
          <g id="Grupo_1007501" data-name="Grupo 1007501" transform="translate(0 38.309)">
            <path id="Trazado_721342" data-name="Trazado 721342" d="M346.037,377.919H280.719v-3.471h65.318Zm0,8.654H280.719v3.471h65.318Z" transform="translate(-280.719 -374.448)" fill="#fff" opacity="0.6"/>
            <rect id="Rectángulo_347954" data-name="Rectángulo 347954" width="65.319" height="1.663" transform="translate(0 6.966)" fill="#fff"/>
          </g>
          <path id="Trazado_721343" data-name="Trazado 721343" d="M299.764,340.825c-1.7,3.417-4.906,6.723-.2,11.31s20.32.744,25.9-5.206.5-11.156-8.676-10.908S301.464,337.409,299.764,340.825Z" transform="translate(-280.773 -336.012)" fill="#51afe7"/>
          <path id="Trazado_721344" data-name="Trazado 721344" d="M280.719,396.588V360.244" transform="translate(-280.719 -336.092)" fill="none" stroke="#222830" stroke-miterlimit="10" stroke-width="1.176"/>
        </g>
        <g id="Grupo_1007503" data-name="Grupo 1007503" transform="translate(57.061 78.382)">
          <rect id="Rectángulo_347955" data-name="Rectángulo 347955" width="18.478" height="25.307" transform="translate(19.96 54.542) rotate(180)" fill="#b98b72"/>
          <path id="Trazado_721345" data-name="Trazado 721345" d="M351.738,371.22H330.3V347.584c0-10.986,21.442-4.665,21.442,9.094Z" transform="translate(-330.296 -341.986)" fill="#c1e3f9"/>
        </g>
        <g id="Grupo_1007509" data-name="Grupo 1007509" transform="translate(6.323)">
          <path id="Trazado_721346" data-name="Trazado 721346" d="M324.276,305.237v34.238c0,8.312-22.85,15.331-22.85,7.352V328.732S314.247,301.725,324.276,305.237Z" transform="translate(-279.463 -263.482)" fill="#b98b72"/>
          <path id="Trazado_721347" data-name="Trazado 721347" d="M301.426,340.8c5.552-1.3,12.44-4.523,15.951-12.453l-15.951,4.126Z" transform="translate(-279.463 -263.56)" fill="#b98b72" opacity="0.6" style="mix-blend-mode: multiply;isolation: isolate"/>
          <path id="Trazado_721348" data-name="Trazado 721348" d="M329.433,299.858c-.768,15.787-7.059,22.849-13.844,30.193-6.645,7.191-31.789,12.457-32.723.464-.412-5.289.254-16.083,1.259-26.693,1.086-11.468,2.57-22.719,3.517-26.567,1.823-7.409,24.048-1.939,33.461,1.228S329.851,291.254,329.433,299.858Z" transform="translate(-279.401 -263.379)" fill="#b98b72"/>
          <g id="Grupo_1007504" data-name="Grupo 1007504">
            <path id="Trazado_721349" data-name="Trazado 721349" d="M318.679,307.807l5.724,4.346-.071,11.2s10.834-.6,12.91-8.219,9.293-27.322,3.644-33.49-19.928-2.275-19.974,5.238S319.7,300.353,318.679,307.807Z" transform="translate(-279.52 -263.396)" fill="#222830"/>
            <path id="Trazado_721350" data-name="Trazado 721350" d="M290.057,284.4c21.453,6.943,44.228,2.2,47.9-3s-7.23-23.691-36.6-16.354S276.22,279.923,290.057,284.4Z" transform="translate(-279.39 -263.346)" fill="#222830"/>
          </g>
          <g id="Grupo_1007506" data-name="Grupo 1007506" transform="translate(5.381 32.87)">
            <path id="Trazado_721351" data-name="Trazado 721351" d="M297.317,318.865s-7.181,1.844-8.427-1.913c-1.377-4.152,6.518-2.973,7.382-12.658" transform="translate(-284.802 -296.35)" fill="none" stroke="#222830" stroke-miterlimit="10" stroke-width="1.176"/>
            <path id="Trazado_721352" data-name="Trazado 721352" d="M293.711,298.73s-5.789-6.4-8.922,1.681C284.789,300.411,287.556,296.592,293.711,298.73Z" transform="translate(-284.789 -296.324)" fill="#222830"/>
            <path id="Trazado_721353" data-name="Trazado 721353" d="M300.478,299.351s5.79-6.4,8.922,1.682C309.4,301.034,306.634,297.213,300.478,299.351Z" transform="translate(-284.841 -296.326)" fill="#222830"/>
            <g id="Grupo_1007505" data-name="Grupo 1007505" transform="translate(2.868 22.515)">
              <path id="Trazado_721354" data-name="Trazado 721354" d="M287.666,324.909s10.647,8.592,19.977-4.168" transform="translate(-287.666 -318.919)" fill="none" stroke="#222830" stroke-miterlimit="10" stroke-width="1.176"/>
              <path id="Trazado_721355" data-name="Trazado 721355" d="M309.7,320.735a2.167,2.167,0,0,1-2.752-1.822" transform="translate(-287.729 -318.913)" fill="none" stroke="#222830" stroke-miterlimit="10" stroke-width="1.176"/>
            </g>
            <path id="Trazado_721356" data-name="Trazado 721356" d="M287.3,304.144c-.141,1.986.622,3.658,1.7,3.735s2.07-1.472,2.211-3.458-.622-3.658-1.7-3.735S287.442,302.158,287.3,304.144Z" transform="translate(-284.797 -296.338)" fill="#222830"/>
            <path id="Trazado_721357" data-name="Trazado 721357" d="M302.991,304.144c-.141,1.986.622,3.658,1.7,3.735s2.07-1.472,2.211-3.458-.622-3.658-1.7-3.735S303.131,302.158,302.991,304.144Z" transform="translate(-284.849 -296.338)" fill="#222830"/>
          </g>
          <g id="Grupo_1007507" data-name="Grupo 1007507" transform="translate(41.709 36.957)">
            <path id="Trazado_721358" data-name="Trazado 721358" d="M321.237,314.977s7.521,6.345,13.121-.753-2.645-21.494-12.6-8.661" transform="translate(-321.237 -300.425)" fill="#b98b72"/>
          </g>
          <path id="Trazado_721359" data-name="Trazado 721359" d="M334.509,305.892s-4.076-8.7-11.417.825c0,0,5.5-4.1,8.652-.328" transform="translate(-279.534 -263.474)" fill="none" stroke="#222830" stroke-linecap="round" stroke-linejoin="round" stroke-width="1.176"/>
          <g id="Grupo_1007508" data-name="Grupo 1007508" transform="translate(0.893 32.87)">
            <ellipse id="Elipse_8623" data-name="Elipse 8623" cx="7.355" cy="7.944" rx="7.355" ry="7.944" fill="none" stroke="#222830" stroke-miterlimit="10" stroke-width="1.075"/>
            <path id="Trazado_721360" data-name="Trazado 721360" d="M314.279,304.268c0,4.388-3.293,7.944-7.356,7.944s-7.355-3.556-7.355-7.944,3.293-7.944,7.355-7.944S314.279,299.88,314.279,304.268Z" transform="translate(-280.35 -296.324)" fill="none" stroke="#222830" stroke-miterlimit="10" stroke-width="1.075"/>
            <line id="Línea_2686" data-name="Línea 2686" x2="4.509" transform="translate(14.71 7.944)" fill="none" stroke="#222830" stroke-miterlimit="10" stroke-width="1.075"/>
            <line id="Línea_2687" data-name="Línea 2687" x2="6.887" transform="translate(33.929 7.944)" fill="none" stroke="#222830" stroke-miterlimit="10" stroke-width="1.075"/>
          </g>
        </g>
      </g>
      <g id="Grupo_1007515" data-name="Grupo 1007515" transform="translate(319.533 309.557)">
        <g id="Grupo_1007511" data-name="Grupo 1007511" transform="translate(0 1.136)">
          <path id="Trazado_721361" data-name="Trazado 721361" d="M388.192,396.851s-24.1-2.99-34.089-18.259-10.508-27.338-6.294-40.682,5.618-15.684,3.043-16.855-6.32,5.853-6.32,5.853-.937-7.14-3.746-11.354-5.15-4.565-4.565,0c0,0-3.746-4.916-5.268-3.863s.468,8.194.468,8.194-4.682-6.672-6.32-5.5.936,7.843.936,7.843-3.746-3.746-5.15-1.756c-2.731,4.643,7.571,8.949,6.945,11.978s-6.581,36.156,3.563,53.4c12.22,20.774,49.656,34.877,49.656,34.877S393.592,413.24,388.192,396.851Z" transform="translate(-320.426 -311.544)" fill="#deb998"/>
          <path id="Trazado_721362" data-name="Trazado 721362" d="M340.509,333.562s-3.9-5.423-9.521-3.082" transform="translate(-320.461 -311.604)" fill="#e2beab" stroke="#222830" stroke-miterlimit="10" stroke-width="1.176"/>
        </g>
        <path id="Trazado_721363" data-name="Trazado 721363" d="M353.134,406.624l12.791-19.445s19.334,6.985,24.646,11.107.735,27.124-14.082,22.689A53.471,53.471,0,0,1,353.134,406.624Z" transform="translate(-320.533 -310.656)" fill="#6c60d0"/>
        <path id="Trazado_721364" data-name="Trazado 721364" d="M450.324,421.388l.27,17.312H430.287c0-3.513.09-9-.083-14.693C430,417.313,448.75,412.988,450.324,421.388Z" transform="translate(-320.787 -310.754)" fill="#deb998"/>
        <path id="Trazado_721365" data-name="Trazado 721365" d="M435.888,398.087c-16.794-10.448-47.4-7.036-53.381-4.853s-18.241,24.288-18.058,30.992,9.365,11.414,9.365,11.414v2.974H430.07c0-3.115-.038-7.783-.164-12.769a96.678,96.678,0,0,0,20.317-3.161S451.37,407.719,435.888,398.087Z" transform="translate(-320.571 -310.669)" fill="#6c60d0"/>
        <path id="Trazado_721366" data-name="Trazado 721366" d="M376.525,398.864c-5.811,7.592-12.208,20.531-12.076,25.388.181,6.7,9.365,11.414,9.365,11.414v2.974" transform="translate(-320.571 -310.695)" fill="none" stroke="#222830" stroke-miterlimit="10" stroke-width="1.176"/>
        <path id="Trazado_721367" data-name="Trazado 721367" d="M390.943,387.792s-.741,9.239-.863,11.705,5.958,8.016,16.605,5.8,9.55-8.922,10.4-15.785c.974-7.864,3.644-21.649,3.644-21.649" transform="translate(-320.655 -310.593)" fill="#deb998"/>
        <path id="Trazado_721368" data-name="Trazado 721368" d="M390.485,393.71c4.63-.135,16.96-1.693,19.066-14.332a9.027,9.027,0,0,0-.058-3.974l-18.549,12.412S390.711,390.723,390.485,393.71Z" transform="translate(-320.656 -310.618)" fill="#cf946e"/>
        <g id="Grupo_1007514" data-name="Grupo 1007514" transform="translate(45.817)">
          <path id="Trazado_721369" data-name="Trazado 721369" d="M374.35,335.49c-3.483,8.625-5.919,27.007-4.995,37.366s12.578,21.642,30.336,14.613,20.347-19.237,24.786-28.116-5.918-25.9-21.457-31.261S378.234,325.872,374.35,335.49Z" transform="translate(-366.404 -310.453)" fill="#deb998"/>
          <path id="Trazado_721370" data-name="Trazado 721370" d="M421.166,356.792s-15-3.842-16.734-18.1a15.678,15.678,0,0,0,.893,10.04s-14.9,1.735-17.874-12.767a11.421,11.421,0,0,0,2.549,9.42s-18.166,3.471-22.752-5.949,9.3-34.132,42.018-28.1,35.326,51.431,28.757,66.414-28.012,11.017-28.012,11.017,6.16-7.588,10.641-22.558Z" transform="translate(-366.395 -310.404)" fill="#f5dab9"/>
          <g id="Grupo_1007512" data-name="Grupo 1007512" transform="translate(52.706 41.776)">
            <path id="Trazado_721371" data-name="Trazado 721371" d="M419.275,359.391s2.731-9.5,9.173-6.479,4.746,19.865-8.593,16.158" transform="translate(-419.275 -352.318)" fill="#deb998"/>
            <path id="Trazado_721372" data-name="Trazado 721372" d="M428.524,356c-4.218-3.053-6.1,2.369-6.1,2.369s5.652-4.266,7.756,1.9" transform="translate(-419.285 -352.327)" fill="none" stroke="#222830" stroke-miterlimit="10" stroke-width="1.176"/>
          </g>
          <path id="Trazado_721373" data-name="Trazado 721373" d="M389.847,352.967c3.969-5.464,6.634.547,6.634.547A6.839,6.839,0,0,0,389.847,352.967Z" transform="translate(-366.472 -310.536)" fill="#222830"/>
          <g id="Grupo_1007513" data-name="Grupo 1007513" transform="translate(6.82 40.137)">
            <path id="Trazado_721374" data-name="Trazado 721374" d="M374.6,357.527c-.141,1.985.622,3.657,1.7,3.734s2.07-1.471,2.211-3.458-.621-3.658-1.7-3.734S374.743,355.54,374.6,357.527Z" transform="translate(-373.241 -350.684)" fill="#222830"/>
            <path id="Trazado_721375" data-name="Trazado 721375" d="M390.291,357.527c-.141,1.985.622,3.657,1.7,3.734s2.07-1.471,2.211-3.458-.622-3.658-1.7-3.734S390.432,355.54,390.291,357.527Z" transform="translate(-373.293 -350.684)" fill="#222830"/>
            <path id="Trazado_721376" data-name="Trazado 721376" d="M385.367,352.1s-9.247,16.9-7.438,17.786,7.438.4,7.438.4" transform="translate(-373.252 -350.678)" fill="none" stroke="#222830" stroke-miterlimit="10" stroke-width="1.662"/>
            <path id="Trazado_721377" data-name="Trazado 721377" d="M377.005,375.767a6.49,6.49,0,0,0,6.821,6.2c5.023,0,7.03-4.074,6.822-6.2S377.005,373.614,377.005,375.767Z" transform="translate(-373.249 -350.751)" fill="#fff"/>
            <path id="Trazado_721378" data-name="Trazado 721378" d="M379.871,352.967c-3.969-5.464-6.634.547-6.634.547A6.839,6.839,0,0,1,379.871,352.967Z" transform="translate(-373.237 -350.673)" fill="#222830"/>
          </g>
        </g>
      </g>
      <g id="Grupo_1007521" data-name="Grupo 1007521" transform="translate(148.222 272.87)">
        <g id="Grupo_1007516" data-name="Grupo 1007516" transform="translate(65.244 97.4)">
          <rect id="Rectángulo_347956" data-name="Rectángulo 347956" width="18.478" height="25.307" transform="translate(18.478 25.307) rotate(180)" fill="#deb998"/>
        </g>
        <path id="Trazado_721379" data-name="Trazado 721379" d="M210.591,278.831s-29.922-14.4-43.681,4.56c0,0-19.893,8.4-12.27,24.368,0,0-14.42,19.736,1.115,32.222,0,0-8.925,21.8,6.693,25.924s45.346-11.835,41.173-26.539S210.591,278.831,210.591,278.831Z" transform="translate(-148.549 -273.596)" fill="#be515b"/>
        <path id="Trazado_721380" data-name="Trazado 721380" d="M159.783,379.329l-.27,17.312h16.051c.006-3.513,0-14.693,0-14.693S161.357,370.929,159.783,379.329Z" transform="translate(-148.585 -273.933)" fill="#deb998"/>
        <path id="Trazado_721381" data-name="Trazado 721381" d="M174,356.022c16.793-10.448,37.823-7.036,43.8-4.852s18.241,24.288,18.058,30.992-9.365,11.414-9.365,11.414v2.974H175.564l-.1-12.769-15.8-3.161S158.521,365.655,174,356.022Z" transform="translate(-148.586 -273.843)" fill="#f5dab9"/>
        <path id="Trazado_721382" data-name="Trazado 721382" d="M181.643,353.658s-3.1,6.588,1.787,7.065c0,0,.072,7.953,8.253,6.084,0,0,7.313,4.669,11.155.284,0,0,9.253.821,8.779-4.88,0,0,4.873-2.2,1.586-6.817,0,0,2.733-6.672-7.828-8.181S178.172,349.849,181.643,353.658Z" transform="translate(-148.655 -273.837)" fill="#fff"/>
        <path id="Trazado_721383" data-name="Trazado 721383" d="M224,356.8c5.81,7.592,12.208,20.531,12.075,25.388-.181,6.7-9.365,11.414-9.365,11.414v2.974" transform="translate(-148.797 -273.87)" fill="none" stroke="#2b5f91" stroke-miterlimit="10" stroke-width="1.176"/>
        <path id="Trazado_721384" data-name="Trazado 721384" d="M209.536,345.728s.74,9.238.863,11.705-5.958,8.016-16.606,5.8-9.8-9.265-9.662-16.18c.18-9.134-.692-21.255-.692-21.255" transform="translate(-148.664 -273.767)" fill="#deb998"/>
        <path id="Trazado_721385" data-name="Trazado 721385" d="M210.018,351.646c-4.63-.135-16.96-1.692-19.066-14.331a9.009,9.009,0,0,1,.059-3.974l18.549,12.412S209.792,348.659,210.018,351.646Z" transform="translate(-148.688 -273.792)" fill="#cf946e"/>
        <g id="Grupo_1007520" data-name="Grupo 1007520" transform="translate(23.371 0.64)">
          <path id="Trazado_721386" data-name="Trazado 721386" d="M199.837,344.466c13.387,2.6,24.262,2.163,28.743-7.828,5.9-13.152-3.936-44.384-10.315-49.818s-32.6-1.976-32.367,17.2,1,29.854,1.949,33.307S191.332,342.812,199.837,344.466Z" transform="translate(-172.043 -274.272)" fill="#deb998"/>
          <g id="Grupo_1007518" data-name="Grupo 1007518" transform="translate(27.374 31.788)">
            <path id="Trazado_721387" data-name="Trazado 721387" d="M215.527,316.773s6.6,5.342,6.644,7.757-4.973,3.31-6.272,2.675" transform="translate(-199.514 -306.167)" fill="none" stroke="#222830" stroke-linecap="round" stroke-linejoin="round" stroke-width="0.98"/>
            <g id="Grupo_1007517" data-name="Grupo 1007517" transform="translate(4.319 17.83)">
              <path id="Trazado_721388" data-name="Trazado 721388" d="M205.994,324.469c-3.229,2.035-3.543,11.616,3.47,14.367s10.163-.282,11.261-4.292-.156-4.106-3.839-5.02C210.361,327.905,209.223,322.433,205.994,324.469Z" transform="translate(-203.794 -324.021)" fill="#86343f"/>
              <path id="Trazado_721389" data-name="Trazado 721389" d="M206,324.469a3.142,3.142,0,0,0-.543.445,12.039,12.039,0,0,0,7.933,7.1,15.848,15.848,0,0,0,7.71.658c.174-2.2-1.215-2.407-4.208-3.15C210.367,327.905,209.229,322.433,206,324.469Z" transform="translate(-203.8 -324.021)" fill="#fff"/>
              <path id="Trazado_721390" data-name="Trazado 721390" d="M211.646,339.545c.615-5.377-4.974-9.827-7.634-11.62-.778,3.69.522,8.989,5.451,10.923A17.442,17.442,0,0,0,211.646,339.545Z" transform="translate(-203.794 -324.034)" fill="#be515b"/>
            </g>
            <path id="Trazado_721391" data-name="Trazado 721391" d="M199.461,312.222s3.54-3.859,6.346-2.969c3.515,1.115,4.34-.952,3.169-2.016C206.089,304.617,200.39,306.8,199.461,312.222Z" transform="translate(-199.461 -306.132)" fill="#be515b"/>
            <path id="Trazado_721392" data-name="Trazado 721392" d="M227.837,311.544s-4.014-3.365-6.679-2.116c-3.34,1.564-4.427-.379-3.4-1.586C220.274,304.868,226.211,306.293,227.837,311.544Z" transform="translate(-199.52 -306.132)" fill="#be515b"/>
          </g>
          <path id="Trazado_721393" data-name="Trazado 721393" d="M217.777,304.841c2.951,3.394,11.592.174,10.247-10.611-1.216-9.753-7.4-17-22.877-15.068-20.161,2.52-40.957,8.635-30.227,47.658,0,0,14.945,2.949,21.079-28.512,0,0-.781,10.663,3.792,11.2,3.325.39,13.383-5.18,14.963-14.122C214.754,295.384,214.825,301.448,217.777,304.841Z" transform="translate(-171.997 -274.253)" fill="#be515b"/>
          <path id="Trazado_721394" data-name="Trazado 721394" d="M179.657,320.083s.478-20.426,7.234-28.887c9.2-11.528,25.106-12.363,25.106-12.363s-3.353-6.044-14.639-4.268c0,0-31.341,5.18-20.043,47.383Z" transform="translate(-172.006 -274.238)" fill="#222830"/>
          <g id="Grupo_1007519" data-name="Grupo 1007519" transform="translate(1.627 43.081)">
            <path id="Trazado_721395" data-name="Trazado 721395" d="M186.687,322.687c-1.586-3.07-3.847-5.791-6.736-5.124-6.143,1.417-7.4,7.324-5.513,12.482s10.552,9.512,14.175,6.469" transform="translate(-173.629 -317.461)" fill="#deb998"/>
            <path id="Trazado_721396" data-name="Trazado 721396" d="M188.65,336.295a1.96,1.96,0,1,1-1.96-1.961A1.959,1.959,0,0,1,188.65,336.295Z" transform="translate(-173.666 -317.517)" fill="#fff"/>
            <path id="Trazado_721397" data-name="Trazado 721397" d="M175.789,322.765s5.339-7.554,10.074,1.554c0,0-4.734-4.048-7.923-.312" transform="translate(-173.636 -317.469)" fill="none" stroke="#222830" stroke-miterlimit="10" stroke-width="1.306"/>
          </g>
        </g>
        <path id="Trazado_721398" data-name="Trazado 721398" d="M201.17,319.8s4.5-7.779,8.883-1.706C210.053,318.1,205.88,307.009,201.17,319.8Z" transform="translate(-148.722 -273.727)" fill="#222830"/>
        <path id="Trazado_721399" data-name="Trazado 721399" d="M228.323,317.973s-4.595-6.407-8.391.124C219.932,318.1,222.619,307.065,228.323,317.973Z" transform="translate(-148.784 -273.726)" fill="#222830"/>
        <path id="Trazado_721400" data-name="Trazado 721400" d="M160.87,379.547s-4.214.991-1.673,2.479a3.729,3.729,0,0,0,4.524,1.3,4.8,4.8,0,0,0,5.33.805s1.982,2.355,4.461,1.053c0,0,2.6,1.921,3.409-.248s-2.169-2.933-4.276-2.179c0,0-2.975-2.222-5.7-1.415A8.882,8.882,0,0,0,160.87,379.547Z" transform="translate(-148.581 -273.944)" fill="#fff"/>
      </g>
      <g id="Grupo_1007530" data-name="Grupo 1007530" transform="translate(49.339 302.514)">
        <g id="Grupo_1007522" data-name="Grupo 1007522" transform="translate(51.364 24.967)">
          <path id="Trazado_721401" data-name="Trazado 721401" d="M157.715,357.667s13.567,29.212,14.651,39.178c1.239,11.4-7.931,16.258-19.372,16.256-12.225,0-18.819-2.542-18.819-2.542s-14.232-17.912,5.911-21.458c0,0,7.77,3.1,10.645,3.226s3.118-2.27,2.272-7.339S139,336.82,137.407,332.635a2.985,2.985,0,1,1,5.514-2.279c1.861,4.084,6.986,13.745,6.986,13.745s11.45-.5,12.44,2.524C165.062,354.928,158.73,356.978,157.715,357.667Z" transform="translate(-100.967 -328.387)" fill="#b98b72"/>
          <path id="Trazado_721402" data-name="Trazado 721402" d="M101.148,394.117c-1.336-4.656,2.323-14.316,8.32-13.126,27.349,5.429,33.31,8.419,33.31,8.419s-7.839,11.739-6.6,23.21c0,0-17.058-2.779-22.392-5.283S102.988,400.524,101.148,394.117Z" transform="translate(-100.874 -328.56)" fill="#2b5f91"/>
          <rect id="Rectángulo_347957" data-name="Rectángulo 347957" width="26.574" height="5.578" transform="matrix(0.279, -0.96, 0.96, 0.279, 31.296, 83.663)" fill="#2a486b"/>
          <path id="Trazado_721403" data-name="Trazado 721403" d="M160.277,340.012c1.726.528,3.783,8.836.149,8.922S156.986,339,160.277,340.012Z" transform="translate(-101.061 -328.425)" fill="#b98b72" stroke="#222830" stroke-miterlimit="10" stroke-width="1.207"/>
          <path id="Trazado_721404" data-name="Trazado 721404" d="M155.3,337.457c1.713.582,3.6,3.794,3.881,6.57s-1.759,4.433-3.451,4.04-2.7-5.056-3.071-7.5S153.405,336.812,155.3,337.457Z" transform="translate(-101.044 -328.416)" fill="#b98b72" stroke="#222830" stroke-miterlimit="10" stroke-width="1.207"/>
          <path id="Trazado_721405" data-name="Trazado 721405" d="M150,335.869c2.048.052,4.857,3.239,4.811,7.353s-1.383,4.389-2.711,4.443-3.2-2.767-3.653-5.317S146.905,335.79,150,335.869Z" transform="translate(-101.028 -328.412)" fill="#b98b72" stroke="#222830" stroke-miterlimit="10" stroke-width="1.207"/>
          <path id="Trazado_721406" data-name="Trazado 721406" d="M148.136,349.744s8.417,3.762,9.486.282-4.433-5.434-7.673-5.876-9.379-1.806-7.582,4" transform="translate(-101.009 -328.438)" fill="#b98b72" stroke="#222830" stroke-miterlimit="10" stroke-width="1.207"/>
        </g>
        <g id="Grupo_1007523" data-name="Grupo 1007523" transform="translate(11.904 70.758)">
          <path id="Trazado_721407" data-name="Trazado 721407" d="M104.293,378.166a83.816,83.816,0,0,0-43.01,7.251s.3,44.825,0,53.154h65.534V394.742C126.817,384.029,115.716,379.267,104.293,378.166Z" transform="translate(-61.283 -374.341)" fill="#2b5f91"/>
          <path id="Trazado_721408" data-name="Trazado 721408" d="M127.034,438.627V394.8" transform="translate(-61.5 -374.397)" fill="none" stroke="#222830" stroke-miterlimit="10" stroke-width="1.176"/>
          <path id="Trazado_721409" data-name="Trazado 721409" d="M97.29,394.435s-2.046,2.881-4.137,5.206-16.813-3.033-19.846-10.024c-1.2-2.757-4.443-11.53,13.479-14.629,10.375-1.793,19.75.038,22.587,5.982,4.368,9.151-1.717,16.758-4.646,16.16s-3.674-3.034-7.437-2.7" transform="translate(-61.319 -374.33)" fill="#51afe7"/>
          <path id="Trazado_721410" data-name="Trazado 721410" d="M100.775,399.438a1.766,1.766,0,1,1-1.766-1.766A1.766,1.766,0,0,1,100.775,399.438Z" transform="translate(-61.401 -374.407)" fill="#51afe7"/>
          <path id="Trazado_721411" data-name="Trazado 721411" d="M100.775,407.459a1.766,1.766,0,1,1-1.766-1.766A1.766,1.766,0,0,1,100.775,407.459Z" transform="translate(-61.401 -374.433)" fill="#51afe7"/>
          <path id="Trazado_721412" data-name="Trazado 721412" d="M100.775,415.48a1.766,1.766,0,1,1-1.766-1.766A1.766,1.766,0,0,1,100.775,415.48Z" transform="translate(-61.401 -374.459)" fill="#51afe7"/>
        </g>
        <g id="Grupo_1007528" data-name="Grupo 1007528" transform="translate(11.904)">
          <g id="Grupo_1007524" data-name="Grupo 1007524" transform="translate(17.379 52.407)">
            <path id="Trazado_721413" data-name="Trazado 721413" d="M78.719,355.918v28.039c0,5.873,26.4,16.2,26.4,7.627V376.277S88.05,357.795,78.719,355.918Z" transform="translate(-78.719 -355.918)" fill="#b98b72"/>
            <path id="Trazado_721414" data-name="Trazado 721414" d="M105.147,382.049v-5.723s-1.3-1.405-3.372-3.477l-14.942-1.965C92.309,381.387,101.351,382.21,105.147,382.049Z" transform="translate(-78.746 -355.967)" fill="#b98b72" opacity="0.6" style="mix-blend-mode: multiply;isolation: isolate"/>
          </g>
          <path id="Trazado_721415" data-name="Trazado 721415" d="M123.887,325.135c3.483,8.626,5.919,27.007,4.994,37.365S116.3,384.142,98.546,377.112,78.2,357.876,73.76,349s5.919-25.9,21.457-31.261S120,315.517,123.887,325.135Z" transform="translate(-61.321 -303.377)" fill="#b98b72"/>
          <path id="Trazado_721416" data-name="Trazado 721416" d="M78.662,373.377s-10.212-12.3-13.931-18.432-6.879-18.778,4.276-25.285c0,0,9.612-28.261,31.858-26.215S131.23,324.379,132.716,332c0,0-24.721,5.181-42.791-.856,0,0,7.013,15.631-10.693,17.942l-.571,10.03Z" transform="translate(-61.283 -303.338)" fill="#222830"/>
          <g id="Grupo_1007525" data-name="Grupo 1007525" transform="translate(5.057 38.492)">
            <path id="Trazado_721417" data-name="Trazado 721417" d="M80.272,348.937s-3.9-9.4-10.339-6.381-4.566,19.912,8.773,16.2" transform="translate(-66.357 -341.957)" fill="#b98b72"/>
            <path id="Trazado_721418" data-name="Trazado 721418" d="M69.874,345.65c4.219-3.054,6.1,2.368,6.1,2.368s-5.652-4.265-7.756,1.9" transform="translate(-66.363 -341.966)" fill="none" stroke="#222830" stroke-miterlimit="10" stroke-width="1.176"/>
          </g>
          <g id="Grupo_1007527" data-name="Grupo 1007527" transform="translate(38.959 35.65)">
            <path id="Trazado_721419" data-name="Trazado 721419" d="M123.808,347.172c.141,1.985-.622,3.657-1.7,3.734s-2.07-1.471-2.211-3.458.622-3.658,1.7-3.734S123.667,345.185,123.808,347.172Z" transform="translate(-100.435 -339.121)" fill="#222830"/>
            <path id="Trazado_721420" data-name="Trazado 721420" d="M108.119,347.172c.141,1.985-.622,3.657-1.7,3.734s-2.07-1.471-2.211-3.458.622-3.658,1.7-3.734S107.978,345.185,108.119,347.172Z" transform="translate(-100.384 -339.121)" fill="#222830"/>
            <path id="Trazado_721421" data-name="Trazado 721421" d="M113.031,341.743s9.247,16.9,7.438,17.785-7.438.4-7.438.4" transform="translate(-100.413 -339.115)" fill="none" stroke="#222830" stroke-miterlimit="10" stroke-width="1.662"/>
            <g id="Grupo_1007526" data-name="Grupo 1007526" transform="translate(7.334 25.323)">
              <path id="Trazado_721422" data-name="Trazado 721422" d="M121.373,364.513c-.409,2.3-1.8,6.2-6.821,6.2s-6.414-3.894-6.822-6.2Z" transform="translate(-107.729 -364.513)" fill="#86343f"/>
              <path id="Trazado_721423" data-name="Trazado 721423" d="M108.366,366.7a6.217,6.217,0,0,0,6.188,4.014,6.387,6.387,0,0,0,4.653-1.708C117.2,365.8,111.149,366.284,108.366,366.7Z" transform="translate(-107.731 -364.519)" fill="#be515b"/>
            </g>
            <path id="Trazado_721424" data-name="Trazado 721424" d="M126.364,341.777s-3.626-4.476-8.738-1.84" transform="translate(-100.428 -339.106)" fill="none" stroke="#222830" stroke-miterlimit="10" stroke-width="1.176"/>
            <path id="Trazado_721425" data-name="Trazado 721425" d="M100.371,343.188s3.347-4.716,8.459-3.65" transform="translate(-100.371 -339.107)" fill="none" stroke="#222830" stroke-miterlimit="10" stroke-width="1.176"/>
          </g>
        </g>
        <g id="Grupo_1007529" data-name="Grupo 1007529" transform="translate(0 80.447)">
          <rect id="Rectángulo_347958" data-name="Rectángulo 347958" width="18.478" height="25.307" transform="translate(3.932 29.235)" fill="#b98b72"/>
          <path id="Trazado_721426" data-name="Trazado 721426" d="M51.8,413.284H73.239s-1.482-16.183-1.482-23.636c0-10.986-19.96-4.665-19.96,9.094Z" transform="translate(-49.347 -384.05)" fill="#2b5f91"/>
          <rect id="Rectángulo_347959" data-name="Rectángulo 347959" width="26.574" height="5.578" transform="translate(0 27.521)" fill="#2a486b"/>
        </g>
      </g>
      <g id="Grupo_1007531" data-name="Grupo 1007531" transform="translate(163.045 53.278)">
        <path id="Trazado_721427" data-name="Trazado 721427" d="M257.38,93.453a12.527,12.527,0,0,0-7.656,2.6V73.2H226.9a12.584,12.584,0,1,0-20.414,0H183.661V96.053a12.583,12.583,0,1,0,0,19.968v22.851H202.83a14.611,14.611,0,1,1,27.724,0h19.17V116.021a12.583,12.583,0,1,0,7.656-22.567Z" transform="translate(-163.421 -53.278)" fill="#c1e3f9"/>
        <path id="Trazado_721428" data-name="Trazado 721428" d="M323.644,159.22a12.525,12.525,0,0,0-7.657,2.6V138.968H293.163a12.583,12.583,0,1,0-20.415,0H249.925V161.82a12.584,12.584,0,1,0,0,19.967v22.851h23.039a12.211,12.211,0,0,0-2.591,7.525,12.585,12.585,0,0,0,25.167,0,12.211,12.211,0,0,0-2.591-7.525h23.039V181.787a12.582,12.582,0,1,0,7.657-22.566Z" transform="translate(-163.639 -53.495)" fill="#c1e3f9"/>
        <path id="Trazado_721429" data-name="Trazado 721429" d="M323.71,93.453a12.531,12.531,0,0,0-7.657,2.6V73.2H293.23a12.583,12.583,0,1,0-20.415,0H250.009V96.053a12.583,12.583,0,1,1,0,19.968v22.731h22.807a12.583,12.583,0,1,1,20.415,0h22.824V116.021a12.583,12.583,0,1,0,7.657-22.567Z" transform="translate(-163.706 -53.278)" fill="#c1e3f9"/>
        <path id="Trazado_721430" data-name="Trazado 721430" d="M249.707,181.789a12.583,12.583,0,1,1,0-19.967V139.09H230.554a14.611,14.611,0,1,0-27.724,0H183.661v22.065a12.652,12.652,0,0,0-7.656-2.56,12.389,12.389,0,1,0,0,24.775,12.646,12.646,0,0,0,7.656-2.56v23.829H206.7a12.584,12.584,0,1,0,19.985,0h23.022Z" transform="translate(-163.421 -53.497)" fill="#c1e3f9"/>
      </g>
      <g id="Grupo_1007539" data-name="Grupo 1007539" transform="translate(211.998 83.293)">
        <path id="Trazado_721431" data-name="Trazado 721431" d="M287.22,121.133A35.08,35.08,0,1,0,225.076,144.4a40.493,40.493,0,0,1,9.15,25.786v.657h.156v15.444h0a8.512,8.512,0,0,0,.064,1c0,.023.008.046.011.069a8.454,8.454,0,0,0,8.384,7.39h18.626a8.455,8.455,0,0,0,8.385-7.391c0-.023.007-.045.01-.067a8.543,8.543,0,0,0,.065-1V170.842h.155v-.655a41.731,41.731,0,0,1,9.421-26.121A34.931,34.931,0,0,0,287.22,121.133Z" transform="translate(-212.55 -83.404)" fill="#c1e3f9"/>
        <g id="Grupo_1007538" data-name="Grupo 1007538">
          <g id="Grupo_1007537" data-name="Grupo 1007537">
            <g id="Grupo_1007534" data-name="Grupo 1007534">
              <g id="Grupo_1007533" data-name="Grupo 1007533">
                <g id="Grupo_1007532" data-name="Grupo 1007532">
                  <path id="Trazado_721432" data-name="Trazado 721432" d="M212.535,118.472a35.08,35.08,0,1,1,62.43,21.964,41.723,41.723,0,0,0-9.422,26.12v.655H229.687v-.657a40.5,40.5,0,0,0-9.15-25.786A34.913,34.913,0,0,1,212.535,118.472Z" transform="translate(-212.535 -83.392)" fill="#f5dab9"/>
                </g>
              </g>
            </g>
            <g id="Grupo_1007535" data-name="Grupo 1007535" transform="translate(17.307 83.664)">
              <path id="Rectángulo_347960" data-name="Rectángulo 347960" d="M8.488,0H27.058a8.488,8.488,0,0,1,8.488,8.488V24.059a0,0,0,0,1,0,0H0a0,0,0,0,1,0,0V8.488A8.488,8.488,0,0,1,8.488,0Z" transform="translate(35.546 24.059) rotate(180)" fill="#e5f3fd"/>
            </g>
            <g id="Grupo_1007536" data-name="Grupo 1007536" transform="translate(17.307 89.297)" style="mix-blend-mode: multiply;isolation: isolate">
              <path id="Trazado_721433" data-name="Trazado 721433" d="M229.9,181.291v1.687a8.45,8.45,0,0,0,.249,2H265.2a8.448,8.448,0,0,0,.249-2v-1.687Z" transform="translate(-229.899 -173.011)" fill="#c1e3f9"/>
              <rect id="Rectángulo_347961" data-name="Rectángulo 347961" width="35.546" height="3.69" transform="translate(0.001)" fill="#c1e3f9"/>
            </g>
          </g>
          <path id="Trazado_721434" data-name="Trazado 721434" d="M256.05,132.33a6.847,6.847,0,0,0-6.839,6.838v4.812h-3.166v-4.812a6.839,6.839,0,1,0-6.839,6.839h4.812v21.326h2.027V146.008h3.166v21.326h2.027V146.008h4.812a6.839,6.839,0,0,0,0-13.678Zm-16.844,11.651a4.812,4.812,0,1,1,4.812-4.812v4.812Zm16.844,0h-4.812v-4.812a4.812,4.812,0,1,1,4.812,4.812Z" transform="translate(-212.6 -83.553)" fill="#d19854"/>
        </g>
      </g>
      <g id="Grupo_1007540" data-name="Grupo 1007540" transform="translate(163.045 53.278)">
        <path id="Trazado_721435" data-name="Trazado 721435" d="M257.38,93.453a12.527,12.527,0,0,0-7.656,2.6V73.2H226.9a12.584,12.584,0,1,0-20.414,0H183.661V96.053a12.583,12.583,0,1,0,0,19.968v22.851H202.83a14.611,14.611,0,1,1,27.724,0h19.17V116.021a12.583,12.583,0,1,0,7.656-22.567Z" transform="translate(-163.421 -53.278)" fill="none" stroke="#fff" stroke-linecap="round" stroke-linejoin="round" stroke-width="1"/>
        <path id="Trazado_721436" data-name="Trazado 721436" d="M323.644,159.22a12.525,12.525,0,0,0-7.657,2.6V138.968H293.163a12.583,12.583,0,1,0-20.415,0H249.925V161.82a12.584,12.584,0,1,0,0,19.967v22.851h23.039a12.211,12.211,0,0,0-2.591,7.525,12.585,12.585,0,0,0,25.167,0,12.211,12.211,0,0,0-2.591-7.525h23.039V181.787a12.582,12.582,0,1,0,7.657-22.566Z" transform="translate(-163.639 -53.495)" fill="none" stroke="#fff" stroke-linecap="round" stroke-linejoin="round" stroke-width="1"/>
        <path id="Trazado_721437" data-name="Trazado 721437" d="M323.71,93.453a12.531,12.531,0,0,0-7.657,2.6V73.2H293.23a12.583,12.583,0,1,0-20.415,0H250.009V96.053a12.583,12.583,0,1,1,0,19.968v22.731h22.807a12.583,12.583,0,1,1,20.415,0h22.824V116.021a12.583,12.583,0,1,0,7.657-22.567Z" transform="translate(-163.706 -53.278)" fill="none" stroke="#fff" stroke-linecap="round" stroke-linejoin="round" stroke-width="1"/>
        <path id="Trazado_721438" data-name="Trazado 721438" d="M249.707,181.789a12.583,12.583,0,1,1,0-19.967V139.09H230.554a14.611,14.611,0,1,0-27.724,0H183.661v22.065a12.652,12.652,0,0,0-7.656-2.56,12.389,12.389,0,1,0,0,24.775,12.646,12.646,0,0,0,7.656-2.56v23.829H206.7a12.584,12.584,0,1,0,19.985,0h23.022Z" transform="translate(-163.421 -53.497)" fill="none" stroke="#fff" stroke-linecap="round" stroke-linejoin="round" stroke-width="1"/>
      </g>
    </g>
  </g>
</svg>
