<svg xmlns="http://www.w3.org/2000/svg" width="505" height="292" viewBox="0 0 505 292">
  <g id="Grupo_1013477" data-name="Grupo 1013477" transform="translate(-9007 9825)">
    <rect id="vista-cartagena-indias-colombia" width="505" height="292" rx="20" transform="translate(9007 -9825)" fill="#fff"/>
    <g id="Grupo_1012539" data-name="Grupo 1012539" transform="translate(-128.74 76)">
      <g id="Grupo_1012538" data-name="Grupo 1012538" transform="translate(8879.074 -10223)">
        <g id="Grupo_1012495" data-name="Grupo 1012495" transform="translate(388.785 341.96)">
          <path id="Trazado_731322" data-name="Trazado 731322" d="M450.017,445.421a2.025,2.025,0,0,1-1.965-1.493l-1.07-3.907a1.371,1.371,0,0,0-1.088-.984c-.685-.117-1.37-.263-2.034-.433a1.4,1.4,0,0,0-1.409.451l-2.635,3.1a2.052,2.052,0,0,1-2.509.5l-2.9-1.484a2.012,2.012,0,0,1-1.036-2.323l1.045-3.929a1.36,1.36,0,0,0-.44-1.392c-.526-.438-1.042-.9-1.532-1.386a1.392,1.392,0,0,0-1.444-.308l-3.848,1.393a2.038,2.038,0,0,1-2.421-.811l-1.756-2.728a2.018,2.018,0,0,1,.274-2.531l2.875-2.887a1.363,1.363,0,0,0,.327-1.418c-.234-.647-.446-1.317-.628-1.99a1.363,1.363,0,0,0-1.087-.974l-4.02-.7a2.018,2.018,0,0,1-1.685-1.909l-.142-3.241a2.037,2.037,0,0,1,1.509-2.059l3.942-1.083a1.391,1.391,0,0,0,1-1.087c.121-.68.272-1.361.447-2.022a1.361,1.361,0,0,0-.445-1.389l-3.115-2.6a2.012,2.012,0,0,1-.5-2.5l1.511-2.885a2.051,2.051,0,0,1,2.338-1.038l3.953,1.017a1.4,1.4,0,0,0,1.412-.446c.444-.524.916-1.038,1.4-1.527a1.37,1.37,0,0,0,.318-1.43l-1.383-3.812a2.026,2.026,0,0,1,.827-2.411l2.758-1.757a2.046,2.046,0,0,1,2.543.26l2.894,2.838a1.385,1.385,0,0,0,1.432.316c.653-.236,1.328-.449,2.007-.633a1.382,1.382,0,0,0,.99-1.086l.725-3.993a2.045,2.045,0,0,1,1.926-1.68l3.267-.157a2.029,2.029,0,0,1,2.068,1.491l1.07,3.907a1.371,1.371,0,0,0,1.088.984c.687.117,1.371.263,2.035.433a1.4,1.4,0,0,0,1.409-.451l2.635-3.1a2.052,2.052,0,0,1,2.509-.5l2.9,1.484a2.012,2.012,0,0,1,1.036,2.323l-1.045,3.928a1.354,1.354,0,0,0,.432,1.386c.533.444,1.053.915,1.547,1.4a1.385,1.385,0,0,0,1.437.3l3.848-1.392a2.038,2.038,0,0,1,2.421.811l1.756,2.728a2.017,2.017,0,0,1-.274,2.531l-2.874,2.887a1.363,1.363,0,0,0-.327,1.418c.234.645.445,1.315.627,1.99a1.364,1.364,0,0,0,1.088.974l4.019.7a2.018,2.018,0,0,1,1.686,1.908l.141,3.241a2.037,2.037,0,0,1-1.509,2.059l-3.942,1.083a1.391,1.391,0,0,0-1,1.087c-.122.682-.272,1.363-.447,2.021a1.362,1.362,0,0,0,.445,1.389l3.115,2.6a2.012,2.012,0,0,1,.5,2.5l-1.511,2.885a2.052,2.052,0,0,1-2.338,1.038l-3.953-1.017a1.394,1.394,0,0,0-1.406.438c-.449.53-.926,1.049-1.418,1.542a1.362,1.362,0,0,0-.31,1.423l1.383,3.811a2.026,2.026,0,0,1-.828,2.411l-2.758,1.757a2.046,2.046,0,0,1-2.543-.26l-2.894-2.838a1.385,1.385,0,0,0-1.432-.316c-.652.236-1.328.449-2.007.633a1.383,1.383,0,0,0-.99,1.086l-.725,3.992a2.046,2.046,0,0,1-1.927,1.68l-3.267.157Zm-6.5-7.522a2.013,2.013,0,0,1,.5.063c.647.166,1.314.308,1.981.422a2.036,2.036,0,0,1,1.615,1.462l1.07,3.907a1.372,1.372,0,0,0,1.4,1l3.267-.157a1.387,1.387,0,0,0,1.307-1.138l.725-3.992a2.048,2.048,0,0,1,1.469-1.606c.662-.179,1.32-.387,1.956-.617a2.05,2.05,0,0,1,2.12.466l2.894,2.838a1.387,1.387,0,0,0,1.724.175l2.758-1.757a1.368,1.368,0,0,0,.561-1.627l-1.383-3.811a2.028,2.028,0,0,1,.464-2.116c.48-.48.945-.986,1.382-1.5a2.06,2.06,0,0,1,2.076-.651l3.953,1.016a1.392,1.392,0,0,0,1.588-.7l1.511-2.886a1.355,1.355,0,0,0-.333-1.68l-3.115-2.6a2.026,2.026,0,0,1-.66-2.066c.171-.641.317-1.3.435-1.968a2.055,2.055,0,0,1,1.478-1.609l3.942-1.083a1.379,1.379,0,0,0,1.023-1.392l-.142-3.241a1.361,1.361,0,0,0-1.138-1.286l-4.019-.7a2.027,2.027,0,0,1-1.613-1.453c-.178-.657-.383-1.309-.611-1.937a2.028,2.028,0,0,1,.48-2.11l2.874-2.887a1.359,1.359,0,0,0,.187-1.706l-1.756-2.728a1.379,1.379,0,0,0-1.64-.546L470,397.088a2.049,2.049,0,0,1-2.126-.45c-.481-.473-.988-.931-1.506-1.363a2.017,2.017,0,0,1-.648-2.064l1.045-3.928a1.355,1.355,0,0,0-.7-1.564l-2.9-1.484a1.392,1.392,0,0,0-1.7.341l-2.635,3.1a2.069,2.069,0,0,1-2.078.664c-.646-.166-1.312-.308-1.981-.422a2.036,2.036,0,0,1-1.615-1.462l-1.07-3.907a1.365,1.365,0,0,0-1.4-1l-3.267.157a1.387,1.387,0,0,0-1.307,1.138l-.725,3.993a2.047,2.047,0,0,1-1.468,1.606c-.662.179-1.32.387-1.956.617a2.049,2.049,0,0,1-2.12-.466l-2.894-2.838a1.388,1.388,0,0,0-1.725-.175l-2.758,1.757a1.368,1.368,0,0,0-.561,1.627l1.383,3.812a2.034,2.034,0,0,1-.472,2.122c-.475.477-.935.977-1.368,1.488a2.067,2.067,0,0,1-2.081.659l-3.953-1.017a1.393,1.393,0,0,0-1.588.7l-1.511,2.886a1.355,1.355,0,0,0,.333,1.68l3.115,2.6a2.025,2.025,0,0,1,.66,2.066c-.171.644-.318,1.306-.436,1.968a2.055,2.055,0,0,1-1.477,1.609l-3.942,1.083a1.379,1.379,0,0,0-1.023,1.392l.142,3.241a1.36,1.36,0,0,0,1.138,1.286l4.019.7a2.027,2.027,0,0,1,1.613,1.453c.177.655.383,1.307.612,1.937a2.028,2.028,0,0,1-.48,2.111l-2.875,2.887a1.361,1.361,0,0,0-.187,1.706l1.756,2.728a1.38,1.38,0,0,0,1.64.547l3.848-1.392a2.058,2.058,0,0,1,2.132.458c.477.469.979.923,1.492,1.35a2.024,2.024,0,0,1,.656,2.07l-1.045,3.929a1.355,1.355,0,0,0,.7,1.564l2.9,1.484a1.392,1.392,0,0,0,1.7-.341l2.635-3.1A2.073,2.073,0,0,1,443.52,437.9Zm6.816-12.025a11.745,11.745,0,0,1-11.225-8.194,11.579,11.579,0,0,1,.831-8.937,11.838,11.838,0,0,1,21.722,1.884,11.581,11.581,0,0,1-.831,8.937,11.9,11.9,0,0,1-10.5,6.31Zm-3.247-22.266a11.133,11.133,0,0,0-6.562,5.444,10.925,10.925,0,0,0-.785,8.43,11.177,11.177,0,0,0,20.507,1.772,10.926,10.926,0,0,0,.785-8.43A11.116,11.116,0,0,0,447.09,403.608Z" transform="translate(-418.886 -382.885)" fill="#3276b6" stroke="#a4d2d3" stroke-width="1"/>
          <path id="Trazado_731323" data-name="Trazado 731323" d="M951.308,423.516a1.355,1.355,0,0,1-1.315-1l-.648-2.365a.7.7,0,0,0-.555-.5c-.419-.072-.837-.161-1.242-.265a.719.719,0,0,0-.721.231l-1.595,1.88a1.373,1.373,0,0,1-1.678.336l-1.755-.9a1.348,1.348,0,0,1-.694-1.556l.633-2.378a.693.693,0,0,0-.224-.709c-.321-.268-.636-.552-.935-.846a.712.712,0,0,0-.738-.157l-2.329.843a1.363,1.363,0,0,1-1.62-.543l-1.063-1.651a1.351,1.351,0,0,1,.183-1.7l1.74-1.748a.694.694,0,0,0,.168-.722c-.144-.4-.273-.807-.383-1.215a.694.694,0,0,0-.555-.495l-2.433-.423a1.351,1.351,0,0,1-1.128-1.278l-.086-1.962a1.364,1.364,0,0,1,1.01-1.378l2.386-.655a.711.711,0,0,0,.512-.555c.074-.415.166-.83.273-1.234a.693.693,0,0,0-.226-.707l-1.886-1.573a1.347,1.347,0,0,1-.332-1.671l.914-1.747a1.372,1.372,0,0,1,1.564-.694l2.393.615a.718.718,0,0,0,.723-.228c.272-.321.561-.635.857-.932a.7.7,0,0,0,.162-.729l-.837-2.308a1.356,1.356,0,0,1,.554-1.614l1.67-1.064a1.368,1.368,0,0,1,1.7.175l1.752,1.718a.707.707,0,0,0,.731.162c.4-.144.81-.274,1.225-.387a.707.707,0,0,0,.506-.555l.439-2.417a1.368,1.368,0,0,1,1.288-1.124l1.977-.1a1.354,1.354,0,0,1,1.384,1l.648,2.365a.7.7,0,0,0,.555.5c.418.072.836.16,1.242.265a.719.719,0,0,0,.721-.231l1.6-1.879a1.371,1.371,0,0,1,1.678-.336l1.756.9a1.347,1.347,0,0,1,.694,1.556l-.632,2.378a.687.687,0,0,0,.219.705c.326.271.643.559.945.855a.707.707,0,0,0,.734.152l2.329-.843a1.364,1.364,0,0,1,1.62.543l1.063,1.652a1.351,1.351,0,0,1-.183,1.695l-1.74,1.748a.693.693,0,0,0-.168.722c.143.395.272.8.383,1.215a.694.694,0,0,0,.555.5l2.433.423a1.351,1.351,0,0,1,1.128,1.278l.086,1.962a1.364,1.364,0,0,1-1.009,1.378l-2.386.655a.71.71,0,0,0-.512.555c-.075.419-.167.834-.273,1.234a.693.693,0,0,0,.226.707l1.886,1.573a1.347,1.347,0,0,1,.332,1.671l-.915,1.747a1.371,1.371,0,0,1-1.563.694l-2.393-.615a.714.714,0,0,0-.719.223c-.275.325-.566.641-.866.942a.694.694,0,0,0-.158.725l.837,2.307a1.355,1.355,0,0,1-.554,1.614L961,420.991a1.368,1.368,0,0,1-1.7-.174l-1.752-1.718a.707.707,0,0,0-.731-.162c-.4.144-.811.274-1.226.387a.7.7,0,0,0-.505.555l-.439,2.417a1.368,1.368,0,0,1-1.288,1.124l-1.977.1Zm-3.932-4.815a1.349,1.349,0,0,1,.336.042c.387.1.787.185,1.189.253a1.362,1.362,0,0,1,1.081.979l.648,2.365a.691.691,0,0,0,.714.513l1.978-.1a.709.709,0,0,0,.669-.582l.439-2.417a1.37,1.37,0,0,1,.983-1.075c.4-.108.792-.232,1.174-.37a1.372,1.372,0,0,1,1.419.312l1.752,1.718a.718.718,0,0,0,.882.089l1.67-1.063a.7.7,0,0,0,.287-.83l-.838-2.307a1.358,1.358,0,0,1,.311-1.418c.287-.288.566-.591.83-.9a1.378,1.378,0,0,1,1.389-.436l2.393.615a.723.723,0,0,0,.813-.36l.915-1.747a.691.691,0,0,0-.17-.856l-1.886-1.573a1.357,1.357,0,0,1-.442-1.385c.1-.383.19-.78.261-1.181a1.374,1.374,0,0,1,.988-1.077l2.386-.655a.7.7,0,0,0,.524-.711l-.086-1.962a.694.694,0,0,0-.581-.655l-2.433-.423a1.358,1.358,0,0,1-1.08-.974c-.106-.394-.23-.785-.367-1.162a1.358,1.358,0,0,1,.321-1.414l1.74-1.748a.694.694,0,0,0,.1-.87l-1.063-1.652a.706.706,0,0,0-.839-.279l-2.329.843a1.371,1.371,0,0,1-1.422-.3c-.288-.283-.592-.558-.9-.818a1.352,1.352,0,0,1-.435-1.383l.632-2.378a.69.69,0,0,0-.356-.8l-1.756-.9a.722.722,0,0,0-.872.175l-1.595,1.88a1.385,1.385,0,0,1-1.39.444c-.388-.1-.788-.185-1.189-.253a1.363,1.363,0,0,1-1.082-.979l-.648-2.365a.7.7,0,0,0-.714-.512l-1.977.1a.709.709,0,0,0-.669.582l-.439,2.417a1.372,1.372,0,0,1-.984,1.075c-.4.108-.793.232-1.173.37a1.371,1.371,0,0,1-1.419-.312l-1.752-1.718a.71.71,0,0,0-.882-.089l-1.67,1.063a.7.7,0,0,0-.287.83l.837,2.308a1.363,1.363,0,0,1-.316,1.422c-.284.284-.56.585-.821.893a1.382,1.382,0,0,1-1.392.441l-2.393-.615a.713.713,0,0,0-.813.36l-.914,1.747a.69.69,0,0,0,.17.856l1.886,1.573a1.357,1.357,0,0,1,.442,1.385c-.1.387-.191.784-.261,1.181a1.375,1.375,0,0,1-.988,1.077l-2.386.656a.7.7,0,0,0-.524.712l.086,1.962a.694.694,0,0,0,.58.655l2.433.423a1.358,1.358,0,0,1,1.08.974c.106.391.229.782.367,1.162a1.358,1.358,0,0,1-.321,1.414l-1.74,1.748a.693.693,0,0,0-.1.87l1.063,1.652a.7.7,0,0,0,.839.279l2.329-.843a1.377,1.377,0,0,1,1.426.307c.286.281.588.554.9.81a1.357,1.357,0,0,1,.44,1.387l-.633,2.379a.691.691,0,0,0,.356.8l1.755.9a.714.714,0,0,0,.872-.175l1.595-1.879A1.387,1.387,0,0,1,947.376,418.7Zm4.126-7.019a7.239,7.239,0,0,1-6.919-5.052,7.14,7.14,0,0,1,.512-5.51,7.3,7.3,0,0,1,13.39,1.162,7.14,7.14,0,0,1-.513,5.51,7.336,7.336,0,0,1-6.47,3.889ZM949.576,398.2a6.61,6.61,0,0,0-3.9,3.232,6.483,6.483,0,0,0-.466,5,6.635,6.635,0,0,0,12.174,1.05,6.484,6.484,0,0,0,.466-5A6.6,6.6,0,0,0,949.576,398.2Zm-.1-.316h0Z" transform="translate(-857.701 -385.033)" fill="#3276b6" stroke="#a4d2d3" stroke-width="1"/>
        </g>
        <g id="Grupo_1012507" data-name="Grupo 1012507" transform="translate(434.568 393.371)">
          <g id="Grupo_1012500" data-name="Grupo 1012500" transform="translate(0 52.937)">
            <rect id="Rectángulo_349707" data-name="Rectángulo 349707" width="5.901" height="93.565" transform="translate(0 0.331)" fill="#fff"/>
            <g id="Grupo_1012496" data-name="Grupo 1012496" transform="translate(2.62 19.892)">
              <rect id="Rectángulo_349708" data-name="Rectángulo 349708" width="72.811" height="11.828" transform="translate(0.331 0.331)" fill="#fff"/>
              <path id="Trazado_731324" data-name="Trazado 731324" d="M825.02,1250.116H752.209a.331.331,0,0,1-.331-.331v-11.828a.331.331,0,0,1,.331-.331H825.02a.331.331,0,0,1,.331.331v11.828A.331.331,0,0,1,825.02,1250.116Zm-72.48-.661h72.15v-11.167H752.54Z" transform="translate(-751.878 -1237.626)"/>
            </g>
            <g id="Grupo_1012497" data-name="Grupo 1012497" transform="translate(2.178 67.924)">
              <rect id="Rectángulo_349709" data-name="Rectángulo 349709" width="72.811" height="11.133" transform="translate(0.331 0.331)" fill="#fff"/>
              <path id="Trazado_731325" data-name="Trazado 731325" d="M821.984,1579.866H749.173a.331.331,0,0,1-.331-.331V1568.4a.331.331,0,0,1,.331-.331h72.811a.33.33,0,0,1,.331.331v11.133A.33.33,0,0,1,821.984,1579.866ZM749.5,1579.2h72.15v-10.471H749.5Z" transform="translate(-748.842 -1568.072)"/>
            </g>
            <g id="Grupo_1012498" data-name="Grupo 1012498" transform="translate(35.634)">
              <rect id="Rectángulo_349710" data-name="Rectángulo 349710" width="5.901" height="93.565" transform="translate(0.331 0.331)" fill="#fff"/>
              <path id="Trazado_731326" data-name="Trazado 731326" d="M985.236,1195h-5.9a.331.331,0,0,1-.331-.331V1101.1a.331.331,0,0,1,.331-.331h5.9a.331.331,0,0,1,.331.331v93.565A.331.331,0,0,1,985.236,1195Zm-5.57-.662H984.9v-92.9h-5.239Z" transform="translate(-979.004 -1100.772)"/>
            </g>
            <g id="Grupo_1012499" data-name="Grupo 1012499" transform="translate(71.598)">
              <rect id="Rectángulo_349711" data-name="Rectángulo 349711" width="5.901" height="93.565" transform="translate(0.331 0.331)" fill="#fff"/>
              <path id="Trazado_731327" data-name="Trazado 731327" d="M1232.659,1195h-5.9a.331.331,0,0,1-.331-.331V1101.1a.331.331,0,0,1,.331-.331h5.9a.331.331,0,0,1,.331.331v93.565A.331.331,0,0,1,1232.659,1195Zm-5.57-.662h5.239v-92.9h-5.239Z" transform="translate(-1226.427 -1100.772)"/>
            </g>
          </g>
          <g id="Grupo_1012506" data-name="Grupo 1012506" transform="translate(87.003 0)">
            <g id="Grupo_1012501" data-name="Grupo 1012501" transform="translate(4.236 18.51)">
              <rect id="Rectángulo_349712" data-name="Rectángulo 349712" width="104.543" height="19.066" transform="translate(0.331 0.331)" fill="#fff"/>
              <path id="Trazado_731328" data-name="Trazado 731328" d="M1466.43,883.648H1361.887a.331.331,0,0,1-.331-.331V864.252a.331.331,0,0,1,.331-.331H1466.43a.331.331,0,0,1,.331.331v19.066A.331.331,0,0,1,1466.43,883.648Zm-104.212-.661H1466.1v-18.4H1362.218Z" transform="translate(-1361.556 -863.921)"/>
            </g>
            <g id="Grupo_1012502" data-name="Grupo 1012502" transform="translate(4.236 59.082)">
              <rect id="Rectángulo_349713" data-name="Rectángulo 349713" width="104.543" height="19.066" transform="translate(0.331 0.331)" fill="#fff"/>
              <path id="Trazado_731329" data-name="Trazado 731329" d="M1466.43,1162.774H1361.887a.331.331,0,0,1-.331-.331v-19.066a.331.331,0,0,1,.331-.331H1466.43a.331.331,0,0,1,.331.331v19.066A.331.331,0,0,1,1466.43,1162.774Zm-104.212-.662H1466.1v-18.4H1362.218Z" transform="translate(-1361.556 -1143.046)"/>
            </g>
            <g id="Grupo_1012503" data-name="Grupo 1012503">
              <rect id="Rectángulo_349714" data-name="Rectángulo 349714" width="8.473" height="130.58" transform="translate(0.331 0.331)" fill="#fff"/>
              <path id="Trazado_731330" data-name="Trazado 731330" d="M1341.214,867.819h-8.472a.331.331,0,0,1-.331-.331V736.909a.331.331,0,0,1,.331-.331h8.472a.331.331,0,0,1,.331.331v130.58A.331.331,0,0,1,1341.214,867.819Zm-8.142-.661h7.811V737.24h-7.811Z" transform="translate(-1332.411 -736.578)"/>
            </g>
            <g id="Grupo_1012504" data-name="Grupo 1012504" transform="translate(51.638)">
              <rect id="Rectángulo_349715" data-name="Rectángulo 349715" width="8.473" height="130.58" transform="translate(0.331 0.331)" fill="#fff"/>
              <path id="Trazado_731331" data-name="Trazado 731331" d="M1696.468,867.819H1688a.331.331,0,0,1-.331-.331V736.909a.331.331,0,0,1,.331-.331h8.473a.331.331,0,0,1,.331.331v130.58A.331.331,0,0,1,1696.468,867.819Zm-8.142-.661h7.811V737.24h-7.811Z" transform="translate(-1687.665 -736.578)"/>
            </g>
            <g id="Grupo_1012505" data-name="Grupo 1012505" transform="translate(103.276)">
              <rect id="Rectángulo_349716" data-name="Rectángulo 349716" width="8.473" height="166.414" transform="translate(0.331 0.331)" fill="#fff"/>
              <path id="Trazado_731332" data-name="Trazado 731332" d="M2051.723,903.654h-8.472a.331.331,0,0,1-.331-.331V736.909a.331.331,0,0,1,.331-.331h8.472a.331.331,0,0,1,.331.331V903.323A.331.331,0,0,1,2051.723,903.654Zm-8.142-.662h7.811V737.24h-7.811Z" transform="translate(-2042.92 -736.578)"/>
            </g>
          </g>
        </g>
        <g id="Grupo_1012520" data-name="Grupo 1012520" transform="translate(383.666 410.742)">
          <g id="Grupo_1012510" data-name="Grupo 1012510" transform="translate(15.835 152.233)">
            <g id="Grupo_1012508" data-name="Grupo 1012508" transform="translate(0.331 0.331)">
              <path id="Trazado_731333" data-name="Trazado 731333" d="M560.176,1905.677s-.142,5.716-.284,14.057c-.112,6.63-.228,14.916-.271,23.306h-27.8c-.558-10.415-.931-17.379-.931-17.379s-2.675,8.146-5.126,17.379H494.885c.641-10.679,1.219-20.74,1.585-27.229.258-4.563.413-7.36.413-7.36Z" transform="translate(-494.885 -1905.677)" fill="#fff"/>
            </g>
            <g id="Grupo_1012509" data-name="Grupo 1012509">
              <path id="Trazado_731334" data-name="Trazado 731334" d="M705.4,2058.927a.331.331,0,0,1-.32-.416c2.425-9.136,5.1-17.316,5.131-17.4a.331.331,0,0,1,.645.085l.931,17.379a.331.331,0,0,1-.661.035l-.835-15.585c-.911,2.872-2.809,9.008-4.572,15.652A.331.331,0,0,1,705.4,2058.927Z" transform="translate(-674.186 -2020.902)"/>
              <path id="Trazado_731335" data-name="Trazado 731335" d="M492.94,1941.427h-.02a.331.331,0,0,1-.31-.35c.7-11.62,1.292-22.047,1.585-27.228.257-4.563.413-7.36.413-7.36a.33.33,0,0,1,.316-.312l63.293-2.774a.331.331,0,0,1,.345.339c0,.057-.143,5.81-.284,14.054-.144,8.486-.235,16.326-.271,23.3a.335.335,0,0,1-.332.329.33.33,0,0,1-.329-.332c.036-6.979.127-14.821.271-23.31.121-7.086.243-12.332.275-13.705l-62.64,2.745c-.047.834-.188,3.37-.4,7.062-.293,5.182-.888,15.609-1.585,27.23A.331.331,0,0,1,492.94,1941.427Z" transform="translate(-492.609 -1903.402)"/>
            </g>
          </g>
          <g id="Grupo_1012514" data-name="Grupo 1012514" transform="translate(0 37.347)">
            <g id="Grupo_1012511" data-name="Grupo 1012511" transform="translate(79.527)">
              <path id="Trazado_731336" data-name="Trazado 731336" d="M939.6,1142.409c1.135-.089,6.705,11.317,24.136,10.839s31.416-19.98,31.416-19.98,6.02-10.15,10.589-13.819,5.285-4.153,5.285-4.153a3.72,3.72,0,0,1,0,4.153,65.234,65.234,0,0,1-5.387,6.446,5.79,5.79,0,0,1,2.392,7.373c-2.26,5.729-8.628,5.269-8.628,5.269s-12.924,57.211-66.336,30.025Z" transform="translate(-932.736 -1114.964)" fill="#fff"/>
              <path id="Trazado_731337" data-name="Trazado 731337" d="M957.609,1174.275c-8.089,0-17-2.458-26.637-7.365a.331.331,0,0,1-.171-.375l6.533-26.152a.33.33,0,0,1,.295-.25c.4-.032.779.393,1.612,1.323,2.655,2.959,8.858,9.886,22.541,9.515,17.07-.468,31.017-19.649,31.156-19.843.231-.392,6.087-10.219,10.65-13.884,4.527-3.636,5.277-4.15,5.307-4.17a.331.331,0,0,1,.45.076,4.09,4.09,0,0,1,.014,4.53,59.814,59.814,0,0,1-5.155,6.207,6.077,6.077,0,0,1,2.19,7.556c-2.045,5.185-7.373,5.49-8.677,5.485a65.887,65.887,0,0,1-5.21,13.479c-3.518,6.8-9.823,15.889-19.884,20.612A34.913,34.913,0,0,1,957.609,1174.275Zm-26.1-7.835c15.756,7.964,29.495,9.3,40.835,3.98,18.948-8.9,24.737-33.653,24.793-33.9a.331.331,0,0,1,.346-.257c.251.018,6.155.37,8.3-5.06a5.422,5.422,0,0,0-2.244-6.962.331.331,0,0,1-.081-.516,65.27,65.27,0,0,0,5.349-6.4,3.4,3.4,0,0,0,.184-3.5c-.5.374-1.8,1.378-4.983,3.932-4.47,3.59-10.451,13.629-10.511,13.73-.157.22-14.3,19.665-31.691,20.142-.365.01-.727.015-1.082.015-13.228,0-19.326-6.8-21.97-9.75-.322-.359-.651-.726-.877-.936Z" transform="translate(-930.791 -1113.019)"/>
            </g>
            <path id="Trazado_731338" data-name="Trazado 731338" d="M383.666,1197.984s5.231-33.758,23.711-42.064,43.482-7.151,50.376-3,24.864,22.9,24.864,22.9l-14.115,19.7-1.764,2.463s.17,2.792.407,7.328c.859,16.432,2.6,55.746.353,68.091,0,0-17.665,2.06-25.157-.89s-32.127-7.084-43.9-1.674l2.14-75.542Z" transform="translate(-383.666 -1144.387)" fill="#3276b6"/>
            <path id="Trazado_731339" data-name="Trazado 731339" d="M595.035,1727.886a.331.331,0,0,1-.057-.657c14.724-2.6,23.855-9.175,28.923-14.231a35.816,35.816,0,0,0,7.551-10.459.331.331,0,0,1,.613.248,35.71,35.71,0,0,1-7.671,10.654c-5.137,5.133-14.39,11.8-29.3,14.44A.321.321,0,0,1,595.035,1727.886Z" transform="translate(-564.029 -1616.672)"/>
            <g id="Grupo_1012512" data-name="Grupo 1012512" transform="translate(45.443 36.697)">
              <path id="Trazado_731340" data-name="Trazado 731340" d="M734.537,1407.923H698.575l11.264-40.165H745.8Z" transform="translate(-698.244 -1367.427)" fill="#fff"/>
              <path id="Trazado_731341" data-name="Trazado 731341" d="M732.592,1406.309H696.631a.331.331,0,0,1-.319-.42l11.264-40.164a.331.331,0,0,1,.318-.241h35.962a.331.331,0,0,1,.318.42l-11.264,40.165A.331.331,0,0,1,732.592,1406.309Zm-35.525-.662h35.275l11.078-39.5H708.145Z" transform="translate(-696.3 -1365.483)"/>
            </g>
            <g id="Grupo_1012513" data-name="Grupo 1012513" transform="translate(2.634 45.261)">
              <path id="Trazado_731342" data-name="Trazado 731342" d="M404.237,1434.812l18.2-8.135s-2.563,30.834,34.259,16.6a26.234,26.234,0,0,1-1.166-8.591c.192-4.628,2.961-.15,3.349,3.612s9.033,2.235,14.228.752,12.015-.511,0,6.115-14.647,3.671-14.647,3.671-15.344,21.467-34.434,16.906C400.545,1460.128,404.237,1434.812,404.237,1434.812Z" transform="translate(-403.701 -1426.346)" fill="#fff"/>
              <path id="Trazado_731343" data-name="Trazado 731343" d="M427.449,1464.752a23.22,23.22,0,0,1-5.411-.637c-12.285-2.935-17.081-11.3-18.941-17.8a36.093,36.093,0,0,1-1.1-13.5.33.33,0,0,1,.192-.254l18.2-8.134a.331.331,0,0,1,.465.329c-.009.113-.849,11.382,6.551,16.915,5.736,4.29,14.809,4.107,26.969-.543a26.575,26.575,0,0,1-1.086-8.408c.023-.559.094-2.259,1.058-2.289h.021c1.232,0,2.661,3.272,2.93,5.881a1.728,1.728,0,0,0,.807,1.313c2.2,1.487,8.377.475,13-.845,2.538-.724,6.4-1.056,7.027.474.567,1.377-1.649,3.42-6.776,6.248-10.084,5.561-13.733,4.446-14.738,3.844a56.087,56.087,0,0,1-9.925,9.963C442.017,1460.917,435.216,1464.752,427.449,1464.752Zm-24.819-31.659a35.643,35.643,0,0,0,1.109,13.064c2.639,9.194,8.847,15.02,18.453,17.315a22.546,22.546,0,0,0,5.253.618c7.584,0,14.246-3.76,18.83-7.291a54.6,54.6,0,0,0,10-10.1.331.331,0,0,1,.251-.138.321.321,0,0,1,.265.11c.021.022,2.73,2.607,14.24-3.74,6.59-3.635,6.629-5.065,6.484-5.417-.361-.875-3.333-.918-6.234-.09-2.421.691-10.555,2.787-13.554.756a2.384,2.384,0,0,1-1.094-1.793c-.284-2.759-1.72-5.3-2.272-5.287-.091,0-.362.313-.417,1.655a26.075,26.075,0,0,0,1.149,8.469.331.331,0,0,1-.194.416c-12.536,4.847-21.922,5.037-27.9.565-6.732-5.037-6.9-14.568-6.836-16.948Z" transform="translate(-401.789 -1424.402)"/>
            </g>
          </g>
          <g id="Grupo_1012516" data-name="Grupo 1012516" transform="translate(35.853 4.883)">
            <path id="Trazado_731344" data-name="Trazado 731344" d="M646.222,918.287c-1.572,1.439-4.645,3.2-7.051,1.986-1.791-.9-2.791-3.238-2.729-5.914a3.589,3.589,0,0,1-2.692-.676c-1.194-1.055-.971-3-.924-4.274.216-5.89-3.207-6.794-2.369-10.792a9.5,9.5,0,0,1,3.588-5.364c2.33-1.767,3.909-1.2,7.826-2.223,6.592-1.726,9.23-2.4,11.236,1.681,1.631,3.321,6.178,4.205,5.478,6.962-.922,3.633-4.029,1.79-6.59,4.093C647.5,907.808,650.893,914.012,646.222,918.287Z" transform="translate(-630.324 -889.676)"/>
            <g id="Grupo_1012515" data-name="Grupo 1012515" transform="translate(4.611 6.455)">
              <path id="Trazado_731345" data-name="Trazado 731345" d="M688.435,947.672l-.26-.224c-1.3-1.124-2.663-2.429-3.009-4.116-1.472-7.17-8.041-9.773-8.344-3.189-.076,1.662-6.145,1.575-5.425,3.319,1.877,4.547,1.919,3.323-.731,5a2.289,2.289,0,0,0-.879.209,3.037,3.037,0,0,0-1.074,4.12,3.516,3.516,0,0,0,2.157,1.932v7.183a6.63,6.63,0,0,1-4.122,6.137l-2.426.991s11.312,7.382,22.793-.723l-1.532-.687a7.729,7.729,0,0,1-4.563-6.81l-.012-1.4a6.008,6.008,0,0,0,2.21-.184c3.211-.934,4.278-4.634,3.732-9.233l1.307-.7A.987.987,0,0,0,688.435,947.672Z" transform="translate(-663.992 -936.026)" fill="#fff"/>
              <path id="Trazado_731346" data-name="Trazado 731346" d="M673.559,970.474a22.943,22.943,0,0,1-11.362-3.106.331.331,0,0,1,.056-.583l2.426-.991a6.277,6.277,0,0,0,3.916-5.831v-6.944a4.077,4.077,0,0,1-2.405-4.693,2.809,2.809,0,0,1,1.514-1.9,2.6,2.6,0,0,1,.915-.235c.448-.28.815-.475,1.112-.634.542-.289.718-.4.733-.543a5.8,5.8,0,0,0-.615-1.724c-.193-.445-.427-.984-.7-1.645a.957.957,0,0,1,.009-.8c.337-.692,1.536-1.028,2.806-1.383,1.14-.32,2.56-.717,2.585-1.274.162-3.514,1.971-4.034,2.741-4.094,2.26-.174,5.294,2.538,6.257,7.232.33,1.605,1.67,2.871,2.9,3.932l.26.224a1.318,1.318,0,0,1-.237,2.16l-1.11.6c.548,5.058-.9,8.466-3.993,9.365a6.122,6.122,0,0,1-1.969.22l.009,1.048a7.441,7.441,0,0,0,4.367,6.511l1.532.687a.331.331,0,0,1,.056.572A20.12,20.12,0,0,1,673.559,970.474Zm-10.434-3.331c2.372,1.3,11.812,5.671,21.373-.714l-.995-.446a8.109,8.109,0,0,1-4.758-7.1l-.013-1.412a.331.331,0,0,1,.36-.333,5.682,5.682,0,0,0,2.089-.172c2.795-.813,4.069-4.048,3.5-8.876a.331.331,0,0,1,.172-.33l1.307-.7a.656.656,0,0,0,.118-1.076l-.26-.224c-1.313-1.132-2.745-2.491-3.116-4.3-.863-4.2-3.567-6.86-5.558-6.705-1.258.1-2.035,1.362-2.132,3.465-.047,1.034-1.514,1.445-3.068,1.88-.972.272-2.182.612-2.389,1.036a.291.291,0,0,0,.008.262c.271.657.5,1.193.7,1.634.9,2.081,1.02,2.349-.413,3.114-.3.162-.682.364-1.143.656a.328.328,0,0,1-.163.051,1.965,1.965,0,0,0-.753.179,2.161,2.161,0,0,0-1.153,1.465,3.3,3.3,0,0,0,.239,2.215,3.205,3.205,0,0,0,1.948,1.754.331.331,0,0,1,.24.318v7.183a6.936,6.936,0,0,1-4.327,6.443Z" transform="translate(-662.047 -934.084)"/>
            </g>
            <path id="Trazado_731347" data-name="Trazado 731347" d="M739.2,1068.88a.32.32,0,0,1-.05,0,9.684,9.684,0,0,1-6.694-4.322.331.331,0,0,1,.573-.33,9.185,9.185,0,0,0,6.221,4,.331.331,0,0,1-.05.658Z" transform="translate(-717.572 -1038.711)"/>
          </g>
          <g id="Grupo_1012519" data-name="Grupo 1012519" transform="translate(33.645 0)">
            <g id="Grupo_1012517" data-name="Grupo 1012517">
              <path id="Trazado_731348" data-name="Trazado 731348" d="M648.7,871.417a14.753,14.753,0,1,0-27,11.3Z" transform="translate(-619.065 -859.965)" fill="#fff"/>
              <path id="Trazado_731349" data-name="Trazado 731349" d="M617.707,879.5a.665.665,0,0,1-.519-.332,15.416,15.416,0,1,1,27.593-13.622,15.634,15.634,0,0,1,.626,1.811.664.664,0,0,1-.383.791l-27,11.3A.664.664,0,0,1,617.707,879.5Zm14.061-22.043a14.094,14.094,0,0,0-14.205,19.482c.148.354.312.7.5,1.056l25.9-10.841c-.122-.38-.257-.746-.4-1.095a14,14,0,0,0-7.654-7.595A14.141,14.141,0,0,0,631.768,857.456Z" transform="translate(-615.132 -856.083)"/>
            </g>
            <g id="Grupo_1012518" data-name="Grupo 1012518" transform="translate(1.461 10.788)">
              <path id="Trazado_731350" data-name="Trazado 731350" d="M629.75,949.224l.507-3.052,27-11.3,6.03.315Z" transform="translate(-629.086 -934.206)" fill="#fff"/>
              <path id="Trazado_731351" data-name="Trazado 731351" d="M625.787,945.982a.664.664,0,0,1-.6-.771l.507-3.051a.664.664,0,0,1,.4-.5l27-11.3a.666.666,0,0,1,.291-.051l6.03.316a.652.652,0,0,1,.62.549.664.664,0,0,1-.4.727L626.1,945.933A.662.662,0,0,1,625.787,945.982Zm1.16-3.242-.25,1.5,29.746-12.451-2.972-.155Z" transform="translate(-625.181 -930.302)"/>
            </g>
            <path id="Trazado_731352" data-name="Trazado 731352" d="M660.22,1013.34a.788.788,0,0,1-.454-1.374c3.54-3.14,3.039-6.563,3.034-6.6a.788.788,0,0,1,1.556-.249c.028.175.636,4.318-3.544,8.024A.786.786,0,0,1,660.22,1013.34Z" transform="translate(-653.051 -982.89)" fill="#fff"/>
            <path id="Trazado_731353" data-name="Trazado 731353" d="M679.756,884.494a.664.664,0,0,1-.531-.353c-5.559-10.6-17.436-6.687-17.555-6.646a.666.666,0,0,1-.782-.283l-1.456-2.387a.664.664,0,0,1,1.134-.692l1.191,1.954c2.483-.662,13.257-2.837,18.644,7.437a.664.664,0,0,1-.645.97Z" transform="translate(-652.91 -871.238)"/>
          </g>
        </g>
        <path id="Trazado_731354" data-name="Trazado 731354" d="M1557.336,1832.709l1.146-2.617a1.505,1.505,0,0,1,2.223-.369l3.741,2.469c1.178.777.856,2.263-.5,2.3l-4.887.148C1557.907,1834.679,1556.946,1833.6,1557.336,1832.709Z" transform="translate(-1002.996 -1277.188)"/>
        <g id="Grupo_1012525" data-name="Grupo 1012525" transform="translate(498.093 484.377)">
          <path id="Trazado_731355" data-name="Trazado 731355" d="M1172.311,1803.773a.331.331,0,0,1-.308-.211,18.869,18.869,0,0,1-.776-10.116,15.662,15.662,0,0,1,12.28-12.749c11.9-2.4,27.642.568,45.538,8.588a.331.331,0,0,1-.271.6c-17.769-7.964-33.377-10.917-45.137-8.543a15,15,0,0,0-11.758,12.208,18.232,18.232,0,0,0,.741,9.769.331.331,0,0,1-.309.451Z" transform="translate(-1170.889 -1719.243)"/>
          <g id="Grupo_1012524" data-name="Grupo 1012524" transform="translate(18.53 0)">
            <path id="Trazado_731356" data-name="Trazado 731356" d="M1560.173,1378.5v-6.779a5.186,5.186,0,0,1,5.33-4.98h22.285a4.86,4.86,0,0,1,4.952,4.98v6.779h5.88v-10.8a5.05,5.05,0,0,0-5.131-5.026h-33.352a4.889,4.889,0,0,0-4.94,5.026v10.8Z" transform="translate(-1517.866 -1362.67)"/>
            <g id="Grupo_1012521" data-name="Grupo 1012521" transform="translate(34.286 0.574)">
              <path id="Trazado_731357" data-name="Trazado 731357" d="M1541.953,1385.175v-7.13a5.194,5.194,0,0,1,5.245-5.081h22.286a5.016,5.016,0,0,1,5.037,5.081v7.13h5.88v-11.154a5.209,5.209,0,0,0-5.217-5.128h-33.352a5.289,5.289,0,0,0-5.307,5.128v11.154Z" transform="translate(-1536.194 -1368.562)" fill="#fff"/>
              <path id="Trazado_731358" data-name="Trazado 731358" d="M1578.456,1383.561h-5.88a.331.331,0,0,1-.331-.331v-7.13a4.679,4.679,0,0,0-4.707-4.751h-22.286a4.84,4.84,0,0,0-4.914,4.751v7.13a.331.331,0,0,1-.331.331h-5.428a.331.331,0,0,1-.331-.331v-11.154a5.625,5.625,0,0,1,5.638-5.458h33.352a5.51,5.51,0,0,1,5.548,5.458v11.154A.331.331,0,0,1,1578.456,1383.561Zm-5.55-.661h5.219v-10.823a4.907,4.907,0,0,0-4.886-4.8h-33.352a4.955,4.955,0,0,0-4.976,4.8V1382.9h4.767v-6.8a5.5,5.5,0,0,1,5.575-5.412h22.286a5.333,5.333,0,0,1,5.368,5.412Z" transform="translate(-1534.249 -1366.618)"/>
            </g>
            <g id="Grupo_1012522" data-name="Grupo 1012522" transform="translate(0 13.617)">
              <rect id="Rectángulo_349723" data-name="Rectángulo 349723" width="113" height="77" rx="9" transform="translate(0.043 0.006)" fill="#4db1f0"/>
              <path id="Trazado_731359" data-name="Trazado 731359" d="M1402.442,1533.457H1307.63a9.271,9.271,0,0,1-9.261-9.261v-58.586a9.271,9.271,0,0,1,9.261-9.261h94.812a9.272,9.272,0,0,1,9.261,9.261V1524.2A9.272,9.272,0,0,1,1402.442,1533.457Zm-94.812-76.446a8.609,8.609,0,0,0-8.6,8.6V1524.2a8.609,8.609,0,0,0,8.6,8.6h94.812a8.609,8.609,0,0,0,8.6-8.6v-58.586a8.609,8.609,0,0,0-8.6-8.6Z" transform="translate(-1298.369 -1456.35)"/>
            </g>
            <path id="Trazado_731360" data-name="Trazado 731360" d="M1850.864,1524.538a.331.331,0,0,1-.331-.331v-33.864a5.376,5.376,0,0,0-5.37-5.37h-27.834a.331.331,0,1,1,0-.662h27.834a6.038,6.038,0,0,1,6.032,6.031v33.864A.331.331,0,0,1,1850.864,1524.538Z" transform="translate(-1741.613 -1466.631)"/>
            <path id="Trazado_731361" data-name="Trazado 731361" d="M1347.743,1810.628H1330.45a7.19,7.19,0,0,1-7.183-7.182v-18.924a.331.331,0,0,1,.661,0v18.924a6.528,6.528,0,0,0,6.521,6.52h17.293a.331.331,0,1,1,0,.661Z" transform="translate(-1319.648 -1722.922)"/>
            <g id="Grupo_1012523" data-name="Grupo 1012523" transform="translate(39.241 34.096)">
              <rect id="Rectángulo_349719" data-name="Rectángulo 349719" width="13.649" height="34.893" rx="6.824" transform="translate(10.547)" fill="#e39b40"/>
              <rect id="Rectángulo_349720" data-name="Rectángulo 349720" width="13.708" height="34.742" rx="6.854" transform="translate(34.742 10.593) rotate(90)" fill="#e39b40"/>
            </g>
          </g>
        </g>
        <g id="Grupo_1012533" data-name="Grupo 1012533" transform="translate(484.562 547.283)">
          <path id="Trazado_731362" data-name="Trazado 731362" d="M1100.839,1983.187c-7.116,0-13.3-.925-17.015-3.234-4.406-2.741-5.559-5.769-5.854-7.33-1.275-6.744,5.031-11.965,10.667-15.759a.331.331,0,0,1,.37.549c-5.468,3.681-11.59,8.723-10.387,15.088.275,1.455,1.362,4.284,5.553,6.892,4.836,3.009,14.763,3.881,27.952,2.456,10.821-1.169,22.807-3.865,29.825-6.707,23.466-9.505,32.142-9.6,61.884-.643a.331.331,0,1,1-.191.633c-29.872-8.991-37.911-8.91-61.445.622C1132.965,1979.493,1115.053,1983.186,1100.839,1983.187Z" transform="translate(-1077.804 -1933.352)"/>
          <g id="Grupo_1012527" data-name="Grupo 1012527" transform="translate(9.802)">
            <path id="Trazado_731363" data-name="Trazado 731363" d="M1211.84,1944.024c-9.993,0-19.274-3.99-27.587-11.978a.331.331,0,0,1,.458-.477c16.879,16.219,37.857,15.672,60.668-1.582a.331.331,0,0,1,.4.528C1233.876,1939.518,1222.457,1944.024,1211.84,1944.024Z" transform="translate(-1178.496 -1910.374)"/>
            <path id="Trazado_731364" data-name="Trazado 731364" d="M1172.311,1817.069a.331.331,0,0,1-.308-.211,18.869,18.869,0,0,1-.776-10.116,15.7,15.7,0,0,1,8.1-11.258.331.331,0,1,1,.309.585,15.032,15.032,0,0,0-7.761,10.781,18.232,18.232,0,0,0,.741,9.769.331.331,0,0,1-.309.451Z" transform="translate(-1167.16 -1795.446)"/>
            <path id="Trazado_731365" data-name="Trazado 731365" d="M1197.943,1950.38a.329.329,0,0,1-.128-.026,44.64,44.64,0,0,1-13.562-9.155.331.331,0,0,1,.458-.477,43.985,43.985,0,0,0,13.36,9.022.331.331,0,0,1-.128.636Z" transform="translate(-1178.496 -1919.527)"/>
            <path id="Trazado_731366" data-name="Trazado 731366" d="M1145.571,1942.4a.331.331,0,0,1-.227-.571,21.749,21.749,0,0,1,3.714-2.6c.566-.338,1.054-.63,1.373-.864a.331.331,0,1,1,.391.533c-.344.253-.845.552-1.424.9a21.261,21.261,0,0,0-3.6,2.508A.329.329,0,0,1,1145.571,1942.4Z" transform="translate(-1145.24 -1917.54)"/>
            <g id="Grupo_1012526" data-name="Grupo 1012526" transform="translate(62.232 13.757)">
              <path id="Trazado_731367" data-name="Trazado 731367" d="M1578.926,1901.564l-2.777-3.3c-.982-1.192-.516-2.3,1.561-3.135l5.714-2.559c1.8-.806,3.38.761,2.452,2.43l-3.344,6.016C1581.743,1902.437,1579.732,1902.741,1578.926,1901.564Z" transform="translate(-1575.325 -1892.026)" fill="#fff"/>
              <path id="Trazado_731368" data-name="Trazado 731368" d="M1578.445,1900.685a2.054,2.054,0,0,1-1.731-.856l-2.767-3.286a1.955,1.955,0,0,1-.523-1.751c.19-.747.934-1.387,2.213-1.9l5.7-2.554a2.3,2.3,0,0,1,2.682.421,2.069,2.069,0,0,1,.195,2.471l-3.344,6.017a2.811,2.811,0,0,1-2.305,1.438Zm4-9.933a2.046,2.046,0,0,0-.834.187l-5.714,2.559c-1.068.432-1.7.935-1.831,1.458a1.339,1.339,0,0,0,.39,1.164l2.774,3.295a.294.294,0,0,1,.02.026,1.427,1.427,0,0,0,1.285.58,2.173,2.173,0,0,0,1.758-1.1l3.344-6.016a1.411,1.411,0,0,0-.1-1.7A1.451,1.451,0,0,0,1582.444,1890.752Z" transform="translate(-1573.376 -1890.089)"/>
            </g>
          </g>
          <g id="Grupo_1012532" data-name="Grupo 1012532" transform="translate(114.78 31.347)">
            <g id="Grupo_1012529" data-name="Grupo 1012529" transform="translate(0 6.654)">
              <ellipse id="Elipse_8880" data-name="Elipse 8880" cx="17.757" cy="5.891" rx="17.757" ry="5.891" transform="translate(0.331 2.682)"/>
              <rect id="Rectángulo_349721" data-name="Rectángulo 349721" width="35.514" height="2.222" transform="translate(0.331 6.351)"/>
              <g id="Grupo_1012528" data-name="Grupo 1012528">
                <ellipse id="Elipse_8881" data-name="Elipse 8881" cx="17.757" cy="5.891" rx="17.757" ry="5.891" transform="translate(0.331 0.331)" fill="#fff"/>
                <path id="Trazado_731369" data-name="Trazado 731369" d="M1885.542,2069.324c-10.143,0-18.088-2.733-18.088-6.222s7.945-6.221,18.088-6.221,18.088,2.733,18.088,6.221S1895.685,2069.324,1885.542,2069.324Zm0-11.781c-9.446,0-17.427,2.546-17.427,5.56s7.98,5.56,17.427,5.56,17.426-2.546,17.426-5.56S1894.988,2057.542,1885.542,2057.542Z" transform="translate(-1867.454 -2056.881)"/>
              </g>
            </g>
            <path id="Trazado_731370" data-name="Trazado 731370" d="M1953.148,2043.958s-1.794,1.184-6.968,1.2c-4.642.017-6.967-1.2-6.967-1.2l-.62-10.578h15.175Z" transform="translate(-1928.253 -2030.142)"/>
            <g id="Grupo_1012530" data-name="Grupo 1012530" transform="translate(8.567 0.127)">
              <path id="Trazado_731371" data-name="Trazado 731371" d="M1935.659,2046.54c-4.491,0-9.265-1.155-9.265-3.295a.331.331,0,1,1,.661,0c0,1.245,3.533,2.633,8.6,2.633s8.6-1.388,8.6-2.633a.331.331,0,1,1,.661,0C1944.924,2045.386,1940.15,2046.54,1935.659,2046.54Z" transform="translate(-1926.394 -2038.418)" fill="#fff"/>
              <path id="Trazado_731372" data-name="Trazado 731372" d="M1946.513,2014.944c0,1.637-4.005,2.964-8.939,2.964s-8.939-1.327-8.939-2.964,4.005-2.964,8.939-2.964S1946.513,2013.307,1946.513,2014.944Z" transform="translate(-1928.309 -2011.98)"/>
            </g>
            <rect id="Rectángulo_349722" data-name="Rectángulo 349722" width="17.868" height="1.641" transform="translate(8.898 2.984)"/>
            <ellipse id="Elipse_8882" data-name="Elipse 8882" cx="8.934" cy="2.964" rx="8.934" ry="2.964" transform="translate(8.898 1.661)"/>
            <g id="Grupo_1012531" data-name="Grupo 1012531" transform="translate(9.177)">
              <path id="Trazado_731373" data-name="Trazado 731373" d="M1949.512,2016.03c0,1.463-3.73,2.649-8.325,2.649s-8.325-1.186-8.325-2.649,3.73-2.648,8.325-2.648S1949.512,2014.568,1949.512,2016.03Z" transform="translate(-1932.531 -2013.051)" fill="#fff"/>
              <path id="Trazado_731374" data-name="Trazado 731374" d="M1939.242,2017.064c-4.2,0-8.656-1.044-8.656-2.979s4.459-2.979,8.656-2.979,8.656,1.044,8.656,2.979S1943.439,2017.064,1939.242,2017.064Zm0-5.3c-4.711,0-7.994,1.221-7.994,2.318s3.283,2.318,7.994,2.318,7.994-1.221,7.994-2.318S1943.953,2011.767,1939.242,2011.767Z" transform="translate(-1930.587 -2011.106)"/>
            </g>
          </g>
        </g>
        <g id="Grupo_1012536" data-name="Grupo 1012536" transform="translate(458.799 348.397)">
          <path id="Trazado_731375" data-name="Trazado 731375" d="M934.685,457.137l11.23-6.2a122.4,122.4,0,0,0,25.161-18.419l.835-3.1s4.136.068,4.968-.02a3.917,3.917,0,0,1,3.019.969,134.3,134.3,0,0,0,29.285,18.982l7.708,3.562c1.791.828,2.511,2.4,2.1,4.738l-7.835,41.98c-3.72,11.818-20.2,28.183-29.51,36.738a9.364,9.364,0,0,1-5.961,2.468c-.952.04-4.888.354-4.888.354a12.85,12.85,0,0,0-2.072-2.689c-9.139-8.435-25.247-24.743-28.991-38.014L932.8,461.637A3.922,3.922,0,0,1,934.685,457.137Z" transform="translate(-927.991 -429.06)"/>
          <g id="Grupo_1012534" data-name="Grupo 1012534" transform="translate(0 0)">
            <path id="Trazado_731376" data-name="Trazado 731376" d="M904.885,457.679l11.142-6.148a121.44,121.44,0,0,0,24.965-18.275l2.818-2.677a3.893,3.893,0,0,1,5.267-.087A121.44,121.44,0,0,0,978.8,449.956l7.648,3.534a3.892,3.892,0,0,1,2.08,4.7l-7.774,41.653c-3.691,11.726-20.221,28.118-29.458,36.605a9.33,9.33,0,0,1-12.643-.022c-9.068-8.369-25.05-24.55-28.765-37.718l-6.872-36.567A3.892,3.892,0,0,1,904.885,457.679Z" transform="translate(-902.537 -429.169)" fill="#f4d9b9"/>
            <path id="Trazado_731377" data-name="Trazado 731377" d="M943.016,537.219a9.653,9.653,0,0,1-6.561-2.546c-9.177-8.47-25.13-24.653-28.859-37.871l-6.878-36.6a4.193,4.193,0,0,1,2.031-4.815l11.142-6.148a121.186,121.186,0,0,0,24.9-18.226l2.818-2.677a4.2,4.2,0,0,1,5.714-.094,121.034,121.034,0,0,0,29.645,19.411l7.648,3.535a4.233,4.233,0,0,1,2.263,5.081L979.1,497.907a.393.393,0,0,1-.01.039c-3.7,11.748-20.1,28.068-29.549,36.75A9.628,9.628,0,0,1,943.016,537.219Zm1.5-109.385a3.552,3.552,0,0,0-2.452.987l-2.818,2.677a121.847,121.847,0,0,1-25.033,18.325l-11.142,6.148a3.546,3.546,0,0,0-1.708,4.085l6.878,36.6c3.678,13.033,19.539,29.113,28.665,37.536a9.052,9.052,0,0,0,12.194.021c9.394-8.633,25.7-24.842,29.36-36.442l7.77-41.633a.383.383,0,0,1,.01-.039,3.569,3.569,0,0,0-1.9-4.3l-7.648-3.535a121.686,121.686,0,0,1-29.806-19.517A3.554,3.554,0,0,0,944.514,427.833ZM902.909,455.68h0Z" transform="translate(-900.56 -427.17)"/>
          </g>
          <g id="Grupo_1012535" data-name="Grupo 1012535" transform="translate(7.591 9.417)">
            <path id="Trazado_731378" data-name="Trazado 731378" d="M956.76,517.5l9.225-5.09a100.539,100.539,0,0,0,20.67-15.131l2.334-2.216a3.223,3.223,0,0,1,4.361-.072,100.553,100.553,0,0,0,24.612,16.116l6.332,2.927a3.222,3.222,0,0,1,1.722,3.892l-6.437,34.487c-3.056,9.709-16.742,23.281-24.39,30.308a7.725,7.725,0,0,1-10.468-.018c-7.508-6.929-20.741-20.327-23.817-31.229L955.215,521.2A3.222,3.222,0,0,1,956.76,517.5Z" transform="translate(-954.758 -493.855)" fill="#fff"/>
            <path id="Trazado_731379" data-name="Trazado 731379" d="M987.993,583.171a8.048,8.048,0,0,1-5.471-2.123c-7.6-7.017-20.819-20.425-23.911-31.383l-5.7-30.305a3.528,3.528,0,0,1,1.71-4.047l9.225-5.09a100.275,100.275,0,0,0,20.6-15.082l2.333-2.216a3.575,3.575,0,0,1,4.808-.079,100.153,100.153,0,0,0,24.531,16.063l6.332,2.926a3.561,3.561,0,0,1,1.9,4.273l-6.433,34.468c0,.013-.006.026-.01.039-3.066,9.739-16.654,23.26-24.482,30.452A8.029,8.029,0,0,1,987.993,583.171Zm-33.048-67.279a2.879,2.879,0,0,0-1.386,3.317l5.7,30.305c3.04,10.773,16.164,24.078,23.716,31.047a7.438,7.438,0,0,0,10.019.018c7.773-7.143,21.261-20.554,24.292-30.145l6.433-34.468a.391.391,0,0,1,.01-.039,2.9,2.9,0,0,0-1.545-3.493l-6.332-2.926a100.815,100.815,0,0,1-24.693-16.169,2.91,2.91,0,0,0-3.913.065l-2.333,2.216A100.943,100.943,0,0,1,964.17,510.8Z" transform="translate(-952.783 -491.956)"/>
          </g>
          <path id="Trazado_731380" data-name="Trazado 731380" d="M1101.353,654.777h-11.522l-.005-12.058a2.322,2.322,0,0,0-2.309-2.324l-10.142.019a2.07,2.07,0,0,0-2.092,2.052l.005,12.31h-11.565a2.123,2.123,0,0,0-2.135,2.057l-.067,9.856a2.258,2.258,0,0,0,2.246,2.322h11.526l0,11.034a2.322,2.322,0,0,0,2.309,2.324l10.142-.019a2.07,2.07,0,0,0,2.092-2.052l0-11.286H1101.4a2.123,2.123,0,0,0,2.135-2.057l.067-9.856A2.258,2.258,0,0,0,1101.353,654.777Z" transform="translate(-1038.124 -609.402)" fill="#e39b40"/>
        </g>
        <g id="Grupo_1012537" data-name="Grupo 1012537" transform="translate(532.702 335)">
          <path id="Trazado_731381" data-name="Trazado 731381" d="M1538.817,408.06a.33.33,0,0,1-.224-.088c-.287-.265-29.028-26.535-57.419-32.646a.331.331,0,0,1,.139-.647c28.569,6.15,57.44,32.541,57.728,32.807a.331.331,0,0,1-.224.574Z" transform="translate(-1470.459 -368.905)"/>
          <path id="Trazado_731382" data-name="Trazado 731382" d="M1517.623,362.527a.329.329,0,0,1-.2-.067c-.276-.209-27.8-20.929-50.146-23.937a.331.331,0,0,1-.284-.372.327.327,0,0,1,.372-.284c22.517,3.032,50.181,23.856,50.458,24.066a.331.331,0,0,1-.2.594Z" transform="translate(-1458.56 -337.448)"/>
          <path id="Trazado_731383" data-name="Trazado 731383" d="M1411.35,339.712a2.356,2.356,0,0,1-1.5-4.179h0a2.357,2.357,0,1,1,1.5,4.179Zm-1.078-3.667a1.7,1.7,0,1,0,2.387.236A1.685,1.685,0,0,0,1410.273,336.045Z" transform="translate(-1408.99 -335)"/>
          <path id="Trazado_731384" data-name="Trazado 731384" d="M1901.029,620.7a.329.329,0,0,1-.058-.005l-6.987-1.249a.331.331,0,0,1-.224-.5l3.369-5.547a.339.339,0,0,1,.292-.159.331.331,0,0,1,.283.175l3.618,6.8a.331.331,0,0,1-.292.486Zm-6.454-1.821,5.842,1.045-3.025-5.683Z" transform="translate(-1823.255 -572.794)"/>
        </g>
      </g>
    </g>
  </g>
</svg>
