<svg xmlns="http://www.w3.org/2000/svg" width="505" height="292.396" viewBox="0 0 505 292.396">
  <g id="Grupo_1013476" data-name="Grupo 1013476" transform="translate(-810 -1875)">
    <rect id="vista-cartagena-indias-colombia" width="505" height="292" rx="20" transform="translate(810 1875)" fill="#fff"/>
    <g id="Grupo_1012494" data-name="Grupo 1012494" transform="translate(895 1804.717)">
      <g id="Grupo_1012461" data-name="Grupo 1012461" transform="translate(25.938 145.381)">
        <g id="Grupo_1012459" data-name="Grupo 1012459" transform="translate(0 0)">
          <g id="Grupo_1012458" data-name="Grupo 1012458">
            <path id="Trazado_731276" data-name="Trazado 731276" d="M213.924,183.574a8.2,8.2,0,0,0-8.2-8.2H46.992a8.2,8.2,0,0,0-8.2,8.2v97.888H213.924Z" transform="translate(-38.789 -175.371)" fill="#393951"/>
            <path id="Trazado_731277" data-name="Trazado 731277" d="M38.789,334.023v7.429a8.2,8.2,0,0,0,8.2,8.2H205.721a8.2,8.2,0,0,0,8.2-8.2v-7.429Z" transform="translate(-38.789 -227.932)" fill="#efefef"/>
          </g>
          <path id="Trazado_731278" data-name="Trazado 731278" d="M171.909,343.582a4.3,4.3,0,1,1-4.3-4.3A4.3,4.3,0,0,1,171.909,343.582Z" transform="translate(-80.044 -229.676)" fill="#393951"/>
          <rect id="Rectángulo_349667" data-name="Rectángulo 349667" width="37.484" height="21.424" transform="translate(68.826 121.722)" fill="#dedede"/>
          <rect id="Rectángulo_349668" data-name="Rectángulo 349668" width="37.484" height="6.385" transform="translate(68.826 121.722)" fill="#dedede" style="mix-blend-mode: multiply;isolation: isolate"/>
          <path id="Rectángulo_349669" data-name="Rectángulo 349669" d="M11.961,0H93.492a11.961,11.961,0,0,1,11.961,11.961v0a0,0,0,0,1,0,0H0a0,0,0,0,1,0,0v0A11.961,11.961,0,0,1,11.961,0Z" transform="translate(36.87 143.146)" fill="#efefef"/>
        </g>
        <g id="Grupo_1012460" data-name="Grupo 1012460" transform="translate(8.439 8.566)">
          <path id="Trazado_731279" data-name="Trazado 731279" d="M212.133,188.181H58.855c27.33,26.369,85.5,74.633,153.278,84.142Z" transform="translate(-53.876 -188.181)" fill="#36daf4"/>
          <path id="Trazado_731280" data-name="Trazado 731280" d="M56.388,188.181H51.409v92.228H209.666v-8.086C141.884,262.814,83.719,214.55,56.388,188.181Z" transform="translate(-51.409 -188.181)" fill="#12c9e6"/>
        </g>
        <rect id="Rectángulo_349670" data-name="Rectángulo 349670" width="158.257" height="8.742" transform="translate(8.439 8.566)" fill="#f2f2f2"/>
        <rect id="Rectángulo_349671" data-name="Rectángulo 349671" width="107.784" height="5.44" transform="translate(25.057 10.262)" fill="#ccc"/>
        <path id="Trazado_731281" data-name="Trazado 731281" d="M272.116,193.917a1.754,1.754,0,1,1-1.754-1.755A1.754,1.754,0,0,1,272.116,193.917Z" transform="translate(-114.928 -180.934)" fill="#62cc62"/>
        <path id="Trazado_731282" data-name="Trazado 731282" d="M281.922,193.917a1.754,1.754,0,1,1-1.755-1.755A1.755,1.755,0,0,1,281.922,193.917Z" transform="translate(-118.176 -180.934)" fill="#ff2753"/>
        <path id="Trazado_731283" data-name="Trazado 731283" d="M278.351,387.349h-4.773a7.078,7.078,0,0,0-7.079,7.079H285.43A7.079,7.079,0,0,0,278.351,387.349Z" transform="translate(-114.229 -245.599)" fill="#f5f3ed"/>
        <path id="Trazado_731284" data-name="Trazado 731284" d="M58.373,193.006l-2.733,1.578,2.733,1.578" transform="translate(-44.372 -181.213)" fill="none" stroke="#393951" stroke-linecap="round" stroke-linejoin="round" stroke-width="1.333"/>
        <path id="Trazado_731285" data-name="Trazado 731285" d="M65.261,193.006l2.733,1.578-2.733,1.578" transform="translate(-47.559 -181.213)" fill="none" stroke="#393951" stroke-linecap="round" stroke-linejoin="round" stroke-width="1.333"/>
      </g>
      <g id="Grupo_1012466" data-name="Grupo 1012466" transform="translate(0 294.21)">
        <rect id="Rectángulo_349672" data-name="Rectángulo 349672" width="335" height="17.663" transform="translate(0 50.588)" fill="#d1803d"/>
        <g id="Grupo_1012465" data-name="Grupo 1012465">
          <g id="Grupo_1012462" data-name="Grupo 1012462" transform="translate(34.448 15.418)">
            <rect id="Rectángulo_349673" data-name="Rectángulo 349673" width="162.691" height="6.292" transform="translate(0 3.221)" fill="#efefef"/>
            <rect id="Rectángulo_349674" data-name="Rectángulo 349674" width="10.161" height="3.221" transform="translate(4.315)" fill="#393951"/>
            <rect id="Rectángulo_349675" data-name="Rectángulo 349675" width="10.161" height="3.221" transform="translate(113.604)" fill="#393951"/>
            <rect id="Rectángulo_349676" data-name="Rectángulo 349676" width="10.161" height="3.221" transform="translate(128.682)" fill="#393951"/>
            <rect id="Rectángulo_349677" data-name="Rectángulo 349677" width="10.161" height="3.221" transform="translate(143.76)" fill="#393951"/>
            <rect id="Rectángulo_349678" data-name="Rectángulo 349678" width="10.161" height="3.221" transform="translate(16.9)" fill="#393951"/>
            <rect id="Rectángulo_349679" data-name="Rectángulo 349679" width="10.161" height="3.221" transform="translate(29.486)" fill="#393951"/>
            <rect id="Rectángulo_349680" data-name="Rectángulo 349680" width="64.154" height="3.221" transform="translate(43.544)" fill="#393951"/>
          </g>
          <g id="Grupo_1012464" data-name="Grupo 1012464">
            <g id="Grupo_1012463" data-name="Grupo 1012463" transform="translate(15.537 11.768)">
              <rect id="Rectángulo_349681" data-name="Rectángulo 349681" width="7.038" height="18.996" transform="translate(4.753)" fill="#d1803d"/>
              <rect id="Rectángulo_349682" data-name="Rectángulo 349682" width="7.038" height="18.996" transform="translate(188.841)" fill="#d1803d"/>
              <rect id="Rectángulo_349683" data-name="Rectángulo 349683" width="198.56" height="9.782" transform="translate(0 11.825)" fill="#f7a561"/>
            </g>
            <rect id="Rectángulo_349684" data-name="Rectángulo 349684" width="335" height="11.768" fill="#f7a561"/>
          </g>
        </g>
      </g>
      <g id="Grupo_1012471" data-name="Grupo 1012471" transform="translate(72.866 107.62)">
        <g id="Grupo_1012467" data-name="Grupo 1012467" transform="translate(0 3.799)" opacity="0.2" style="mix-blend-mode: multiply;isolation: isolate">
          <rect id="Rectángulo_349685" data-name="Rectángulo 349685" width="79.653" height="107.242"/>
          <rect id="Rectángulo_349686" data-name="Rectángulo 349686" width="56.32" height="2.409" transform="translate(11.511 36.692)"/>
          <rect id="Rectángulo_349687" data-name="Rectángulo 349687" width="56.32" height="2.409" transform="translate(11.511 42.631)"/>
          <rect id="Rectángulo_349688" data-name="Rectángulo 349688" width="56.32" height="2.409" transform="translate(11.511 48.569)"/>
          <rect id="Rectángulo_349689" data-name="Rectángulo 349689" width="56.32" height="2.409" transform="translate(11.511 54.508)"/>
          <rect id="Rectángulo_349690" data-name="Rectángulo 349690" width="56.32" height="2.409" transform="translate(11.511 60.447)"/>
          <rect id="Rectángulo_349691" data-name="Rectángulo 349691" width="56.32" height="2.409" transform="translate(11.511 66.386)"/>
          <rect id="Rectángulo_349692" data-name="Rectángulo 349692" width="16.151" height="2.015" transform="translate(51.68 81.35)"/>
          <path id="Trazado_731286" data-name="Trazado 731286" d="M181.72,230.128h-63l-4.106-4.106v-88.71l4.106-4.106h63l4.106,4.106v88.71Z" transform="translate(-110.839 -127.44)" fill="none" stroke="#000" stroke-miterlimit="10" stroke-width="0.812"/>
          <text id="CERTIFICATE_" data-name="CERTIFICATE " transform="translate(33.1 22.779)" font-size="8" font-family="Oswald-Bold, Oswald" font-weight="700"><tspan x="-20.607" y="0">CERTIFICATE </tspan></text>
          <text id="ONLINE" transform="translate(37.259 12.735)" font-size="4" font-family="Oswald-Bold, Oswald" font-weight="700"><tspan x="-5.727" y="0">ONLINE</tspan></text>
          <line id="Línea_2895" data-name="Línea 2895" x2="56.32" transform="translate(11.511 28.227)" fill="none" stroke="#000" stroke-miterlimit="10" stroke-width="0.812"/>
          <path id="Trazado_731287" data-name="Trazado 731287" d="M139.874,265.046l-3.689-2.86-3.688,2.86V250.874h7.377Z" transform="translate(-116.762 -166.423)"/>
          <path id="Trazado_731288" data-name="Trazado 731288" d="M133.919,235.486l1.912,2.8,3.195-1.145-.1,3.392,3.258.952-2.076,2.685,2.076,2.685-3.258.952.1,3.392-3.195-1.145-1.912,2.8-1.912-2.8-3.195,1.145.1-3.392-3.258-.952,2.076-2.685-2.076-2.685,3.258-.952-.1-3.392,3.195,1.145Z" transform="translate(-114.496 -161.325)"/>
          <circle id="Elipse_8875" data-name="Elipse 8875" cx="5.044" cy="5.044" r="5.044" transform="translate(14.379 77.707)"/>
          <line id="Línea_2896" data-name="Línea 2896" x2="18.549" transform="translate(11.511 12.897)" fill="none" stroke="#000" stroke-miterlimit="10" stroke-width="0.812"/>
          <line id="Línea_2897" data-name="Línea 2897" x2="18.549" transform="translate(48.654 12.897)" fill="none" stroke="#000" stroke-miterlimit="10" stroke-width="0.812"/>
        </g>
        <g id="Grupo_1012470" data-name="Grupo 1012470">
          <g id="Grupo_1012469" data-name="Grupo 1012469">
            <rect id="Rectángulo_349693" data-name="Rectángulo 349693" width="79.653" height="107.242" fill="#fff"/>
            <rect id="Rectángulo_349694" data-name="Rectángulo 349694" width="56.32" height="2.409" transform="translate(11.511 36.692)" fill="#ccc"/>
            <rect id="Rectángulo_349695" data-name="Rectángulo 349695" width="56.32" height="2.409" transform="translate(11.511 42.631)" fill="#ccc"/>
            <rect id="Rectángulo_349696" data-name="Rectángulo 349696" width="56.32" height="2.409" transform="translate(11.511 48.569)" fill="#ccc"/>
            <rect id="Rectángulo_349697" data-name="Rectángulo 349697" width="56.32" height="2.409" transform="translate(11.511 54.508)" fill="#ccc"/>
            <rect id="Rectángulo_349698" data-name="Rectángulo 349698" width="56.32" height="2.409" transform="translate(11.511 60.447)" fill="#ccc"/>
            <rect id="Rectángulo_349699" data-name="Rectángulo 349699" width="56.32" height="2.409" transform="translate(11.511 66.386)" fill="#ccc"/>
            <rect id="Rectángulo_349700" data-name="Rectángulo 349700" width="16.151" height="2.015" transform="translate(51.68 81.35)" fill="#ccc"/>
            <path id="Trazado_731289" data-name="Trazado 731289" d="M181.72,224.446h-63l-4.106-4.106V131.631l4.106-4.106h63l4.106,4.106v88.709Z" transform="translate(-110.839 -121.759)" fill="none" stroke="#ff2753" stroke-miterlimit="10" stroke-width="0.812"/>
            <text id="CERTIFICATE_2" data-name="CERTIFICATE " transform="translate(33.1 22.779)" fill="#393951" font-size="8" font-family="Oswald-Bold, Oswald" font-weight="700"><tspan x="-20.607" y="0">CERTIFICATE </tspan></text>
            <text id="ONLINE-2" data-name="ONLINE" transform="translate(37.259 12.735)" fill="#ff2753" font-size="4" font-family="Oswald-Bold, Oswald" font-weight="700"><tspan x="-5.727" y="0">ONLINE</tspan></text>
            <line id="Línea_2898" data-name="Línea 2898" x2="56.32" transform="translate(11.511 28.227)" fill="none" stroke="#ccc" stroke-miterlimit="10" stroke-width="0.812"/>
            <g id="Grupo_1012468" data-name="Grupo 1012468" transform="translate(11.16 74.161)">
              <path id="Trazado_731290" data-name="Trazado 731290" d="M139.874,259.365l-3.689-2.86-3.688,2.86V245.194h7.377Z" transform="translate(-127.922 -234.903)" fill="#ff4067"/>
              <path id="Trazado_731291" data-name="Trazado 731291" d="M133.919,229.805l1.912,2.8,3.195-1.145-.1,3.392,3.258.952-2.076,2.685,2.076,2.685-3.258.952.1,3.392-3.195-1.145-1.912,2.8-1.912-2.8-3.195,1.145.1-3.392-3.258-.952,2.076-2.685-2.076-2.685,3.258-.952-.1-3.392,3.195,1.145Z" transform="translate(-125.656 -229.805)" fill="#f7a561"/>
              <circle id="Elipse_8876" data-name="Elipse 8876" cx="5.044" cy="5.044" r="5.044" transform="translate(3.219 3.546)" fill="#ff4067"/>
            </g>
            <line id="Línea_2899" data-name="Línea 2899" x2="18.549" transform="translate(11.511 12.897)" fill="none" stroke="#ff2753" stroke-miterlimit="10" stroke-width="0.812"/>
            <line id="Línea_2900" data-name="Línea 2900" x2="18.549" transform="translate(48.654 12.897)" fill="none" stroke="#ff2753" stroke-miterlimit="10" stroke-width="0.812"/>
          </g>
        </g>
      </g>
      <g id="Grupo_1012472" data-name="Grupo 1012472" transform="translate(91.006 224.165)">
        <rect id="Rectángulo_349701" data-name="Rectángulo 349701" width="46.082" height="14.645" rx="5.712" fill="#ff4067"/>
        <text id="DOWNLOAD" transform="translate(20.991 8.656)" fill="#fff" font-size="5" font-family="Oswald-Bold, Oswald" font-weight="700"><tspan x="-11.415" y="0">DOWNLOAD</tspan></text>
      </g>
      <g id="Grupo_1012474" data-name="Grupo 1012474" transform="translate(33.944 84.849)">
        <line id="Línea_2901" data-name="Línea 2901" y1="5.948" x2="10.737" transform="translate(10.394 79.179)" fill="none" stroke="#fff" stroke-linecap="round" stroke-linejoin="round" stroke-width="4"/>
        <g id="Grupo_1012473" data-name="Grupo 1012473">
          <ellipse id="Elipse_8877" data-name="Elipse 8877" cx="4.965" cy="4.804" rx="4.965" ry="4.804" transform="translate(0 27.895)" fill="none" stroke="#fff" stroke-linecap="round" stroke-linejoin="round" stroke-width="4"/>
          <ellipse id="Elipse_8878" data-name="Elipse 8878" cx="4.965" cy="4.804" rx="4.965" ry="4.804" transform="translate(148.726 27.895)" fill="none" stroke="#fff" stroke-linecap="round" stroke-linejoin="round" stroke-width="4"/>
          <line id="Línea_2902" data-name="Línea 2902" x2="6.792" y2="10.006" transform="translate(33.356 0.877)" fill="none" stroke="#fff" stroke-linecap="round" stroke-linejoin="round" stroke-width="4"/>
          <line id="Línea_2903" data-name="Línea 2903" x1="6.792" y2="10.006" transform="translate(128.014 0.877)" fill="none" stroke="#fff" stroke-linecap="round" stroke-linejoin="round" stroke-width="4"/>
          <path id="Trazado_731292" data-name="Trazado 731292" d="M175.414,84.849l-10.992,3.2,8.363,7.609Z" transform="translate(-88.417 -84.849)" fill="none" stroke="#fff" stroke-linecap="round" stroke-linejoin="round" stroke-width="4"/>
        </g>
        <line id="Línea_2904" data-name="Línea 2904" x1="10.737" y1="5.948" transform="translate(133.275 82.457)" fill="none" stroke="#fff" stroke-linecap="round" stroke-linejoin="round" stroke-width="4"/>
      </g>
      <g id="Grupo_1012482" data-name="Grupo 1012482" transform="translate(7.55 231.333)">
        <g id="Grupo_1012480" data-name="Grupo 1012480" transform="translate(0 0)">
          <g id="Grupo_1012478" data-name="Grupo 1012478">
            <g id="Grupo_1012475" data-name="Grupo 1012475" transform="translate(0 13.37)">
              <path id="Trazado_731293" data-name="Trazado 731293" d="M12.73,330.066c.607,1.977,1.309,3.9,2.083,5.772a50.191,50.191,0,0,0,5.681,10.624c1.188,1.624,2.465,3.193,3.712,4.782L27.968,356c2.55,3.142,5.188,6.23,8.086,9.161l.243-.148L11.291,323.9A40.81,40.81,0,0,0,12.73,330.066Z" transform="translate(-11.291 -323.901)" fill="#62cc62"/>
              <path id="Trazado_731294" data-name="Trazado 731294" d="M20.271,332.518c-1.31-1.55-2.691-3.056-4.167-4.5a40.8,40.8,0,0,0-4.813-4.113L36.3,365.009l.243-.148c-1.271-3.921-2.8-7.683-4.417-11.393l-2.489-5.525c-.838-1.837-1.644-3.693-2.54-5.495A50.113,50.113,0,0,0,20.271,332.518Z" transform="translate(-11.291 -323.901)" fill="#50b550"/>
            </g>
            <g id="Grupo_1012476" data-name="Grupo 1012476" transform="translate(17.88 13.37)">
              <path id="Trazado_731295" data-name="Trazado 731295" d="M61.96,330.066c-.607,1.977-1.309,3.9-2.084,5.772a50.158,50.158,0,0,1-5.68,10.624c-1.188,1.624-2.466,3.193-3.712,4.782L46.723,356c-2.55,3.142-5.188,6.23-8.086,9.161l-.243-.148L63.4,323.9A40.891,40.891,0,0,1,61.96,330.066Z" transform="translate(-38.151 -323.901)" fill="#62cc62"/>
              <path id="Trazado_731296" data-name="Trazado 731296" d="M54.3,332.518c1.31-1.55,2.692-3.056,4.168-4.5a40.741,40.741,0,0,1,4.813-4.113L38.273,365.009l-.243-.148c1.271-3.921,2.8-7.683,4.417-11.393l2.49-5.525c.838-1.837,1.644-3.693,2.54-5.495A50.138,50.138,0,0,1,54.3,332.518Z" transform="translate(-38.03 -323.901)" fill="#50b550"/>
            </g>
            <g id="Grupo_1012477" data-name="Grupo 1012477" transform="translate(16.685)">
              <path id="Trazado_731297" data-name="Trazado 731297" d="M38.553,310.785c-.582,2.292-1.036,4.585-1.395,6.877a57.379,57.379,0,0,0-.765,13.754c.2,2.292.512,4.585.785,6.878l.852,6.877c.624,4.585,1.367,9.17,2.455,13.754h.326V303.907A46.629,46.629,0,0,0,38.553,310.785Z" transform="translate(-36.242 -303.907)" fill="#89ef89"/>
              <path id="Trazado_731298" data-name="Trazado 731298" d="M46.726,317.662c-.359-2.292-.813-4.585-1.395-6.877a46.709,46.709,0,0,0-2.258-6.878v55.017H43.4c1.089-4.585,1.831-9.17,2.455-13.754l.852-6.877c.273-2.292.588-4.585.784-6.878A57.378,57.378,0,0,0,46.726,317.662Z" transform="translate(-38.505 -303.907)" fill="#73d873"/>
            </g>
          </g>
          <g id="Grupo_1012479" data-name="Grupo 1012479" transform="translate(6.93 39.704)">
            <path id="Trazado_731299" data-name="Trazado 731299" d="M43.484,388.466H32.478L27.7,369.353h20.56Z" transform="translate(-23.658 -365.294)" fill="#ff2753"/>
            <rect id="Rectángulo_349702" data-name="Rectángulo 349702" width="28.646" height="4.06" fill="#ff4067"/>
          </g>
        </g>
        <g id="Grupo_1012481" data-name="Grupo 1012481" transform="translate(204.172 2.348)">
          <rect id="Rectángulo_349703" data-name="Rectángulo 349703" width="11.157" height="60.529" fill="#ff4067"/>
          <rect id="Rectángulo_349704" data-name="Rectángulo 349704" width="12.996" height="60.529" transform="translate(13.161)" fill="#3c1a3f"/>
          <path id="Trazado_731300" data-name="Trazado 731300" d="M347.858,318.832a3.651,3.651,0,1,1-3.651-3.651A3.651,3.651,0,0,1,347.858,318.832Z" transform="translate(-324.547 -309.99)" fill="#f5f3ed"/>
          <rect id="Rectángulo_349705" data-name="Rectángulo 349705" width="11.157" height="5.529" transform="translate(0 50.007)" fill="#f7a561"/>
        </g>
      </g>
      <g id="Grupo_1012493" data-name="Grupo 1012493" transform="translate(188.487 92.794)">
        <g id="Grupo_1012491" data-name="Grupo 1012491">
          <g id="Grupo_1012489" data-name="Grupo 1012489" transform="translate(34.173)">
            <g id="Grupo_1012487" data-name="Grupo 1012487">
              <g id="Grupo_1012486" data-name="Grupo 1012486">
                <path id="Trazado_731301" data-name="Trazado 731301" d="M346.279,160.978h-4.5a8,8,0,0,1-7.069-4.192,21.365,21.365,0,0,1-1.642-10.627c.29-3.419,1.115-7.2,3.445-9.825a14.485,14.485,0,0,1,4.357-3.406c2.786-1.4,6.853-.875,9.451.638a8.15,8.15,0,0,1,4.03,6.977v12.366A8.093,8.093,0,0,1,346.279,160.978Z" transform="translate(-332.974 -108.452)" fill="#311533"/>
                <g id="Grupo_1012483" data-name="Grupo 1012483" transform="translate(26.996 61.294)">
                  <path id="Trazado_731302" data-name="Trazado 731302" d="M403.583,226.985c4.9-3.429,8.44-9.294,10.551-15.225V193.894l-6.268-5.5-34.521,8.432V232.05a25.2,25.2,0,0,0,5.961,1.371A35.64,35.64,0,0,0,403.583,226.985Z" transform="translate(-373.345 -188.392)" fill="#f48d71"/>
                  <path id="Trazado_731303" data-name="Trazado 731303" d="M403.583,238.562A35.64,35.64,0,0,1,379.306,245a25.2,25.2,0,0,1-5.961-1.371v19.24l40.789-13.187V223.337C412.023,229.268,408.485,235.133,403.583,238.562Z" transform="translate(-373.345 -199.969)" fill="#ffa688"/>
                </g>
                <path id="Trazado_731304" data-name="Trazado 731304" d="M413.357,107.435a1.4,1.4,0,0,0-1.74-.655l-4.637,1.674,2.913-4.462a1.4,1.4,0,0,0-.239-1.843,1.345,1.345,0,0,0-1.972.31l-3.138,4.807c-2.194-10.842-21.677-10.582-29.589-10.523-6.395.047-13.054.3-19.165,2.258-4.874,1.565-10.716,4.106-13.093,8.983a13.4,13.4,0,0,0,4.129,16.928l-2.5,8.328,14.676,5.8L382.066,135l3.084,25.974,6.016,8.129,5.416-2.3,5.992,14.542h1.256a7.831,7.831,0,0,0,7.831-7.831V120.754s1.313-7.55-5.126-9.279l6.066-2.191A1.346,1.346,0,0,0,413.357,107.435Z" transform="translate(-335.725 -96.73)" fill="#3c1a3f"/>
                <path id="Trazado_731305" data-name="Trazado 731305" d="M404.959,157.385a8.89,8.89,0,0,0-7.148,5.959,18.645,18.645,0,0,0-.909,5.867v10.345h-5.067v-7.13a11.465,11.465,0,0,0-1.648-5.852c-7.908-13.3-.3-26.8-.3-26.8a75.976,75.976,0,0,1-26.507,4.893,25.957,25.957,0,0,1-16.42-5.3,18.889,18.889,0,0,0-6.707,14.452v27.145a32.382,32.382,0,0,0,32.382,32.382,27.177,27.177,0,0,0,27.177-27.178v-7.883a1.126,1.126,0,0,1,1.5-1.06,10.265,10.265,0,0,0,13.528-10.166c-.135-3.287-1.81-7.113-4.783-8.74A8.166,8.166,0,0,0,404.959,157.385Z" transform="translate(-335.385 -110.854)" fill="#ffa688"/>
                <path id="Trazado_731306" data-name="Trazado 731306" d="M364.992,184.494l-5.34,11.451a3.058,3.058,0,0,0,3.326,4.3l8.371-1.546" transform="translate(-341.716 -125.806)" fill="none" stroke="#ed7464" stroke-linecap="round" stroke-miterlimit="10" stroke-width="3.016"/>
                <path id="Trazado_731307" data-name="Trazado 731307" d="M394.441,175.138c0,2.052-1.3,3.715-2.9,3.715s-2.9-1.664-2.9-3.715,1.3-3.715,2.9-3.715S394.441,173.086,394.441,175.138Z" transform="translate(-351.415 -121.476)" fill="#3c1a3f"/>
                <path id="Trazado_731308" data-name="Trazado 731308" d="M358.912,175.138c0,2.052-1.3,3.715-2.9,3.715s-2.9-1.664-2.9-3.715,1.3-3.715,2.9-3.715S358.912,173.086,358.912,175.138Z" transform="translate(-339.644 -121.476)" fill="#3c1a3f"/>
                <g id="Grupo_1012485" data-name="Grupo 1012485" transform="translate(21.321 78.025)">
                  <path id="Trazado_731309" data-name="Trazado 731309" d="M389.806,213.411l-24.947,4.216a7.625,7.625,0,0,0,1.012,2.866l23.748-4.014A7.876,7.876,0,0,0,389.806,213.411Z" transform="translate(-364.859 -213.411)" fill="#fff"/>
                  <g id="Grupo_1012484" data-name="Grupo 1012484" transform="translate(1.012 3.069)">
                    <path id="Trazado_731310" data-name="Trazado 731310" d="M389.357,219.943A9.158,9.158,0,0,0,390.12,218l-23.748,4.014a10.5,10.5,0,0,0,6.849,4.573C374.733,224.112,378.876,219.832,389.357,219.943Z" transform="translate(-366.372 -218)" fill="#632921"/>
                    <path id="Trazado_731311" data-name="Trazado 731311" d="M376.615,227.548a15.408,15.408,0,0,0,5.957.13c4.668-.789,8.45-3.468,10.179-6.774C382.27,220.793,378.127,225.073,376.615,227.548Z" transform="translate(-369.766 -218.961)" fill="#ff4067"/>
                  </g>
                </g>
                <path id="Trazado_731312" data-name="Trazado 731312" d="M388.635,161.971s8.572-1.708,10.793,6.27" transform="translate(-351.415 -118.294)" fill="none" stroke="#3c1a3f" stroke-linecap="round" stroke-linejoin="round" stroke-width="5.356"/>
                <path id="Trazado_731313" data-name="Trazado 731313" d="M355.436,161.8a8.832,8.832,0,0,0-9.6,6.93" transform="translate(-337.235 -118.271)" fill="none" stroke="#3c1a3f" stroke-linecap="round" stroke-linejoin="round" stroke-width="5.601"/>
                <ellipse id="Elipse_8879" data-name="Elipse 8879" cx="5.808" cy="7.392" rx="5.808" ry="7.392" transform="translate(39.947 58.386)" fill="#fc846d"/>
                <path id="Trazado_731314" data-name="Trazado 731314" d="M344.01,201.95c2.966,0,5.371-3.061,5.371-6.836s-2.4-6.836-5.371-6.836a4.842,4.842,0,0,0-3.759,1.957v6.929c0,1.01.053,2.008.144,2.994A4.784,4.784,0,0,0,344.01,201.95Z" transform="translate(-335.385 -127.06)" fill="#fc846d"/>
                <path id="Trazado_731315" data-name="Trazado 731315" d="M442.626,177.091a8.842,8.842,0,0,0-.769-2.738,6.357,6.357,0,0,0-1.849-2.268,5.3,5.3,0,0,0-2.713-1.01,5.985,5.985,0,0,0-2.725.4.365.365,0,0,0,.159.7l.039,0a5.588,5.588,0,0,1,4.163,1.245,5.3,5.3,0,0,1,1.174,1.735c.116.324.233.655.328.988a6.482,6.482,0,0,1-3.953,1.228h-.006a.425.425,0,0,0-.118.836,7.836,7.836,0,0,0,4.313-.136,5.878,5.878,0,0,1-1.092,3.3,4.943,4.943,0,0,1-3.725,2.139h-.009a.382.382,0,0,0-.086.749,4.6,4.6,0,0,0,2.8-.168,6.04,6.04,0,0,0,2.351-1.623,6.882,6.882,0,0,0,1.433-2.5A7.441,7.441,0,0,0,442.626,177.091Z" transform="translate(-366.557 -121.355)" fill="#ed7464"/>
              </g>
              <path id="Trazado_731316" data-name="Trazado 731316" d="M357.447,288.176l10.631-20.965L409.7,252.895l8.424,12.028Z" transform="translate(-341.082 -148.467)" fill="#f5f3ed"/>
            </g>
            <g id="Grupo_1012488" data-name="Grupo 1012488" transform="translate(2.936 116.455)">
              <path id="Trazado_731317" data-name="Trazado 731317" d="M416.716,270.881l-60.677,23.254a104.593,104.593,0,0,0-2.841,10.9c10.189-2.608,34.883-10.005,70.046-27.569A47.967,47.967,0,0,0,416.716,270.881Z" transform="translate(-342.61 -270.881)" fill="#bc0f49"/>
              <path id="Trazado_731318" data-name="Trazado 731318" d="M437.268,333.411c-1.228-26.923-12.038-44.094-19.27-52.678-35.163,17.564-59.857,24.961-70.046,27.569-8.3,39.116-10.588,119.273-10.588,119.273h99.9S439.131,374.269,437.268,333.411Z" transform="translate(-337.365 -274.145)" fill="#ff2753"/>
            </g>
          </g>
          <g id="Grupo_1012490" data-name="Grupo 1012490" transform="translate(0 127.321)">
            <path id="Trazado_731319" data-name="Trazado 731319" d="M384.3,290.353a20.556,20.556,0,0,0-28.382,6.293c-4.371,6.862-6.834,14.332-9.146,21.85l-3.51,11.264-3.408,11.3c-1.151,3.761-2.229,7.544-3.327,11.321l-1.638,5.669-1.587,5.685c-1.748,6.266-3.44,12.551-5.023,18.87l-46.407,46.871h46.352l24.383-17.154a13.918,13.918,0,0,1,15.246-20.607q2.891-7.57,5.611-15.2l1.991-5.556,1.941-5.572c1.288-3.717,2.595-7.428,3.83-11.162l3.749-11.187,3.646-11.22c2.459-7.471,4.767-14.99,5.167-23.116A20.6,20.6,0,0,0,384.3,290.353Z" transform="translate(-281.871 -287.131)" fill="#ff4067"/>
            <path id="Trazado_731320" data-name="Trazado 731320" d="M384.84,455.334a13.9,13.9,0,0,0,1.852,8.6l6.448-4.536h0a14.062,14.062,0,0,0,4.972-6.3l1.135-2.851q1.374-3.453,2.692-6.922a13.918,13.918,0,0,0-17.1,12Z" transform="translate(-315.957 -338.752)" fill="#f7a561"/>
          </g>
        </g>
        <g id="Grupo_1012492" data-name="Grupo 1012492" transform="translate(84.34 136.543)">
          <path id="Trazado_731321" data-name="Trazado 731321" d="M439.15,300.922h-7.306c-26.656,0-28.182,26.01-18.114,35.729v97.395H439.15Z" transform="translate(-407.997 -300.922)" fill="#3c1a3f"/>
          <rect id="Rectángulo_349706" data-name="Rectángulo 349706" width="30.369" height="133.124" transform="translate(31.154)" fill="#2c132e"/>
        </g>
      </g>
    </g>
  </g>
</svg>
