<svg xmlns="http://www.w3.org/2000/svg" width="124" height="124" viewBox="0 0 124 124">
  <g id="Grupo_1013478" data-name="Grupo 1013478" transform="translate(-1087 -3576)">
    <circle id="Elipse_8642" data-name="Elipse 8642" cx="62" cy="62" r="62" transform="translate(1087 3576)" fill="#3076b6"/>
    <g id="Grupo_1007775" data-name="Grupo 1007775" transform="translate(1099.5 3588.5)">
      <g id="Grupo_1007770" data-name="Grupo 1007770" transform="translate(7.5 7.5)">
        <path id="Trazado_721808" data-name="Trazado 721808" d="M229.217,359.2H195.731s7.728-2.576,7.728-12.88h18.03C221.489,356.624,229.217,359.2,229.217,359.2Z" transform="translate(-163.535 -288.366)" fill="#68647d"/>
        <path id="Trazado_721809" data-name="Trazado 721809" d="M205.39,356.619s-1.777,1.137-4.069,2.581h-5.59s7.728-2.576,7.728-12.88h3.534l.59,1.288S207.952,353.087,205.39,356.619Z" transform="translate(-163.535 -288.366)" fill="#4f4d5e"/>
        <path id="Trazado_721810" data-name="Trazado 721810" d="M154.913,15.2V59.045a7.7,7.7,0,0,1-7.7,7.7H113.961l-3.452-.667-.713.667H90.488a7.7,7.7,0,0,1-7.7-7.7V15.2a7.7,7.7,0,0,1,7.7-7.7h56.728A7.7,7.7,0,0,1,154.913,15.2Z" transform="translate(-69.913 -7.5)" fill="#827f97"/>
        <path id="Trazado_721811" data-name="Trazado 721811" d="M113.961,66.742H90.488a7.7,7.7,0,0,1-7.7-7.7V15.2a7.7,7.7,0,0,1,7.7-7.7h22.369c-1.411,1.3-3.01,3.826-3.01,8.607V58.5C109.847,58.573,109.861,64.334,113.961,66.742Z" transform="translate(-69.913 -7.5)" fill="#68647d"/>
        <path id="Trazado_721812" data-name="Trazado 721812" d="M228.959,40.186V83.992a2.564,2.564,0,0,1-2.566,2.566H189.521l-11.19-2.744V41.949l11.041-4.329h37.021A2.564,2.564,0,0,1,228.959,40.186Z" transform="translate(-149.111 -32.468)" fill="#f3f5fc"/>
        <path id="Trazado_721813" data-name="Trazado 721813" d="M135.291,86.558H115.477a2.566,2.566,0,0,1-2.566-2.566V40.186a2.566,2.566,0,0,1,2.566-2.566h19.665a17.1,17.1,0,0,0-.327,3.455v42.39A12.63,12.63,0,0,0,135.291,86.558Z" transform="translate(-94.881 -32.468)" fill="#e8ecf9"/>
        <path id="Trazado_721814" data-name="Trazado 721814" d="M214.363,402.894a3.866,3.866,0,0,1-3.864,3.864H177.013a3.864,3.864,0,0,1,0-7.728H182l2.477.951,2.969-.951H210.5A3.864,3.864,0,0,1,214.363,402.894Z" transform="translate(-144.817 -332.06)" fill="#827f97"/>
        <path id="Trazado_721815" data-name="Trazado 721815" d="M187.444,406.758h-10.43a3.864,3.864,0,0,1,0-7.728h10.43A5.62,5.62,0,0,0,187.444,406.758Z" transform="translate(-144.817 -332.06)" fill="#68647d"/>
        <path id="Trazado_721816" data-name="Trazado 721816" d="M263.5,167.4v9.306a1.786,1.786,0,0,0,2.8,1.466l6.731-4.653a1.782,1.782,0,0,0,0-2.933l-6.731-4.653A1.786,1.786,0,0,0,263.5,167.4Z" transform="translate(-219.712 -138.572)" fill="#a5d3d4" stroke="#707070" stroke-width="3"/>
        <circle id="Elipse_8650" data-name="Elipse 8650" cx="3.864" cy="3.864" r="3.864" transform="translate(59.242 41.212)" fill="#3276b6" stroke="#707070" stroke-width="3"/>
        <path id="Trazado_721817" data-name="Trazado 721817" d="M40.985,214.175v41.212l-16.143,1.2-9-.621L7.5,255.387V214.175l8.345-.426,8.4-.429Z" transform="translate(-7.501 -178.115)" fill="#f3f5fc" stroke="#707070" stroke-width="3"/>
        <path id="Trazado_721818" data-name="Trazado 721818" d="M15.846,215.83v42.214L7.5,257.468V216.256Z" transform="translate(-7.501 -180.196)" fill="#e8ecf9"/>
        <path id="Trazado_721819" data-name="Trazado 721819" d="M40.985,178.281v2.595H15.846L11.1,179.713l-3.6,1.163v-2.595a5.131,5.131,0,0,1,5.131-5.131H35.854A5.131,5.131,0,0,1,40.985,178.281Z" transform="translate(-7.501 -144.816)" fill="#827f97"/>
        <path id="Trazado_721820" data-name="Trazado 721820" d="M15.846,180.876H7.5v-2.595a5.131,5.131,0,0,1,5.131-5.131h5.855a6.6,6.6,0,0,0-2.641,5.52Z" transform="translate(-7.501 -144.816)" fill="#68647d"/>
        <path id="Trazado_721821" data-name="Trazado 721821" d="M40.985,459.26v2.6a5.131,5.131,0,0,1-5.131,5.131H12.632A5.131,5.131,0,0,1,7.5,461.857v-2.6l3.628,1.893,4.717-1.893Z" transform="translate(-7.501 -381.988)" fill="#827f97"/>
        <path id="Trazado_721822" data-name="Trazado 721822" d="M18.173,466.988h-5.54A5.131,5.131,0,0,1,7.5,461.857v-2.6h8.345v2.723A6.9,6.9,0,0,0,18.173,466.988Z" transform="translate(-7.501 -381.988)" fill="#68647d"/>
        <path id="Trazado_721823" data-name="Trazado 721823" d="M75.265,265.286v9.306a1.786,1.786,0,0,0,2.8,1.466L84.8,271.4a1.782,1.782,0,0,0,0-2.933l-6.731-4.653A1.786,1.786,0,0,0,75.265,265.286Z" transform="translate(-63.674 -219.712)" fill="#a5d3d4" stroke="#707070" stroke-width="3"/>
        <circle id="Elipse_8651" data-name="Elipse 8651" cx="2.576" cy="2.576" r="2.576" transform="translate(19.142 69.356) rotate(-85.935)" fill="#3276b6" stroke="#707070" stroke-width="3"/>
        <g id="Grupo_1007769" data-name="Grupo 1007769" transform="translate(30.017 14.224)">
          <g id="Grupo_1007768" data-name="Grupo 1007768">
            <ellipse id="Elipse_8652" data-name="Elipse 8652" cx="5.1" cy="4.061" rx="5.1" ry="4.061" fill="#ffa1ac"/>
            <ellipse id="Elipse_8653" data-name="Elipse 8653" cx="5.1" cy="4.061" rx="5.1" ry="4.061" transform="translate(27.644)" fill="#ffa1ac"/>
          </g>
        </g>
      </g>
      <g id="Grupo_1007774" data-name="Grupo 1007774" transform="translate(7.5 7.5)">
        <path id="Trazado_721824" data-name="Trazado 721824" d="M346.631,354.85a14.075,14.075,0,0,0,2.562,7.386" transform="translate(-288.624 -295.437)" fill="none" stroke="#000" stroke-linecap="round" stroke-linejoin="round" stroke-width="3"/>
        <path id="Trazado_721825" data-name="Trazado 721825" d="M225.611,362.236a14.075,14.075,0,0,0,2.564-7.386" transform="translate(-188.304 -295.437)" fill="none" stroke="#000" stroke-linecap="round" stroke-linejoin="round" stroke-width="3"/>
        <path id="Trazado_721826" data-name="Trazado 721826" d="M103.568,66.742h43.648a7.7,7.7,0,0,0,7.7-7.7V15.2a7.7,7.7,0,0,0-7.7-7.7H90.488a7.7,7.7,0,0,0-7.7,7.7V35.663" transform="translate(-69.913 -7.5)" fill="none" stroke="#000" stroke-linecap="round" stroke-linejoin="round" stroke-width="3"/>
        <path id="Trazado_721827" data-name="Trazado 721827" d="M112.911,60.631V40.186a2.566,2.566,0,0,1,2.566-2.566h56.687a2.564,2.564,0,0,1,2.566,2.566V50.274" transform="translate(-94.881 -32.468)" fill="none" stroke="#000" stroke-linecap="round" stroke-linejoin="round" stroke-width="3"/>
        <path id="Trazado_721828" data-name="Trazado 721828" d="M250.454,146.6v27.732a2.564,2.564,0,0,1-2.566,2.566H204.261" transform="translate(-170.606 -122.807)" fill="none" stroke="#000" stroke-linecap="round" stroke-linejoin="round" stroke-width="3"/>
        <path id="Trazado_721829" data-name="Trazado 721829" d="M204.261,399.03h32.027a3.864,3.864,0,0,1,0,7.728h-6.26" transform="translate(-170.606 -332.06)" fill="none" stroke="#000" stroke-linecap="round" stroke-linejoin="round" stroke-width="3"/>
        <line id="Línea_2690" data-name="Línea 2690" x1="19.78" transform="translate(33.655 74.698)" fill="none" stroke="#000" stroke-linecap="round" stroke-linejoin="round" stroke-width="3"/>
        <path id="Trazado_721830" data-name="Trazado 721830" d="M263.5,167.4v9.306a1.786,1.786,0,0,0,2.8,1.466l6.731-4.653a1.782,1.782,0,0,0,0-2.933l-6.731-4.653A1.786,1.786,0,0,0,263.5,167.4Z" transform="translate(-219.712 -138.572)" fill="none" stroke="#000" stroke-linecap="round" stroke-linejoin="round" stroke-width="3"/>
        <line id="Línea_2691" data-name="Línea 2691" x1="25.087" transform="translate(33.655 45.076)" fill="none" stroke="#000" stroke-linecap="round" stroke-linejoin="round" stroke-width="3"/>
        <line id="Línea_2692" data-name="Línea 2692" x1="7.44" transform="translate(67.258 45.076)" fill="none" stroke="#000" stroke-linecap="round" stroke-linejoin="round" stroke-width="3"/>
        <circle id="Elipse_8654" data-name="Elipse 8654" cx="3.864" cy="3.864" r="3.864" transform="translate(59.242 41.212)" fill="none" stroke="#000" stroke-linecap="round" stroke-linejoin="round" stroke-width="3"/>
        <path id="Trazado_721831" data-name="Trazado 721831" d="M35.854,229.813H12.631A5.131,5.131,0,0,1,7.5,224.681v-46.4a5.131,5.131,0,0,1,5.131-5.131H35.854a5.131,5.131,0,0,1,5.131,5.131v46.4A5.132,5.132,0,0,1,35.854,229.813Z" transform="translate(-7.5 -144.813)" fill="none" stroke="#000" stroke-linecap="round" stroke-linejoin="round" stroke-width="3"/>
        <path id="Trazado_721832" data-name="Trazado 721832" d="M75.265,265.286v9.306a1.786,1.786,0,0,0,2.8,1.466L84.8,271.4a1.782,1.782,0,0,0,0-2.933l-6.731-4.653A1.786,1.786,0,0,0,75.265,265.286Z" transform="translate(-63.674 -219.712)" fill="none" stroke="#000" stroke-linecap="round" stroke-linejoin="round" stroke-width="3"/>
        <line id="Línea_2693" data-name="Línea 2693" x1="6.272" transform="translate(26.907 36.06)" fill="none" stroke="#000" stroke-linecap="round" stroke-linejoin="round" stroke-width="3"/>
        <line id="Línea_2694" data-name="Línea 2694" x1="20.699" transform="translate(0.222 36.06)" fill="none" stroke="#000" stroke-linecap="round" stroke-linejoin="round" stroke-width="3"/>
        <line id="Línea_2695" data-name="Línea 2695" x2="32.758" transform="translate(0.363 77.273)" fill="none" stroke="#000" stroke-linecap="round" stroke-linejoin="round" stroke-width="3"/>
        <line id="Línea_2696" data-name="Línea 2696" x1="3.656" transform="translate(24.678 66.97)" fill="none" stroke="#000" stroke-linecap="round" stroke-linejoin="round" stroke-width="3"/>
        <line id="Línea_2697" data-name="Línea 2697" x1="13.907" transform="translate(5.152 66.97)" fill="none" stroke="#000" stroke-linecap="round" stroke-linejoin="round" stroke-width="3"/>
        <circle id="Elipse_8655" data-name="Elipse 8655" cx="2.576" cy="2.576" r="2.576" transform="translate(19.142 69.356) rotate(-85.935)" fill="none" stroke="#000" stroke-linecap="round" stroke-linejoin="round" stroke-width="3"/>
        <g id="Grupo_1007773" data-name="Grupo 1007773" transform="translate(36.062 10.303)">
          <g id="Grupo_1007772" data-name="Grupo 1007772" transform="translate(7.932 4.375)">
            <g id="Grupo_1007771" data-name="Grupo 1007771">
              <path id="Trazado_721833" data-name="Trazado 721833" d="M269.651,93.315a2.473,2.473,0,1,1-4.945,0" transform="translate(-264.706 -93.315)" fill="none" stroke="#000" stroke-linecap="round" stroke-miterlimit="10" stroke-width="3"/>
              <path id="Trazado_721834" data-name="Trazado 721834" d="M298.562,93.315a2.473,2.473,0,1,1-4.945,0" transform="translate(-288.672 -93.315)" fill="none" stroke="#000" stroke-linecap="round" stroke-miterlimit="10" stroke-width="3"/>
            </g>
          </g>
          <path id="Trazado_721835" data-name="Trazado 721835" d="M223.039,70.089a2.354,2.354,0,1,0-4.709,0" transform="translate(-218.33 -67.735)" fill="none" stroke="#000" stroke-linecap="round" stroke-linejoin="round" stroke-width="3"/>
          <path id="Trazado_721836" data-name="Trazado 721836" d="M341.375,70.089a2.354,2.354,0,1,1,4.709,0" transform="translate(-320.329 -67.735)" fill="none" stroke="#000" stroke-linecap="round" stroke-linejoin="round" stroke-width="3"/>
        </g>
      </g>
    </g>
  </g>
</svg>
