<svg xmlns="http://www.w3.org/2000/svg" width="105" height="105" viewBox="0 0 105 105">
  <g id="Grupo_1007830" data-name="Grupo 1007830" transform="translate(-1020 -5092)">
    <rect id="Rectángulo_347988" data-name="Rectángulo 347988" width="105" height="105" transform="translate(1020 5092)" fill="#fff"/>
    <circle id="Elipse_8662" data-name="Elipse 8662" cx="11.5" cy="11.5" r="11.5" transform="translate(1043 5111)" fill="#ffa031"/>
    <circle id="Elipse_8663" data-name="Elipse 8663" cx="5.5" cy="5.5" r="5.5" transform="translate(1063 5099)" fill="#008b8a"/>
    <g id="Grupo_1007818" data-name="Grupo 1007818" transform="translate(1031 5095.154)">
      <g id="Grupo_1007816" data-name="Grupo 1007816" transform="translate(1.216 10.656)">
        <path id="Trazado_721881" data-name="Trazado 721881" d="M88.068,19.973V74.719a3.034,3.034,0,0,1-3.033,3.033H60.087a5.147,5.147,0,0,0-3.179,1.107l-2.479,1.966L38.661,93.339a5.135,5.135,0,0,1-3.179,1.109H10.533A3.034,3.034,0,0,1,7.5,91.415V36.669a3.034,3.034,0,0,1,3.033-3.033H35.482a5.147,5.147,0,0,0,3.179-1.107l3.45-2.738,12.319-9.775,2.479-1.966a5.135,5.135,0,0,1,3.179-1.109H85.035a3.034,3.034,0,0,1,3.033,3.033Z" transform="translate(-7.5 -16.94)" fill="#51aee6"/>
        <path id="Trazado_721882" data-name="Trazado 721882" d="M188.249,35.91V96.72L172.48,109.234a5.135,5.135,0,0,1-3.179,1.109H167.21V49.53H169.3a5.147,5.147,0,0,0,3.179-1.107l3.45-2.738Z" transform="translate(-141.32 -32.835)" fill="#08a9f1"/>
        <g id="Grupo_1007813" data-name="Grupo 1007813" transform="translate(24.107 0)">
          <path id="Trazado_721883" data-name="Trazado 721883" d="M179.032,392.393a5.1,5.1,0,0,0-1.4.785l-18.247,14.48a5.135,5.135,0,0,1-3.179,1.109h3.874a5.135,5.135,0,0,0,3.179-1.109l18.247-14.48a5.147,5.147,0,0,1,3.179-1.107h-3.874A5.078,5.078,0,0,0,179.032,392.393Z" transform="translate(-156.21 -331.258)" fill="#08a9f1"/>
          <path id="Trazado_721884" data-name="Trazado 721884" d="M465.765,16.94h-3.874a3.034,3.034,0,0,1,3.033,3.033V74.719a3.034,3.034,0,0,1-3.033,3.033h3.874a3.034,3.034,0,0,0,3.033-3.033V19.973A3.034,3.034,0,0,0,465.765,16.94Z" transform="translate(-412.337 -16.94)" fill="#08a9f1"/>
        </g>
        <path id="Trazado_721885" data-name="Trazado 721885" d="M168.607,478.054a5.061,5.061,0,0,1-1.4.786v.323H169.3a5.078,5.078,0,0,0,1.783-.323v-2.753Z" transform="translate(-141.32 -401.655)" fill="#3d8dc2"/>
        <path id="Trazado_721886" data-name="Trazado 721886" d="M212.148,18.93V79.742a5.1,5.1,0,0,0-1.4.785l-18.247,14.48a5.059,5.059,0,0,1-1.4.786V34.98a5.1,5.1,0,0,0,1.4-.785l18.247-14.48A5.059,5.059,0,0,1,212.148,18.93Z" transform="translate(-161.345 -18.607)" fill="#3d8dc2"/>
        <path id="Trazado_721887" data-name="Trazado 721887" d="M210.752,19.716l-2.479,1.967V79.742a5.1,5.1,0,0,0-1.4.785L191.109,93.039v2.753a5.059,5.059,0,0,0,1.4-.786l18.247-14.48a5.1,5.1,0,0,1,1.4-.785V18.93a5.06,5.06,0,0,0-1.4.786Z" transform="translate(-161.344 -18.607)" fill="#2e6a90"/>
        <path id="Trazado_721888" data-name="Trazado 721888" d="M37.265,117.94v35.954A27.375,27.375,0,0,1,7.5,153.837V121.3a3.034,3.034,0,0,1,3.033-3.033H35.482a5.077,5.077,0,0,0,1.783-.323Z" transform="translate(-7.5 -101.567)" fill="#fbefe2"/>
        <path id="Trazado_721889" data-name="Trazado 721889" d="M102.624,118.263h-2.091v35.632a27.2,27.2,0,0,1-12.9,4.3q.96.067,1.937.068a27.226,27.226,0,0,0,14.838-4.37V117.94a5.075,5.075,0,0,1-1.783.323Z" transform="translate(-74.643 -101.567)" fill="#f4d9b9"/>
        <path id="Trazado_721890" data-name="Trazado 721890" d="M68.716,216.229l1.106.393a2.139,2.139,0,0,0,2.855-2.075l-.032-1.174a2.14,2.14,0,0,1,.443-1.363l.716-.931a2.139,2.139,0,0,0-1.091-3.357l-1.126-.332a2.139,2.139,0,0,1-1.16-.843l-.664-.968a2.14,2.14,0,0,0-3.53,0l-.664.968a2.139,2.139,0,0,1-1.16.843l-1.126.332a2.139,2.139,0,0,0-1.091,3.357l.716.931a2.14,2.14,0,0,1,.443,1.363l-.032,1.174a2.139,2.139,0,0,0,2.855,2.075l1.106-.393A2.14,2.14,0,0,1,68.716,216.229Z" transform="translate(-52.954 -174.221)" fill="#e39b40"/>
        <g id="Grupo_1007815" data-name="Grupo 1007815" transform="translate(13.107 30.43)">
          <g id="Grupo_1007814" data-name="Grupo 1007814">
            <path id="Trazado_721891" data-name="Trazado 721891" d="M95.007,207.724l-1.126-.332a2.139,2.139,0,0,1-1.16-.843l-.664-.968a2.139,2.139,0,0,0-3.529,0l-.172.252.491.717a2.139,2.139,0,0,0,1.16.843l1.126.332a2.139,2.139,0,0,1,1.091,3.357l-.716.931a2.14,2.14,0,0,0-.443,1.363l.032,1.174a2.118,2.118,0,0,1-.62,1.566,2.147,2.147,0,0,1,.533.116l1.106.393a2.139,2.139,0,0,0,2.855-2.075l-.032-1.174a2.14,2.14,0,0,1,.443-1.363l.716-.931a2.14,2.14,0,0,0-1.091-3.357Z" transform="translate(-88.356 -204.651)" fill="#f4d9b9"/>
          </g>
        </g>
        <path id="Trazado_721892" data-name="Trazado 721892" d="M377.6,74.554H365.055a1.739,1.739,0,0,1-1.739-1.739V67.574a1.739,1.739,0,0,1,1.739-1.739H377.6a1.739,1.739,0,0,1,1.739,1.739v5.242A1.739,1.739,0,0,1,377.6,74.554Z" transform="translate(-305.635 -57.909)" fill="#e39b40"/>
        <path id="Trazado_721893" data-name="Trazado 721893" d="M431.4,65.834h-3.874a1.739,1.739,0,0,1,1.739,1.739v5.242a1.739,1.739,0,0,1-1.739,1.739H431.4a1.739,1.739,0,0,0,1.739-1.739V67.573A1.739,1.739,0,0,0,431.4,65.834Z" transform="translate(-359.436 -57.908)" fill="#f4d9b9"/>
        <path id="Trazado_721894" data-name="Trazado 721894" d="M377.6,164.95H365.055a1.739,1.739,0,0,1-1.739-1.739V157.97a1.739,1.739,0,0,1,1.739-1.739H377.6a1.739,1.739,0,0,1,1.739,1.739v5.242A1.739,1.739,0,0,1,377.6,164.95Z" transform="translate(-305.635 -133.651)" fill="#e39b40"/>
        <path id="Trazado_721895" data-name="Trazado 721895" d="M431.4,156.23h-3.874a1.739,1.739,0,0,1,1.739,1.739v5.242a1.739,1.739,0,0,1-1.739,1.739H431.4a1.739,1.739,0,0,0,1.739-1.739v-5.242A1.739,1.739,0,0,0,431.4,156.23Z" transform="translate(-359.436 -133.65)" fill="#f4d9b9"/>
      </g>
      <g id="Grupo_1007817" data-name="Grupo 1007817" transform="translate(0 9.44)">
        <path id="Trazado_721896" data-name="Trazado 721896" d="M78.75,9.44H53.8a6.516,6.516,0,0,0-3.935,1.372L31.623,25.29a4.053,4.053,0,0,1-2.425.845H4.25A4.255,4.255,0,0,0,0,30.385V85.13a4.255,4.255,0,0,0,4.25,4.25H29.2a6.35,6.35,0,0,0,3.935-1.372L51.377,73.529a3.879,3.879,0,0,1,1.063-.6,1.23,1.23,0,0,0,.795-1.141V11.917a3.887,3.887,0,0,1,.567-.045H78.75a1.82,1.82,0,0,1,1.818,1.818V68.434a1.82,1.82,0,0,1-1.818,1.818H57.832a1.216,1.216,0,0,0,0,2.432H78.75A4.254,4.254,0,0,0,83,68.434V13.69a4.255,4.255,0,0,0-4.25-4.25ZM4.25,86.948A1.82,1.82,0,0,1,2.432,85.13V65.069a28.489,28.489,0,0,0,3.507,1.624,1.273,1.273,0,0,0,1.57-.7,1.216,1.216,0,0,0-.7-1.57,26.077,26.077,0,0,1-4.376-2.164V30.385A1.82,1.82,0,0,1,4.25,28.567H29.2q.285,0,.567-.025V62.307a26.041,26.041,0,0,1-13.622,3.83,26.464,26.464,0,0,1-3.65-.253,1.216,1.216,0,1,0-.336,2.408,28.913,28.913,0,0,0,3.987.276,28.481,28.481,0,0,0,13.622-3.452V86.9a3.887,3.887,0,0,1-.567.045Zm27.947-1.3V27.811a5.512,5.512,0,0,0,.936-.615L50.8,13.174V71.008a5.512,5.512,0,0,0-.936.615Z" transform="translate(0 -9.44)"/>
        <path id="Trazado_721897" data-name="Trazado 721897" d="M55.792,206.661c.258.168.17,1.375.159,1.762a3.406,3.406,0,0,0,4.478,3.254,2.923,2.923,0,0,1,2.831,0,3.349,3.349,0,0,0,1.124.194,3.435,3.435,0,0,0,3.354-3.448,2.923,2.923,0,0,1,.875-2.693,3.406,3.406,0,0,0-1.711-5.264,2.922,2.922,0,0,1-2.29-1.664,3.406,3.406,0,0,0-5.535,0,2.923,2.923,0,0,1-2.291,1.664,3.4,3.4,0,0,0-1.71,5.264Zm1.065-3.262a.916.916,0,0,1,.617-.6,4.956,4.956,0,0,0,3.609-2.622c.459-.45.822-.63,1.524,0a4.954,4.954,0,0,0,3.609,2.622c.57.3.853.587.471,1.449a4.973,4.973,0,0,0-1.379,4.242c-.106.634-.295.993-1.233.9a4.973,4.973,0,0,0-4.461,0c-.636.095-1.035.027-1.233-.9A4.974,4.974,0,0,0,57,204.248.916.916,0,0,1,56.857,203.4Z" transform="translate(-45.584 -166.914)"/>
        <path id="Trazado_721898" data-name="Trazado 721898" d="M70.038,409.932h7.451a1.216,1.216,0,1,0,0-2.432H70.038a1.216,1.216,0,1,0,0,2.432Z" transform="translate(-57.665 -342.971)"/>
        <path id="Trazado_721899" data-name="Trazado 721899" d="M57.506,438.8H40.467a1.216,1.216,0,1,0,0,2.432H57.506a1.216,1.216,0,1,0,0-2.432Z" transform="translate(-32.888 -369.194)"/>
        <path id="Trazado_721900" data-name="Trazado 721900" d="M232.409,116.118l-9.1,7.221a1.216,1.216,0,1,0,1.512,1.9l9.1-7.221a1.216,1.216,0,1,0-1.512-1.9Z" transform="translate(-186.723 -98.604)"/>
        <path id="Trazado_721901" data-name="Trazado 721901" d="M232.409,157.615l-9.1,7.221a1.216,1.216,0,1,0,1.512,1.9l9.1-7.221a1.216,1.216,0,1,0-1.512-1.9Z" transform="translate(-186.723 -133.374)"/>
        <path id="Trazado_721902" data-name="Trazado 721902" d="M232.409,199.111l-9.1,7.221a1.216,1.216,0,1,0,1.512,1.9l9.1-7.221a1.216,1.216,0,1,0-1.512-1.9Z" transform="translate(-186.723 -168.143)"/>
        <path id="Trazado_721903" data-name="Trazado 721903" d="M232.409,286.029l-9.1,7.221a1.216,1.216,0,1,0,1.512,1.9l9.1-7.221a1.216,1.216,0,1,0-1.512-1.9Z" transform="translate(-186.723 -240.971)"/>
        <path id="Trazado_721904" data-name="Trazado 721904" d="M232.409,327.525l-9.1,7.221a1.216,1.216,0,1,0,1.512,1.9l9.1-7.221a1.216,1.216,0,1,0-1.512-1.9Z" transform="translate(-186.723 -275.74)"/>
        <path id="Trazado_721905" data-name="Trazado 721905" d="M358.77,69.485h12.545a2.958,2.958,0,0,0,2.955-2.955V61.289a2.958,2.958,0,0,0-2.955-2.955H358.77a2.958,2.958,0,0,0-2.955,2.955v5.242A2.958,2.958,0,0,0,358.77,69.485Zm-.523-8.2a.524.524,0,0,1,.523-.523h12.545a.524.524,0,0,1,.523.523v5.242a.524.524,0,0,1-.523.523H358.77a.524.524,0,0,1-.523-.523Z" transform="translate(-298.134 -50.408)"/>
        <path id="Trazado_721906" data-name="Trazado 721906" d="M355.815,156.927a2.958,2.958,0,0,0,2.955,2.955h12.545a2.958,2.958,0,0,0,2.955-2.955v-5.242a2.958,2.958,0,0,0-2.955-2.955H358.77a2.958,2.958,0,0,0-2.955,2.955Zm2.432-5.242a.524.524,0,0,1,.523-.523h12.545a.524.524,0,0,1,.523.523v5.242a.524.524,0,0,1-.523.523H358.77a.524.524,0,0,1-.523-.523Z" transform="translate(-298.134 -126.15)"/>
        <path id="Trazado_721907" data-name="Trazado 721907" d="M364.5,263.958a1.19,1.19,0,1,0,1.19,1.19A1.19,1.19,0,0,0,364.5,263.958Z" transform="translate(-304.418 -222.698)"/>
        <path id="Trazado_721908" data-name="Trazado 721908" d="M409.181,263.8h-9.032a1.216,1.216,0,1,0,0,2.432h9.032a1.216,1.216,0,1,0,0-2.432Z" transform="translate(-334.262 -222.563)"/>
        <path id="Trazado_721909" data-name="Trazado 721909" d="M364.5,304.2a1.19,1.19,0,1,0,1.19,1.19A1.19,1.19,0,0,0,364.5,304.2Z" transform="translate(-304.418 -256.418)"/>
        <path id="Trazado_721910" data-name="Trazado 721910" d="M409.181,304.038h-9.032a1.216,1.216,0,1,0,0,2.432h9.032a1.216,1.216,0,1,0,0-2.432Z" transform="translate(-334.262 -256.281)"/>
      </g>
    </g>
  </g>
</svg>
