<svg xmlns="http://www.w3.org/2000/svg" width="105" height="105" viewBox="0 0 105 105">
  <g id="Grupo_1013476" data-name="Grupo 1013476" transform="translate(3262 6618)">
    <g id="Grupo_1007832" data-name="Grupo 1007832">
      <rect id="Rectángulo_347989" data-name="Rectángulo 347989" width="105" height="105" transform="translate(-3262 -6618)" fill="#fff"/>
      <g id="Grupo_1007831" data-name="Grupo 1007831" transform="translate(-9 67)">
        <circle id="Elipse_8664" data-name="Elipse 8664" cx="11.5" cy="11.5" r="11.5" transform="translate(-3188 -6606)" fill="#ffa031"/>
        <circle id="Elipse_8665" data-name="Elipse 8665" cx="5.5" cy="5.5" r="5.5" transform="translate(-3168 -6618)" fill="#008b8a"/>
      </g>
    </g>
    <g id="Grupo_1007829" data-name="Grupo 1007829" transform="translate(-3246.53 -6602.25)">
      <g id="Grupo_1007819" data-name="Grupo 1007819" transform="translate(1.076 10.065)">
        <path id="Trazado_721911" data-name="Trazado 721911" d="M73.177,132.473a5.55,5.55,0,0,1-5.654-5.44v-54a2.9,2.9,0,0,0-2.9-2.9H10.4a2.9,2.9,0,0,0-2.9,2.9v54a5.55,5.55,0,0,0,5.654,5.44Z" transform="translate(-7.5 -70.13)" fill="#dfe9f2"/>
      </g>
      <g id="Grupo_1007821" data-name="Grupo 1007821" transform="translate(5.716 39.787)">
        <g id="Grupo_1007820" data-name="Grupo 1007820">
          <path id="Trazado_721912" data-name="Trazado 721912" d="M39.825,277.213h20.3v23.2h-20.3Z" transform="translate(-39.825 -277.213)" fill="#51aee6"/>
        </g>
      </g>
      <g id="Grupo_1007823" data-name="Grupo 1007823" transform="translate(5.716 14.56)">
        <g id="Grupo_1007822" data-name="Grupo 1007822">
          <path id="Trazado_721913" data-name="Trazado 721913" d="M39.825,101.445H90.569v19.428H39.825Z" transform="translate(-39.825 -101.445)" fill="#f4d9b9"/>
        </g>
      </g>
      <g id="Grupo_1007825" data-name="Grupo 1007825" transform="translate(7.021 1.076)">
        <g id="Grupo_1007824" data-name="Grupo 1007824">
          <path id="Trazado_721914" data-name="Trazado 721914" d="M111.477,7.5a2.827,2.827,0,0,0-2.827,2.827V61.289a2.9,2.9,0,0,1-2.9,2.9H103v-44.8a2.9,2.9,0,0,0-2.9-2.9H48.917V10.327A2.827,2.827,0,0,1,51.744,7.5Z" transform="translate(-48.917 -7.5)" fill="#dfe9f2"/>
        </g>
      </g>
      <g id="Grupo_1007827" data-name="Grupo 1007827" transform="translate(61.099 1.076)">
        <g id="Grupo_1007826" data-name="Grupo 1007826">
          <path id="Trazado_721915" data-name="Trazado 721915" d="M425.707,73.392a5.659,5.659,0,0,0,11.309,0v-63A2.871,2.871,0,0,0,434.291,7.5a2.827,2.827,0,0,0-2.93,2.825V61.289a2.9,2.9,0,0,1-2.9,2.9h-2.755Z" transform="translate(-425.707 -7.5)" fill="#3276b6"/>
        </g>
      </g>
      <g id="Grupo_1007828" data-name="Grupo 1007828">
        <path id="Trazado_721916" data-name="Trazado 721916" d="M239.878,269.713H215.23a1.076,1.076,0,0,0,0,2.153h24.647a1.076,1.076,0,0,0,0-2.153Z" transform="translate(-183.418 -231.003)"/>
        <path id="Trazado_721917" data-name="Trazado 721917" d="M239.878,302.039H215.23a1.076,1.076,0,0,0,0,2.153h24.647a1.076,1.076,0,0,0,0-2.153Z" transform="translate(-183.418 -258.689)"/>
        <path id="Trazado_721918" data-name="Trazado 721918" d="M239.878,334.364H215.23a1.076,1.076,0,0,0,0,2.153h24.647a1.076,1.076,0,0,0,0-2.153Z" transform="translate(-183.418 -286.375)"/>
        <path id="Trazado_721919" data-name="Trazado 721919" d="M239.878,366.689H215.23a1.076,1.076,0,0,0,0,2.153h24.647a1.076,1.076,0,0,0,0-2.153Z" transform="translate(-183.418 -314.06)"/>
        <path id="Trazado_721920" data-name="Trazado 721920" d="M239.878,399.014H215.23a1.076,1.076,0,0,0,0,2.153h24.647a1.076,1.076,0,0,0,0-2.153Z" transform="translate(-183.418 -341.746)"/>
        <path id="Trazado_721921" data-name="Trazado 721921" d="M239.878,431.339H215.23a1.076,1.076,0,0,0,0,2.153h24.647a1.076,1.076,0,0,0,0-2.153Z" transform="translate(-183.418 -369.431)"/>
        <path id="Trazado_721922" data-name="Trazado 721922" d="M33.4,465.818H84.145a1.076,1.076,0,1,0,0-2.153H33.4a1.076,1.076,0,1,0,0,2.153Z" transform="translate(-27.686 -397.118)"/>
        <path id="Trazado_721923" data-name="Trazado 721923" d="M32.325,293.987a1.076,1.076,0,0,0,1.076,1.076H53.7a1.076,1.076,0,0,0,1.076-1.076v-23.2a1.076,1.076,0,0,0-1.076-1.076H33.4a1.076,1.076,0,0,0-1.076,1.076Zm2.153-22.121H52.623V292.91H34.478Z" transform="translate(-27.686 -231.003)"/>
        <path id="Trazado_721924" data-name="Trazado 721924" d="M85.222,95.021a1.076,1.076,0,0,0-1.076-1.076H33.4a1.076,1.076,0,0,0-1.076,1.076v19.428a1.076,1.076,0,0,0,1.076,1.076H84.145a1.076,1.076,0,0,0,1.076-1.076Zm-2.153,18.351H34.478V96.1H83.069Z" transform="translate(-27.686 -80.462)"/>
        <path id="Trazado_721925" data-name="Trazado 721925" d="M63,138.572a1.076,1.076,0,0,0,1.076-1.076v-6.677l4.887,7.077a1.213,1.213,0,0,0,1.369.509,1.265,1.265,0,0,0,.855-1.262l-.095-9.807a1.076,1.076,0,0,0-1.076-1.066h-.011a1.076,1.076,0,0,0-1.066,1.087l.066,6.812-5.121-7.415a1.076,1.076,0,0,0-1.962.612V137.5A1.077,1.077,0,0,0,63,138.572Z" transform="translate(-53.036 -108.147)"/>
        <path id="Trazado_721926" data-name="Trazado 721926" d="M144.263,138.573h4.276a1.076,1.076,0,1,0,0-2.153h-3.2V133.5h2.885a1.076,1.076,0,0,0,0-2.153H145.34v-2.921h3.2a1.076,1.076,0,1,0,0-2.153h-4.276a1.076,1.076,0,0,0-1.076,1.076V137.5a1.076,1.076,0,0,0,1.076,1.076Z" transform="translate(-122.636 -108.148)"/>
        <path id="Trazado_721927" data-name="Trazado 721927" d="M314.976,138.572a3.994,3.994,0,0,0,4.081-3.087c.239-1.338-.378-3.09-2.828-3.994-1.278-.471-2.464-.985-2.8-1.13a.892.892,0,0,1-.34-.854,1.2,1.2,0,0,1,.942-.97,3.575,3.575,0,0,1,2.97.681,1.076,1.076,0,0,0,1.381-1.652,5.712,5.712,0,0,0-4.972-1.09,3.38,3.38,0,0,0-2.452,2.725,3.035,3.035,0,0,0,1.354,3,1.065,1.065,0,0,0,.149.081c.059.026,1.451.646,3.019,1.224,1.036.382,1.566.964,1.453,1.6a1.9,1.9,0,0,1-1.962,1.312,3.728,3.728,0,0,1-2.739-1.151,1.076,1.076,0,0,0-1.6,1.446,5.912,5.912,0,0,0,4.334,1.858Z" transform="translate(-265.818 -108.147)"/>
        <path id="Trazado_721928" data-name="Trazado 721928" d="M207.3,137.551a1.062,1.062,0,0,0,.042.151,1.307,1.307,0,0,0,1.23.869h.009a1.307,1.307,0,0,0,1.227-.885l.009-.028,2.06-6.654,2.05,6.656c0,.015.009.029.014.044a1.307,1.307,0,0,0,1.23.868h.009a1.306,1.306,0,0,0,1.227-.885,1.072,1.072,0,0,0,.037-.136l1.985-9.975a1.076,1.076,0,1,0-2.112-.42L215,133.808l-2.089-6.78-.006,0a1.076,1.076,0,0,0-2.051.015l-2.093,6.763-1.32-6.672a1.076,1.076,0,1,0-2.112.418Z" transform="translate(-175.84 -108.146)"/>
        <path id="Trazado_721929" data-name="Trazado 721929" d="M69.722,0l-.142,0H49.744a1.076,1.076,0,0,0,0,2.153H66.092A3.88,3.88,0,0,0,65.677,3.9V28.346a1.076,1.076,0,1,0,2.153,0V3.9a1.778,1.778,0,0,1,1.784-1.753,1.827,1.827,0,0,1,1.718,1.82v63a4.479,4.479,0,0,1-4.578,4.363h0a4.479,4.479,0,0,1-4.577-4.363V58.841h1.678a3.98,3.98,0,0,0,3.976-3.976v-21.5a1.076,1.076,0,1,0-2.153,0v21.5a1.825,1.825,0,0,1-1.823,1.823H62.176V12.965A3.981,3.981,0,0,0,58.2,8.989H8.1V3.9a1.752,1.752,0,0,1,1.75-1.751H44.721a1.076,1.076,0,1,0,0-2.153H9.847a3.908,3.908,0,0,0-3.9,3.9V8.989H3.976A3.98,3.98,0,0,0,0,12.965V44.7a1.076,1.076,0,0,0,2.153,0V12.965a1.825,1.825,0,0,1,1.823-1.823H58.2a1.826,1.826,0,0,1,1.824,1.823v54a6.377,6.377,0,0,0,1.736,4.363H6.731a4.48,4.48,0,0,1-4.578-4.363V49.727a1.076,1.076,0,0,0-2.153,0V66.968a6.634,6.634,0,0,0,6.731,6.516H66.754a6.634,6.634,0,0,0,6.731-6.516v-63A3.924,3.924,0,0,0,69.722,0Z"/>
      </g>
    </g>
  </g>
</svg>
