<svg xmlns="http://www.w3.org/2000/svg" xmlns:xlink="http://www.w3.org/1999/xlink" width="105" height="105" viewBox="0 0 105 105">
  <defs>
    <clipPath id="clip-path">
      <rect id="Rect치ngulo_348015" data-name="Rect치ngulo 348015" width="77" height="77" transform="translate(-0.381 -0.382)" fill="none"/>
    </clipPath>
  </defs>
  <g id="Grupo_1013479" data-name="Grupo 1013479" transform="translate(3262 6002)">
    <rect id="Rect치ngulo_347992" data-name="Rect치ngulo 347992" width="105" height="105" transform="translate(-3262 -6002)" fill="#fff"/>
    <circle id="Elipse_8668" data-name="Elipse 8668" cx="11.5" cy="11.5" r="11.5" transform="translate(-3258 -5981)" fill="#ffa031"/>
    <circle id="Elipse_8669" data-name="Elipse 8669" cx="5.5" cy="5.5" r="5.5" transform="translate(-3238 -5993)" fill="#008b8a"/>
    <g id="g2400" transform="translate(-4098.923 -6395.368)">
      <g id="g2402" transform="translate(851.304 407.749)">
        <g id="Grupo_1007849" data-name="Grupo 1007849" transform="translate(0 0)">
          <g id="Grupo_1007848" data-name="Grupo 1007848" clip-path="url(#clip-path)">
            <g id="g2404" transform="translate(1.117 1.408)">
              <g id="g2410" transform="translate(0 0.336)">
                <g id="Grupo_1007844" data-name="Grupo 1007844">
                  <path id="path2412" d="M933.573,459.5a36.134,36.134,0,1,0-36.134,36.134A36.134,36.134,0,0,0,933.573,459.5" transform="translate(-861.304 -423.367)" fill="#80cccb"/>
                </g>
              </g>
              <g id="g2414" transform="translate(0.112)">
                <g id="Grupo_1007845" data-name="Grupo 1007845">
                  <path id="path2416" d="M904.712,492.086a36.136,36.136,0,1,1,0-71.187,36.144,36.144,0,0,0,0,71.187" transform="translate(-862.304 -420.357)" fill="#007e79"/>
                </g>
              </g>
              <g id="g2418" transform="translate(0 17.867)">
                <path id="path2420" d="M866.455,580.349a36.138,36.138,0,0,0,53.131,47.157" transform="translate(-861.304 -580.349)" fill="none" stroke="#040505" stroke-linecap="round" stroke-linejoin="round" stroke-width="3"/>
              </g>
              <g id="g2422" transform="translate(8.148 0.336)">
                <path id="path2424" d="M934.264,436.639a36.136,36.136,0,0,1,57.454,43.777" transform="translate(-934.264 -423.362)" fill="none" stroke="#040505" stroke-linecap="round" stroke-linejoin="round" stroke-width="3"/>
              </g>
              <g id="g2426" transform="translate(32.641 52.698)">
                <path id="path2428" d="M1153.584,892.409q1.724-.165,3.493-.167a35.979,35.979,0,0,1,21.677,7.222" transform="translate(-1153.584 -892.242)" fill="none" stroke="#040505" stroke-linecap="round" stroke-linejoin="round" stroke-width="3"/>
              </g>
              <g id="g2430" transform="translate(11.233 53.733)">
                <path id="path2432" d="M961.891,910.427a36.051,36.051,0,0,1,16.285-8.918" transform="translate(-961.891 -901.509)" fill="none" stroke="#040505" stroke-linecap="round" stroke-linejoin="round" stroke-width="3"/>
              </g>
              <g id="g2434" transform="translate(11.232 10.29)">
                <path id="path2436" d="M961.885,512.5a36.13,36.13,0,0,0,49.8,0" transform="translate(-961.885 -512.502)" fill="none" stroke="#040505" stroke-linecap="round" stroke-linejoin="round" stroke-width="3"/>
              </g>
              <g id="g2438" transform="translate(20.538 0.336)">
                <path id="path2440" d="M1045.211,448.969c2.032-14.822,8.246-25.607,15.6-25.607s13.565,10.785,15.6,25.607" transform="translate(-1045.211 -423.362)" fill="none" stroke="#040505" stroke-linecap="round" stroke-linejoin="round" stroke-width="3"/>
              </g>
              <g id="g2442" transform="translate(20.538 46.998)">
                <path id="path2444" d="M1045.211,841.2c2.032,14.822,8.246,25.606,15.6,25.606s13.565-10.785,15.6-25.606" transform="translate(-1045.211 -841.202)" fill="none" stroke="#040505" stroke-linecap="round" stroke-linejoin="round" stroke-width="3"/>
              </g>
              <g id="g2446" transform="translate(61.702 36.471)">
                <path id="path2448" d="M1424.377,746.935H1413.81" transform="translate(-1413.81 -746.935)" fill="none" stroke="#040505" stroke-linecap="round" stroke-linejoin="round" stroke-width="3"/>
              </g>
              <g id="g2450" transform="translate(0 36.471)">
                <path id="path2452" d="M871.872,746.935H861.3" transform="translate(-861.304 -746.935)" fill="none" stroke="#040505" stroke-linecap="round" stroke-linejoin="round" stroke-width="3"/>
              </g>
              <g id="g2454" transform="translate(57.458 53.622)">
                <g id="Grupo_1007846" data-name="Grupo 1007846">
                  <path id="path2456" d="M1391.415,909.9l-11.822-8.906a2.359,2.359,0,0,0-3.768,2.1l1.358,14.739a2.359,2.359,0,0,0,4.4.951l1.906-3.347a2.845,2.845,0,0,1,2.574-1.435l3.849.139a2.359,2.359,0,0,0,1.5-4.241" transform="translate(-1375.814 -900.512)" fill="#ffcfa9"/>
                </g>
              </g>
              <g id="g2458" transform="translate(57.458 53.622)">
                <g id="Grupo_1007847" data-name="Grupo 1007847">
                  <path id="path2460" d="M1381.6,918.748l-.023.04a2.359,2.359,0,0,1-4.4-.951l-1.358-14.739a2.359,2.359,0,0,1,3.766-2.1,2.322,2.322,0,0,0-.27,1.341l1.358,14.739a2.288,2.288,0,0,0,.925,1.672" transform="translate(-1375.813 -900.517)" fill="#fa8824"/>
                </g>
              </g>
              <g id="g2462" transform="translate(57.458 53.622)">
                <path id="path2464" d="M1390.81,909.448l.6.451a2.358,2.358,0,0,1-1.5,4.241l-3.849-.138a2.843,2.843,0,0,0-2.574,1.434l-1.906,3.347a2.358,2.358,0,0,1-4.4-.95l-1.359-14.738a2.359,2.359,0,0,1,3.769-2.1l7.076,5.331" transform="translate(-1375.808 -900.513)" fill="none" stroke="#040505" stroke-linecap="round" stroke-linejoin="round" stroke-width="3"/>
              </g>
              <g id="g2466" transform="translate(10.567 25.943)">
                <path id="path2468" d="M1003.367,673.716H959.624a3.7,3.7,0,0,1-3.7-3.7V656.357a3.7,3.7,0,0,1,3.7-3.7h43.743a3.7,3.7,0,0,1,3.7,3.7v13.664a3.7,3.7,0,0,1-3.7,3.7" transform="translate(-955.929 -652.661)" fill="#e1e9ef" stroke="#707070" stroke-width="3"/>
              </g>
              <g id="g2470" transform="translate(10.567 25.943)">
                <path id="path2472" d="M963.413,673.721h-3.789a3.7,3.7,0,0,1-3.7-3.7V656.361a3.7,3.7,0,0,1,3.7-3.7h3.789a3.7,3.7,0,0,0-3.7,3.7v13.665a3.7,3.7,0,0,0,3.7,3.7" transform="translate(-955.929 -652.666)" fill="#cae3e9" stroke="#707070" stroke-width="3"/>
              </g>
              <g id="g2474" transform="translate(10.567 25.943)">
                <path id="path2476" d="M1003.367,673.716H959.624a3.7,3.7,0,0,1-3.7-3.7V656.357a3.7,3.7,0,0,1,3.7-3.7h43.743a3.7,3.7,0,0,1,3.7,3.7v13.664A3.7,3.7,0,0,1,1003.367,673.716Z" transform="translate(-955.929 -652.661)" fill="#4db1f0" stroke="#040505" stroke-linecap="round" stroke-linejoin="round" stroke-width="3"/>
              </g>
              <g id="g2478" transform="translate(16.43 31.547)">
                <path id="path2480" d="M1008.424,702.846l1.919,9.7a.222.222,0,0,0,.42,0l3-9.678v-.018l2.988,9.7a.222.222,0,0,0,.42,0l1.926-9.678" transform="translate(-1008.424 -702.846)" fill="none" stroke="#040505" stroke-linecap="round" stroke-linejoin="round" stroke-width="3"/>
              </g>
              <g id="g2482" transform="translate(30.801 31.547)">
                <path id="path2484" d="M1137.108,702.846l1.918,9.7a.222.222,0,0,0,.42,0l3-9.678v-.018l2.988,9.7a.222.222,0,0,0,.42,0l1.926-9.678" transform="translate(-1137.108 -702.846)" fill="none" stroke="#040505" stroke-linecap="round" stroke-linejoin="round" stroke-width="3"/>
              </g>
              <g id="g2486" transform="translate(45.172 31.547)">
                <path id="path2488" d="M1265.793,702.846l1.918,9.7a.222.222,0,0,0,.42,0l3-9.678v-.018l2.988,9.7a.222.222,0,0,0,.42,0l1.926-9.678" transform="translate(-1265.793 -702.846)" fill="none" stroke="#040505" stroke-linecap="round" stroke-linejoin="round" stroke-width="3"/>
              </g>
            </g>
          </g>
        </g>
      </g>
    </g>
  </g>
</svg>
