<svg xmlns="http://www.w3.org/2000/svg" width="302" height="200" viewBox="0 0 302 200">
  <g id="Grupo_1013479" data-name="Grupo 1013479" transform="translate(-915 -7936)">
    <rect id="Imagen_4" data-name="Imagen 4" width="302" height="200" rx="20" transform="translate(915 7936)" fill="#4db1f0" opacity="0.2"/>
    <g id="Grupo_1011734" data-name="Grupo 1011734" transform="translate(958.56 7915.892)">
      <g id="Floor" transform="translate(13.44 102.957)">
        <ellipse id="Floor-2" data-name="Floor" cx="94.108" cy="54.334" rx="94.108" ry="54.334" fill="#b6cfe3"/>
      </g>
      <g id="Shadow" transform="translate(19.159 110.442)">
        <path id="Shadow-2" data-name="Shadow" d="M377.4,373.807c-6.171-3.563-6.171-9.339,0-12.9s16.176-3.562,22.347,0,6.171,9.339,0,12.9S383.575,377.37,377.4,373.807Z" transform="translate(-234.967 -308.106)" fill="#2a486b" opacity="0.3"/>
        <path id="Shadow-3" data-name="Shadow" d="M44.679,298.931l-16.233-9.372a1.01,1.01,0,0,1,0-1.913l94.42-54.514a3.663,3.663,0,0,1,3.314,0l16.234,9.372a1.01,1.01,0,0,1,0,1.914L47.993,298.931A3.662,3.662,0,0,1,44.679,298.931Z" transform="translate(-27.76 -232.736)" fill="#2a486b" opacity="0.3"/>
      </g>
      <g id="Device" transform="translate(31.219 29.108)">
        <g id="Device-2" data-name="Device">
          <g id="Grupo_1011699" data-name="Grupo 1011699" transform="translate(39.082 90.034)">
            <g id="Grupo_1011697" data-name="Grupo 1011697" transform="translate(0.002)">
              <path id="Trazado_725201" data-name="Trazado 725201" d="M179.927,295.309l13.955-8.069a3.662,3.662,0,0,0,2.158-3.007c0-1.088.006-1.941.006-1.941l-14.479-8.164a3.07,3.07,0,0,1-1.389-2.406V254.516L155.8,268.6v17.2a3.071,3.071,0,0,0,1.389,2.406l12.317,7.1A11.515,11.515,0,0,0,179.927,295.309Z" transform="translate(-155.803 -254.516)" fill="#a5d3d4" stroke="#a4d2d3" stroke-width="3"/>
            </g>
            <g id="Grupo_1011698" data-name="Grupo 1011698" transform="translate(0.002)" opacity="0.6">
              <path id="Trazado_725202" data-name="Trazado 725202" d="M179.927,295.309l13.955-8.069a3.662,3.662,0,0,0,2.158-3.007c0-1.088.006-1.941.006-1.941l-14.479-8.164a3.07,3.07,0,0,1-1.389-2.406V254.516L155.8,268.6v17.2a3.071,3.071,0,0,0,1.389,2.406l12.317,7.1A11.515,11.515,0,0,0,179.927,295.309Z" transform="translate(-155.803 -254.516)"/>
            </g>
            <path id="Trazado_725203" data-name="Trazado 725203" d="M161.652,306v1.933l-4.467-2.575a3.073,3.073,0,0,1-1.388-2.406v-17.2l4.644-2.679c.1,1.179.2,2.4.3,3.585l-3.256,1.885v13.442a3.052,3.052,0,0,0,1.388,2.406Z" transform="translate(-155.797 -271.667)" opacity="0.3"/>
            <path id="Trazado_725204" data-name="Trazado 725204" d="M160.012,289.036a3.07,3.07,0,0,0,1.389,2.406l10.633,6.125a11.518,11.518,0,0,0,10.419,0l13.962-8.068c2.877-1.66,2.878-4.353,0-6.014l-10.64-6.129a3.07,3.07,0,0,1-1.389-2.406V261.507l-24.375,14.085Z" transform="translate(-158.328 -258.715)" fill="#a5d3d4" stroke="#a4d2d3" stroke-width="3"/>
            <path id="Trazado_725205" data-name="Trazado 725205" d="M160.012,289.036a3.07,3.07,0,0,0,1.389,2.406l10.633,6.125a11.518,11.518,0,0,0,10.419,0l13.962-8.068c2.877-1.66,2.878-4.353,0-6.014l-10.64-6.129a3.07,3.07,0,0,1-1.389-2.406V261.507l-24.375,14.085Z" transform="translate(-158.328 -258.715)" opacity="0.3"/>
            <path id="Trazado_725206" data-name="Trazado 725206" d="M188.605,278.992v0l-2.829-1.634a3.07,3.07,0,0,1-1.389-2.406V261.507l-24.375,14.085v13.444a3.07,3.07,0,0,0,1.389,2.406l2.78,1.605Z" transform="translate(-158.328 -258.715)" opacity="0.5"/>
            <path id="Trazado_725207" data-name="Trazado 725207" d="M224.841,324.058V326a3.669,3.669,0,0,1-2.158,3.008l-13.957,8.064a10.443,10.443,0,0,1-4.972,1.235v-1.933a10.444,10.444,0,0,0,4.972-1.235l13.957-8.072A3.658,3.658,0,0,0,224.841,324.058Z" transform="translate(-184.599 -296.281)" fill="#a5d3d4" stroke="#a4d2d3" stroke-width="3"/>
            <path id="Trazado_725208" data-name="Trazado 725208" d="M224.841,324.058V326a3.669,3.669,0,0,1-2.158,3.008l-13.957,8.064a10.443,10.443,0,0,1-4.972,1.235v-1.933a10.444,10.444,0,0,0,4.972-1.235l13.957-8.072A3.658,3.658,0,0,0,224.841,324.058Z" transform="translate(-184.599 -296.281)" opacity="0.5"/>
          </g>
          <path id="Trazado_725209" data-name="Trazado 725209" d="M59.582,166.174a3.724,3.724,0,0,0,3.365-.062l94.264-54.422a3.837,3.837,0,0,0,1.736-3.007V32.426a3.262,3.262,0,0,0-4.994-2.883L59.691,83.965a3.838,3.838,0,0,0-1.736,3.008v76.256A3.724,3.724,0,0,0,59.582,166.174Z" transform="translate(-57.952 -29.109)" fill="#a5d3d4" stroke="#a4d2d3" stroke-width="3"/>
          <path id="Trazado_725210" data-name="Trazado 725210" d="M67.846,169.23l94.263-54.422a3.838,3.838,0,0,0,1.737-3.007V35.545c0-1.108-.778-1.556-1.737-1L67.848,88.964a3.838,3.838,0,0,0-1.736,3.008v76.256C66.11,169.335,66.888,169.784,67.846,169.23Z" transform="translate(-62.851 -32.229)" fill="#a5d3d4" stroke="#a4d2d3" stroke-width="3"/>
          <path id="Trazado_725211" data-name="Trazado 725211" d="M67.846,169.23l94.263-54.422a3.838,3.838,0,0,0,1.737-3.007V35.545c0-1.108-.778-1.556-1.737-1L67.848,88.964a3.838,3.838,0,0,0-1.736,3.008v76.256C66.11,169.335,66.888,169.784,67.846,169.23Z" transform="translate(-62.851 -32.229)" opacity="0.5"/>
          <path id="Trazado_725212" data-name="Trazado 725212" d="M62.691,362.09a3.245,3.245,0,0,1-4.74-3.016v-6.943l3.256,1.885v6.943C61.207,361.97,61.849,362.427,62.691,362.09Z" transform="translate(-57.951 -223.107)" fill="#a5d3d4" stroke="#a4d2d3" stroke-width="3"/>
          <path id="Trazado_725213" data-name="Trazado 725213" d="M62.691,362.09a3.245,3.245,0,0,1-4.74-3.016v-6.943l3.256,1.885v6.943C61.207,361.97,61.849,362.427,62.691,362.09Z" transform="translate(-57.951 -223.107)" opacity="0.5"/>
          <path id="Trazado_725214" data-name="Trazado 725214" d="M66.1,271.985l0,6.94c0,1.107.778,1.556,1.736,1l94.263-54.422a3.838,3.838,0,0,0,1.736-3.008v-6.956Z" transform="translate(-62.847 -141.076)" fill="#a5d3d4" stroke="#a4d2d3" stroke-width="3"/>
          <path id="Trazado_725215" data-name="Trazado 725215" d="M66.11,271.97v6.955c0,1.107.778,1.556,1.736,1l94.263-54.422a3.838,3.838,0,0,0,1.736-3.008v-6.956Z" transform="translate(-62.851 -141.076)" opacity="0.3"/>
          <path id="Trazado_725216" data-name="Trazado 725216" d="M74.264,162.455V101.081a2.3,2.3,0,0,1,1.042-1.8l89.135-51.462c.575-.332,1.042-.063,1.042.6l0,61.376a2.3,2.3,0,0,1-1.042,1.8L75.306,163.057C74.731,163.389,74.264,163.119,74.264,162.455Z" transform="translate(-67.748 -40.257)" fill="#a5d3d4" stroke="#a4d2d3" stroke-width="3"/>
          <path id="Trazado_725217" data-name="Trazado 725217" d="M74.264,162.455V101.081a2.3,2.3,0,0,1,1.042-1.8l89.135-51.462c.575-.332,1.042-.063,1.042.6l0,61.376a2.3,2.3,0,0,1-1.042,1.8L75.306,163.057C74.731,163.389,74.264,163.119,74.264,162.455Z" transform="translate(-67.748 -40.257)" fill="#263238"/>
          <path id="Trazado_725218" data-name="Trazado 725218" d="M186,291.392a3.6,3.6,0,0,0-1.629,2.822c0,1.039.73,1.46,1.63.94a3.6,3.6,0,0,0,1.629-2.822C187.632,291.293,186.9,290.872,186,291.392Z" transform="translate(-133.877 -186.495)" fill="#a5d3d4" stroke="#a4d2d3" stroke-width="3"/>
          <path id="Trazado_725219" data-name="Trazado 725219" d="M61.72,171.556a3.685,3.685,0,0,0-.513,1.716V244.44l-3.256-1.885,0-71.16a3.591,3.591,0,0,1,.511-1.716Z" transform="translate(-57.951 -113.531)" opacity="0.7"/>
          <path id="Trazado_725220" data-name="Trazado 725220" d="M159.7,32.138c-.123-.9-.846-1.219-1.721-.719L63.718,85.845a3.569,3.569,0,0,0-1.228,1.289l-3.256-1.881a3.572,3.572,0,0,1,1.227-1.289l94.26-54.421a3.246,3.246,0,0,1,4.977,2.6Z" transform="translate(-58.722 -29.108)" opacity="0.3"/>
        </g>
      </g>
      <g id="Window" transform="translate(46.232 41.428)">
        <g id="Window-2" data-name="Window" transform="translate(0 0)">
          <g id="Window-3" data-name="Window">
            <g id="Window-4" data-name="Window">
              <path id="Trazado_725221" data-name="Trazado 725221" d="M186.59,60.047a.854.854,0,0,0-.886.07L96.757,111.478a2.688,2.688,0,0,0-1.217,2.107v61a1.185,1.185,0,0,0,.513,1.057c.2.107,1.244.715,1.555.882a.7.7,0,0,0,.705-.041L187.258,125.1A2.685,2.685,0,0,0,188.476,123V61.7a.842.842,0,0,0-.377-.8C187.88,60.787,186.814,60.181,186.59,60.047Z" transform="translate(-95.539 -59.953)" fill="#a5d3d4" stroke="#a4d2d3" stroke-width="3"/>
              <g id="Grupo_1011700" data-name="Grupo 1011700" transform="translate(0 0.879)">
                <g id="Trazado_725222" data-name="Trazado 725222" transform="translate(-97.878 -62.153)" fill="#fafafa" stroke-miterlimit="10">
                  <path d="M 100.2509078979492 177.4219970703125 C 100.1048126220703 177.4219970703125 99.93501281738281 177.1450042724609 99.93501281738281 176.7878723144531 L 99.93501281738281 115.7877578735352 C 99.93501281738281 115.192985534668 100.3867568969727 114.4103698730469 100.901725769043 114.1129379272461 L 189.8481597900391 62.75221633911133 C 189.9976196289062 62.66598510742188 190.0962371826172 62.65309524536133 190.1417083740234 62.65309524536133 C 190.2926330566406 62.65309524536133 190.3151702880859 62.88410949707031 190.3151702880859 63.02181625366211 L 190.3151702880859 124.317512512207 C 190.3151702880859 124.9117736816406 189.8631439208984 125.6932907104492 189.3478240966797 125.9899978637695 L 100.4027557373047 177.3714447021484 C 100.3455352783203 177.4043731689453 100.2927856445312 177.4219970703125 100.2509078979492 177.4219970703125 Z" stroke="none"/>
                  <path d="M 189.815185546875 63.34861755371094 L 101.1517791748047 114.5459518432617 C 100.7900390625 114.7548675537109 100.4349975585938 115.3699493408203 100.4349975585938 115.7877502441406 L 100.4349975585938 176.775390625 L 189.0983428955078 125.5566864013672 C 189.4601135253906 125.3483810424805 189.815185546875 124.7345962524414 189.815185546875 124.3175201416016 L 189.815185546875 63.34861755371094 M 190.1416931152344 62.15309143066406 C 190.5410461425781 62.15309143066406 190.815185546875 62.47125244140625 190.815185546875 63.02182006835938 L 190.815185546875 124.3175201416016 C 190.815185546875 125.0935974121094 190.2695617675781 126.036247253418 189.5973052978516 126.4233016967773 L 100.6528625488281 177.8043975830078 C 99.98016357421875 178.1914672851562 99.43498229980469 177.5635223388672 99.43499755859375 176.7878723144531 L 99.43499755859375 115.7877502441406 C 99.43499755859375 115.0116500854492 99.97943115234375 114.0682144165039 100.6516723632812 113.6799850463867 L 189.5981140136719 62.3192138671875 C 189.79345703125 62.20651245117188 189.9781188964844 62.15309143066406 190.1416931152344 62.15309143066406 Z" stroke="none" fill="#e0e0e0"/>
                </g>
                <path id="Trazado_725223" data-name="Trazado 725223" d="M96.051,262.221c.132.07,1.078.61,1.492.846a1.239,1.239,0,0,1-.447-1.022V205.027l-1.558-.911v57.05A1.184,1.184,0,0,0,96.051,262.221Z" transform="translate(-95.538 -147.412)" fill="#f0f0f0"/>
              </g>
              <g id="Grupo_1011701" data-name="Grupo 1011701">
                <path id="Trazado_725224" data-name="Trazado 725224" d="M190.814,63.013c0-.769-.547-1.08-1.216-.693L100.652,113.68a2.689,2.689,0,0,0-1.217,2.108v3.98l91.378-52.762Z" transform="translate(-97.878 -61.274)" fill="#a5d3d4" stroke="#a4d2d3" stroke-width="3"/>
                <path id="Trazado_725225" data-name="Trazado 725225" d="M187.815,61,98.87,112.358a2.5,2.5,0,0,0-.857.9l-1.546-.9a2.432,2.432,0,0,1,.847-.889l88.948-51.361a.855.855,0,0,1,.884-.072c.218.134,1.229.708,1.485.846A.88.88,0,0,0,187.815,61Z" transform="translate(-96.096 -59.952)" fill="#fff" opacity="0.4"/>
                <path id="Trazado_725226" data-name="Trazado 725226" d="M95.538,196.347v-3.956a2.51,2.51,0,0,1,.37-1.217l1.55.891a2.457,2.457,0,0,0-.363,1.21v3.979Z" transform="translate(-95.538 -138.761)" opacity="0.15"/>
              </g>
            </g>
          </g>
          <g id="Grupo_1011706" data-name="Grupo 1011706" transform="translate(20.016 47.507)">
            <g id="Grupo_1011702" data-name="Grupo 1011702">
              <path id="Trazado_725227" data-name="Trazado 725227" d="M199.812,179.1,146.539,209.86a1.965,1.965,0,0,0-.889,1.54v15.273a1.961,1.961,0,0,0,.89,1.539l1.556.9a1.969,1.969,0,0,0,1.779,0l53.266-30.753a1.965,1.965,0,0,0,.89-1.54l.006-15.277a1.96,1.96,0,0,0-.889-1.539l-1.557-.9A1.968,1.968,0,0,0,199.812,179.1Z" transform="translate(-145.65 -178.89)" fill="#a5d3d4" stroke="#a4d2d3" stroke-width="3"/>
              <path id="Trazado_725228" data-name="Trazado 725228" d="M204.426,181.392c-.061-.46-.435-.628-.883-.369l-53.271,30.756a1.786,1.786,0,0,0-.628.665l-3.334-1.926a1.814,1.814,0,0,1,.624-.657L200.209,179.1a1.965,1.965,0,0,1,1.778,0l1.557.9A1.985,1.985,0,0,1,204.426,181.392Z" transform="translate(-146.046 -178.89)" fill="#fff" opacity="0.5"/>
              <path id="Trazado_725229" data-name="Trazado 725229" d="M149.725,276.732a1.982,1.982,0,0,1-1.626-.07l-1.557-.9a1.963,1.963,0,0,1-.891-1.54V258.956a1.841,1.841,0,0,1,.263-.883L149.248,260a1.784,1.784,0,0,0-.263.875v15.275C148.985,276.658,149.306,276.892,149.725,276.732Z" transform="translate(-145.651 -226.445)" fill="#263238"/>
              <path id="Trazado_725230" data-name="Trazado 725230" d="M154.891,214.8l53.274-30.757c.491-.284.889-.054.888.513l-.006,15.277a1.965,1.965,0,0,1-.89,1.54l-53.266,30.753c-.491.283-.889.054-.889-.513V216.344A1.964,1.964,0,0,1,154.891,214.8Z" transform="translate(-150.666 -181.914)" fill="#a5d3d4" stroke="#a4d2d3" stroke-width="3"/>
              <path id="Trazado_725231" data-name="Trazado 725231" d="M186.086,199.838l-39.153,22.6a1.814,1.814,0,0,0-.624.657l3.334,1.926a1.786,1.786,0,0,1,.628-.665l39.143-22.6Z" transform="translate(-146.046 -191.471)" fill="#455a64"/>
              <path id="Trazado_725232" data-name="Trazado 725232" d="M194.035,204.652l-39.144,22.6a1.964,1.964,0,0,0-.889,1.54v15.272c0,.567.4.8.889.513l39.144-22.6Z" transform="translate(-150.666 -194.362)" fill="#37474f"/>
            </g>
            <g id="Grupo_1011703" data-name="Grupo 1011703" transform="translate(11.737 19.149)">
              <path id="Trazado_725233" data-name="Trazado 725233" d="M176.549,238.711l20.2-11.662c.838-.484,1.516-.14,1.516.767a3.252,3.252,0,0,1-1.517,2.518L176.551,242c-.838.484-1.517.14-1.517-.767A3.251,3.251,0,0,1,176.549,238.711Z" transform="translate(-175.034 -226.83)" fill="#a5d3d4" stroke="#a4d2d3" stroke-width="3"/>
            </g>
            <g id="Grupo_1011704" data-name="Grupo 1011704" transform="translate(15.688 27.265)">
              <path id="Trazado_725234" data-name="Trazado 725234" d="M186.629,266.225a.042.042,0,0,1,.059.011.137.137,0,0,1,.025.09V268.6a3.615,3.615,0,0,1-.057.653,2.656,2.656,0,0,1-.168.574,1.932,1.932,0,0,1-.28.47,1.425,1.425,0,0,1-.39.333.716.716,0,0,1-.392.119.388.388,0,0,1-.279-.147.9.9,0,0,1-.167-.381,2.757,2.757,0,0,1-.055-.59v-2.274a.3.3,0,0,1,.026-.12.154.154,0,0,1,.059-.078l.253-.146a.042.042,0,0,1,.059.01.141.141,0,0,1,.025.091v2.247a1.609,1.609,0,0,0,.035.368.451.451,0,0,0,.1.208.187.187,0,0,0,.15.064.428.428,0,0,0,.191-.063.8.8,0,0,0,.192-.158.894.894,0,0,0,.151-.238,1.458,1.458,0,0,0,.1-.32,2.084,2.084,0,0,0,.036-.409v-2.246a.3.3,0,0,1,.025-.119.155.155,0,0,1,.06-.079Z" transform="translate(-184.925 -258.601)" fill="#fafafa"/>
              <path id="Trazado_725235" data-name="Trazado 725235" d="M191.644,268.564a.136.136,0,0,0-.022-.087.1.1,0,0,0-.076-.028.616.616,0,0,0-.145.017c-.061.013-.137.028-.231.045a.472.472,0,0,1-.228-.007.286.286,0,0,1-.145-.111.525.525,0,0,1-.077-.208,1.8,1.8,0,0,1-.022-.295,1.524,1.524,0,0,1,.044-.353,1.731,1.731,0,0,1,.126-.359,1.6,1.6,0,0,1,.2-.319.993.993,0,0,1,.272-.234.645.645,0,0,1,.273-.1.338.338,0,0,1,.2.042.343.343,0,0,1,.131.155.641.641,0,0,1,.053.233.259.259,0,0,1-.024.119.164.164,0,0,1-.061.079l-.24.139c-.031.018-.055.022-.07.01s-.032-.025-.051-.04a.14.14,0,0,0-.075-.026.283.283,0,0,0-.14.05.574.574,0,0,0-.165.145.344.344,0,0,0-.072.22.2.2,0,0,0,.018.093.078.078,0,0,0,.065.037.528.528,0,0,0,.135-.008q.086-.013.223-.043a.356.356,0,0,1,.391.1.852.852,0,0,1,.114.492,1.437,1.437,0,0,1-.047.352,1.76,1.76,0,0,1-.136.361,1.588,1.588,0,0,1-.219.326,1.125,1.125,0,0,1-.291.243.638.638,0,0,1-.292.1.343.343,0,0,1-.213-.057.38.38,0,0,1-.135-.172.662.662,0,0,1-.05-.243.26.26,0,0,1,.024-.119.168.168,0,0,1,.061-.08l.24-.139c.031-.018.055-.018.07,0l.053.058a.135.135,0,0,0,.083.041.283.283,0,0,0,.159-.054.831.831,0,0,0,.1-.067.722.722,0,0,0,.092-.089.526.526,0,0,0,.07-.107A.27.27,0,0,0,191.644,268.564Z" transform="translate(-188.373 -258.788)" fill="#fafafa"/>
              <path id="Trazado_725236" data-name="Trazado 725236" d="M195.15,265.875a3.611,3.611,0,0,1,.053-.616,3.028,3.028,0,0,1,.153-.566,2.035,2.035,0,0,1,.242-.458,1.023,1.023,0,0,1,.317-.3.441.441,0,0,1,.317-.07.417.417,0,0,1,.242.166,1,1,0,0,1,.154.359,2.208,2.208,0,0,1,.055.51v.25a.291.291,0,0,1-.026.119.156.156,0,0,1-.059.079l-1.042.6a.607.607,0,0,0,.03.207.247.247,0,0,0,.079.118.165.165,0,0,0,.115.033.31.31,0,0,0,.134-.044.626.626,0,0,0,.162-.129.772.772,0,0,0,.1-.151.858.858,0,0,1,.056-.093.191.191,0,0,1,.06-.05l.25-.145a.045.045,0,0,1,.061.009.125.125,0,0,1,.023.092.985.985,0,0,1-.048.228,1.786,1.786,0,0,1-.136.317,1.941,1.941,0,0,1-.223.328,1.128,1.128,0,0,1-.307.26.47.47,0,0,1-.317.076.378.378,0,0,1-.242-.169,1.061,1.061,0,0,1-.153-.386A2.761,2.761,0,0,1,195.15,265.875Zm.765-1.274a.527.527,0,0,0-.154.137.9.9,0,0,0-.108.184,1.11,1.11,0,0,0-.067.205,1.361,1.361,0,0,0-.03.192l.705-.407a1.388,1.388,0,0,0-.024-.161.337.337,0,0,0-.056-.134.156.156,0,0,0-.1-.062A.265.265,0,0,0,195.915,264.6Z" transform="translate(-191.066 -257.185)" fill="#fafafa"/>
              <path id="Trazado_725237" data-name="Trazado 725237" d="M200.987,261.746a.629.629,0,0,0-.27.3,1.383,1.383,0,0,0-.083.528v1.442a.307.307,0,0,1-.025.119.156.156,0,0,1-.06.079l-.237.137a.042.042,0,0,1-.059-.01.137.137,0,0,1-.025-.091v-2.585a.3.3,0,0,1,.025-.119.159.159,0,0,1,.059-.079l.237-.137a.042.042,0,0,1,.06.01.139.139,0,0,1,.025.09v.128a1.7,1.7,0,0,1,.173-.306.775.775,0,0,1,.242-.212l.14-.081a.043.043,0,0,1,.06.01.14.14,0,0,1,.025.091v.366a.306.306,0,0,1-.025.12.158.158,0,0,1-.06.079Z" transform="translate(-194.116 -255.441)" fill="#fafafa"/>
              <path id="Trazado_725238" data-name="Trazado 725238" d="M207.406,258.606a.042.042,0,0,1,.06.01.139.139,0,0,1,.025.09v.394a.308.308,0,0,1-.025.12.156.156,0,0,1-.06.078l-1.366.789a.042.042,0,0,1-.06-.01.14.14,0,0,1-.025-.091V256.4a.306.306,0,0,1,.025-.119.158.158,0,0,1,.06-.079l.252-.146a.042.042,0,0,1,.06.01.139.139,0,0,1,.025.091v3.04Z" transform="translate(-197.555 -252.496)" fill="#fafafa"/>
              <path id="Trazado_725239" data-name="Trazado 725239" d="M211.47,254.919a.524.524,0,0,1,.311-.085.373.373,0,0,1,.24.122.752.752,0,0,1,.162.295,1.572,1.572,0,0,1,.071.436c0,.032,0,.074,0,.126v.308c0,.05,0,.092,0,.127a2.919,2.919,0,0,1-.072.518,2.519,2.519,0,0,1-.161.478,1.906,1.906,0,0,1-.24.4,1.108,1.108,0,0,1-.311.274.524.524,0,0,1-.311.085.379.379,0,0,1-.24-.119.731.731,0,0,1-.161-.292,1.75,1.75,0,0,1-.072-.436c0-.032,0-.073,0-.122s0-.1,0-.151,0-.1,0-.157,0-.1,0-.13a2.721,2.721,0,0,1,.07-.518,2.691,2.691,0,0,1,.163-.482,1.9,1.9,0,0,1,.24-.4A1.1,1.1,0,0,1,211.47,254.919Zm.378,1.03a.887.887,0,0,0-.046-.259.266.266,0,0,0-.089-.129.152.152,0,0,0-.115-.025.39.39,0,0,0-.128.049.627.627,0,0,0-.128.1.656.656,0,0,0-.115.158,1.043,1.043,0,0,0-.089.232,1.566,1.566,0,0,0-.045.312c0,.031,0,.069,0,.114s0,.091,0,.139,0,.095,0,.141,0,.081,0,.106a.9.9,0,0,0,.045.259.267.267,0,0,0,.089.129.15.15,0,0,0,.115.025.388.388,0,0,0,.128-.049.64.64,0,0,0,.128-.1.664.664,0,0,0,.115-.158,1.052,1.052,0,0,0,.089-.232,1.533,1.533,0,0,0,.046-.312c0-.026,0-.063,0-.11v-.28C211.851,256.014,211.85,255.978,211.848,255.949Z" transform="translate(-200.393 -251.764)" fill="#fafafa"/>
              <path id="Trazado_725240" data-name="Trazado 725240" d="M216.5,255.1a.557.557,0,0,0,.135-.113.844.844,0,0,0,.124-.186,1.213,1.213,0,0,0,.128-.551v-.205c-.017.043-.038.091-.066.146a1.248,1.248,0,0,1-.1.165,1.206,1.206,0,0,1-.134.161.787.787,0,0,1-.173.133.363.363,0,0,1-.282.055.385.385,0,0,1-.215-.164,1.02,1.02,0,0,1-.141-.335,2.146,2.146,0,0,1-.058-.458c0-.054,0-.118,0-.193s0-.139,0-.2a3.227,3.227,0,0,1,.058-.524,2.938,2.938,0,0,1,.141-.5,1.9,1.9,0,0,1,.215-.413.888.888,0,0,1,.282-.271.49.49,0,0,1,.173-.067.325.325,0,0,1,.134.006.25.25,0,0,1,.1.052.391.391,0,0,1,.066.07v-.128a.3.3,0,0,1,.025-.119.156.156,0,0,1,.059-.079l.237-.137a.042.042,0,0,1,.06.01.137.137,0,0,1,.025.09v2.6a2.734,2.734,0,0,1-.211,1.134,1.431,1.431,0,0,1-.582.677.632.632,0,0,1-.295.1.4.4,0,0,1-.235-.064.469.469,0,0,1-.159-.191.725.725,0,0,1-.065-.286.25.25,0,0,1,.024-.119.16.16,0,0,1,.061-.079l.212-.123a.054.054,0,0,1,.074.01.568.568,0,0,1,.054.067.182.182,0,0,0,.111.091A.32.32,0,0,0,216.5,255.1Zm-.374-1.936a2.373,2.373,0,0,0,0,.311.683.683,0,0,0,.125.446.2.2,0,0,0,.258.009.677.677,0,0,0,.258-.31,1.394,1.394,0,0,0,.12-.53c0-.058.006-.129.006-.214s0-.154-.006-.207a.6.6,0,0,0-.12-.385.193.193,0,0,0-.258-.018.677.677,0,0,0-.258.308A1.543,1.543,0,0,0,216.129,253.165Z" transform="translate(-203.42 -249.609)" fill="#fafafa"/>
              <path id="Trazado_725241" data-name="Trazado 725241" d="M221.446,247.158a.042.042,0,0,1,.06.01.141.141,0,0,1,.025.091v.433a.3.3,0,0,1-.025.12.163.163,0,0,1-.06.079l-.268.155a.043.043,0,0,1-.06-.01.139.139,0,0,1-.025-.091v-.433a.3.3,0,0,1,.025-.12.153.153,0,0,1,.06-.078Zm.069,3.749a.3.3,0,0,1-.025.12.16.16,0,0,1-.06.079l-.236.137a.042.042,0,0,1-.06-.01.137.137,0,0,1-.025-.091v-2.585a.3.3,0,0,1,.025-.119.157.157,0,0,1,.06-.079l.236-.137a.042.042,0,0,1,.06.01.136.136,0,0,1,.025.091Z" transform="translate(-206.647 -247.15)" fill="#fafafa"/>
              <path id="Trazado_725242" data-name="Trazado 725242" d="M225.14,249.763a.3.3,0,0,1-.025.119.158.158,0,0,1-.059.079l-.238.137a.042.042,0,0,1-.059-.011.137.137,0,0,1-.025-.09v-1.409a1,1,0,0,0-.087-.482q-.087-.149-.268-.045a.64.64,0,0,0-.26.35,1.673,1.673,0,0,0-.1.588v1.409a.307.307,0,0,1-.025.119.157.157,0,0,1-.059.079l-.237.137a.042.042,0,0,1-.059-.01.138.138,0,0,1-.025-.091v-2.586a.3.3,0,0,1,.025-.119.159.159,0,0,1,.059-.079l.237-.137a.042.042,0,0,1,.059.01.14.14,0,0,1,.025.091v.128a1.913,1.913,0,0,1,.191-.348.793.793,0,0,1,.259-.244.443.443,0,0,1,.318-.079.328.328,0,0,1,.206.164.981.981,0,0,1,.111.349,3.252,3.252,0,0,1,.033.478Z" transform="translate(-208.162 -247.223)" fill="#fafafa"/>
            </g>
            <g id="Grupo_1011705" data-name="Grupo 1011705" transform="translate(48.776 9)">
              <path id="Trazado_725243" data-name="Trazado 725243" d="M271.8,210.6l-3.88,2.24.6-5.442a1.829,1.829,0,0,1-.76-1.716,5.026,5.026,0,0,1,2.1-4.01c1.159-.669,2.1.042,2.1,1.587a5.272,5.272,0,0,1-.76,2.593Z" transform="translate(-267.764 -201.421)" fill="#455a64"/>
              <path id="Trazado_725244" data-name="Trazado 725244" d="M272.041,221.438l-3.415-1.971-.465,4.211Z" transform="translate(-268.003 -212.259)" fill="#37474f"/>
              <path id="Trazado_725245" data-name="Trazado 725245" d="M270.328,201.673a4.581,4.581,0,0,0-1.79,2.375l3.128,1.806h0a5.271,5.271,0,0,0,.76-2.593C272.426,201.714,271.487,201,270.328,201.673Z" transform="translate(-268.229 -201.421)" fill="#37474f"/>
            </g>
          </g>
          <g id="Grupo_1011712" data-name="Grupo 1011712" transform="translate(39.51 38.155)">
            <g id="Grupo_1011708" data-name="Grupo 1011708">
              <g id="Grupo_1011707" data-name="Grupo 1011707">
                <path id="Trazado_725246" data-name="Trazado 725246" d="M206.973,155.967c-1.327-.768-3.16-.659-5.187.511a16.206,16.206,0,0,0-7.332,12.7c0,2.347.828,3.992,2.163,4.754.348.2,2.234,1.3,2.584,1.5,1.326.767,3.159.657,5.185-.512a16.209,16.209,0,0,0,7.332-12.7c0-2.337-.82-3.978-2.146-4.744" transform="translate(-194.455 -155.477)" fill="#a5d3d4" stroke="#a4d2d3" stroke-width="3"/>
                <path id="Trazado_725247" data-name="Trazado 725247" d="M208.293,160.25a16.209,16.209,0,0,0-7.332,12.7c0,4.676,3.284,6.572,7.333,4.234a16.2,16.2,0,0,0,7.332-12.7C215.622,159.807,212.339,157.912,208.293,160.25Z" transform="translate(-198.362 -157.742)" fill="#a5d3d4" stroke="#a4d2d3" stroke-width="3"/>
                <path id="Trazado_725248" data-name="Trazado 725248" d="M217.279,183.674v.534a11.77,11.77,0,0,1-4.049,4.241,4.088,4.088,0,0,1-4.049.429v-1.106a7.207,7.207,0,0,1,3.3-5.717l1.065-.612a2.532,2.532,0,0,1,2.581-.2A2.664,2.664,0,0,1,217.279,183.674Z" transform="translate(-203.299 -170.791)" fill="#a5d3d4" stroke="#a4d2d3" stroke-width="3"/>
                <path id="Trazado_725249" data-name="Trazado 725249" d="M208.582,155.967l2.6,1.507c-1.328-.769-3.161-.66-5.186.51a15.987,15.987,0,0,0-6.263,7.679l-2.6-1.508a15.966,15.966,0,0,1,6.263-7.678C205.422,155.309,207.255,155.2,208.582,155.967Z" transform="translate(-196.063 -155.477)" fill="#fff" opacity="0.4"/>
                <path id="Trazado_725250" data-name="Trazado 725250" d="M199.1,195.978c-.457-.264-2.166-1.259-2.486-1.442-1.336-.762-2.163-2.407-2.163-4.753l2.6,1.507C197.054,193.57,197.836,195.189,199.1,195.978Z" transform="translate(-194.454 -176.08)" opacity="0.2"/>
                <path id="Trazado_725251" data-name="Trazado 725251" d="M195.524,177.205l2.6,1.508a13.614,13.614,0,0,0-1.07,5.022h0l-2.6-1.507A13.627,13.627,0,0,1,195.524,177.205Z" transform="translate(-194.454 -168.526)" opacity="0.1"/>
              </g>
            </g>
            <g id="Grupo_1011711" data-name="Grupo 1011711" transform="translate(5.883 4.684)">
              <g id="Grupo_1011709" data-name="Grupo 1011709" transform="translate(1.656)">
                <path id="Trazado_725252" data-name="Trazado 725252" d="M214.8,172.923a1.4,1.4,0,0,1-.7-.184,1.728,1.728,0,0,1-.766-1.591,4.566,4.566,0,0,1,2.094-3.626h0a1.568,1.568,0,0,1,2.526,1.46,4.569,4.569,0,0,1-2.093,3.627A2.141,2.141,0,0,1,214.8,172.923Z" transform="translate(-213.327 -167.204)" fill="#fff"/>
              </g>
              <g id="Grupo_1011710" data-name="Grupo 1011710" transform="translate(0 5.5)">
                <path id="Trazado_725253" data-name="Trazado 725253" d="M216.127,181.244a2.532,2.532,0,0,0-2.581.2l-1.065.612a7.207,7.207,0,0,0-3.3,5.717v1.106a4.088,4.088,0,0,0,4.049-.429,11.77,11.77,0,0,0,4.049-4.241v-.534A2.664,2.664,0,0,0,216.127,181.244Z" transform="translate(-209.182 -180.975)" fill="#fff"/>
              </g>
            </g>
          </g>
        </g>
      </g>
      <g id="Plants" transform="translate(180.686 144.722)">
        <g id="Plants-2" data-name="Plants">
          <g id="Grupo_1011715" data-name="Grupo 1011715">
            <g id="Grupo_1011713" data-name="Grupo 1011713">
              <path id="Trazado_725254" data-name="Trazado 725254" d="M432.154,332.974a22.2,22.2,0,0,1,2.851-8.285c2.32-3.62,5.509-5.88,8.484-6.116s5.377,2.5,2.194,4.382-8.839,3.8-11.441,10.828Z" transform="translate(-432.154 -318.558)" fill="#a5d3d4" stroke="#a4d2d3" stroke-width="3"/>
              <path id="Trazado_725255" data-name="Trazado 725255" d="M432.154,332.974a22.2,22.2,0,0,1,2.851-8.285c2.32-3.62,5.509-5.88,8.484-6.116s5.377,2.5,2.194,4.382-8.839,3.8-11.441,10.828Z" transform="translate(-432.154 -318.558)" opacity="0.1"/>
            </g>
            <g id="Grupo_1011714" data-name="Grupo 1011714" transform="translate(0.742 1.396)">
              <path id="Trazado_725256" data-name="Trazado 725256" d="M434.142,333.862a.15.15,0,0,1-.032-.009.159.159,0,0,1-.087-.207c3.139-7.732,9.116-10.96,11.838-11.587a.159.159,0,1,1,.071.31c-2.666.614-8.525,3.787-11.615,11.4A.159.159,0,0,1,434.142,333.862Z" transform="translate(-434.012 -322.054)" fill="#fff"/>
            </g>
          </g>
          <g id="Grupo_1011720" data-name="Grupo 1011720" transform="translate(0.896 9.292)">
            <g id="Grupo_1011717" data-name="Grupo 1011717" transform="translate(0.213)">
              <g id="Grupo_1011716" data-name="Grupo 1011716">
                <path id="Trazado_725257" data-name="Trazado 725257" d="M450.586,345.824A2.628,2.628,0,0,1,449.036,347a3.044,3.044,0,0,0-1.619,1.089c-.671,1.16.431,2.791-.29,3.92a2.077,2.077,0,0,1-1.418.822,13.851,13.851,0,0,1-1.394.124,5.471,5.471,0,0,1-.662-.052,3.012,3.012,0,0,0-1.919.2c-.922.518-1.205,1.682-1.765,2.58a4.378,4.378,0,0,1-3.105,1.948,3.047,3.047,0,0,1-1.607-.106.745.745,0,0,1-.087-.056s-.005,0-.008-.008c-.058-.065-.131-.149-.162-.194a.086.086,0,0,1-.016-.028,6.669,6.669,0,0,1,.114-1.849c0-.039,0-.076,0-.113-.026-.722-.046-1.44-.063-2.16q-.05-1.989-.039-3.98a6.5,6.5,0,0,1,.27-2.617c.4-.893,1.408-.912,1.787-1.788.152-.349.233-.723.38-1.076a3.085,3.085,0,0,1,2.628-1.835c1.752-.089,3.325,1.33,5.076,1.2a13.193,13.193,0,0,0,1.342-.256,3.8,3.8,0,0,1,3.858,1.339A1.839,1.839,0,0,1,450.586,345.824Z" transform="translate(-434.931 -341.821)" fill="#a5d3d4" stroke="#a4d2d3" stroke-width="3"/>
              </g>
            </g>
            <g id="Grupo_1011718" data-name="Grupo 1011718" transform="translate(0 2.227)">
              <path id="Trazado_725258" data-name="Trazado 725258" d="M434.52,357.831l-.012,0a.149.149,0,0,1-.105-.183c2.421-9.085,11.993-10.4,14.232-10.236a.151.151,0,0,1,.139.16.149.149,0,0,1-.16.138c-2.19-.158-11.553,1.126-13.922,10.015A.149.149,0,0,1,434.52,357.831Z" transform="translate(-434.397 -347.397)" fill="#fff"/>
            </g>
            <g id="Grupo_1011719" data-name="Grupo 1011719" transform="translate(3.993 5.787)">
              <path id="Trazado_725259" data-name="Trazado 725259" d="M451.159,358.58a.146.146,0,0,1-.079-.042,7.955,7.955,0,0,0-6.514-1.835.149.149,0,1,1-.044-.3,8.259,8.259,0,0,1,6.77,1.92.149.149,0,0,1,0,.211A.151.151,0,0,1,451.159,358.58Z" transform="translate(-444.395 -356.31)" fill="#fff"/>
            </g>
          </g>
        </g>
      </g>
      <g id="Clouds" transform="translate(157.052 44.923)">
        <g id="Clouds-2" data-name="Clouds">
          <path id="Trazado_725260" data-name="Trazado 725260" d="M374.635,73.218l1.271.489v-2.8c0-2.22,1.771-2.752,3.693-1.642h0a7.694,7.694,0,0,1,3.481,6.029V75.7a1.865,1.865,0,0,1,1.615.249h0a5.536,5.536,0,0,1,2.5,4.339v.185l1.773,1.023a3.646,3.646,0,0,1,1.65,2.857c0,1.052-.739,1.478-1.65.952l-14.338-8.278a3.646,3.646,0,0,1-1.65-2.857C372.985,73.118,373.724,72.692,374.635,73.218Z" transform="translate(-372.985 -68.703)" fill="#fff"/>
          <path id="Trazado_725261" data-name="Trazado 725261" d="M418.152,72.572l2.3,1.33a2.841,2.841,0,0,1-.019-.305v-.667c0-1.188.834-1.67,1.863-1.076a3.607,3.607,0,0,1,1.11,1.068c.168-1.494,1.34-2.05,2.764-1.228a6.16,6.16,0,0,1,2.787,4.827v1a2.633,2.633,0,0,1-.236,1.157l1.914,1.105a2.285,2.285,0,0,1,1.033,1.79c0,.659-.463.926-1.033.6l-12.488-7.21a2.284,2.284,0,0,1-1.033-1.79C417.119,72.509,417.582,72.242,418.152,72.572Z" transform="translate(-399.491 -70.271)" fill="#fff"/>
        </g>
      </g>
      <g id="Character" transform="translate(128.802 87.405)">
        <g id="Character-2" data-name="Character">
          <g id="Grupo_1011727" data-name="Grupo 1011727" transform="translate(16.651)">
            <g id="Grupo_1011726" data-name="Grupo 1011726">
              <path id="Trazado_725262" data-name="Trazado 725262" d="M365.285,218.988a41.46,41.46,0,0,1-4.425,6.482,46.586,46.586,0,0,1-9.186,2.8,1.471,1.471,0,0,1-.993-.234,8.331,8.331,0,0,0-2.2-.876c-.642-.222-.914-.528-1.035-.412a.729.729,0,0,0,.067,1.017,5.308,5.308,0,0,0,1.016.761,6.02,6.02,0,0,1-2.678.046c-1.712-.449-2.521.374-1.363,2.233.415.666,2.047,1.732,5.356,1.444a29.361,29.361,0,0,0,3.515-.416c3.174-.677,6.7-1.333,8.871-1.981a5.631,5.631,0,0,0,2.107-1.46c3.648-4.158,4.857-7.121,6.456-9.815l-.138-4.4C368.071,214.092,366.689,216.614,365.285,218.988Z" transform="translate(-343.947 -198.549)" fill="#ffa8a7"/>
              <path id="Trazado_725263" data-name="Trazado 725263" d="M398.6,213.907a4.167,4.167,0,0,0-3.955,1.691c-1.776,2.272-4.916,7.73-4.916,7.73a5.3,5.3,0,0,0,3.8,3.186l4.453-6.015S400.088,216.336,398.6,213.907Z" transform="translate(-371.44 -198.363)" fill="#455a64"/>
              <g id="Grupo_1011721" data-name="Grupo 1011721" transform="translate(16.884 32.038)">
                <rect id="Rectángulo_348681" data-name="Rectángulo 348681" width="2.903" height="5.176" transform="translate(16.996 44.843)" fill="#ffa8a7"/>
                <path id="Trazado_725264" data-name="Trazado 725264" d="M406.259,358.609l-2.9.1-.145-5.477,3.046-.1Z" transform="translate(-396.424 -314.043)" fill="#ffa8a7"/>
                <path id="Trazado_725265" data-name="Trazado 725265" d="M414.014,255.3c0,2.887-.425,26.121-.425,26.121a18.815,18.815,0,0,1,.653,5.554c-.22,4.334-.513,15.724-.513,15.724a3.684,3.684,0,0,1-3.232.066s-2.353-15.961-2.874-20.257c-.454-3.749-1.616-16.185-1.616-16.185L404.434,281a17.873,17.873,0,0,1,.36,4.8c-.136,1.987-1.069,12.334-1.069,12.334a3.828,3.828,0,0,1-3.352.267s-1.651-15.583-1.685-17.406c-.038-2.079.965-25.731.965-25.731Z" transform="translate(-393.707 -255.269)" fill="#37474f"/>
                <path id="Trazado_725266" data-name="Trazado 725266" d="M421.864,376.1v-.433c-.278.126-.923,2.691-2.075,3.785-.916.87-2.165,1.875-2.482,2.844-.331,1.009,1.74,1.565,2.595,1.408a6.1,6.1,0,0,0,3.149-1.588c.433-.675.635-1.672.987-2.168s1.161-1.048,1.352-1.621a3.8,3.8,0,0,0-.167-1.587c-.134-.534-.28-1.122-.455-1.072,0,.065,0,.33,0,.33a2.242,2.242,0,0,1-1.452.511C422.891,376.528,421.86,376.44,421.864,376.1Z" transform="translate(-404.868 -327.577)" fill="#263238"/>
                <path id="Trazado_725267" data-name="Trazado 725267" d="M393.121,364.472c-.151.005-.274.227-.606.6a6.362,6.362,0,0,1-1.708,1.28c-1.087.567-3.2,1.438-4.157,1.887-.6.28-.569,1.032.048,1.459a5.391,5.391,0,0,0,3.9.319c.975-.227,2.245-1.166,3.049-1.115a5.793,5.793,0,0,0,2.9-.387c.593-.426.356-1.335.188-2.117-.183-.853-.412-2.183-.683-2.125v.294c-.349.55-2.15.774-2.917.369Z" transform="translate(-386.219 -320.734)" fill="#263238"/>
                <path id="Trazado_725268" data-name="Trazado 725268" d="M410.937,279.318A10.624,10.624,0,0,1,406.9,276.9a8.534,8.534,0,0,0,3.1,2.937l-.5,13.105Z" transform="translate(-398.636 -268.262)" fill="#263238"/>
              </g>
              <g id="Grupo_1011722" data-name="Grupo 1011722" transform="translate(22.466 15.544)">
                <path id="Trazado_725269" data-name="Trazado 725269" d="M413.293,214.408s2.387.552,2.225,4.88l-.5,6.893.014,10.345c-2.135,2.419-11.6,2.242-14.838-.193,0,0,.367-12.242.586-16.953.156-3.349.926-5.035,4.218-5.4l4.048.178Z" transform="translate(-400.193 -213.975)" fill="#a5d3d4" stroke="#a4d2d3" stroke-width="3"/>
              </g>
              <g id="Grupo_1011725" data-name="Grupo 1011725" transform="translate(22.913)">
                <path id="Trazado_725270" data-name="Trazado 725270" d="M412.078,185.767a4.414,4.414,0,0,1-4.321,4.5c-2.387,0-3.8-2.071-4.322-4.5-.955-4.445,1.935-4.5,4.322-4.5A4.414,4.414,0,0,1,412.078,185.767Z" transform="translate(-402.474 -178.787)" fill="#263238"/>
                <g id="Grupo_1011723" data-name="Grupo 1011723">
                  <path id="Trazado_725271" data-name="Trazado 725271" d="M428.254,197.094a37.991,37.991,0,0,1-.929,3.776,1.414,1.414,0,0,1-.815.685l.046-2.282Z" transform="translate(-416.445 -188.293)" fill="#263238"/>
                  <path id="Trazado_725272" data-name="Trazado 725272" d="M428.166,185.451s.475-.119.98.67A4.923,4.923,0,0,1,429,190.1l-1.249.149Z" transform="translate(-417.189 -181.297)" fill="#263238"/>
                  <path id="Trazado_725273" data-name="Trazado 725273" d="M429.943,185.931l1.531.028a.722.722,0,0,0-.7-.809A.848.848,0,0,0,429.943,185.931Z" transform="translate(-418.507 -181.12)" fill="#263238"/>
                  <path id="Trazado_725274" data-name="Trazado 725274" d="M430.121,184.171l1.134-1.091a.732.732,0,0,0-1.074-.042A.834.834,0,0,0,430.121,184.171Z" transform="translate(-418.498 -179.723)" fill="#263238"/>
                  <path id="Trazado_725275" data-name="Trazado 725275" d="M413.429,187.249c.25.156.608-.345.916-.681a1.066,1.066,0,0,1,1.781.449,2.046,2.046,0,0,1-1.074,2.552c-1.288.641-1.7-.29-1.7-.29l-.1,5.137c-1.816,2.808-5.928,2.707-4.449-.136l0-1.564a8.276,8.276,0,0,1-1.844.1,2.565,2.565,0,0,1-1.943-2.122c-.49-1.821-.676-3.292-.26-6.873.456-3.926,4.839-3.967,7.207-2.415S413.429,187.249,413.429,187.249Z" transform="translate(-403.244 -178.298)" fill="#ffa8a7"/>
                  <path id="Trazado_725276" data-name="Trazado 725276" d="M406.033,179.969c1.047-.1,2.082-.318,3.132-.4a2.029,2.029,0,0,1,.679.033c.8.217.7,1.152.828,1.8.22,1.125.4,3.03.825,3.039.126,0,.6-.825.916-1.12a1.631,1.631,0,0,0,.28-.859c.08-.466.123-.938.159-1.41.03-.4.07-.8.069-1.2a5.516,5.516,0,0,0-.105-1.344,2.338,2.338,0,0,0-.56-1.007c-.026-.03-.053-.06-.08-.088a5.3,5.3,0,0,0-1.875-1.263,11.3,11.3,0,0,0-3.171-.689,32.277,32.277,0,0,1-3.232-.389.336.336,0,0,0-.187,0,.3.3,0,0,0-.152.24,1.332,1.332,0,0,0,.542,1.316,7.273,7.273,0,0,1-2.252-.508.463.463,0,0,0-.355,0,.355.355,0,0,0-.14.2,1.318,1.318,0,0,0-.02.578,3.328,3.328,0,0,0,.623,1.589,3.911,3.911,0,0,0,2.159,1.411A6.275,6.275,0,0,0,406.033,179.969Z" transform="translate(-401.312 -175.06)" fill="#263238"/>
                  <path id="Trazado_725277" data-name="Trazado 725277" d="M415.235,208.115a16.672,16.672,0,0,0,3.03-.906,2.643,2.643,0,0,0,1.085-1.118,3.754,3.754,0,0,1-.616,1.318c-.574.764-3.5,1.327-3.5,1.327Z" transform="translate(-409.674 -193.696)" fill="#f28f8f"/>
                </g>
                <g id="Grupo_1011724" data-name="Grupo 1011724" transform="translate(1.867 5.897)">
                  <path id="Trazado_725278" data-name="Trazado 725278" d="M416.586,195.273a.451.451,0,1,0,.45-.488A.468.468,0,0,0,416.586,195.273Z" transform="translate(-412.352 -192.803)" fill="#263238"/>
                  <path id="Trazado_725279" data-name="Trazado 725279" d="M418.4,190.678l.962.553a.614.614,0,0,0-.224-.8A.527.527,0,0,0,418.4,190.678Z" transform="translate(-413.439 -190.148)" fill="#263238"/>
                  <path id="Trazado_725280" data-name="Trazado 725280" d="M414.2,204.11l-1.027.4a.534.534,0,0,0,.7.355A.606.606,0,0,0,414.2,204.11Z" transform="translate(-410.303 -198.404)" fill="#f28f8f"/>
                  <path id="Trazado_725281" data-name="Trazado 725281" d="M406.093,190.765l.878-.7a.518.518,0,0,0-.763-.122A.623.623,0,0,0,406.093,190.765Z" transform="translate(-405.987 -189.823)" fill="#263238"/>
                  <path id="Trazado_725282" data-name="Trazado 725282" d="M407.219,194.939a.451.451,0,1,0,.45-.488A.467.467,0,0,0,407.219,194.939Z" transform="translate(-406.727 -192.603)" fill="#263238"/>
                  <path id="Trazado_725283" data-name="Trazado 725283" d="M410.743,194.731l-.052,2.841-1.613-.37Z" transform="translate(-407.843 -192.771)" fill="#f28f8f"/>
                </g>
              </g>
            </g>
          </g>
          <g id="Grupo_1011732" data-name="Grupo 1011732" transform="translate(0 18.741)">
            <g id="Grupo_1011728" data-name="Grupo 1011728" transform="translate(6.013 10.255)">
              <path id="Trazado_725284" data-name="Trazado 725284" d="M317.314,250.3l2.5-1.444.992-1.2-2.5,1.444-.992,1.2" transform="translate(-317.314 -247.653)" fill="#a5d3d4" stroke="#a4d2d3" stroke-width="3"/>
              <path id="Trazado_725285" data-name="Trazado 725285" d="M317.314,250.3l2.5-1.444.992-1.2-2.5,1.444-.992,1.2" transform="translate(-317.314 -247.653)" opacity="0.4"/>
            </g>
            <g id="Grupo_1011729" data-name="Grupo 1011729" transform="translate(12.822 13.536)">
              <path id="Trazado_725286" data-name="Trazado 725286" d="M334.361,259.163l2.5-1.444,2.091-1.851-2.5,1.444-2.091,1.851" transform="translate(-334.361 -255.868)" fill="#a5d3d4" stroke="#a4d2d3" stroke-width="3"/>
              <path id="Trazado_725287" data-name="Trazado 725287" d="M334.361,259.163l2.5-1.444,2.091-1.851-2.5,1.444-2.091,1.851" transform="translate(-334.361 -255.868)" opacity="0.4"/>
            </g>
            <path id="Trazado_725288" data-name="Trazado 725288" d="M336.356,243.8a5.332,5.332,0,0,1,1.034,2.723A5.336,5.336,0,0,1,336.356,243.8Zm5.817.075c-.842-5.732-3.922-11.4-7.593-13.522a4.517,4.517,0,0,0-4.7-.292c-.382.222-1.8,1.039-2.357,1.359a1.33,1.33,0,0,0-.131.078,3.434,3.434,0,0,0-.3.193,4.232,4.232,0,0,0-.542.448c-.024.02-.049.049-.078.074-.074.074-.148.156-.218.238-.086.1-.173.2-.25.308a5.816,5.816,0,0,0-.46.706c-.07.123-.14.255-.205.39L304.76,221.979l-2.5,1.441v1.593l.213.123.2.115v.337l-.411.238v.928l3.022,6.4,2.989,1.729.994-1.2,2.636,1.577,1.515,2.6,1.667.961,2.09-1.852,2.566,1.482L320.6,242l4.3,2.48a23.621,23.621,0,0,0,.813,2.673c.029.09.062.181.1.279,1.429,3.757,3.7,6.972,6.266,8.455a6.653,6.653,0,0,0,.965.464,4.959,4.959,0,0,0,.538.181,4.06,4.06,0,0,0,.48.107,4.134,4.134,0,0,0,1.523,0l.209-.05a1.779,1.779,0,0,0,.292-.086l.222-.086a1.645,1.645,0,0,0,.23-.107,2.161,2.161,0,0,0,.214-.111c.037-.021.074-.041.107-.062a.15.15,0,0,0,.049-.029c.571-.328,1.979-1.142,2.361-1.359,1.9-1.1,3.133-3.889,3.133-7.831A20.559,20.559,0,0,0,342.173,243.878Z" transform="translate(-302.26 -221.979)" fill="#a5d3d4" stroke="#a4d2d3" stroke-width="3"/>
            <path id="Trazado_725289" data-name="Trazado 725289" d="M335.623,250.8a4.714,4.714,0,0,1-1.787-3.784c0-1.52.8-2.29,1.787-1.72a4.715,4.715,0,0,1,1.787,3.784C337.41,250.6,336.61,251.374,335.623,250.8Zm4.05-3.318c-.842-5.728-3.922-11.4-7.593-13.518a4.573,4.573,0,0,0-4.554-.377,1.331,1.331,0,0,0-.131.078,3.433,3.433,0,0,0-.3.193,4.233,4.233,0,0,0-.542.448c-.024.02-.049.049-.078.074-.074.074-.148.156-.218.238-.086.1-.173.2-.25.308a5.819,5.819,0,0,0-.46.706c-.07.123-.14.255-.205.39a9.9,9.9,0,0,0-.793,2.431L302.26,225.587v1.593l.213.123.2.115v.337l-.411.238v.928l3.022,6.4,2.989,1.729.994-1.2,2.636,1.577,1.515,2.6,1.667.961,2.09-1.852,2.566,1.482.862,3.556,4.3,2.48a23.623,23.623,0,0,0,.813,2.673c.029.09.062.181.1.279,1.429,3.757,3.7,6.972,6.266,8.455a6.659,6.659,0,0,0,.965.464,4.959,4.959,0,0,0,.538.181,4.06,4.06,0,0,0,.48.107,4.135,4.135,0,0,0,1.523,0l.209-.05a1.775,1.775,0,0,0,.292-.086l.222-.086a1.641,1.641,0,0,0,.23-.107,2.161,2.161,0,0,0,.214-.111c.037-.021.074-.041.107-.062a.151.151,0,0,0,.049-.029c1.823-1.149,2.994-3.9,2.994-7.744A21.2,21.2,0,0,0,339.672,247.486Z" transform="translate(-302.26 -224.146)" fill="#a5d3d4" stroke="#a4d2d3" stroke-width="3"/>
            <path id="Trazado_725290" data-name="Trazado 725290" d="M384.883,278.443c0,1.519-.8,2.292-1.786,1.721a4.708,4.708,0,0,1-1.791-3.782c0-1.519.8-2.291,1.791-1.72a2.53,2.53,0,0,1,.731.669,5.367,5.367,0,0,0,1.035,2.723A3.17,3.17,0,0,1,384.883,278.443Z" transform="translate(-349.733 -253.505)" opacity="0.4"/>
            <path id="Trazado_725291" data-name="Trazado 725291" d="M380.392,258.275c0,3.942-1.232,6.73-3.133,7.831-.382.217-1.79,1.031-2.361,1.359,1.823-1.15,2.994-3.9,2.994-7.744a21.209,21.209,0,0,0-.23-3.038c-.842-5.728-3.922-11.4-7.593-13.518a4.573,4.573,0,0,0-4.554-.377c.558-.32,1.975-1.138,2.357-1.359a4.517,4.517,0,0,1,4.7.292c3.671,2.119,6.751,7.79,7.593,13.522A20.558,20.558,0,0,1,380.392,258.275Z" transform="translate(-340.249 -233.342)" fill="#fff" opacity="0.4"/>
            <g id="Grupo_1011730" data-name="Grupo 1011730" transform="translate(34.649 24.495)">
              <path id="Trazado_725292" data-name="Trazado 725292" d="M392,285.188c0,3.848-1.17,6.595-2.994,7.745.571-.328,1.979-1.142,2.361-1.359,1.9-1.1,3.133-3.889,3.133-7.831,0-.145-.005-.292-.008-.438l-2.5,1.444C391.994,284.9,392,285.042,392,285.188Z" transform="translate(-389.006 -283.305)" fill="#a5d3d4" stroke="#a4d2d3" stroke-width="3"/>
              <path id="Trazado_725293" data-name="Trazado 725293" d="M392,285.188c0,3.848-1.17,6.595-2.994,7.745.571-.328,1.979-1.142,2.361-1.359,1.9-1.1,3.133-3.889,3.133-7.831,0-.145-.005-.292-.008-.438l-2.5,1.444C391.994,284.9,392,285.042,392,285.188Z" transform="translate(-389.006 -283.305)" opacity="0.1"/>
            </g>
            <g id="Grupo_1011731" data-name="Grupo 1011731" transform="translate(0 3.273)">
              <path id="Trazado_725294" data-name="Trazado 725294" d="M324.635,242.852v.813L302.26,230.747l.411-.238v-.337Z" transform="translate(-302.26 -230.172)" opacity="0.15"/>
              <path id="Trazado_725295" data-name="Trazado 725295" d="M324.635,243.689v.476L302.26,231.247l.411-.238v0Z" transform="translate(-302.26 -230.672)" opacity="0.15"/>
            </g>
            <ellipse id="Elipse_8799" data-name="Elipse 8799" cx="5.908" cy="11.055" rx="5.908" ry="11.055" transform="translate(20.928 13.026) rotate(-17.064)" fill="none" stroke="#000" stroke-miterlimit="10" stroke-width="1" opacity="0.15"/>
            <path id="Trazado_725296" data-name="Trazado 725296" d="M325.337,233.858a9.9,9.9,0,0,0-.793,2.431L302.26,223.42l2.5-1.441Z" transform="translate(-302.26 -221.979)" fill="#fff" opacity="0.4"/>
          </g>
          <g id="Grupo_1011733" data-name="Grupo 1011733" transform="translate(34.009 15.977)">
            <path id="Trazado_725297" data-name="Trazado 725297" d="M405.419,231.46c1.169-2.21,2.5-7.171,3.164-9.675.942-3.556-.583-5.794-2.314-5.884-1.086.165-4.65,13.137-4.65,13.137-.4.316-5.82,3.065-7.564,3.756a1.355,1.355,0,0,1-.965,0,7.8,7.8,0,0,0-2.226-.33c-.642-.064-.967-.292-1.047-.155a.733.733,0,0,0,.315.945,5.138,5.138,0,0,0,1.118.488,6.812,6.812,0,0,1-2.163.294c-1.675-.037-2.279.691-.979,2.39.814,1.064,2.124,1.4,5.073.379.85-.294,2-.865,3.072-1.254,2.215-.8,2.784-.892,4.484-1.464C403.191,233.265,404.9,232.44,405.419,231.46Z" transform="translate(-387.405 -215.565)" fill="#ffa8a7"/>
            <path id="Trazado_725298" data-name="Trazado 725298" d="M427.561,215.059a3.559,3.559,0,0,1,2.6,1.193c.593.823,1.087,1.985.494,5.176a49.277,49.277,0,0,1-1.812,6.58s-2.371,1.013-4.893-1.557l1.732-6.7S425.978,215.4,427.561,215.059Z" transform="translate(-409.353 -215.059)" fill="#455a64"/>
          </g>
        </g>
      </g>
    </g>
  </g>
</svg>
