<svg xmlns="http://www.w3.org/2000/svg" width="158" height="160" viewBox="0 0 158 160">
  <g id="Grupo_1013477" data-name="Grupo 1013477" transform="translate(-982 -2393)">
    <g id="Elipse_157" data-name="Elipse 157" transform="translate(992 2403)" fill="#fff" stroke="#3076b6" stroke-linejoin="round" stroke-width="10">
      <ellipse cx="69" cy="70" rx="69" ry="70" stroke="none"/>
      <ellipse cx="69" cy="70" rx="74" ry="75" fill="none"/>
    </g>
    <g id="Grupo_1006539" data-name="Grupo 1006539" transform="translate(984 2402)">
      <path id="Trazado_720492" data-name="Trazado 720492" d="M73.689,148.817V144H67.267v4.817H60.844V144H54.422v4.817H48v30.506H60.844v4.817h6.422v-4.817H80.111V148.817Z" transform="translate(-12.789 -95.917)" fill="#fde575"/>
      <path id="Trazado_720493" data-name="Trazado 720493" d="M73.606,192.083A1.606,1.606,0,0,1,72,190.478V169.606a1.606,1.606,0,1,1,3.211,0v20.872A1.606,1.606,0,0,1,73.606,192.083Z" transform="translate(-31.972 -115.1)" fill="#ebd46c"/>
      <path id="Trazado_720494" data-name="Trazado 720494" d="M105.606,200.111A1.606,1.606,0,0,1,104,198.506v-28.9a1.606,1.606,0,1,1,3.211,0v28.9A1.606,1.606,0,0,1,105.606,200.111Z" transform="translate(-57.55 -115.1)" fill="#ebd46c"/>
      <path id="Trazado_720495" data-name="Trazado 720495" d="M137.606,200.111A1.606,1.606,0,0,1,136,198.506v-28.9a1.606,1.606,0,1,1,3.211,0v28.9A1.606,1.606,0,0,1,137.606,200.111Z" transform="translate(-83.128 -115.1)" fill="#ebd46c"/>
      <path id="Trazado_720496" data-name="Trazado 720496" d="M169.606,200.111A1.606,1.606,0,0,1,168,198.506v-28.9a1.606,1.606,0,0,1,3.211,0v28.9A1.606,1.606,0,0,1,169.606,200.111Z" transform="translate(-108.706 -115.1)" fill="#ebd46c"/>
      <path id="Trazado_720497" data-name="Trazado 720497" d="M70.533,256l-3.211,33.717H35.211L32,256H43.239a8.028,8.028,0,1,0,16.056,0Z" transform="translate(0 -185.439)" fill="#e74444"/>
      <path id="Trazado_720498" data-name="Trazado 720498" d="M323.267,30.422v14.45h-6.422V30.422H304V24h12.844A6.422,6.422,0,0,1,323.267,30.422Z" transform="translate(-217.411)" fill="#fae8d8"/>
      <path id="Trazado_720499" data-name="Trazado 720499" d="M324.928,120v3.211L321.717,177.8H291.211L288,123.211V120Z" transform="translate(-204.622 -76.733)" fill="#757c80"/>
      <path id="Trazado_720500" data-name="Trazado 720500" d="M330.542,189.94l-.889,15.1-8.933,6.5a9.593,9.593,0,0,1-8.674,1.343,9.6,9.6,0,0,0-9.025,1.61l-6.388,5.112-.813-13.8,7.2-5.76a9.6,9.6,0,0,1,9.025-1.61,9.593,9.593,0,0,0,8.674-1.343Z" transform="translate(-210.873 -132.637)" fill="#fae8d8"/>
      <path id="Trazado_720501" data-name="Trazado 720501" d="M280,112h40.139v6.422H280Z" transform="translate(-198.228 -70.339)" fill="#99a2a7"/>
      <path id="Trazado_720502" data-name="Trazado 720502" d="M144,384h44.955v4.817a6.422,6.422,0,0,1-6.422,6.422H150.422A6.422,6.422,0,0,1,144,388.817V384Z" transform="translate(-89.522 -287.75)" fill="#fc8d36"/>
      <path id="Trazado_720503" data-name="Trazado 720503" d="M156.844,216h19.267a12.844,12.844,0,0,1,12.844,12.844v4.817H144v-4.817A12.845,12.845,0,0,1,156.844,216Z" transform="translate(-89.522 -153.467)" fill="#fc8d36"/>
      <g id="Grupo_1006538" data-name="Grupo 1006538" transform="translate(65.622 67.606)">
        <circle id="Elipse_8603" data-name="Elipse 8603" cx="1.528" cy="1.528" r="1.528" transform="translate(4.89 3.057)" fill="#ba621e"/>
        <circle id="Elipse_8604" data-name="Elipse 8604" cx="1.528" cy="1.528" r="1.528" transform="translate(0 0)" fill="#ba621e"/>
        <circle id="Elipse_8605" data-name="Elipse 8605" cx="1.528" cy="1.528" r="1.528" transform="translate(9.781 0)" fill="#ba621e"/>
        <circle id="Elipse_8606" data-name="Elipse 8606" cx="1.528" cy="1.528" r="1.528" transform="translate(14.671 3.057)" fill="#ba621e"/>
        <circle id="Elipse_8607" data-name="Elipse 8607" cx="1.528" cy="1.528" r="1.528" transform="translate(19.562 0)" fill="#ba621e"/>
      </g>
      <path id="Trazado_720504" data-name="Trazado 720504" d="M144,360h44.955v6.422H144Z" transform="translate(-89.522 -268.567)" fill="#c43333"/>
      <path id="Trazado_720505" data-name="Trazado 720505" d="M144,296h44.955v12.844H144Z" transform="translate(-89.522 -217.411)" fill="#976048"/>
      <path id="Trazado_720506" data-name="Trazado 720506" d="M153.633,296A6.424,6.424,0,0,1,144,301.563V296Z" transform="translate(-89.522 -217.411)" fill="#b0bb74"/>
      <path id="Trazado_720507" data-name="Trazado 720507" d="M204.844,296A6.422,6.422,0,1,1,192,296Z" transform="translate(-127.889 -217.411)" fill="#b0bb74"/>
      <path id="Trazado_720508" data-name="Trazado 720508" d="M268.844,296A6.422,6.422,0,0,1,256,296Z" transform="translate(-179.045 -217.411)" fill="#b0bb74"/>
      <path id="Trazado_720509" data-name="Trazado 720509" d="M329.633,296v5.563A6.424,6.424,0,0,1,320,296Z" transform="translate(-230.2 -217.411)" fill="#b0bb74"/>
      <circle id="Elipse_8608" data-name="Elipse 8608" cx="14.366" cy="14.366" r="14.366" transform="translate(91.297 86.557)" fill="#fae8d8"/>
      <path id="Trazado_720510" data-name="Trazado 720510" d="M336.056,360.111a16.056,16.056,0,1,1,16.056-16.056A16.055,16.055,0,0,1,336.056,360.111Zm0-28.9A12.844,12.844,0,1,0,348.9,344.056,12.844,12.844,0,0,0,336.056,331.211Z" transform="translate(-230.2 -242.989)" fill="#e74444"/>
      <path id="Trazado_720511" data-name="Trazado 720511" d="M342.7,372.736a1.606,1.606,0,0,1-1.135-2.741l20.435-20.435a1.606,1.606,0,0,1,2.271,2.271l-20.435,20.435a1.6,1.6,0,0,1-1.135.47Z" transform="translate(-247.057 -259.846)" fill="#e74444"/>
    </g>
  </g>
</svg>
