<svg xmlns="http://www.w3.org/2000/svg" width="192.33" height="163.225" viewBox="0 0 192.33 163.225">
  <g id="Grupo_1012178" data-name="Grupo 1012178" transform="translate(-37.457 -81)">
    <g id="Grupo_1012177" data-name="Grupo 1012177" transform="translate(58.384 86)">
      <ellipse id="Elipse_8833" data-name="Elipse 8833" cx="68.64" cy="68.626" rx="68.64" ry="68.626" transform="translate(0)" fill="#fff" stroke="#c1272d" stroke-miterlimit="10" stroke-width="10"/>
    </g>
    <path id="Trazado_730522" data-name="Trazado 730522" d="M229.3,218.882q-3.564-1.561-7.129-3.118a28.213,28.213,0,0,0-3.065-1.278,46.153,46.153,0,0,1-8.317-3.916q-1.467-.782-2.941-1.549a17.64,17.64,0,0,1-3.678-1.976,7.106,7.106,0,0,0-2.66-1.542l-2.566-2.425L159.72,184.361a12.072,12.072,0,0,0-5.342-.469c-.19.033-.554-.256-.648-.477a26.018,26.018,0,0,0-4.578-7.507,1.493,1.493,0,0,0-1.1-.494,12.432,12.432,0,0,0-3.323.829c-3.677,1.754-7.289,3.641-10.933,5.464-1.375.689-2.765,1.35-4.156,2.007-1.587.749-3.19,1.465-4.771,2.227a1.069,1.069,0,0,0-.552.451l-1.831.961-1.233.546.05.075-.834.437-2.729-4.546,2.834-5.335,1.432-3.7a13.54,13.54,0,0,0,.96-2.479l.389-1.006a17.707,17.707,0,0,0,2.87-.487,41.1,41.1,0,0,0,11.449-4.741l1.3-.423a.7.7,0,0,0,.636.271c1.483-.193,2.974-.35,4.442-.629a38.713,38.713,0,0,0,4.109-1.022c.925-.284,1.78-.79,2.7-1.116s1.858-.557,2.794-.81a1.176,1.176,0,0,1,.682-.041c.993.4,1.992.8,2.946,1.285,4.132,2.1,8.242,4.237,12.383,6.317a5.473,5.473,0,0,0,2.046.538c2.066.137,4.147.09,6.208.275,3.214.289,6.409.816,9.626,1.05,4.376.319,8.764.456,13.148.672a2.923,2.923,0,0,0,2.406-.52,4.067,4.067,0,0,0-.648-.165c-4.042-.2-8.094-.273-12.125-.611-3.541-.3-7.059-.87-10.582-1.352a11.462,11.462,0,0,1-3.036-.636,8.219,8.219,0,0,0-3.025-.592c-.43-.021-1.016,0-1.256-.25-1.206-1.284-2.856-1.534-4.391-2.071-2.374-.831-4.765-1.625-7.1-2.556-1.7-.679-3.334-1.542-4.985-2.348a4.231,4.231,0,0,1-.4-.23,5.1,5.1,0,0,0,2.094-.25l.01,0a1.938,1.938,0,0,0,1.22-.629c1.242-.744,2.824-1.892,3.807-2.626.352-.142.708-.271,1.064-.39a15.372,15.372,0,0,1,2.523-.416l3.12-.127a2.525,2.525,0,0,0,.388.15c.481.143.948.338,1.414.527a1.368,1.368,0,0,0,1.945-1.068,3.68,3.68,0,0,1,.275-.883,4.895,4.895,0,0,0,.575-3.376c-.139-.477-.828-.771-1.2-1.207a2.174,2.174,0,0,0-3.571.253,2.334,2.334,0,0,1-.352.42l-2.639-1.365c-.129-1.06-.243-1.052-1.287-.447l-.065.036a6.028,6.028,0,0,0-2.359-.853,8.868,8.868,0,0,0-5.768,1.47,18.149,18.149,0,0,0-2.922,2.342l-.281.084-.136-.075c-.092-.05-.237,0-.357,0a8.216,8.216,0,0,1-1.729.018,1.382,1.382,0,0,0-1.775.833c-.108.229-.637.329-.985.36-.8.072-1.476.3-1.675.775l-6.655,2.431-3.853-.7c2.241-2.086,3.981-3.809,4.4-4.222a19.813,19.813,0,0,0,12.015-5.915c5.161-5.186,6.55-6.766,6.767-7.018.874-.546,11.908-7.512,11.148-11.24-.218-1.069-1.317-1.764-3.267-2.065a21.5,21.5,0,0,0-16.924,4.7l-14.689,11.048-19.686,14.229a.852.852,0,0,0-.328.237l-.366.264c-.165-.015-.384-.061-.5-.069-.161.08-.317.162-.47.245.8-2.176,1.368-3.833,1.524-4.291a19.817,19.817,0,0,0,8.134-10.638c2.319-6.939,2.861-8.972,2.943-9.295.541-.877,7.329-12.02,4.992-15.023-.67-.861-1.964-.995-3.845-.4a21.5,21.5,0,0,0-13.071,11.732l-8.248,16.425-7.231,13.741a4.4,4.4,0,0,0-1.235,1.961,10.838,10.838,0,0,0-.619,1.31,15.089,15.089,0,0,0-2.3,2.05c-1.487,1.678-2.852,3.465-4.268,5.207a11.708,11.708,0,0,0-1.945,3.951l-.776-.226.77.019c-.426-.456-.638-.828-.959-1-2.066-1.118-4.135-2.235-6.256-3.242a1.713,1.713,0,0,0-1.55.2,32.457,32.457,0,0,0-3.747,4.112c-1.316,1.821-2.368,3.832-3.551,5.751q-1.734,2.813-3.5,5.6c-1.757,2.765-3.464,5.564-5.318,8.263-2.1,3.058-4.349,6.012-6.51,9.029A4.628,4.628,0,0,0,56.9,203.74a2,2,0,0,1-.731,1.625,3.229,3.229,0,0,0-.727.866c-.86,1.312-1.632,2.687-2.564,3.945-1.824,2.461-3.657,4.922-5.627,7.265-2.065,2.457-4.288,4.783-6.457,7.152-1.1,1.2-2.223,2.364-3.335,3.545l.252.333a5.98,5.98,0,0,0,1.28-.786c1.708-1.764,3.373-3.57,5.048-5.365,1.763-1.889,3.6-3.72,5.263-5.691,2.074-2.453,3.92-5.1,6.037-7.515,1.249-1.424,2.509-2.859,3.849-4.219,1.133-1.15,1.679-2.874,2.506-4.333,1.742-3.071,3.428-6.176,5.267-9.189,1.609-2.636,3.425-5.146,5.093-7.747,1.21-1.888,2.329-3.835,3.486-5.757a20.436,20.436,0,0,0,2.381-4.112c.6-1.936,2.664-1.627,3.616-2.876.029-.039.187-.008.269.027a32.919,32.919,0,0,1,3.355,1.473c1.073.608,2.058,1.375,3.214,2.19l.4.523-.029.092c-.674-.32-1.416-.7-2.182-1.025-.344-.147-.8-.356-1.089-.239-.582.238-1.375.431-1.381,1.26,0,.1,0,.2.009.293l-.5.6a5.8,5.8,0,0,0-.207,3.057c.105,2.377.066,4.761.039,7.142-.043,3.633-.162,7.265-.18,10.9l-10.129,6.709-.773,1.142a8.216,8.216,0,0,0-.935,1.382l-.227.335.112-.113a8.16,8.16,0,0,0-.842,4.438c.9-2.645,1.9-5.427,3.824-7.395l8.968-5.936c0,.121,0,.241,0,.361,0,1.483-.045,2.963-.123,4.439l-6.125,7.918-.024.074a9.864,9.864,0,0,0-1.713,6.425,59.663,59.663,0,0,1,3.448-7.7l4.351-5.62c-.214,3.377-.588,6.742-.99,10.1-.125,1.042-.59,2.065,0,3.107L67.7,238.74l-.143.6L59.514,249.3l-3.187,6.347c-.642,1.156-1.268,2.4-1.7,3.39l-.286.57-.053.264a2.022,2.022,0,0,0-.217,1.054l.01-.016-.094.471,6.625-11.26,4.925-6.878a2.447,2.447,0,0,0,1.149-1.223l2.193-2.281a3.331,3.331,0,0,0,.383-.562c.029-.078.061-.154.092-.23l3.565-5.956.23-.349c.253-.365.5-.731.748-1.1,1.175-1.78,2.525-3.443,3.73-5.2.79-1.154,1.477-2.38,2.179-3.591.312-.539.617-1.083.92-1.628l2.227-3.387,1.2-.861c0-1.564-.027-3.441,0-5.317.031-2.281.073-4.563.169-6.842.041-.975.115-1.949.186-2.923l4.362-5.634,3.479-2.739a1.23,1.23,0,0,1,.45.324c.576.753,1.063,1.574,1.629,2.436a5.585,5.585,0,0,0-.783,1.494l-.458.719-.345,1.8.536.363,1.238-.8,1.516-2.659,2.2,17.873c.048.8.1,1.6.172,2.4.128,1.45.453,2.882.625,4.329a29.828,29.828,0,0,0,1.282,6.085l.1.542.2.295c.013.033.024.067.037.1a2.1,2.1,0,0,0,.337.535c0,1.442,2.806,5.889,3.287,6.693,1.387,2.322,3.412,4.213,4.808,6.471.695-.721-2.992-5.183-4.335-7.857a38.035,38.035,0,0,0-2.549-5.034l-2.145-9.839L98.6,206.454c0-.357.029-.681.006-1-.091-1.244-.155-2.492-.3-3.729l-.086-1.39-.441-1.273a5.36,5.36,0,0,1-.107-1.308,11.054,11.054,0,0,0-.041-1.82l.014-.315-.588-2.7a1.074,1.074,0,0,1,.538-.7,3.614,3.614,0,0,0,1.665-2.933c.019-.42.114-.836.184-1.325a2.278,2.278,0,0,1,.425.2c1.159.953,2.273,1.967,3.478,2.858,1.5,1.106,3.069,2.111,4.611,3.157a4.035,4.035,0,0,0,.983.615,3.667,3.667,0,0,0,3.669-1.619c.256-.647.766-1.509-.35-2.036-.223-.105-.321-.476-.476-.725l.227-.274c.674.425,1.353.842,2.019,1.278.693.453.9,1.457,1.955,1.545a4.811,4.811,0,0,0,3.64-.677,4.293,4.293,0,0,1,2-.7,7.613,7.613,0,0,1,1.879.216l30.131-5.025c.037.065.072.134.107.206.9,1.831,1.742,3.687,2.613,5.531,1.745,3.691,3.535,7.362,5.229,11.077a78.233,78.233,0,0,1,3.076,7.42,19.051,19.051,0,0,0,2.787,5.132c1.467,2.026,2.861,4.108,4.23,6.2,1.027,1.571,1.9,3.247,2.959,4.793,1.454,2.117,3.015,4.16,4.543,6.226,1.439,1.947,2.879,3.893,4.358,5.809.217.281.65.4.983.588l.17-.286c-1.154-1.564-2.325-3.117-3.458-4.7-1.613-2.248-3.25-4.481-4.779-6.785-1.473-2.22-2.849-4.507-4.215-6.8-.705-1.181-1.3-2.429-1.939-3.648-.493-.937-.989-1.873-1.471-2.816-.205-.4-.607-.874-.526-1.223.265-1.142-.454-1.9-.913-2.727-1.568-2.827-3.321-5.557-4.8-8.429-2.251-4.381-4.344-8.844-6.471-13.288-.385-.8-.678-1.653-1.007-2.538l4.715-.787,36.614,19.342c.455.3.912.6,1.373.895a1.991,1.991,0,0,0,.831.217l3.009.976q.858.377,1.715.76a29.726,29.726,0,0,1,3.265,1.5,85.85,85.85,0,0,0,10.842,5.19c3.57,1.518,7.165,2.974,10.759,4.433a9.305,9.305,0,0,0,1.481.341l.059-.277C229.625,219.042,229.467,218.955,229.3,218.882Zm-107.65-80.832-8.375,6.622.374-2.095c3.787-6.856,7.6-13.767,10.244-18.564Zm42.582-11.745-12.868,8.916,1.828-3.789L159,126.971A20.459,20.459,0,0,1,164.233,126.306Zm-12.047,15.62-10.445,2.21,1.266-1.71c6.439-4.459,12.925-8.956,17.427-12.078Zm-39.044-.831-2.076,1.055,3.26-6.663-.006.091.153-.391,2.888-5.9,0,4.164Zm33.887-4.925,5.21-4-1.849,3.732-7.18,4.974-2.329.022,5.882-4.52-.046.078ZM135.911,150.88c-4.781,2.1-9.679,3.93-14.315,6.434l.078-.163c3.018-2.055,11.512-7.925,20.3-14.009Zm-7.9,11.975a23.92,23.92,0,0,1-2.582,1.729c-.271.1-.541.2-.808.311a15.649,15.649,0,0,1-2.046.393,9.772,9.772,0,0,1-5.527-.834,12.584,12.584,0,0,1,1.078-1.716Zm.638-.487-4.589-.557,3-2.531,6.206-.8C131.73,159.853,130.123,161.223,128.648,162.368Zm-5.673-.688-3.3-.4a1.686,1.686,0,0,1-.2-.339c.929-.634,2.174-1.477,3.254-2.181.863-.394,1.735-.768,2.607-1.139,1.139-.485,2.337-.858,3.416-1.449.8-.439,1.62-.837,2.45-1.2Zm3.949-9.524-2.638,1.5c3.934-3.025,10.017-7.7,16.044-12.334l2.23,0Zm12.139-10.917,1.443-2.255-.465.294,8.965-6.743-1.213,2.076Zm-1.718,1.3-10.28,7.8,1.792-2.657,10.511-7.906Zm-11.307,8.584-.855.649c-3.095,2.022-5.975,4.39-9.237,6.141l-.237-.221.838-.835,1.294-.886,10.217-7.684Zm-22.67,7.674a5.175,5.175,0,0,0-.715.718c-.035.013-.07.028-.105.045,2.166-4.43,5.2-10.636,8.211-16.788l2-.988Zm6.222-15.533.29-2.661-.286.471,5.035-10.026-.164,2.4Zm-.959,1.932-5.741,11.559.425-3.177,5.9-11.753Zm-6.314,12.714-1.224,2.465a1.006,1.006,0,0,1-.58-.139c-.278.2-.56.4-.844.6l3.2-6.366Zm14.909,23.707c-.128-.274-.425-.472-.545-.748a11.428,11.428,0,0,0-.977-2.362,1.47,1.47,0,0,1-.376-1.075c.9-1.411,2.007-3.2,2.637-4.219a2.693,2.693,0,0,1,.23-.219,6.91,6.91,0,0,1,1.256-.916l.006,0,.619-.206c.278-.069.565-.121.853-.185l-3.674,10.031A.446.446,0,0,0,117.226,181.621Zm10.606-22.989,5.29-4.458c1.557-.6,3.143-1.125,4.736-1.634.744-.238,1.512-.407,2.386-.611-.756.747-3.586,3.524-6.746,6.349ZM137.3,150.3l-.015-.033-.128.058,4.126-5.576,14.2-2.912C151.826,143.539,144.514,146.942,137.3,150.3Zm11.375-16.36,1.2-2.062.988-.743.024-.021a19.779,19.779,0,0,1,6.165-3.537Zm-39.882,24.8-.1.033.156-.165Zm-2.721.893a2.423,2.423,0,0,1-1.74.054,1.11,1.11,0,0,0-.113-.066c2.363-4.259,5.558-10.036,8.819-15.941l-2.018,9.759Zm7.068-14.21,11.426-8.919c-2.545,3.18-7.649,9.561-12.659,15.827Zm4.793-13.013-.047-4.206,3.217-6.574a20.455,20.455,0,0,1,4.391-2.919Zm-2.976.045.161-2.382.555-1.1.013-.029a19.794,19.794,0,0,1,3.949-5.9Zm10.963,56.6q.268-.019.546-.047l-.505.1Zm7.065-4.253q3.693-1.965,7.4-3.907c1.969-1.031,3.953-2.033,5.921-3.065a1.621,1.621,0,0,1,2.282.425c.169.183.388.474.568.463,1.115-.065,1.367.8,1.674,1.536.509,1.223.936,2.481,1.429,3.808l-3.23.589c-.961.175-1.92.365-2.884.522-2.935.476-5.872.939-8.808,1.41-.221.036-.436.105-.656.147q-4.922.921-9.844,1.832c-.066.012-.144-.035-.293-.222l.992-.53-.074-.063c.583-.292,1.166-.586,1.742-.892C130.472,186.179,131.721,185.472,132.988,184.8Zm7.65-33.15-.115,0-.018.018a4.381,4.381,0,0,0-.921.056l10.518-3.853A18.464,18.464,0,0,1,140.638,151.648Zm11.74-5.752c-.423.425-.85.815-1.278,1.179l-14.706,4.992.3-.256-5.172,1.911-.075.026L155.826,142.4C154.924,143.324,153.793,144.475,152.378,145.9Zm6.833-7.078-.04.025-.03.036c-.007.008-.411.488-1.813,1.958l-4.215.892,5.044-7.227,11.557-4.643C168.008,132.886,161.887,137.16,159.211,138.819Zm10.925-10.658a1.61,1.61,0,0,1,.01.549l-11.35,4.878,2.847-4.08,4.482-3.109q.6.057,1.222.151C169.033,126.811,169.971,127.353,170.136,128.161Zm-54.509,23.731-.1.054-.037.108c-.02.059-.731,2.158-1.775,4.962-.1.042-.191.081-.289.116q-1.914.675-3.832,1.337l.487-1.121-.033,0L122.428,144.3A18.458,18.458,0,0,1,115.627,151.892Zm7.96-10.37c-.19.568-.4,1.108-.621,1.625l-14.313,14.382.037-.071c-.03.016-.058.036-.088.053l16.518-20.656C124.725,138.087,124.223,139.62,123.587,141.523Zm2.976-9.377-.025.04-.011.045c0,.01-.152.62-.754,2.56l-3.379,2.672,1.307-8.716,8.29-9.3C131.808,122.922,128.223,129.47,126.563,132.146Zm1.837-14.605c1.624-.516,2.707-.448,3.214.2a1.619,1.619,0,0,1,.253.487l-8,9.414.737-4.919,2.631-4.772C127.613,117.808,128,117.668,128.4,117.541ZM84.712,191.157c.018-2.161.114-4.322.1-6.482-.011-1.856-.1-3.712-.138-5.568l.014-.035.359-2.881a2.839,2.839,0,0,1,1.342.539,8.257,8.257,0,0,1,.851.746c1.269.99,2.564,1.949,3.8,2.979a4.053,4.053,0,0,0-2.536,1.237,4.326,4.326,0,0,0-1.081,2.19.759.759,0,0,0-.019.112,4.681,4.681,0,0,0-.05.476,9.871,9.871,0,0,0-.511,1.944,3.677,3.677,0,0,0-.332,1.043,3.959,3.959,0,0,0,1.939,3.962,3.554,3.554,0,0,0,.4.189.79.79,0,0,1-.01.84l-3.9,3.614-.223.147C84.721,194.526,84.7,192.841,84.712,191.157Zm-.029,7.449c.017-.611.026-1.222.03-1.833l2.9-1.919c.658-.368,3.318-2.467,3.976-2.835.076.05-1.85,1.83-1.774,1.88l-5.234,6.767C84.626,199.98,84.665,199.294,84.684,198.606Zm31.386-10.941,2.226,1.867,0,.022-.742.389a.713.713,0,0,1-.2-.035A1.892,1.892,0,0,1,116.07,187.666Z" transform="translate(0 -17.152)" fill="#2d363d"/>
    <line id="Línea_2894" data-name="Línea 2894" x2="64.414" y2="123.44" transform="translate(94.817 92.906)" fill="none" stroke="#c1272d" stroke-miterlimit="10" stroke-width="10"/>
  </g>
</svg>
