<svg xmlns="http://www.w3.org/2000/svg" xmlns:xlink="http://www.w3.org/1999/xlink" width="505" height="301" viewBox="0 0 505 301">
  <defs>
    <clipPath id="clip-path">
      <rect id="Rectángulo_348590" data-name="Rectángulo 348590" width="505" height="301" transform="translate(-60)" fill="none"/>
    </clipPath>
    <clipPath id="clip-path-2">
      <circle id="Elipse_8821" data-name="Elipse 8821" cx="103.945" cy="103.945" r="103.945" transform="translate(0 147) rotate(-45)" fill="none"/>
    </clipPath>
    <clipPath id="clip-path-3">
      <path id="Trazado_730432" data-name="Trazado 730432" d="M182.032,90.5l20.177-26.66,8.308,9.228L224.76,51.027l4.154,6.152,4.748-3.589,17.8,26.147,7.715-9.228,16.639,30.618-102.1,4.245Z" transform="translate(-173.724 -51.027)" fill="none"/>
    </clipPath>
    <clipPath id="clip-path-4">
      <path id="Trazado_730501" data-name="Trazado 730501" d="M322.009,182.743c.021,37.286-13.434,76.527-41.906,101.553-21.089,18.536-47.621,27.113-75.517,31.061a136.126,136.126,0,0,1-44.869-1.213c-29.227-5.662-56.5-15.559-76.944-37.195-10.633-11.252-17.74-23.8-25.159-37.213-8.5-15.371-9.7-33.463-9.617-50.88.143-28.9,4.61-58.655,19.593-83.371,17.643-29.1,48.911-48.642,82.223-55.609s68.4-2.113,100.25,9.888c14.651,5.521,26.61,16.632,37.022,28.129C310.352,113.586,321.989,148.135,322.009,182.743Z" transform="translate(-47.993 -46.666)" fill="none"/>
    </clipPath>
  </defs>
  <g id="Grupo_1013478" data-name="Grupo 1013478" transform="translate(-998 2614)">
    <rect id="_19d0ead6a9" data-name="19d0ead6a9" width="505" height="300" rx="19" transform="translate(998 -2614)" fill="#fff"/>
    <g id="Grupo_1009650" data-name="Grupo 1009650" transform="translate(1058 -2614)" clip-path="url(#clip-path)">
      <g id="Grupo_1009649" data-name="Grupo 1009649" transform="translate(-32.134 -16.738)">
        <path id="Trazado_724473" data-name="Trazado 724473" d="M90.327-27.455C85.891-4.636,72.462,15.457,57.195,32.986S24.55,66.169,9.975,84.279s-26.489,39.418-28.241,62.6c-.716,9.479.86,20.173,8.305,26.083" transform="translate(-20.581 27.455)" fill="none" stroke="#f2b366" stroke-miterlimit="10" stroke-width="1"/>
        <path id="Trazado_724474" data-name="Trazado 724474" d="M81.24-18.964,20.811,86.742C9.986,105.676-.9,124.751-7.986,145.378s-10.21,43.137-5.14,64.35" transform="translate(-21.694 24.08)" fill="none" stroke="#f2b366" stroke-miterlimit="10" stroke-width="1"/>
        <path id="Trazado_724475" data-name="Trazado 724475" d="M351.577-8.932c-1.393,20.623,6.013,41.194,17.8,58.175s27.732,30.68,44.619,42.6c9.758,6.888,20.032,13.374,27.785,22.459s12.721,21.517,9.662,33.063" transform="translate(32.4 20.092)" fill="none" stroke="#f2b366" stroke-miterlimit="10" stroke-width="1"/>
        <path id="Trazado_724476" data-name="Trazado 724476" d="M375.293-14.227a89.194,89.194,0,0,0,4.8,68.482c15.138,29.785,46.058,49.067,61.522,78.684a91.091,91.091,0,0,1,4.006,74.35c-7.957,20.3-22.914,36.9-35.334,54.825s-22.784,39.227-19.452,60.777" transform="translate(24.764 22.196)" fill="none" stroke="#f2b366" stroke-miterlimit="10" stroke-width="1"/>
        <path id="Trazado_724477" data-name="Trazado 724477" d="M496.921,215.266c1.009,14.471-2.624,28.891-7.569,42.527s-11.222,26.774-15.821,40.532a177.862,177.862,0,0,0-.125,111.471" transform="translate(-12.56 -69.034)" fill="none" stroke="#f2b366" stroke-miterlimit="10" stroke-width="1"/>
        <path id="Trazado_724478" data-name="Trazado 724478" d="M-35.477,343.413c13.27,17.916,27.605,35.663,46.455,47.571,17.2,10.867,37.233,16.28,55.485,25.271s35.811,23.261,40.27,43.113" transform="translate(-3.801 -119.976)" fill="none" stroke="#f2b366" stroke-miterlimit="10" stroke-width="1"/>
        <path id="Trazado_724479" data-name="Trazado 724479" d="M105.69,472.426c-8.174-14.515-24.257-22.932-40.418-26.97s-33-4.478-49.389-7.436a163.443,163.443,0,0,1-69.157-30.276" transform="translate(3.274 -145.55)" fill="none" stroke="#f2b366" stroke-miterlimit="10" stroke-width="1"/>
      </g>
    </g>
    <g id="Grupo_1012176" data-name="Grupo 1012176" transform="translate(1070.987 -2641.2)">
      <path id="Trazado_730405" data-name="Trazado 730405" d="M322.009,182.743c.021,37.286-13.434,76.527-41.906,101.553-21.089,18.536-47.621,27.113-75.517,31.061a136.126,136.126,0,0,1-44.869-1.213c-29.227-5.662-56.5-15.559-76.944-37.195-10.633-11.252-17.74-23.8-25.159-37.213-8.5-15.371-9.7-33.463-9.617-50.88.143-28.9,4.61-58.655,19.593-83.371,17.643-29.1,48.911-48.642,82.223-55.609s68.4-2.113,100.25,9.888c14.651,5.521,26.61,16.632,37.022,28.129C310.352,113.586,321.989,148.135,322.009,182.743Z" transform="translate(-5.034 -5.534)" fill="#ebebeb"/>
      <g id="Grupo_1012137" data-name="Grupo 1012137" transform="translate(33.013 30.2)">
        <g id="Grupo_1012136" data-name="Grupo 1012136" transform="translate(0)" clip-path="url(#clip-path-2)">
          <path id="Trazado_730406" data-name="Trazado 730406" d="M305.752,198.994A103.945,103.945,0,1,1,201.807,95.049,104.068,104.068,0,0,1,305.752,198.994Z" transform="translate(-54.807 -51.994)" fill="#2d87ad"/>
          <g id="Grupo_1012134" data-name="Grupo 1012134" transform="translate(41.536 41.892)">
            <path id="Trazado_730407" data-name="Trazado 730407" d="M207.854,99.382a5.95,5.95,0,0,1,1.884-1.278,54.369,54.369,0,0,1,12.515-4.4,10.742,10.742,0,0,1,4.427-.278,4.2,4.2,0,0,1,3.279,2.706,5.508,5.508,0,0,0-2.416,3.285,8.571,8.571,0,0,0,2.937.165c-.332,1.017-.072,2.709.953,2.4a1.468,1.468,0,0,0,.543-.366c2.287-2.116,4.7-5.517,7.863-6.344,1.512-.4,3.52-.351,4.358,1.325.739,1.477-.4,3.027-1.012,4.61a5.2,5.2,0,0,0-.311,1.118,1.7,1.7,0,0,0,.043.887c.308.748,1.388.751,2.133.434a4.264,4.264,0,0,1,2.284-.694c1.314.232,1.643,2.131.926,3.257s-2.01,1.711-3.125,2.443-2.192,1.884-2.023,3.207a7.25,7.25,0,0,0,.9,2.068,1.955,1.955,0,0,1-.056,2.133c-.621.664-1.808.441-2.467,1.068a2.045,2.045,0,0,0-.16,2.268,8.328,8.328,0,0,1,.92,2.229,2.4,2.4,0,0,1-2,2.567c-.42.054-.852-.007-1.268.074-2.71.533-.4,4.809-.685,6.422a4.234,4.234,0,0,1-1.666,2.383c-2.816,2.3-6.438,3.307-9.791,4.72s-6.749,3.553-7.973,6.98c-.523,1.462-.837,3.338-2.31,3.831a2.671,2.671,0,0,1-2.951-1.376,7.8,7.8,0,0,1-.79-3.4l-.408-5.276a5.46,5.46,0,0,1,.191-2.477,11.834,11.834,0,0,1,1.048-1.664,10.055,10.055,0,0,0,1.108-3.547q.981-5.429,1.961-10.856a6.666,6.666,0,0,0-.091-3.943c-.556-1.216-2.237-1.994-3.277-1.155a3.043,3.043,0,0,1,1.984-4.4c-1.171-.409-.672-2.332.439-2.882s2.461-.407,3.59-.921,1.759-2.364.635-2.888c-1.228.4-2.348.987-3.541,1.453-.9.353-1.857.579-2.208,1.642-.194.589-.046,1.267-.324,1.82-.5,1-1.495.477-2.318.781-.874.321-.633,1.013-1.248,1.581-.144.133-.339.2-.491.319-.454.368-.361,1.07-.5,1.637a1.841,1.841,0,0,1-3.565.034c-.157-.59-.067-1.335-.564-1.689-.382-.272-1-.2-1.245-.593-.234-.374.076-.877.469-1.08s.854-.233,1.254-.423a3.405,3.405,0,0,0,1-.851,1.516,1.516,0,0,0,.329-.469,1.04,1.04,0,0,0-.429-1.135,3.054,3.054,0,0,0-1.214-.444C206.838,104.31,206.151,101.311,207.854,99.382Z" transform="translate(-131.983 -93.297)" fill="#db7851"/>
            <path id="Trazado_730408" data-name="Trazado 730408" d="M162.013,126.624c-.23-.282.185-.7.542-.638a1.875,1.875,0,0,1,.865.632,3.361,3.361,0,0,0,3.869.514c-.459,2.065-.532,4.884,1.465,5.582a1.627,1.627,0,0,0,.284,2.708,4.758,4.758,0,0,1,1.255.438c.726.575.239,1.764-.433,2.4s-1.558,1.273-1.545,2.2c.011.837.768,1.443,1.173,2.176a2.861,2.861,0,0,1-1.363,3.863l-2.724-1.075c-.667.764.3,1.829.625,2.791a2.462,2.462,0,0,1-1.473,2.93,3.06,3.06,0,0,1-3.283-.89c-.891-1.005-1.314-2.615-2.619-2.934-.782-.191-1.807.111-2.268-.55-.449-.643.207-1.543.955-1.776s1.57-.1,2.325-.31c2.1-.584,2.622-3.282,2.747-5.462.1-1.751-.157-4.025-1.856-4.458-1.55-.394-2.9,1.238-3.252,2.8s-.166,3.255-.856,4.7-2.9,2.312-3.851,1.03a1.825,1.825,0,0,0-.081,2.186c.322.442.846.733,1.07,1.232.423.94-.549,2.027-1.575,2.128a4.95,4.95,0,0,1-2.881-.967,4.288,4.288,0,0,0,.983-2.195c.03-.813-.613-1.7-1.421-1.611a2.149,2.149,0,0,0-1.132.672l-5.519,5.088c-2.105,1.941-4.412,4.533-3.614,7.284.677,2.336,3.361,3.608,4.179,5.9.845,2.366-.49,5.307.954,7.362,1.782-.1,2.556-2.276,2.8-4.043s.74-3.942,2.472-4.372a6.731,6.731,0,0,0,1.63-.327,1.819,1.819,0,0,0,.543-2.354,5.3,5.3,0,0,0-1.865-1.864,4.961,4.961,0,0,0,3.251-3.321,5.564,5.564,0,0,1,.554-1.655,2.981,2.981,0,0,1,3.073-.832c1.38.264,2.879,1.15,2.955,2.553.062,1.149-.845,2.084-1.39,3.1s-.47,2.658.657,2.888c2.2.45,1.84-4.789,4.077-4.556,1.165.121,1.431,1.749,1.066,2.864s-1.036,2.289-.6,3.376a7.068,7.068,0,0,0,1.158,1.521c2.113,2.749-.2,7.229,1.874,10.007.634.849,1.658,1.5,1.838,2.541.255,1.47-1.483,2.652-2.961,2.445a7.209,7.209,0,0,1-3.73-2.329,5.311,5.311,0,0,0,2.218-2.21c.4-.984-.073-2.377-1.124-2.52-.934-.127-1.671.714-2.451,1.242a4.218,4.218,0,0,1-5.353-.7,3.44,3.44,0,0,0,2.792,3.753l-1.538,1.686a10.647,10.647,0,0,0,3.936,2.593,8.221,8.221,0,0,1-7.164,2.1c-1.493-.295-3.284-.928-4.349.159-1.257,1.283-.3,3.988-1.874,4.861-.967.537-2.259-.088-3.249.4-1.469.731-.961,2.915-1.384,4.5-.516,1.93-2.518,2.986-4.237,4s-3.528,2.64-3.231,4.616c.2,1.352,1.343,2.34,2.034,3.52s.655,3.113-.663,3.485c-1.2.339-2.214-.947-2.678-2.107s-.967-2.56-2.18-2.854c-.7.332-.534-.233-.823-.95a2.194,2.194,0,1,0-3.613,2.344c-1.741.072-3.375-1.17-5.1-.946a4.656,4.656,0,0,0-3.235,2.6c-1.818,3.326-1.076,7.97,1.956,10.243a2.832,2.832,0,0,0,1.477.645c2.145.131,2.663-3.182,4.561-4.191a2.478,2.478,0,0,1,2.416,4.327c-.513.3-1.2.486-1.375,1.053-.254.811.823,1.431,1.669,1.358a6.491,6.491,0,0,1,2.513-.212c2.418.781.58,5.368,2.788,6.625,1.362.775,3.685-.179,4.3,1.263.567,1.327-1.394,2.318-2.832,2.19a9.181,9.181,0,0,1-7.121-4.662c-.59-1.082-1.006-2.342-2.013-3.05a5.61,5.61,0,0,0-2.472-.764l-7.121-1.03c-2.282-.33-4.749-.754-6.323-2.437A10.25,10.25,0,0,1,108.5,214.3l-3.84-7.992c-.866-1.8-2.037-3.835-4.019-4.094q1.24,4,2.8,7.9c-4.684-1.773-6.867-7.186-7.519-12.152-.739-5.629-.2-11.344.493-16.979,1.1-8.928,2.657-18.018,7.058-25.863,4.334-7.725,11.167-13.773,15.821-21.31a17.566,17.566,0,0,1,2.559-3.578c1.821-1.749,4.387-2.431,6.836-3.05,1.395-.353,3.337-.43,3.786.937.246.75-.147,1.545-.222,2.33a3.029,3.029,0,0,0,3.6,3.063,1.853,1.853,0,0,0,.275-3.063,5.351,5.351,0,0,1,2.876-1.24c.384-1.38.65-3.143-.5-3.995-.418-.309-.956-.426-1.362-.75-1.425-1.139-.179-3.393,1.09-4.7a10.385,10.385,0,0,1,3.528-2.721,3.549,3.549,0,0,1,4.086.874c1.357,1.85-.151,4.335-.935,6.491a1.759,1.759,0,0,0-.133,1.045c.247.915,1.637.924,2.365.317s1.1-1.55,1.777-2.21,2-.876,2.449-.041l-3.432,6.985c-1.212,2.467-3.178,5.351-5.89,4.9-.04.888.989,1.516,1.872,1.408a4.647,4.647,0,0,0,2.295-1.28l4.335-3.66a5.952,5.952,0,0,0,1.5-1.627,13.575,13.575,0,0,0,.738-2.822,5.5,5.5,0,0,1,7.12-3.423c0,2.247-2.619,3.354-4.391,4.736a8.341,8.341,0,0,0-3.042,7.749,1.535,1.535,0,0,0,.285.764,1.37,1.37,0,0,0,1.708.042c2.19-1.313,1.956-4.5,2.93-6.864A5.659,5.659,0,0,1,162.013,126.624Z" transform="translate(-95.575 -101.182)" fill="#db7851"/>
            <path id="Trazado_730409" data-name="Trazado 730409" d="M178.677,333.4c-.559,1.3-1.49,2.562-1.129,3.889.6,2.219,4.215,2.459,4.794,4.684a10.677,10.677,0,0,1,.089,1.887c.157,2.056,4.691,9.574,6.736,9.313a5.089,5.089,0,0,0,2.5-1.364c1.888-1.585,3.818-3.644,3.651-6.1-.11-1.624-1.143-3.077-1.253-4.7a13.018,13.018,0,0,1,.5-3.3c.956-4.977-.831-11.147.681-15.955,1.246-3.968,6.289-4.369,6.861-8.309q.634-4.379,1.269-8.757c.461-3.181.795-6.824-1.344-9.223-2.589-2.9-7.328-2.374-10.651-4.4-2.3-1.4-3.685-3.866-5.526-5.826s-4.766-3.484-7.16-2.259c-.1-1.868-2.088-3.077-3.936-3.364s-3.78-.01-5.569-.556c-1.449-.443-3.136-1.92-4.709-1.771s-3.074,2-4.442,2.757c-1.334.734-3.109,1.035-4.306.094-.634.458,0,1.513.752,1.716s1.616.036,2.287.438c.844.506.993,1.645,1.052,2.627.3,5.061-4.8,7.563-4.134,12.419.823,5.98,6.186,4.7,9.825,6.715.782.434.527,1.64.958,2.423.566,1.028,2.025.984,3.117,1.415,1.806.713,2.625,2.849,2.715,4.789.339,7.319,1.356,10.918,5.748,16.861a4.623,4.623,0,0,1,.975,1.86A3.492,3.492,0,0,1,178.677,333.4Z" transform="translate(-115.704 -155.126)" fill="#db7851"/>
            <path id="Trazado_730410" data-name="Trazado 730410" d="M310.263,277.9c.039,1.909,1.246,3.606,1.546,5.493a5.976,5.976,0,0,1-1.6,5.023c-1.166,1.2-2.8,1.856-3.96,3.056s-1.629,3.425-.275,4.4c-1.439-.3-2.721,1.067-3.182,2.462s-.446,2.931-1.046,4.273c-.813,1.822-2.6,2.976-4.3,4.027-3.509,2.172-9.794,7.817-9.482.281a8.189,8.189,0,0,0-1.247-3.942,57.882,57.882,0,0,1-4.156-9.784,11.324,11.324,0,0,1-.6-3.915c.1-1.569.748-3.093.625-4.66-.249-3.176-3.511-5.428-3.982-8.578-.271-1.818.437-3.625.631-5.453.407-3.84-2.744-4.481-5.558-5.75-2.33-1.048-4.549,2.262-7.1,2.129-1.328-.07-2.4-1.06-3.637-1.558-2.061-.832-5.177-.839-5.483-3.039-.1-.7.176-1.489-.2-2.094-.572-.926-2.006-.568-3-1-1.147-.493-1.522-1.966-1.379-3.205a36.538,36.538,0,0,0,.665-3.678c.021-1.711-.877-3.466-.284-5.071.493-1.335,1.854-2.1,2.875-3.093a14.651,14.651,0,0,0,3-5.233q1.832-4.561,3.664-9.122c-.7-1.029.433-2.122,1.676-2.111s2.393.705,3.634.783a9.926,9.926,0,0,0,3.249-.661c2.92-.825,6.418-.582,8.5,1.623,1.363,1.443,2.589,3.827,4.511,3.335.882-.226,1.607-1.08,2.511-.969,2.144.264,1.2,4.824,3.352,4.971,1.534.1,1.757-2.184,1.376-3.673,1.1-.895,2.772-.338,3.915.5s2.185,1.964,3.582,2.214c1.728.31,5.657-.519,4.225,2.62a4.9,4.9,0,0,1,2.949,3.166l3.661,8.617a7.827,7.827,0,0,0,1.548,2.622c.688.674,1.6,1.07,2.343,1.682a5.114,5.114,0,0,1,1.8,3.259c.072.565.2,1.315.767,1.372a1.285,1.285,0,0,0,.862-.419,5.707,5.707,0,0,1,4.887-1.1c-.552,4.424-3.219,8.138-6.166,11.328C313.822,271.379,310.19,274.34,310.263,277.9Z" transform="translate(-148.43 -138.38)" fill="#db7851"/>
            <path id="Trazado_730411" data-name="Trazado 730411" d="M353.973,219.818a14.746,14.746,0,0,0-4.117-6.932c-1.564-1.278-3.686-1.775-5.13-3.188-2.009-1.965-2.571-5.53-5.252-6.372-1.734-.544-3.569.37-5.386.428-4.116.133-7.051-3.938-10.892-5.424a6.794,6.794,0,0,0,5.424,6.822,5.826,5.826,0,0,1,2.783.764c.586.475.871,1.252,1.477,1.7,1.115.829,2.928.291,3.883,1.3,1.109,1.173-.02,3.065-1.208,4.158a30.079,30.079,0,0,1-14.036,7.238,7.242,7.242,0,0,1-1.91.3,2.649,2.649,0,0,1-2.725-1.6c-.321-1.028.252-2.136.115-3.2a4.887,4.887,0,0,0-.684-1.706q-3.186-5.728-6.372-11.457a14.577,14.577,0,0,1-5.183.874,8.368,8.368,0,0,1-7.37-4.825,20.789,20.789,0,0,0,5.386.344c1.651-.11,3.438-.5,4.468-1.8s.661-3.68-.952-4.048a6.1,6.1,0,0,1-8.666-5.776,2.361,2.361,0,0,0-3.02,1.223,2.836,2.836,0,0,1,2.3,2.606,2.065,2.065,0,0,1-2.551,1.955c-1.3-.478-1.526-2.167-1.915-3.5s-1.955-2.714-2.976-1.775a2.53,2.53,0,0,1-1.846,2.742,8.754,8.754,0,0,0-1.1-4.162c-.809-1.2-2.5-1.947-3.757-1.223-.578.333-.98.917-1.564,1.24-1.794.993-4.24-.895-6,.157s-.892,3.191-1.821,4.6c-1,1.526-3.472,2.35-5.253,2.212a4.107,4.107,0,0,1-3.86-3.482c-.122-1.893,1.432-3.5,3.113-4.382s3.585-1.308,5.183-2.33c-2.434-.641-2.79-4.721-.5-5.774.987-.455,2.2-.384,3.072-1.032a4.366,4.366,0,0,0,1.15-1.567q2.49-4.781,4.548-9.772c1.807.6,1.462,3.637,3.123,4.569a3.678,3.678,0,0,0,1.793.318c1.673.013,3.489-.019,4.808-1.05s1.582-3.461.084-4.209l3.6-.511c-1.82.258.1-2.692.187-2.795.588-.694,2.419-.4,2.735-1.685.558-2.281-3.7-1.956-5.3-2.173-.611-1.568.508-3.21,1.209-4.74s.585-3.924-1.07-4.23a12.828,12.828,0,0,0-3.067,14.6,1.373,1.373,0,0,1,.2.878c-.094.374-.487.58-.841.73a27.727,27.727,0,0,1-3.815,1.3,1.229,1.229,0,0,1-1.03-.044c-.363-.264-.334-.8-.268-1.248q.238-1.591.477-3.182c-1.138-.879-2.7.5-4.136.445a2.4,2.4,0,0,1-2.148-2.216,3.2,3.2,0,0,1,1.531-2.827c1.362-.867,3.4-1,4-2.5a5.194,5.194,0,0,0,.231-1.485,14.945,14.945,0,0,1,1.344-4.39l1.921-4.541c1.038-2.455,2.385-5.193,4.95-5.919,1.4-.4,3.249.218,3.477,1.652.558,3.51,3.6-.248,4.939,2.443.542,1.087-.23,2.465.235,3.587a2.124,2.124,0,0,0,1.818,1.208,3.488,3.488,0,0,0,2.156-.664,2.145,2.145,0,0,1,1.247-.559c.455.029.812.4,1.242.548a1.949,1.949,0,0,0,1.845-.491,10.385,10.385,0,0,0,1.273-1.539,5.271,5.271,0,0,1,3.877-2.16c1.091-.044,2.235-.084,1.967-1.569-.174-.963-1.329-1.311-2.22-1.714a11.458,11.458,0,0,1-3.452-2.834,3.123,3.123,0,0,1-1.185-2.815l.086-5.987a3.713,3.713,0,0,1,.3-1.716,1.273,1.273,0,0,1,1.455-.7,1.38,1.38,0,0,1,.7.692c.728,1.4.078,3.078-.458,4.561s-.87,3.358.263,4.454a4.412,4.412,0,0,0,.74.541l4.721,2.972a2.575,2.575,0,0,0,1.344.524,1.749,1.749,0,0,0,1.5-1.234c.763-2.123-.31-3.855,2.158-5.336a8.98,8.98,0,0,1,5.468-.853c10.432.967,19.112,8.091,27.074,14.9a33.823,33.823,0,0,1,6.251,6.383c4.151,6.095,3.885,14.068,3.395,21.426-.175,2.625-.347,5.344.572,7.809.665,1.782,1.868,3.335,2.445,5.147a14.883,14.883,0,0,1,.341,5.688,102.129,102.129,0,0,1-3.359,19.162c-1.482,5.388-4.318,9.507-6.6,14.551-.236.522-.551,1.109-1.114,1.22a1.284,1.284,0,0,1-1.338-1.02,4.781,4.781,0,0,1,.038-1.838A12.563,12.563,0,0,0,353.973,219.818Z" transform="translate(-152.262 -103.917)" fill="#db7851"/>
            <path id="Trazado_730412" data-name="Trazado 730412" d="M273.819,186.36c-.1-1.331-.655-2.9-1.963-3.159a.981.981,0,0,0-.662.066,1.033,1.033,0,0,0-.451.743c-.329,1.789,1.617,3.321,1.539,5.137a4.5,4.5,0,0,1-1.21,2.5,6.257,6.257,0,0,0-1.441,2.4,1.9,1.9,0,0,0,1.117,2.293,2.746,2.746,0,0,0,1.807-.393c1.955-.934,4.6-1.465,3.875-4.045-.289-1.028-1.716-1.569-2.175-2.557A8.671,8.671,0,0,1,273.819,186.36Z" transform="translate(-154.051 -123.502)" fill="#db7851"/>
            <path id="Trazado_730413" data-name="Trazado 730413" d="M266.746,190.828q-.15,1.4-.3,2.808a3,3,0,0,1-.562,1.731,1.038,1.038,0,0,1-1.591.024,1.409,1.409,0,0,1-.132-.778,12.033,12.033,0,0,1,.852-4.057l1.8.332" transform="translate(-152.23 -125.982)" fill="#db7851"/>
            <path id="Trazado_730414" data-name="Trazado 730414" d="M251.879,163.36c-.471.414-.129,1.27.453,1.5a2.792,2.792,0,0,0,1.836-.141l2.145-.67c.378-.118.825-.319.857-.713a.933.933,0,0,0-.152-.505,3.818,3.818,0,0,0-3.771-2.154c-1.522.279-2.546,2.356-1.509,3.5" transform="translate(-147.915 -115.926)" fill="#db7851"/>
            <path id="Trazado_730415" data-name="Trazado 730415" d="M343.925,319.01a1.828,1.828,0,0,0,2.614-.205,9.031,9.031,0,0,0,1.375-2.611,8.461,8.461,0,0,1,2.2-2.893,6.428,6.428,0,0,1,.068,4.54c-.449,1.482-1.188,2.858-1.73,4.308a30.379,30.379,0,0,1-1.267,3.347,4.706,4.706,0,0,1-2.52,2.418,2.6,2.6,0,0,1-3.107-1.068c-.7-1.373.294-2.981,1.316-4.135s2.206-2.513,1.892-4.021" transform="translate(-178.164 -167.233)" fill="#db7851"/>
            <path id="Trazado_730416" data-name="Trazado 730416" d="M181.09,111.342a7.3,7.3,0,0,0-4.256,3.812,1.693,1.693,0,0,0-.207.908c.1.736.976,1.09,1.718,1.086a6.55,6.55,0,0,1,2.21.037c.851.3,1.544,1.235,2.426,1.045.671-.144,1.024-.888,1.145-1.564a5,5,0,0,1,.509-1.976c.309-.459.868-.839.831-1.392-.046-.679-.981-.924-1.613-.673s-1.117.788-1.749,1.04-1.567.009-1.615-.67a4.375,4.375,0,0,0,.012-.589c-.041-.193-.278-.364-.43-.24" transform="translate(-122.811 -99.361)" fill="#db7851"/>
            <path id="Trazado_730417" data-name="Trazado 730417" d="M199.937,105.645a9.469,9.469,0,0,0-3.053,4.542c.674.058,1.232-.472,1.811-.821s1.514-.423,1.767.2c.313.774-.829,1.5-.7,2.32a1.586,1.586,0,1,0,.749-3.065,8.511,8.511,0,0,1,1.873-1.767c.1-.756-.681-1.4-1.443-1.437a4.2,4.2,0,0,0-2.148.7" transform="translate(-129.621 -97.438)" fill="#db7851"/>
            <path id="Trazado_730418" data-name="Trazado 730418" d="M188.67,116.343a5.632,5.632,0,0,0,1.255-1.117c.42-.375,1.117-.6,1.518-.2.513.507.014,1.358-.479,1.884l1.574.067a.611.611,0,0,1,.416.123.551.551,0,0,1,.06.547,8.574,8.574,0,0,1-1.176,1.983c-.4.639-.17,1.374-.413,1.907-.06.131-.791.958-1.009.417a2,2,0,0,0-.475-.7c.46-.858-.463-.886-.693-1.342-.3-.591.2-.768.186-1.408-.05-1.782-2.147-.43-3.073-.8a.982.982,0,0,1-.611-.892.873.873,0,0,1,.665-.828C187.266,115.806,187.727,116.769,188.67,116.343Z" transform="translate(-125.879 -100.529)" fill="#db7851"/>
            <path id="Trazado_730419" data-name="Trazado 730419" d="M200.432,125.073a1.858,1.858,0,0,1-1.1.006c-.55-.232-.747-.916-1.208-1.294a2.107,2.107,0,0,1-.526-.45,1.03,1.03,0,0,1-.119-.5,4.38,4.38,0,0,1,1.957-3.813.675.675,0,0,1,.564-.144c.358.123.3.631.278,1.009a1.978,1.978,0,0,0,.544,1.52c1.118,1.123,1.434.054,2.281-.481.713-.451,1.543-.2,1.56.743C204.7,123.841,202.013,124.741,200.432,125.073Z" transform="translate(-129.82 -101.888)" fill="#db7851"/>
          </g>
          <path id="Trazado_730420" data-name="Trazado 730420" d="M319.238,311.43" transform="translate(-129.204 -124.713)" fill="none" stroke="#fff" stroke-miterlimit="10" stroke-width="1"/>
          <path id="Trazado_730421" data-name="Trazado 730421" d="M187.789,343.459a23.2,23.2,0,0,0,7.544-.244c12.3-2.536,19.6-15.669,31.2-20.477,10.955-4.539,23.782-.729,33.629,5.877,9.238,6.2,18.173,15.2,29.274,14.469,3.693-.244,8-1.415,10.657,1.165,12.441,12.094-29.438,32.011-36.806,35.314-17.461,7.826-36.786,12.339-55.8,10.187-11.23-1.271-22.035-4.832-32.4-9.231-13.9-5.9-28.483-9.919-36.826-23.72a15.56,15.56,0,0,1,3.586-19.608c7.334-5.754,18-3.572,26.66-.114C174.771,339.58,181.235,342.66,187.789,343.459Z" transform="translate(-67.703 -127.847)" fill="#1a759c"/>
          <path id="Trazado_730422" data-name="Trazado 730422" d="M190.657,347.051c7.413,2.326,14.635,7.18,22.266,5.72,9-1.721,14.162-11.386,22.37-15.462,9.182-4.56,20.381-1.28,29.226,3.9,4.416,2.587,8.615,5.653,13.432,7.382,10.973,3.939,23.062.366,34.159-3.207-9.513,18.455-27.245,31.512-46.192,40-17.462,7.826-36.786,12.339-55.8,10.187-11.23-1.271-22.035-4.833-32.4-9.232-6.876-2.919-25.312-8.278-28.542-15.584-3.624-8.194,8.152-17.235,14.137-20.52C171.56,345.715,181.6,344.21,190.657,347.051Z" transform="translate(-71.824 -132.682)" fill="#8cecff"/>
          <path id="Trazado_730423" data-name="Trazado 730423" d="M175.711,368.723c7.413,2.326,14.634,7.18,22.266,5.72,9-1.722,14.162-11.386,22.37-15.462,9.182-4.56,20.381-1.281,29.226,3.9,4.416,2.587,8.615,5.653,13.432,7.382,10.973,3.939,23.062.366,34.159-3.207-9.513,18.455-27.245,31.512-46.193,40-17.461,7.826-36.786,12.339-55.8,10.187-11.23-1.271-22.035-4.833-32.4-9.232-6.876-2.919-25.312-8.278-28.543-15.584-3.624-8.194,8.152-17.235,14.138-20.52C156.613,367.387,166.655,365.882,175.711,368.723Z" transform="translate(-66.801 -139.965)" fill="#37db00"/>
          <g id="Grupo_1012135" data-name="Grupo 1012135" transform="translate(26.075 124.319)">
            <path id="Trazado_730424" data-name="Trazado 730424" d="M84.336,240.015l26.608-.007a32.117,32.117,0,0,0,9.507-.954,12.9,12.9,0,0,0,8.4-8.168c2.033-6.712-3.942-14.385-11.091-13.342a8.388,8.388,0,0,0-6.868,5.549c-.882,2.981.7,6.628,3.648,7.6a3.385,3.385,0,0,0,3.3-.467,1.972,1.972,0,0,0-.068-3.01" transform="translate(-76.336 -217.447)" fill="none" stroke="#8cecff" stroke-linecap="round" stroke-miterlimit="10" stroke-width="2"/>
            <path id="Trazado_730425" data-name="Trazado 730425" d="M72.287,267.947q19.754.866,39.532-.011c6.155-.274,16.574.164,16.833,8.577a7.863,7.863,0,0,1-12.07,6.884,4.869,4.869,0,0,1-2.214-2.739c-.554-2.113,1-4.254,2.846-5.416,1.35-.847,3.2-1.331,4.473-.366a4.966,4.966,0,0,1,1.465,3.17" transform="translate(-72.287 -234.396)" fill="none" stroke="#8cecff" stroke-linecap="round" stroke-miterlimit="10" stroke-width="2"/>
            <path id="Trazado_730426" data-name="Trazado 730426" d="M86.353,254.038q23.129-.577,46.262.327c3.359.131,6.948.229,9.808-1.538,2.845-1.758,4.3-5.713,2.086-8.6a4.431,4.431,0,0,0-7.777,1.481" transform="translate(-77.014 -225.864)" fill="none" stroke="#8cecff" stroke-linecap="round" stroke-miterlimit="10" stroke-width="2"/>
            <path id="Trazado_730427" data-name="Trazado 730427" d="M159.049,267.6a36.577,36.577,0,0,0,5.9.29c1.51-.022,3.12-.277,4.409.745a2.656,2.656,0,0,1,1.078,1.874,2.921,2.921,0,0,1-.858,1.99,2.2,2.2,0,0,1-2.052.556,1.778,1.778,0,0,1-1.3-1.612" transform="translate(-101.445 -234.303)" fill="none" stroke="#8cecff" stroke-linecap="round" stroke-miterlimit="10" stroke-width="2"/>
          </g>
        </g>
      </g>
      <g id="Grupo_1012138" data-name="Grupo 1012138" transform="translate(131.667 129.368)">
        <path id="Trazado_730428" data-name="Trazado 730428" d="M209.223,179.565a13.809,13.809,0,0,1-27.619,0" transform="translate(-181.604 -179.565)" fill="none" stroke="#000" stroke-linecap="round" stroke-miterlimit="10" stroke-width="3"/>
        <path id="Trazado_730429" data-name="Trazado 730429" d="M305.791,179.565a13.809,13.809,0,0,1-27.618,0" transform="translate(-214.058 -179.565)" fill="none" stroke="#000" stroke-linecap="round" stroke-miterlimit="10" stroke-width="3"/>
      </g>
      <g id="Grupo_1012143" data-name="Grupo 1012143" transform="translate(126.436 44.028)">
        <g id="Grupo_1012142" data-name="Grupo 1012142">
          <g id="Grupo_1012141" data-name="Grupo 1012141">
            <path id="Trazado_730430" data-name="Trazado 730430" d="M182.782,90.716c2.131-3.227,4.231-6.469,6.56-9.545,1.167-1.543,14.1-16.24,13.113-17.327l8.308,9.229,14.243-22.046,4.154,6.153,4.748-3.589,17.8,26.148,7.715-9.229,7.83,14.859c2.382,4.518,5.392,8.787,7.635,13.358.856,1.747,1.411,3.528,2.856,5.029,1.464,1.521,3.695,2.479,5.162,4.016a2.921,2.921,0,0,1,.97,1.965c-.033,1.376-1.781,2.4-3.5,2.544a15.257,15.257,0,0,1-5.041-.774c-4.6-1.188-9.72-1.854-14.2-.406-1.053.34-2.192.979-2.146,1.884s1.254,1.545,1.3,2.439c.069,1.293-2.068,1.783-3.687,1.852l-13.348.568a18.025,18.025,0,0,1-5.457-.322c-1.738-.472-3.314-1.625-3.493-3.083-.1-.809.213-1.7-.314-2.392a2.87,2.87,0,0,0-1.38-.84c-5.531-1.89-11.9,1.993-17.738.836-2.512-.5-4.63-1.888-7.133-2.417s-5.9.412-6,2.476a3.674,3.674,0,0,1-.072,1.415c-.394.856-1.8,1.018-2.944,1.039l-12.629.23a3.536,3.536,0,0,1-2.186-.429c-.932-.727-.271-2.006.629-2.757s2.08-1.474,2.154-2.512c.1-1.445-2.038-2.342-3.851-2.362-4.52-.047-9.689.1-8.085-4.762C176.114,97.845,180.333,94.424,182.782,90.716Z" transform="translate(-173.97 -51.027)" fill="#8cecff"/>
            <g id="Grupo_1012140" data-name="Grupo 1012140" transform="translate(0 0)">
              <g id="Grupo_1012139" data-name="Grupo 1012139" clip-path="url(#clip-path-3)">
                <path id="Trazado_730431" data-name="Trazado 730431" d="M195.107,87.406a2.7,2.7,0,0,0,.86-.341,19.71,19.71,0,0,0,2.094-2.028,2.685,2.685,0,0,1,2.931-.5c.763.5,1.009,1.65,1.992,1.6a1.651,1.651,0,0,0,1.145-.761c1.565-1.97,3.332-6.406,6.663-4.588,1.667.91,1.465,3.747,4.441,2.9a8.749,8.749,0,0,0,2.6-1.471,1.162,1.162,0,0,1,.607-.262,1,1,0,0,1,.787.452c1.235,1.583.73,3.617.335,5.456s-.507,4,1.206,5.271a3.808,3.808,0,0,1,3-2.128,5.2,5.2,0,0,0,1.426-.277,2.349,2.349,0,0,0,.953-1c2.347-3.834,4.355-8.516,7.641-11.9a2.615,2.615,0,0,1,1.362-.854c1.366-.254,2.3,1.072,2.613,2.164s.8,2.459,2.2,2.6a7.006,7.006,0,0,0,1.153-.058c4.074-.265,4.164,4.189,5.3,6.37a29.451,29.451,0,0,0,6.724,8.964,9.283,9.283,0,0,0,2.664-1.91l2.2,2.265c1.58-.374,2.237-1.839,2.668-3.109l2.723-8.032a53.376,53.376,0,0,1,9.369,5.124c4.2-13,9.353-25.654,12.317-38.914a5.937,5.937,0,0,0,.01-3.733c-.735-1.657-2.79-2.664-4.7-3.538C265.2,38.223,248.076,31.024,231.04,34.244c-8.85,1.672-16.483,6.005-23.865,10.244-7.177,5.726-16.021,8.919-19.294,17.3a14.668,14.668,0,0,0,.694,12.8,32.8,32.8,0,0,1,4.347,11.726,1.685,1.685,0,0,0,.184.568A1.873,1.873,0,0,0,195.107,87.406Z" transform="translate(-178.1 -45.121)" fill="#fff"/>
              </g>
            </g>
          </g>
        </g>
        <path id="Trazado_730433" data-name="Trazado 730433" d="M206.464,94.52a14.478,14.478,0,0,1-2.222,3.292" transform="translate(-183.98 -65.644)" fill="none" stroke="#000" stroke-miterlimit="10" stroke-width="0.5"/>
        <path id="Trazado_730434" data-name="Trazado 730434" d="M213.911,94.512q-.325,1.266-.65,2.531" transform="translate(-187.011 -65.641)" fill="none" stroke="#000" stroke-miterlimit="10" stroke-width="0.5"/>
        <path id="Trazado_730435" data-name="Trazado 730435" d="M219.543,95.283v1.773" transform="translate(-189.122 -65.9)" fill="none" stroke="#000" stroke-miterlimit="10" stroke-width="0.5"/>
        <path id="Trazado_730436" data-name="Trazado 730436" d="M217.189,84.6q.164.886.327,1.772" transform="translate(-188.331 -62.308)" fill="none" stroke="#000" stroke-miterlimit="10" stroke-width="0.5"/>
        <path id="Trazado_730437" data-name="Trazado 730437" d="M229.339,83.1,226.8,87.664" transform="translate(-191.563 -61.806)" fill="none" stroke="#000" stroke-miterlimit="10" stroke-width="0.5"/>
        <path id="Trazado_730438" data-name="Trazado 730438" d="M257.8,60.181l1.269,2.28" transform="translate(-201.981 -54.103)" fill="none" stroke="#000" stroke-miterlimit="10" stroke-width="0.5"/>
        <path id="Trazado_730439" data-name="Trazado 730439" d="M291.575,93.752a10.4,10.4,0,0,1-2.2,2.544" transform="translate(-212.59 -65.386)" fill="none" stroke="#000" stroke-miterlimit="10" stroke-width="0.5"/>
        <path id="Trazado_730440" data-name="Trazado 730440" d="M302.252,97.957l.946,2.028" transform="translate(-216.918 -66.799)" fill="none" stroke="#000" stroke-miterlimit="10" stroke-width="0.5"/>
        <path id="Trazado_730441" data-name="Trazado 730441" d="M260.682,80.185q.095.911.19,1.822" transform="translate(-202.948 -60.826)" fill="none" stroke="#000" stroke-miterlimit="10" stroke-width="0.5"/>
        <path id="Trazado_730442" data-name="Trazado 730442" d="M266.142,76.294a6.788,6.788,0,0,0,.733,1.983" transform="translate(-204.783 -59.518)" fill="none" stroke="#000" stroke-miterlimit="10" stroke-width="0.5"/>
        <path id="Trazado_730443" data-name="Trazado 730443" d="M266.557,86.539a5.947,5.947,0,0,1,.831,3.073" transform="translate(-204.922 -62.961)" fill="none" stroke="#000" stroke-miterlimit="10" stroke-width="0.5"/>
      </g>
      <path id="Trazado_730444" data-name="Trazado 730444" d="M221.627,314.611a3.159,3.159,0,0,0-.061,1.2,1.671,1.671,0,0,0,.559,1.1,2.264,2.264,0,0,0,1.41.314c6.136-.008,12.236-.025,18.374.038a7.792,7.792,0,0,0,2.875-.335c3.575-1.365,2.417-6.219-.471-7.606a6.124,6.124,0,0,0-5.85.519,5.311,5.311,0,0,0-3.367-5.114,6.119,6.119,0,0,0-6.116,1.2,7.735,7.735,0,0,0-2.322,5.994c-1.119-.656-2.779-.088-3.733.672A3.745,3.745,0,0,0,221.627,314.611Z" transform="translate(-63.356 -92.138)"/>
      <g id="Grupo_1012144" data-name="Grupo 1012144" transform="translate(59.816 135.619)">
        <path id="Trazado_730445" data-name="Trazado 730445" d="M78.376,189.872a2.259,2.259,0,0,0-2.587.137,5.123,5.123,0,0,0-2.081,2.231,3.455,3.455,0,0,0,.032,2.993,2.622,2.622,0,0,0,2.559,1.39,2.4,2.4,0,0,0,1.9-1.157" transform="translate(-73.384 -189.16)" fill="none" stroke="#000" stroke-linecap="round" stroke-miterlimit="10" stroke-width="2"/>
        <path id="Trazado_730446" data-name="Trazado 730446" d="M85.12,189.583a4.232,4.232,0,0,0-1.011,4.207,2.472,2.472,0,0,0,4.634.521c.791-1.352.888-3.567-.325-4.706a2.519,2.519,0,0,0-3.3-.022Z" transform="translate(-76.929 -188.979)" fill="none" stroke="#000" stroke-miterlimit="10" stroke-width="2"/>
        <path id="Trazado_730447" data-name="Trazado 730447" d="M94.659,199.24a1.592,1.592,0,0,1,1.1-1.361,1.006,1.006,0,0,1,1.234.987,1.624,1.624,0,0,1-.476.8l-1.807,2.017,2.57.027" transform="translate(-80.534 -191.962)" fill="none" stroke="#000" stroke-miterlimit="10" stroke-width="2"/>
      </g>
      <g id="Grupo_1012145" data-name="Grupo 1012145" transform="translate(247.691 80.791)">
        <path id="Trazado_730448" data-name="Trazado 730448" d="M361.383,107.508a2.273,2.273,0,0,0-2.6.137,5.156,5.156,0,0,0-2.095,2.247,3.478,3.478,0,0,0,.032,3.013,2.639,2.639,0,0,0,2.577,1.4,2.414,2.414,0,0,0,1.913-1.165" transform="translate(-356.356 -106.651)" fill="none" stroke="#000" stroke-linecap="round" stroke-miterlimit="10" stroke-width="2"/>
        <path id="Trazado_730449" data-name="Trazado 730449" d="M368.7,107.391a4.288,4.288,0,0,0-.82,4.5,2.883,2.883,0,0,0,1.118,1.366c3.583,2.138,5.614-5.669,2.235-6.777a2.4,2.4,0,0,0-2.211.6A3.917,3.917,0,0,0,368.7,107.391Z" transform="translate(-360.122 -106.399)" fill="none" stroke="#000" stroke-miterlimit="10" stroke-width="2"/>
        <path id="Trazado_730450" data-name="Trazado 730450" d="M377.777,116.94a1.6,1.6,0,0,1,1.105-1.37,1.013,1.013,0,0,1,1.242.993,1.632,1.632,0,0,1-.479.81l-1.819,2.031,2.588.028" transform="translate(-363.555 -109.473)" fill="none" stroke="#000" stroke-miterlimit="10" stroke-width="2"/>
      </g>
      <g id="Grupo_1012146" data-name="Grupo 1012146" transform="translate(273.573 237.858)">
        <path id="Trazado_730451" data-name="Trazado 730451" d="M400.929,343.785c-.774-.691-2.008-.38-2.9.153a5.723,5.723,0,0,0-2.329,2.5,3.865,3.865,0,0,0,.035,3.351,2.935,2.935,0,0,0,2.866,1.557,2.688,2.688,0,0,0,2.128-1.3" transform="translate(-395.339 -343.11)" fill="none" stroke="#000" stroke-linecap="round" stroke-miterlimit="10" stroke-width="2"/>
        <path id="Trazado_730452" data-name="Trazado 730452" d="M407.806,343.891a4.262,4.262,0,0,0-1.054,2.1c-.353,1.735-.175,4.061,1.851,4.621a2.989,2.989,0,0,0,3.223-1.463,6.046,6.046,0,0,0,.526-3.808,2.564,2.564,0,0,0-4.038-1.88A3.157,3.157,0,0,0,407.806,343.891Z" transform="translate(-399.126 -342.97)" fill="none" stroke="#000" stroke-miterlimit="10" stroke-width="2"/>
        <path id="Trazado_730453" data-name="Trazado 730453" d="M419.161,354.275a1.782,1.782,0,0,1,1.229-1.524,1.127,1.127,0,0,1,1.381,1.105,1.815,1.815,0,0,1-.533.9l-2.023,2.259,2.878.031" transform="translate(-403.345 -346.248)" fill="none" stroke="#000" stroke-miterlimit="10" stroke-width="2"/>
      </g>
      <g id="Grupo_1012148" data-name="Grupo 1012148" transform="translate(91.122 114.486)">
        <path id="Trazado_730454" data-name="Trazado 730454" d="M130.227,173.209l-.262-.044a3.441,3.441,0,0,1,1.7,2.231c.471,2.113-2.52,4.854-4.438,2.876a1.955,1.955,0,0,1-.185-2.441,2.814,2.814,0,0,1,1.31-.932c-1.455-1.207-2.917-2.589-1.718-4.687a3.629,3.629,0,0,1,4.517-1.374,5.338,5.338,0,0,1-.55-2.656c.334-2.846,4.013-3.25,6.2-2.327a5.665,5.665,0,0,1,7.044-6.538,3.712,3.712,0,0,1,2.121,1.285,3.508,3.508,0,0,1,.6,2.131,8.361,8.361,0,0,1-3.6,6.046,5.71,5.71,0,0,1-5.574.6,5.526,5.526,0,0,1-2.431,5.085A5.914,5.914,0,0,1,130.227,173.209Z" transform="translate(-122.436 -157.15)" fill="#37db00"/>
        <g id="Grupo_1012147" data-name="Grupo 1012147" transform="translate(0 20.164)">
          <path id="Trazado_730455" data-name="Trazado 730455" d="M127.846,202.166l.717-10.805H124.12l-3.585,10.805Z" transform="translate(-120.535 -188.811)"/>
          <path id="Trazado_730456" data-name="Trazado 730456" d="M130.831,190.58h-6.8l.639-3.06h6.8Z" transform="translate(-121.709 -187.52)"/>
        </g>
      </g>
      <g id="Grupo_1012149" data-name="Grupo 1012149" transform="translate(180.311 184.938)">
        <circle id="Elipse_8822" data-name="Elipse 8822" cx="11.704" cy="11.704" r="11.704" fill="#fc0"/>
        <path id="Trazado_730457" data-name="Trazado 730457" d="M264.891,269.344a8.363,8.363,0,0,0-4.989,8.591l8.029-.886C267.645,276.309,265.038,269.694,264.891,269.344Z" transform="translate(-256.543 -265.307)"/>
        <path id="Trazado_730458" data-name="Trazado 730458" d="M264.631,288.211a8.362,8.362,0,0,0,9.934.025l-4.782-6.51C269.286,282.343,264.861,287.908,264.631,288.211Z" transform="translate(-258.15 -269.468)"/>
        <path id="Trazado_730459" data-name="Trazado 730459" d="M280.936,277.94a8.363,8.363,0,0,0-4.945-8.616l-3.247,7.4C273.527,276.843,280.559,277.893,280.936,277.94Z" transform="translate(-260.877 -265.3)"/>
        <path id="Trazado_730460" data-name="Trazado 730460" d="M273.6,279.762a2.229,2.229,0,1,1-2.229-2.229A2.229,2.229,0,0,1,273.6,279.762Z" transform="translate(-259.665 -268.059)" fill="#ffce40"/>
        <path id="Trazado_730461" data-name="Trazado 730461" d="M273.126,280.246a1.273,1.273,0,1,1-1.273-1.273A1.274,1.274,0,0,1,273.126,280.246Z" transform="translate(-260.149 -268.543)"/>
      </g>
      <g id="Grupo_1012150" data-name="Grupo 1012150" transform="translate(259.316 151.022)">
        <circle id="Elipse_8823" data-name="Elipse 8823" cx="9.289" cy="9.289" r="9.289" transform="translate(0 13.136) rotate(-45)" fill="#fc0"/>
        <path id="Trazado_730462" data-name="Trazado 730462" d="M387.613,222.8a6.638,6.638,0,0,0-3.96,6.818l6.372-.7C389.8,228.328,387.731,223.078,387.613,222.8Z" transform="translate(-377.141 -215.749)"/>
        <path id="Trazado_730463" data-name="Trazado 730463" d="M387.408,237.774a6.637,6.637,0,0,0,7.884.02l-3.8-5.167C391.1,233.116,387.59,237.533,387.408,237.774Z" transform="translate(-378.416 -219.051)"/>
        <path id="Trazado_730464" data-name="Trazado 730464" d="M400.348,229.623a6.636,6.636,0,0,0-3.924-6.838l-2.577,5.87C394.467,228.752,400.048,229.585,400.348,229.623Z" transform="translate(-380.58 -215.744)"/>
        <path id="Trazado_730465" data-name="Trazado 730465" d="M394.524,231.069a1.769,1.769,0,1,1-1.769-1.769A1.77,1.77,0,0,1,394.524,231.069Z" transform="translate(-379.619 -217.933)" fill="#ffce40"/>
        <circle id="Elipse_8824" data-name="Elipse 8824" cx="1.011" cy="1.011" r="1.011" transform="translate(12.126 12.126)"/>
      </g>
      <g id="Grupo_1012151" data-name="Grupo 1012151" transform="translate(114.282 94.338)">
        <circle id="Elipse_8825" data-name="Elipse 8825" cx="10.916" cy="10.916" r="10.916" transform="translate(0)" fill="#fc0"/>
        <path id="Trazado_730466" data-name="Trazado 730466" d="M164.765,132.474a7.8,7.8,0,0,0-4.653,8.012l7.488-.827C167.334,138.97,164.9,132.8,164.765,132.474Z" transform="translate(-156.98 -128.709)"/>
        <path id="Trazado_730467" data-name="Trazado 730467" d="M164.523,150.07a7.8,7.8,0,0,0,9.266.023l-4.46-6.072C168.864,144.6,164.737,149.788,164.523,150.07Z" transform="translate(-158.478 -132.59)"/>
        <path id="Trazado_730468" data-name="Trazado 730468" d="M179.731,140.492a7.8,7.8,0,0,0-4.612-8.036l-3.028,6.9C172.82,139.468,179.379,140.448,179.731,140.492Z" transform="translate(-161.021 -128.703)"/>
        <circle id="Elipse_8826" data-name="Elipse 8826" cx="2.079" cy="2.079" r="2.079" transform="translate(8.836 8.836)" fill="#ffce40"/>
        <circle id="Elipse_8827" data-name="Elipse 8827" cx="1.188" cy="1.188" r="1.188" transform="translate(9.728 9.728)"/>
      </g>
      <g id="Grupo_1012153" data-name="Grupo 1012153" transform="translate(214.392 160.062)">
        <path id="Trazado_730469" data-name="Trazado 730469" d="M313.4,239.708a3.149,3.149,0,0,1,2.655-2.619,6.671,6.671,0,0,1,.231-4.852c.809-1.449,2.927-2.23,4.2-1.167a4.338,4.338,0,0,1,5.321-5.143,2.806,2.806,0,0,1,1.612,1.011,2.835,2.835,0,0,1,.455,1.677,5.888,5.888,0,0,1-3.405,4.9,13.161,13.161,0,0,1-6.115,1.111,1.888,1.888,0,0,1,1.9,1.76,2.884,2.884,0,0,1-1.272,2.447,6.394,6.394,0,0,1-2.677.994c1.937-.346,1.953,2.937.181,3.387C314.657,243.679,313.182,241.273,313.4,239.708Z" transform="translate(-308.613 -225.795)" fill="#37db00"/>
        <g id="Grupo_1012152" data-name="Grupo 1012152" transform="translate(0 16.869)">
          <path id="Trazado_730470" data-name="Trazado 730470" d="M314.274,268.715l.907-13.672h-4.443L306.2,268.715Z" transform="translate(-306.201 -252.493)"/>
          <path id="Trazado_730471" data-name="Trazado 730471" d="M317.931,254.262h-6.8l.639-3.06h6.8Z" transform="translate(-307.857 -251.203)"/>
        </g>
      </g>
      <g id="Grupo_1012154" data-name="Grupo 1012154" transform="translate(97.086 217.189)">
        <path id="Trazado_730472" data-name="Trazado 730472" d="M136.452,312.414,129.7,323.42a1.207,1.207,0,0,0,1.028,1.837h13.507a1.206,1.206,0,0,0,1.028-1.837l-6.754-11.006A1.206,1.206,0,0,0,136.452,312.414Z" transform="translate(-129.518 -311.839)"/>
        <path id="Trazado_730473" data-name="Trazado 730473" d="M142.251,322.705a2.9,2.9,0,0,1-2.646,2.784,2.377,2.377,0,0,1-2.185-2.784c.127-1.538,2.834-5.047,2.834-5.047S142.378,321.168,142.251,322.705Z" transform="translate(-132.17 -313.794)" fill="#fc0"/>
      </g>
      <path id="Trazado_730474" data-name="Trazado 730474" d="M329.658,154.27a1.734,1.734,0,0,0,.479,1.094c.7.631,1.827.112,2.518-.532a4.285,4.285,0,0,0,1.4-2.259c.33-1.783-1.4-5.1-2.419-6.562C331.193,148.483,329.349,151.832,329.658,154.27Z" transform="translate(-99.681 -38.92)" fill="#8cecff"/>
      <path id="Trazado_730475" data-name="Trazado 730475" d="M240.08,157.032a1.736,1.736,0,0,0,.479,1.095c.7.631,1.827.112,2.518-.532a4.286,4.286,0,0,0,1.4-2.259c.33-1.782-1.4-5.1-2.419-6.562C241.615,151.244,239.771,154.594,240.08,157.032Z" transform="translate(-69.577 -39.848)" fill="#8cecff"/>
      <path id="Trazado_730476" data-name="Trazado 730476" d="M196.9,216.152a1.734,1.734,0,0,0,.479,1.094c.7.631,1.827.112,2.518-.532a4.284,4.284,0,0,0,1.4-2.259c.33-1.783-1.4-5.1-2.419-6.562C198.437,210.365,196.593,213.714,196.9,216.152Z" transform="translate(-55.066 -59.717)" fill="#8cecff"/>
      <path id="Trazado_730477" data-name="Trazado 730477" d="M195.242,169.985a1.73,1.73,0,0,0,.479,1.094c.7.631,1.828.112,2.518-.532a4.28,4.28,0,0,0,1.4-2.259c.33-1.782-1.4-5.1-2.418-6.562C196.777,164.2,194.932,167.547,195.242,169.985Z" transform="translate(-54.508 -44.202)" fill="#8cecff"/>
      <path id="Trazado_730478" data-name="Trazado 730478" d="M203.877,185.928a1.732,1.732,0,0,0,.479,1.095c.7.631,1.827.112,2.518-.533a4.282,4.282,0,0,0,1.4-2.259c.33-1.782-1.4-5.1-2.419-6.562C205.412,180.14,203.568,183.49,203.877,185.928Z" transform="translate(-57.41 -49.559)" fill="#8cecff"/>
      <path id="Trazado_730479" data-name="Trazado 730479" d="M186.938,232.095a1.731,1.731,0,0,0,.479,1.095c.7.631,1.827.112,2.518-.532a4.286,4.286,0,0,0,1.4-2.259c.33-1.782-1.4-5.1-2.419-6.562C188.473,226.308,186.629,229.657,186.938,232.095Z" transform="translate(-51.718 -65.075)" fill="#8cecff"/>
      <path id="Trazado_730480" data-name="Trazado 730480" d="M178.635,206.188a1.73,1.73,0,0,0,.479,1.094c.7.631,1.828.112,2.518-.532a4.28,4.28,0,0,0,1.4-2.259c.33-1.783-1.4-5.1-2.418-6.562C180.17,200.4,178.325,203.75,178.635,206.188Z" transform="translate(-48.927 -56.368)" fill="#8cecff"/>
      <path id="Trazado_730481" data-name="Trazado 730481" d="M337.818,173.17c.1,2.2,3.24,3.761,4.523,1.422,1.184-2.16-1.5-7.508-2.58-9.425C339.238,167.268,337.713,170.756,337.818,173.17Z" transform="translate(-102.433 -45.358)" fill="#8cecff"/>
      <path id="Trazado_730482" data-name="Trazado 730482" d="M331.691,192.244c2.263-.653,1.806-1.716,1.5-3.719-.187-1.207-1.89-5.088-1.552-6.04C330.922,184.493,326.112,193.853,331.691,192.244Z" transform="translate(-99.481 -51.178)" fill="#8cecff"/>
      <g id="Grupo_1012155" data-name="Grupo 1012155" transform="translate(163.012 228.055)">
        <path id="Trazado_730483" data-name="Trazado 730483" d="M237.642,348.772a1.429,1.429,0,0,0,.4.9c.58.521,1.508.093,2.078-.44a3.537,3.537,0,0,0,1.155-1.864c.272-1.471-1.154-4.211-2-5.414C238.909,344,237.387,346.761,237.642,348.772Z" transform="translate(-231.772 -332.827)" fill="#37db00"/>
        <path id="Trazado_730484" data-name="Trazado 730484" d="M244.1,335.02a1.432,1.432,0,0,0,.4.9c.581.521,1.508.092,2.078-.44a3.537,3.537,0,0,0,1.155-1.864c.272-1.471-1.154-4.212-2-5.414C245.362,330.245,243.84,333.008,244.1,335.02Z" transform="translate(-233.941 -328.205)" fill="#37db00"/>
        <path id="Trazado_730485" data-name="Trazado 730485" d="M231.011,337.845c1.867-.538,1.49-1.416,1.235-3.068-.154-1-1.56-4.2-1.281-4.983C230.377,331.449,226.408,339.172,231.011,337.845Z" transform="translate(-228.815 -328.739)" fill="#37db00"/>
      </g>
      <g id="Grupo_1012156" data-name="Grupo 1012156" transform="translate(185.649 106.143)">
        <path id="Trazado_730486" data-name="Trazado 730486" d="M296.519,168.888l-3.048-2.746a.459.459,0,0,0-.649.034l-29.912,33.2a9.544,9.544,0,0,1,1.576,1.435,15.47,15.47,0,0,1,1.545,2.033c.08.1.156.207.234.311l30.289-33.622A.459.459,0,0,0,296.519,168.888Z" transform="translate(-262.91 -151.789)" fill="#fff"/>
        <path id="Trazado_730487" data-name="Trazado 730487" d="M313.759,168.5a7.115,7.115,0,1,1-.525-10.048A7.114,7.114,0,0,1,313.759,168.5Z" transform="translate(-275.831 -148.629)" fill="#fff"/>
        <path id="Trazado_730488" data-name="Trazado 730488" d="M307.556,164.822a4.017,4.017,0,0,1-3.064-2.319c-1.2-2.628,1.194-7.5,2.19-9.937,1.143-2.8,2.952-5.249,4.133-7.983a53.236,53.236,0,0,0-.062,7.964c1.431-1.354,3.121-3.531,4.861-4.344.052.621.121,4.948-.354,5.236a16.829,16.829,0,0,0,3.056-2.374,34.1,34.1,0,0,1-1.384,6.6c-.771,2.441-1.966,4.962-4.207,6.2A8.193,8.193,0,0,1,307.556,164.822Z" transform="translate(-276.774 -144.583)" fill="#fc0"/>
        <path id="Trazado_730489" data-name="Trazado 730489" d="M295.186,169.767c-9.637,10.705-19.855,20.922-29.043,32.239" transform="translate(-263.996 -153.047)" fill="none" stroke="#e66868" stroke-miterlimit="10" stroke-width="1"/>
        <path id="Trazado_730490" data-name="Trazado 730490" d="M311.576,170a4.151,4.151,0,1,1-.306-5.863A4.151,4.151,0,0,1,311.576,170Z" transform="translate(-276.833 -150.797)" fill="#de3d4f"/>
        <line id="Línea_2874" data-name="Línea 2874" x2="1.6" y2="1.441" transform="translate(22.429 23.448)" fill="none" stroke="#e66868" stroke-miterlimit="10" stroke-width="1"/>
        <line id="Línea_2875" data-name="Línea 2875" x2="1.6" y2="1.441" transform="translate(19.233 26.996)" fill="none" stroke="#e66868" stroke-miterlimit="10" stroke-width="1"/>
        <line id="Línea_2876" data-name="Línea 2876" x2="1.6" y2="1.441" transform="translate(16.037 30.544)" fill="none" stroke="#e66868" stroke-miterlimit="10" stroke-width="1"/>
        <line id="Línea_2877" data-name="Línea 2877" x2="1.6" y2="1.441" transform="translate(12.841 34.092)" fill="none" stroke="#e66868" stroke-miterlimit="10" stroke-width="1"/>
        <line id="Línea_2878" data-name="Línea 2878" x2="1.6" y2="1.441" transform="translate(9.644 37.64)" fill="none" stroke="#e66868" stroke-miterlimit="10" stroke-width="1"/>
        <line id="Línea_2879" data-name="Línea 2879" x2="1.6" y2="1.441" transform="translate(6.448 41.188)" fill="none" stroke="#e66868" stroke-miterlimit="10" stroke-width="1"/>
        <line id="Línea_2880" data-name="Línea 2880" x2="1.6" y2="1.441" transform="translate(3.252 44.736)" fill="none" stroke="#e66868" stroke-miterlimit="10" stroke-width="1"/>
      </g>
      <path id="Trazado_730491" data-name="Trazado 730491" d="M257.674,223.751a13.647,13.647,0,0,0-25.67-1.4" transform="translate(-66.874 -61.763)" fill="none" stroke="#000" stroke-linecap="round" stroke-miterlimit="10" stroke-width="3"/>
      <g id="Grupo_1012157" data-name="Grupo 1012157" transform="translate(221.777 187.623)">
        <path id="Trazado_730492" data-name="Trazado 730492" d="M339.236,335.918l.494-26.6a32.117,32.117,0,0,0-.774-9.525,12.9,12.9,0,0,0-8.01-8.547c-6.673-2.16-14.456,3.67-13.549,10.837a8.388,8.388,0,0,0,5.419,6.972c2.964.939,6.64-.57,7.667-3.5a3.386,3.386,0,0,0-.405-3.307,1.972,1.972,0,0,0-3.011.011" transform="translate(-317.325 -275.198)" fill="none" stroke="#8cecff" stroke-linecap="round" stroke-miterlimit="10" stroke-width="2"/>
        <path id="Trazado_730493" data-name="Trazado 730493" d="M366.639,334.375a279.855,279.855,0,0,0,.734-31.223c-.157-6.16.476-16.568,8.893-16.669a7.863,7.863,0,0,1,6.655,12.2,4.867,4.867,0,0,1-2.78,2.162c-2.123.514-4.235-1.075-5.361-2.947-.821-1.366-1.27-3.229-.281-4.479a4.969,4.969,0,0,1,3.2-1.4" transform="translate(-333.898 -273.751)" fill="none" stroke="#8cecff" stroke-linecap="round" stroke-miterlimit="10" stroke-width="2"/>
        <path id="Trazado_730494" data-name="Trazado 730494" d="M353.485,326.864q-.14-23.136,1.2-46.248c.195-3.356.361-6.943-1.352-9.835s-5.631-4.409-8.562-2.248a4.431,4.431,0,0,0,1.333,7.8" transform="translate(-325.944 -267.377)" fill="none" stroke="#8cecff" stroke-linecap="round" stroke-miterlimit="10" stroke-width="2"/>
        <path id="Trazado_730495" data-name="Trazado 730495" d="M367.9,278.634a36.6,36.6,0,0,0,.4-5.888c.007-1.51-.218-3.125.828-4.394a2.655,2.655,0,0,1,1.894-1.042,2.922,2.922,0,0,1,1.974.9,2.206,2.206,0,0,1,.517,2.062,1.78,1.78,0,0,1-1.637,1.272" transform="translate(-334.321 -267.307)" fill="none" stroke="#8cecff" stroke-linecap="round" stroke-miterlimit="10" stroke-width="2"/>
      </g>
      <g id="Grupo_1012170" data-name="Grupo 1012170" transform="translate(42.959 41.132)">
        <g id="Grupo_1012169" data-name="Grupo 1012169" clip-path="url(#clip-path-4)">
          <g id="Grupo_1012168" data-name="Grupo 1012168" transform="translate(55.463 208.031)">
            <g id="Grupo_1012159" data-name="Grupo 1012159" transform="translate(134.469 0)">
              <circle id="Elipse_8828" data-name="Elipse 8828" cx="12.517" cy="12.517" r="12.517" transform="translate(0 24.353) rotate(-76.607)" fill="#fc0"/>
              <g id="Grupo_1012158" data-name="Grupo 1012158" transform="translate(9.556 12.967)">
                <line id="Línea_2881" data-name="Línea 2881" y2="35.103" transform="translate(5.736)" fill="none" stroke="#000" stroke-linecap="round" stroke-miterlimit="10" stroke-width="1"/>
                <line id="Línea_2882" data-name="Línea 2882" x2="5.678" y2="4.213" transform="translate(0 5.148)" fill="none" stroke="#000" stroke-linecap="round" stroke-miterlimit="10" stroke-width="1"/>
              </g>
            </g>
            <g id="Grupo_1012161" data-name="Grupo 1012161" transform="translate(66.44 20.198)">
              <circle id="Elipse_8829" data-name="Elipse 8829" cx="12.517" cy="12.517" r="12.517" transform="translate(0 17.701) rotate(-45)" fill="#fc0"/>
              <g id="Grupo_1012160" data-name="Grupo 1012160" transform="translate(13.248 15.593)">
                <line id="Línea_2883" data-name="Línea 2883" y2="27.44" transform="translate(4.669)" fill="none" stroke="#000" stroke-linecap="round" stroke-miterlimit="10" stroke-width="1"/>
                <line id="Línea_2884" data-name="Línea 2884" x2="4.796" y2="4.796" transform="translate(0 5.337)" fill="none" stroke="#000" stroke-linecap="round" stroke-miterlimit="10" stroke-width="1"/>
              </g>
            </g>
            <g id="Grupo_1012164" data-name="Grupo 1012164" transform="translate(105.142 14.703)">
              <g id="Grupo_1012162" data-name="Grupo 1012162">
                <path id="Trazado_730496" data-name="Trazado 730496" d="M313.9,397.327a12.2,12.2,0,1,0-23.626,0Z" transform="translate(-289.893 -382.143)" fill="#244882"/>
                <path id="Trazado_730497" data-name="Trazado 730497" d="M313.9,417.891a12.2,12.2,0,1,0-23.626,0Z" transform="translate(-289.893 -389.054)" fill="#244882"/>
              </g>
              <g id="Grupo_1012163" data-name="Grupo 1012163" transform="translate(8.089 8.218)">
                <line id="Línea_2885" data-name="Línea 2885" y2="35.844" transform="translate(4.982)" fill="none" stroke="#000" stroke-linecap="round" stroke-miterlimit="10" stroke-width="1"/>
                <line id="Línea_2886" data-name="Línea 2886" x2="4.978" y2="4.978" transform="translate(0 2.235)" fill="none" stroke="#000" stroke-linecap="round" stroke-miterlimit="10" stroke-width="1"/>
                <line id="Línea_2887" data-name="Línea 2887" x1="5.476" y2="3.983" transform="translate(4.982 15.433)" fill="none" stroke="#000" stroke-linecap="round" stroke-miterlimit="10" stroke-width="1"/>
                <line id="Línea_2888" data-name="Línea 2888" x1="5.476" y2="3.983" transform="translate(5.147 26.348)" fill="none" stroke="#000" stroke-linecap="round" stroke-miterlimit="10" stroke-width="1"/>
              </g>
            </g>
            <g id="Grupo_1012165" data-name="Grupo 1012165" transform="translate(0 2.854)">
              <path id="Trazado_730498" data-name="Trazado 730498" d="M165.13,396.207a17.541,17.541,0,0,0-29.353,0Z" transform="translate(-132.957 -372.354)" fill="#fc0"/>
              <path id="Trazado_730499" data-name="Trazado 730499" d="M166.523,380.5a17.548,17.548,0,0,0-34.993,0Z" transform="translate(-131.53 -364.296)" fill="#244882"/>
              <line id="Línea_2889" data-name="Línea 2889" y2="42.189" transform="translate(17.437 5.316)" fill="none" stroke="#000" stroke-linecap="round" stroke-miterlimit="10" stroke-width="1"/>
              <line id="Línea_2890" data-name="Línea 2890" x1="6.481" y1="2.86" transform="translate(10.955 32.382)" fill="none" stroke="#000" stroke-linecap="round" stroke-miterlimit="10" stroke-width="1"/>
              <line id="Línea_2891" data-name="Línea 2891" x1="6.481" y1="2.86" transform="translate(10.955 27.13)" fill="none" stroke="#000" stroke-linecap="round" stroke-miterlimit="10" stroke-width="1"/>
              <line id="Línea_2892" data-name="Línea 2892" x1="6.451" y2="3.193" transform="translate(17.896 11.499)" fill="none" stroke="#000" stroke-linecap="round" stroke-miterlimit="10" stroke-width="1"/>
            </g>
            <g id="Grupo_1012167" data-name="Grupo 1012167" transform="translate(36.119 5.761)">
              <g id="Grupo_1012166" data-name="Grupo 1012166" transform="translate(0 0)">
                <circle id="Elipse_8830" data-name="Elipse 8830" cx="14.193" cy="14.193" r="14.193" transform="translate(0 27.612) rotate(-76.593)" fill="#244882"/>
                <line id="Línea_2893" data-name="Línea 2893" y2="37.329" transform="translate(17.097 17.097)" fill="none" stroke="#000" stroke-linecap="round" stroke-miterlimit="10" stroke-width="1"/>
              </g>
              <path id="Trazado_730500" data-name="Trazado 730500" d="M213.125,399.134l-4.972,5.878-7.828-6.941" transform="translate(-190.769 -378.554)" fill="none" stroke="#000" stroke-linecap="round" stroke-miterlimit="10" stroke-width="1"/>
            </g>
          </g>
        </g>
      </g>
      <path id="Trazado_730502" data-name="Trazado 730502" d="M154.76,115.876a82.127,82.127,0,0,0-16.688,14.617" transform="translate(-35.307 -28.793)" fill="none" stroke="#000" stroke-miterlimit="10" stroke-width="0.5"/>
      <path id="Trazado_730503" data-name="Trazado 730503" d="M131.141,144.342a23.2,23.2,0,0,0-3.456,4.043" transform="translate(-31.816 -38.359)" fill="none" stroke="#000" stroke-miterlimit="10" stroke-width="0.5"/>
      <path id="Trazado_730504" data-name="Trazado 730504" d="M385.067,151.755a50.292,50.292,0,0,1,7.276,9.7" transform="translate(-118.314 -40.851)" fill="none" stroke="#000" stroke-miterlimit="10" stroke-width="0.5"/>
      <g id="Grupo_1012172" data-name="Grupo 1012172" transform="translate(239.249 125.3)">
        <path id="Trazado_730505" data-name="Trazado 730505" d="M353.4,189.886a7.083,7.083,0,0,1,4.979-3,5.923,5.923,0,0,1,1.361-5.578,6.024,6.024,0,0,1,5.516-1.756A7.2,7.2,0,0,1,371,173.48c2.959-.4,6.143,2.077,6.011,5.059a6.564,6.564,0,0,1-1.8,3.915,11.942,11.942,0,0,1-13.549,2.914,2.48,2.48,0,0,1,1.585,3.061,4.041,4.041,0,0,1-2.7,2.54,11.937,11.937,0,0,1-3.815.416,2.134,2.134,0,0,1,1.034,2.443c-.409,1.34-1.61,2.567-3.154,2.041a2.459,2.459,0,0,1-1.3-1.287,5.064,5.064,0,0,1,.072-4.675Z" transform="translate(-346.713 -173.438)" fill="#d2d3d6"/>
        <g id="Grupo_1012171" data-name="Grupo 1012171" transform="translate(0 21.177)">
          <path id="Trazado_730506" data-name="Trazado 730506" d="M351.714,227.573l2.041-18.4h-4.443l-5.67,18.4Z" transform="translate(-343.642 -206.624)"/>
          <path id="Trazado_730507" data-name="Trazado 730507" d="M357.079,208.393h-6.8l.639-3.06h6.8Z" transform="translate(-345.871 -205.334)"/>
        </g>
        <path id="Trazado_730508" data-name="Trazado 730508" d="M374.112,188.74a4.8,4.8,0,0,0,3.282-1.167" transform="translate(-353.882 -178.188)" fill="none" stroke="#000" stroke-miterlimit="10" stroke-width="0.5"/>
        <path id="Trazado_730509" data-name="Trazado 730509" d="M382.079,176.717a1.918,1.918,0,0,1,1.32,2.822" transform="translate(-356.559 -174.54)" fill="none" stroke="#000" stroke-miterlimit="10" stroke-width="0.5"/>
      </g>
      <g id="Grupo_1012175" data-name="Grupo 1012175" transform="translate(136.329 171.281)">
        <g id="Grupo_1012174" data-name="Grupo 1012174">
          <path id="Trazado_730510" data-name="Trazado 730510" d="M194.449,263.061a6.221,6.221,0,0,1,6.989-3.71c.01-2.927.274-6.017,1.943-8.421s5.179-3.751,7.635-2.159c-1.591-1.032,1.262-4.246,1.959-4.748a6.8,6.8,0,0,1,6.064-1.005,4.161,4.161,0,0,1,1.448.8c4.051,3.644.022,9.518-3.837,11.036-2.86,1.125-6.025,1.106-9.1,1.038,2.572,1.23,2.862,5.185.969,7.317s-5.138,2.589-7.907,1.91c1.791.439-1.034,5.731-3.068,5.618C194.564,270.575,193.662,265.119,194.449,263.061Z" transform="translate(-190.491 -242.693)" fill="#d2d3d6"/>
          <g id="Grupo_1012173" data-name="Grupo 1012173" transform="translate(0 26.764)">
            <path id="Trazado_730511" data-name="Trazado 730511" d="M196.7,300.517l.907-13.672h-4.443l-4.536,13.672Z" transform="translate(-188.624 -284.295)"/>
            <path id="Trazado_730512" data-name="Trazado 730512" d="M200.354,286.064h-6.8l.639-3.06h6.8Z" transform="translate(-190.28 -283.005)"/>
          </g>
        </g>
        <path id="Trazado_730513" data-name="Trazado 730513" d="M230.276,249.407a2.79,2.79,0,0,1-.018,3.5" transform="translate(-202.616 -244.949)" fill="none" stroke="#000" stroke-miterlimit="10" stroke-width="0.5"/>
        <path id="Trazado_730514" data-name="Trazado 730514" d="M218.673,252.053A3.407,3.407,0,0,0,220,253.6" transform="translate(-198.723 -245.839)" fill="none" stroke="#000" stroke-miterlimit="10" stroke-width="0.5"/>
        <path id="Trazado_730515" data-name="Trazado 730515" d="M212.7,262.017l.661,1.1" transform="translate(-196.714 -249.187)" fill="none" stroke="#000" stroke-miterlimit="10" stroke-width="0.5"/>
        <path id="Trazado_730516" data-name="Trazado 730516" d="M199.746,277.284a5.6,5.6,0,0,0,2.2.459" transform="translate(-192.362 -254.318)" fill="none" stroke="#000" stroke-miterlimit="10" stroke-width="0.5"/>
      </g>
      <path id="Trazado_730517" data-name="Trazado 730517" d="M91.872,232.682A131.2,131.2,0,0,0,95.2,271.375" transform="translate(-19.693 -68.048)" fill="none" stroke="#000" stroke-miterlimit="10" stroke-width="0.5"/>
      <path id="Trazado_730518" data-name="Trazado 730518" d="M108.615,321.743A163.31,163.31,0,0,0,124.2,345.932" transform="translate(-25.407 -97.978)" fill="none" stroke="#000" stroke-miterlimit="10" stroke-width="0.5"/>
      <path id="Trazado_730519" data-name="Trazado 730519" d="M414.123,220.08a97.648,97.648,0,0,1-4.422,56.933" transform="translate(-126.593 -63.812)" fill="none" stroke="#000" stroke-miterlimit="10" stroke-width="0.5"/>
    </g>
  </g>
</svg>
