<svg xmlns="http://www.w3.org/2000/svg" xmlns:xlink="http://www.w3.org/1999/xlink" width="505" height="301" viewBox="0 0 505 301">
  <defs>
    <clipPath id="clip-path">
      <rect id="Rectángulo_348594" data-name="Rectángulo 348594" width="505" height="301" transform="translate(-60)" fill="none"/>
    </clipPath>
    <clipPath id="clip-path-2">
      <circle id="Elipse_8815" data-name="Elipse 8815" cx="22.268" cy="22.268" r="22.268" fill="#7fc3d3"/>
    </clipPath>
    <clipPath id="clip-path-3">
      <path id="Rectángulo_349512" data-name="Rectángulo 349512" d="M34.188,0H57.924A34.188,34.188,0,0,1,92.112,34.188v0a0,0,0,0,1,0,0H0a0,0,0,0,1,0,0v0A34.188,34.188,0,0,1,34.188,0Z" fill="#e2c85a"/>
    </clipPath>
    <clipPath id="clip-path-4">
      <rect id="Rectángulo_349514" data-name="Rectángulo 349514" width="7.515" height="183.953" fill="#ccb140"/>
    </clipPath>
    <clipPath id="clip-path-5">
      <path id="Trazado_730211" data-name="Trazado 730211" d="M112.369,270.534c0,3.2-9.651,5.793-21.561,5.793s-21.567-2.593-21.567-5.793c0-1.072,1.084-2.077,2.966-2.938,3.745-1.711,10.67-2.86,18.6-2.86s14.85,1.149,18.595,2.86C111.285,268.457,112.369,269.462,112.369,270.534Z" transform="translate(-69.241 -264.736)" fill="#f4d037"/>
    </clipPath>
    <clipPath id="clip-path-6">
      <path id="Trazado_730217" data-name="Trazado 730217" d="M116.79,263.607c0,3.2-9.651,5.793-21.561,5.793s-21.567-2.593-21.567-5.793c0-1.072,1.083-2.077,2.966-2.938,3.745-1.711,10.67-2.86,18.6-2.86s14.85,1.149,18.595,2.86C115.706,261.53,116.79,262.535,116.79,263.607Z" transform="translate(-73.663 -257.809)" fill="#f4d037"/>
    </clipPath>
    <clipPath id="clip-path-7">
      <path id="Trazado_730223" data-name="Trazado 730223" d="M113.146,256.68c0,3.2-9.651,5.793-21.56,5.793s-21.567-2.592-21.567-5.793c0-1.073,1.084-2.078,2.966-2.938,3.745-1.712,10.67-2.861,18.6-2.861s14.849,1.149,18.595,2.861C112.063,254.6,113.146,255.607,113.146,256.68Z" transform="translate(-70.019 -250.881)" fill="#f4d037"/>
    </clipPath>
    <clipPath id="clip-path-8">
      <path id="Trazado_730229" data-name="Trazado 730229" d="M106.836,249.752c0,3.2-9.651,5.793-21.561,5.793s-21.567-2.592-21.567-5.793c0-1.072,1.084-2.077,2.966-2.938,3.744-1.711,10.67-2.86,18.6-2.86s14.85,1.149,18.595,2.86C105.752,247.675,106.836,248.68,106.836,249.752Z" transform="translate(-63.708 -243.954)" fill="#f4d037"/>
    </clipPath>
  </defs>
  <g id="Grupo_1013480" data-name="Grupo 1013480" transform="translate(-998 1592)">
    <rect id="_19d0ead6a9" data-name="19d0ead6a9" width="505" height="300" rx="19" transform="translate(998 -1592)" fill="#fff"/>
    <g id="Grupo_1009660" data-name="Grupo 1009660" transform="translate(1058 -1592)" clip-path="url(#clip-path)">
      <g id="Grupo_1009659" data-name="Grupo 1009659" transform="translate(-32.134 -16.738)">
        <path id="Trazado_724487" data-name="Trazado 724487" d="M90.327-27.455C85.891-4.636,72.462,15.457,57.195,32.986S24.55,66.169,9.975,84.279s-26.489,39.418-28.241,62.6c-.716,9.479.86,20.173,8.305,26.083" transform="translate(-20.581 27.455)" fill="none" stroke="#f2b366" stroke-miterlimit="10" stroke-width="1"/>
        <path id="Trazado_724488" data-name="Trazado 724488" d="M81.24-18.964,20.811,86.742C9.986,105.676-.9,124.751-7.986,145.378s-10.21,43.137-5.14,64.35" transform="translate(-21.694 24.08)" fill="none" stroke="#f2b366" stroke-miterlimit="10" stroke-width="1"/>
        <path id="Trazado_724489" data-name="Trazado 724489" d="M351.577-8.932c-1.393,20.623,6.013,41.194,17.8,58.175s27.732,30.68,44.619,42.6c9.758,6.888,20.032,13.374,27.785,22.459s12.721,21.517,9.662,33.063" transform="translate(32.4 20.092)" fill="none" stroke="#f2b366" stroke-miterlimit="10" stroke-width="1"/>
        <path id="Trazado_724490" data-name="Trazado 724490" d="M375.293-14.227a89.194,89.194,0,0,0,4.8,68.482c15.138,29.785,46.058,49.067,61.522,78.684a91.091,91.091,0,0,1,4.006,74.35c-7.957,20.3-22.914,36.9-35.334,54.825s-22.784,39.227-19.452,60.777" transform="translate(24.764 22.196)" fill="none" stroke="#f2b366" stroke-miterlimit="10" stroke-width="1"/>
        <path id="Trazado_724491" data-name="Trazado 724491" d="M496.921,215.266c1.009,14.471-2.624,28.891-7.569,42.527s-11.222,26.774-15.821,40.532a177.862,177.862,0,0,0-.125,111.471" transform="translate(-12.56 -69.034)" fill="none" stroke="#f2b366" stroke-miterlimit="10" stroke-width="1"/>
        <path id="Trazado_724492" data-name="Trazado 724492" d="M-35.477,343.413c13.27,17.916,27.605,35.663,46.455,47.571,17.2,10.867,37.233,16.28,55.485,25.271s35.811,23.261,40.27,43.113" transform="translate(-3.801 -119.976)" fill="none" stroke="#f2b366" stroke-miterlimit="10" stroke-width="1"/>
        <path id="Trazado_724493" data-name="Trazado 724493" d="M105.69,472.426c-8.174-14.515-24.257-22.932-40.418-26.97s-33-4.478-49.389-7.436a163.443,163.443,0,0,1-69.157-30.276" transform="translate(3.274 -145.55)" fill="none" stroke="#f2b366" stroke-miterlimit="10" stroke-width="1"/>
      </g>
    </g>
    <g id="Grupo_1012056" data-name="Grupo 1012056" transform="translate(1095.51 -1612.912)">
      <path id="Trazado_730153" data-name="Trazado 730153" d="M218.727,261.977H176.408c-3.007.374-5.64-2.822-5.484-5.849a5.44,5.44,0,0,1,6.372-4.8,8.666,8.666,0,1,1,13.6-10.336,8.521,8.521,0,0,1,15.792,4.579,7.056,7.056,0,0,1,9.981,7.921c1.708-1.5,4.665.239,4.99,2.488S220.36,260.4,218.727,261.977Z" transform="translate(-63.814 -75.291)" fill="#fff"/>
      <path id="Trazado_730154" data-name="Trazado 730154" d="M422.809,237.56c0,.169-.149.331-.441.493-2.992,1.655-20.912,2.921-42.563,2.921-20.405,0-37.494-1.129-41.895-2.642-.72-.246-1.1-.507-1.1-.773,0-.2.221-.4.643-.59,3.524-1.6,21.152-2.823,42.355-2.823,22.437,0,40.863,1.369,42.829,3.1A.432.432,0,0,1,422.809,237.56Z" transform="translate(-125.164 -74.421)" fill="#2a3b47"/>
      <path id="Trazado_730155" data-name="Trazado 730155" d="M362.732,218.2c-1.589-2.94-5.323-3.322-8.378-4.287a17.3,17.3,0,0,1-7.11-4.41c-1.017-1.042-1.943-2.756-1.071-3.887.8-1.04,2.4-.614,3.56-.008a25.729,25.729,0,0,1,6.75,5.1,8.239,8.239,0,0,0-2.794-5.222,57.378,57.378,0,0,0-4.73-3.6,26.367,26.367,0,0,1-6.495-7.292c-.658-1.09-1.227-2.567-.492-3.56a2,2,0,0,1,2.252-.551,5.782,5.782,0,0,1,2.065,1.453,40.249,40.249,0,0,1,7.088,9.247c.433.176.9-.243.986-.72a2.577,2.577,0,0,0-.294-1.41c-3.5-8.2-10.232-15.1-11.393-23.951a3.718,3.718,0,0,1,.521-2.961,2.354,2.354,0,0,1,2.954-.188,6.561,6.561,0,0,1,2.1,2.559c2.651,4.888,3.764,10.475,4.994,15.927a10.852,10.852,0,0,0,2.125,5.077q.656-3.773,1.311-7.544a5.637,5.637,0,0,1,1.405-3.393,1.313,1.313,0,0,1,1.272-.35c.558.206.807.894.918,1.505,1.062,5.849-3.724,11.534-2.314,17.31,2.484-2.153,2.135-7.127,5.156-8.316a1.441,1.441,0,0,1,1.617.225,1.728,1.728,0,0,1,.351.99c.322,3.408-3.053,5.777-4.034,9.005-1.039,3.416.743,7.059,2.155,10.39a2.512,2.512,0,0,1,.282,1.585c-.142.522-.821.87-1.2.483" transform="translate(-126.947 -51.263)" fill="#6e8e49"/>
      <path id="Trazado_730156" data-name="Trazado 730156" d="M425.806,224.567c.045-1.508,1.5-2.562,2.071-3.958.778-1.906-.2-4.021-.509-6.055a9.326,9.326,0,0,1,.423-4.491c.241-.684.755-1.454,1.475-1.361.874.112,1.047,1.291.99,2.17l-.367,5.718c1.556-.473,2.276-2.158,2.335-3.782a19.418,19.418,0,0,0-.834-4.79,20.211,20.211,0,0,1-.325-6.716,1.511,1.511,0,0,1,.369-.97,1.08,1.08,0,0,1,1.511.306,3.134,3.134,0,0,1,.427,1.664l.522,8.056c1.882-1.037,2.69-3.359,2.748-5.507s-.468-4.272-.514-6.42a14.434,14.434,0,0,1,1.03-5.663,1.823,1.823,0,0,1,.527-.815,1.344,1.344,0,0,1,1.863.65,3.893,3.893,0,0,1,.157,2.213l-1.175,9.461,7.458-11.851a4.493,4.493,0,0,1,1.518-1.686,1.546,1.546,0,0,1,2.037.387,2.129,2.129,0,0,1,0,1.649,17.48,17.48,0,0,1-4.724,7.7c-1.81,1.712-4.148,3.307-4.468,5.777a30.258,30.258,0,0,1,7.509-1.931,3.587,3.587,0,0,1,1.9.129,1.338,1.338,0,0,1,.819,1.551,1.747,1.747,0,0,1-.8.82c-2.357,1.444-5.278,1.464-7.988,2s-5.653,2.035-6.209,4.743a23.929,23.929,0,0,1,8.526-1.12c1.335.067,3.12.952,2.6,2.184a1.892,1.892,0,0,1-1.29.929c-2.385.7-4.922-.072-7.4-.2s-5.464.815-6.055,3.23l5.139-.095c1.853-.033,4.244.328,4.639,2.139a9.972,9.972,0,0,1-5.408.89,18.054,18.054,0,0,0-3.453-.385,4.851,4.851,0,0,0-4.249,3.711" transform="translate(-158.078 -58.289)" fill="#6e8e49"/>
      <path id="Trazado_730157" data-name="Trazado 730157" d="M105.195,275.64c0,.168-.149.331-.441.493-2.992,1.655-20.912,2.921-42.563,2.921-20.405,0-37.494-1.129-41.895-2.642-.72-.246-1.1-.506-1.1-.772,0-.2.221-.4.643-.591,3.524-1.6,21.152-2.823,42.355-2.823,22.437,0,40.863,1.369,42.829,3.1A.433.433,0,0,1,105.195,275.64Z" transform="translate(-7.702 -88.504)" fill="#2a3b47"/>
      <g id="Grupo_1012032" data-name="Grupo 1012032" transform="translate(22.697 145.19)">
        <path id="Trazado_730158" data-name="Trazado 730158" d="M38.149,237.465a20.788,20.788,0,0,0,.478,15,11.436,11.436,0,0,0,2.63,3.974,12.229,12.229,0,0,0,4.511,2.426,23.186,23.186,0,0,0,14.224.292,18.136,18.136,0,0,0,10.785-9.043,14.932,14.932,0,0,0-.335-13.88c-1.782-3.022-4.653-5.215-7.02-7.8s-4.338-6.017-3.641-9.455a41.389,41.389,0,0,0,1.121-4.082c.138-1.407-.58-3.086-1.98-3.283-1.5-.212-2.812,1.364-4.315,1.176a6.3,6.3,0,0,1-2.334-1.283c-.762-.474-1.917-.657-2.435.076-.376.533-.218,1.305-.568,1.856-.783,1.231-3.082.226-3.978,1.377-.707.907.139,2.19,1,2.952,3.135,2.775-.556,6.757-2.372,9.542C41.793,230.563,39.466,233.762,38.149,237.465Z" transform="translate(-36.977 -211.082)" fill="#5d7c3c"/>
        <path id="Trazado_730159" data-name="Trazado 730159" d="M61.942,245.375a12.005,12.005,0,0,0-5.043.066,4.1,4.1,0,0,0-3.085,3.6,4.221,4.221,0,0,0,2.45,3.473,17.576,17.576,0,0,0,4.267,1.27A7.868,7.868,0,0,1,64.5,255.7a5.225,5.225,0,0,1,.664,5.948A6.846,6.846,0,0,1,60,265a10.036,10.036,0,0,1-6.138-1.371" transform="translate(-43.204 -223.676)" fill="none" stroke="#4e6631" stroke-miterlimit="10" stroke-width="0.855"/>
        <path id="Trazado_730160" data-name="Trazado 730160" d="M60.8,235.73q.061,15.224,1.119,30.421" transform="translate(-45.788 -220.197)" fill="none" stroke="#4e6631" stroke-miterlimit="10" stroke-width="0.214"/>
        <path id="Trazado_730161" data-name="Trazado 730161" d="M51.01,216.307a.815.815,0,0,1,.361-1.1,2.348,2.348,0,0,1,1.27-.187,2.4,2.4,0,0,0,1.271-.181,2.913,2.913,0,0,0,1-1.462c.253-.544.694-1.119,1.294-1.1" transform="translate(-42.129 -211.525)" fill="none" stroke="#4e6631" stroke-miterlimit="10" stroke-width="0.214"/>
        <path id="Trazado_730162" data-name="Trazado 730162" d="M64.553,213.621a4.342,4.342,0,0,0,3.733-1.145" transform="translate(-47.175 -211.597)" fill="none" stroke="#4e6631" stroke-miterlimit="10" stroke-width="0.214"/>
      </g>
      <g id="Grupo_1012034" data-name="Grupo 1012034" transform="translate(232.045 125.909)">
        <circle id="Elipse_8814" data-name="Elipse 8814" cx="22.268" cy="22.268" r="22.268" fill="#7fc3d3"/>
        <g id="Grupo_1012033" data-name="Grupo 1012033" clip-path="url(#clip-path-2)">
          <path id="Trazado_730163" data-name="Trazado 730163" d="M373.868,191.2a4.28,4.28,0,0,0,2.957,3.733c1.8.5,4.161-.224,5.288,1.266a3.2,3.2,0,0,1,.522,1.934c.023,4.166-3.267,7.765-3.426,11.928a4.431,4.431,0,0,0,1.315,3.624c1.005.832,2.458.935,3.493,1.73a9.8,9.8,0,0,1,1.954,2.736,3.142,3.142,0,0,0,2.694,1.744c1.659-.169,2.272-2.364,1.88-3.985s-1.361-3.141-1.269-4.806c.142-2.557,2.612-4.234,4.18-6.258,2.507-3.234,2.771-7.672,2.334-11.74a19.036,19.036,0,0,0-1.891-7,9.15,9.15,0,0,0-5.379-4.635c-3-.837-6.158.339-9.026,1.555C376.485,184.3,373.564,187.658,373.868,191.2Z" transform="translate(-370.907 -180.745)" fill="#5d7c3c"/>
          <path id="Trazado_730164" data-name="Trazado 730164" d="M432.371,201.563a6.386,6.386,0,0,0-2.572-4.552,4.21,4.21,0,0,0-3.9-.364,7.922,7.922,0,0,0-7.374,7.231,2.731,2.731,0,0,0,.255,1.468c.535.956,1.972,1.339,2.114,2.425a2.513,2.513,0,0,1-.565,1.584,32.1,32.1,0,0,0-3.037,6.193,6.05,6.05,0,0,0-.491,2.545,2.353,2.353,0,0,0,1.385,2.05,2.52,2.52,0,0,0,2.415-.635c1.706-1.482,1.949-4.066,3.361-5.83,1.257-1.57,3.27-2.3,4.866-3.523A9.475,9.475,0,0,0,432.371,201.563Z" transform="translate(-386.786 -186.344)" fill="#5d7c3c"/>
        </g>
      </g>
      <path id="Trazado_730165" data-name="Trazado 730165" d="M423.015,240.346a11,11,0,0,1-10.248,7.055H346.2c-4.569,0-5.992-2.8-7.64-6.776,4.4,1.512,21.49,2.642,41.895,2.642C402.1,243.267,420.023,242,423.015,240.346Z" transform="translate(-125.811 -76.714)" fill="#3e5060"/>
      <path id="Trazado_730267" data-name="Trazado 730267" d="M114.147,0c63.042,0,114.147,7.015,114.147,15.667S177.189,31.335,114.147,31.335,0,24.32,0,15.667,51.106,0,114.147,0Z" transform="translate(45.259 283.032)" fill="#5d7c3c" opacity="0.36"/>
      <g id="Grupo_1012035" data-name="Grupo 1012035" transform="translate(82.614 208.427)">
        <path id="Trazado_730166" data-name="Trazado 730166" d="M225.249,346.427c-.177-1.728.688-3.419.616-5.154-.172-4.092-5.019-6.134-7.247-9.57-1.641-2.531-1.77-5.718-2.647-8.6s-3.179-5.865-6.185-5.614c-2.757.231-4.576,3.141-4.885,5.89-.583,5.191,2.526,10.422,1.311,15.5-.674,2.82-2.647,5.681-1.54,8.361,1.263,3.058,5.936,3.949,6.5,7.209.373,2.161-1.35,4.143-1.522,6.328a5.9,5.9,0,0,0,3.625,5.482,11.3,11.3,0,0,0,6.152.669c.04.348.087.694.124,1.043.35,3.337.118,6.888,1.018,10.122a1.086,1.086,0,0,0,2.078,0c.876-3.873.466-8.469-.285-12.894a10.232,10.232,0,0,0,5.092-13.942C226.66,349.66,225.43,348.2,225.249,346.427Z" transform="translate(-158.788 -313.663)" fill="#486275"/>
        <path id="Trazado_730167" data-name="Trazado 730167" d="M184.86,389.967q-3.61-2.346-7.05-4.827a11.771,11.771,0,0,0,.2-11.278.975.975,0,0,0-1.672,0,14.433,14.433,0,0,0-.736,1.565.819.819,0,0,0-.2.406c-.009.057-.014.113-.023.169a13.209,13.209,0,0,0-.556,6.949q-2.388-1.79-4.706-3.649c.244-.6.462-1.2.661-1.807a1.235,1.235,0,0,0,.236-.746,23.317,23.317,0,0,0,.774-10c-.288-2.007-1.117-7.929-3.69-8.6-6.452-1.693-.8,17.461-.139,19.341.013.037.031.067.046.1q-4.376-3.607-8.538-7.463a36.842,36.842,0,0,0-3.485-21.974,1.18,1.18,0,0,0-2.138.279c-.838,6.219.241,12.143,1.8,18.08q-2.587-2.511-5.114-5.126a22.7,22.7,0,0,0,.062-10.056c-.394-1.763-1.033-5.238-3.391-5.452-4.315-.393-2.76,6.792-1.222,11.632a1.52,1.52,0,0,0-.757,2.429q1.153,1.38,2.357,2.729l-.014,0c-.122.031-.241.051-.362.081-3.712-1.1-7.622-2.487-11.344-2.845-1.709-.165-4.039.6-3.789,2.775.3,2.638,4.69,3.186,6.607,3.5a25.244,25.244,0,0,0,11.357-.828q2.374,2.525,4.9,4.936a63.462,63.462,0,0,0-9.576,2.844c-1.8.7-4.638,1.306-5.6,3.114a1.236,1.236,0,0,0,0,1.248c1.937,2.76,7.186,1.052,9.778.05a19.534,19.534,0,0,0,7.582-5.211q4.348,3.983,9.029,7.611c-4.859,1.413-10.61,2.349-15.061,4.677-2.277,1.191-4.315,3.951-2.587,6.477,2.163,3.161,6.715.517,9.165-.776a37.866,37.866,0,0,0,10.759-8.646q2.8,2.084,5.684,4.026a36.815,36.815,0,0,0-9.079,6.217c-1.149,1.178-1.7,3.325.452,3.747,2.1.41,4.838-1.492,6.381-2.693a15.389,15.389,0,0,0,4.511-5.769q3.681,2.388,7.449,4.538A1.027,1.027,0,0,0,184.86,389.967ZM162.3,384.675l-.013-.009.084-.038Z" transform="translate(-132.056 -324.162)" fill="#486275"/>
        <path id="Trazado_730168" data-name="Trazado 730168" d="M297.124,342.082c-1.356-2.713-4.386-1.081-5.973.353-3.212,2.9-6.273,6-9.339,9.071.345-1.634.71-3.266,1.126-4.893.791-3.093,1.744-6.091,2.781-9.049a28.961,28.961,0,0,0,11.643-3.147c2.134-1.114,7.288-3.67,6.631-6.819-1.087-5.207-11.225,1.388-16.518,5.187,1.8-4.665,3.765-9.265,5.677-13.967.579-1.424-1.679-2.359-2.434-1.074a77.415,77.415,0,0,0-5.472,11.6c-.079-4.107-.157-8.214-.3-12.317-.054-1.5-.383-3.886-1.725-4.723a1.221,1.221,0,0,0-2.335-.03l0,.023c-2.816,1.323-1.676,6.993-1.471,9.132a48.625,48.625,0,0,0,3.646,14.24c-1.139,3.622-2.112,7.272-2.966,10.839q-.41,1.714-.78,3.445c-.216-4.5-.553-9.008-1.185-13.459-.3-2.133-1.583-4.963-4.219-3.31-2.85,1.787-1.729,7.546-1.342,10.215a31.466,31.466,0,0,0,5.416,13.646,101.126,101.126,0,0,0-1.339,19.907.886.886,0,0,0,1.77.03c.582-6.97,1.3-13.877,2.489-20.726,3.855-1.391,7.731-2.883,11.023-5.374C294.008,349.307,298.682,345.2,297.124,342.082Zm-8.425-6.575.009.006-.046.011Z" transform="translate(-183.817 -311.429)" fill="#486275"/>
        <path id="Trazado_730169" data-name="Trazado 730169" d="M327.754,369.535a34.023,34.023,0,0,0-16.48,23.258,46.95,46.95,0,0,0-4.218,8.441c-.228.606.764,1.054,1.048.463a64.167,64.167,0,0,1,4.741-8.293c5.479,1.845,11.685.508,16.746-2.339,5.234-2.944,9.476-7.337,13.628-11.675s8.373-8.747,13.58-11.736A34.008,34.008,0,0,0,327.754,369.535Z" transform="translate(-196.763 -331.336)" fill="#486275"/>
        <path id="Trazado_730170" data-name="Trazado 730170" d="M316.345,393.8a65.765,65.765,0,0,1,34.568-26.244" transform="translate(-200.21 -332.187)" fill="none" stroke="#25343f" stroke-miterlimit="10" stroke-width="0.312"/>
        <path id="Trazado_730171" data-name="Trazado 730171" d="M325.2,396.554a31.733,31.733,0,0,1,14.218-1.519" transform="translate(-203.484 -342.263)" fill="none" stroke="#25343f" stroke-miterlimit="10" stroke-width="0.312"/>
        <path id="Trazado_730172" data-name="Trazado 730172" d="M336.189,385.2a48.069,48.069,0,0,1,15.532-1.978" transform="translate(-207.549 -337.967)" fill="none" stroke="#25343f" stroke-miterlimit="10" stroke-width="0.312"/>
        <path id="Trazado_730173" data-name="Trazado 730173" d="M348.8,376.9a33.036,33.036,0,0,1,10.915-.152" transform="translate(-212.212 -335.445)" fill="none" stroke="#25343f" stroke-miterlimit="10" stroke-width="0.312"/>
        <path id="Trazado_730174" data-name="Trazado 730174" d="M338.922,380.382a40.328,40.328,0,0,0,1.572-6.751" transform="translate(-208.56 -334.433)" fill="none" stroke="#25343f" stroke-miterlimit="10" stroke-width="0.312"/>
        <path id="Trazado_730175" data-name="Trazado 730175" d="M324.935,392.517a21.519,21.519,0,0,0,2.689-8.134" transform="translate(-203.387 -338.409)" fill="none" stroke="#25343f" stroke-miterlimit="10" stroke-width="0.312"/>
        <path id="Trazado_730176" data-name="Trazado 730176" d="M287.349,313a59.443,59.443,0,0,0,3.438,21.491" transform="translate(-189.48 -312.011)" fill="none" stroke="#25343f" stroke-miterlimit="10" stroke-width="0.312"/>
        <path id="Trazado_730177" data-name="Trazado 730177" d="M296.339,343.716a26.038,26.038,0,0,0,13.132-7.041" transform="translate(-192.811 -320.766)" fill="none" stroke="#25343f" stroke-miterlimit="10" stroke-width="0.312"/>
        <path id="Trazado_730178" data-name="Trazado 730178" d="M286.595,373.043a35.213,35.213,0,0,0,12.1-9.643" transform="translate(-189.208 -330.649)" fill="none" stroke="#25343f" stroke-miterlimit="10" stroke-width="0.312"/>
        <path id="Trazado_730179" data-name="Trazado 730179" d="M276.561,348.931a41.773,41.773,0,0,0,3.983,18.72" transform="translate(-185.493 -325.298)" fill="none" stroke="#25343f" stroke-miterlimit="10" stroke-width="0.312"/>
        <path id="Trazado_730180" data-name="Trazado 730180" d="M212.743,324.842q4.951,20.506,8.649,41.29" transform="translate(-161.896 -316.39)" fill="none" stroke="#25343f" stroke-miterlimit="10" stroke-width="0.306"/>
        <path id="Trazado_730181" data-name="Trazado 730181" d="M218.8,331.121l-1.3,5.468" transform="translate(-163.655 -318.712)" fill="none" stroke="#25343f" stroke-miterlimit="10" stroke-width="0.122"/>
        <path id="Trazado_730182" data-name="Trazado 730182" d="M208.5,335.719a31.611,31.611,0,0,0,5.051,4.58" transform="translate(-160.325 -320.412)" fill="none" stroke="#25343f" stroke-miterlimit="10" stroke-width="0.122"/>
        <path id="Trazado_730183" data-name="Trazado 730183" d="M225.126,343.534a49.812,49.812,0,0,1-3.5,8.46" transform="translate(-165.18 -323.302)" fill="none" stroke="#25343f" stroke-miterlimit="10" stroke-width="0.122"/>
        <path id="Trazado_730184" data-name="Trazado 730184" d="M211.8,352.6a25.128,25.128,0,0,0,5.326,3.368" transform="translate(-161.549 -326.654)" fill="none" stroke="#25343f" stroke-miterlimit="10" stroke-width="0.122"/>
        <path id="Trazado_730185" data-name="Trazado 730185" d="M229.1,354.492a29.264,29.264,0,0,1-6.488,9.91" transform="translate(-165.546 -327.355)" fill="none" stroke="#25343f" stroke-miterlimit="10" stroke-width="0.122"/>
        <path id="Trazado_730186" data-name="Trazado 730186" d="M211.213,364.311a14.076,14.076,0,0,0,6.914,3.862" transform="translate(-161.33 -330.986)" fill="none" stroke="#25343f" stroke-miterlimit="10" stroke-width="0.122"/>
        <path id="Trazado_730187" data-name="Trazado 730187" d="M225.015,378.625a29.1,29.1,0,0,0,5.557-6.8" transform="translate(-166.434 -333.767)" fill="none" stroke="#25343f" stroke-miterlimit="10" stroke-width="0.122"/>
        <path id="Trazado_730188" data-name="Trazado 730188" d="M221.922,381.683a23.183,23.183,0,0,1-4.263-1.581" transform="translate(-163.714 -336.826)" fill="none" stroke="#25343f" stroke-miterlimit="10" stroke-width="0.122"/>
        <path id="Trazado_730189" data-name="Trazado 730189" d="M167.831,350.351a153.27,153.27,0,0,1,2.051,19.723" transform="translate(-145.286 -325.824)" fill="none" stroke="#25343f" stroke-miterlimit="10" stroke-width="0.122"/>
        <path id="Trazado_730190" data-name="Trazado 730190" d="M187.427,366.386a55.93,55.93,0,0,1,1.815,18.412" transform="translate(-152.533 -331.754)" fill="none" stroke="#25343f" stroke-miterlimit="10" stroke-width="0.122"/>
        <path id="Trazado_730191" data-name="Trazado 730191" d="M203.244,392.021l-.454,7.25" transform="translate(-158.215 -341.234)" fill="none" stroke="#25343f" stroke-miterlimit="10" stroke-width="0.122"/>
        <path id="Trazado_730192" data-name="Trazado 730192" d="M186.346,416.457a23.09,23.09,0,0,0,9.064-7.232" transform="translate(-152.133 -347.597)" fill="none" stroke="#25343f" stroke-miterlimit="10" stroke-width="0.122"/>
        <path id="Trazado_730193" data-name="Trazado 730193" d="M160.132,408.114a38.285,38.285,0,0,0,15.545-7.645" transform="translate(-142.439 -344.358)" fill="none" stroke="#25343f" stroke-miterlimit="10" stroke-width="0.122"/>
        <path id="Trazado_730194" data-name="Trazado 730194" d="M145.229,389.683a28.548,28.548,0,0,0,17.609-5.915" transform="translate(-136.927 -338.182)" fill="none" stroke="#25343f" stroke-miterlimit="10" stroke-width="0.122"/>
        <path id="Trazado_730195" data-name="Trazado 730195" d="M134.323,369.891a27.768,27.768,0,0,0,15.08,2.361" transform="translate(-132.894 -333.05)" fill="none" stroke="#25343f" stroke-miterlimit="10" stroke-width="0.122"/>
        <path id="Trazado_730196" data-name="Trazado 730196" d="M155.281,347.689a48.6,48.6,0,0,1,1.942,16.652" transform="translate(-140.645 -324.839)" fill="none" stroke="#25343f" stroke-miterlimit="10" stroke-width="0.122"/>
      </g>
      <path id="Trazado_730197" data-name="Trazado 730197" d="M272.854,462.336h-91.7a2.7,2.7,0,0,1-2.7-2.7h0a2.7,2.7,0,0,1,2.7-2.7h91.7a2.7,2.7,0,0,1,2.7,2.7h0A2.7,2.7,0,0,1,272.854,462.336Z" transform="translate(-66.601 -156.817)" fill="#ccb140"/>
      <g id="Grupo_1012037" data-name="Grupo 1012037" transform="translate(114.552 265.938)">
        <path id="Rectángulo_349511" data-name="Rectángulo 349511" d="M34.188,0H57.924A34.188,34.188,0,0,1,92.112,34.188v0a0,0,0,0,1,0,0H0a0,0,0,0,1,0,0v0A34.188,34.188,0,0,1,34.188,0Z" transform="translate(0 0)" fill="#e2c85a"/>
        <g id="Grupo_1012036" data-name="Grupo 1012036" transform="translate(0 0)" clip-path="url(#clip-path-3)">
          <path id="Trazado_730198" data-name="Trazado 730198" d="M223.477,387.641q.223,25.67.446,51.34" transform="translate(-197.804 -397.125)" fill="none" stroke="#f9e073" stroke-miterlimit="10" stroke-width="0.872"/>
          <path id="Trazado_730199" data-name="Trazado 730199" d="M204.529,405.928A359.78,359.78,0,0,0,204.252,444" transform="translate(-190.555 -403.888)" fill="none" stroke="#f9e073" stroke-miterlimit="10" stroke-width="0.872"/>
          <path id="Trazado_730200" data-name="Trazado 730200" d="M292.525,384.872v59.37" transform="translate(-223.339 -396.101)" fill="none" stroke="#f9e073" stroke-miterlimit="10" stroke-width="0.872"/>
        </g>
      </g>
      <g id="Grupo_1012039" data-name="Grupo 1012039" transform="translate(157.13 81.985)">
        <rect id="Rectángulo_349513" data-name="Rectángulo 349513" width="7.515" height="183.953" fill="#ccb140"/>
        <g id="Grupo_1012038" data-name="Grupo 1012038" clip-path="url(#clip-path-4)">
          <path id="Trazado_730201" data-name="Trazado 730201" d="M252.881,133.822q-32.53,27.215-62.825,56.963" transform="translate(-228.021 -119.304)" fill="none" stroke="#e2c759" stroke-miterlimit="10" stroke-width="0.872"/>
          <path id="Trazado_730202" data-name="Trazado 730202" d="M253.25,201.9l-49.778,46.97" transform="translate(-232.983 -144.48)" fill="none" stroke="#e2c759" stroke-miterlimit="10" stroke-width="0.872"/>
          <path id="Trazado_730203" data-name="Trazado 730203" d="M255.931,263.7,188.483,326.16" transform="translate(-227.44 -167.334)" fill="none" stroke="#e2c759" stroke-miterlimit="10" stroke-width="0.872"/>
        </g>
      </g>
      <rect id="Rectángulo_349515" data-name="Rectángulo 349515" width="14.332" height="33.823" transform="translate(153.809 68.436)" fill="#b59924"/>
      <path id="Trazado_730204" data-name="Trazado 730204" d="M189.759,110.784,118.7,152.306h-32.1" transform="translate(-32.629 -28.799)" fill="none" stroke="#b59924" stroke-miterlimit="10" stroke-width="5.15"/>
      <line id="Línea_2870" data-name="Línea 2870" x1="41.832" y2="63.039" transform="translate(12.132 123.507)" fill="none" stroke="#b59924" stroke-miterlimit="10" stroke-width="1.03"/>
      <circle id="Elipse_8817" data-name="Elipse 8817" cx="3.121" cy="3.121" r="3.121" transform="translate(50.843 120.385)" fill="#e2c85a"/>
      <line id="Línea_2871" data-name="Línea 2871" x2="42.276" y2="62.809" transform="translate(53.964 123.507)" fill="none" stroke="#b59924" stroke-miterlimit="10" stroke-width="1.03"/>
      <path id="Trazado_730205" data-name="Trazado 730205" d="M256.4,111.57l66.12,25.7,25.148-6.542" transform="translate(-95.429 -29.09)" fill="none" stroke="#b59924" stroke-miterlimit="10" stroke-width="5.15"/>
      <line id="Línea_2872" data-name="Línea 2872" x2="43.43" y2="61.028" transform="translate(251.839 102.933)" fill="none" stroke="#b59924" stroke-miterlimit="10" stroke-width="1.03"/>
      <path id="Trazado_730206" data-name="Trazado 730206" d="M394.711,142.98a3.121,3.121,0,1,0,2.235-3.806A3.121,3.121,0,0,0,394.711,142.98Z" transform="translate(-146.541 -39.261)" fill="#e2c85a"/>
      <line id="Línea_2873" data-name="Línea 2873" x1="39.555" y2="61.028" transform="translate(212.284 102.933)" fill="none" stroke="#b59924" stroke-miterlimit="10" stroke-width="1.03"/>
      <circle id="Elipse_8818" data-name="Elipse 8818" cx="12.748" cy="12.748" r="12.748" transform="translate(145.57 76.671) rotate(-76.834)" fill="#ccb140"/>
      <circle id="Elipse_8819" data-name="Elipse 8819" cx="9.717" cy="9.717" r="9.717" transform="matrix(0.212, -0.977, 0.977, 0.212, 149.332, 74.599)" fill="#b59924"/>
      <g id="Grupo_1012043" data-name="Grupo 1012043" transform="translate(43.029 179.002)">
        <path id="Trazado_730207" data-name="Trazado 730207" d="M112.369,272.213v2.855c0,3.206-9.651,5.8-21.561,5.8s-21.567-2.593-21.567-5.8v-2.855c0-1.072,1.084-2.077,2.966-2.938h37.2C111.285,270.136,112.369,271.141,112.369,272.213Z" transform="translate(-69.241 -266.415)" fill="#d8b62a"/>
        <g id="Grupo_1012041" data-name="Grupo 1012041">
          <path id="Trazado_730208" data-name="Trazado 730208" d="M112.369,270.534c0,3.2-9.651,5.793-21.561,5.793s-21.567-2.593-21.567-5.793c0-1.072,1.084-2.077,2.966-2.938,3.745-1.711,10.67-2.86,18.6-2.86s14.85,1.149,18.595,2.86C111.285,268.457,112.369,269.462,112.369,270.534Z" transform="translate(-69.241 -264.736)" fill="#f4d037"/>
          <g id="Grupo_1012040" data-name="Grupo 1012040" clip-path="url(#clip-path-5)">
            <path id="Trazado_730209" data-name="Trazado 730209" d="M91.293,256.713l-29.4,18.876" transform="translate(-66.522 -261.769)" fill="none" stroke="#ffe67d" stroke-miterlimit="10" stroke-width="0.918"/>
            <path id="Trazado_730210" data-name="Trazado 730210" d="M115.31,260.695,88.326,279.668" transform="translate(-76.299 -263.241)" fill="none" stroke="#ffe67d" stroke-miterlimit="10" stroke-width="0.918"/>
          </g>
        </g>
        <g id="Grupo_1012042" data-name="Grupo 1012042" transform="translate(8.342 2.496)">
          <path id="Trazado_730212" data-name="Trazado 730212" d="M104.5,269.222a3.7,3.7,0,0,1,2.192,1.422h3.359V272h-3.214a3.41,3.41,0,0,1-2.1,2.051l-3.855-.558q1.548-.756,1.811-1.625H98.34a5.27,5.27,0,0,1-1.124,1.073,5.666,5.666,0,0,1-1.855.742,13.854,13.854,0,0,1-3.213.3,13.442,13.442,0,0,1-4.06-.548A4.006,4.006,0,0,1,85.809,272h-3.33v-1.361h3.272a2.846,2.846,0,0,1,.774-1.006,4.475,4.475,0,0,1,1.27-.761l3.886.558a4.338,4.338,0,0,0-1.724,1.323h4.381a4.519,4.519,0,0,1,2.906-1.768,14.13,14.13,0,0,1,3.2-.293A13.635,13.635,0,0,1,104.5,269.222Zm-11.186,2.651H90.132a1.788,1.788,0,0,0,.672.265,4.74,4.74,0,0,0,.994.095A2.869,2.869,0,0,0,93.316,271.872Zm7.389-1.417a2.348,2.348,0,0,0-1.284.3h2.891A3.317,3.317,0,0,0,100.7,270.455Z" transform="translate(-82.479 -268.697)" fill="#bf9f16"/>
        </g>
      </g>
      <g id="Grupo_1012047" data-name="Grupo 1012047" transform="translate(45.816 174.637)">
        <path id="Trazado_730213" data-name="Trazado 730213" d="M116.79,265.286v2.855c0,3.206-9.651,5.8-21.561,5.8s-21.567-2.593-21.567-5.8v-2.855c0-1.072,1.083-2.077,2.966-2.938h37.2C115.706,263.209,116.79,264.214,116.79,265.286Z" transform="translate(-73.663 -259.488)" fill="#d8b62a"/>
        <g id="Grupo_1012045" data-name="Grupo 1012045">
          <path id="Trazado_730214" data-name="Trazado 730214" d="M116.79,263.607c0,3.2-9.651,5.793-21.561,5.793s-21.567-2.593-21.567-5.793c0-1.072,1.083-2.077,2.966-2.938,3.745-1.711,10.67-2.86,18.6-2.86s14.85,1.149,18.595,2.86C115.706,261.53,116.79,262.535,116.79,263.607Z" transform="translate(-73.663 -257.809)" fill="#f4d037"/>
          <g id="Grupo_1012044" data-name="Grupo 1012044" clip-path="url(#clip-path-6)">
            <path id="Trazado_730215" data-name="Trazado 730215" d="M95.714,249.785l-29.4,18.876" transform="translate(-70.944 -254.842)" fill="none" stroke="#ffe67d" stroke-miterlimit="10" stroke-width="0.918"/>
            <path id="Trazado_730216" data-name="Trazado 730216" d="M119.731,253.768,92.747,272.741" transform="translate(-80.721 -256.314)" fill="none" stroke="#ffe67d" stroke-miterlimit="10" stroke-width="0.918"/>
          </g>
        </g>
        <g id="Grupo_1012046" data-name="Grupo 1012046" transform="translate(8.342 2.496)">
          <path id="Trazado_730218" data-name="Trazado 730218" d="M108.923,262.294a3.7,3.7,0,0,1,2.192,1.422h3.359v1.361H111.26a3.413,3.413,0,0,1-2.1,2.051l-3.855-.558q1.549-.756,1.811-1.625h-4.353a5.269,5.269,0,0,1-1.124,1.073,5.672,5.672,0,0,1-1.855.742,13.854,13.854,0,0,1-3.213.3,13.44,13.44,0,0,1-4.06-.548,4.009,4.009,0,0,1-2.278-1.436H86.9v-1.361h3.272a2.846,2.846,0,0,1,.774-1.006,4.472,4.472,0,0,1,1.27-.761l3.886.558a4.337,4.337,0,0,0-1.724,1.323h4.381a4.522,4.522,0,0,1,2.906-1.767,14.09,14.09,0,0,1,3.2-.293A13.657,13.657,0,0,1,108.923,262.294Zm-11.186,2.651H94.553a1.786,1.786,0,0,0,.672.264,4.693,4.693,0,0,0,.994.1A2.868,2.868,0,0,0,97.737,264.945Zm7.389-1.418a2.348,2.348,0,0,0-1.284.3h2.891A3.316,3.316,0,0,0,105.126,263.528Z" transform="translate(-86.9 -261.77)" fill="#bf9f16"/>
        </g>
      </g>
      <g id="Grupo_1012051" data-name="Grupo 1012051" transform="translate(43.52 170.271)">
        <path id="Trazado_730219" data-name="Trazado 730219" d="M113.146,258.359v2.855c0,3.206-9.651,5.8-21.56,5.8s-21.567-2.592-21.567-5.8v-2.855c0-1.073,1.084-2.078,2.966-2.938h37.2C112.063,256.281,113.146,257.286,113.146,258.359Z" transform="translate(-70.019 -252.56)" fill="#d8b62a"/>
        <g id="Grupo_1012049" data-name="Grupo 1012049">
          <path id="Trazado_730220" data-name="Trazado 730220" d="M113.146,256.68c0,3.2-9.651,5.793-21.56,5.793s-21.567-2.592-21.567-5.793c0-1.073,1.084-2.078,2.966-2.938,3.745-1.712,10.67-2.861,18.6-2.861s14.849,1.149,18.595,2.861C112.063,254.6,113.146,255.607,113.146,256.68Z" transform="translate(-70.019 -250.881)" fill="#f4d037"/>
          <g id="Grupo_1012048" data-name="Grupo 1012048" clip-path="url(#clip-path-7)">
            <path id="Trazado_730221" data-name="Trazado 730221" d="M92.071,242.858l-29.4,18.876" transform="translate(-67.3 -247.914)" fill="none" stroke="#ffe67d" stroke-miterlimit="10" stroke-width="0.918"/>
            <path id="Trazado_730222" data-name="Trazado 730222" d="M116.087,246.841,89.1,265.814" transform="translate(-77.077 -249.387)" fill="none" stroke="#ffe67d" stroke-miterlimit="10" stroke-width="0.918"/>
          </g>
        </g>
        <g id="Grupo_1012050" data-name="Grupo 1012050" transform="translate(8.342 2.497)">
          <path id="Trazado_730224" data-name="Trazado 730224" d="M105.28,255.367a3.705,3.705,0,0,1,2.192,1.422h3.359v1.361h-3.214a3.413,3.413,0,0,1-2.1,2.051l-3.855-.558q1.549-.756,1.811-1.625H99.118a5.288,5.288,0,0,1-1.125,1.073,5.655,5.655,0,0,1-1.855.742,13.85,13.85,0,0,1-3.213.3,13.437,13.437,0,0,1-4.06-.548,4.01,4.01,0,0,1-2.279-1.436h-3.33V256.79h3.272a2.844,2.844,0,0,1,.773-1.006,4.468,4.468,0,0,1,1.271-.761l3.885.558a4.338,4.338,0,0,0-1.724,1.323h4.381a4.518,4.518,0,0,1,2.906-1.768,14.127,14.127,0,0,1,3.2-.292A13.64,13.64,0,0,1,105.28,255.367Zm-11.187,2.65H90.91a1.783,1.783,0,0,0,.671.265,4.746,4.746,0,0,0,.994.095A2.867,2.867,0,0,0,94.094,258.018Zm7.389-1.417a2.349,2.349,0,0,0-1.285.3h2.892A3.319,3.319,0,0,0,101.483,256.6Z" transform="translate(-83.257 -254.843)" fill="#bf9f16"/>
        </g>
      </g>
      <g id="Grupo_1012055" data-name="Grupo 1012055" transform="translate(39.543 165.905)">
        <path id="Trazado_730225" data-name="Trazado 730225" d="M106.836,251.431v2.855c0,3.206-9.651,5.8-21.561,5.8s-21.567-2.593-21.567-5.8v-2.855c0-1.072,1.084-2.077,2.966-2.938h37.2C105.752,249.354,106.836,250.359,106.836,251.431Z" transform="translate(-63.708 -245.633)" fill="#d8b62a"/>
        <g id="Grupo_1012053" data-name="Grupo 1012053">
          <path id="Trazado_730226" data-name="Trazado 730226" d="M106.836,249.752c0,3.2-9.651,5.793-21.561,5.793s-21.567-2.592-21.567-5.793c0-1.072,1.084-2.077,2.966-2.938,3.744-1.711,10.67-2.86,18.6-2.86s14.85,1.149,18.595,2.86C105.752,247.675,106.836,248.68,106.836,249.752Z" transform="translate(-63.708 -243.954)" fill="#f4d037"/>
          <g id="Grupo_1012052" data-name="Grupo 1012052" clip-path="url(#clip-path-8)">
            <path id="Trazado_730227" data-name="Trazado 730227" d="M85.76,235.93l-29.4,18.876" transform="translate(-60.989 -240.987)" fill="none" stroke="#ffe67d" stroke-miterlimit="10" stroke-width="0.918"/>
            <path id="Trazado_730228" data-name="Trazado 730228" d="M109.777,239.913,82.792,258.886" transform="translate(-70.766 -242.46)" fill="none" stroke="#ffe67d" stroke-miterlimit="10" stroke-width="0.918"/>
          </g>
        </g>
        <g id="Grupo_1012054" data-name="Grupo 1012054" transform="translate(8.342 2.496)">
          <path id="Trazado_730230" data-name="Trazado 730230" d="M98.969,248.439a3.7,3.7,0,0,1,2.192,1.422h3.359v1.361h-3.214a3.415,3.415,0,0,1-2.1,2.051l-3.856-.558q1.549-.756,1.812-1.625H92.807a5.271,5.271,0,0,1-1.124,1.073,5.666,5.666,0,0,1-1.855.742,13.852,13.852,0,0,1-3.213.3,13.441,13.441,0,0,1-4.06-.548,4.013,4.013,0,0,1-2.279-1.436h-3.33v-1.361h3.272a2.831,2.831,0,0,1,.774-1.006,4.464,4.464,0,0,1,1.27-.761l3.885.558a4.339,4.339,0,0,0-1.723,1.323h4.381a4.522,4.522,0,0,1,2.906-1.767,14.122,14.122,0,0,1,3.2-.293A13.661,13.661,0,0,1,98.969,248.439ZM87.783,251.09H84.6a1.8,1.8,0,0,0,.672.265,4.738,4.738,0,0,0,.993.095A2.869,2.869,0,0,0,87.783,251.09Zm7.389-1.418a2.355,2.355,0,0,0-1.285.3h2.892A3.324,3.324,0,0,0,95.172,249.673Z" transform="translate(-76.946 -247.915)" fill="#bf9f16"/>
        </g>
      </g>
      <path id="Trazado_730231" data-name="Trazado 730231" d="M105.4,278.426a11,11,0,0,1-10.248,7.055H28.583c-4.569,0-5.992-2.8-7.64-6.776,4.4,1.512,21.49,2.642,41.895,2.642C84.489,281.347,102.409,280.081,105.4,278.426Z" transform="translate(-8.35 -90.797)" fill="#3e5060"/>
      <path id="Trazado_730232" data-name="Trazado 730232" d="M87.553,93.407h-33.3c-2.366.294-4.438-2.221-4.315-4.6a4.28,4.28,0,0,1,5.013-3.779,6.819,6.819,0,1,1,10.7-8.132,6.7,6.7,0,0,1,12.426,3.6,5.552,5.552,0,0,1,7.853,6.232c1.344-1.18,3.671.188,3.926,1.958S88.837,92.163,87.553,93.407Z" transform="translate(-19.072 -14.958)" fill="#4db1f0"/>
      <path id="Trazado_730233" data-name="Trazado 730233" d="M341.082,62.763h46.494c3.322,0,4.575-5.225,4.119-8.516s-4.111-6-7.217-4.818c2.62-4.284,1.42-10.36-2.374-13.65a12.966,12.966,0,0,0-14.117-1.424A15.689,15.689,0,0,0,359.973,46.4a7.707,7.707,0,0,0-13.437,7.2,5.393,5.393,0,0,0-5.79,2.088C339.511,57.505,339.746,61.025,341.082,62.763Z" transform="translate(-126.322 0)" fill="#4db1f0"/>
      <path id="Trazado_730234" data-name="Trazado 730234" d="M460.658,150.638" transform="translate(-170.967 -43.538)" fill="none" stroke="#526d32" stroke-miterlimit="10" stroke-width="1"/>
      <path id="Trazado_730235" data-name="Trazado 730235" d="M364.033,223.356A65.32,65.32,0,0,0,344.7,188.561" transform="translate(-128.083 -57.563)" fill="none" stroke="#526d32" stroke-miterlimit="10" stroke-width="0.25"/>
      <path id="Trazado_730236" data-name="Trazado 730236" d="M360.233,199.949a52.1,52.1,0,0,0-1.358-12.2" transform="translate(-133.325 -57.261)" fill="none" stroke="#526d32" stroke-miterlimit="10" stroke-width="0.25"/>
      <path id="Trazado_730237" data-name="Trazado 730237" d="M355.011,205.774a40.143,40.143,0,0,0-8.568-2.472" transform="translate(-128.728 -63.014)" fill="none" stroke="#526d32" stroke-miterlimit="10" stroke-width="0.25"/>
      <path id="Trazado_730238" data-name="Trazado 730238" d="M349.323,197.06l-7-.793" transform="translate(-127.205 -60.413)" fill="none" stroke="#526d32" stroke-miterlimit="10" stroke-width="0.25"/>
      <path id="Trazado_730239" data-name="Trazado 730239" d="M352.329,191.042a34.328,34.328,0,0,0-1.72-9.009" transform="translate(-130.268 -55.149)" fill="none" stroke="#526d32" stroke-miterlimit="10" stroke-width="0.25"/>
      <path id="Trazado_730240" data-name="Trazado 730240" d="M361.691,215.581a21.518,21.518,0,0,0-7-.618" transform="translate(-131.777 -67.304)" fill="none" stroke="#526d32" stroke-miterlimit="10" stroke-width="0.25"/>
      <path id="Trazado_730241" data-name="Trazado 730241" d="M367.131,209.568l.614-8.8" transform="translate(-136.379 -62.079)" fill="none" stroke="#526d32" stroke-miterlimit="10" stroke-width="0.25"/>
      <path id="Trazado_730242" data-name="Trazado 730242" d="M364.826,225.37a15.516,15.516,0,0,0-6.969-1.511" transform="translate(-132.949 -70.616)" fill="none" stroke="#526d32" stroke-miterlimit="10" stroke-width="0.25"/>
      <path id="Trazado_730243" data-name="Trazado 730243" d="M370.293,221.454l2.032-7.333" transform="translate(-137.548 -67.016)" fill="none" stroke="#526d32" stroke-miterlimit="10" stroke-width="0.25"/>
      <path id="Trazado_730244" data-name="Trazado 730244" d="M440.423,203.563a38.01,38.01,0,0,0,3.47-27.193" transform="translate(-163.484 -53.054)" fill="none" stroke="#526d32" stroke-miterlimit="10" stroke-width="0.25"/>
      <path id="Trazado_730245" data-name="Trazado 730245" d="M444.517,189.453a61.173,61.173,0,0,0-4.739-9.03" transform="translate(-163.245 -54.553)" fill="none" stroke="#526d32" stroke-miterlimit="10" stroke-width="0.25"/>
      <path id="Trazado_730246" data-name="Trazado 730246" d="M447.625,186.411a39.262,39.262,0,0,0,4.251-10.378" transform="translate(-166.147 -52.93)" fill="none" stroke="#526d32" stroke-miterlimit="10" stroke-width="0.25"/>
      <path id="Trazado_730247" data-name="Trazado 730247" d="M444.123,198.213l-3.115-6.341" transform="translate(-163.7 -58.787)" fill="none" stroke="#526d32" stroke-miterlimit="10" stroke-width="0.25"/>
      <path id="Trazado_730248" data-name="Trazado 730248" d="M447.281,198.243l6.021-6.376" transform="translate(-166.02 -58.785)" fill="none" stroke="#526d32" stroke-miterlimit="10" stroke-width="0.25"/>
      <path id="Trazado_730249" data-name="Trazado 730249" d="M442.913,207.4a12.672,12.672,0,0,0-1.621-5.993" transform="translate(-163.805 -62.314)" fill="none" stroke="#526d32" stroke-miterlimit="10" stroke-width="0.25"/>
      <path id="Trazado_730250" data-name="Trazado 730250" d="M444.474,207.5a16.613,16.613,0,0,0,4.807-4.19" transform="translate(-164.982 -63.018)" fill="none" stroke="#526d32" stroke-miterlimit="10" stroke-width="0.25"/>
      <path id="Trazado_730251" data-name="Trazado 730251" d="M437.08,223.983a61.367,61.367,0,0,0,22.776-17.351" transform="translate(-162.247 -64.246)" fill="none" stroke="#526d32" stroke-miterlimit="10" stroke-width="0.25"/>
      <path id="Trazado_730252" data-name="Trazado 730252" d="M446.378,223.721a40.035,40.035,0,0,0,3.4-9" transform="translate(-165.686 -67.239)" fill="none" stroke="#526d32" stroke-miterlimit="10" stroke-width="0.25"/>
      <path id="Trazado_730253" data-name="Trazado 730253" d="M447.966,228.784a26.527,26.527,0,0,0,7.616-1.285" transform="translate(-166.273 -71.963)" fill="none" stroke="#526d32" stroke-miterlimit="10" stroke-width="0.25"/>
      <path id="Trazado_730254" data-name="Trazado 730254" d="M456.915,216.781l1.989-6.8" transform="translate(-169.583 -65.484)" fill="none" stroke="#526d32" stroke-miterlimit="10" stroke-width="0.25"/>
      <path id="Trazado_730255" data-name="Trazado 730255" d="M456.834,220.528a8.3,8.3,0,0,0,6.815-1.027" transform="translate(-169.553 -69.005)" fill="none" stroke="#526d32" stroke-miterlimit="10" stroke-width="0.25"/>
      <path id="Trazado_730256" data-name="Trazado 730256" d="M465.7,208.591a24.165,24.165,0,0,0,.258-7.2" transform="translate(-172.832 -62.308)" fill="none" stroke="#526d32" stroke-miterlimit="10" stroke-width="0.25"/>
      <path id="Trazado_730257" data-name="Trazado 730257" d="M465.1,212.041a7.6,7.6,0,0,0,6.805-.784" transform="translate(-172.611 -65.956)" fill="none" stroke="#526d32" stroke-miterlimit="10" stroke-width="0.25"/>
      <path id="Trazado_730258" data-name="Trazado 730258" d="M344.772,221.171a132.8,132.8,0,0,0-18.13-24.073" transform="translate(-121.405 -60.72)" fill="none" stroke="#526d32" stroke-miterlimit="10" stroke-width="0.25"/>
      <path id="Trazado_730259" data-name="Trazado 730259" d="M333.41,210.41a21.212,21.212,0,0,0-8.541-1.751" transform="translate(-120.749 -64.996)" fill="none" stroke="#526d32" stroke-miterlimit="10" stroke-width="0.25"/>
      <path id="Trazado_730260" data-name="Trazado 730260" d="M337.96,204.4a24.3,24.3,0,0,0-.4-8.4" transform="translate(-125.441 -60.317)" fill="none" stroke="#526d32" stroke-miterlimit="10" stroke-width="0.25"/>
      <path id="Trazado_730261" data-name="Trazado 730261" d="M338.087,216.735a15.937,15.937,0,0,0-7.2-.841" transform="translate(-122.976 -67.634)" fill="none" stroke="#526d32" stroke-miterlimit="10" stroke-width="0.25"/>
      <path id="Trazado_730262" data-name="Trazado 730262" d="M343.584,212.42a19.847,19.847,0,0,0,.045-7.6" transform="translate(-127.67 -63.575)" fill="none" stroke="#526d32" stroke-miterlimit="10" stroke-width="0.25"/>
      <path id="Trazado_730263" data-name="Trazado 730263" d="M344,223.832a7.266,7.266,0,0,0-5.805-.975" transform="translate(-125.678 -70.162)" fill="none" stroke="#526d32" stroke-miterlimit="10" stroke-width="0.25"/>
      <path id="Trazado_730264" data-name="Trazado 730264" d="M348.951,220.795a10.444,10.444,0,0,0,.442-6.4" transform="translate(-129.655 -67.118)" fill="none" stroke="#526d32" stroke-miterlimit="10" stroke-width="0.25"/>
      <path id="Trazado_730265" data-name="Trazado 730265" d="M397.472,181.546a18.167,18.167,0,0,1,2.982,24.627c-1.21,1.656-2.782,3.329-2.71,5.378.049,1.4.869,2.627,1.348,3.939s.491,3.043-.667,3.822" transform="translate(-147.599 -54.969)" fill="none" stroke="#526d32" stroke-miterlimit="10" stroke-width="0.25"/>
      <path id="Trazado_730266" data-name="Trazado 730266" d="M418.45,226.322a5.463,5.463,0,0,0,5.466-3.146c.528-1.2.6-2.584,1.213-3.748a8.952,8.952,0,0,1,2.241-2.473l3.681-3.158" transform="translate(-155.357 -66.895)" fill="none" stroke="#526d32" stroke-miterlimit="10" stroke-width="0.25"/>
    </g>
  </g>
</svg>
