<svg xmlns="http://www.w3.org/2000/svg" xmlns:xlink="http://www.w3.org/1999/xlink" width="505" height="301" viewBox="0 0 505 301">
  <defs>
    <clipPath id="clip-path">
      <rect id="Rectángulo_347941" data-name="Rectángulo 347941" width="505" height="301" transform="translate(-60)" fill="none"/>
    </clipPath>
  </defs>
  <g id="Grupo_1013477" data-name="Grupo 1013477" transform="translate(3094 9536)">
    <rect id="_19d0ead6a9" data-name="19d0ead6a9" width="505" height="300" rx="19" transform="translate(-3094 -9536)" fill="#fff"/>
    <g id="Grupo_1007248" data-name="Grupo 1007248" transform="translate(-3034 -9536)" clip-path="url(#clip-path)">
      <g id="Grupo_1007247" data-name="Grupo 1007247" transform="translate(-32.134 -16.738)">
        <path id="Trazado_720798" data-name="Trazado 720798" d="M90.327-27.455C85.891-4.636,72.462,15.457,57.195,32.986S24.55,66.169,9.975,84.279s-26.489,39.418-28.241,62.6c-.716,9.479.86,20.173,8.305,26.083" transform="translate(-20.581 27.455)" fill="none" stroke="#f2b366" stroke-miterlimit="10" stroke-width="1"/>
        <path id="Trazado_720799" data-name="Trazado 720799" d="M81.24-18.964,20.811,86.742C9.986,105.676-.9,124.751-7.986,145.378s-10.21,43.137-5.14,64.35" transform="translate(-21.694 24.08)" fill="none" stroke="#f2b366" stroke-miterlimit="10" stroke-width="1"/>
        <path id="Trazado_720800" data-name="Trazado 720800" d="M351.577-8.932c-1.393,20.623,6.013,41.194,17.8,58.175s27.732,30.68,44.619,42.6c9.758,6.888,20.032,13.374,27.785,22.459s12.721,21.517,9.662,33.063" transform="translate(32.4 20.092)" fill="none" stroke="#f2b366" stroke-miterlimit="10" stroke-width="1"/>
        <path id="Trazado_720801" data-name="Trazado 720801" d="M375.293-14.227a89.194,89.194,0,0,0,4.8,68.482c15.138,29.785,46.058,49.067,61.522,78.684a91.091,91.091,0,0,1,4.006,74.35c-7.957,20.3-22.914,36.9-35.334,54.825s-22.784,39.227-19.452,60.777" transform="translate(24.764 22.196)" fill="none" stroke="#f2b366" stroke-miterlimit="10" stroke-width="1"/>
        <path id="Trazado_720802" data-name="Trazado 720802" d="M496.921,215.266c1.009,14.471-2.624,28.891-7.569,42.527s-11.222,26.774-15.821,40.532a177.862,177.862,0,0,0-.125,111.471" transform="translate(-12.56 -69.034)" fill="none" stroke="#f2b366" stroke-miterlimit="10" stroke-width="1"/>
        <path id="Trazado_720803" data-name="Trazado 720803" d="M-35.477,343.413c13.27,17.916,27.605,35.663,46.455,47.571,17.2,10.867,37.233,16.28,55.485,25.271s35.811,23.261,40.27,43.113" transform="translate(-3.801 -119.976)" fill="none" stroke="#f2b366" stroke-miterlimit="10" stroke-width="1"/>
        <path id="Trazado_720804" data-name="Trazado 720804" d="M105.69,472.426c-8.174-14.515-24.257-22.932-40.418-26.97s-33-4.478-49.389-7.436a163.443,163.443,0,0,1-69.157-30.276" transform="translate(3.274 -145.55)" fill="none" stroke="#f2b366" stroke-miterlimit="10" stroke-width="1"/>
      </g>
    </g>
    <g id="Grupo_1007452" data-name="Grupo 1007452" transform="translate(-3048.699 -9625.442)">
      <path id="Trazado_721137" data-name="Trazado 721137" d="M209.709,50.765H110.386A19.866,19.866,0,0,0,90.521,70.63v56.661a19.866,19.866,0,0,0,19.865,19.863h10.091c3.444,6.981,4.777,16.287-6.8,22.689,0,0,30.367-7.629,35.9-22.689h60.134a19.867,19.867,0,0,0,19.868-19.863V70.63A19.866,19.866,0,0,0,209.709,50.765Z" transform="translate(17 84)" fill="#7fcbcb" opacity="0.8"/>
      <path id="Trazado_721138" data-name="Trazado 721138" d="M215.641,67.182h99.323a19.866,19.866,0,0,1,19.865,19.865v56.661a19.866,19.866,0,0,1-19.865,19.863H304.873c-3.445,6.981-4.777,16.287,6.8,22.689,0,0-30.366-7.629-35.9-22.689H215.641a19.866,19.866,0,0,1-19.868-19.863V87.047A19.866,19.866,0,0,1,215.641,67.182Z" transform="translate(-30 40)" fill="#00a3e6" opacity="0.7"/>
      <g id="Grupo_1007433" data-name="Grupo 1007433" transform="translate(30)">
        <g id="Grupo_1007432" data-name="Grupo 1007432">
          <rect id="Rectángulo_347948" data-name="Rectángulo 347948" width="22.629" height="20.519" transform="translate(301.759 335.117)" fill="#8b5b3c"/>
          <path id="Trazado_721013" data-name="Trazado 721013" d="M382.683,389.442l-5.5-25.458L322.065,352.7l-8.992.1-8.99-.1-55.121,11.288-5.5,25.458Z" fill="#8b5b3c"/>
          <path id="Trazado_721014" data-name="Trazado 721014" d="M382.683,389.442l-5.5-25.458-42.119-8.626-21.993.277-21.8-.316-42.309,8.665-5.5,25.458Z" fill="#fff"/>
          <g id="Grupo_1007387" data-name="Grupo 1007387">
            <path id="Trazado_721015" data-name="Trazado 721015" d="M307.951,369.558a1.5,1.5,0,0,1,.3-.3c-.1.1-.2.193-.3.3l-2.436,19.884h13.309l-2.436-19.884,1.959-8.136a3.664,3.664,0,0,0,.192-3.855,4.29,4.29,0,0,0-2.653-1.981c-1.664-.456-3.637-.19-5.411-.19s-3.018.162-4.183,1.545a3.572,3.572,0,0,0-.3,4.481Z" fill="#0065ad"/>
            <path id="Trazado_721016" data-name="Trazado 721016" d="M307.623,368.3s5.9-2.758,8.741,1.261a9.4,9.4,0,0,0-8.436,0Z" fill="#aeb0b3" style="mix-blend-mode: multiply;isolation: isolate"/>
          </g>
          <path id="Trazado_721017" data-name="Trazado 721017" d="M382.683,389.442l-5.5-25.458-42.119-8.626-8.573,34.084Z" fill="#dc6b16"/>
          <path id="Trazado_721018" data-name="Trazado 721018" d="M299.776,389.442l-8.505-34.123-42.309,8.665-5.5,25.458Z" fill="#dc6b16"/>
          <path id="Trazado_721019" data-name="Trazado 721019" d="M299.776,389.442l-8.505-34.123-20.193,4.136,17.9,29.987Z" fill="#9b4c1a"/>
          <path id="Trazado_721020" data-name="Trazado 721020" d="M337.164,389.442l17.9-29.987-20.192-4.136-8.505,34.123Z" fill="#9b4c1a"/>
          <path id="Trazado_721021" data-name="Trazado 721021" d="M244.474,389.442c.072-.654.125-1.309.21-1.961a199.341,199.341,0,0,1,5.006-23.646l-.728.149-5.3,24.525c-.089.3-.174.615-.257.933Z" fill="#c7c9cb" style="mix-blend-mode: multiply;isolation: isolate"/>
          <path id="Trazado_721022" data-name="Trazado 721022" d="M382.683,389.442l-2.567-11.885c.6,3.922,1.068,7.9,1.352,11.885Z" fill="#c7c9cb" style="mix-blend-mode: multiply;isolation: isolate"/>
          <g id="Grupo_1007388" data-name="Grupo 1007388">
            <path id="Trazado_721023" data-name="Trazado 721023" d="M302.594,355.318l-20.651,1.911,23.667,16.057,7.462-17.65Z" fill="#aeb0b3" style="mix-blend-mode: multiply;isolation: isolate"/>
            <path id="Trazado_721024" data-name="Trazado 721024" d="M301.759,352.7l-19.815,4.533,22.832,13.433,8.3-15.026Z" fill="#fff"/>
          </g>
          <g id="Grupo_1007389" data-name="Grupo 1007389">
            <path id="Trazado_721025" data-name="Trazado 721025" d="M323.552,355.318l20.651,1.911-23.668,16.057-7.462-17.65Z" fill="#aeb0b3" style="mix-blend-mode: multiply;isolation: isolate"/>
            <path id="Trazado_721026" data-name="Trazado 721026" d="M324.387,352.7l19.816,4.533L321.37,370.662l-8.3-15.026Z" fill="#fff"/>
          </g>
          <g id="Grupo_1007431" data-name="Grupo 1007431">
            <g id="Grupo_1007392" data-name="Grupo 1007392">
              <path id="Trazado_721027" data-name="Trazado 721027" d="M374.741,285.024a10.582,10.582,0,1,1-10.582-10.582A10.582,10.582,0,0,1,374.741,285.024Z" fill="#8b5b3c"/>
              <g id="Grupo_1007391" data-name="Grupo 1007391" style="mix-blend-mode: multiply;isolation: isolate">
                <g id="Grupo_1007390" data-name="Grupo 1007390">
                  <path id="Trazado_721028" data-name="Trazado 721028" d="M371.117,285.016v-.023l0-.032-.007-.063-.014-.129-.03-.252-.06-.506a3.738,3.738,0,0,0-.242-.978,6.1,6.1,0,0,0-.885-1.728,5.8,5.8,0,0,0-.616-.685,3.083,3.083,0,0,0-.666-.56c-.236-.16-.458-.317-.683-.452-.231-.12-.481-.2-.7-.285a4.316,4.316,0,0,0-.651-.216l-.631-.083c-.193-.02-.371-.045-.532-.052l-.425.052c-.513.074-.808.136-.808.136s.276.119.764.294c.122.044.257.093.4.144l.406.238a4.5,4.5,0,0,1,.884.592,5.73,5.73,0,0,1,.463.379c.135.161.283.309.428.467a1.984,1.984,0,0,1,.391.521c.107.2.265.357.365.56a6.212,6.212,0,0,1,.475,1.288,2.218,2.218,0,0,1,.137.68l.024.353.015.175.008.086,0,.044,0,.021h0a5.2,5.2,0,0,1-.207,1.458,6.441,6.441,0,0,1-.46,1.23c-.1.2-.259.364-.365.561a2.027,2.027,0,0,1-.391.522c-.145.157-.292.305-.428.464a5.944,5.944,0,0,1-.463.381,4.429,4.429,0,0,1-.9.6c-.145.083-.286.156-.414.236l-.378.141c-.466.172-.758.3-.758.3s.28.064.816.136l.448.049c.161-.007.335-.033.525-.055s.4-.048.611-.076a4.443,4.443,0,0,0,.649-.216c.222-.09.471-.164.7-.285s.446-.293.682-.45a3.118,3.118,0,0,0,.666-.561,5.558,5.558,0,0,0,1.516-2.472,7.875,7.875,0,0,0,.336-1.824C371.123,284.912,371.115,285.068,371.117,285.016Z" fill="#c7c9cb"/>
                  <path id="Trazado_721029" data-name="Trazado 721029" d="M366.348,285.389a3.649,3.649,0,1,0-3.649,3.65A3.654,3.654,0,0,0,366.348,285.389Z" fill="#c7c9cb"/>
                </g>
              </g>
            </g>
            <g id="Grupo_1007394" data-name="Grupo 1007394">
              <path id="Trazado_721030" data-name="Trazado 721030" d="M251.406,285.024a10.582,10.582,0,1,0,10.581-10.582A10.581,10.581,0,0,0,251.406,285.024Z" fill="#8b5b3c"/>
              <g id="Grupo_1007393" data-name="Grupo 1007393" style="mix-blend-mode: multiply;isolation: isolate">
                <path id="Trazado_721031" data-name="Trazado 721031" d="M255.03,285.016v-.007l0-.016,0-.032.007-.063.014-.129.028-.252.062-.506a3.859,3.859,0,0,1,.241-.978,6.072,6.072,0,0,1,.886-1.728,5.785,5.785,0,0,1,.615-.685,3.113,3.113,0,0,1,.667-.56c.235-.16.458-.317.681-.452.233-.12.482-.2.7-.285a4.365,4.365,0,0,1,.652-.216l.63-.083c.2-.02.37-.045.532-.052l.425.052c.513.074.808.136.808.136s-.276.119-.765.294c-.12.044-.255.093-.4.144l-.4.238a4.447,4.447,0,0,0-.885.592,5.742,5.742,0,0,0-.464.379c-.134.161-.282.309-.427.467a2.009,2.009,0,0,0-.392.521c-.106.2-.265.357-.364.56a6.155,6.155,0,0,0-.475,1.288,2.218,2.218,0,0,0-.137.68l-.025.353-.014.175-.008.086-.005.044,0,.021h0a5.234,5.234,0,0,0,.207,1.458,6.382,6.382,0,0,0,.461,1.23c.1.2.259.364.365.561a2,2,0,0,0,.391.522c.145.157.292.305.428.464a5.744,5.744,0,0,0,.462.381,4.433,4.433,0,0,0,.906.6c.145.083.285.156.414.236l.378.141c.466.172.757.3.757.3s-.28.064-.815.136l-.45.049c-.161-.007-.333-.033-.523-.055s-.4-.048-.612-.076a4.443,4.443,0,0,1-.649-.216c-.222-.09-.471-.164-.7-.285s-.445-.293-.681-.45a3.147,3.147,0,0,1-.667-.561,5.563,5.563,0,0,1-1.514-2.472,7.626,7.626,0,0,1-.337-1.824C255.023,284.912,255.032,285.068,255.03,285.016Z" fill="#c7c9cb"/>
                <path id="Trazado_721032" data-name="Trazado 721032" d="M259.8,285.389a3.649,3.649,0,1,1,3.649,3.65A3.653,3.653,0,0,1,259.8,285.389Z" fill="#c7c9cb"/>
              </g>
            </g>
            <path id="Trazado_721033" data-name="Trazado 721033" d="M358.373,308.177l5.786-52.908c-4.416-45.716-41.18-51.79-51.269-53.031-10.089,1.241-46.485,7.315-50.9,53.031l5.42,52.908s1.878,33.938,23.909,37.792c9.079,1.587,12.567-.08,21.574-.28,9.008.2,19.282,1.3,27.5-2.867C359.05,333.357,358.373,308.177,358.373,308.177Z" fill="#8b5b3c"/>
            <path id="Trazado_721034" data-name="Trazado 721034" d="M346.032,253.5c2.306,16.114.559,33.452,5.851,49.023a38.145,38.145,0,0,0,6.057,11.553,43.993,43.993,0,0,0,.433-6.253l5.786-52.907c-4.416-45.717-41.18-51.791-51.269-53.03a72.493,72.493,0,0,0-8.884,1.642C325.262,212.4,342.612,229.6,346.032,253.5Z" fill="#d8dadb" style="mix-blend-mode: multiply;isolation: isolate"/>
            <path id="Trazado_721035" data-name="Trazado 721035" d="M282.256,324.2c-7.053-8.617-9.918-18.469-10.858-29.45-.458-5.34-1.006-11.565.766-16.747,1.679-4.91,4.444-8.966,7.656-13,2.947-3.7,8.774-9.978,7.023-15.233-1.451-4.361-5.363-7.245-7.6-11.16-4.048-7.079-2.953-14.234,2.73-18.6a3.25,3.25,0,0,1,1.245-.953c3.72-1.69,5.4-5.486,4.145-8.658-11.657,7.129-23.028,20.223-25.375,44.509l5.42,52.907s1.878,33.939,23.909,37.793c9.079,1.587,12.567-.083,21.574-.28,9.008.2,19.282,1.3,27.5-2.866a28.623,28.623,0,0,0,10.425-9.056,45.511,45.511,0,0,1-11.321,4.952C319.9,343.97,295.816,340.776,282.256,324.2Z" fill="#d8dadb" style="mix-blend-mode: multiply;isolation: isolate"/>
            <path id="Trazado_721036" data-name="Trazado 721036" d="M297.427,270.3a4.014,4.014,0,1,1-4.013-4.016A4.012,4.012,0,0,1,297.427,270.3Z" fill="#1a1818"/>
            <path id="Trazado_721037" data-name="Trazado 721037" d="M336.472,270.3a4.014,4.014,0,1,1-4.013-4.016A4.013,4.013,0,0,1,336.472,270.3Z" fill="#1a1818"/>
            <path id="Trazado_721038" data-name="Trazado 721038" d="M306.142,327.33s.245,0,.633,0c.366.005.89.014,1.515.025.29.006.6.016.934.025.318.026.656,0,.987.032.337-.018.674.019,1.014.007s.678.016,1.015-.015c.34.02.671-.026,1.007-.031s.657-.058.989-.063.64-.078.96-.088.62-.068.911-.1.585-.031.828-.081.478-.064.671-.085c.39-.04.646-.039.646-.039a4.019,4.019,0,0,1-.278.577,5.728,5.728,0,0,1-.389.623,4.484,4.484,0,0,1-.622.7,4.7,4.7,0,0,1-.867.7,6.044,6.044,0,0,1-1.107.6,6.143,6.143,0,0,1-1.293.4,6.684,6.684,0,0,1-1.391.161,6.953,6.953,0,0,1-1.389-.1,7.438,7.438,0,0,1-1.293-.329,7.534,7.534,0,0,1-1.122-.521,6.183,6.183,0,0,1-.912-.62,5.759,5.759,0,0,1-1.13-1.217A2.832,2.832,0,0,1,306.142,327.33Z" fill="#5a391e"/>
            <g id="Grupo_1007395" data-name="Grupo 1007395">
              <path id="Trazado_721039" data-name="Trazado 721039" d="M292.318,268.292a2.007,2.007,0,1,1-2.007-2.007A2.008,2.008,0,0,1,292.318,268.292Z" fill="#fff"/>
              <path id="Trazado_721040" data-name="Trazado 721040" d="M293.324,271.3a1,1,0,1,1-1.006-1A1.006,1.006,0,0,1,293.324,271.3Z" fill="#fff"/>
            </g>
            <g id="Grupo_1007396" data-name="Grupo 1007396">
              <path id="Trazado_721041" data-name="Trazado 721041" d="M333.461,268.292a2.007,2.007,0,1,0,2.007-2.007A2.009,2.009,0,0,0,333.461,268.292Z" fill="#fff"/>
              <path id="Trazado_721042" data-name="Trazado 721042" d="M332.459,271.3a1,1,0,1,0,1-1A1,1,0,0,0,332.459,271.3Z" fill="#fff"/>
            </g>
            <g id="Grupo_1007398" data-name="Grupo 1007398">
              <g id="Grupo_1007397" data-name="Grupo 1007397">
                <path id="Trazado_721043" data-name="Trazado 721043" d="M323.331,260.515a6.516,6.516,0,0,1,.772-.609,14.263,14.263,0,0,1,2.222-1.265c.48-.218,1.013-.426,1.585-.627a16.862,16.862,0,0,1,1.842-.5,13.7,13.7,0,0,1,2.036-.306,14.91,14.91,0,0,1,2.151-.052,17.263,17.263,0,0,1,2.166.264,16.361,16.361,0,0,1,2.055.618,12.49,12.49,0,0,1,1.794.934,11.159,11.159,0,0,1,1.412,1.127c.382.416.7.812.974,1.157a6.266,6.266,0,0,1,.555,1.011,8.3,8.3,0,0,1,.381.9s-.343-.164-.863-.46c-.266-.142-.552-.339-.908-.514-.376-.153-.787-.32-1.2-.517s-.934-.292-1.411-.472-1.052-.226-1.581-.381l-1.718-.26c-.6-.014-1.195-.135-1.816-.129-.615-.026-1.23-.062-1.849-.049-.617-.015-1.229,0-1.827.011-.6-.01-1.183.042-1.744.038l-1.592.046-1.377.029c-.412.016-.783.006-1.085.013C323.7,260.525,323.331,260.515,323.331,260.515Z" fill="#2d1a10"/>
              </g>
            </g>
            <g id="Grupo_1007400" data-name="Grupo 1007400">
              <g id="Grupo_1007399" data-name="Grupo 1007399">
                <path id="Trazado_721044" data-name="Trazado 721044" d="M302.629,260.448s-.365.016-.972.022c-.3,0-.672.011-1.084,0l-1.377-.01-1.593-.028c-.562.011-1.145-.033-1.744-.017-.6,0-1.212-.011-1.827.012-.619-.005-1.233.038-1.849.072-.62,0-1.209.129-1.814.151l-1.715.281c-.527.16-1.094.222-1.575.4s-.985.3-1.4.488-.822.374-1.2.533c-.354.179-.639.38-.9.524-.515.3-.857.471-.857.471a8.7,8.7,0,0,1,.37-.907,6.459,6.459,0,0,1,.543-1.017c.268-.348.583-.748.96-1.169a11.473,11.473,0,0,1,1.4-1.144,12.449,12.449,0,0,1,1.783-.955,16.191,16.191,0,0,1,2.047-.643,17.038,17.038,0,0,1,2.162-.29,14.823,14.823,0,0,1,2.152.025,13.649,13.649,0,0,1,2.039.281,16.889,16.889,0,0,1,1.849.477c.574.193,1.109.395,1.592.606a14.422,14.422,0,0,1,2.237,1.239A6.465,6.465,0,0,1,302.629,260.448Z" fill="#2d1a10"/>
              </g>
            </g>
            <path id="Trazado_721045" data-name="Trazado 721045" d="M351.3,327.408a19.393,19.393,0,0,1-12.154,6.513c-4.467.433-6.478-3.138-4.307-6.85,1.839-3.145,5.213-4.979,7.488-7.762,1.644-2.015,3.884-6.727,7.149-5.986,1.641.372,2.6,4.283,2.988,5.683C353.263,321.865,353.189,324.979,351.3,327.408Z" fill="#fff" opacity="0.3" style="mix-blend-mode: soft-light;isolation: isolate"/>
            <path id="Trazado_721046" data-name="Trazado 721046" d="M272.68,289.236a19.4,19.4,0,0,1,3.989-13.2c2.854-3.465,6.8-2.361,7.89,1.8.924,3.523-.166,7.206.2,10.785.261,2.587,2.009,7.5-.825,9.287-1.421.9-4.863-1.192-6.129-1.9C275.212,294.545,273.063,292.291,272.68,289.236Z" fill="#fff" opacity="0.3" style="mix-blend-mode: soft-light;isolation: isolate"/>
            <g id="Grupo_1007401" data-name="Grupo 1007401">
              <path id="Trazado_721047" data-name="Trazado 721047" d="M304.006,292.466l.015.327c0,.207.009.51.016.895,0,.367.034.823.075,1.307a8.968,8.968,0,0,0,.24,1.521,4.284,4.284,0,0,0,.579,1.37,3.22,3.22,0,0,0,.957.917,6.82,6.82,0,0,0,1.465.655,13.505,13.505,0,0,0,1.931.455c.692.138,1.427.209,2.161.3.738.069,1.481.145,2.213.2l4.109.328c1.234.109,2.292.228,3.041.317l.5.049.194.018.068.008c.07-.03-.135.092.067.224a.946.946,0,0,0-.256-.123.8.8,0,0,1,.338-.136c.268.157,0,.334.024.322l-.086.08c-.053.046-.112.1-.174.15a4.533,4.533,0,0,1-.437.314,14.626,14.626,0,0,1-2.865,1.476,19.557,19.557,0,0,1-4.36,1.147,17.272,17.272,0,0,1-2.587.189,15.979,15.979,0,0,1-2.764-.224,11.92,11.92,0,0,1-2.835-.867,7.888,7.888,0,0,1-2.6-1.849,5.974,5.974,0,0,1-1.448-2.818,6.092,6.092,0,0,1,.052-2.594,7.694,7.694,0,0,1,1.523-3.048,5.967,5.967,0,0,1,.612-.682Z" fill="#5a391e"/>
            </g>
            <path id="Trazado_721048" data-name="Trazado 721048" d="M302.87,322.2a110.269,110.269,0,0,1-2.59-11.4s20.781,5.349,31.658-4.354C331.938,306.447,329.823,328.783,302.87,322.2Z" fill="#fff"/>
            <g id="Grupo_1007403" data-name="Grupo 1007403">
              <g id="Grupo_1007402" data-name="Grupo 1007402">
                <path id="Trazado_721049" data-name="Trazado 721049" d="M301.171,310.875l1.522.223c.966.148,2.357.278,4.016.435s3.6.232,5.677.236c1.038.014,2.106-.044,3.191-.089,1.082-.073,2.181-.162,3.268-.326a30.356,30.356,0,0,0,3.22-.587c.527-.117,1.037-.278,1.55-.4.5-.157,1-.315,1.485-.483a26.9,26.9,0,0,0,2.712-1.167,19.024,19.024,0,0,0,2.271-1.365l.947-.708q.429-.369.814-.7c.513-.437.894-.888,1.246-1.226l.993-1.171s-.281.481-.817,1.311c-.311.38-.647.884-1.116,1.39-.236.254-.486.525-.751.809l-.919.807a19.619,19.619,0,0,1-5.016,2.968,24.423,24.423,0,0,1-3.132,1.021,30.946,30.946,0,0,1-3.33.647,37.509,37.509,0,0,1-6.636.286,47.62,47.62,0,0,1-5.739-.608c-1.666-.265-3.028-.62-3.978-.862S301.171,310.875,301.171,310.875Z" fill="#422913"/>
              </g>
            </g>
            <g id="Grupo_1007405" data-name="Grupo 1007405">
              <g id="Grupo_1007404" data-name="Grupo 1007404">
                <path id="Trazado_721050" data-name="Trazado 721050" d="M302.87,322.2s.6.133,1.641.314c1.043.2,2.548.376,4.348.533a35.547,35.547,0,0,0,6.139-.027,22.555,22.555,0,0,0,6.733-1.615,15.719,15.719,0,0,0,3.049-1.695c.47-.33.9-.712,1.336-1.066.39-.407.826-.764,1.168-1.2a16.659,16.659,0,0,0,1.854-2.582,20.634,20.634,0,0,0,1.254-2.592c.263-.857.6-1.618.762-2.336.182-.71.38-1.327.455-1.851.209-1.043.329-1.639.329-1.639s-.039.609-.106,1.673c-.019.536-.149,1.173-.258,1.913a19.216,19.216,0,0,1-.566,2.453,21.417,21.417,0,0,1-1.127,2.781,14.293,14.293,0,0,1-1.819,2.84c-.352.474-.8.875-1.211,1.326a17.22,17.22,0,0,1-1.413,1.181,16.761,16.761,0,0,1-3.253,1.857,19.708,19.708,0,0,1-3.558,1.1,22.789,22.789,0,0,1-3.554.465,31.474,31.474,0,0,1-6.288-.343,32.939,32.939,0,0,1-4.325-.96C303.435,322.429,302.87,322.2,302.87,322.2Z" fill="#422913"/>
              </g>
            </g>
            <g id="Grupo_1007407" data-name="Grupo 1007407">
              <g id="Grupo_1007406" data-name="Grupo 1007406">
                <path id="Trazado_721051" data-name="Trazado 721051" d="M300.28,310.8s.3.717.642,1.8c.174.541.351,1.176.516,1.86s.347,1.411.508,2.142c.07.369.139.737.208,1.1s.107.727.18,1.069c.137.686.242,1.333.311,1.9a16.4,16.4,0,0,1,.151,1.91,15.727,15.727,0,0,1-.8-1.733c-.218-.531-.448-1.158-.669-1.838s-.36-1.423-.53-2.162c-.137-.745-.3-1.486-.373-2.194s-.137-1.37-.162-1.94A12.524,12.524,0,0,1,300.28,310.8Z" fill="#422913"/>
              </g>
            </g>
            <path id="Trazado_721052" data-name="Trazado 721052" d="M282.718,197.213s-21.726,11.433-20.731,39.427a169.772,169.772,0,0,0,3.2,49.894H267.1v-35.5s11-8.09,7.864-12.8c0,0-6.076-13.526,7.757-14.613,0,0,17.735,3.516,30.4,2.768,12.659.748,30.394-2.768,30.394-2.768,13.833,1.087,7.757,14.613,7.757,14.613-3.14,4.71,7.864,12.8,7.864,12.8v35.5h1.907a169.813,169.813,0,0,0,3.2-49.894c1-27.994-20.731-39.427-20.731-39.427S314.419,178.962,282.718,197.213Z" fill="#2d1a10"/>
            <g id="Grupo_1007408" data-name="Grupo 1007408">
              <path id="Trazado_721053" data-name="Trazado 721053" d="M271.722,217.288a4.867,4.867,0,1,1-4.867-4.868A4.868,4.868,0,0,1,271.722,217.288Z" fill="#2d1a10"/>
              <path id="Trazado_721054" data-name="Trazado 721054" d="M273.181,209.313a4.867,4.867,0,1,1-4.866-4.867A4.866,4.866,0,0,1,273.181,209.313Z" fill="#2d1a10"/>
              <path id="Trazado_721055" data-name="Trazado 721055" d="M278.049,202.238a4.867,4.867,0,1,1-4.866-4.867A4.866,4.866,0,0,1,278.049,202.238Z" fill="#2d1a10"/>
              <path id="Trazado_721056" data-name="Trazado 721056" d="M285.526,197.371a4.868,4.868,0,1,1-4.867-4.866A4.866,4.866,0,0,1,285.526,197.371Z" fill="#2d1a10"/>
              <path id="Trazado_721057" data-name="Trazado 721057" d="M291.678,193.97a4.868,4.868,0,1,1-4.867-4.868A4.868,4.868,0,0,1,291.678,193.97Z" fill="#2d1a10"/>
              <path id="Trazado_721058" data-name="Trazado 721058" d="M299.134,191.127a4.867,4.867,0,1,1-4.867-4.867A4.867,4.867,0,0,1,299.134,191.127Z" fill="#2d1a10"/>
              <path id="Trazado_721059" data-name="Trazado 721059" d="M307.664,189.1a4.867,4.867,0,1,1-4.868-4.869A4.868,4.868,0,0,1,307.664,189.1Z" fill="#2d1a10"/>
              <path id="Trazado_721060" data-name="Trazado 721060" d="M315.876,189.1a4.867,4.867,0,1,1-4.868-4.869A4.868,4.868,0,0,1,315.876,189.1Z" fill="#2d1a10"/>
              <path id="Trazado_721061" data-name="Trazado 721061" d="M324.388,189.1a4.867,4.867,0,1,1-4.867-4.869A4.868,4.868,0,0,1,324.388,189.1Z" fill="#2d1a10"/>
              <circle id="Elipse_8621" data-name="Elipse 8621" cx="4.867" cy="4.867" r="4.867" transform="translate(323.577 186.26)" fill="#2d1a10"/>
              <path id="Trazado_721062" data-name="Trazado 721062" d="M342.343,192.505a4.867,4.867,0,1,1-4.867-4.868A4.867,4.867,0,0,1,342.343,192.505Z" fill="#2d1a10"/>
              <path id="Trazado_721063" data-name="Trazado 721063" d="M349.069,197.371A4.867,4.867,0,1,1,344.2,192.5,4.867,4.867,0,0,1,349.069,197.371Z" fill="#2d1a10"/>
              <path id="Trazado_721064" data-name="Trazado 721064" d="M353.935,201.882a4.867,4.867,0,1,1-4.866-4.868A4.866,4.866,0,0,1,353.935,201.882Z" fill="#2d1a10"/>
              <path id="Trazado_721065" data-name="Trazado 721065" d="M359.935,206.748a4.867,4.867,0,1,1-4.867-4.867A4.867,4.867,0,0,1,359.935,206.748Z" fill="#2d1a10"/>
              <path id="Trazado_721066" data-name="Trazado 721066" d="M363.917,214.18a4.867,4.867,0,1,1-4.867-4.867A4.866,4.866,0,0,1,363.917,214.18Z" fill="#2d1a10"/>
            </g>
            <g id="Grupo_1007430" data-name="Grupo 1007430">
              <g id="Grupo_1007409" data-name="Grupo 1007409" opacity="0.5" style="mix-blend-mode: soft-light;isolation: isolate">
                <path id="Trazado_721067" data-name="Trazado 721067" d="M275.783,206c-1.206.813-1.415,3.058-.7,4.242.694,1.157,3.618,1.344,3.036,3-.081.23-.161.993.062,1.172a1.719,1.719,0,0,0,2.089.244c.1-.046.084-.506-.013-.552a7.574,7.574,0,0,1-2.032-.931q.032.586.062,1.171a4.078,4.078,0,0,0-.422-4.055,5.767,5.767,0,0,0-1.694-1.067,3.491,3.491,0,0,1-.929-.661c-.152-.156-.3.621.107-.142.175-.332.39-.622.561-.961.1-.207.093-1.608-.124-1.462Z" fill="#25140a"/>
              </g>
              <g id="Grupo_1007410" data-name="Grupo 1007410" opacity="0.5" style="mix-blend-mode: soft-light;isolation: isolate">
                <path id="Trazado_721068" data-name="Trazado 721068" d="M266.1,224.266c-.062.286-.27.443-.354.706-.059.183-.178,1.25.11,1.3a13.664,13.664,0,0,1,1.9.594,3.215,3.215,0,0,0,1.072.144c.526-.008-.061,1.062-.121,1.289-.036.135-.145,1.109.093,1.112l.174,0c.016-.011.032-.022.049-.032a4.078,4.078,0,0,0,.084-4l-.047-.027c-1.173.24-2.1-.511-3.236-.481.057.293.113.587.168.879.023-.458.189-.887.184-1.36,0-.04-.041-.278-.073-.128Z" fill="#25140a"/>
              </g>
              <g id="Grupo_1007411" data-name="Grupo 1007411" opacity="0.5" style="mix-blend-mode: soft-light;isolation: isolate">
                <path id="Trazado_721069" data-name="Trazado 721069" d="M271.431,215.678a4.14,4.14,0,0,1,2.11.741c.24.182.605.537.49.873a6.52,6.52,0,0,1-.857,1.265c-.035.056-.048.517.027.5.97-.268,1.17-1.592.992-2.425-.246-1.161-1.847-1.248-2.768-1.182-.035,0-.033.226.006.231Z" fill="#25140a"/>
              </g>
              <g id="Grupo_1007412" data-name="Grupo 1007412" opacity="0.5" style="mix-blend-mode: soft-light;isolation: isolate">
                <path id="Trazado_721070" data-name="Trazado 721070" d="M289.257,203.337c-.042.994-.01,2.4.908,3.022a1.806,1.806,0,0,0,2.342-.556,2.257,2.257,0,0,0,.172-1.651c-.06-.148-.287-.319-.464-.212a7.061,7.061,0,0,1-.774.466,1.317,1.317,0,0,1-1.932-1.075c-.044-.509-.23-.5-.252.006Z" fill="#25140a"/>
              </g>
              <g id="Grupo_1007413" data-name="Grupo 1007413" opacity="0.5" style="mix-blend-mode: soft-light;isolation: isolate">
                <path id="Trazado_721071" data-name="Trazado 721071" d="M304.4,199.8a5.952,5.952,0,0,1,1.773,1.952,4.448,4.448,0,0,1,.172,2.915c-.012.109-.059.889.136.9.039,0,.08,0,.12.006a.149.149,0,0,0,.1-.125,4.5,4.5,0,0,0-2.3-5.916c-.011-.005-.048.238,0,.272Z" fill="#25140a"/>
              </g>
              <g id="Grupo_1007414" data-name="Grupo 1007414" opacity="0.5" style="mix-blend-mode: soft-light;isolation: isolate">
                <path id="Trazado_721072" data-name="Trazado 721072" d="M299.9,211.457c-1.009,3.075,1.1,6.437,4.5,6.014.8-.1.827-1.244.775-1.857a1.73,1.73,0,0,0-.341-.971c-.193-.232-.906,0-1.164.01-1.069.058-3.878-.662-3.568-2.154.041-.2-.109-1.325-.2-1.042Z" fill="#25140a"/>
              </g>
              <g id="Grupo_1007415" data-name="Grupo 1007415" opacity="0.5" style="mix-blend-mode: soft-light;isolation: isolate">
                <path id="Trazado_721073" data-name="Trazado 721073" d="M324.437,199.426a3.839,3.839,0,0,1,2.737,1.66c.832,1.263-.214,2.481-.508,3.721-.039.164-.119,1.039.126,1.095l.182.042.056-.035a6.949,6.949,0,0,0,.8-4.823,3.4,3.4,0,0,0-3.429-2.948c-.171-.01-.214,1.246.032,1.288Z" fill="#25140a"/>
              </g>
              <g id="Grupo_1007416" data-name="Grupo 1007416" opacity="0.5" style="mix-blend-mode: soft-light;isolation: isolate">
                <path id="Trazado_721074" data-name="Trazado 721074" d="M316.059,209.492a5.127,5.127,0,0,0,.735,4.693,4.891,4.891,0,0,0,4.662,1.273c.685-.229.811-1.234.759-1.861-.085-1.013-.673-1.123-1.542-1.036a5.956,5.956,0,0,1-2.69-.394,4.153,4.153,0,0,1-1.094-.616,2.361,2.361,0,0,1-.421-.455c-.228-.295-.073-.562-.136-.2.045-.261-.157-1.784-.273-1.4Z" fill="#25140a"/>
              </g>
              <g id="Grupo_1007417" data-name="Grupo 1007417" opacity="0.5" style="mix-blend-mode: soft-light;isolation: isolate">
                <path id="Trazado_721075" data-name="Trazado 721075" d="M339.756,207.223a4.208,4.208,0,0,1,2.933,2.084,5.1,5.1,0,0,1,.413.806,2.823,2.823,0,0,1,.161.5q.186-1.359-.082-.686c-.325.59-.807,1.082-1.158,1.665-.163.269-.224,1.231.036,1.464,1.984,1.768,1.871-3.391,1.653-4.287-.449-1.852-1.938-3.754-4.009-3.71-.325.007-.33,2.118.053,2.162Z" fill="#25140a"/>
              </g>
              <g id="Grupo_1007418" data-name="Grupo 1007418" opacity="0.5" style="mix-blend-mode: soft-light;isolation: isolate">
                <path id="Trazado_721076" data-name="Trazado 721076" d="M350.873,212.676a4.229,4.229,0,0,0-.573,3.723,3.451,3.451,0,0,0,2.622,2.662c1.56.395,1.463-2.663.159-3.033a5.909,5.909,0,0,1-1.865-.751,1.773,1.773,0,0,1-.577-.66c-.069-.192-.068-.179,0,.043a4.121,4.121,0,0,1,.35-.976,2.023,2.023,0,0,0-.117-1.008Z" fill="#25140a"/>
              </g>
              <g id="Grupo_1007419" data-name="Grupo 1007419" opacity="0.5" style="mix-blend-mode: soft-light;isolation: isolate">
                <path id="Trazado_721077" data-name="Trazado 721077" d="M360.236,227.568c.123.6.588,1.793.243,2.365-.523.866-1.661.422-2.264,1.091a1.759,1.759,0,0,0,.036,1.464,1.347,1.347,0,0,0,1.931.281,2.36,2.36,0,0,0,.756-1.606,10.226,10.226,0,0,0-.5-4.642c-.193-.641-.244.835-.2,1.047Z" fill="#25140a"/>
              </g>
              <g id="Grupo_1007420" data-name="Grupo 1007420" opacity="0.5" style="mix-blend-mode: soft-light;isolation: isolate">
                <path id="Trazado_721078" data-name="Trazado 721078" d="M309.645,187.225a3.685,3.685,0,0,0-.457,3.349,4.189,4.189,0,0,0,2.657,2.69c.026-.017.053-.033.078-.051.519-.729.548-2.381-.383-2.822a5.87,5.87,0,0,1-1.5-.98,2.3,2.3,0,0,1-.5-.672c-.1-.336-.1-.2,0,.407a3.4,3.4,0,0,1,.25-.663c.091-.206-.045-1.37-.147-1.258Z" fill="#25140a"/>
              </g>
              <g id="Grupo_1007421" data-name="Grupo 1007421" opacity="0.5" style="mix-blend-mode: soft-light;isolation: isolate">
                <path id="Trazado_721079" data-name="Trazado 721079" d="M290.577,191.339c1.263.6,2.535,1.556,2.058,3.038a4.155,4.155,0,0,0-.155,1.883c.113.744.482.15.6-.282.506-1.937.517-6.24-2.525-5.652-.183.037-.136.936.025,1.013Z" fill="#25140a"/>
              </g>
              <g id="Grupo_1007422" data-name="Grupo 1007422" opacity="0.5" style="mix-blend-mode: soft-light;isolation: isolate">
                <path id="Trazado_721080" data-name="Trazado 721080" d="M284.065,193.512a3.922,3.922,0,0,0-.911,3.444,3.568,3.568,0,0,0,3.022,3.032l.073-.047.266-.318a2.041,2.041,0,0,0-.042-1.685c-.5-.792-1.6-.86-2.356-1.434a3.589,3.589,0,0,1-.624-.706c-.272-.352.425-1.423.617-1.755a.925.925,0,0,0-.045-.531Z" fill="#25140a"/>
              </g>
              <g id="Grupo_1007423" data-name="Grupo 1007423" opacity="0.5" style="mix-blend-mode: soft-light;isolation: isolate">
                <path id="Trazado_721081" data-name="Trazado 721081" d="M336.181,190.46c-1.972.45-2.481,2.175-2.456,4.014.028,2.021.678,4.18,3.121,3.83a.312.312,0,0,0,.2-.256,4.079,4.079,0,0,0-.078-3.186.312.312,0,0,0-.209-.246,4.582,4.582,0,0,1-1.549-.212,1.637,1.637,0,0,1-.583-.351c-.5-.459-.024-.955-.164.906a5.549,5.549,0,0,1,1.792-3.19c.147-.143.106-1.348-.07-1.309Z" fill="#25140a"/>
              </g>
              <g id="Grupo_1007424" data-name="Grupo 1007424" opacity="0.5" style="mix-blend-mode: soft-light;isolation: isolate">
                <path id="Trazado_721082" data-name="Trazado 721082" d="M344.4,198.338c.326.908,1.057,1.676,1.464,2.566.287.627-.135.384.161-.519a1.344,1.344,0,0,1-.274.411c-.4.475-.957.692-1.357,1.215a1.438,1.438,0,0,0,.028,1.2,1.137,1.137,0,0,0,1.747-.193,3.559,3.559,0,0,0,.356-2.3,4.355,4.355,0,0,0-1.925-3.377c-.015-.009-.029-.016-.043-.026-.041.026-.084.05-.125.075-.208.124-.1.761-.032.945Z" fill="#25140a"/>
              </g>
              <g id="Grupo_1007425" data-name="Grupo 1007425" opacity="0.5" style="mix-blend-mode: soft-light;isolation: isolate">
                <path id="Trazado_721083" data-name="Trazado 721083" d="M328.158,215.19a5.718,5.718,0,0,0,.584,3.62,4.584,4.584,0,0,0,3.713,2.283l.082-.052a2.792,2.792,0,0,0,.3-1.861c-.147-.961-.608-.924-1.413-1.049-1.036-.16-3.1-1.137-3.061-2.431,0-.11-.133-.968-.206-.51Z" fill="#25140a"/>
              </g>
              <g id="Grupo_1007426" data-name="Grupo 1007426" opacity="0.5" style="mix-blend-mode: soft-light;isolation: isolate">
                <path id="Trazado_721084" data-name="Trazado 721084" d="M265.445,235.783a5.951,5.951,0,0,0,.426,3.915c.472.8,1.927,1.845,2.878,1.249.578-.361.569-1.385.479-1.982-.043-.266-.126-.69-.368-.826a2.088,2.088,0,0,0-1.045-.143,2.372,2.372,0,0,1-1.455-.643c-.239-.221-.706-.773-.7-1.038,0-.115-.118-1.013-.216-.532Z" fill="#25140a"/>
              </g>
              <g id="Grupo_1007427" data-name="Grupo 1007427" opacity="0.5" style="mix-blend-mode: soft-light;isolation: isolate">
                <path id="Trazado_721085" data-name="Trazado 721085" d="M269.055,234.914a11.228,11.228,0,0,1,1.575,1.28,2.885,2.885,0,0,1,.9,1.787c.006.037.115.675.269.473a1.84,1.84,0,0,0,.142-1.011,4.762,4.762,0,0,0-.807-2.814,2.456,2.456,0,0,0-.882-.747,1.8,1.8,0,0,0-1.2-.007c-.175.027-.146.957-.006,1.039Z" fill="#25140a"/>
              </g>
              <g id="Grupo_1007428" data-name="Grupo 1007428" opacity="0.5" style="mix-blend-mode: soft-light;isolation: isolate">
                <path id="Trazado_721086" data-name="Trazado 721086" d="M356.435,237.149a4.939,4.939,0,0,0-.1,3.124,2.441,2.441,0,0,0,2.064,1.665c.343.057.5-.414.582-.618a2.256,2.256,0,0,0,.062-.964,1.774,1.774,0,0,0-.306-.943c-.2-.236-.582-.241-.856-.28a1.915,1.915,0,0,1-1.106-.487,3.3,3.3,0,0,1-.286-.389c-.036-.049.019.359.023.321a3.337,3.337,0,0,1,.1-.531,1.915,1.915,0,0,0,0-.7c-.011-.077-.082-.421-.177-.2Z" fill="#25140a"/>
              </g>
              <g id="Grupo_1007429" data-name="Grupo 1007429" opacity="0.5" style="mix-blend-mode: soft-light;isolation: isolate">
                <path id="Trazado_721087" data-name="Trazado 721087" d="M360.906,239.691a5.951,5.951,0,0,1,1.47,2.278q.132.656.1-.041a2.272,2.272,0,0,1-.345.618,13.026,13.026,0,0,0-.965,1.269c-.127.226-.189,1.01.029,1.2,1.606,1.392,1.913-2.18,1.836-3.066a3.859,3.859,0,0,0-2.124-3.431,1.973,1.973,0,0,0-.006,1.174Z" fill="#25140a"/>
              </g>
            </g>
          </g>
        </g>
      </g>
      <g id="Grupo_1007451" data-name="Grupo 1007451" transform="translate(-30)">
        <rect id="Rectángulo_347949" data-name="Rectángulo 347949" width="22.63" height="20.518" transform="translate(91.47 333.318)" fill="#fbae89"/>
        <path id="Trazado_721088" data-name="Trazado 721088" d="M172.782,389.442,166.9,362.184,111.775,350.9l-8.991.1-8.992-.1L38.673,362.184l-5.888,27.259Z" fill="#fbae89"/>
        <path id="Trazado_721089" data-name="Trazado 721089" d="M111.621,389.442l-3.3-.213V388.4l-6.449.417-6.449-.417v.833l-3.3.213Z" fill="#fbae89"/>
        <path id="Trazado_721090" data-name="Trazado 721090" d="M172.782,389.442,166.9,362.184l-42.118-8.625-21.993.277-21.8-.316-42.309,8.664-5.888,27.259Z" fill="#fff"/>
        <g id="Grupo_1007434" data-name="Grupo 1007434">
          <path id="Trazado_721091" data-name="Trazado 721091" d="M97.662,367.758a1.461,1.461,0,0,1,.3-.3c-.1.1-.195.193-.3.3l-2.656,21.684h13.749L106.1,367.758l1.959-8.137a3.659,3.659,0,0,0,.19-3.852,4.276,4.276,0,0,0-2.651-1.983c-1.666-.458-3.638-.188-5.412-.188-1.759,0-3.018.158-4.182,1.543a3.568,3.568,0,0,0-.3,4.48Z" fill="#007d79"/>
          <path id="Trazado_721092" data-name="Trazado 721092" d="M97.334,366.5s5.9-2.757,8.741,1.261a9.4,9.4,0,0,0-8.437,0Z" fill="#aeb0b3" style="mix-blend-mode: multiply;isolation: isolate"/>
        </g>
        <path id="Trazado_721093" data-name="Trazado 721093" d="M89.936,389.442,80.981,353.52l-42.309,8.664-5.888,27.259Z" fill="#004d83"/>
        <path id="Trazado_721094" data-name="Trazado 721094" d="M172.782,389.442,166.9,362.184l-42.118-8.625-9.026,35.884Z" fill="#004d83"/>
        <path id="Trazado_721095" data-name="Trazado 721095" d="M89.936,389.442,80.981,353.52l-20.193,4.136,18.979,31.787Z" fill="#00375b"/>
        <path id="Trazado_721096" data-name="Trazado 721096" d="M125.8,389.442l18.979-31.787-20.193-4.136-8.954,35.923Z" fill="#00375b"/>
        <path id="Trazado_721097" data-name="Trazado 721097" d="M33.995,389.442c.112-1.256.237-2.51.4-3.761A199.939,199.939,0,0,1,39.4,362.035l-.727.149-5.3,24.525c-.249.842-.474,1.757-.678,2.733Z" fill="#c7c9cb" style="mix-blend-mode: multiply;isolation: isolate"/>
        <path id="Trazado_721098" data-name="Trazado 721098" d="M172.782,389.442l-2.956-13.684c.691,4.511,1.193,9.1,1.452,13.684Z" fill="#c7c9cb" style="mix-blend-mode: multiply;isolation: isolate"/>
        <g id="Grupo_1007435" data-name="Grupo 1007435">
          <path id="Trazado_721099" data-name="Trazado 721099" d="M92.3,353.52l-20.65,1.91,23.667,16.057,7.462-17.65Z" fill="#aeb0b3" style="mix-blend-mode: multiply;isolation: isolate"/>
          <path id="Trazado_721100" data-name="Trazado 721100" d="M91.47,350.9,71.655,355.43l22.832,13.434,8.3-15.027Z" fill="#fff"/>
        </g>
        <g id="Grupo_1007436" data-name="Grupo 1007436">
          <path id="Trazado_721101" data-name="Trazado 721101" d="M113.264,353.52l20.649,1.91-23.666,16.057-7.463-17.65Z" fill="#aeb0b3" style="mix-blend-mode: multiply;isolation: isolate"/>
          <path id="Trazado_721102" data-name="Trazado 721102" d="M114.1,350.9l19.815,4.534-22.831,13.434-8.3-15.027Z" fill="#fff"/>
        </g>
        <g id="Grupo_1007450" data-name="Grupo 1007450">
          <g id="Grupo_1007438" data-name="Grupo 1007438">
            <path id="Trazado_721103" data-name="Trazado 721103" d="M164.451,283.225a10.582,10.582,0,1,1-10.581-10.583A10.582,10.582,0,0,1,164.451,283.225Z" fill="#fbae89"/>
            <g id="Grupo_1007437" data-name="Grupo 1007437">
              <path id="Trazado_721104" data-name="Trazado 721104" d="M153.87,277.36s.3-.065.809-.135c.128-.016.269-.04.425-.053.161.007.337.032.531.054s.409.052.632.082a4.3,4.3,0,0,1,.65.216,7.336,7.336,0,0,1,.7.286c.224.133.446.292.682.449a3.175,3.175,0,0,1,.666.561,6.342,6.342,0,0,1,.621.682,6.172,6.172,0,0,1,.885,1.73,7.006,7.006,0,0,1,.355,1.993l-.012.164,0,.053-.012.107-.025.215-.047.426a3.793,3.793,0,0,1-.238.971,6.042,6.042,0,0,1-.9,1.788,6.566,6.566,0,0,1-.621.682,3.175,3.175,0,0,1-.667.561c-.236.158-.459.315-.682.451-.232.121-.482.2-.7.285a4.636,4.636,0,0,1-.648.215l-.612.077c-.19.02-.363.047-.524.054-.164-.01-.316-.034-.449-.048-.536-.07-.816-.137-.816-.137s.291-.126.757-.295c.116-.044.245-.084.379-.141.128-.082.268-.153.413-.236a4.379,4.379,0,0,0,.906-.6,5.8,5.8,0,0,0,.463-.381c.136-.159.282-.308.428-.465a2.01,2.01,0,0,0,.391-.522c.107-.195.262-.358.359-.562a6.1,6.1,0,0,0,.462-1.229,2.24,2.24,0,0,0,.141-.688l.038-.429.02-.214.009-.107.005-.054,0-.027v-.02c0,.047.006-.115,0,.1a6.656,6.656,0,0,0-.2-1.38,6.068,6.068,0,0,0-.475-1.285c-.1-.2-.252-.369-.359-.565a2.027,2.027,0,0,0-.391-.521c-.146-.158-.294-.3-.429-.466a5.747,5.747,0,0,0-.463-.38,4.519,4.519,0,0,0-.885-.592l-.4-.237c-.142-.059-.281-.1-.4-.144C154.147,277.483,153.87,277.36,153.87,277.36Z" fill="#d19375"/>
            </g>
            <path id="Trazado_721105" data-name="Trazado 721105" d="M154.964,283.59a2.555,2.555,0,1,1-2.555-2.555A2.555,2.555,0,0,1,154.964,283.59Z" fill="#d19375" stroke="#d19375" stroke-miterlimit="10" stroke-width="2.189"/>
          </g>
          <g id="Grupo_1007440" data-name="Grupo 1007440">
            <path id="Trazado_721106" data-name="Trazado 721106" d="M41.116,283.225A10.582,10.582,0,1,0,51.7,272.642,10.584,10.584,0,0,0,41.116,283.225Z" fill="#fbae89"/>
            <g id="Grupo_1007439" data-name="Grupo 1007439">
              <path id="Trazado_721107" data-name="Trazado 721107" d="M51.7,277.36s-.277.123-.765.3c-.121.044-.26.085-.4.144l-.406.237a4.505,4.505,0,0,0-.884.591c-.15.127-.319.233-.464.38-.134.162-.283.309-.427.467a1.991,1.991,0,0,0-.392.521c-.107.2-.261.36-.358.564a6.057,6.057,0,0,0-.476,1.285,6.608,6.608,0,0,0-.2,1.381c-.012-.219,0-.057-.005-.1v.007l0,.013,0,.027,0,.054.009.107.02.215.038.428a2.237,2.237,0,0,0,.142.688,6.038,6.038,0,0,0,.461,1.229c.1.2.252.367.359.562a2.01,2.01,0,0,0,.391.523c.145.156.293.3.428.465s.313.253.462.38a4.392,4.392,0,0,0,.906.6c.145.083.286.155.414.236.134.057.262.1.378.141.466.169.758.295.758.295s-.281.067-.816.137c-.134.014-.284.038-.449.048-.161-.007-.334-.034-.524-.054l-.612-.076a4.436,4.436,0,0,1-.648-.216c-.222-.09-.471-.164-.7-.285-.223-.136-.447-.292-.682-.451a3.176,3.176,0,0,1-.667-.561,6.341,6.341,0,0,1-.62-.682,6.069,6.069,0,0,1-.9-1.788,3.865,3.865,0,0,1-.236-.971l-.048-.426-.024-.215-.012-.108-.006-.052-.011-.164a7,7,0,0,1,.354-1.993,6.172,6.172,0,0,1,.885-1.73,6.248,6.248,0,0,1,.621-.682,3.176,3.176,0,0,1,.666-.561c.235-.157.458-.316.682-.45a7.162,7.162,0,0,1,.7-.285,4.293,4.293,0,0,1,.652-.217l.631-.082c.193-.022.37-.046.531-.053.155.018.3.036.426.053C51.4,277.3,51.7,277.36,51.7,277.36Z" fill="#d19375"/>
            </g>
            <path id="Trazado_721108" data-name="Trazado 721108" d="M50.6,283.59a2.554,2.554,0,1,0,2.554-2.555A2.554,2.554,0,0,0,50.6,283.59Z" fill="#d19375" stroke="#d19375" stroke-miterlimit="10" stroke-width="2.189"/>
          </g>
          <path id="Trazado_721109" data-name="Trazado 721109" d="M148.083,306.377l5.787-52.908c-4.417-45.715-41.18-51.789-51.268-53.031-10.089,1.242-46.486,7.316-50.9,53.031l5.42,52.908s1.876,33.938,23.907,37.792c9.079,1.588,12.569-.082,21.576-.279,9.006.2,19.281,1.3,27.5-2.866C148.761,331.558,148.083,306.377,148.083,306.377Z" fill="#fbae89"/>
          <path id="Trazado_721110" data-name="Trazado 721110" d="M151.041,234.807a89.009,89.009,0,0,0-5.792-22.17c-4.5-10.969-13.338-17.571-22.045-24.689-12.188-2.38-35.143-3.233-50.707,18.313,0,0-11.677,10.9,1.459,21.89,0,0,9.169,14.6,34.363,2.92,0,0,22.535-6.909,42.765,4.029C151.07,235,151.055,234.9,151.041,234.807Z" fill="#aeb0b3" style="mix-blend-mode: multiply;isolation: isolate"/>
          <path id="Trazado_721111" data-name="Trazado 721111" d="M135.742,251.7c2.307,16.115.561,33.453,5.853,49.022a38.116,38.116,0,0,0,6.055,11.553,43.977,43.977,0,0,0,.433-6.252l5.787-52.907c-4.417-45.718-41.18-51.789-51.268-53.031a72.14,72.14,0,0,0-8.885,1.645C114.972,210.6,132.322,227.8,135.742,251.7Z" fill="#d8dadb" style="mix-blend-mode: multiply;isolation: isolate"/>
          <path id="Trazado_721112" data-name="Trazado 721112" d="M71.967,322.4c-7.052-8.62-9.918-18.468-10.859-29.451-.458-5.341-1.006-11.564.766-16.746,1.679-4.911,4.446-8.966,7.657-13,2.946-3.7,8.775-9.976,7.024-15.231-1.451-4.364-5.364-7.246-7.6-11.162-4.048-7.08-2.954-14.233,2.731-18.6a3.25,3.25,0,0,1,1.245-.952c3.719-1.691,5.4-5.486,4.143-8.658-11.656,7.128-23.027,20.222-25.373,44.508l5.42,52.907s1.876,33.94,23.907,37.792c9.079,1.589,12.569-.08,21.576-.278,9.006.2,19.281,1.3,27.5-2.867a28.615,28.615,0,0,0,10.423-9.056,45.508,45.508,0,0,1-11.32,4.952C109.614,342.169,85.526,338.977,71.967,322.4Z" fill="#d8dadb" style="mix-blend-mode: multiply;isolation: isolate"/>
          <path id="Trazado_721113" data-name="Trazado 721113" d="M87.139,268.5a4.014,4.014,0,1,1-4.014-4.013A4.014,4.014,0,0,1,87.139,268.5Z" fill="#1a1818"/>
          <path id="Trazado_721114" data-name="Trazado 721114" d="M126.183,268.5a4.014,4.014,0,1,1-4.013-4.013A4.013,4.013,0,0,1,126.183,268.5Z" fill="#1a1818"/>
          <path id="Trazado_721115" data-name="Trazado 721115" d="M95.853,322.453s.246,0,.633,0l1.515.026c.289.007.6.015.934.026s.656,0,.987.031c.337-.017.675.02,1.014.007s.678.016,1.015-.014c.34.019.671-.027,1.006-.032s.659-.058.99-.062.641-.078.96-.089.619-.068.91-.1.586-.029.83-.08.478-.064.671-.086c.389-.039.645-.037.645-.037a4.078,4.078,0,0,1-.278.577,5.929,5.929,0,0,1-.388.622,4.5,4.5,0,0,1-.622.7,4.764,4.764,0,0,1-.868.7,5.954,5.954,0,0,1-1.107.6,6.207,6.207,0,0,1-1.294.4,6.55,6.55,0,0,1-1.391.161,6.971,6.971,0,0,1-1.389-.1,6.978,6.978,0,0,1-2.414-.85,6.084,6.084,0,0,1-.912-.621,5.7,5.7,0,0,1-1.129-1.217A2.794,2.794,0,0,1,95.853,322.453Z" fill="#ad7a62"/>
          <g id="Grupo_1007441" data-name="Grupo 1007441">
            <path id="Trazado_721116" data-name="Trazado 721116" d="M82.03,266.491a2.007,2.007,0,1,1-2.007-2.005A2.006,2.006,0,0,1,82.03,266.491Z" fill="#fff"/>
            <path id="Trazado_721117" data-name="Trazado 721117" d="M83.034,269.5a1,1,0,1,1-1-1A1,1,0,0,1,83.034,269.5Z" fill="#fff"/>
          </g>
          <g id="Grupo_1007442" data-name="Grupo 1007442">
            <path id="Trazado_721118" data-name="Trazado 721118" d="M123.173,266.491a2.007,2.007,0,1,0,2.007-2.005A2.006,2.006,0,0,0,123.173,266.491Z" fill="#fff"/>
            <path id="Trazado_721119" data-name="Trazado 721119" d="M122.169,269.5a1,1,0,1,0,1-1A1,1,0,0,0,122.169,269.5Z" fill="#fff"/>
          </g>
          <g id="Grupo_1007444" data-name="Grupo 1007444">
            <g id="Grupo_1007443" data-name="Grupo 1007443">
              <path id="Trazado_721120" data-name="Trazado 721120" d="M98.6,270.506c.072,1.467.083,2.921.023,4.362-.036,1.445-.121,2.881-.236,4.311-.228,2.86-.584,5.7-1.023,8.514a131.932,131.932,0,0,1-3.73,16.7l-1.611-1.958c2.888.164,5.776.371,8.664.638,1.445.149,2.889.257,4.334.44,1.444.163,2.888.341,4.332.564-1.444.224-2.888.4-4.332.565-1.445.182-2.889.291-4.334.439-2.888.268-5.776.475-8.664.639l-1.813.1.2-2.059a131.869,131.869,0,0,1,2.847-16.872c.658-2.777,1.4-5.536,2.266-8.271.433-1.368.895-2.729,1.408-4.082Q97.663,272.5,98.6,270.506Z" fill="#a5755e"/>
            </g>
          </g>
          <path id="Trazado_721121" data-name="Trazado 721121" d="M68.767,217.24s-8.675,4.307-6.122,16.163c0,0,5.108,14.6,0,21.164a44.788,44.788,0,0,0-4.379,26.518h-3.7s-27.841-59.143,14.2-77.86Z" fill="#2d1a10"/>
          <path id="Trazado_721122" data-name="Trazado 721122" d="M136.808,217.24a23.737,23.737,0,0,1,6.121,16.163s-5.109,14.6,0,21.164a44.779,44.779,0,0,1,4.379,26.518h3.7s27.842-59.143-14.2-77.86Z" fill="#2d1a10"/>
          <path id="Trazado_721123" data-name="Trazado 721123" d="M72.862,221.727s9.168,14.6,34.363,2.917c0,0,30.616-9.409,52.51,11.026,0,0,4.716-37.386-29.31-51.892,0,0-36.946-14.5-59.023,16.057C71.4,199.835,59.726,210.739,72.862,221.727Z" fill="#2d1a10"/>
          <g id="Grupo_1007445" data-name="Grupo 1007445">
            <path id="Trazado_721124" data-name="Trazado 721124" d="M130.425,183.778c-1.314-.4-2.65-.712-3.989-.991s-2.681-.527-4.028-.731c-1.35-.188-2.7-.384-4.052-.495q-2.028-.2-4.061-.247c-1.352-.049-2.705-.062-4.053-.009q-1.012.018-2.02.1c-.672.047-1.343.087-2.01.174-1.338.133-2.666.324-3.988.539l-1.969.39c-.653.138-1.3.318-1.945.475s-1.284.363-1.921.556-1.273.391-1.893.63-1.257.435-1.868.692l-1.829.785c-.608.266-1.189.588-1.783.878a19.072,19.072,0,0,0-1.742.953c-.566.343-1.153.65-1.7,1.022l-1.642,1.112c-.558.355-1.06.791-1.593,1.182s-1.065.785-1.549,1.237L79.3,193.338c-.5.436-.944.93-1.419,1.391-.963.91-1.809,1.936-2.686,2.931s-1.626,2.1-2.463,3.133l-.133.162-.078.075c-.273.265-.622.652-.919,1.007-.3.373-.6.748-.868,1.148-.29.383-.518.8-.769,1.21s-.43.846-.653,1.265c-.2.428-.338.875-.515,1.311-.153.441-.232.9-.357,1.342a13.086,13.086,0,0,0-.186,1.361,7.366,7.366,0,0,0,0,1.361,5.656,5.656,0,0,0,.171,1.35,5.5,5.5,0,0,0,.336,1.328c.166.431.311.871.485,1.3l.7,1.231c.122.2.218.42.36.613l.45.57.9,1.144c.322.367.7.693,1.049,1.043l1.064,1.038.188.184.1.144a12.013,12.013,0,0,0,1.281,1.566,9.22,9.22,0,0,0,.769.748,8.094,8.094,0,0,0,.82.7l.859.663.923.581a16.58,16.58,0,0,0,1.929,1.033,21.114,21.114,0,0,0,2.05.806c.686.274,1.425.389,2.138.594a15.719,15.719,0,0,0,2.2.378l1.113.155,1.129.027c.753,0,1.51.077,2.265.022l2.276-.165a16.942,16.942,0,0,0,2.269-.318l2.27-.4,2.236-.587c.744-.207,1.5-.376,2.24-.613l4.408-1.532-4.21,2.062c-.716.315-1.46.563-2.192.85l-2.211.829-2.289.6a17.445,17.445,0,0,1-2.316.527l-2.361.374c-.791.112-1.6.089-2.4.139l-1.206.047-1.208-.084a17.377,17.377,0,0,1-2.416-.251,23.151,23.151,0,0,1-2.395-.5,23.511,23.511,0,0,1-2.332-.79,18.961,18.961,0,0,1-2.236-1.062l-1.082-.614-1.026-.713a10.569,10.569,0,0,1-.99-.768,11.618,11.618,0,0,1-.943-.836,12.524,12.524,0,0,1-1.737-1.985l.287.328-1.232-1.126c-.4-.385-.834-.738-1.216-1.15l-1.091-1.306-.544-.656c-.174-.226-.308-.487-.464-.73l-.9-1.488c-.242-.532-.451-1.086-.672-1.632A8.032,8.032,0,0,1,65.363,213l-.187-.875a6.447,6.447,0,0,1-.071-.891,10.259,10.259,0,0,1-.012-1.787,16.618,16.618,0,0,1,.225-1.763c.145-.569.253-1.155.438-1.709.207-.543.383-1.1.623-1.63.259-.515.48-1.055.777-1.545s.57-1,.907-1.459c.315-.478.666-.931,1.022-1.378a16.774,16.774,0,0,1,1.2-1.327l-.209.237c.868-1.114,1.694-2.264,2.631-3.324s1.857-2.137,2.9-3.1c.512-.489.995-1.01,1.533-1.472l1.614-1.388c.525-.478,1.111-.882,1.676-1.313.577-.413,1.117-.877,1.725-1.247l1.8-1.143c.6-.38,1.237-.695,1.855-1.044a21.074,21.074,0,0,1,1.894-.966c.646-.293,1.277-.617,1.933-.883l1.975-.781c.659-.256,1.34-.452,2.009-.68s1.353-.406,2.037-.579,1.362-.367,2.056-.49,1.379-.289,2.072-.4l2.085-.31c1.4-.152,2.789-.31,4.189-.347.7-.044,1.4-.039,2.1-.042s1.4,0,2.093.034c1.394.038,2.783.142,4.166.287s2.756.35,4.12.6,2.72.527,4.06.868A49.449,49.449,0,0,1,130.425,183.778Z" fill="#170902"/>
          </g>
          <path id="Trazado_721125" data-name="Trazado 721125" d="M114.28,259.276s10.608-4.83,15.779,1.185" fill="none" stroke="#2d1a10" stroke-linecap="round" stroke-linejoin="round" stroke-width="2.583"/>
          <path id="Trazado_721126" data-name="Trazado 721126" d="M87.913,259.276s-10.608-4.83-15.78,1.185" fill="none" stroke="#2d1a10" stroke-linecap="round" stroke-linejoin="round" stroke-width="2.583"/>
          <g id="Grupo_1007446" data-name="Grupo 1007446">
            <path id="Trazado_721127" data-name="Trazado 721127" d="M123.173,222.49a17.341,17.341,0,0,1,1.727-.285,38.108,38.108,0,0,1,4.6-.293c.95.018,1.988,0,3.077.084s2.242.161,3.425.342c1.187.141,2.4.37,3.635.637,1.241.219,2.464.631,3.7.955,1.223.394,2.435.839,3.614,1.3,1.155.535,2.3,1.026,3.363,1.624a34.35,34.35,0,0,1,2.965,1.859c.886.686,1.731,1.306,2.442,1.969.7.68,1.309,1.328,1.842,1.9a13.6,13.6,0,0,1,1.217,1.626c.635.925.955,1.464.955,1.464s-.545-.36-1.424-1.01c-.455-.31-.936-.749-1.582-1.14s-1.373-.822-2.128-1.321c-.786-.461-1.7-.865-2.6-1.367s-1.953-.869-2.963-1.358c-1.032-.455-2.153-.816-3.243-1.275-1.134-.363-2.271-.776-3.428-1.132-1.171-.323-2.316-.723-3.484-1l-1.724-.461-1.7-.412c-1.112-.286-2.2-.519-3.233-.756l-2.923-.657-4.432-.925Z" fill="#170902"/>
          </g>
          <g id="Grupo_1007447" data-name="Grupo 1007447">
            <path id="Trazado_721128" data-name="Trazado 721128" d="M100.686,216.986s.825-.52,2.349-1.279A53.953,53.953,0,0,1,109.557,213c1.384-.479,2.9-.962,4.535-1.366a52.406,52.406,0,0,1,5.191-1.1,49.841,49.841,0,0,1,5.668-.627,52.791,52.791,0,0,1,5.924.032c.994.052,1.984.212,2.973.314.982.169,1.963.323,2.924.55a27.474,27.474,0,0,1,2.829.776l1.37.455c.449.162.885.356,1.322.53a20.568,20.568,0,0,1,2.515,1.168,24.529,24.529,0,0,1,2.287,1.343,19.966,19.966,0,0,1,2.046,1.445c.316.252.637.483.929.74s.568.522.842.776a28.112,28.112,0,0,1,2.782,2.944c.722.963,1.332,1.808,1.795,2.526.865,1.483,1.314,2.335,1.314,2.335s-.693-.7-1.826-1.93c-.592-.594-1.363-1.264-2.19-2.061-.919-.708-1.878-1.575-3.057-2.344l-.878-.612c-.3-.2-.634-.373-.957-.564a22.485,22.485,0,0,0-2.027-1.132,21.381,21.381,0,0,0-2.22-1.02q-.58-.229-1.164-.484c-.393-.156-.806-.28-1.213-.424a37.506,37.506,0,0,0-5.154-1.349c-.889-.187-1.806-.284-2.713-.442-.92-.084-1.837-.223-2.766-.266a49.271,49.271,0,0,0-5.563-.14c-.92.014-1.835.086-2.741.106-.9.073-1.8.116-2.678.215-1.756.19-3.462.378-5.072.631s-3.135.514-4.539.787-2.692.545-3.832.8l-2.952.7C101.625,216.727,100.686,216.986,100.686,216.986Z" fill="#170902"/>
          </g>
          <g id="Grupo_1007448" data-name="Grupo 1007448">
            <path id="Trazado_721129" data-name="Trazado 721129" d="M99.129,203.1s.824-.521,2.349-1.28A53.924,53.924,0,0,1,108,199.115c1.384-.478,2.9-.962,4.535-1.366a52.6,52.6,0,0,1,5.192-1.1,49.824,49.824,0,0,1,5.668-.626,52.3,52.3,0,0,1,5.923.032c.994.051,1.985.212,2.973.313.982.17,1.963.323,2.923.551a27.423,27.423,0,0,1,2.83.776l1.37.454c.449.163.885.357,1.321.532a19.994,19.994,0,0,1,2.515,1.168,23.982,23.982,0,0,1,2.288,1.342,19.953,19.953,0,0,1,2.045,1.445c.316.252.638.483.931.74l.841.776a28.217,28.217,0,0,1,2.782,2.944c.721.964,1.332,1.808,1.794,2.526.865,1.482,1.314,2.335,1.314,2.335s-.692-.7-1.826-1.93c-.592-.593-1.362-1.263-2.189-2.061-.919-.708-1.877-1.575-3.057-2.344l-.879-.612c-.3-.2-.634-.372-.957-.564a22.33,22.33,0,0,0-2.026-1.132,21.559,21.559,0,0,0-2.219-1.02c-.388-.153-.777-.315-1.164-.484s-.808-.28-1.214-.424a37.493,37.493,0,0,0-5.153-1.35c-.89-.186-1.807-.284-2.713-.442-.921-.084-1.837-.223-2.767-.266a49.269,49.269,0,0,0-5.563-.14c-.92.015-1.835.086-2.741.106-.9.073-1.8.117-2.678.215-1.756.19-3.461.379-5.072.631s-3.134.514-4.54.787-2.691.545-3.831.805l-2.952.7C100.067,202.844,99.129,203.1,99.129,203.1Z" fill="#170902"/>
          </g>
          <path id="Trazado_721130" data-name="Trazado 721130" d="M128.745,185.968s-36.723-9.122-50.728,13.867c0,0,6.89-5.108,14.005-5.475,0,0-14.051,10.217-18.429,20.071,0,0,33.571-31.382,69.694-18.245,0,0-9.03-8.757-25.132-7.3C118.155,188.887,124.5,186.334,128.745,185.968Z" fill="#fff" opacity="0.5" style="mix-blend-mode: soft-light;isolation: isolate"/>
          <path id="Trazado_721131" data-name="Trazado 721131" d="M62.28,210.325S42.486,224.406,50.6,258.28c0,0-.092-13.471,3.192-19.219,0,0-3.974,21.08,1.669,37.486,0,0,.465-26.795,4.351-33.111,0,0-1.567-.23-4.351,2.468C55.465,245.9,53.249,225.925,62.28,210.325Z" fill="#fff" opacity="0.5" style="mix-blend-mode: soft-light;isolation: isolate"/>
          <path id="Trazado_721132" data-name="Trazado 721132" d="M156.8,235.67s2.361,16.474-5.03,36.615c0,0,1.822-8.471.636-14.005,0,0,.247,1.326-2.554,5.017,0,0,4.113-11.1-1.427-21.2,0,0,2.646-.539,5.442,4.355A36.828,36.828,0,0,0,156.8,235.67Z" fill="#fff" opacity="0.5" style="mix-blend-mode: soft-light;isolation: isolate"/>
          <path id="Trazado_721133" data-name="Trazado 721133" d="M78.017,218.639s8.416,13.786,30.822,0c0,0-13.9,5.371-16.817,1.265,0,0-5.454-6.283,4.707-11.9,0,0-11.279,2.527-9.59,10.635A9.611,9.611,0,0,1,78.017,218.639Z" fill="#fff" opacity="0.5" style="mix-blend-mode: soft-light;isolation: isolate"/>
          <path id="Trazado_721134" data-name="Trazado 721134" d="M141.012,325.609a19.412,19.412,0,0,1-12.156,6.514c-4.466.431-6.478-3.141-4.306-6.852,1.84-3.144,5.213-4.978,7.487-7.763,1.646-2.014,3.885-6.725,7.151-5.984,1.64.372,2.6,4.283,2.987,5.683C142.974,320.065,142.9,323.178,141.012,325.609Z" fill="#fff" opacity="0.3" style="mix-blend-mode: soft-light;isolation: isolate"/>
          <path id="Trazado_721135" data-name="Trazado 721135" d="M62.392,287.437c-.55-4.376,1.373-10.024,3.989-13.2,2.852-3.461,6.8-2.359,7.889,1.8.923,3.526-.165,7.207.194,10.784.262,2.587,2.01,7.5-.823,9.288-1.423.9-4.864-1.192-6.131-1.9C64.924,292.745,62.774,290.491,62.392,287.437Z" fill="#fff" opacity="0.3" style="mix-blend-mode: soft-light;isolation: isolate"/>
          <g id="Grupo_1007449" data-name="Grupo 1007449">
            <path id="Trazado_721136" data-name="Trazado 721136" d="M80.378,312.65s.643.332,1.8.827S84.982,314.639,87,315.3c1.011.331,2.115.649,3.285.955s2.424.548,3.711.806c1.3.219,2.64.4,4.008.508a36.738,36.738,0,0,0,4.152.136,35.405,35.405,0,0,0,4.137-.3c.679-.093,1.352-.184,2.012-.312.665-.107,1.315-.24,1.948-.4l.947-.226.917-.268c.611-.165,1.2-.336,1.77-.547,1.148-.375,2.2-.823,3.19-1.207.95-.464,1.867-.819,2.628-1.234s1.467-.717,2-1.047c1.089-.62,1.731-.963,1.731-.963s-.527.489-1.485,1.323c-.47.431-1.1.87-1.81,1.4s-1.567,1.052-2.494,1.639a32.3,32.3,0,0,1-3.163,1.607c-.571.272-1.175.508-1.8.738a17.413,17.413,0,0,1-1.931.643q-.99.315-2.037.54a19,19,0,0,1-2.123.408,36.919,36.919,0,0,1-4.394.4,38.873,38.873,0,0,1-4.4-.222,34.72,34.72,0,0,1-4.192-.727,36.207,36.207,0,0,1-7.068-2.481,31.782,31.782,0,0,1-4.576-2.608A17.263,17.263,0,0,1,80.378,312.65Z" fill="#2d1a10"/>
          </g>
        </g>
      </g>
    </g>
  </g>
</svg>
