<svg xmlns="http://www.w3.org/2000/svg" xmlns:xlink="http://www.w3.org/1999/xlink" width="400" height="300" viewBox="0 0 400 300">
  <defs>
    <linearGradient id="linear-gradient" x1="67.883" y1="0.5" x2="68.883" y2="0.5" gradientUnits="objectBoundingBox">
      <stop offset="0" stop-color="#febbba"/>
      <stop offset="1" stop-color="#ff928e"/>
    </linearGradient>
    <linearGradient id="linear-gradient-2" x1="78.623" y1="0.5" x2="79.623" y2="0.5" xlink:href="#linear-gradient"/>
    <linearGradient id="linear-gradient-3" x1="-3.594" y1="-0.492" x2="-3.249" y2="0.348" xlink:href="#linear-gradient"/>
    <linearGradient id="linear-gradient-4" x1="-14.23" y1="0.04" x2="-13.2" y2="1.767" xlink:href="#linear-gradient"/>
    <linearGradient id="linear-gradient-5" x1="-32.969" y1="1.716" x2="-34.845" y2="-0.451" xlink:href="#linear-gradient"/>
    <linearGradient id="linear-gradient-6" x1="10.5" y1="0.5" x2="11.5" y2="0.5" xlink:href="#linear-gradient"/>
    <linearGradient id="linear-gradient-7" x1="33.702" y1="0.5" x2="34.702" y2="0.5" xlink:href="#linear-gradient"/>
    <linearGradient id="linear-gradient-8" x1="26.557" y1="0.5" x2="27.557" y2="0.5" xlink:href="#linear-gradient"/>
    <linearGradient id="linear-gradient-9" x1="-26.209" y1="-3.103" x2="-26.53" y2="-4.168" xlink:href="#linear-gradient"/>
    <linearGradient id="linear-gradient-10" x1="-86.633" y1="-17.498" x2="-87.576" y2="-22.145" xlink:href="#linear-gradient"/>
    <linearGradient id="linear-gradient-11" x1="-12.983" y1="-3.086" x2="-14.077" y2="-1.884" xlink:href="#linear-gradient"/>
    <linearGradient id="linear-gradient-12" x1="-24.713" y1="-6.932" x2="-24.489" y2="-7.842" xlink:href="#linear-gradient"/>
    <linearGradient id="linear-gradient-13" x1="-14.463" y1="-6.728" x2="-13.254" y2="-5.565" xlink:href="#linear-gradient"/>
    <linearGradient id="linear-gradient-14" x1="-41.816" y1="-27.468" x2="-38.44" y2="-23.15" xlink:href="#linear-gradient"/>
    <linearGradient id="linear-gradient-15" x1="-17.554" y1="1.159" x2="-16.153" y2="0.023" xlink:href="#linear-gradient"/>
    <linearGradient id="linear-gradient-16" x1="1.501" y1="0.335" x2="4.024" y2="-0.003" xlink:href="#linear-gradient"/>
    <linearGradient id="linear-gradient-17" x1="-22.612" y1="-1.848" x2="-19.642" y2="-4.024" xlink:href="#linear-gradient"/>
  </defs>
  <g id="Grupo_1013477" data-name="Grupo 1013477" transform="translate(-7100 7330)">
    <path id="Rect치ngulo_349616" data-name="Rect치ngulo 349616" d="M9,0H27a9,9,0,0,1,9,9V255A27,27,0,0,1,9,282H9a9,9,0,0,1-9-9V9A9,9,0,0,1,9,0Z" transform="translate(7464 -7312)" fill="#4db1f0"/>
    <rect id="ecologista-tomando-muestras-agua-tubo-ensayo-rio-ciudad-determinar-nivel-contaminacion-polucion" width="387" height="300" rx="20" transform="translate(7100 -7330)" fill="#fff"/>
    <circle id="Elipse_8848" data-name="Elipse 8848" cx="4.5" cy="4.5" r="4.5" transform="translate(7491 -7330)" fill="#008b8a"/>
    <ellipse id="Elipse_8849" data-name="Elipse 8849" cx="10" cy="9.5" rx="10" ry="9.5" transform="translate(7476 -7307)" fill="#ffa031"/>
    <g id="Grupo_1012243" data-name="Grupo 1012243" transform="translate(6695.776 -7767)">
      <path id="Trazado_730568" data-name="Trazado 730568" d="M725.614,676.719a92.832,92.832,0,0,1-14.205,11.96c-46.34,33.25-101.172,23.557-112.826,21.191-17.209-3.5-50.472-10.251-74.521-38.532-36.384-42.787-30.719-110.2-2.5-154.695,5.162-8.139,32.431-53.315,87.854-60.56,33.541-4.384,72.64,4.458,100.954,28.18C769.807,534.056,765.576,634.649,725.614,676.719Z" transform="translate(-28.392 0)" fill="#dfe9f2"/>
      <g id="Grupo_1012214" data-name="Grupo 1012214" transform="translate(658.428 484.537)">
        <g id="Grupo_1012209" data-name="Grupo 1012209" transform="translate(42.3 0)">
          <path id="Trazado_730569" data-name="Trazado 730569" d="M2945.67,769.24a.362.362,0,0,1-.331.075c-.464-.126-.932-.242-1.391-.345a.362.362,0,1,1,.159-.706c.469.106.947.224,1.42.352a.362.362,0,0,1,.255.444A.356.356,0,0,1,2945.67,769.24Z" transform="translate(-2943.666 -768.255)" fill="#c2e3f9"/>
          <path id="Trazado_730570" data-name="Trazado 730570" d="M3016.294,847.477c-.642.552-1.31,1.085-1.987,1.586a.362.362,0,0,1-.431-.582c.779-.577,1.543-1.2,2.275-1.841l0,0a.362.362,0,0,1,.476.546Q3016.463,847.332,3016.294,847.477Zm3.7-3.712a.362.362,0,0,1-.511-.51c.631-.738,1.24-1.512,1.808-2.3a.362.362,0,1,1,.588.423c-.58.806-1.2,1.6-1.845,2.35A.39.39,0,0,1,3020,843.766Zm4.358-6.408a.362.362,0,0,1-.556-.444c.455-.861.878-1.75,1.257-2.642a.362.362,0,1,1,.667.283c-.387.911-.819,1.818-1.283,2.7A.363.363,0,0,1,3024.356,837.357Zm2.833-7.21a.362.362,0,0,1-.586-.368c.251-.937.465-1.9.635-2.855a.362.362,0,1,1,.713.126c-.173.978-.392,1.96-.648,2.916A.363.363,0,0,1,3027.189,830.147Zm1.149-7.659a.362.362,0,0,1-.6-.288c.036-.97.03-1.954-.018-2.925a.362.362,0,1,1,.724-.035c.048.992.054,2,.018,2.988A.361.361,0,0,1,3028.339,822.488Zm-.581-7.726a.362.362,0,0,1-.592-.208c-.181-.956-.4-1.915-.664-2.85a.362.362,0,0,1,.7-.194c.266.954.494,1.933.678,2.909A.362.362,0,0,1,3027.757,814.762Zm-2.274-7.407a.372.372,0,0,1-.092.058.363.363,0,0,1-.477-.188c-.387-.892-.817-1.777-1.279-2.632a.362.362,0,0,1,.638-.344c.471.873.91,1.777,1.305,2.688A.363.363,0,0,1,3025.483,807.355Zm-3.863-6.719-.022.017a.362.362,0,0,1-.506-.077c-.509-.691-1.05-1.371-1.609-2.021l-.225-.259a.362.362,0,0,1,.033-.511l0,0a.362.362,0,0,1,.508.035l.23.265c.571.663,1.123,1.358,1.643,2.064A.362.362,0,0,1,3021.62,800.637Zm-5.267-5.684a.362.362,0,0,1-.472,0c-.735-.633-1.508-1.243-2.3-1.814a.362.362,0,0,1,.424-.587c.806.583,1.595,1.206,2.345,1.852a.363.363,0,0,1,.038.511A.4.4,0,0,1,3016.354,794.953Zm-6.4-4.376a.362.362,0,0,1-.406.045c-.86-.458-1.748-.883-2.639-1.264a.362.362,0,0,1,.285-.666c.91.389,1.817.823,2.695,1.29a.362.362,0,0,1,.15.49A.354.354,0,0,1,3009.958,790.577Z" transform="translate(-3000.75 -786.738)" fill="#c2e3f9"/>
          <path id="Trazado_730571" data-name="Trazado 730571" d="M3026.436,1450.426a.382.382,0,0,1-.064.044c-.433.234-.87.46-1.3.67a.362.362,0,1,1-.318-.651c.421-.206.85-.427,1.273-.657a.362.362,0,0,1,.409.593Z" transform="translate(-3016.923 -1385.527)" fill="#c2e3f9"/>
        </g>
        <g id="Grupo_1012210" data-name="Grupo 1012210" transform="translate(0 2.023)">
          <path id="Trazado_730572" data-name="Trazado 730572" d="M2738.938,1473.431a.361.361,0,0,1-.346.071c-.46-.146-.926-.3-1.385-.472a.362.362,0,0,1,.248-.681c.45.164.906.319,1.357.462a.362.362,0,0,1,.126.62Z" transform="translate(-2714.158 -1407.963)" fill="#c2e3f9"/>
          <path id="Trazado_730573" data-name="Trazado 730573" d="M2514.142,881.218a.362.362,0,0,1-.406.046c-.861-.455-1.715-.953-2.54-1.481a.362.362,0,0,1,.391-.61c.808.517,1.645,1.005,2.488,1.451a.362.362,0,0,1,.067.595Zm-6.314-4.275a.362.362,0,0,1-.47,0c-.745-.633-1.471-1.305-2.159-2a.362.362,0,0,1,.514-.51c.673.677,1.384,1.335,2.114,1.955a.362.362,0,0,1,.042.511A.414.414,0,0,1,2507.828,876.943Zm-5.229-5.551-.019.015a.362.362,0,0,1-.507-.072c-.586-.78-1.146-1.595-1.665-2.423a.362.362,0,0,1,.614-.385c.508.811,1.057,1.609,1.631,2.372A.362.362,0,0,1,2502.6,871.392Zm-3.88-6.564a.362.362,0,0,1-.567-.126c-.4-.889-.769-1.807-1.094-2.729a.362.362,0,0,1,.683-.241c.318.9.679,1.8,1.072,2.672A.362.362,0,0,1,2498.719,864.828Zm-2.351-7.252a.362.362,0,0,1-.591-.2c-.2-.956-.357-1.932-.475-2.9a.362.362,0,0,1,.719-.087c.115.949.271,1.905.465,2.841A.362.362,0,0,1,2496.368,857.575Zm-.718-7.59a.362.362,0,0,1-.6-.281c.015-.977.072-1.964.169-2.934a.362.362,0,0,1,.721.072c-.095.95-.151,1.917-.166,2.873A.361.361,0,0,1,2495.651,849.986Zm.959-7.56a.362.362,0,0,1-.588-.359c.229-.95.5-1.9.81-2.826a.362.362,0,1,1,.687.229c-.3.906-.569,1.837-.793,2.767A.359.359,0,0,1,2496.61,842.425Zm2.6-7.166a.362.362,0,0,1-.561-.435c.431-.872.9-1.74,1.41-2.579a.362.362,0,1,1,.621.373c-.495.822-.959,1.671-1.381,2.526A.361.361,0,0,1,2499.209,835.259Zm4.1-6.429a.362.362,0,0,1-.519-.5c.614-.764,1.265-1.508,1.936-2.213a.362.362,0,1,1,.525.5c-.657.69-1.295,1.419-1.9,2.167A.36.36,0,0,1,2503.307,828.831Zm7.751-7.1a.29.29,0,0,1-.036.027c-.8.531-1.579,1.1-2.325,1.7a.362.362,0,0,1-.509-.057.358.358,0,0,1,.058-.509c.763-.608,1.562-1.191,2.375-1.733a.362.362,0,0,1,.437.576Z" transform="translate(-2495.053 -818.137)" fill="#c2e3f9"/>
          <path id="Trazado_730574" data-name="Trazado 730574" d="M2704.057,790.348a.369.369,0,0,1-.092.058c-.44.191-.878.392-1.3.6a.362.362,0,1,1-.316-.652c.433-.21.88-.415,1.33-.61a.362.362,0,0,1,.38.607Z" transform="translate(-2682.616 -789.711)" fill="#c2e3f9"/>
        </g>
        <g id="Grupo_1012213" data-name="Grupo 1012213" transform="translate(8.458 7.539)">
          <path id="Trazado_730575" data-name="Trazado 730575" d="M2603.868,849.289a.416.416,0,0,0-.338.345l-.783,5a22.05,22.05,0,0,0-6.019,3.85l-4.867-1.382a.416.416,0,0,0-.455.162l-3.472,4.982a.416.416,0,0,0,.005.483l2.981,4.088a22.051,22.051,0,0,0-1.529,6.979l-4.421,2.466a.416.416,0,0,0-.207.436l1.067,5.978a.416.416,0,0,0,.345.338l5,.783a22.053,22.053,0,0,0,3.85,6.019l-1.382,4.867a.416.416,0,0,0,.162.455l4.981,3.472a.416.416,0,0,0,.483-.005l4.088-2.981a22.051,22.051,0,0,0,6.979,1.529l2.466,4.421a.416.416,0,0,0,.436.207l5.978-1.067a.416.416,0,0,0,.338-.345l.783-5a22.049,22.049,0,0,0,6.019-3.85l4.867,1.382a.416.416,0,0,0,.455-.162l3.472-4.982a.416.416,0,0,0-.005-.483l-2.981-4.088a22.045,22.045,0,0,0,1.529-6.979l4.421-2.466a.416.416,0,0,0,.207-.436l-1.067-5.978a.416.416,0,0,0-.345-.338l-5-.783a22.054,22.054,0,0,0-3.85-6.019l1.382-4.867a.416.416,0,0,0-.162-.455l-4.981-3.472a.416.416,0,0,0-.483.005l-4.088,2.981a22.054,22.054,0,0,0-6.979-1.529l-2.466-4.421a.416.416,0,0,0-.436-.207Z" transform="translate(-2584.756 -848.215)" fill="#c2e3f9"/>
          <g id="Grupo_1012211" data-name="Grupo 1012211" transform="translate(20.848 20.848)">
            <path id="Trazado_730576" data-name="Trazado 730576" d="M2815.681,1079.759a5.952,5.952,0,0,1-5.977,1.055,5.928,5.928,0,1,1,5.977-1.055Zm-7.046-8.17a4.823,4.823,0,0,0-1.367,1.959h0a4.848,4.848,0,1,0,2.54-2.705A4.879,4.879,0,0,0,2808.635,1071.589Zm-1.875,1.767,0,0Z" transform="translate(-2805.865 -1069.324)" fill="#bdd0fb"/>
          </g>
          <g id="Grupo_1012212" data-name="Grupo 1012212" transform="translate(11.629 11.751)">
            <path id="Trazado_730577" data-name="Trazado 730577" d="M2733.194,999.518a15.2,15.2,0,0,1-22.378-20.21q.109-.156.222-.31a15.335,15.335,0,0,1,1.682-1.929q.107-.1.216-.205l.74.8a14.191,14.191,0,0,0-1.968,2.27l-.017.023a14.1,14.1,0,1,0,12.573-6.033l.074-1.084a15.2,15.2,0,0,1,8.855,26.682Z" transform="translate(-2708.092 -972.836)" fill="#bdd0fb"/>
          </g>
        </g>
      </g>
      <g id="Grupo_1012220" data-name="Grupo 1012220" transform="translate(647.502 458.484)">
        <g id="Grupo_1012215" data-name="Grupo 1012215" transform="translate(25.424 0)">
          <path id="Trazado_730578" data-name="Trazado 730578" d="M2650.015,492.54a.217.217,0,0,1-.2.045c-.279-.076-.56-.145-.836-.208a.218.218,0,1,1,.1-.424c.282.063.569.135.854.212a.218.218,0,0,1,.153.267A.215.215,0,0,1,2650.015,492.54Z" transform="translate(-2648.811 -491.947)" fill="#c2e3f9"/>
          <path id="Trazado_730579" data-name="Trazado 730579" d="M2692.462,539.563c-.385.331-.787.652-1.194.953a.218.218,0,0,1-.259-.35c.469-.347.928-.719,1.367-1.106l0,0a.218.218,0,0,1,.286.328Zm2.226-2.231a.218.218,0,0,1-.307-.307c.379-.443.745-.909,1.086-1.383a.218.218,0,1,1,.354.254c-.349.485-.722.96-1.109,1.412A.222.222,0,0,1,2694.688,537.332Zm2.619-3.852a.218.218,0,0,1-.334-.267c.273-.517.528-1.052.755-1.588a.218.218,0,0,1,.4.17c-.232.548-.492,1.093-.771,1.621A.214.214,0,0,1,2697.308,533.48Zm1.7-4.333a.218.218,0,0,1-.352-.221c.151-.563.279-1.14.382-1.716a.218.218,0,1,1,.428.076c-.1.588-.235,1.178-.39,1.753A.217.217,0,0,1,2699.01,529.147Zm.691-4.6a.218.218,0,0,1-.36-.173c.021-.583.018-1.174-.01-1.758a.218.218,0,0,1,.435-.021c.029.6.032,1.2.011,1.8A.217.217,0,0,1,2699.7,524.544Zm-.349-4.643a.218.218,0,0,1-.356-.125c-.109-.575-.243-1.151-.4-1.713a.218.218,0,0,1,.419-.117c.159.574.3,1.162.408,1.749A.218.218,0,0,1,2699.352,519.9Zm-1.367-4.452a.222.222,0,0,1-.055.035.218.218,0,0,1-.286-.113c-.233-.536-.491-1.068-.769-1.582a.218.218,0,0,1,.383-.207c.283.525.547,1.068.785,1.615A.218.218,0,0,1,2697.985,515.448Zm-2.322-4.038-.013.01a.218.218,0,0,1-.3-.046c-.306-.416-.631-.824-.967-1.215l-.135-.156a.218.218,0,0,1,.02-.307h0a.218.218,0,0,1,.305.021l.138.159c.343.4.675.816.988,1.24A.218.218,0,0,1,2695.663,511.41Zm-3.165-3.416a.218.218,0,0,1-.284,0c-.442-.38-.906-.747-1.381-1.09a.218.218,0,1,1,.255-.353c.485.35.959.725,1.41,1.113a.218.218,0,0,1,.023.307Zm-3.844-2.63a.217.217,0,0,1-.244.027c-.517-.275-1.051-.531-1.586-.76a.218.218,0,1,1,.171-.4c.547.234,1.092.495,1.619.776a.218.218,0,0,1,.04.357Z" transform="translate(-2683.119 -503.057)" fill="#c2e3f9"/>
          <path id="Trazado_730580" data-name="Trazado 730580" d="M2698.558,901.954a.221.221,0,0,1-.038.027c-.26.141-.523.276-.782.4a.218.218,0,0,1-.191-.391c.253-.124.511-.257.765-.395a.218.218,0,0,1,.246.356Z" transform="translate(-2692.841 -862.948)" fill="#c2e3f9"/>
        </g>
        <g id="Grupo_1012216" data-name="Grupo 1012216" transform="translate(0 1.216)">
          <path id="Trazado_730581" data-name="Trazado 730581" d="M2525.763,915.781a.217.217,0,0,1-.208.043c-.276-.088-.557-.183-.833-.284a.218.218,0,1,1,.149-.409c.27.1.544.192.815.278a.218.218,0,0,1,.076.372Z" transform="translate(-2510.869 -876.432)" fill="#c2e3f9"/>
          <path id="Trazado_730582" data-name="Trazado 730582" d="M2390.653,559.842a.217.217,0,0,1-.244.027c-.518-.273-1.031-.573-1.526-.89a.218.218,0,1,1,.235-.367c.485.311.988.6,1.495.872a.218.218,0,0,1,.091.294A.215.215,0,0,1,2390.653,559.842Zm-3.8-2.57a.218.218,0,0,1-.283,0c-.448-.381-.884-.784-1.3-1.2a.218.218,0,0,1,.309-.307c.4.407.832.8,1.27,1.175a.218.218,0,0,1,.025.307A.26.26,0,0,1,2386.858,557.272Zm-3.143-3.336-.011.009a.218.218,0,0,1-.3-.043c-.352-.469-.689-.959-1-1.456a.218.218,0,1,1,.369-.231c.306.487.635.967.98,1.426A.217.217,0,0,1,2383.715,553.936Zm-2.332-3.945a.218.218,0,0,1-.341-.076c-.241-.535-.462-1.086-.658-1.64a.218.218,0,0,1,.411-.145c.191.542.408,1.083.644,1.606A.218.218,0,0,1,2381.384,549.991Zm-1.413-4.359a.218.218,0,0,1-.355-.121c-.119-.575-.215-1.161-.285-1.744a.218.218,0,1,1,.432-.052c.069.57.163,1.145.279,1.708A.217.217,0,0,1,2379.97,545.632Zm-.431-4.562a.218.218,0,0,1-.36-.169c.009-.587.043-1.18.1-1.763a.218.218,0,1,1,.433.043c-.057.571-.091,1.152-.1,1.727A.218.218,0,0,1,2379.539,541.07Zm.576-4.544a.218.218,0,0,1-.354-.216c.138-.571.3-1.142.487-1.7a.218.218,0,1,1,.413.138c-.181.545-.342,1.1-.477,1.663A.217.217,0,0,1,2380.116,536.526Zm1.562-4.307a.218.218,0,0,1-.337-.261c.259-.524.544-1.046.847-1.55a.218.218,0,1,1,.373.224c-.3.494-.576,1-.83,1.518A.214.214,0,0,1,2381.678,532.219Zm2.463-3.864a.218.218,0,0,1-.312-.3c.369-.459.76-.906,1.164-1.33a.218.218,0,0,1,.315.3c-.4.415-.778.853-1.139,1.3A.205.205,0,0,1,2384.141,528.355Zm4.659-4.266-.021.016c-.478.319-.949.662-1.4,1.02a.217.217,0,0,1-.306-.035.215.215,0,0,1,.034-.306c.458-.365.939-.716,1.427-1.042a.218.218,0,0,1,.263.346Z" transform="translate(-2379.18 -521.928)" fill="#c2e3f9"/>
          <path id="Trazado_730583" data-name="Trazado 730583" d="M2504.8,505.226a.217.217,0,0,1-.055.035c-.265.115-.528.236-.783.359a.218.218,0,1,1-.19-.392c.26-.126.529-.249.8-.367a.218.218,0,0,1,.229.365Z" transform="translate(-2491.911 -504.843)" fill="#c2e3f9"/>
        </g>
        <g id="Grupo_1012219" data-name="Grupo 1012219" transform="translate(5.084 4.531)">
          <path id="Trazado_730584" data-name="Trazado 730584" d="M2444.581,540.651a.25.25,0,0,0-.2.207l-.471,3.006a13.257,13.257,0,0,0-3.618,2.314l-2.925-.831a.25.25,0,0,0-.273.1L2435,548.439a.25.25,0,0,0,0,.29l1.792,2.457a13.264,13.264,0,0,0-.919,4.195l-2.657,1.482a.25.25,0,0,0-.124.262l.641,3.593a.25.25,0,0,0,.207.2l3.006.471a13.257,13.257,0,0,0,2.314,3.617l-.831,2.925a.25.25,0,0,0,.1.273l2.994,2.087a.25.25,0,0,0,.29,0l2.457-1.791a13.251,13.251,0,0,0,4.195.919l1.482,2.657a.25.25,0,0,0,.262.124l3.593-.641a.25.25,0,0,0,.2-.207l.471-3.006a13.251,13.251,0,0,0,3.617-2.314l2.925.831a.25.25,0,0,0,.273-.1l2.087-2.994a.25.25,0,0,0,0-.29l-1.792-2.457a13.251,13.251,0,0,0,.919-4.195l2.657-1.482a.25.25,0,0,0,.125-.262l-.642-3.593a.25.25,0,0,0-.207-.2l-3.006-.471a13.249,13.249,0,0,0-2.314-3.617l.831-2.925a.25.25,0,0,0-.1-.273l-2.994-2.087a.25.25,0,0,0-.29,0l-2.457,1.792a13.254,13.254,0,0,0-4.195-.919l-1.482-2.657a.25.25,0,0,0-.262-.125Z" transform="translate(-2433.094 -540.006)" fill="#c2e3f9"/>
          <g id="Grupo_1012217" data-name="Grupo 1012217" transform="translate(12.531 12.531)">
            <path id="Trazado_730585" data-name="Trazado 730585" d="M2571.888,679.172a3.586,3.586,0,0,1-.863.549,3.546,3.546,0,1,1,.863-.549Zm-4.235-4.91a2.9,2.9,0,0,0-.822,1.177h0a2.913,2.913,0,1,0,1.527-1.626A2.923,2.923,0,0,0,2567.653,674.261Zm-1.127,1.062h0Z" transform="translate(-2565.988 -672.9)" fill="#bdd0fb"/>
          </g>
          <g id="Grupo_1012218" data-name="Grupo 1012218" transform="translate(6.99 7.063)">
            <path id="Trazado_730586" data-name="Trazado 730586" d="M2522.31,630.944a9.134,9.134,0,0,1-13.45-12.147q.066-.094.134-.186a9.244,9.244,0,0,1,1.01-1.159l.13-.123.445.478a8.547,8.547,0,0,0-1.183,1.364l-.01.014a8.476,8.476,0,1,0,7.557-3.626l.045-.651a9.136,9.136,0,0,1,5.323,16.036Z" transform="translate(-2507.223 -614.908)" fill="#bdd0fb"/>
          </g>
        </g>
      </g>
      <g id="Grupo_1012222" data-name="Grupo 1012222" transform="translate(467.224 540.037)">
        <path id="Trazado_730587" data-name="Trazado 730587" d="M628.9,1496.382a4.115,4.115,0,0,0,4.1,4.1H854.986a4.115,4.115,0,0,0,4.105-4.1l1.847-127.567a7.149,7.149,0,0,0-7.528-6.328l-216.945-5.613a10.344,10.344,0,0,0-10.615,10.58Z" transform="translate(-610.892 -1356.87)" fill="#2a486b"/>
        <path id="Trazado_730588" data-name="Trazado 730588" d="M671.466,1539.173a3.9,3.9,0,0,0,3.884,3.884h212.8a3.9,3.9,0,0,0,3.884-3.884l1.743-115.806c-.205-6.969-6.315-9.474-10.019-9.326l-207.922-5.578a7.27,7.27,0,0,0-7.459,7.44Z" transform="translate(-649.406 -1403.596)" fill="#c2e3f9"/>
        <g id="Grupo_1012221" data-name="Grupo 1012221" transform="translate(165.394 10.871)">
          <path id="Trazado_730589" data-name="Trazado 730589" d="M3010.542,2110.118h-.006a.57.57,0,0,1-.564-.578l.138-9.392a.569.569,0,0,1,.569-.561h.009a.569.569,0,0,1,.561.578l-.138,9.392A.569.569,0,0,1,3010.542,2110.118Z" transform="translate(-2935.61 -2040.428)" fill="#bdd0fb"/>
          <path id="Trazado_730590" data-name="Trazado 730590" d="M2296.593,1518.842h-.009a.569.569,0,0,1-.561-.578l.528-35.97a6.756,6.756,0,0,0-1.928-5.059c-2.369-2.27-6.131-2.154-6.29-2.147l-66.456-1.782a.569.569,0,0,1-.554-.584.545.545,0,0,1,.584-.553l66.417,1.782c.413-.025,4.419-.094,7.086,2.462a7.857,7.857,0,0,1,2.279,5.887l-.528,35.982A.569.569,0,0,1,2296.593,1518.842Z" transform="translate(-2221.324 -1472.167)" fill="#bdd0fb"/>
        </g>
        <rect id="Rect치ngulo_349630" data-name="Rect치ngulo 349630" width="261.707" height="11.208" rx="5.604" transform="translate(261.707 154.202) rotate(180)" fill="#2a486b"/>
      </g>
      <g id="Grupo_1012235" data-name="Grupo 1012235" transform="translate(532.368 456.621)">
        <path id="Trazado_730591" data-name="Trazado 730591" d="M1158.117,766.405a14.142,14.142,0,0,1,14.142-14.142h120.266a12.459,12.459,0,0,1,12.443,11.826l8.877,174.363a9.188,9.188,0,0,1-9.009,9.654L1167,950.611a8.721,8.721,0,0,1-8.88-8.72Z" transform="translate(-1158.117 -725.855)" fill="#51aee6"/>
        <path id="Trazado_730592" data-name="Trazado 730592" d="M1227.915,2504.649h0l-15.423-.2a9.512,9.512,0,0,1-9.353-9.475v-23.287a.329.329,0,0,1,.658,0v23.287a8.851,8.851,0,0,0,8.7,8.816l15.423.2a.329.329,0,0,1,0,.658Z" transform="translate(-1198.89 -2282.857)" fill="#c2e3f9"/>
        <path id="Trazado_730593" data-name="Trazado 730593" d="M1203.463,2359.293a.329.329,0,0,1-.329-.329v-3.771a.329.329,0,1,1,.658,0v3.771A.329.329,0,0,1,1203.463,2359.293Z" transform="translate(-1198.89 -2177.346)" fill="#c2e3f9"/>
        <g id="Grupo_1012234" data-name="Grupo 1012234" transform="translate(9.853 24.956)">
          <path id="Trazado_730594" data-name="Trazado 730594" d="M1262.612,741.005a4.108,4.108,0,0,1,4.659-4.1c16.423,2.227,72.9,9.115,119.593,5.531a3.8,3.8,0,0,1,4.091,3.583l9.308,175.14a4.371,4.371,0,0,1-4.107,4.6c-19.638,1.162-100.516,5.655-129.363,2.633a3.463,3.463,0,0,1-3.1-3.427Z" transform="translate(-1262.611 -736.87)" fill="#2b5f91"/>
          <path id="Trazado_730595" data-name="Trazado 730595" d="M1283.128,789.048a3.953,3.953,0,0,1,4.484-3.943c15.8,2.143,70.154,8.772,115.089,5.323a3.655,3.655,0,0,1,3.937,3.448l8.958,168.545a4.207,4.207,0,0,1-3.952,4.424c-18.9,1.118-96.73,5.442-124.492,2.534a3.333,3.333,0,0,1-2.982-3.3Z" transform="translate(-1281.194 -780.524)" fill="#bdd0fb"/>
          <path id="Trazado_730596" data-name="Trazado 730596" d="M1438.272,940.537l1.679,36.134a2.3,2.3,0,0,0,2.229,2.191c6.692.189,27.545.7,39.319.084a2.565,2.565,0,0,0,2.43-2.48c.224-6.776.716-26.5-.828-34.745a2.9,2.9,0,0,0-2.748-2.355l-39.555-1.383A2.443,2.443,0,0,0,1438.272,940.537Z" transform="translate(-1421.707 -919.018)" fill="#fff" opacity="0.78"/>
          <g id="Grupo_1012223" data-name="Grupo 1012223" transform="translate(71.064 21.441)" opacity="0.6">
            <path id="Trazado_730597" data-name="Trazado 730597" d="M2060.752,967.491a1.28,1.28,0,0,0,1.374-1.212,1.4,1.4,0,0,0-1.445-1.237l-43.375-.773a.916.916,0,0,0-.941,1.3l.207.589a2.137,2.137,0,0,0,1.877,1.329Z" transform="translate(-2016.29 -964.268)" fill="#fff"/>
          </g>
          <g id="Grupo_1012224" data-name="Grupo 1012224" transform="translate(71.064 28.178)" opacity="0.6">
            <path id="Trazado_730598" data-name="Trazado 730598" d="M2017.306,1035.711a.916.916,0,0,0-.941,1.3l.207.589a2.137,2.137,0,0,0,1.877,1.329h42.3a1.28,1.28,0,0,0,1.374-1.212,1.4,1.4,0,0,0-1.445-1.237Z" transform="translate(-2016.29 -1035.71)" fill="#fff"/>
          </g>
          <g id="Grupo_1012225" data-name="Grupo 1012225" transform="translate(71.064 35.012)" opacity="0.6">
            <path id="Trazado_730599" data-name="Trazado 730599" d="M2017.306,1108.192a.916.916,0,0,0-.941,1.3l.207.589a2.137,2.137,0,0,0,1.877,1.329h42.3a1.28,1.28,0,0,0,1.374-1.212,1.4,1.4,0,0,0-1.445-1.237Z" transform="translate(-2016.29 -1108.191)" fill="#fff"/>
          </g>
          <g id="Grupo_1012226" data-name="Grupo 1012226" transform="translate(17.182 67.956)" opacity="0.6">
            <path id="Trazado_730600" data-name="Trazado 730600" d="M1547.394,1460.822a1.225,1.225,0,0,0,1.329-1.212,1.45,1.45,0,0,0-1.489-1.223l-101.617-.8c-.775-.006-1.014.485-.531,1.091l.83,1.043a3.319,3.319,0,0,0,2.287,1.1Z" transform="translate(-1444.836 -1457.586)" fill="#fff"/>
          </g>
          <g id="Grupo_1012227" data-name="Grupo 1012227" transform="translate(17.182 76.598)" opacity="0.6">
            <path id="Trazado_730601" data-name="Trazado 730601" d="M1445.617,1549.231c-.775-.006-1.014.485-.531,1.091l.83,1.043a3.318,3.318,0,0,0,2.287,1.1h99.191a1.225,1.225,0,0,0,1.329-1.212,1.45,1.45,0,0,0-1.489-1.223Z" transform="translate(-1444.836 -1549.231)" fill="#fff"/>
          </g>
          <g id="Grupo_1012233" data-name="Grupo 1012233" transform="translate(18.146 92.892)">
            <path id="Trazado_730602" data-name="Trazado 730602" d="M1474.8,1903.416h-.023l-8.576-.082a2.305,2.305,0,0,1-2.353-1.961l-.754-7.2a1.563,1.563,0,0,1,.369-1.176,1.883,1.883,0,0,1,1.312-.648h0c.723-.049,1.74-.136,2.817-.228,2.268-.193,5.091-.433,6.68-.453a2.4,2.4,0,0,1,2.4,1.68c.447,1.652.407,4.779.323,8.11A2.119,2.119,0,0,1,1474.8,1903.416Zm-9.98-10.405a1.22,1.22,0,0,0-.853.414.911.911,0,0,0-.219.683l.754,7.2a1.65,1.65,0,0,0,1.7,1.371l8.576.082h.017a1.461,1.461,0,0,0,1.538-1.312c.084-3.281.124-6.355-.3-7.921a1.769,1.769,0,0,0-1.757-1.193c-1.565.02-4.375.259-6.632.451-1.08.092-2.1.179-2.828.229Z" transform="translate(-1462.333 -1875.679)" fill="#fff"/>
            <path id="Trazado_730603" data-name="Trazado 730603" d="M1480.656,1908.517c1.8-.123,5.717-.521,7.575-.544a1.66,1.66,0,0,1,1.662,1.148,29.166,29.166,0,0,1,.249,6.405,1.427,1.427,0,0,1-1.508,1.305l-6.854-.066a1.583,1.583,0,0,1-1.621-1.331l-.6-5.75A1.113,1.113,0,0,1,1480.656,1908.517Z" transform="translate(-1477.242 -1890.443)" fill="#fff" opacity="0.6"/>
            <g id="Grupo_1012228" data-name="Grupo 1012228" transform="translate(19.933 20.287)" opacity="0.6">
              <path id="Trazado_730604" data-name="Trazado 730604" d="M1666.535,1939.874a2.129,2.129,0,0,0,2.077,1.586l79.352-.677a1.61,1.61,0,0,0-.006-3.221l-79.354-.362A2.129,2.129,0,0,0,1666.535,1939.874Z" transform="translate(-1666.463 -1937.202)" fill="#fff"/>
            </g>
            <path id="Trazado_730605" data-name="Trazado 730605" d="M1474.8,2098.356h-.023l-8.576-.082a2.305,2.305,0,0,1-2.353-1.961l-.754-7.2a1.563,1.563,0,0,1,.369-1.176,1.884,1.884,0,0,1,1.312-.648h0c.723-.049,1.74-.136,2.817-.228,2.268-.193,5.091-.434,6.68-.453h.035a2.392,2.392,0,0,1,2.367,1.68c.447,1.652.407,4.779.323,8.11A2.119,2.119,0,0,1,1474.8,2098.356Zm-9.98-10.405a1.22,1.22,0,0,0-.853.414.911.911,0,0,0-.219.683l.754,7.2a1.65,1.65,0,0,0,1.7,1.371l8.576.082h.017a1.461,1.461,0,0,0,1.538-1.312c.084-3.281.124-6.355-.3-7.921a1.761,1.761,0,0,0-1.758-1.193c-1.564.02-4.374.259-6.632.451-1.08.092-2.1.179-2.828.229Z" transform="translate(-1462.333 -2052.237)" fill="#fff"/>
            <path id="Trazado_730606" data-name="Trazado 730606" d="M1480.656,2103.461c1.8-.123,5.717-.521,7.575-.544a1.66,1.66,0,0,1,1.662,1.148,29.167,29.167,0,0,1,.249,6.405,1.427,1.427,0,0,1-1.508,1.305l-6.854-.066a1.584,1.584,0,0,1-1.621-1.332l-.6-5.75A1.113,1.113,0,0,1,1480.656,2103.461Z" transform="translate(-1477.242 -2067.004)" fill="#fff" opacity="0.6"/>
            <g id="Grupo_1012229" data-name="Grupo 1012229" transform="translate(19.933 38.668)" opacity="0.6">
              <path id="Trazado_730607" data-name="Trazado 730607" d="M1666.535,2134.817a2.129,2.129,0,0,0,2.077,1.586l79.352-.677a1.61,1.61,0,0,0-.006-3.22l-79.354-.362A2.129,2.129,0,0,0,1666.535,2134.817Z" transform="translate(-1666.463 -2132.145)" fill="#fff"/>
            </g>
            <path id="Trazado_730608" data-name="Trazado 730608" d="M1474.8,2293.3h-.023l-8.576-.082a2.3,2.3,0,0,1-2.353-1.96l-.754-7.2a1.563,1.563,0,0,1,.37-1.176,1.882,1.882,0,0,1,1.312-.647h0c.723-.049,1.74-.136,2.817-.228,2.268-.193,5.091-.433,6.68-.453h.035a2.392,2.392,0,0,1,2.367,1.68c.447,1.652.407,4.778.323,8.11A2.119,2.119,0,0,1,1474.8,2293.3Zm-9.98-10.405a1.221,1.221,0,0,0-.853.415.91.91,0,0,0-.219.683l.754,7.2a1.649,1.649,0,0,0,1.7,1.371l8.577.082h.017a1.461,1.461,0,0,0,1.538-1.312c.084-3.281.124-6.355-.3-7.921a1.757,1.757,0,0,0-1.758-1.193c-1.564.02-4.374.259-6.632.451-1.08.092-2.1.179-2.828.229Z" transform="translate(-1462.333 -2228.799)" fill="#fff"/>
            <path id="Trazado_730609" data-name="Trazado 730609" d="M1480.656,2298.4c1.8-.123,5.717-.521,7.575-.544a1.66,1.66,0,0,1,1.662,1.148,29.167,29.167,0,0,1,.249,6.405,1.427,1.427,0,0,1-1.508,1.305l-6.854-.066a1.583,1.583,0,0,1-1.621-1.331l-.6-5.75A1.113,1.113,0,0,1,1480.656,2298.4Z" transform="translate(-1477.242 -2243.566)" fill="#fff" opacity="0.6"/>
            <g id="Grupo_1012230" data-name="Grupo 1012230" transform="translate(19.933 57.049)" opacity="0.6">
              <path id="Trazado_730610" data-name="Trazado 730610" d="M1666.535,2329.76a2.129,2.129,0,0,0,2.077,1.586l79.352-.677a1.61,1.61,0,0,0-.006-3.22l-79.354-.362A2.129,2.129,0,0,0,1666.535,2329.76Z" transform="translate(-1666.463 -2327.088)" fill="#fff"/>
            </g>
            <path id="Trazado_730611" data-name="Trazado 730611" d="M1474.8,2488.242h-.023l-8.576-.083a2.3,2.3,0,0,1-2.353-1.96l-.754-7.2a1.564,1.564,0,0,1,.37-1.176,1.884,1.884,0,0,1,1.312-.648h0c.723-.049,1.74-.136,2.817-.228,2.268-.193,5.091-.433,6.68-.453h.035a2.392,2.392,0,0,1,2.367,1.68c.447,1.652.407,4.779.323,8.11A2.119,2.119,0,0,1,1474.8,2488.242Zm-9.98-10.406a1.22,1.22,0,0,0-.853.414.912.912,0,0,0-.219.684l.754,7.2a1.649,1.649,0,0,0,1.7,1.371l8.577.082h.017a1.461,1.461,0,0,0,1.538-1.312c.084-3.281.124-6.355-.3-7.921a1.755,1.755,0,0,0-1.758-1.193c-1.564.02-4.374.259-6.632.451-1.08.092-2.1.179-2.828.229Z" transform="translate(-1462.333 -2405.361)" fill="#fff"/>
            <path id="Trazado_730612" data-name="Trazado 730612" d="M1480.656,2493.346c1.8-.123,5.717-.521,7.575-.544a1.66,1.66,0,0,1,1.662,1.148,29.168,29.168,0,0,1,.249,6.405,1.427,1.427,0,0,1-1.508,1.305l-6.854-.066a1.583,1.583,0,0,1-1.621-1.331l-.6-5.75A1.114,1.114,0,0,1,1480.656,2493.346Z" transform="translate(-1477.242 -2420.128)" fill="#fff" opacity="0.6"/>
            <g id="Grupo_1012231" data-name="Grupo 1012231" transform="translate(19.933 75.431)" opacity="0.6">
              <path id="Trazado_730613" data-name="Trazado 730613" d="M1666.535,2524.7h0a2.129,2.129,0,0,0,2.077,1.586l79.352-.677a1.61,1.61,0,0,0-.006-3.22l-79.354-.362A2.129,2.129,0,0,0,1666.535,2524.7Z" transform="translate(-1666.463 -2522.031)" fill="#fff"/>
            </g>
            <path id="Trazado_730614" data-name="Trazado 730614" d="M1466.779,1733.791h-.023l-8.576-.082a2.3,2.3,0,0,1-2.353-1.961l-.754-7.2a1.564,1.564,0,0,1,.37-1.176,1.882,1.882,0,0,1,1.312-.648h0c.722-.049,1.74-.136,2.817-.228,2.268-.193,5.091-.434,6.68-.453h.035a2.391,2.391,0,0,1,2.367,1.68c.447,1.652.408,4.779.323,8.11A2.119,2.119,0,0,1,1466.779,1733.791Zm-9.98-10.405a1.22,1.22,0,0,0-.853.414.91.91,0,0,0-.219.684l.754,7.2a1.649,1.649,0,0,0,1.7,1.371l8.576.082h.017a1.461,1.461,0,0,0,1.538-1.312c.084-3.281.124-6.355-.3-7.921a1.755,1.755,0,0,0-1.758-1.193c-1.564.02-4.374.259-6.632.451-1.08.092-2.1.179-2.828.229Z" transform="translate(-1455.065 -1722.047)" fill="#fff"/>
            <path id="Trazado_730615" data-name="Trazado 730615" d="M1472.631,1738.9c1.8-.123,5.718-.521,7.575-.544a1.661,1.661,0,0,1,1.662,1.148,29.138,29.138,0,0,1,.249,6.405,1.427,1.427,0,0,1-1.508,1.305l-6.854-.066a1.584,1.584,0,0,1-1.621-1.331l-.6-5.75A1.113,1.113,0,0,1,1472.631,1738.9Z" transform="translate(-1469.974 -1736.814)" fill="#fff" opacity="0.6"/>
            <g id="Grupo_1012232" data-name="Grupo 1012232" transform="translate(19.176 4.293)" opacity="0.6">
              <path id="Trazado_730616" data-name="Trazado 730616" d="M1658.509,1770.254h0a2.13,2.13,0,0,0,2.077,1.586l79.352-.677a1.61,1.61,0,0,0-.006-3.221l-79.354-.362A2.13,2.13,0,0,0,1658.509,1770.254Z" transform="translate(-1658.438 -1767.581)" fill="#fff"/>
            </g>
          </g>
        </g>
        <path id="Trazado_730617" data-name="Trazado 730617" d="M1885,474.828c-4.344-3.022-8.122-2.962-10.781-2.178a5.3,5.3,0,0,0-3.767,5.576l1.147,12.517,13.646,1.211S1893.52,480.755,1885,474.828Zm-6,10.1a3.4,3.4,0,1,1,3.4-3.4A3.4,3.4,0,0,1,1879,484.926Z" transform="translate(-1803.266 -472.194)" fill="#2a486b"/>
        <path id="Trazado_730618" data-name="Trazado 730618" d="M1889.166,503.083a.329.329,0,0,1-.327-.3l-.183-1.993a.329.329,0,1,1,.656-.06l.183,1.993a.329.329,0,0,1-.3.358Zm-.358-3.906a.329.329,0,0,1-.327-.3l-.139-1.513a5.062,5.062,0,0,1,3.59-5.312,10.2,10.2,0,0,1,4.987-.2.329.329,0,1,1-.132.645,9.558,9.558,0,0,0-4.669.191,4.4,4.4,0,0,0-3.12,4.62l.139,1.513a.329.329,0,0,1-.3.358Z" transform="translate(-1819.469 -489.799)" fill="#c2e3f9"/>
        <path id="Trazado_730619" data-name="Trazado 730619" d="M1685.314,657.372v-6.293a3.84,3.84,0,0,1,3.971-3.838l43.387,1.486a3.735,3.735,0,0,1,3.6,3.509l.363,6.047Z" transform="translate(-1635.605 -630.734)" fill="#2a486b"/>
        <path id="Trazado_730620" data-name="Trazado 730620" d="M1835.8,666.085h-1.866a.329.329,0,0,1,0-.659h1.866a.329.329,0,0,1,0,.659Z" transform="translate(-1769.917 -647.206)" fill="#c2e3f9"/>
        <path id="Trazado_730621" data-name="Trazado 730621" d="M1707.056,671.868a.329.329,0,0,1-.329-.329v-2.546a3.571,3.571,0,0,1,3.567-3.567h6.86a.329.329,0,1,1,0,.659h-6.86a2.912,2.912,0,0,0-2.909,2.908v2.546A.329.329,0,0,1,1707.056,671.868Z" transform="translate(-1654.999 -647.206)" fill="#c2e3f9"/>
        <path id="Trazado_730622" data-name="Trazado 730622" d="M1496.18,734.151a4.089,4.089,0,0,1,4.084-3.892l75.87,0a5.608,5.608,0,0,1,5.526,4.651l.064.371a4.816,4.816,0,0,1-4.745,5.637H1499.14a3.131,3.131,0,0,1-3.128-3.281Z" transform="translate(-1464.149 -705.924)" fill="#51aee6"/>
      </g>
      <g id="Grupo_1012236" data-name="Grupo 1012236" transform="translate(569.313 505.3)">
        <path id="Trazado_730623" data-name="Trazado 730623" d="M1554.208,1010.737V1009.2a9.619,9.619,0,0,1,.649-3.687,11.455,11.455,0,0,1,2.367-3.379,12.146,12.146,0,0,0,2.08-2.8,6.359,6.359,0,0,0,.451-2.576,3.856,3.856,0,0,0-.66-2.334,2.419,2.419,0,0,0-2.092-.9,9.26,9.26,0,0,0-5,1.7l-2.069-4.4a13.305,13.305,0,0,1,7.661-2.356,7.945,7.945,0,0,1,5.735,2.014,7.394,7.394,0,0,1,2.1,5.6,11.112,11.112,0,0,1-.726,4.26,15.5,15.5,0,0,1-3.016,4.216,11.554,11.554,0,0,0-1.882,2.477,5.664,5.664,0,0,0-.407,2.367v1.343Zm-1.035,7.353a3.619,3.619,0,0,1,.936-2.675,3.683,3.683,0,0,1,2.719-.936,3.618,3.618,0,1,1,0,7.221,3.664,3.664,0,0,1-2.708-.947A3.6,3.6,0,0,1,1553.173,1018.09Z" transform="translate(-1549.937 -988.458)" fill="#e39b40" stroke="#a4d2d3" stroke-width="3"/>
      </g>
      <g id="Grupo_1012241" data-name="Grupo 1012241" transform="translate(495.233 575.764)">
        <path id="Trazado_730624" data-name="Trazado 730624" d="M1080.937,3166.61s-.5,2.815-.741,5.6a1.92,1.92,0,0,0,1.837,2.08c3.711.155,11.649.455,14.5.328a.625.625,0,0,0,.55-.855,1.4,1.4,0,0,0-.715-.754l-13.112-6.026Z" transform="translate(-1050.402 -3031.697)" fill="#2a486b"/>
        <path id="Trazado_730625" data-name="Trazado 730625" d="M1083.806,3144.073l.4,3.367s2.3,1.069,3.865-.135l-.951-3.752Z" transform="translate(-1053.678 -3010.813)" fill="url(#linear-gradient)"/>
        <path id="Trazado_730626" data-name="Trazado 730626" d="M986.964,2477.68c-.173.879-.926,43.88,3.67,63.15a.654.654,0,0,1-.384.761,11.394,11.394,0,0,1-3.743.761,1.127,1.127,0,0,1-1.118-.809c-1.314-4.471-7.61-26.872-8.431-48.271-.918-23.911,0-.814,0-.814l.538-14.78Z" transform="translate(-956.536 -2407.724)" fill="#51aee6"/>
        <path id="Trazado_730627" data-name="Trazado 730627" d="M912.97,3182.185a20.255,20.255,0,0,0-1.558,5.2,1.171,1.171,0,0,0,1.031,1.4c1.225.12,3.112.275,4.623.265a1.168,1.168,0,0,0,1.156-1.3,9.85,9.85,0,0,0-2.3-5.4Z" transform="translate(-897.517 -3045.803)" fill="#2a486b"/>
        <path id="Trazado_730628" data-name="Trazado 730628" d="M920.791,3134.353l.933,5.092a3.292,3.292,0,0,0,2.749.189l-.445-5.479Z" transform="translate(-906.034 -3002.302)" fill="url(#linear-gradient-2)"/>
        <path id="Trazado_730629" data-name="Trazado 730629" d="M880.145,2468.832c-3.759,22.688.815,56.074,2.358,62.608a1.018,1.018,0,0,0,.823.774,6.844,6.844,0,0,0,2.94-.117.934.934,0,0,0,.671-.86c.207-5.283-.166-37.715,3.337-50.533a2.913,2.913,0,0,1,1.123-1.606l6.8-4.833.521-7.813Z" transform="translate(-867.909 -2397.556)" fill="#51aee6"/>
        <g id="Grupo_1012237" data-name="Grupo 1012237" transform="translate(10.832 10.84)">
          <path id="Trazado_730630" data-name="Trazado 730630" d="M904.516,2018.087c-11.266-.186-23.7,2.958-23.7,2.958-3.358,19.594-.587,42.2-.587,42.2,8.722,2.287,18.56-1.4,18.56-1.4,1.45-8.19,8.213-31.239,8.213-31.239a37.107,37.107,0,0,0,13.773-4.371,24.156,24.156,0,0,1-4.774-9.986A37.8,37.8,0,0,1,904.516,2018.087Z" transform="translate(-879.158 -2000.639)" fill="#e39b40" stroke="#a4d2d3" stroke-width="3"/>
          <path id="Trazado_730631" data-name="Trazado 730631" d="M1291.724,1851.588a2.156,2.156,0,0,0-2.507-.7c-1.658,7-10.351,12.681-19.281,15.457a24.155,24.155,0,0,0,4.774,9.986C1289.531,1867.993,1291.724,1851.588,1291.724,1851.588Z" transform="translate(-1233.089 -1850.734)" fill="url(#linear-gradient-3)"/>
        </g>
        <g id="Grupo_1012238" data-name="Grupo 1012238" transform="translate(66.96 0)">
          <path id="Trazado_730632" data-name="Trazado 730632" d="M1476.663,1747.806c.116.368-1.225.929-2.015-.577-.027-.722-.466-3.813-.035-4.4a57.574,57.574,0,0,1,6.749-7.056,1.059,1.059,0,0,1,.133,1.472l-2.16,2.25a10.455,10.455,0,0,1,1.261,2.493,3.026,3.026,0,0,1-.3,2.228c-.379.683-.9,1.571-1.385,2.266A2.988,2.988,0,0,1,1476.663,1747.806Z" transform="translate(-1474.425 -1735.773)" fill="url(#linear-gradient-4)"/>
          <path id="Trazado_730633" data-name="Trazado 730633" d="M1491.638,1790.729l-1.968,1.669-.618,1.661,1.755,1.947a22.636,22.636,0,0,1,1.029-4.01C1492.274,1791.283,1492.047,1790.938,1491.638,1790.729Z" transform="translate(-1487.673 -1785.547)" fill="url(#linear-gradient-5)"/>
        </g>
        <path id="Trazado_730634" data-name="Trazado 730634" d="M783.4,2078.057l-4.321-10.909s-10.523,7.15-12.253,16.215a24.9,24.9,0,0,1,9.148,2.452C776.751,2081.534,783.4,2078.057,783.4,2078.057Z" transform="translate(-766.585 -2035.903)" fill="#e39b40" stroke="#a4d2d3" stroke-width="3"/>
        <path id="Trazado_730635" data-name="Trazado 730635" d="M790.291,2244.077s-11.814,6.677-15.8.976a4.481,4.481,0,0,1-.822-3.482,24.907,24.907,0,0,0-9.148-2.452,12.512,12.512,0,0,0,1.36,8.577c6.983,12.773,25.974-.706,25.974-.706Z" transform="translate(-764.281 -2191.658)" fill="url(#linear-gradient-6)"/>
        <g id="Grupo_1012239" data-name="Grupo 1012239" transform="translate(24.565 34.29)">
          <path id="Trazado_730636" data-name="Trazado 730636" d="M1024.831,2147.023l6.448-22.518a.657.657,0,0,1,.555-.473c1.168-.136,4.553-.519,8.462-.85a96.048,96.048,0,0,1,13.442-.447.659.659,0,0,1,.539.948c-1.858,3.759-9.5,19.048-13.327,24.057a.661.661,0,0,1-.532.261l-14.96-.139A.659.659,0,0,1,1024.831,2147.023Z" transform="translate(-1024.805 -2120.447)" fill="#2a486b"/>
          <path id="Trazado_730637" data-name="Trazado 730637" d="M1190.742,2100.22l4.675-.779a.335.335,0,0,1,.374.436l-.463,1.4a.335.335,0,0,1-.274.227l-4.5.6a.336.336,0,0,1-.371-.409l.287-1.224A.336.336,0,0,1,1190.742,2100.22Z" transform="translate(-1174.582 -2099.437)" fill="#c2e3f9"/>
          <path id="Trazado_730638" data-name="Trazado 730638" d="M1158.984,2117.634l.385-2.006a.464.464,0,0,1,.409-.374l9.442-.958a.464.464,0,0,1,.5.57l-.6,2.5a.464.464,0,0,1-.427.355l-9.227.465A.464.464,0,0,1,1158.984,2117.634Z" transform="translate(-1146.325 -2112.892)" fill="#c2e3f9"/>
          <path id="Trazado_730639" data-name="Trazado 730639" d="M1035.626,2249.846s-.9-3.694-.536-5,1.064-2.995,3.4-2.621a34.223,34.223,0,0,1,5.1,1.36,1.34,1.34,0,0,1-1.918,1.156l1.1.853s-.158,1.366-1.66.636l1.026,1.132a1.2,1.2,0,0,1-1.75.4C1039.29,2247.042,1038.76,2250.291,1035.626,2249.846Z" transform="translate(-1034.042 -2228.71)" fill="url(#linear-gradient-7)"/>
        </g>
        <path id="Trazado_730640" data-name="Trazado 730640" d="M992.437,1938.777l-3.585,10.367a.374.374,0,0,0,.17.45,8.426,8.426,0,0,0,8.74-.588,1.759,1.759,0,0,0,.81-1.256l1.161-8.972Z" transform="translate(-967.658 -1919.636)" fill="url(#linear-gradient-8)"/>
        <g id="Grupo_1012240" data-name="Grupo 1012240" transform="translate(17.975 4.154)">
          <path id="Trazado_730641" data-name="Trazado 730641" d="M1021.532,1836.968s3.936,7.41,3.432,10.4-5.383,2.778-9.643.347l-2.977-8Z" transform="translate(-1006.929 -1831.581)" fill="url(#linear-gradient-9)"/>
          <path id="Trazado_730642" data-name="Trazado 730642" d="M963.5,1792.039a.305.305,0,0,0,.133-.447,7.97,7.97,0,0,1-1.1-2.325s-.708-.453,1.8-1.054,6.25-1.532,7.036-3.668c.767-2.082-1.248-7.318-4.461-3.146a.306.306,0,0,1-.484,0,3.148,3.148,0,0,0-3.835-1.246,2.888,2.888,0,0,0-1.977,2.791.3.3,0,0,1-.36.311,3.522,3.522,0,0,0-4.112,1.917c-.839,1.845-.294,2.889.2,3.4a.3.3,0,0,1-.13.505,1.832,1.832,0,0,0-1.293,2.091c.107,1.937,2.272,1.766,2.889,1.678a.306.306,0,0,1,.271.1c.529.585,2.91,3.069,5.488,3.368a.308.308,0,0,0,.323-.407l-1.116-3.243a.307.307,0,0,1,.166-.38Z" transform="translate(-954.916 -1779.831)" fill="#2a486b"/>
          <path id="Trazado_730643" data-name="Trazado 730643" d="M1021.674,1905.042s-2.8-1.923-3.007-.3,2.524,2.346,3.875,1.742Z" transform="translate(-1012.646 -1892.374)" fill="url(#linear-gradient-10)"/>
        </g>
      </g>
      <g id="Grupo_1012242" data-name="Grupo 1012242" transform="translate(654.924 576.416)">
        <path id="Trazado_730644" data-name="Trazado 730644" d="M2458.579,1888.929a.44.44,0,0,1,.813.086c.395,1.42,1.349,3.9,3.353,4.777.1.044.2.089.289.134a1.018,1.018,0,0,0-.126-.921c-.623-.952.5-2.252.5-2.252a2.9,2.9,0,0,0,.945,1.866,2.786,2.786,0,0,1,.6,3.136c-1.084,4.212-2.708,9.782,3.617,13.852s15.232-7.68,15.232-7.68l-4.421,14.015s-6.823,5.036-14.76-2.045-2.676-17.384-2.676-17.384S2455.889,1894.072,2458.579,1888.929Z" transform="translate(-2457.89 -1874.927)" fill="url(#linear-gradient-11)"/>
        <path id="Trazado_730645" data-name="Trazado 730645" d="M2715.814,1749.092s-1.832-8.219,7.583-6.044c0,0,4.57-.747,4.8,3.567,0,0,2.946,1.941.789,5.674,0,0,8.755-3.382,12.57,4.292s.308,11.9-3.368,13a3.661,3.661,0,0,1,1.569,4.872c-1.41,3.376-8.549,5.756-12.766,1.65,0,0-12,1.586-11.76-6.89,0,0-5.581-3.6.281-10.609S2715.814,1749.092,2715.814,1749.092Z" transform="translate(-2688.796 -1742.682)" fill="#2a486b"/>
        <path id="Trazado_730646" data-name="Trazado 730646" d="M2668.358,2007.869A12.915,12.915,0,0,1,2681,2011.09a3.244,3.244,0,0,1,.935,3.233c-1.407,5.181-5.12,20.489-1.865,27.113,0,0-5.738,6.325-12,1.227,0,0-2.808-12.24-6.487-17.614-2.54-3.71,4.05-13.931,5.717-16.4A1.953,1.953,0,0,1,2668.358,2007.869Z" transform="translate(-2641.857 -1982.407)" fill="#e39b40" stroke="#a4d2d3" stroke-width="3"/>
        <path id="Trazado_730647" data-name="Trazado 730647" d="M2758.374,1903.552s2.8,7.915,3.009,11.406a5.984,5.984,0,0,1-6.006-.967s-.306-7.905-.748-9.321Z" transform="translate(-2726.648 -1888.384)" fill="url(#linear-gradient-12)"/>
        <path id="Trazado_730648" data-name="Trazado 730648" d="M2711.463,1788.545s-7.319,10.242-2.944,13.217,9.584-4.3,9.584-4.3,1.7-5.606-.077-7.507S2711.463,1788.545,2711.463,1788.545Z" transform="translate(-2683.624 -1784.168)" fill="url(#linear-gradient-13)"/>
        <path id="Trazado_730649" data-name="Trazado 730649" d="M2751.949,1761.835s-3.362.8-3.833,2.318,4.768,2.932,6.236,3l1.183,6.139s3.5-5.775,2.111-9.11S2751.949,1761.835,2751.949,1761.835Z" transform="translate(-2720.724 -1759.905)" fill="#2a486b"/>
        <path id="Trazado_730650" data-name="Trazado 730650" d="M2808.515,1857.618s2.849-3.3,3.981-1.148-2.564,3.765-3.844,2.709Z" transform="translate(-2775.455 -1845.081)" fill="url(#linear-gradient-14)"/>
        <path id="Trazado_730651" data-name="Trazado 730651" d="M2643.234,2654.294c.021.555-.954,4.963-1.485,7.314a3.872,3.872,0,0,0,.417,2.778l18.388,30.948a4.226,4.226,0,0,1,.483,1.2,26.553,26.553,0,0,1,.671,8.25l-.951,1.976,4.114-.934.9-11.048-1.165-.71a5.535,5.535,0,0,1-2.238-2.62c-1.663-4.039-5.792-14.32-6.856-19.33-1.21-5.694-7.533-10.32-7.533-10.32l1.111-2.626Z" transform="translate(-2624.326 -2568.338)" fill="url(#linear-gradient-15)"/>
        <path id="Trazado_730652" data-name="Trazado 730652" d="M2841.055,3082.826s-2.221-3.522-2.483-4.894-.989-3.792-2.359-3.063a80.387,80.387,0,0,0-.423,9.263c.223,2.6-2.942,2.519-2.942,2.519a2.956,2.956,0,0,0-1.511.761.741.741,0,0,0,.5,1.246,17.814,17.814,0,0,0,4.407-.25,1.348,1.348,0,0,0,1.088-1.244l.456-7.665,2.8,3.539Z" transform="translate(-2795.938 -2949.136)" fill="#2a486b"/>
        <path id="Trazado_730653" data-name="Trazado 730653" d="M2738.166,2699.417s.648,27.683.736,31.615-.621,12.645-4.562,15.249l1.715,1.27a22.91,22.91,0,0,0,4.237-5.327,32.409,32.409,0,0,1,3.064-4.658l-.781-1.6a3.516,3.516,0,0,1-.285-2.254c.851-4.123,3.692-17.834,4.467-20.787a13.3,13.3,0,0,0-2.2-12.037C2741.372,2696.992,2738.166,2699.417,2738.166,2699.417Z" transform="translate(-2708.273 -2608.531)" fill="url(#linear-gradient-16)"/>
        <path id="Trazado_730654" data-name="Trazado 730654" d="M2723.243,3116.028a.242.242,0,0,0,.244-.208,35.767,35.767,0,0,1,1.124-5.581c.512-1.1,2.184-5.716,0-6.108,0,0-5.431,7.935-6.474,9a2.043,2.043,0,0,1-2.358.374,3.927,3.927,0,0,0-1.782,1.279.719.719,0,0,0,.567,1.156l3.658.035a2.573,2.573,0,0,0,2.413-1.622c.644-1.608,1.75-3.968,3.04-5.014l-.67,6.414A.244.244,0,0,0,2723.243,3116.028Z" transform="translate(-2689.711 -2975.761)" fill="#2a486b"/>
        <path id="Trazado_730655" data-name="Trazado 730655" d="M2646.7,2332.672s.824,2.628-.442,6.956l-7.856,27.435a.85.85,0,0,0,.531,1.034,52.415,52.415,0,0,0,20.621,2.5,1.2,1.2,0,0,0,1.091-.932c.695-3.128,3.066-13.8,3.554-15.991,1.86-8.355,3.937-17.365-5.2-22.813C2654.788,2332.664,2650.861,2333.727,2646.7,2332.672Z" transform="translate(-2621.351 -2275.401)" fill="#2a486b"/>
        <path id="Trazado_730656" data-name="Trazado 730656" d="M2809,2051.7s8.938,7.428,11.157,17.579-13.062,11.23-13.062,11.23-2.075-2.316-4.537-1.49-.191-4.043,2.69-4.03,1.547,2.291,5.623.445c3.971-1.8,6.425-7.361-3.706-15.793a4.583,4.583,0,0,1-1.338-1.822C2803.861,2052.861,2805.422,2049.614,2809,2051.7Z" transform="translate(-2769.111 -2021.979)" fill="url(#linear-gradient-17)"/>
      </g>
    </g>
  </g>
</svg>
