<svg xmlns="http://www.w3.org/2000/svg" width="276" height="170" viewBox="0 0 276 170">
  <g id="Grupo_1013476" data-name="Grupo 1013476" transform="translate(-312 -2595)">
    <rect id="medico-vista-posterior-arreglando-unfiorm-medico" width="276" height="170" rx="10" transform="translate(312 2595)" fill="#fff"/>
    <g id="Grupo_1012568" data-name="Grupo 1012568" transform="translate(290.5 2491.561)">
      <g id="Grupo_1012544" data-name="Grupo 1012544" transform="translate(81.381 134.356)">
        <rect id="Rectángulo_349724" data-name="Rectángulo 349724" width="137.256" height="103.575" transform="translate(0 5.244)" fill="#451fad"/>
        <rect id="Rectángulo_349725" data-name="Rectángulo 349725" width="132.698" height="97.082" transform="translate(2.279 9.549)" fill="#ebe8fa"/>
        <g id="Grupo_1012540" data-name="Grupo 1012540" transform="translate(10.636 30.58)">
          <rect id="Rectángulo_349726" data-name="Rectángulo 349726" width="11.598" height="2.495" rx="1.247" fill="#b6c3f4"/>
          <rect id="Rectángulo_349727" data-name="Rectángulo 349727" width="11.597" height="2.495" rx="1.247" transform="translate(17.398)" fill="#b6c3f4"/>
          <rect id="Rectángulo_349728" data-name="Rectángulo 349728" width="11.598" height="2.495" rx="1.247" transform="translate(34.795)" fill="#b6c3f4"/>
          <rect id="Rectángulo_349729" data-name="Rectángulo 349729" width="11.598" height="2.495" rx="1.247" transform="translate(52.193)" fill="#b6c3f4"/>
          <rect id="Rectángulo_349730" data-name="Rectángulo 349730" width="11.597" height="2.495" rx="1.247" transform="translate(69.591)" fill="#b6c3f4"/>
          <rect id="Rectángulo_349731" data-name="Rectángulo 349731" width="11.597" height="2.495" rx="1.247" transform="translate(86.988)" fill="#b6c3f4"/>
          <rect id="Rectángulo_349732" data-name="Rectángulo 349732" width="11.597" height="2.495" rx="1.247" transform="translate(104.386)" fill="#98abef" stroke="#98abef" stroke-miterlimit="10" stroke-width="0.25"/>
        </g>
        <rect id="Rectángulo_349733" data-name="Rectángulo 349733" width="132.698" height="17.952" transform="translate(2.279 7.017)" fill="#51aee6"/>
        <path id="Trazado_731385" data-name="Trazado 731385" d="M279.513,273.888l1.429,3.226,3.22.351-2.542,2.21.766,3.577-2.873-1.86-2.873,1.86.766-3.577-2.542-2.21,3.22-.351Z" transform="translate(-194.482 -222.588)" fill="#f7cb2d"/>
        <g id="Grupo_1012541" data-name="Grupo 1012541" transform="translate(25.667 36.154)">
          <line id="Línea_2905" data-name="Línea 2905" y2="66.545" fill="none" stroke="#98abef" stroke-miterlimit="10" stroke-width="0.5"/>
          <line id="Línea_2906" data-name="Línea 2906" y2="66.545" transform="translate(17.184)" fill="none" stroke="#98abef" stroke-miterlimit="10" stroke-width="0.5"/>
          <line id="Línea_2907" data-name="Línea 2907" y2="66.545" transform="translate(34.369)" fill="none" stroke="#98abef" stroke-miterlimit="10" stroke-width="0.5"/>
          <line id="Línea_2908" data-name="Línea 2908" y2="66.545" transform="translate(51.553)" fill="none" stroke="#98abef" stroke-miterlimit="10" stroke-width="0.5"/>
          <line id="Línea_2909" data-name="Línea 2909" y2="66.545" transform="translate(68.738 0.864)" fill="none" stroke="#98abef" stroke-miterlimit="10" stroke-width="0.5"/>
          <line id="Línea_2910" data-name="Línea 2910" y2="66.545" transform="translate(85.922 0.864)" fill="none" stroke="#98abef" stroke-miterlimit="10" stroke-width="0.5"/>
        </g>
        <g id="Grupo_1012542" data-name="Grupo 1012542" transform="translate(8.472 49.193)">
          <line id="Línea_2911" data-name="Línea 2911" x1="120.313" fill="none" stroke="#98abef" stroke-miterlimit="10" stroke-width="0.5"/>
          <line id="Línea_2912" data-name="Línea 2912" x1="120.313" transform="translate(0 13.777)" fill="none" stroke="#98abef" stroke-miterlimit="10" stroke-width="0.5"/>
          <line id="Línea_2913" data-name="Línea 2913" x1="120.313" transform="translate(0 27.554)" fill="none" stroke="#98abef" stroke-miterlimit="10" stroke-width="0.5"/>
          <line id="Línea_2914" data-name="Línea 2914" x1="120.313" transform="translate(0 41.331)" fill="none" stroke="#98abef" stroke-miterlimit="10" stroke-width="0.5"/>
        </g>
        <rect id="Rectángulo_349734" data-name="Rectángulo 349734" width="9.593" height="1.49" rx="0.745" transform="translate(10.538 53.649)" fill="#b6c3f4"/>
        <path id="Rectángulo_349735" data-name="Rectángulo 349735" d="M.745,0h8.1a.745.745,0,0,1,.745.745v0a.745.745,0,0,1-.745.745H.745A.745.745,0,0,1,0,.745v0A.745.745,0,0,1,.745,0Z" transform="translate(47.118 41.726)" fill="#b6c3f4"/>
        <rect id="Rectángulo_349736" data-name="Rectángulo 349736" width="9.449" height="0.718" rx="0.359" transform="translate(64.059 81.739)" fill="#b6c3f4"/>
        <rect id="Rectángulo_349737" data-name="Rectángulo 349737" width="9.449" height="0.718" rx="0.359" transform="translate(64.059 83.517)" fill="#b6c3f4"/>
        <rect id="Rectángulo_349738" data-name="Rectángulo 349738" width="9.449" height="0.718" rx="0.359" transform="translate(64.059 85.296)" fill="#b6c3f4"/>
        <rect id="Rectángulo_349739" data-name="Rectángulo 349739" width="7.027" height="0.708" rx="0.354" transform="translate(10.538 56.799)" fill="#b6c3f4"/>
        <g id="Grupo_1012543" data-name="Grupo 1012543" transform="translate(74.878 45.977)">
          <path id="Trazado_731386" data-name="Trazado 731386" d="M265.341,278.4c3.307,4.647,9.369,6.619,13.949,2.655,4.528-3.919,3.574-11.085.048-15.378-8.9-10.831-23.481,9.582-11.9,16.032a.51.51,0,0,0,.591-.811,9.8,9.8,0,0,1-1.083-12.229c2.7-4.08,8.054-5.89,11.391-1.544,2.72,3.545,3.639,9.352-.012,12.608-3.831,3.417-9.239,1.82-12.212-1.967-.353-.451-1.113.158-.774.633Z" transform="translate(-263.151 -262.561)" fill="#51aee6"/>
        </g>
        <path id="Trazado_731387" data-name="Trazado 731387" d="M141.62,189.616a2,2,0,1,0-2,2.117A2.061,2.061,0,0,0,141.62,189.616Z" transform="translate(-121.732 -176.795)" fill="#f2eafa"/>
        <path id="Trazado_731388" data-name="Trazado 731388" d="M158.115,189.616a2,2,0,1,0-2,2.117A2.061,2.061,0,0,0,158.115,189.616Z" transform="translate(-130.476 -176.795)" fill="#f2eafa"/>
        <path id="Rectángulo_349740" data-name="Rectángulo 349740" d="M1.255,0h0A1.255,1.255,0,0,1,2.51,1.255V12.807a1.255,1.255,0,0,1-1.255,1.255h0A1.255,1.255,0,0,1,0,12.807V1.255A1.255,1.255,0,0,1,1.255,0Z" transform="translate(16.606)" fill="#100c82"/>
        <path id="Rectángulo_349741" data-name="Rectángulo 349741" d="M1.255,0h0A1.255,1.255,0,0,1,2.51,1.255V12.807a1.255,1.255,0,0,1-1.255,1.255h0A1.255,1.255,0,0,1,0,12.807V1.255A1.255,1.255,0,0,1,1.255,0Z" transform="translate(24.385)" fill="#100c82"/>
        <path id="Trazado_731389" data-name="Trazado 731389" d="M341.076,189.616a2,2,0,1,0-2,2.117A2.061,2.061,0,0,0,341.076,189.616Z" transform="translate(-227.46 -176.795)" fill="#f2eafa"/>
        <path id="Trazado_731390" data-name="Trazado 731390" d="M357.572,189.616a2,2,0,1,0-2,2.117A2.061,2.061,0,0,0,357.572,189.616Z" transform="translate(-236.204 -176.795)" fill="#f2eafa"/>
        <path id="Rectángulo_349742" data-name="Rectángulo 349742" d="M1.255,0h0A1.255,1.255,0,0,1,2.51,1.255V12.807a1.255,1.255,0,0,1-1.255,1.255h0A1.255,1.255,0,0,1,0,12.807V1.255A1.255,1.255,0,0,1,1.255,0Z" transform="translate(110.334)" fill="#100c82"/>
        <path id="Rectángulo_349743" data-name="Rectángulo 349743" d="M1.255,0h0A1.255,1.255,0,0,1,2.51,1.255V12.807a1.255,1.255,0,0,1-1.255,1.255h0A1.255,1.255,0,0,1,0,12.807V1.255A1.255,1.255,0,0,1,1.255,0Z" transform="translate(118.113)" fill="#100c82"/>
        <rect id="Rectángulo_349744" data-name="Rectángulo 349744" width="6.753" height="6.753" transform="matrix(0.933, -0.359, 0.359, 0.933, 101.702, 81.514)" fill="#e39b40"/>
        <path id="Trazado_731391" data-name="Trazado 731391" d="M327.406,336.584a.38.38,0,1,0-.38.38A.38.38,0,0,0,327.406,336.584Z" transform="translate(-221.931 -255.621)" fill="#51aee6"/>
        <rect id="Rectángulo_349745" data-name="Rectángulo 349745" width="6.753" height="6.753" transform="translate(98.936 79.836) rotate(11.822)" fill="#f7cb2d"/>
        <path id="Trazado_731392" data-name="Trazado 731392" d="M320.579,337.392a.38.38,0,1,0-.38.38A.38.38,0,0,0,320.579,337.392Z" transform="translate(-218.313 -256.049)" fill="#51aee6"/>
      </g>
      <g id="Grupo_1012551" data-name="Grupo 1012551" transform="translate(86.798 195.428)">
        <path id="Trazado_731393" data-name="Trazado 731393" d="M145.108,427.183l-1.851.161-8.513,5.6,6.537-8.913,4.023,1.258Z" transform="translate(-125.624 -363.246)" fill="#100c82"/>
        <path id="Trazado_731394" data-name="Trazado 731394" d="M189.716,404.018s.242-3.661-5.406-4.3a43.88,43.88,0,0,0-12.132.773l2.867,5.617Z" transform="translate(-145.467 -350.274)" fill="#4e69d1"/>
        <path id="Trazado_731395" data-name="Trazado 731395" d="M150.785,435.116l-2.054.178-9.443,6.208,7.252-9.887L151,433.01Z" transform="translate(-128.033 -367.268)" fill="#100c82"/>
        <path id="Trazado_731396" data-name="Trazado 731396" d="M156.618,390.39l4.71,8.14s14.9-2.953,18.565,1.229-.727,10.982-11.621,12.887-15.652,2.378-15.652,2.378l-.787-3.991s-10.833.99-6.764-20.8C145.07,390.232,148.618,392.224,156.618,390.39Z" transform="translate(-130.613 -345.332)" fill="#6c88ef"/>
        <path id="Trazado_731397" data-name="Trazado 731397" d="M183.783,425.53a69.032,69.032,0,0,1-23.12,4.494" transform="translate(-139.363 -364.043)" fill="none" stroke="#4e69d1" stroke-miterlimit="10" stroke-width="0.5"/>
        <path id="Trazado_731398" data-name="Trazado 731398" d="M174.016,317.806a19.684,19.684,0,0,1-.953,1.981l.01,2.008-1.788.034-.405-2.5s.069-3-.007-4.843c-.042-1.028,2.132-2.506,3.444-3.046.78-.321-.256,1.331-1.468,2.243A22.711,22.711,0,0,0,174.016,317.806Z" transform="translate(-144.775 -303.545)" fill="#ff979c"/>
        <path id="Trazado_731399" data-name="Trazado 731399" d="M210.219,319.792a19.632,19.632,0,0,0,1.21,1.836l.259,1.992,1.777-.206.066-2.528s-.469-2.959-.643-4.8c-.1-1.024-2.448-2.2-3.821-2.557-.816-.214.432,1.284,1.755,2.026A22.689,22.689,0,0,1,210.219,319.792Z" transform="translate(-164.884 -304.661)" fill="#ff979c"/>
        <g id="Grupo_1012546" data-name="Grupo 1012546" transform="translate(27.662 0.101)">
          <rect id="Rectángulo_349746" data-name="Rectángulo 349746" width="18.425" height="15.415" transform="translate(1.018 0) rotate(3.787)" fill="#fff"/>
          <g id="Grupo_1012545" data-name="Grupo 1012545" transform="translate(4.274 4.089)">
            <path id="Trazado_731400" data-name="Trazado 731400" d="M187.818,303.619a4.238,4.238,0,1,1-4.509,3.949l4.229.28Z" transform="translate(-183.299 -303.61)" fill="#451fad"/>
            <path id="Trazado_731401" data-name="Trazado 731401" d="M191.611,306.855a4.238,4.238,0,1,1-5.241-2.907l1.167,4.074Z" transform="translate(-183.298 -303.784)" fill="#51aee6"/>
            <path id="Trazado_731402" data-name="Trazado 731402" d="M191.767,308.117a4.238,4.238,0,1,1-3.949-4.509l-.28,4.229Z" transform="translate(-183.299 -303.599)" fill="#f7cb2d"/>
          </g>
          <rect id="Rectángulo_349747" data-name="Rectángulo 349747" width="2.414" height="0.421" rx="0.21" transform="translate(15.97 3.572) rotate(3.787)" fill="#b6c3f4"/>
          <rect id="Rectángulo_349748" data-name="Rectángulo 349748" width="2.415" height="0.421" rx="0.21" transform="matrix(0.998, 0.066, -0.066, 0.998, 15.897, 4.678)" fill="#b6c3f4"/>
          <rect id="Rectángulo_349749" data-name="Rectángulo 349749" width="2.415" height="0.421" rx="0.21" transform="translate(15.821 5.829) rotate(3.788)" fill="#b6c3f4"/>
          <path id="Trazado_731403" data-name="Trazado 731403" d="M206.381,302.491a.32.32,0,1,0-.34.3A.32.32,0,0,0,206.381,302.491Z" transform="translate(-190.921 -298.742)" fill="#51aee6"/>
          <path id="Trazado_731404" data-name="Trazado 731404" d="M206.225,304.845a.319.319,0,1,0-.34.3A.319.319,0,0,0,206.225,304.845Z" transform="translate(-190.839 -299.99)" fill="#451fad"/>
          <path id="Trazado_731405" data-name="Trazado 731405" d="M206.063,307.294a.319.319,0,1,0-.34.3A.319.319,0,0,0,206.063,307.294Z" transform="translate(-190.753 -301.288)" fill="#f7cb2d"/>
        </g>
        <path id="Trazado_731406" data-name="Trazado 731406" d="M211.088,323.859a46.621,46.621,0,0,0-2.705-4.907c-.973-1.322.165-1.5,1.347-.47,1.465,1.281,2.278.907,2.278.907l.036,2.215Z" transform="translate(-164.464 -306.946)" fill="#ff979c"/>
        <path id="Trazado_731407" data-name="Trazado 731407" d="M173.935,322.847a46.62,46.62,0,0,1,2.023-5.225c.787-1.44-.365-1.467-1.4-.285-1.281,1.465-2.136,1.2-2.136,1.2l.261,2.2Z" transform="translate(-145.598 -306.244)" fill="#ff979c"/>
        <path id="Trazado_731408" data-name="Trazado 731408" d="M167.581,329.611s1.4,7.93-4.8,10.287l-3.209-3.424A7.99,7.99,0,0,0,164,329.908Z" transform="translate(-138.783 -313.198)" fill="#451fad"/>
        <path id="Trazado_731409" data-name="Trazado 731409" d="M123.26,299.353a3.253,3.253,0,0,0-4.04,2.3c-.457,1.721.419,3.593.177,5.375a8.284,8.284,0,0,1-2.206,3.964,6.53,6.53,0,0,0-1.854,4.144,3.325,3.325,0,0,0,2.291,3.139c.373.088.759.088,1.129.2,1.5.45,2.2,2.5,2.3,4.286s-.145,3.667.472,5.319a5.787,5.787,0,0,0,6.363,3.588c2.793-.551,4.967-3.241,7.746-3.871.94-.213,1.911-.179,2.861-.329a3.764,3.764,0,0,0,2.544-1.367,25.77,25.77,0,0,0,1.294-2.965c.677-1.241,1.9-1.952,2.653-3.131a5.276,5.276,0,0,0,.393-4.631c-.743-1.85-2.527-3.131-2.755-5.148a9.762,9.762,0,0,1,.781-3.794,10.979,10.979,0,0,0,.113-6.053,7.324,7.324,0,0,0-5.831-5.569c-2.37-.4-5.137.734-9.454-.045-2.819-.508-4.173,1.431-4.972,4.59" transform="translate(-115.336 -294.683)" fill="#9a6230"/>
        <path id="Trazado_731410" data-name="Trazado 731410" d="M144.89,325.771s-1.462-1.678-1.244-6.335c0,0,3.437-.772,3.57-3.461a32.322,32.322,0,0,0-.81-7.51s-.088-1.5-2.248-2.1-7.186.008-7.546,1.893a16.255,16.255,0,0,0,.306,4.987,2.264,2.264,0,0,0-2.705-.663c-1.669.724.323,6.185,3.079,3.529,0,0,2.612,7.515.265,8.044a4.587,4.587,0,0,0,5.78,3.518C148.265,326.692,144.89,325.771,144.89,325.771Z" transform="translate(-125.018 -300.756)" fill="#ff979c"/>
        <path id="Trazado_731411" data-name="Trazado 731411" d="M155.489,317.156a4.043,4.043,0,0,0,.841,1.547c.452.5.367.908-.445,1.358" transform="translate(-136.62 -306.595)" fill="none" stroke="#eb5772" stroke-linecap="round" stroke-miterlimit="10" stroke-width="0.4"/>
        <g id="Grupo_1012547" data-name="Grupo 1012547" transform="translate(16.398 10.471)">
          <path id="Trazado_731412" data-name="Trazado 731412" d="M150.55,316.98c.18.058.233.31.26.486a2.223,2.223,0,0,1,.03.64.254.254,0,0,1-.492.067c-.094-.234-.283-1.351.2-1.193Z" transform="translate(-150.231 -316.965)" fill="#4a31b2"/>
        </g>
        <g id="Grupo_1012548" data-name="Grupo 1012548" transform="translate(19.583 10.035)">
          <path id="Trazado_731413" data-name="Trazado 731413" d="M157.265,316.043c.2.05.266.255.312.456a2.16,2.16,0,0,1,.071.676.254.254,0,0,1-.492.067,2.115,2.115,0,0,1-.148-.73c-.007-.159.022-.527.256-.469Z" transform="translate(-157.008 -316.037)" fill="#4a31b2"/>
        </g>
        <path id="Trazado_731414" data-name="Trazado 731414" d="M135.713,321.831s1.367-.4,2.115,1.781" transform="translate(-126.137 -309.058)" fill="none" stroke="#eb5772" stroke-linecap="round" stroke-miterlimit="10" stroke-width="0.4"/>
        <path id="Trazado_731415" data-name="Trazado 731415" d="M136.07,323.789a1.6,1.6,0,0,1,1.416-.47" transform="translate(-126.327 -309.855)" fill="none" stroke="#eb5772" stroke-linecap="round" stroke-miterlimit="10" stroke-width="0.4"/>
        <path id="Trazado_731416" data-name="Trazado 731416" d="M152.892,324.995A4.291,4.291,0,0,1,150.51,324" transform="translate(-133.981 -310.224)" fill="none" stroke="#eb5772" stroke-linecap="round" stroke-miterlimit="10" stroke-width="0.4"/>
        <g id="Grupo_1012549" data-name="Grupo 1012549" transform="translate(14.779 8.221)">
          <path id="Trazado_731417" data-name="Trazado 731417" d="M147.063,313.431a2,2,0,0,1,1.795-.417.33.33,0,0,0,.253-.6,1.556,1.556,0,0,0-2.318.86.163.163,0,0,0,.27.157Z" transform="translate(-146.787 -312.178)" fill="#9a6230"/>
        </g>
        <g id="Grupo_1012550" data-name="Grupo 1012550" transform="translate(18.769 7.912)">
          <path id="Trazado_731418" data-name="Trazado 731418" d="M156.975,312.183a.952.952,0,0,0-1.61-.365.331.331,0,0,0,.32.549,1.756,1.756,0,0,1,1.092.014.163.163,0,0,0,.2-.2Z" transform="translate(-155.277 -311.52)" fill="#9a6230"/>
        </g>
        <path id="Trazado_731419" data-name="Trazado 731419" d="M150.129,301.688a3.243,3.243,0,0,1-1.69,2.789c-1.828.661-3.89-.477-5.622.405a4.518,4.518,0,0,0-2.406,4.094,7.075,7.075,0,0,1,.024,2.828,7.2,7.2,0,0,1-1.529-2.666l.508-6.678Z" transform="translate(-127.83 -298.396)" fill="#9a6230"/>
        <path id="Trazado_731420" data-name="Trazado 731420" d="M152.565,351.417a51.324,51.324,0,0,1-1.083,12.543s-7.461,2.887-11.548-.158c0,0-4.33-7.647-5.253-13.873C133.5,341.972,136.916,332.469,152.565,351.417Z" transform="translate(-125.477 -318.901)" fill="#451fad"/>
        <path id="Trazado_731421" data-name="Trazado 731421" d="M138.573,334.713a15.6,15.6,0,0,0,5.121.432,11.031,11.031,0,0,1,9.209,3.274c3.161,3.068,4.6,4,9.214,3.63,3.564-.289,7.363-4.109,8.989-10.829l3.4.225s-1.19,25.921-25.329,15.657c0,0-12.024,2.172-13.448.817S131.8,334.18,138.573,334.713Z" transform="translate(-125.269 -314.05)" fill="#451fad"/>
      </g>
      <g id="Grupo_1012557" data-name="Grupo 1012557" transform="translate(124.382 107.439)">
        <path id="Trazado_731422" data-name="Trazado 731422" d="M237.694,122.092a6.088,6.088,0,0,1-5.923-1.071,3.748,3.748,0,0,1-1.261-1.866,2.168,2.168,0,0,1,.542-2.11c.568-.521,1.452-.645,1.917-1.26.582-.77.22-1.85.078-2.8-.17-1.138.193-2.536,1.283-2.9.727-.243,1.555.055,2.278-.2s1.138-.977,1.625-1.565,1.289-1.105,1.973-.768a4.554,4.554,0,0,1,.753.625c.946.756,2.318.4,3.5.125s2.713-.259,3.26.822c.66,1.308-.746,3.085.113,4.272a3.907,3.907,0,0,0,.9.75c1.213.909,1.863,2.733,1.021,3.994-1.049,1.57-3.5,1.33-4.965,2.524" transform="translate(-213.932 -107.439)" fill="#100c82"/>
        <path id="Trazado_731423" data-name="Trazado 731423" d="M246.257,138.605s-.868-.73-.771-3.739c0,0,2.62,0,3.154-1.892s.534-6.26.485-8.928c0,0,.209-1.5-1.812-2.523s-7.116-1.407-7.844.388a16.417,16.417,0,0,0-.679,5,2.285,2.285,0,0,0-2.547-1.189c-1.8.388-.9,6.187,2.353,4.1,0,0,.875,7.726-1.553,7.789a5.049,5.049,0,0,0,5.263,4.849C247.377,142.458,246.257,138.605,246.257,138.605Z" transform="translate(-216.527 -114.448)" fill="#ff979c"/>
        <path id="Trazado_731424" data-name="Trazado 731424" d="M257.754,134.922a4.075,4.075,0,0,0,.529,1.7c.348.589.184.972-.709,1.257" transform="translate(-228.318 -122.007)" fill="none" stroke="#eb5772" stroke-linecap="round" stroke-miterlimit="10" stroke-width="0.4"/>
        <g id="Grupo_1012552" data-name="Grupo 1012552" transform="translate(26.869 12.381)">
          <path id="Trazado_731425" data-name="Trazado 731425" d="M252.945,133.822c.166.093.17.352.161.532a2.226,2.226,0,0,1-.1.639.256.256,0,0,1-.5-.03c-.047-.25-.015-1.393.435-1.141Z" transform="translate(-252.494 -133.786)" fill="#4a31b2"/>
        </g>
        <g id="Grupo_1012553" data-name="Grupo 1012553" transform="translate(30.122 12.573)">
          <path id="Trazado_731426" data-name="Trazado 731426" d="M259.794,134.212c.193.09.212.3.219.513a2.179,2.179,0,0,1-.063.684.256.256,0,0,1-.5-.031,2.138,2.138,0,0,1,0-.752c.024-.158.125-.517.346-.414Z" transform="translate(-259.416 -134.194)" fill="#4a31b2"/>
        </g>
        <path id="Trazado_731427" data-name="Trazado 731427" d="M237.674,133.585s1.432-.125,1.743,2.179" transform="translate(-217.769 -121.298)" fill="none" stroke="#eb5772" stroke-linecap="round" stroke-miterlimit="10" stroke-width="0.4"/>
        <path id="Trazado_731428" data-name="Trazado 731428" d="M237.542,135.785a1.612,1.612,0,0,1,1.494-.187" transform="translate(-217.699 -122.315)" fill="none" stroke="#eb5772" stroke-linecap="round" stroke-miterlimit="10" stroke-width="0.4"/>
        <g id="Grupo_1012554" data-name="Grupo 1012554" transform="translate(25.132 9.182)">
          <path id="Trazado_731429" data-name="Trazado 731429" d="M251.4,128.047c.166-.578-.472-.992-.966-1.057a1.7,1.7,0,0,0-1.6.874.271.271,0,0,0,.233.405c.395-.037.778-.16,1.177-.176a5.366,5.366,0,0,1,.892.157.276.276,0,0,0,.266-.2Z" transform="translate(-248.796 -126.978)" fill="#100c82"/>
        </g>
        <g id="Grupo_1012555" data-name="Grupo 1012555" transform="translate(29.867 9.699)">
          <path id="Trazado_731430" data-name="Trazado 731430" d="M259.019,128.935a3.32,3.32,0,0,0,.482.109,2.458,2.458,0,0,0,.634.2l-.2-.055c.177.078.51.355.661.088a.513.513,0,0,0-.021-.4,1.148,1.148,0,0,0-.252-.5.921.921,0,0,0-1.1-.192c-.2.106-.548.586-.2.751Z" transform="translate(-258.873 -128.078)" fill="#100c82"/>
        </g>
        <path id="Trazado_731431" data-name="Trazado 731431" d="M241.428,123.511a3.887,3.887,0,0,0,.568,1.531c1.16-1.129.162-3.423,1.341-4.533a2.445,2.445,0,0,1,1.63-.546,34.048,34.048,0,0,1,3.4.38,3.655,3.655,0,0,0,3.133-1.02.867.867,0,0,0,.228-.84,1,1,0,0,0-.466-.433,9.179,9.179,0,0,0-5.643-1.117,6.146,6.146,0,0,0-2.2.667,4.807,4.807,0,0,0-1.886,6.172" transform="translate(-219.567 -112.434)" fill="#100c82"/>
        <g id="Grupo_1012556" data-name="Grupo 1012556" transform="translate(25.87 15.579)">
          <path id="Trazado_731432" data-name="Trazado 731432" d="M252.221,140.962a1.125,1.125,0,0,0-1.245-.285,1.218,1.218,0,0,0-.476,1.575,2.366,2.366,0,0,0,1.976,1.407,1.838,1.838,0,0,0,1.729-.854.744.744,0,0,0-.473-1.176A1.871,1.871,0,0,1,252.221,140.962Z" transform="translate(-250.38 -140.592)" fill="#5b0c24"/>
          <path id="Trazado_731433" data-name="Trazado 731433" d="M252.4,144.3a2.232,2.232,0,0,1-1.919-1.36,1.3,1.3,0,0,1,.022-1.128,2.973,2.973,0,0,1,2.5,2.438A2.885,2.885,0,0,1,252.4,144.3Z" transform="translate(-250.366 -141.241)" fill="#ff757c"/>
        </g>
        <path id="Trazado_731434" data-name="Trazado 731434" d="M247.162,154.443l1.432-1.307s-1.805.062-4.047,0c-1.065-.03-2.476.119-2.2-2.244l-2.965.252-4.088,1.7a2.029,2.029,0,0,1-1.39.789c-.851.041-3.548,0-4.42.83s6.018,4.939,10.127,4.939S247.162,154.443,247.162,154.443Z" transform="translate(-213.386 -130.472)" fill="#ff979c"/>
        <path id="Trazado_731435" data-name="Trazado 731435" d="M211.335,156.6l-.983.292s-8.841,3.07-13.51,11.412,2.042,21.042,11.069,24.279l1.969-2.376s-7.622-6.4-6.439-14.805a11.979,11.979,0,0,1,8.467-10.148h21.666l2.366-8.156-5.416-1.432-9.431,5.347Z" transform="translate(-195.315 -133.004)" fill="#e39b40"/>
        <path id="Trazado_731436" data-name="Trazado 731436" d="M239.384,172.1s-2.154.207-3.66.477a5.017,5.017,0,0,0-2.483,1.68c-.332.5,2.158-.249,3.238-.913S238.72,173.258,239.384,172.1Z" transform="translate(-215.403 -141.712)" fill="#f0767b"/>
        <path id="Trazado_731437" data-name="Trazado 731437" d="M243.768,172.194s-3.113-.293-4.648-.376-3.044.534-6.267,2.2c0,0-.862.689.84.482a13.528,13.528,0,0,0,2.937-.686,2.478,2.478,0,0,0,2.227.228s3.127.81,4.373-.311l1.411-.083-.125-1.453Z" transform="translate(-215.097 -141.561)" fill="#ff979c"/>
        <path id="Trazado_731438" data-name="Trazado 731438" d="M270.24,155.667s15.917,2.034,21.728,8.011c0,0,1.743,1.826-4.815,1.992s-13.863-.415-13.863-.415l.747-3.32Z" transform="translate(-235.032 -133.004)" fill="#e39b40"/>
        <path id="Trazado_731439" data-name="Trazado 731439" d="M255.357,171.628v-2.374s12.618-2.216,20.919-1.82,12.452,4.987,1.909,4.828S255.357,171.628,255.357,171.628Z" transform="translate(-227.142 -139.215)" fill="#f7cb2d"/>
        <path id="Trazado_731440" data-name="Trazado 731440" d="M222.12,231.547a10.727,10.727,0,0,0,1.256,3.666c.917,1.358,1.528,1.29,1.935.713a.991.991,0,0,0,1.12-.679.821.821,0,0,0,.849-.815s1.426,1.833,2.376,2.851,1.528.374.713-.984-2.478-4.074-2.478-4.074.815-1.63-.068-2.376-3.734-.679-3.734-.679Z" transform="translate(-209.524 -171.966)" fill="#ff979c"/>
        <path id="Trazado_731441" data-name="Trazado 731441" d="M232.162,232.712c.543.611,1.007,1.237,1.007,1.237" transform="translate(-214.847 -173.844)" fill="none" stroke="#eb5772" stroke-linecap="round" stroke-miterlimit="10" stroke-width="0.4"/>
        <path id="Trazado_731442" data-name="Trazado 731442" d="M230.578,155.518s7.637,5.985,13.351-.428c0,0,1.166-.7,3.556.058a9.38,9.38,0,0,1-8.92,6.005c-8.45.277-11.252-4.722-11.252-4.722A4.246,4.246,0,0,1,230.578,155.518Z" transform="translate(-212.277 -132.542)" fill="#f7cb2d"/>
      </g>
      <g id="Grupo_1012563" data-name="Grupo 1012563" transform="translate(183.24 133.776)">
        <path id="Trazado_731443" data-name="Trazado 731443" d="M467.376,231.39l.854-1.062s1.037.832,3.86-1.445c.01-.074-.441-5.323-.211-5.227-.851-.355-3.427.33-4.255,1S467.376,231.39,467.376,231.39Z" transform="translate(-398.284 -195.329)" fill="#f59196"/>
        <path id="Trazado_731444" data-name="Trazado 731444" d="M472.858,233.09c.146.349-2.523,2.759-3.867,1.829l-.378-2.052a3.06,3.06,0,0,1,2.85-.483C473.113,232.939,472.858,233.09,472.858,233.09Z" transform="translate(-399.044 -199.921)" fill="#ff979c"/>
        <g id="Grupo_1012558" data-name="Grupo 1012558" transform="translate(68.896 20.238)">
          <path id="Trazado_731445" data-name="Trazado 731445" d="M468.915,208.115l-.114-1.058.89-.5.164,1.525Z" transform="translate(-468.04 -206.551)" fill="#51aee6"/>
          <path id="Trazado_731446" data-name="Trazado 731446" d="M469.4,209.27c-.342-.121-.33-.626-.33-.626l-.454.049-.26.028-.455.049s.118.491-.189.682c-.384.237-.6.506-.472,1.719.108,1,1.206.781,1.584.674.391.024,1.512.008,1.4-1C470.093,209.636,469.822,209.42,469.4,209.27Z" transform="translate(-467.19 -207.661)" fill="#100c82"/>
          <path id="Trazado_731447" data-name="Trazado 731447" d="M473.645,244.6a.876.876,0,1,0-.778.965A.877.877,0,0,0,473.645,244.6Z" transform="translate(-469.681 -226.306)" fill="#51aee6"/>
          <rect id="Rectángulo_349750" data-name="Rectángulo 349750" width="3.13" height="14.963" transform="translate(0 3.672) rotate(-6.133)" fill="#51aee6"/>
          <rect id="Rectángulo_349751" data-name="Rectángulo 349751" width="3.13" height="0.814" transform="translate(1.512 17.741) rotate(-6.133)" fill="#100c82"/>
          <rect id="Rectángulo_349752" data-name="Rectángulo 349752" width="3.13" height="0.814" transform="translate(0.085 4.401) rotate(-6.133)" fill="#100c82"/>
          <rect id="Rectángulo_349753" data-name="Rectángulo 349753" width="0.689" height="7.915" rx="0.344" transform="translate(1.306 8.795) rotate(-6.135)" fill="#100c82"/>
          <path id="Rectángulo_349754" data-name="Rectángulo 349754" d="M.219,0h0A.219.219,0,0,1,.438.219V7.982A.219.219,0,0,1,.219,8.2h0A.219.219,0,0,1,0,7.983V.219A.219.219,0,0,1,.219,0Z" transform="translate(2.459 8.382) rotate(-6.117)" fill="#100c82"/>
        </g>
        <path id="Trazado_731448" data-name="Trazado 731448" d="M465.623,229.93l-1.255,1.586-1.45-2.037.9-1.54s-.9-4.1.68-4.878c1.161-.568,1.738-.672,2.128-.923,1.194-.766,1.53.822-1.31,2.151C465.314,224.288,467.248,227.21,465.623,229.93Z" transform="translate(-396.025 -194.47)" fill="#ff979c"/>
        <path id="Trazado_731449" data-name="Trazado 731449" d="M473.033,228.349a1.133,1.133,0,0,0,.564-1.679s1.584-.576.448-1.686c0,0,1.115-.877-.139-1.492,0,0,.93-1.532-.786-1.568s-3.245.885-3.261,1.863c-.012.747,1.133-.016,3.14-.436,0,0-3.264.628-3.227,1.2.072,1.109,1.881.536,3.456.574,0,0-3.1-.032-3.011.7s3.164.888,3.164.888-2.754-.518-2.913-.194C470.1,227.278,473.033,228.349,473.033,228.349Z" transform="translate(-399.659 -194.461)" fill="#ffa6aa"/>
        <path id="Trazado_731450" data-name="Trazado 731450" d="M459.206,237.74l2.22-2.274a21.549,21.549,0,0,1,2.265,1.982l-1.553,2.189Z" transform="translate(-394.058 -201.641)" fill="#98abef"/>
        <path id="Trazado_731451" data-name="Trazado 731451" d="M400.8,221.4c.173.414,3.386,9.365,9.137,12.5,6.46,3.526,15.191,3.111,20.69-6.589a16,16,0,0,0-2.45-2.369s-5.893,4.448-11.027,2.614c-5.648-2.018-6.7-6.168-8.16-9.352-1.86-4.05-3.818-6.473-7.293-5.409-3.1.948-2.061,9.766-2.061,9.766" transform="translate(-362.392 -189.492)" fill="#6c88ef"/>
        <path id="Trazado_731452" data-name="Trazado 731452" d="M367.642,190.69s1.242-.286,1.146-3.246c0,0-2.578,0-3.1-1.862s-.525-6.159-.477-8.785c0,0-.205-1.48,1.783-2.483s7-1.384,7.718.382a16.157,16.157,0,0,1,.669,4.918,2.248,2.248,0,0,1,2.507-1.17c1.766.382.883,6.087-2.316,4.034,0,0-.812,6.923.859,7.926l-4.509,4.509Z" transform="translate(-344.22 -168.776)" fill="#ff9e9e"/>
        <path id="Trazado_731453" data-name="Trazado 731453" d="M372.157,168.176s-.48-4.683-4.1-4.691c-4.044-.009-3.648,2.888-6.793,2.948-6.371.123-3.063,7.841,2.108,3.545,1.477-1.227,5.013-2.005,7.018-.239v2.387s.048,1.862.812.907v1.384s-.043.713.291.713.215-1.157.215-1.157a3.455,3.455,0,0,1,1.352-.838,9.353,9.353,0,0,1,.673-1.474C374.985,169.373,373.016,167.806,372.157,168.176Z" transform="translate(-340.284 -163.485)" fill="#f7cb2d"/>
        <path id="Trazado_731454" data-name="Trazado 731454" d="M372.62,192.412A9.474,9.474,0,0,0,375.2,191" transform="translate(-348.16 -178.07)" fill="none" stroke="#eb5772" stroke-linecap="round" stroke-miterlimit="10" stroke-width="0.4"/>
        <path id="Trazado_731455" data-name="Trazado 731455" d="M371.087,185.329a4.017,4.017,0,0,1-.621,1.635c-.377.558-.239.943.621,1.277" transform="translate(-346.913 -175.064)" fill="none" stroke="#eb5772" stroke-linecap="round" stroke-miterlimit="10" stroke-width="0.4"/>
        <g id="Grupo_1012559" data-name="Grupo 1012559" transform="translate(26.09 9.874)">
          <path id="Trazado_731456" data-name="Trazado 731456" d="M376.28,184.526c-.169.081-.188.336-.19.513a2.191,2.191,0,0,0,.056.633.252.252,0,0,0,.493,0c.061-.243.1-1.367-.359-1.147Z" transform="translate(-376.089 -184.497)" fill="#4a31b2"/>
        </g>
        <g id="Grupo_1012560" data-name="Grupo 1012560" transform="translate(22.885 9.87)">
          <path id="Trazado_731457" data-name="Trazado 731457" d="M369.532,184.5c-.2.077-.227.287-.246.491a2.151,2.151,0,0,0,.021.675.252.252,0,0,0,.492,0,2.1,2.1,0,0,0,.048-.738c-.015-.157-.092-.516-.315-.428Z" transform="translate(-369.269 -184.488)" fill="#4a31b2"/>
        </g>
        <path id="Trazado_731458" data-name="Trazado 731458" d="M369.428,210.568l-2.82-.143.193,1.43-3.725,2.817-4.426-3.206.445-1.041-3.167.143s-5.955.287-8.2,1.242l1.624,11.907s1.35,18.408,2.066,24.28a12.935,12.935,0,0,0,7.3.051l-.028-3.712h8.057l-.008,3.688c3.987,1.146,7.462-5.514,7.462-5.514.716-5.873,1.8-19.283,1.8-19.283l1.623-11.417C375.383,210.854,369.428,210.568,369.428,210.568Z" transform="translate(-334.964 -188.367)" fill="#6c88ef"/>
        <path id="Trazado_731459" data-name="Trazado 731459" d="M344.125,283s1.011.725,2.578,1.826.9,4.118.716,5.622-.752,4.905-.967,5.836-.9.967-.752-.931.22-2.4.22-2.4-1.187,2.686-1.509,3.258-.967,0-.036-2.435l.931-2.435a36.692,36.692,0,0,1-3.187,2.005c-.859.394-.466-.716.322-1.468s2.005-1.673,2.005-1.673a15.613,15.613,0,0,1,.143-3.949l-1.719-1Z" transform="translate(-331.735 -226.839)" fill="#ff9e9e"/>
        <path id="Trazado_731460" data-name="Trazado 731460" d="M343.321,281.229l1.624,1.54a16.833,16.833,0,0,0-1.489,2.777l-3.352-2.163Z" transform="translate(-330.924 -225.899)" fill="#98abef"/>
        <path id="Trazado_731461" data-name="Trazado 731461" d="M375.9,213.815s-5.315.957,1.015,5.49c0,0,4.458-5.184.7-5.317l-.776,1.337Z" transform="translate(-348.794 -190.164)" fill="#e1d9e8"/>
        <path id="Trazado_731462" data-name="Trazado 731462" d="M380.213,222.248l-.308-1.882h-1.731l-.08,1.794Z" transform="translate(-351.062 -193.637)" fill="#b00e54"/>
        <path id="Trazado_731463" data-name="Trazado 731463" d="M379.227,214.573l-1.887-.066-.606,1.768.761,1.168h1.731l.761-1.168Z" transform="translate(-350.341 -190.531)" fill="#51aee6"/>
        <path id="Trazado_731464" data-name="Trazado 731464" d="M365.176,210.5s3.657,6.227,7.292,8.6c0,0,3.546-2.538,5.758-8.616a2.366,2.366,0,0,0-1.8,0,24.531,24.531,0,0,1-4.165,6.37,79.228,79.228,0,0,1-5.227-6.492A5.132,5.132,0,0,0,365.176,210.5Z" transform="translate(-344.214 -188.301)" fill="#98abef"/>
        <path id="Trazado_731465" data-name="Trazado 731465" d="M381.91,210.148l2.6-3.578s.728,1.492,1.683,1.73l-2.205,6.615Z" transform="translate(-353.084 -186.324)" fill="#f2eafa"/>
        <path id="Trazado_731466" data-name="Trazado 731466" d="M372.824,209.975l-2.6-3.4s-1.223,1.739-2.218,1.73l2.981,6.615Z" transform="translate(-345.714 -186.324)" fill="#f2eafa"/>
        <path id="Trazado_731467" data-name="Trazado 731467" d="M356.871,430.387a27.265,27.265,0,0,1,0,3.724c-.158,1.289-6.13,4.366-9.711,5.155,0,0,5.4-4.152,6.187-5.655a8.647,8.647,0,0,0,.859-3.223Z" transform="translate(-334.664 -304.965)" fill="#b00e54"/>
        <path id="Trazado_731468" data-name="Trazado 731468" d="M391.469,430.387a27.26,27.26,0,0,0,0,3.724c.158,1.289,6.13,4.366,9.711,5.155,0,0-5.4-4.152-6.187-5.655a8.642,8.642,0,0,1-.859-3.223Z" transform="translate(-358.114 -304.965)" fill="#b00e54"/>
        <path id="Trazado_731469" data-name="Trazado 731469" d="M377.757,281.493V278.7H354.43v2.793s.193,57.078,1.625,70.4c0,0,3.151.859,5.156,0,0,0,2.344-36.671,3.518-61.959h3c1.173,25.287,3.518,61.959,3.518,61.959,2.006.859,5.156,0,5.156,0C377.838,338.571,377.757,281.493,377.757,281.493Z" transform="translate(-338.518 -224.559)" fill="#100c82"/>
        <path id="Trazado_731470" data-name="Trazado 731470" d="M333.63,213.206c-2.31.781-9.118,5.733-11.81,12.657-2.89,7.434-1.191,17.3,9.48,22.524a12.354,12.354,0,0,1,1.665-3.215s-3.726-4.83-4.48-8.221c-1.059-4.768,1.06-10.463,6.572-11.76" transform="translate(-320.568 -189.841)" fill="#6c88ef"/>
        <g id="Grupo_1012561" data-name="Grupo 1012561" transform="translate(25.711 7.747)">
          <path id="Trazado_731471" data-name="Trazado 731471" d="M375.655,181.242c.3-.023.57-.161.87-.177s.607.1.916.066.608-.372.385-.671a1.314,1.314,0,0,0-1.318-.469,1.486,1.486,0,0,0-1.187.67c-.112.241.015.606.333.581Z" transform="translate(-375.282 -179.972)" fill="#f7cb2d"/>
        </g>
        <g id="Grupo_1012562" data-name="Grupo 1012562" transform="translate(22.12 8.291)">
          <path id="Trazado_731472" data-name="Trazado 731472" d="M369.041,182.031a2.417,2.417,0,0,1-.491-.666.494.494,0,0,0-.9.379,1.14,1.14,0,0,0,1.23.877.319.319,0,0,0,.16-.59Z" transform="translate(-367.639 -181.129)" fill="#f7cb2d"/>
        </g>
        <path id="Trazado_731473" data-name="Trazado 731473" d="M389.871,186.182s-1.409-.123-1.715,2.144" transform="translate(-356.395 -175.515)" fill="none" stroke="#eb5772" stroke-linecap="round" stroke-miterlimit="10" stroke-width="0.4"/>
        <path id="Trazado_731474" data-name="Trazado 731474" d="M390.277,188.347a1.585,1.585,0,0,0-1.47-.184" transform="translate(-356.74 -176.517)" fill="none" stroke="#eb5772" stroke-linecap="round" stroke-miterlimit="10" stroke-width="0.4"/>
        <path id="Trazado_731475" data-name="Trazado 731475" d="M378.6,281.727a.735.735,0,1,0-.735.735A.736.736,0,0,0,378.6,281.727Z" transform="translate(-350.551 -225.773)" fill="#f7cb2d"/>
        <path id="Trazado_731476" data-name="Trazado 731476" d="M354.057,274.735h23.706l-.2,1.863H354.232Z" transform="translate(-338.32 -222.457)" fill="#6c88ef"/>
      </g>
      <g id="Grupo_1012567" data-name="Grupo 1012567" transform="translate(61.5 219.93)">
        <g id="Grupo_1012564" data-name="Grupo 1012564" transform="translate(13.596 13.011)">
          <path id="Trazado_731477" data-name="Trazado 731477" d="M90.61,395.568s-2.51-11.542,11.352-21.057Z" transform="translate(-90.433 -374.511)" fill="#f7cb2d"/>
          <path id="Trazado_731478" data-name="Trazado 731478" d="M90.656,395.79s11.243-4.656,11.353-21.057Z" transform="translate(-90.551 -374.629)" fill="#e39b40"/>
        </g>
        <g id="Grupo_1012565" data-name="Grupo 1012565" transform="translate(0 13.011)">
          <path id="Trazado_731479" data-name="Trazado 731479" d="M72.852,395.568s2.51-11.542-11.352-21.057Z" transform="translate(-61.5 -374.511)" fill="#e39b40"/>
          <path id="Trazado_731480" data-name="Trazado 731480" d="M73.006,395.79s-11.242-4.656-11.352-21.057Z" transform="translate(-61.582 -374.629)" fill="#f7cb2d"/>
        </g>
        <g id="Grupo_1012566" data-name="Grupo 1012566" transform="translate(7.61)">
          <path id="Trazado_731481" data-name="Trazado 731481" d="M82.594,380.048s-11.024-12.778,0-33.224Z" transform="translate(-77.695 -346.824)" fill="#f7cb2d"/>
          <path id="Trazado_731482" data-name="Trazado 731482" d="M88.077,380.419s11.024-12.778,0-33.224Z" transform="translate(-83.198 -347.021)" fill="#e39b40"/>
        </g>
        <path id="Trazado_731483" data-name="Trazado 731483" d="M67.268,414.065H87.356s0,15.674-10.044,15.674S67.268,414.065,67.268,414.065Z" transform="translate(-64.558 -382.467)" fill="#100c82"/>
      </g>
    </g>
  </g>
</svg>
