<svg xmlns="http://www.w3.org/2000/svg" width="400" height="300" viewBox="0 0 400 300">
  <g id="Grupo_1013480" data-name="Grupo 1013480" transform="translate(-7100 5773)">
    <g id="Grupo_1012322" data-name="Grupo 1012322">
      <path id="Rectángulo_349629" data-name="Rectángulo 349629" d="M9,0H27a9,9,0,0,1,9,9V255A27,27,0,0,1,9,282H9a9,9,0,0,1-9-9V9A9,9,0,0,1,9,0Z" transform="translate(7464 -5755)" fill="#4db1f0"/>
      <rect id="ecologista-tomando-muestras-agua-tubo-ensayo-rio-ciudad-determinar-nivel-contaminacion-polucion" width="387" height="300" rx="20" transform="translate(7100 -5773)" fill="#fff"/>
    </g>
    <circle id="Elipse_8870" data-name="Elipse 8870" cx="4.5" cy="4.5" r="4.5" transform="translate(7491 -5773)" fill="#008b8a"/>
    <ellipse id="Elipse_8871" data-name="Elipse 8871" cx="10" cy="9.5" rx="10" ry="9.5" transform="translate(7476 -5750)" fill="#ffa031"/>
    <g id="Grupo_1012321" data-name="Grupo 1012321" transform="translate(7066.654 -5850.157)">
      <g id="Grupo_1012313" data-name="Grupo 1012313" transform="translate(84.912 103.491)">
        <g id="Grupo_1012311" data-name="Grupo 1012311" transform="translate(0 0)">
          <g id="Grupo_1012310" data-name="Grupo 1012310" style="isolation: isolate">
            <path id="Trazado_730657" data-name="Trazado 730657" d="M87.041,186.99c-.734.731-.651-1.382-1.013-.445a28.81,28.81,0,0,0-1.114,5.963,7.777,7.777,0,0,0,.845,3.107l76.952,152.049a8.816,8.816,0,0,0,2.135,2.729,8.437,8.437,0,0,0,2.868,1.614,8.07,8.07,0,0,0,6.429-.6l118.241-64.981,57.7-31.709a5.334,5.334,0,0,0,1.847-1.687,6.257,6.257,0,0,0,.955-2.356,7.659,7.659,0,0,0,.013-2.717,8.738,8.738,0,0,0-.983-2.775l-70.6-127.278a8.65,8.65,0,0,0-1.783-2.236,8.556,8.556,0,0,0-2.3-1.49,7.4,7.4,0,0,0-2.543-.621,5.93,5.93,0,0,0-2.491.381L159.031,158.166l-69.3,27.082A7.834,7.834,0,0,0,87.041,186.99Z" transform="translate(-84.912 -109.153)" fill="#37454f"/>
            <path id="Trazado_730658" data-name="Trazado 730658" d="M140.275,210.028a5.49,5.49,0,0,0-.358,2.258,5.892,5.892,0,0,0,.638,2.348L206.15,338.3a6.642,6.642,0,0,0,1.613,2.062,6.385,6.385,0,0,0,2.167,1.219,6.1,6.1,0,0,0,4.858-.453l147.747-79.8a4.044,4.044,0,0,0,1.4-1.275,4.742,4.742,0,0,0,.721-1.78,5.81,5.81,0,0,0,.011-2.053,6.615,6.615,0,0,0-.744-2.1l-56.8-104.041a6.561,6.561,0,0,0-3.087-2.815,5.6,5.6,0,0,0-1.921-.469,4.485,4.485,0,0,0-1.882.288L143.56,206.8a5.925,5.925,0,0,0-2.037,1.317A5.471,5.471,0,0,0,140.275,210.028Z" transform="translate(-115.874 -127.864)" fill="#f2f2f7"/>
            <g id="Grupo_1012244" data-name="Grupo 1012244" transform="translate(185.074 88.773)">
              <path id="Trazado_730659" data-name="Trazado 730659" d="M509.143,308.939a1.7,1.7,0,0,0,.336.335.747.747,0,0,0,.3.138.434.434,0,0,0,.26-.033.7.7,0,0,0,.153-.1.767.767,0,0,0,.137-.155.87.87,0,0,0,.106-.214,1.167,1.167,0,0,0,.063-.278l-1.075-1.982c-.072-.012-.142-.021-.211-.026a1.688,1.688,0,0,0-.2,0,1.092,1.092,0,0,0-.182.022.757.757,0,0,0-.162.052.445.445,0,0,0-.219.216.729.729,0,0,0-.059.361,1.845,1.845,0,0,0,.108.495,4.266,4.266,0,0,0,.278.615A3.845,3.845,0,0,0,509.143,308.939Z" transform="translate(-508.395 -306.62)" fill="#fff"/>
            </g>
            <g id="Grupo_1012245" data-name="Grupo 1012245" transform="translate(193.543 107.771)">
              <path id="Trazado_730660" data-name="Trazado 730660" d="M528.5,351.117a1.092,1.092,0,0,0-.324-.045,1.14,1.14,0,0,0-.34.057.706.706,0,0,0-.043.16,1.363,1.363,0,0,0-.015.194,1.454,1.454,0,0,0,.014.2,1.258,1.258,0,0,0,.038.181.8.8,0,0,1,.161.074,1.163,1.163,0,0,1,.191.14,1.549,1.549,0,0,1,.206.219,2.2,2.2,0,0,1,.2.309l1.542,2.845c.04-.011.082-.024.125-.039l.132-.048.133-.054.13-.06c.044-.022.087-.045.131-.069s.088-.049.128-.074.08-.05.117-.075.072-.049.1-.073l-1.478-2.723a1.822,1.822,0,0,1,.017-.277.938.938,0,0,1,.068-.245.674.674,0,0,1,.132-.2.728.728,0,0,1,.213-.154l.091-.035c.031-.012.062-.023.094-.033a.933.933,0,0,1,.1-.027.9.9,0,0,1,.1-.017,1.813,1.813,0,0,0-.029-.306,2.863,2.863,0,0,0-.075-.316c-.032-.1-.067-.2-.1-.294a2.521,2.521,0,0,0-.114-.242c-.041.007-.082.015-.12.024a1.149,1.149,0,0,0-.115.033c-.039.013-.078.028-.12.045s-.086.038-.134.06a1.063,1.063,0,0,0-.309.223.911.911,0,0,0-.184.29,1.189,1.189,0,0,0-.076.341,1.634,1.634,0,0,0,.013.376,1.785,1.785,0,0,0-.292-.226A1.294,1.294,0,0,0,528.5,351.117Z" transform="translate(-527.774 -350.09)"/>
            </g>
            <g id="Grupo_1012246" data-name="Grupo 1012246" transform="translate(176.219 92.816)">
              <path id="Trazado_730661" data-name="Trazado 730661" d="M488.536,317.661a5.121,5.121,0,0,0,.317.52,2.17,2.17,0,0,0,.346.4.887.887,0,0,0,.378.2.632.632,0,0,0,.413-.052.549.549,0,0,0,.285-.276.754.754,0,0,0,.046-.4,2.005,2.005,0,0,0-.134-.493,5.2,5.2,0,0,0-.26-.546,5.434,5.434,0,0,0-.316-.521,2.146,2.146,0,0,0-.347-.4.875.875,0,0,0-.375-.207.618.618,0,0,0-.408.049.57.57,0,0,0-.291.277.761.761,0,0,0-.048.4,2.017,2.017,0,0,0,.134.5A5.146,5.146,0,0,0,488.536,317.661Z" transform="translate(-488.134 -315.872)" fill="#fff"/>
            </g>
            <g id="Grupo_1012247" data-name="Grupo 1012247" transform="translate(175.118 91.858)">
              <path id="Trazado_730662" data-name="Trazado 730662" d="M486.075,316.915a5.412,5.412,0,0,0,.309.506,3.326,3.326,0,0,0,.344.419,2.483,2.483,0,0,0,.393.331,2.363,2.363,0,0,0,.455.241,1.884,1.884,0,0,0,.368.1,1.706,1.706,0,0,0,.365.019,1.8,1.8,0,0,0,.36-.057,2.084,2.084,0,0,0,.351-.129,2.043,2.043,0,0,0,.327-.19,1.583,1.583,0,0,0,.264-.236,1.436,1.436,0,0,0,.2-.284,1.514,1.514,0,0,0,.133-.333,2.041,2.041,0,0,0,.063-.484,2.351,2.351,0,0,0-.052-.489,3.192,3.192,0,0,0-.156-.505,5.266,5.266,0,0,0-.251-.53,5.147,5.147,0,0,0-.309-.5,3.249,3.249,0,0,0-.342-.42,2.506,2.506,0,0,0-.393-.333,2.3,2.3,0,0,0-.457-.242,1.8,1.8,0,0,0-.364-.095,1.754,1.754,0,0,0-.361-.018,1.87,1.87,0,0,0-.361.058,2.118,2.118,0,0,0-.359.13,2.052,2.052,0,0,0-.321.186,1.678,1.678,0,0,0-.265.233,1.445,1.445,0,0,0-.2.281,1.569,1.569,0,0,0-.138.328,2.041,2.041,0,0,0-.063.485,2.25,2.25,0,0,0,.051.493,3.217,3.217,0,0,0,.158.508A5.042,5.042,0,0,0,486.075,316.915Zm.7-1.936a.572.572,0,0,1,.291-.277.618.618,0,0,1,.408-.049.879.879,0,0,1,.375.206,2.151,2.151,0,0,1,.347.4,5.434,5.434,0,0,1,.316.521,5.189,5.189,0,0,1,.26.545,1.984,1.984,0,0,1,.134.493.752.752,0,0,1-.046.4.549.549,0,0,1-.285.276.627.627,0,0,1-.413.052.892.892,0,0,1-.378-.2,2.193,2.193,0,0,1-.346-.4,5.028,5.028,0,0,1-.317-.52,5.312,5.312,0,0,1-.261-.548,2.064,2.064,0,0,1-.134-.5A.763.763,0,0,1,486.771,314.979Z" transform="translate(-485.615 -313.68)"/>
            </g>
            <g id="Grupo_1012248" data-name="Grupo 1012248" transform="translate(169.149 92.339)">
              <path id="Trazado_730663" data-name="Trazado 730663" d="M473.364,316.425a1.3,1.3,0,0,1,.486-.373,2.22,2.22,0,0,1,.383-.135,2.571,2.571,0,0,1,.409-.068,2.78,2.78,0,0,1,.418,0,2.838,2.838,0,0,1,.414.06.976.976,0,0,0,.085-.224,1.345,1.345,0,0,0,.041-.27,1.4,1.4,0,0,0-.013-.288,1.159,1.159,0,0,0-.079-.28,3.56,3.56,0,0,0-.542-.062,3.727,3.727,0,0,0-.565.02,3.609,3.609,0,0,0-.57.108,3.557,3.557,0,0,0-.556.2,2.226,2.226,0,0,0-1.242,1.508,2.918,2.918,0,0,0-.026,1.214,4.871,4.871,0,0,0,.536,1.477,6,6,0,0,0,.783,1.142,3.485,3.485,0,0,0,.928.762,2.32,2.32,0,0,0,1.053.294,2.544,2.544,0,0,0,1.16-.26,6.371,6.371,0,0,0,.582-.312c.181-.11.348-.223.5-.337s.289-.228.412-.338.229-.216.321-.316L477.07,317.7a1.347,1.347,0,0,0-.2-.281.718.718,0,0,0-.245-.173.645.645,0,0,0-.3-.044,1.1,1.1,0,0,0-.368.107l-1.207.574a.923.923,0,0,0,.028.126c.011.044.024.089.04.134s.033.09.053.132a1.312,1.312,0,0,0,.059.123.9.9,0,0,0,.15.211.444.444,0,0,0,.174.109.436.436,0,0,0,.2.012.891.891,0,0,0,.237-.077l.532-.249.069.149c.022.048.048.1.072.144s.049.1.074.142.052.094.076.142l.411.762c-.05.042-.1.085-.161.128s-.118.084-.182.125-.13.083-.2.123-.147.079-.228.116a1.531,1.531,0,0,1-.669.157,1.359,1.359,0,0,1-.647-.176,2.291,2.291,0,0,1-.619-.522,4.873,4.873,0,0,1-.589-.881,4.789,4.789,0,0,1-.425-1.023,2.078,2.078,0,0,1-.074-.79A1.158,1.158,0,0,1,473.364,316.425Z" transform="translate(-471.956 -314.779)"/>
            </g>
            <g id="Grupo_1012249" data-name="Grupo 1012249" transform="translate(176.09 141.154)">
              <path id="Trazado_730664" data-name="Trazado 730664" d="M491.045,428.035l.134-.065.106-.053.373-.19a1.127,1.127,0,0,0,.239-.157.472.472,0,0,0,.128-.181.4.4,0,0,0,.017-.218.821.821,0,0,0-.1-.264c-.019-.037-.043-.076-.068-.115s-.048-.078-.075-.115-.055-.074-.08-.108-.052-.065-.077-.091l-3.807,1.938c.015.048.033.1.051.143s.038.093.059.137.039.086.058.125.038.076.056.11.039.073.062.111.045.078.071.118.052.082.081.123.059.082.09.122l.886-.452c.029-.014.064-.033.106-.055l.132-.072.135-.073.113-.059c.034.063.063.12.091.174l.082.159c.027.052.052.1.08.156s.056.11.088.17l2.358,4.4c.05-.015.1-.031.15-.051s.1-.038.146-.058.093-.041.137-.062l.122-.06c.04-.021.081-.043.124-.067s.087-.049.132-.077.09-.055.133-.086.087-.061.127-.094l-2.356-4.4c-.032-.06-.062-.115-.091-.167s-.057-.1-.084-.155-.057-.1-.086-.156-.058-.112-.089-.174l.106-.053Z" transform="translate(-487.839 -426.477)" fill="#fff"/>
            </g>
            <g id="Grupo_1012250" data-name="Grupo 1012250" transform="translate(137.519 108.051)">
              <path id="Trazado_730665" data-name="Trazado 730665" d="M399.618,352.935a1.041,1.041,0,0,0,.042.108c.014.035.031.07.046.1l.051.1c.02.038.04.074.06.109s.041.07.062.1l.069.1c.025.032.049.064.076.1l.626-.3L402,355.89a1.9,1.9,0,0,0,.316.449,1.032,1.032,0,0,0,.365.249.906.906,0,0,0,.416.053,1.456,1.456,0,0,0,.469-.139c.08-.038.164-.08.247-.125s.17-.091.252-.139.162-.1.238-.144.146-.094.212-.138a.336.336,0,0,0-.017-.064.548.548,0,0,0-.027-.067c-.01-.023-.021-.046-.032-.069s-.024-.045-.036-.068c-.025-.046-.052-.093-.082-.139s-.06-.093-.094-.138-.066-.087-.1-.128-.069-.078-.1-.112l-.51.24a.5.5,0,0,1-.178.049.32.32,0,0,1-.153-.028.452.452,0,0,1-.131-.1.816.816,0,0,1-.11-.163l-1.235-2.326,1.01-.448c-.011-.039-.023-.077-.035-.115s-.027-.074-.04-.111-.031-.073-.047-.109-.035-.074-.054-.111-.037-.066-.056-.1-.042-.064-.062-.1-.045-.063-.07-.094-.049-.062-.076-.094l-.992.483-.688-1.3-.086-.026-.414.193a.855.855,0,0,0-.256.167.388.388,0,0,0-.117.207.582.582,0,0,0,.015.265,1.763,1.763,0,0,0,.145.34l.337.635-.635.285A1.169,1.169,0,0,0,399.618,352.935Z" transform="translate(-399.582 -350.731)"/>
            </g>
            <g id="Grupo_1012251" data-name="Grupo 1012251" transform="translate(133.042 110.967)">
              <path id="Trazado_730666" data-name="Trazado 730666" d="M391.4,359.039a1.164,1.164,0,0,1,.168-.178.812.812,0,0,1,.181-.118.516.516,0,0,1,.234-.056.373.373,0,0,1,.2.068.8.8,0,0,1,.187.192,2.321,2.321,0,0,1,.19.312l1.1,2.069a1.657,1.657,0,0,0,.194.3.709.709,0,0,0,.217.178.5.5,0,0,0,.252.052.792.792,0,0,0,.3-.082,1.086,1.086,0,0,0,.186-.111,1.137,1.137,0,0,0,.156-.139.965.965,0,0,0,.123-.156.9.9,0,0,0,.083-.162,1.1,1.1,0,0,1-.176-.136,1.829,1.829,0,0,1-.161-.177c-.05-.066-.1-.136-.148-.211s-.091-.153-.134-.236l-1.027-1.934a2.929,2.929,0,0,0-.39-.574,1.788,1.788,0,0,0-.464-.381,1.17,1.17,0,0,0-.518-.151,1.207,1.207,0,0,0-.56.119,1.565,1.565,0,0,0-.329.205A1.71,1.71,0,0,0,391,358a2.07,2.07,0,0,0-.206.316,2.746,2.746,0,0,0-.158.35,1.189,1.189,0,0,0-.192-.191.67.67,0,0,0-.208-.111.555.555,0,0,0-.225-.025.715.715,0,0,0-.242.068l-.418.195-.016.085,2.329,4.4c.041-.011.085-.024.132-.039l.143-.05c.049-.018.1-.038.147-.058s.1-.041.143-.063.1-.046.143-.071l.137-.076c.045-.026.088-.052.127-.077l.112-.075-1.6-3.021a1.493,1.493,0,0,1,.106-.281A1.312,1.312,0,0,1,391.4,359.039Z" transform="translate(-389.338 -357.404)"/>
            </g>
            <g id="Grupo_1012252" data-name="Grupo 1012252" transform="translate(128.884 113.336)">
              <path id="Trazado_730667" data-name="Trazado 730667" d="M383.851,364.758c-.023-.068-.045-.134-.071-.2s-.057-.135-.091-.209-.073-.152-.12-.239a2.818,2.818,0,0,0-.507-.692,2.1,2.1,0,0,0-.646-.444,1.776,1.776,0,0,0-.747-.148,2,2,0,0,0-.808.2,1.861,1.861,0,0,0-.717.557,1.593,1.593,0,0,0-.3.759,2.449,2.449,0,0,0,.064.9,4.307,4.307,0,0,0,.386.985,4.755,4.755,0,0,0,.542.828,2.687,2.687,0,0,0,.682.6,1.741,1.741,0,0,0,.828.257,2.079,2.079,0,0,0,.979-.218,3.178,3.178,0,0,0,.422-.241,3.218,3.218,0,0,0,.375-.3,2.82,2.82,0,0,0,.313-.345,2.426,2.426,0,0,0,.232-.377,1.641,1.641,0,0,0-.136-.164,1.692,1.692,0,0,0-.166-.158,1.512,1.512,0,0,0-.185-.137,1.1,1.1,0,0,0-.194-.1c-.066.083-.134.166-.206.245a3.188,3.188,0,0,1-.228.226,2.584,2.584,0,0,1-.252.2,2.038,2.038,0,0,1-.286.163,1.029,1.029,0,0,1-.439.108.773.773,0,0,1-.373-.1,1.242,1.242,0,0,1-.319-.266,2.72,2.72,0,0,1-.28-.393l2.314-1.083C383.892,364.9,383.873,364.827,383.851,364.758Zm-2.7.479a2.626,2.626,0,0,1-.176-.478,1.135,1.135,0,0,1-.039-.392.592.592,0,0,1,.1-.3.645.645,0,0,1,.26-.208.724.724,0,0,1,.357-.072.716.716,0,0,1,.32.1,1.156,1.156,0,0,1,.279.243,1.939,1.939,0,0,1,.231.347l.056.107Z" transform="translate(-379.823 -362.825)"/>
            </g>
            <g id="Grupo_1012253" data-name="Grupo 1012253" transform="translate(124.423 113.276)">
              <path id="Trazado_730668" data-name="Trazado 730668" d="M373.164,369.255a.818.818,0,0,0,.4.063,1.356,1.356,0,0,0,.461-.134c.07-.033.139-.07.21-.108s.137-.079.2-.12.132-.082.19-.122.12-.079.172-.115c-.006-.02-.011-.041-.02-.063s-.017-.045-.027-.069a.707.707,0,0,0-.03-.071c-.012-.023-.024-.046-.034-.069-.026-.049-.055-.1-.085-.145s-.062-.094-.1-.138-.067-.087-.1-.126-.072-.076-.108-.11l-.261.123a.489.489,0,0,1-.176.049.321.321,0,0,1-.152-.027.411.411,0,0,1-.129-.1.812.812,0,0,1-.114-.168l-2.419-4.584a1.763,1.763,0,0,0-.207-.317.639.639,0,0,0-.219-.177.485.485,0,0,0-.252-.041.94.94,0,0,0-.3.091l-.424.2-.026.09,2.888,5.472a2.076,2.076,0,0,0,.31.458A1.024,1.024,0,0,0,373.164,369.255Z" transform="translate(-369.616 -362.687)"/>
            </g>
            <g id="Grupo_1012254" data-name="Grupo 1012254" transform="translate(144.243 133.571)">
              <path id="Trazado_730669" data-name="Trazado 730669" d="M416.57,409.928l-.057-.107a1.782,1.782,0,0,0-.232-.349,1.143,1.143,0,0,0-.279-.243.7.7,0,0,0-.318-.1.7.7,0,0,0-.353.077.642.642,0,0,0-.258.213.618.618,0,0,0-.1.307,1.174,1.174,0,0,0,.042.4,2.678,2.678,0,0,0,.179.481Z" transform="translate(-414.968 -409.127)" fill="#fff"/>
            </g>
            <g id="Grupo_1012255" data-name="Grupo 1012255" transform="translate(143.141 132.601)">
              <path id="Trazado_730670" data-name="Trazado 730670" d="M416.445,408.833c-.021-.068-.045-.134-.071-.2s-.056-.136-.089-.209-.076-.152-.122-.239a2.821,2.821,0,0,0-.508-.694,2.085,2.085,0,0,0-.646-.441,1.733,1.733,0,0,0-.742-.141,1.958,1.958,0,0,0-.8.207,1.853,1.853,0,0,0-.708.571,1.63,1.63,0,0,0-.3.77,2.532,2.532,0,0,0,.069.91,4.413,4.413,0,0,0,.389.989,4.894,4.894,0,0,0,.545.83,2.675,2.675,0,0,0,.681.6,1.709,1.709,0,0,0,.825.25,2.034,2.034,0,0,0,.972-.231,3.2,3.2,0,0,0,.417-.249,3.013,3.013,0,0,0,.371-.308,2.823,2.823,0,0,0,.306-.353,2.364,2.364,0,0,0,.228-.383,1.864,1.864,0,0,0-.135-.164,2.04,2.04,0,0,0-.166-.158,1.735,1.735,0,0,0-.185-.136,1.146,1.146,0,0,0-.2-.1c-.064.085-.132.169-.2.25s-.146.159-.224.232a2.509,2.509,0,0,1-.25.2,2.089,2.089,0,0,1-.282.168.993.993,0,0,1-.435.114.749.749,0,0,1-.371-.1,1.2,1.2,0,0,1-.319-.265,2.647,2.647,0,0,1-.282-.394l2.29-1.121C416.487,408.973,416.468,408.9,416.445,408.833Zm-2.673.519a2.7,2.7,0,0,1-.179-.481,1.176,1.176,0,0,1-.042-.4.621.621,0,0,1,.1-.307.655.655,0,0,1,.258-.213.7.7,0,0,1,.353-.077.7.7,0,0,1,.318.1,1.126,1.126,0,0,1,.279.243,1.758,1.758,0,0,1,.232.349l.057.107Z" transform="translate(-412.446 -406.906)"/>
            </g>
            <g id="Grupo_1012256" data-name="Grupo 1012256" transform="translate(138.283 134.424)">
              <path id="Trazado_730671" data-name="Trazado 730671" d="M404.569,411.364a1.564,1.564,0,0,0-.177-.127,1.519,1.519,0,0,0-.189-.1.889.889,0,0,0-.175-.058,1.273,1.273,0,0,0-.192.15,1.151,1.151,0,0,0-.145.172,1.028,1.028,0,0,0-.1.191,1.18,1.18,0,0,0-.053.211,1.9,1.9,0,0,0-.3-.069,1.74,1.74,0,0,0-.326-.017,1.723,1.723,0,0,0-.35.052,1.906,1.906,0,0,0-.37.136,1.459,1.459,0,0,0-.539.449,1.658,1.658,0,0,0-.291.7,2.46,2.46,0,0,0,.026.917,4.126,4.126,0,0,0,.409,1.1,5.285,5.285,0,0,0,.586.893,2.826,2.826,0,0,0,.663.593,1.567,1.567,0,0,0,.713.244,1.423,1.423,0,0,0,.74-.153,1.514,1.514,0,0,0,.273-.172,1.724,1.724,0,0,0,.226-.218,1.907,1.907,0,0,0,.18-.25,2.045,2.045,0,0,0,.137-.271l.185.35a2.055,2.055,0,0,1,.181.447,1.021,1.021,0,0,1,.028.413.749.749,0,0,1-.169.367,1.249,1.249,0,0,1-.411.3,2.329,2.329,0,0,1-.282.115,2.853,2.853,0,0,1-.319.089,3,3,0,0,1-.337.056,2.729,2.729,0,0,1-.341.017,1.04,1.04,0,0,0-.014.234,1.752,1.752,0,0,0,.029.266,2.05,2.05,0,0,0,.068.266,1.541,1.541,0,0,0,.1.236,3.534,3.534,0,0,0,.4-.042c.139-.022.284-.052.428-.09s.291-.083.434-.135a4.368,4.368,0,0,0,.413-.175,2.791,2.791,0,0,0,.44-.27,2.158,2.158,0,0,0,.342-.323,1.73,1.73,0,0,0,.24-.367,1.445,1.445,0,0,0,.124-.4,1.851,1.851,0,0,0,.012-.392,2.452,2.452,0,0,0-.088-.473,4.7,4.7,0,0,0-.215-.6c-.1-.226-.219-.48-.373-.77l-1.326-2.5a2.362,2.362,0,0,1-.106-.236,1.571,1.571,0,0,1-.066-.229.95.95,0,0,1-.02-.211.545.545,0,0,1,.034-.183A.934.934,0,0,0,404.569,411.364Zm.235,3.414a1.479,1.479,0,0,1-.082.26,1.2,1.2,0,0,1-.124.224,1.032,1.032,0,0,1-.159.181.916.916,0,0,1-.194.13.473.473,0,0,1-.284.042.779.779,0,0,1-.324-.144,1.81,1.81,0,0,1-.353-.354,4.1,4.1,0,0,1-.373-.59,4.278,4.278,0,0,1-.286-.654,1.9,1.9,0,0,1-.1-.528.787.787,0,0,1,.076-.389.541.541,0,0,1,.252-.243.674.674,0,0,1,.173-.056.993.993,0,0,1,.208-.015,1.555,1.555,0,0,1,.236.027,2.028,2.028,0,0,1,.258.069l.033.062Z" transform="translate(-401.329 -411.079)"/>
            </g>
            <g id="Grupo_1012257" data-name="Grupo 1012257" transform="translate(139.476 135.988)">
              <path id="Trazado_730672" data-name="Trazado 730672" d="M404.821,417.131a1.825,1.825,0,0,0,.353.354.768.768,0,0,0,.324.143.471.471,0,0,0,.284-.042.89.89,0,0,0,.193-.13,1,1,0,0,0,.16-.181,1.142,1.142,0,0,0,.124-.224,1.554,1.554,0,0,0,.082-.26l-1.044-1.977-.033-.062a2.053,2.053,0,0,0-.258-.069,1.454,1.454,0,0,0-.236-.027.968.968,0,0,0-.208.014.673.673,0,0,0-.174.056.542.542,0,0,0-.251.242.788.788,0,0,0-.076.39,1.867,1.867,0,0,0,.1.527,4.28,4.28,0,0,0,.286.655A4.1,4.1,0,0,0,404.821,417.131Z" transform="translate(-404.059 -414.656)" fill="#fff"/>
            </g>
            <g id="Grupo_1012258" data-name="Grupo 1012258" transform="translate(121.506 114.626)">
              <path id="Trazado_730673" data-name="Trazado 730673" d="M366.494,372.363a.824.824,0,0,0,.4.062,1.352,1.352,0,0,0,.461-.134c.071-.033.142-.07.211-.108s.139-.08.206-.121.132-.083.192-.123.118-.079.171-.115c-.006-.02-.012-.041-.02-.063s-.017-.045-.026-.069-.021-.047-.031-.07-.024-.047-.034-.069c-.027-.05-.055-.1-.085-.146s-.062-.094-.1-.139-.068-.087-.1-.127-.072-.076-.107-.11l-.264.123a.506.506,0,0,1-.176.05.312.312,0,0,1-.152-.027.427.427,0,0,1-.132-.1.9.9,0,0,1-.113-.169l-2.422-4.6a1.8,1.8,0,0,0-.206-.318.661.661,0,0,0-.22-.177.475.475,0,0,0-.253-.041.925.925,0,0,0-.3.091l-.424.2-.027.09,2.89,5.486a2.194,2.194,0,0,0,.311.459A1.034,1.034,0,0,0,366.494,372.363Z" transform="translate(-362.941 -365.776)"/>
            </g>
            <g id="Grupo_1012259" data-name="Grupo 1012259" transform="translate(119.519 119.171)">
              <path id="Trazado_730674" data-name="Trazado 730674" d="M360.03,376.985l-.056-.108a1.95,1.95,0,0,0-.233-.35,1.166,1.166,0,0,0-.281-.246.727.727,0,0,0-.325-.1.751.751,0,0,0-.362.075.666.666,0,0,0-.265.21.606.606,0,0,0-.109.306,1.123,1.123,0,0,0,.038.4,2.644,2.644,0,0,0,.177.483Z" transform="translate(-358.393 -376.176)" fill="#fff"/>
            </g>
            <g id="Grupo_1012260" data-name="Grupo 1012260" transform="translate(118.392 118.201)">
              <path id="Trazado_730675" data-name="Trazado 730675" d="M359.9,375.906c-.023-.07-.045-.136-.073-.2s-.056-.137-.09-.211-.075-.153-.121-.241a2.835,2.835,0,0,0-.511-.7,2.146,2.146,0,0,0-.653-.446,1.8,1.8,0,0,0-.757-.148,2.055,2.055,0,0,0-.82.2,1.91,1.91,0,0,0-.732.565,1.624,1.624,0,0,0-.312.768,2.487,2.487,0,0,0,.06.912,4.353,4.353,0,0,0,.386.995,4.946,4.946,0,0,0,.545.835,2.729,2.729,0,0,0,.689.61,1.763,1.763,0,0,0,.839.257,2.12,2.12,0,0,0,.995-.223,3.236,3.236,0,0,0,.813-.549,2.946,2.946,0,0,0,.318-.35,2.439,2.439,0,0,0,.237-.382,1.761,1.761,0,0,0-.137-.166,1.826,1.826,0,0,0-.168-.16,1.589,1.589,0,0,0-.186-.137,1.088,1.088,0,0,0-.2-.1c-.067.084-.137.168-.21.248a2.948,2.948,0,0,1-.232.23,2.414,2.414,0,0,1-.257.2,2.276,2.276,0,0,1-.29.166,1.058,1.058,0,0,1-.447.11.782.782,0,0,1-.378-.1,1.239,1.239,0,0,1-.323-.268,2.7,2.7,0,0,1-.281-.4l2.355-1.1C359.943,376.046,359.922,375.974,359.9,375.906Zm-2.741.492a2.626,2.626,0,0,1-.177-.482,1.125,1.125,0,0,1-.038-.4.6.6,0,0,1,.109-.305.663.663,0,0,1,.265-.211.739.739,0,0,1,.362-.074.72.72,0,0,1,.325.1,1.165,1.165,0,0,1,.281.246,1.9,1.9,0,0,1,.233.351l.056.107Z" transform="translate(-355.815 -373.957)"/>
            </g>
            <g id="Grupo_1012261" data-name="Grupo 1012261" transform="translate(113.973 120.252)">
              <path id="Trazado_730676" data-name="Trazado 730676" d="M347.207,379.749a.666.666,0,0,1,.367-.069.623.623,0,0,1,.313.139,1.384,1.384,0,0,1,.273.305,3.68,3.68,0,0,1,.252.434c.039-.007.077-.016.115-.026s.075-.022.113-.036.077-.029.118-.047.087-.038.133-.059a.709.709,0,0,0,.214-.147.491.491,0,0,0,.115-.2.528.528,0,0,0,.012-.242.878.878,0,0,0-.1-.279,1.593,1.593,0,0,0-.4-.49,1.632,1.632,0,0,0-.558-.305,1.759,1.759,0,0,0-.671-.075,2.126,2.126,0,0,0-.738.2,1.881,1.881,0,0,0-.615.449,1.724,1.724,0,0,0-.38.7,2.185,2.185,0,0,0-.037.939,3.911,3.911,0,0,0,.415,1.175,4.365,4.365,0,0,0,.6.883,2.69,2.69,0,0,0,.732.585,1.858,1.858,0,0,0,.83.224,1.991,1.991,0,0,0,.9-.2,2.285,2.285,0,0,0,.432-.264,2.389,2.389,0,0,0,.361-.34,2.351,2.351,0,0,0,.276-.4,2.123,2.123,0,0,0,.181-.43,1.212,1.212,0,0,0-.165-.162,1.805,1.805,0,0,0-.208-.144,1.6,1.6,0,0,0-.219-.109.892.892,0,0,0-.2-.057c-.043.087-.091.176-.143.261a2.068,2.068,0,0,1-.175.247,1.5,1.5,0,0,1-.211.213,1.181,1.181,0,0,1-.25.16.92.92,0,0,1-.406.095.8.8,0,0,1-.4-.12,1.551,1.551,0,0,1-.393-.36,3.886,3.886,0,0,1-.4-.624,5.411,5.411,0,0,1-.309-.687,1.994,1.994,0,0,1-.12-.527.714.714,0,0,1,.069-.377A.544.544,0,0,1,347.207,379.749Z" transform="translate(-345.703 -378.649)"/>
            </g>
            <g id="Grupo_1012262" data-name="Grupo 1012262" transform="translate(108.799 121.877)">
              <path id="Trazado_730677" data-name="Trazado 730677" d="M337.459,382.368c-.047.008-.095.017-.144.028s-.1.022-.149.037-.1.031-.153.05-.1.041-.158.066-.079.038-.118.059l-.114.066c-.035.023-.071.046-.1.07a.909.909,0,0,0-.086.07l-.074,1.566-1.1-.672a1.751,1.751,0,0,0-.2-.11.739.739,0,0,0-.184-.059.563.563,0,0,0-.186,0,.77.77,0,0,0-.2.065,1.144,1.144,0,0,0-.181.1,1.432,1.432,0,0,0-.171.143,1.5,1.5,0,0,0-.153.177,1.475,1.475,0,0,0-.127.207l2.3,1.438-.2,2.818.073.057a1.141,1.141,0,0,0,.156-.015c.053-.009.106-.022.16-.037s.109-.034.163-.055.108-.044.163-.069.087-.042.128-.064.08-.045.118-.069.071-.047.1-.07a.761.761,0,0,0,.083-.068l.065-1.794,1.3.8a1.316,1.316,0,0,0,.2.1.747.747,0,0,0,.188.049.629.629,0,0,0,.189-.007.8.8,0,0,0,.2-.066,1.2,1.2,0,0,0,.191-.113,1.548,1.548,0,0,0,.173-.15,1.633,1.633,0,0,0,.277-.365L337.352,385l.18-2.55Z" transform="translate(-333.864 -382.368)"/>
            </g>
            <g id="Grupo_1012263" data-name="Grupo 1012263" transform="translate(120.006 142.864)">
              <path id="Trazado_730678" data-name="Trazado 730678" d="M363.385,434.871a.06.06,0,0,1-.027-.014.307.307,0,0,1-.035-.036c-.051-.062-.11-.14-.178-.226s-.144-.183-.224-.281-.162-.2-.246-.3-.167-.195-.248-.282l-1.455-1.619a1.111,1.111,0,0,0-.219-.208.639.639,0,0,0-.22-.1.59.59,0,0,0-.23-.006.906.906,0,0,0-.244.083,1.16,1.16,0,0,0-.143.084,1.707,1.707,0,0,0-.143.112,1.811,1.811,0,0,0-.136.135,1.709,1.709,0,0,0-.126.153l3.15,3.343a1.616,1.616,0,0,0,.288.25.684.684,0,0,0,.263.106.654.654,0,0,0,.265-.017,1.513,1.513,0,0,0,.3-.116c.073-.035.143-.072.213-.11s.142-.076.211-.116.137-.08.2-.12.126-.08.184-.121c-.054-.295-.127-.661-.21-1.069s-.177-.857-.276-1.317-.2-.932-.3-1.384-.194-.886-.281-1.27l-.064-.038a1.408,1.408,0,0,0-.155.024c-.052.011-.105.025-.159.042s-.1.035-.158.056-.1.043-.152.067l-.1.053c-.034.018-.067.037-.1.057s-.065.041-.1.064-.061.047-.092.073l1.008,4.026-.033.015A.063.063,0,0,1,363.385,434.871Z" transform="translate(-359.509 -430.39)"/>
            </g>
            <g id="Grupo_1012264" data-name="Grupo 1012264" transform="translate(102.978 122.405)">
              <path id="Trazado_730679" data-name="Trazado 730679" d="M324.7,384.627a1.5,1.5,0,0,0-.033-.161c-.014-.055-.03-.109-.047-.161s-.035-.1-.054-.147a.941.941,0,0,0-.055-.12c-.017-.034-.036-.069-.058-.106s-.043-.074-.068-.113-.05-.079-.078-.119-.059-.081-.09-.122l-3.646,1.69-.028.092,2.848,5.454a1.112,1.112,0,0,0,.207.285.759.759,0,0,0,.253.167.653.653,0,0,0,.286.045.854.854,0,0,0,.309-.083l2.452-1.152a1.074,1.074,0,0,0,.269-.173.667.667,0,0,0,.164-.215.606.606,0,0,0,.061-.255.872.872,0,0,0-.05-.291c-.014-.042-.03-.085-.048-.128s-.036-.086-.056-.126-.037-.079-.055-.114l-.048-.09-2.135,1-.168.081-.153.078c-.05.025-.1.05-.143.074l-.137.072c-.027-.052-.053-.1-.077-.149s-.045-.094-.069-.139-.044-.09-.067-.137l-.074-.144-.564-1.079.568-.265,1.475-.689a1.114,1.114,0,0,0-.032-.139c-.014-.048-.03-.1-.048-.143s-.037-.092-.055-.135-.039-.081-.057-.115-.039-.073-.062-.112-.051-.082-.08-.124-.058-.083-.09-.123-.065-.076-.1-.108l-1.475.687-.108.051-.139.066-.155.076c-.054.027-.108.054-.161.082l-.49-.937c-.031-.059-.06-.113-.087-.164s-.054-.1-.081-.148-.053-.1-.082-.148l-.087-.164.578-.268Z" transform="translate(-320.545 -383.577)"/>
            </g>
            <g id="Grupo_1012265" data-name="Grupo 1012265" transform="translate(116.622 145.647)">
              <path id="Trazado_730680" data-name="Trazado 730680" d="M352.1,438.12c.033.145.065.282.09.4l.269,1.331.1-.05.106-.056.1-.053.08-.041.749-.365.073-.034.094-.042.1-.046.1-.047-.749-.808-.338-.364-.363-.4c-.123-.135-.246-.272-.363-.4s-.232-.263-.336-.385l-.052.025c.042.128.079.27.118.42s.078.306.114.461S352.069,437.974,352.1,438.12Z" transform="translate(-351.764 -436.759)" fill="#fff"/>
            </g>
            <g id="Grupo_1012266" data-name="Grupo 1012266" transform="translate(115.435 144.155)">
              <path id="Trazado_730681" data-name="Trazado 730681" d="M351.392,438.939l.11-.053.083-.041,1.218-.6.083-.043.11-.058.117-.062.109-.055.679.715a2.112,2.112,0,0,0,.285.268.767.767,0,0,0,.25.132.533.533,0,0,0,.243.012.955.955,0,0,0,.26-.091,1.773,1.773,0,0,0,.172-.1,1.792,1.792,0,0,0,.164-.119,1.3,1.3,0,0,0,.142-.132.839.839,0,0,0,.107-.137l-5.123-5.239c-.052.013-.108.031-.169.052s-.125.045-.188.07-.125.051-.184.076l-.158.073c-.049.024-.1.052-.162.083s-.117.063-.174.1-.116.067-.169.1-.105.066-.15.1l1.287,7.133.078.043a1.048,1.048,0,0,0,.139-.023,1.577,1.577,0,0,0,.156-.044c.054-.017.107-.037.159-.059s.1-.044.147-.066.09-.045.135-.069.085-.047.127-.071.08-.049.116-.075a1.073,1.073,0,0,0,.1-.08l-.34-1.635.116-.05C351.313,438.977,351.353,438.958,351.392,438.939Zm-.252-1.115-.106.056-.1.05-.269-1.331c-.026-.12-.058-.256-.09-.4s-.068-.3-.105-.455-.075-.312-.114-.461-.077-.292-.118-.419l.052-.025c.105.122.218.251.336.384s.24.27.363.4l.364.4c.118.129.232.251.337.364l.749.808-.1.046-.1.047-.094.042-.073.035-.749.365-.08.041Z" transform="translate(-349.049 -433.345)"/>
            </g>
            <g id="Grupo_1012267" data-name="Grupo 1012267" transform="translate(87.357 124.578)">
              <path id="Trazado_730682" data-name="Trazado 730682" d="M291.847,388.548l-7.045,3.246,1.23.705,5.656-2.612Z" transform="translate(-284.802 -388.548)"/>
            </g>
            <g id="Grupo_1012268" data-name="Grupo 1012268" transform="translate(85.22 118.512)">
              <path id="Trazado_730683" data-name="Trazado 730683" d="M290.138,391.131l1.143-9.683.215-1.819.535-4.532-2.212-.427-.726,6.066-.159,1.34-.655,5.481-5-2.869-1.23-.705-1.1-.633-1.035,1.927,1.308.749,1.767,1.012Z" transform="translate(-279.912 -374.668)" fill="#d62940"/>
            </g>
            <g id="Grupo_1012269" data-name="Grupo 1012269" transform="translate(88.295 125.291)">
              <path id="Trazado_730684" data-name="Trazado 730684" d="M295.242,390.18l-1.142,9.684-7.152-4.1,3.923,7.566,9.01-4.245Z" transform="translate(-286.948 -390.18)" fill="#fff"/>
            </g>
            <g id="Grupo_1012270" data-name="Grupo 1012270" transform="translate(86.529 123.451)">
              <path id="Trazado_730685" data-name="Trazado 730685" d="M284.673,393.4l-1.766-1.012,5.223,10.077,10.987-5.187-5.892-11.306-.043.02-.215,1.819,4.64,8.909-9.01,4.245Z" transform="translate(-282.907 -385.97)"/>
            </g>
            <g id="Grupo_1012271" data-name="Grupo 1012271" transform="translate(156.26 48.881)">
              <path id="Trazado_730686" data-name="Trazado 730686" d="M451.673,224.829c-.226-.246-.455-.489-.682-.724s-.454-.465-.677-.684-.438-.428-.646-.625L446.3,219.74a4.982,4.982,0,0,0-.6-.48,2.18,2.18,0,0,0-.557-.274,1.451,1.451,0,0,0-.55-.062,1.881,1.881,0,0,0-.586.153,2.918,2.918,0,0,0-.447.238,3.251,3.251,0,0,0-.407.313,3.759,3.759,0,0,0-.364.377,4.216,4.216,0,0,0-.316.43l10.055,8.883,2.805,5.176c.127-.027.264-.062.4-.1s.28-.089.417-.139.269-.1.39-.149.232-.1.325-.136c.109-.049.227-.1.347-.161s.245-.121.367-.186.244-.135.361-.206.228-.145.329-.22l-2.748-5.066-1.681-12.648-.213-.139c-.122.009-.25.024-.379.047s-.263.051-.4.085-.266.074-.4.118-.262.094-.388.148c-.1.041-.2.085-.3.132s-.2.1-.293.148-.191.107-.282.166-.182.121-.267.186l.807,5.427c.039.26.086.549.138.854s.11.627.173.953.132.656.2.979.148.639.226.935l-.132.057C452.123,225.324,451.9,225.075,451.673,224.829Z" transform="translate(-442.464 -215.34)" fill="#fff"/>
            </g>
            <g id="Grupo_1012272" data-name="Grupo 1012272" transform="translate(183.97 85.49)">
              <path id="Trazado_730687" data-name="Trazado 730687" d="M507.082,301.571a1.619,1.619,0,0,0-.227.045,1.47,1.47,0,0,0-.223.081,1.25,1.25,0,0,0-.491.4,1.464,1.464,0,0,0-.252.644,2.3,2.3,0,0,0,.048.853,4.083,4.083,0,0,0,.4,1.032,5.11,5.11,0,0,0,.561.841,2.818,2.818,0,0,0,.626.569,1.523,1.523,0,0,0,.662.249,1.258,1.258,0,0,0,.678-.119,1.314,1.314,0,0,0,.293-.189,1.364,1.364,0,0,0,.227-.249,1.485,1.485,0,0,0,.162-.295,1.686,1.686,0,0,0,.1-.323,1.248,1.248,0,0,0,.224.134,1.042,1.042,0,0,0,.242.076.989.989,0,0,0,.254.011,1.069,1.069,0,0,0,.267-.059.7.7,0,0,0,.045-.156,1.3,1.3,0,0,0,.018-.191,1.26,1.26,0,0,0-.009-.2.881.881,0,0,0-.039-.182.6.6,0,0,1-.161-.076,1,1,0,0,1-.154-.132,1.63,1.63,0,0,1-.147-.179,2.387,2.387,0,0,1-.132-.214l-2.35-4.324a1.665,1.665,0,0,0-.2-.3.656.656,0,0,0-.206-.17.451.451,0,0,0-.233-.043.816.816,0,0,0-.277.081l-.383.177-.021.084,1.146,2.11c-.075-.005-.15-.007-.226-.007A2.268,2.268,0,0,0,507.082,301.571Zm.514.822a1.682,1.682,0,0,1,.2,0c.069.005.139.014.211.026l1.075,1.982a1.158,1.158,0,0,1-.062.277.874.874,0,0,1-.106.214.8.8,0,0,1-.137.155.7.7,0,0,1-.153.1.431.431,0,0,1-.26.033.752.752,0,0,1-.305-.138,1.761,1.761,0,0,1-.336-.335,3.811,3.811,0,0,1-.359-.557,4.2,4.2,0,0,1-.279-.616,1.839,1.839,0,0,1-.108-.494.73.73,0,0,1,.059-.361.447.447,0,0,1,.219-.216.757.757,0,0,1,.162-.052A1.045,1.045,0,0,1,507.6,302.392Z" transform="translate(-505.869 -299.108)"/>
            </g>
            <g id="Grupo_1012273" data-name="Grupo 1012273" transform="translate(179.548 89.804)">
              <path id="Trazado_730688" data-name="Trazado 730688" d="M496.214,312.2a5.1,5.1,0,0,0,.308.5,3.3,3.3,0,0,0,.341.418,2.533,2.533,0,0,0,.392.33,2.358,2.358,0,0,0,.455.24,1.819,1.819,0,0,0,.364.1,1.709,1.709,0,0,0,.362.02,1.792,1.792,0,0,0,.357-.056,2.146,2.146,0,0,0,.674-.317,1.576,1.576,0,0,0,.262-.235,1.449,1.449,0,0,0,.2-.283,1.669,1.669,0,0,0,.132-.332,2,2,0,0,0,.06-.48,2.253,2.253,0,0,0-.052-.487,3.271,3.271,0,0,0-.157-.5,5.3,5.3,0,0,0-.251-.528,5.355,5.355,0,0,0-.308-.5,3.238,3.238,0,0,0-.341-.418,2.537,2.537,0,0,0-.391-.332,2.294,2.294,0,0,0-.452-.241,1.835,1.835,0,0,0-.362-.094,1.762,1.762,0,0,0-.361-.018,1.828,1.828,0,0,0-.358.057,2.087,2.087,0,0,0-.356.129,2,2,0,0,0-.319.184,1.592,1.592,0,0,0-.261.232,1.53,1.53,0,0,0-.2.279,1.622,1.622,0,0,0-.135.326,1.928,1.928,0,0,0-.062.482,2.18,2.18,0,0,0,.053.491,3.22,3.22,0,0,0,.158.506A4.91,4.91,0,0,0,496.214,312.2Zm.687-1.926a.563.563,0,0,1,.288-.274.612.612,0,0,1,.406-.049.892.892,0,0,1,.374.206,2.249,2.249,0,0,1,.344.395,5.3,5.3,0,0,1,.315.52,4.621,4.621,0,0,1,.259.543,2.007,2.007,0,0,1,.137.491.734.734,0,0,1-.046.4.545.545,0,0,1-.282.274.623.623,0,0,1-.41.051.878.878,0,0,1-.376-.2,2.151,2.151,0,0,1-.344-.394,5.3,5.3,0,0,1-.317-.517,5.013,5.013,0,0,1-.259-.546,1.99,1.99,0,0,1-.135-.493A.746.746,0,0,1,496.9,310.271Z" transform="translate(-495.752 -308.979)"/>
            </g>
            <g id="Grupo_1012274" data-name="Grupo 1012274" transform="translate(180.642 90.757)">
              <path id="Trazado_730689" data-name="Trazado 730689" d="M498.656,312.941a5.112,5.112,0,0,0,.316.517,2.185,2.185,0,0,0,.345.394.877.877,0,0,0,.376.2.623.623,0,0,0,.41-.051.545.545,0,0,0,.282-.274.731.731,0,0,0,.046-.4,2,2,0,0,0-.137-.491,4.74,4.74,0,0,0-.26-.543,5.124,5.124,0,0,0-.315-.519,2.236,2.236,0,0,0-.344-.4.891.891,0,0,0-.374-.206.615.615,0,0,0-.406.048.564.564,0,0,0-.288.275.745.745,0,0,0-.047.4,2,2,0,0,0,.134.493A5.141,5.141,0,0,0,498.656,312.941Z" transform="translate(-498.254 -311.16)" fill="#fff"/>
            </g>
            <g id="Grupo_1012275" data-name="Grupo 1012275" transform="translate(190.684 110.991)">
              <path id="Trazado_730690" data-name="Trazado 730690" d="M521.642,359.269a5.1,5.1,0,0,0,.318.519,2.063,2.063,0,0,0,.345.394.855.855,0,0,0,.376.2.61.61,0,0,0,.408-.058.556.556,0,0,0,.282-.281.773.773,0,0,0,.044-.408,2.133,2.133,0,0,0-.138-.5,5.142,5.142,0,0,0-.26-.546,5.291,5.291,0,0,0-.318-.523,2.238,2.238,0,0,0-.346-.4.879.879,0,0,0-.375-.2.6.6,0,0,0-.4.054.565.565,0,0,0-.287.283.747.747,0,0,0-.045.409,2.037,2.037,0,0,0,.137.5A5.273,5.273,0,0,0,521.642,359.269Z" transform="translate(-521.233 -357.458)" fill="#fff"/>
            </g>
            <g id="Grupo_1012276" data-name="Grupo 1012276" transform="translate(189.594 110.021)">
              <path id="Trazado_730691" data-name="Trazado 730691" d="M519.207,358.524a5,5,0,0,0,.309.5,3.125,3.125,0,0,0,.343.419,2.468,2.468,0,0,0,.391.33,2.274,2.274,0,0,0,.454.238,1.788,1.788,0,0,0,.366.1,1.7,1.7,0,0,0,.361.016,1.753,1.753,0,0,0,.354-.062,2.019,2.019,0,0,0,.351-.135,2.045,2.045,0,0,0,.322-.2,1.714,1.714,0,0,0,.26-.242,1.5,1.5,0,0,0,.2-.289,1.667,1.667,0,0,0,.13-.339,2.121,2.121,0,0,0,.057-.489,2.369,2.369,0,0,0-.054-.493,3.2,3.2,0,0,0-.16-.507,5.037,5.037,0,0,0-.252-.531,5.212,5.212,0,0,0-.309-.5,3.32,3.32,0,0,0-.343-.42,2.442,2.442,0,0,0-.393-.332,2.24,2.24,0,0,0-.453-.239,1.818,1.818,0,0,0-.361-.092,1.752,1.752,0,0,0-.361-.014,1.8,1.8,0,0,0-.357.062,2.02,2.02,0,0,0-.354.136,1.915,1.915,0,0,0-.318.191,1.669,1.669,0,0,0-.26.238,1.477,1.477,0,0,0-.2.286,1.6,1.6,0,0,0-.134.333,2.063,2.063,0,0,0-.059.49,2.38,2.38,0,0,0,.056.5,3.256,3.256,0,0,0,.16.511A5.164,5.164,0,0,0,519.207,358.524Zm.675-1.963a.564.564,0,0,1,.287-.284.6.6,0,0,1,.4-.054.879.879,0,0,1,.375.2,2.267,2.267,0,0,1,.346.4,5.29,5.29,0,0,1,.318.523,5.149,5.149,0,0,1,.26.546,2.136,2.136,0,0,1,.138.5.772.772,0,0,1-.044.408.557.557,0,0,1-.282.281.613.613,0,0,1-.409.057.859.859,0,0,1-.375-.2,2.058,2.058,0,0,1-.345-.394,5.414,5.414,0,0,1-.318-.519,5.313,5.313,0,0,1-.262-.552,2.029,2.029,0,0,1-.137-.5A.746.746,0,0,1,519.883,356.561Z" transform="translate(-518.738 -355.24)"/>
            </g>
            <g id="Grupo_1012277" data-name="Grupo 1012277" transform="translate(185.181 112.162)">
              <path id="Trazado_730692" data-name="Trazado 730692" d="M509.108,363.441a5.282,5.282,0,0,0,.309.507,3.286,3.286,0,0,0,.345.42,2.531,2.531,0,0,0,.393.331,2.318,2.318,0,0,0,.456.238,1.826,1.826,0,0,0,.368.1,1.676,1.676,0,0,0,.365.015,1.789,1.789,0,0,0,.359-.062,2.035,2.035,0,0,0,.351-.135,2.056,2.056,0,0,0,.325-.2,1.748,1.748,0,0,0,.263-.243,1.523,1.523,0,0,0,.2-.291,1.687,1.687,0,0,0,.133-.34,2.106,2.106,0,0,0,.06-.492,2.462,2.462,0,0,0-.054-.5,3.282,3.282,0,0,0-.159-.51,5.247,5.247,0,0,0-.253-.533,5.124,5.124,0,0,0-.31-.506,3.2,3.2,0,0,0-.345-.422,2.444,2.444,0,0,0-.394-.333,2.273,2.273,0,0,0-.454-.24,1.881,1.881,0,0,0-.366-.091,1.707,1.707,0,0,0-.362-.013,1.844,1.844,0,0,0-.361.063,2.107,2.107,0,0,0-.356.137,1.967,1.967,0,0,0-.319.193,1.719,1.719,0,0,0-.263.24,1.5,1.5,0,0,0-.2.287,1.568,1.568,0,0,0-.135.335,2.088,2.088,0,0,0-.061.493,2.337,2.337,0,0,0,.055.5,3.179,3.179,0,0,0,.16.514A5.113,5.113,0,0,0,509.108,363.441Zm.685-1.974a.575.575,0,0,1,.289-.285.606.606,0,0,1,.407-.055.877.877,0,0,1,.377.2,2.242,2.242,0,0,1,.347.4,5.5,5.5,0,0,1,.319.525,5.312,5.312,0,0,1,.261.548,2.1,2.1,0,0,1,.137.5.78.78,0,0,1-.044.41.567.567,0,0,1-.285.283.622.622,0,0,1-.411.058.857.857,0,0,1-.378-.2,2.1,2.1,0,0,1-.347-.4,5.033,5.033,0,0,1-.319-.521,5.456,5.456,0,0,1-.263-.554,2.05,2.05,0,0,1-.137-.5A.785.785,0,0,1,509.793,361.467Z" transform="translate(-508.64 -360.139)"/>
            </g>
            <g id="Grupo_1012278" data-name="Grupo 1012278" transform="translate(186.279 113.137)">
              <path id="Trazado_730693" data-name="Trazado 730693" d="M511.561,364.188a4.964,4.964,0,0,0,.319.521,2.132,2.132,0,0,0,.347.4.865.865,0,0,0,.378.2.624.624,0,0,0,.411-.058.567.567,0,0,0,.285-.284.779.779,0,0,0,.044-.409,2.083,2.083,0,0,0-.137-.5,4.937,4.937,0,0,0-.261-.548,5.407,5.407,0,0,0-.319-.525,2.226,2.226,0,0,0-.347-.4.892.892,0,0,0-.377-.2.611.611,0,0,0-.407.055.579.579,0,0,0-.289.285.782.782,0,0,0-.047.411,2.06,2.06,0,0,0,.137.5A5.416,5.416,0,0,0,511.561,364.188Z" transform="translate(-511.153 -362.368)" fill="#fff"/>
            </g>
            <g id="Grupo_1012279" data-name="Grupo 1012279" transform="translate(125.365 61.29)">
              <path id="Trazado_730694" data-name="Trazado 730694" d="M385.723,260.1a.35.35,0,0,1-.086-.064,1.508,1.508,0,0,1-.108-.121c-.246-.315-.508-.644-.777-.978s-.548-.675-.828-1.013-.565-.672-.842-1-.553-.636-.816-.929l-6.3-6.975a4.571,4.571,0,0,0-.645-.629,2.187,2.187,0,0,0-.619-.35,1.524,1.524,0,0,0-.621-.086,2.045,2.045,0,0,0-.655.167,3.654,3.654,0,0,0-.493.258,4.009,4.009,0,0,0-.433.314,5.043,5.043,0,0,0-.384.355c-.121.124-.236.251-.349.38l12.114,13.293a3.357,3.357,0,0,0,.758.651,1.809,1.809,0,0,0,.718.256,1.99,1.99,0,0,0,.708-.049,4.342,4.342,0,0,0,.738-.262c.2-.09.41-.183.617-.28s.415-.2.62-.3.4-.206.6-.312.375-.21.545-.316l-4.311-18.254-.239-.133a3.53,3.53,0,0,0-.391.049c-.135.023-.273.053-.408.088s-.267.073-.389.114-.236.083-.333.125-.222.094-.335.144-.225.1-.337.16-.219.117-.323.182a2.72,2.72,0,0,0-.3.214l4.061,15.291a.245.245,0,0,1-.08.022A.155.155,0,0,1,385.723,260.1Z" transform="translate(-371.771 -243.734)" fill="#fff"/>
            </g>
            <g id="Grupo_1012280" data-name="Grupo 1012280" transform="translate(114.935 72.779)">
              <path id="Trazado_730695" data-name="Trazado 730695" d="M352.007,276.119c.189-.09.369-.173.528-.245s.3-.135.413-.184a3.215,3.215,0,0,0,1.147-.775,1.822,1.822,0,0,0,.457-.935,2.414,2.414,0,0,0-.065-1.022,4.824,4.824,0,0,0-.42-1.038,5.149,5.149,0,0,0-.638-.954,2.859,2.859,0,0,0-.84-.684,2.3,2.3,0,0,0-1.091-.26,3.581,3.581,0,0,0-1.387.321l-.479.2-.555.234c-.193.08-.392.163-.59.242s-.4.158-.583.231l2.893,5.457c.2-.1.408-.207.613-.307S351.816,276.208,352.007,276.119Z" transform="translate(-347.905 -270.022)" fill="#51aee6"/>
            </g>
            <g id="Grupo_1012281" data-name="Grupo 1012281" transform="translate(91.477 75.597)">
              <path id="Trazado_730696" data-name="Trazado 730696" d="M309.732,293.179a3.642,3.642,0,0,1-1.249.85,4.013,4.013,0,0,1-1.525.368,2.892,2.892,0,0,1-1.361-.3,3.961,3.961,0,0,1-1.2-.953,7.956,7.956,0,0,1-1.063-1.586l-4.747-9.036a4.372,4.372,0,0,0-.629-.926,2.11,2.11,0,0,0-.708-.522,1.721,1.721,0,0,0-.806-.134,2.817,2.817,0,0,0-.92.238l-1.236.525-.053.24,5.784,11.032a10.158,10.158,0,0,0,1.919,2.624,6.864,6.864,0,0,0,2.355,1.511,6.421,6.421,0,0,0,2.685.385,8.553,8.553,0,0,0,2.907-.751,8.024,8.024,0,0,0,2.456-1.62,5.292,5.292,0,0,0,1.332-2.148,5.693,5.693,0,0,0,.17-2.6A9.486,9.486,0,0,0,312.8,287.4L307.03,276.47c-.142.029-.294.068-.449.114s-.315.1-.469.151-.3.109-.44.163-.26.1-.365.148-.24.1-.37.164-.265.126-.4.194-.271.142-.4.218-.256.154-.372.234l5.79,10.987a7.567,7.567,0,0,1,.689,1.74,3.4,3.4,0,0,1,.066,1.446A2.332,2.332,0,0,1,309.732,293.179Z" transform="translate(-294.228 -276.47)" fill="#fff"/>
            </g>
            <g id="Grupo_1012282" data-name="Grupo 1012282" transform="translate(76.192 84.41)">
              <path id="Trazado_730697" data-name="Trazado 730697" d="M260.968,306.827a5.121,5.121,0,0,0,1.38.941,6.694,6.694,0,0,0,1.638.51,10.638,10.638,0,0,0,1.845.161l3.641-.012a6.007,6.007,0,0,1,1.171.118,3.576,3.576,0,0,1,.892.307,2.534,2.534,0,0,1,.646.466,2.391,2.391,0,0,1,.434.6,2.179,2.179,0,0,1,.233.857,1.88,1.88,0,0,1-.153.858,2.291,2.291,0,0,1-.58.794,3.842,3.842,0,0,1-1.05.661,7.68,7.68,0,0,1-1.408.452,10.453,10.453,0,0,1-1.521.218,13.275,13.275,0,0,1-1.554.018,14.377,14.377,0,0,1-1.5-.148,3.633,3.633,0,0,0-.212.717,4.858,4.858,0,0,0-.081.824,4.8,4.8,0,0,0,.065.861,4.016,4.016,0,0,0,.23.826,12.281,12.281,0,0,0,1.864.173,13.736,13.736,0,0,0,1.889-.1,13.366,13.366,0,0,0,1.819-.346,11.266,11.266,0,0,0,1.655-.575,9.207,9.207,0,0,0,2.582-1.64,5.462,5.462,0,0,0,1.4-1.991,4.731,4.731,0,0,0,.3-2.2,6.218,6.218,0,0,0-.711-2.281,5.586,5.586,0,0,0-1.086-1.455,5.8,5.8,0,0,0-1.457-1.016,7.3,7.3,0,0,0-1.76-.6,10.021,10.021,0,0,0-2-.2l-3.63,0a7.094,7.094,0,0,1-.988-.059,3.406,3.406,0,0,1-.791-.2,2.023,2.023,0,0,1-.6-.364,1.89,1.89,0,0,1-.427-.552,1.951,1.951,0,0,1-.223-.8,1.809,1.809,0,0,1,.153-.822,2.241,2.241,0,0,1,.559-.762,3.507,3.507,0,0,1,1-.622,6.928,6.928,0,0,1,1.123-.356,12.012,12.012,0,0,1,1.29-.222c.447-.052.9-.085,1.348-.1s.88-.01,1.287.01a3.451,3.451,0,0,0,.184-.736,4.108,4.108,0,0,0,.028-.789,4.379,4.379,0,0,0-.386-1.569,13.42,13.42,0,0,0-1.378-.036,15.026,15.026,0,0,0-1.581.124,14.227,14.227,0,0,0-1.692.326,12.175,12.175,0,0,0-1.7.575,7.324,7.324,0,0,0-2.165,1.387,5.6,5.6,0,0,0-1.329,1.87,4.9,4.9,0,0,0-.394,2.171,5.743,5.743,0,0,0,1.709,3.733Z" transform="translate(-259.253 -296.637)" fill="#fff"/>
            </g>
            <g id="Grupo_1012283" data-name="Grupo 1012283" transform="translate(34.844 28.47)">
              <path id="Trazado_730698" data-name="Trazado 730698" d="M336.821,200.037l-17.283-31.4-154.9,64.377,18.48,36.116Zm-50.447-6.326a3.757,3.757,0,0,1,.364-.377,3.252,3.252,0,0,1,.407-.313,2.918,2.918,0,0,1,.447-.238,1.88,1.88,0,0,1,.586-.153,1.451,1.451,0,0,1,.55.062,2.194,2.194,0,0,1,.557.274,4.982,4.982,0,0,1,.6.48l3.372,3.057c.208.2.424.406.646.625s.449.448.677.684.456.478.682.724.451.5.668.746l.132-.057c-.079-.3-.155-.612-.226-.935s-.14-.653-.2-.979-.121-.648-.173-.953-.1-.594-.138-.854l-.807-5.427q.127-.1.267-.186c.091-.059.186-.114.282-.166s.194-.1.293-.148.2-.091.3-.132c.126-.054.255-.1.388-.148s.265-.084.4-.118.266-.063.4-.085.257-.038.379-.047l.213.139,1.681,12.648,2.748,5.066c-.1.076-.213.149-.329.22s-.238.14-.361.206-.246.128-.367.186-.238.112-.347.161c-.094.041-.2.088-.325.136s-.253.1-.39.149-.279.1-.417.139-.277.078-.4.1l-2.805-5.176-10.055-8.883A4.214,4.214,0,0,1,286.373,193.711ZM272.7,199.347l9.418-4c.087.109.167.217.243.324s.145.212.211.315.126.2.182.3.109.191.158.28.1.2.149.315.1.248.15.384.093.277.132.42.073.285.1.421L278.5,200.22l-1.493.639c.085.156.163.3.238.434s.149.263.22.391.146.256.221.391.155.278.239.434l1.334,2.481c.139-.067.279-.133.417-.2s.272-.125.4-.182.247-.111.355-.158l.282-.122,3.8-1.641a3.682,3.682,0,0,1,.263.292c.085.1.167.215.244.326s.151.222.216.329.123.206.172.3.1.193.152.3.1.231.154.355.093.25.132.374a3.433,3.433,0,0,1,.092.364l-3.8,1.651-1.465.637,1.534,2.852c.073.133.138.259.2.382l.183.363.189.368c.065.126.133.257.208.4.114-.059.23-.117.351-.177s.241-.119.37-.18.259-.124.4-.187.283-.129.436-.2l5.492-2.412c.035.065.079.146.126.237s.1.192.152.3.106.219.155.332.1.227.135.337a2.287,2.287,0,0,1,.147.761,1.517,1.517,0,0,1-.137.657,1.645,1.645,0,0,1-.415.546,2.643,2.643,0,0,1-.687.426l-6.319,2.793a2.137,2.137,0,0,1-.8.19,1.813,1.813,0,0,1-.755-.141,2.147,2.147,0,0,1-.673-.459,3.141,3.141,0,0,1-.559-.762l-7.768-14.457Zm-17.191,7.433a5.043,5.043,0,0,1,.384-.355,4,4,0,0,1,.433-.314,3.654,3.654,0,0,1,.493-.258,2.045,2.045,0,0,1,.655-.167,1.524,1.524,0,0,1,.621.086,2.187,2.187,0,0,1,.619.351,4.575,4.575,0,0,1,.645.629l6.3,6.975c.263.292.537.605.816.929s.56.658.842,1,.559.678.828,1.013.531.663.777.978a1.493,1.493,0,0,0,.108.121.352.352,0,0,0,.086.064.155.155,0,0,0,.078.017.247.247,0,0,0,.08-.022l-4.061-15.291a2.712,2.712,0,0,1,.3-.214c.1-.065.213-.126.323-.182s.224-.11.337-.16.224-.1.335-.144.21-.084.333-.125.255-.079.389-.114.272-.064.408-.088a3.529,3.529,0,0,1,.391-.049l.24.133,4.311,18.254c-.17.105-.353.212-.545.316s-.391.209-.6.311-.412.2-.62.3-.416.19-.617.28a4.345,4.345,0,0,1-.738.262,1.989,1.989,0,0,1-.708.049,1.808,1.808,0,0,1-.718-.256,3.357,3.357,0,0,1-.758-.651l-12.114-13.293C255.275,207.03,255.391,206.9,255.512,206.779Zm-15.083,6.251,1.4-.64c.462-.21.916-.417,1.365-.619s.892-.4,1.331-.594.871-.381,1.3-.563a8.173,8.173,0,0,1,2.435-.641,5.8,5.8,0,0,1,2.27.219,5.423,5.423,0,0,1,2,1.136,7.408,7.408,0,0,1,1.622,2.113,5.983,5.983,0,0,1,.614,1.718,5.015,5.015,0,0,1,.043,1.591,4.567,4.567,0,0,1-.423,1.385,4.141,4.141,0,0,1-.781,1.1,2.631,2.631,0,0,1,.762.08,3.472,3.472,0,0,1,.747.285,4.872,4.872,0,0,1,.716.457,6.576,6.576,0,0,1,.677.595l2.2,2.117c.15.147.309.289.471.423a6.022,6.022,0,0,0,.5.374,4.524,4.524,0,0,0,.532.3,3.589,3.589,0,0,0,.555.214,1.845,1.845,0,0,1-.161.573,2.446,2.446,0,0,1-.339.537,2.925,2.925,0,0,1-.479.461,2.844,2.844,0,0,1-.581.344,2.142,2.142,0,0,1-.8.2,1.721,1.721,0,0,1-.728-.138,3.243,3.243,0,0,1-.723-.438,10.057,10.057,0,0,1-.791-.7l-2.562-2.513a6.114,6.114,0,0,0-.672-.568,2.891,2.891,0,0,0-.719-.384,2.082,2.082,0,0,0-.812-.115,2.779,2.779,0,0,0-.949.242l-1.454.633,3.456,6.52c-.118.083-.244.164-.373.242s-.263.153-.4.223-.266.137-.393.2-.25.118-.365.168-.219.1-.349.148-.272.107-.417.159-.295.1-.444.148-.294.085-.432.115l-8.939-16.889Zm-19.1,7.964,1.236-.525a2.816,2.816,0,0,1,.92-.238,1.722,1.722,0,0,1,.806.134,2.11,2.11,0,0,1,.708.522,4.367,4.367,0,0,1,.629.926l4.747,9.036a7.961,7.961,0,0,0,1.063,1.586,3.961,3.961,0,0,0,1.2.953,2.892,2.892,0,0,0,1.361.3,4.015,4.015,0,0,0,1.525-.368,3.643,3.643,0,0,0,1.249-.85,2.332,2.332,0,0,0,.58-1.15,3.405,3.405,0,0,0-.066-1.446,7.566,7.566,0,0,0-.689-1.74l-5.79-10.987c.116-.08.241-.159.372-.234s.264-.149.4-.218.27-.135.4-.195.255-.115.37-.164.229-.095.365-.148.288-.108.44-.162.314-.106.469-.151.307-.085.449-.114l5.769,10.933a9.486,9.486,0,0,1,1.037,2.974,5.693,5.693,0,0,1-.17,2.6,5.3,5.3,0,0,1-1.332,2.148,8.032,8.032,0,0,1-2.456,1.619,8.553,8.553,0,0,1-2.907.751,6.421,6.421,0,0,1-2.685-.385,6.864,6.864,0,0,1-2.355-1.511,10.178,10.178,0,0,1-1.919-2.624l-5.785-11.032Zm-14.938,7.866a5.621,5.621,0,0,1,1.329-1.87,7.325,7.325,0,0,1,2.165-1.387,12.181,12.181,0,0,1,1.7-.575,14.239,14.239,0,0,1,1.692-.326,15.016,15.016,0,0,1,1.581-.124,13.4,13.4,0,0,1,1.378.036,4.379,4.379,0,0,1,.386,1.569,4.113,4.113,0,0,1-.028.789,3.507,3.507,0,0,1-.183.736c-.408-.02-.844-.024-1.287-.01s-.9.047-1.348.1a12.018,12.018,0,0,0-1.29.222,6.934,6.934,0,0,0-1.123.356,3.509,3.509,0,0,0-1,.622,2.246,2.246,0,0,0-.559.762,1.809,1.809,0,0,0-.153.823,1.951,1.951,0,0,0,.223.8,1.9,1.9,0,0,0,.427.553,2.029,2.029,0,0,0,.6.363,3.4,3.4,0,0,0,.791.2,7.1,7.1,0,0,0,.988.059l3.63,0a10.019,10.019,0,0,1,2,.2,7.305,7.305,0,0,1,1.76.6,5.817,5.817,0,0,1,1.457,1.016,5.586,5.586,0,0,1,1.086,1.455,6.219,6.219,0,0,1,.711,2.281,4.73,4.73,0,0,1-.3,2.2,5.456,5.456,0,0,1-1.4,1.991,9.2,9.2,0,0,1-2.582,1.64,11.221,11.221,0,0,1-1.655.575,13.375,13.375,0,0,1-1.819.346,13.742,13.742,0,0,1-1.889.1,12.281,12.281,0,0,1-1.864-.173,4.016,4.016,0,0,1-.23-.826,4.8,4.8,0,0,1-.065-.861,4.855,4.855,0,0,1,.081-.824,3.62,3.62,0,0,1,.212-.717,14.5,14.5,0,0,0,1.5.148,13.275,13.275,0,0,0,1.554-.018,10.453,10.453,0,0,0,1.521-.218,7.676,7.676,0,0,0,1.408-.452,3.841,3.841,0,0,0,1.05-.661,2.291,2.291,0,0,0,.58-.794,1.88,1.88,0,0,0,.153-.858,2.179,2.179,0,0,0-.232-.857,2.39,2.39,0,0,0-.434-.6,2.544,2.544,0,0,0-.646-.466,3.555,3.555,0,0,0-.892-.306,5.968,5.968,0,0,0-1.171-.118l-3.641.012a10.641,10.641,0,0,1-1.845-.161,6.693,6.693,0,0,1-1.638-.51,5.127,5.127,0,0,1-1.38-.941A5.746,5.746,0,0,1,206,231.032,4.9,4.9,0,0,1,206.39,228.861Z" transform="translate(-164.642 -168.635)" fill="#51aee6"/>
            </g>
            <g id="Grupo_1012284" data-name="Grupo 1012284" transform="translate(142.835 55.179)">
              <path id="Trazado_730699" data-name="Trazado 730699" d="M422.557,232.51c-.025-.137-.059-.279-.1-.421s-.083-.284-.132-.42-.1-.266-.15-.385-.1-.225-.149-.314-.1-.183-.158-.28-.117-.2-.182-.3-.135-.208-.211-.315-.156-.215-.243-.324l-9.418,4-.069.238,7.768,14.457a3.142,3.142,0,0,0,.559.762,2.147,2.147,0,0,0,.673.459,1.8,1.8,0,0,0,.755.14,2.127,2.127,0,0,0,.8-.19l6.319-2.794a2.631,2.631,0,0,0,.687-.425,1.649,1.649,0,0,0,.415-.546,1.539,1.539,0,0,0,.137-.657,2.287,2.287,0,0,0-.147-.761c-.038-.11-.086-.224-.135-.337s-.1-.225-.155-.332-.1-.208-.153-.3-.091-.172-.126-.237l-5.492,2.412c-.153.067-.3.132-.436.2s-.271.126-.4.188-.25.121-.37.18-.237.118-.351.177c-.076-.139-.144-.27-.208-.4l-.189-.368-.183-.363c-.064-.123-.129-.249-.2-.382l-1.534-2.852,1.465-.637,3.8-1.651a3.434,3.434,0,0,0-.092-.364c-.039-.125-.083-.251-.132-.374s-.1-.243-.154-.355-.1-.215-.152-.3-.106-.191-.172-.3-.137-.218-.216-.329-.159-.222-.244-.326a3.614,3.614,0,0,0-.263-.292l-3.8,1.641-.282.122c-.108.047-.228.1-.355.158s-.263.118-.4.182-.278.13-.417.2l-1.334-2.481c-.083-.157-.162-.3-.239-.434s-.148-.263-.221-.391-.145-.256-.22-.391-.153-.278-.238-.434l1.493-.638Z" transform="translate(-411.746 -229.751)" fill="#fff"/>
            </g>
            <g id="Grupo_1012285" data-name="Grupo 1012285" transform="translate(180.784 113.762)">
              <path id="Trazado_730700" data-name="Trazado 730700" d="M500.143,366.218l.156-.082.116-.058a.863.863,0,0,0,.366-.312.759.759,0,0,0,.111-.391,1.3,1.3,0,0,0-.066-.413,2.352,2.352,0,0,0-.394-.729,1.383,1.383,0,0,0-.313-.292.848.848,0,0,0-.4-.141.925.925,0,0,0-.479.1l-.152.074-.162.077-.171.079c-.057.027-.116.054-.177.08l1.188,2.2.191-.1Z" transform="translate(-498.58 -363.8)" fill="#fff"/>
            </g>
            <g id="Grupo_1012286" data-name="Grupo 1012286" transform="translate(179.301 112.681)">
              <path id="Trazado_730701" data-name="Trazado 730701" d="M499.724,365.064a1.7,1.7,0,0,0,.38-.662,1.854,1.854,0,0,0,.047-.808,2.893,2.893,0,0,0-.328-.925,3.071,3.071,0,0,0-.611-.812,2.009,2.009,0,0,0-.716-.436,1.855,1.855,0,0,0-.783-.086,2.428,2.428,0,0,0-.809.238c-.14.069-.278.136-.414.2s-.273.139-.41.21-.278.143-.421.218l-.446.232-.027.078,3.16,5.865c.045-.011.093-.026.143-.043s.1-.035.147-.055.094-.04.138-.059l.118-.056.121-.062c.043-.023.088-.047.131-.073s.088-.053.131-.081.081-.056.118-.085l-1.058-1.963.718-.351A2.242,2.242,0,0,0,499.724,365.064Zm-.855-.69a.861.861,0,0,1-.366.312l-.115.058-.157.082-.184.1-.191.1-1.188-2.2.178-.08.17-.08.162-.077.152-.074a.92.92,0,0,1,.479-.1.848.848,0,0,1,.4.141,1.381,1.381,0,0,1,.313.291,2.362,2.362,0,0,1,.395.729,1.283,1.283,0,0,1,.066.412A.759.759,0,0,1,498.869,364.374Z" transform="translate(-495.185 -361.326)"/>
            </g>
            <g id="Grupo_1012287" data-name="Grupo 1012287" transform="translate(154.41 94.394)">
              <path id="Trazado_730702" data-name="Trazado 730702" d="M446.327,319.481l-8.1,3.739,4.711,8.8,8.077-3.8Z" transform="translate(-438.23 -319.481)" fill="#fff"/>
            </g>
            <g id="Grupo_1012288" data-name="Grupo 1012288" transform="translate(152.998 93.027)">
              <path id="Trazado_730703" data-name="Trazado 730703" d="M444.875,316.355,435,320.905l5.749,10.739L450.6,327Zm-8.464,5.1,8.1-3.739,4.691,8.731-8.077,3.805Z" transform="translate(-435 -316.355)"/>
            </g>
            <g id="Grupo_1012289" data-name="Grupo 1012289" transform="translate(165.285 114.549)">
              <path id="Trazado_730704" data-name="Trazado 730704" d="M471.167,365.6l-8.054,3.892,4.749,8.871,8.037-3.96Z" transform="translate(-463.114 -365.601)" fill="#fff"/>
            </g>
            <g id="Grupo_1012290" data-name="Grupo 1012290" transform="translate(163.875 113.163)">
              <path id="Trazado_730705" data-name="Trazado 730705" d="M469.714,362.428l-9.825,4.738,5.794,10.824,9.8-4.838Zm-8.415,5.279,8.054-3.893,4.732,8.8-8.036,3.959Z" transform="translate(-459.889 -362.428)"/>
            </g>
            <g id="Grupo_1012291" data-name="Grupo 1012291" transform="translate(173.829 143.695)">
              <path id="Trazado_730706" data-name="Trazado 730706" d="M486.2,438.791c.049-.021.1-.044.144-.065s.087-.042.122-.061.08-.042.122-.066.088-.049.132-.076.089-.056.133-.086.085-.06.125-.092l-3.236-6.052c-.048.014-.1.03-.148.048s-.1.038-.148.058-.095.041-.139.062l-.123.061c-.037.018-.079.04-.122.064s-.091.05-.136.078-.094.057-.137.086-.084.06-.12.09L485.9,438.9c.045-.012.094-.028.143-.046S486.147,438.812,486.2,438.791Z" transform="translate(-482.665 -432.292)" fill="#fff"/>
            </g>
            <g id="Grupo_1012292" data-name="Grupo 1012292" transform="translate(110.544 69.78)">
              <path id="Trazado_730707" data-name="Trazado 730707" d="M352.326,269.965a5.015,5.015,0,0,0-.043-1.591,5.983,5.983,0,0,0-.614-1.718,7.409,7.409,0,0,0-1.622-2.113,5.422,5.422,0,0,0-2-1.136,5.8,5.8,0,0,0-2.27-.219,8.171,8.171,0,0,0-2.435.641q-.641.273-1.3.563t-1.331.594c-.449.2-.9.409-1.365.619l-1.4.64-.087.219,8.939,16.889c.138-.03.284-.07.432-.115s.3-.1.444-.148.286-.107.417-.159.248-.1.349-.148.237-.107.365-.168.26-.128.393-.2.266-.145.4-.223.255-.159.373-.242l-3.456-6.52,1.454-.633a2.778,2.778,0,0,1,.949-.242,2.081,2.081,0,0,1,.812.115,2.891,2.891,0,0,1,.719.384,6.117,6.117,0,0,1,.672.568l2.562,2.513a10.051,10.051,0,0,0,.791.7,3.241,3.241,0,0,0,.723.438,1.721,1.721,0,0,0,.728.138,2.142,2.142,0,0,0,.8-.2,2.846,2.846,0,0,0,.581-.344,2.927,2.927,0,0,0,.479-.461,2.445,2.445,0,0,0,.339-.537,1.845,1.845,0,0,0,.161-.573,3.591,3.591,0,0,1-.555-.214,4.53,4.53,0,0,1-.532-.3,6.016,6.016,0,0,1-.5-.374c-.162-.134-.321-.276-.471-.423l-2.2-2.117a6.571,6.571,0,0,0-.677-.595,4.869,4.869,0,0,0-.716-.457,3.471,3.471,0,0,0-.747-.284,2.629,2.629,0,0,0-.762-.08,4.143,4.143,0,0,0,.781-1.1A4.567,4.567,0,0,0,352.326,269.965Zm-3.43.151a1.821,1.821,0,0,1-.457.935,3.215,3.215,0,0,1-1.147.775c-.113.049-.253.111-.413.184s-.339.155-.528.245-.392.186-.6.286-.413.2-.613.307l-2.893-5.457c.187-.073.384-.151.583-.231s.4-.162.59-.242l.555-.234.479-.2a3.58,3.58,0,0,1,1.387-.321,2.3,2.3,0,0,1,1.091.26,2.859,2.859,0,0,1,.84.684,5.149,5.149,0,0,1,.638.954,4.823,4.823,0,0,1,.42,1.038A2.415,2.415,0,0,1,348.9,270.116Z" transform="translate(-337.858 -263.16)" fill="#fff"/>
            </g>
            <g id="Grupo_1012293" data-name="Grupo 1012293" transform="translate(167.06 145.283)">
              <path id="Trazado_730708" data-name="Trazado 730708" d="M471.406,440.811c-.1-.126-.215-.266-.329-.4s-.224-.269-.32-.381l-.222-.26-1.937-2.15c-.062.018-.126.039-.191.061s-.128.047-.191.072l-.18.078c-.057.026-.113.052-.16.077s-.1.052-.157.084-.12.068-.182.106-.126.078-.188.12-.121.083-.174.125l2.805,6.293a1.39,1.39,0,0,0,.141-.036c.049-.015.1-.034.149-.052s.1-.041.148-.062.094-.045.137-.066l.127-.068.121-.07c.04-.024.077-.049.115-.073s.073-.051.106-.077l-1.372-2.945c-.065-.143-.14-.3-.221-.469s-.166-.342-.251-.517-.174-.35-.258-.516-.164-.325-.236-.467l.056-.028,3.014,3.394c.044-.014.093-.031.142-.05s.1-.04.155-.062.1-.044.149-.065.09-.042.125-.061.082-.043.127-.069l.142-.084c.047-.029.095-.06.14-.09s.087-.059.124-.087l-1.124-4.355.057-.029c.076.14.16.3.252.458s.188.332.285.5.2.337.291.5.184.31.267.444l1.677,2.778c.042-.013.082-.028.123-.042s.083-.031.122-.049l.122-.055c.043-.02.083-.041.125-.062s.091-.048.136-.075.094-.055.137-.085.089-.06.13-.091a1.358,1.358,0,0,0,.11-.093l-3.651-5.825c-.067.02-.136.042-.205.068s-.138.052-.2.08-.132.056-.192.084-.116.054-.164.079-.1.051-.149.08-.108.063-.165.1-.112.072-.169.111-.114.08-.168.121l.7,2.777c.02.07.051.185.092.326s.087.307.137.475.1.341.149.494.092.289.128.384l-.056.03C471.6,441.05,471.508,440.937,471.406,440.811Z" transform="translate(-467.177 -435.926)" fill="#fff"/>
            </g>
            <g id="Grupo_1012294" data-name="Grupo 1012294" transform="translate(162.981 150.316)">
              <path id="Trazado_730709" data-name="Trazado 730709" d="M459.793,448.93a.693.693,0,0,0,.146-.318.809.809,0,0,0-.015-.329,1.247,1.247,0,0,0-.123-.312,1.212,1.212,0,0,0-.187-.271.842.842,0,0,0-.262-.2.711.711,0,0,0-.346-.061,1.131,1.131,0,0,0-.439.133l-.156.08-.186.093-.2.1c-.065.031-.127.061-.187.088l.872,1.64.71-.364A1.133,1.133,0,0,0,459.793,448.93Z" transform="translate(-457.843 -447.442)" fill="#d62940"/>
            </g>
            <g id="Grupo_1012295" data-name="Grupo 1012295" transform="translate(164.325 152.778)">
              <path id="Trazado_730710" data-name="Trazado 730710" d="M462.388,455.358l.205-.107.191-.1a1.169,1.169,0,0,0,.418-.334.811.811,0,0,0,.159-.382,1.024,1.024,0,0,0-.028-.384,1.522,1.522,0,0,0-.135-.345,1.478,1.478,0,0,0-.218-.308,1.127,1.127,0,0,0-.322-.237.9.9,0,0,0-.421-.085,1.232,1.232,0,0,0-.52.147l-.8.41,1.039,1.956c.072-.04.145-.08.217-.118S462.318,455.395,462.388,455.358Z" transform="translate(-460.919 -453.076)" fill="#d62940"/>
            </g>
            <g id="Grupo_1012296" data-name="Grupo 1012296" transform="translate(129.995 114.295)">
              <path id="Trazado_730711" data-name="Trazado 730711" d="M383.977,365.821l-.056-.107a1.907,1.907,0,0,0-.231-.347,1.148,1.148,0,0,0-.279-.243.717.717,0,0,0-.32-.1.726.726,0,0,0-.357.073.64.64,0,0,0-.26.208.59.59,0,0,0-.1.3,1.123,1.123,0,0,0,.038.392,2.627,2.627,0,0,0,.177.478Z" transform="translate(-382.364 -365.018)" fill="#fff"/>
            </g>
            <g id="Grupo_1012297" data-name="Grupo 1012297" transform="translate(161.48 149.224)">
              <path id="Trazado_730712" data-name="Trazado 730712" d="M459.109,446.811a1.563,1.563,0,0,0-.035-.434,1.673,1.673,0,0,0-.157-.429,2.136,2.136,0,0,0-.5-.638,1.516,1.516,0,0,0-.629-.323,1.8,1.8,0,0,0-.744-.011,3.04,3.04,0,0,0-.84.3q-.208.105-.423.219l-.437.233-.451.244-.462.253-.025.081,3.209,6.041.081.027.5-.237.481-.233.478-.236q.238-.119.479-.243a3.13,3.13,0,0,0,.793-.562,1.842,1.842,0,0,0,.435-.668,1.613,1.613,0,0,0,.081-.755,2.346,2.346,0,0,0-.273-.819,2.047,2.047,0,0,0-.821-.835,1.825,1.825,0,0,0-.509-.187,1.483,1.483,0,0,0-.507-.018,1.263,1.263,0,0,0,.2-.354A1.438,1.438,0,0,0,459.109,446.811Zm-3.2-.284c.06-.027.121-.056.187-.088l.2-.1.186-.093.156-.08a1.132,1.132,0,0,1,.439-.133.711.711,0,0,1,.346.061.843.843,0,0,1,.262.2,1.212,1.212,0,0,1,.187.271,1.245,1.245,0,0,1,.123.312.809.809,0,0,1,.015.329.693.693,0,0,1-.146.318,1.133,1.133,0,0,1-.368.281l-.71.364Zm3.084,2.057a1.125,1.125,0,0,1,.322.237,1.475,1.475,0,0,1,.219.308,1.521,1.521,0,0,1,.135.345,1.024,1.024,0,0,1,.028.384.81.81,0,0,1-.159.382,1.17,1.17,0,0,1-.418.334l-.191.1-.205.107c-.069.037-.142.075-.213.114s-.145.078-.217.118l-1.039-1.956.8-.41a1.233,1.233,0,0,1,.52-.147A.9.9,0,0,1,458.993,448.583Z" transform="translate(-454.408 -444.943)" fill="#fff"/>
            </g>
            <g id="Grupo_1012298" data-name="Grupo 1012298" transform="translate(155.456 151.4)">
              <path id="Trazado_730713" data-name="Trazado 730713" d="M446.02,456a1.462,1.462,0,0,1-.936.48.926.926,0,0,1-.467-.091,1.388,1.388,0,0,1-.42-.33,2.875,2.875,0,0,1-.378-.563l-1.71-3.227a1.624,1.624,0,0,0-.224-.329.7.7,0,0,0-.247-.181.545.545,0,0,0-.274-.038.892.892,0,0,0-.309.1l-.413.21-.017.088,2.085,3.934a3.618,3.618,0,0,0,.679.927,2.289,2.289,0,0,0,.814.519,2.056,2.056,0,0,0,.917.1,3.046,3.046,0,0,0,1.807-.931,1.988,1.988,0,0,0,.435-.8,2.217,2.217,0,0,0,.034-.952,3.6,3.6,0,0,0-.383-1.075l-2.085-3.928c-.049.013-.1.03-.153.05s-.105.041-.159.063l-.148.067-.124.061c-.039.019-.08.042-.124.066s-.09.05-.135.077-.091.056-.134.086-.085.06-.124.091l2.091,3.941a2.794,2.794,0,0,1,.251.626,1.319,1.319,0,0,1,.037.527A.9.9,0,0,1,446.02,456Z" transform="translate(-440.625 -449.922)" fill="#fff"/>
            </g>
            <g id="Grupo_1012299" data-name="Grupo 1012299" transform="translate(135.551 139.827)">
              <path id="Trazado_730714" data-name="Trazado 730714" d="M395.337,424.9a.562.562,0,0,0,.18.124.479.479,0,0,0,.208.041.566.566,0,0,0,.224-.057.87.87,0,0,0,.182-.122,1.066,1.066,0,0,0,.164-.175,1.255,1.255,0,0,0,.136-.223,1.585,1.585,0,0,0,.1-.266l-.416-.786-.166.067-.164.07-.153.069c-.049.022-.095.045-.137.065a.874.874,0,0,0-.263.188.584.584,0,0,0-.135.236.617.617,0,0,0-.011.274,1,1,0,0,0,.107.3A.8.8,0,0,0,395.337,424.9Z" transform="translate(-395.078 -423.44)" fill="#fff"/>
            </g>
            <g id="Grupo_1012300" data-name="Grupo 1012300" transform="translate(150.848 154.692)">
              <path id="Trazado_730715" data-name="Trazado 730715" d="M431.521,459.127a1.164,1.164,0,0,1,.327-.238,2.11,2.11,0,0,1,.372-.144,3.643,3.643,0,0,1,.43-.1c.149-.026.3-.043.453-.055s.3-.017.434-.014a1.279,1.279,0,0,0,.051-.27,1.42,1.42,0,0,0,0-.286,1.662,1.662,0,0,0-.049-.289,1.627,1.627,0,0,0-.1-.275,3.836,3.836,0,0,0-.464.007,4.682,4.682,0,0,0-.529.067,4.286,4.286,0,0,0-.565.142,3.9,3.9,0,0,0-.563.232,2.458,2.458,0,0,0-.708.532,2.043,2.043,0,0,0-.42.694,1.922,1.922,0,0,0-.1.789,2.121,2.121,0,0,0,.244.812,1.959,1.959,0,0,0,.377.508,1.7,1.7,0,0,0,.472.321,2.164,2.164,0,0,0,.553.163,3.348,3.348,0,0,0,.621.034l1.219-.05a1.885,1.885,0,0,1,.395.028,1.15,1.15,0,0,1,.3.1.887.887,0,0,1,.223.16.866.866,0,0,1,.153.21.832.832,0,0,1,.089.306.716.716,0,0,1-.042.311.824.824,0,0,1-.186.292,1.267,1.267,0,0,1-.345.25,2.443,2.443,0,0,1-.465.179,3.339,3.339,0,0,1-.508.1,4.046,4.046,0,0,1-.521.024,4.342,4.342,0,0,1-.5-.036,1.406,1.406,0,0,0-.064.26,1.721,1.721,0,0,0-.018.3,1.657,1.657,0,0,0,.033.307,1.414,1.414,0,0,0,.088.294,3.853,3.853,0,0,0,.625.04,4.348,4.348,0,0,0,1.235-.2,3.64,3.64,0,0,0,.548-.226,3.094,3.094,0,0,0,.848-.619,1.974,1.974,0,0,0,.449-.734,1.805,1.805,0,0,0,.077-.8,2.335,2.335,0,0,0-.265-.815,1.992,1.992,0,0,0-.383-.512,1.925,1.925,0,0,0-.5-.348,2.292,2.292,0,0,0-.6-.193,3.081,3.081,0,0,0-.677-.046l-1.218.048a2.236,2.236,0,0,1-.331-.009,1.105,1.105,0,0,1-.267-.061.648.648,0,0,1-.355-.316.75.75,0,0,1-.087-.288.727.727,0,0,1,.042-.3A.817.817,0,0,1,431.521,459.127Z" transform="translate(-430.079 -457.454)" fill="#fff"/>
            </g>
            <g id="Grupo_1012301" data-name="Grupo 1012301" transform="translate(133.219 137.165)">
              <path id="Trazado_730716" data-name="Trazado 730716" d="M392.315,419.4l-.176.083-.157.076a2.34,2.34,0,0,0-.584.4,1.634,1.634,0,0,0-.378.534,1.379,1.379,0,0,0-.109.651,1.891,1.891,0,0,0,.228.751,1.8,1.8,0,0,0,.334.448,1.641,1.641,0,0,0,.467.321,1.341,1.341,0,0,0,.561.119,1.421,1.421,0,0,0,.621-.154,1.722,1.722,0,0,0,.361-.235,1.772,1.772,0,0,0,.269-.288,1.964,1.964,0,0,0,.191-.322,2.386,2.386,0,0,0,.126-.338,1.274,1.274,0,0,0,.233.123,1.116,1.116,0,0,0,.257.067,1.1,1.1,0,0,0,.279,0,1.356,1.356,0,0,0,.3-.071.838.838,0,0,0,.053-.171,1.4,1.4,0,0,0,.027-.208,1.567,1.567,0,0,0,0-.217,1.222,1.222,0,0,0-.033-.2.615.615,0,0,1-.176-.069.756.756,0,0,1-.154-.117,1.181,1.181,0,0,1-.135-.162,1.923,1.923,0,0,1-.122-.2l-.976-1.848a2.28,2.28,0,0,0-.481-.638,1.487,1.487,0,0,0-.564-.32,1.454,1.454,0,0,0-.6-.046,1.92,1.92,0,0,0-.6.183,3.849,3.849,0,0,0-.434.25c-.149.1-.3.206-.444.322s-.284.239-.412.363a4.194,4.194,0,0,0-.347.373,1.877,1.877,0,0,0,.154.215,2.344,2.344,0,0,0,.181.2,1.807,1.807,0,0,0,.2.169,1.026,1.026,0,0,0,.2.116c.088-.094.179-.189.27-.28s.184-.18.276-.262a3.571,3.571,0,0,1,.284-.226,2.049,2.049,0,0,1,.288-.174.9.9,0,0,1,.293-.091.55.55,0,0,1,.263.031.627.627,0,0,1,.23.156,1.2,1.2,0,0,1,.2.286l.129.244c-.066.024-.133.05-.2.077Zm.469.752.163-.07.166-.067.416.786a1.667,1.667,0,0,1-.1.267,1.326,1.326,0,0,1-.136.223,1.05,1.05,0,0,1-.165.175.828.828,0,0,1-.182.122.545.545,0,0,1-.224.058.485.485,0,0,1-.208-.041.58.58,0,0,1-.18-.125.783.783,0,0,1-.142-.194,1,1,0,0,1-.107-.3.63.63,0,0,1,.011-.274.6.6,0,0,1,.135-.236.884.884,0,0,1,.263-.188l.137-.065Z" transform="translate(-389.743 -417.35)"/>
            </g>
            <g id="Grupo_1012302" data-name="Grupo 1012302" transform="translate(129.576 138.778)">
              <path id="Trazado_730717" data-name="Trazado 730717" d="M382.211,422.176a1.176,1.176,0,0,0-.355-.043,1.328,1.328,0,0,0-.373.068.747.747,0,0,0-.053.173,1.5,1.5,0,0,0-.023.209,1.543,1.543,0,0,0,.008.216,1.015,1.015,0,0,0,.035.193.91.91,0,0,1,.174.076,1.211,1.211,0,0,1,.206.146,1.623,1.623,0,0,1,.216.23,2.186,2.186,0,0,1,.211.328l1.589,3.022c.045-.013.091-.028.138-.044l.147-.054c.049-.019.1-.04.147-.061s.1-.044.144-.067.1-.049.146-.076.1-.054.144-.082.09-.056.132-.083.081-.054.115-.08l-1.522-2.893a1.8,1.8,0,0,1,.027-.3,1.039,1.039,0,0,1,.084-.264.8.8,0,0,1,.153-.222.843.843,0,0,1,.239-.169l.1-.04.1-.037c.036-.012.072-.022.108-.031a.967.967,0,0,1,.111-.019,1.843,1.843,0,0,0-.02-.328,2.881,2.881,0,0,0-.072-.338c-.03-.11-.066-.216-.1-.313a2.364,2.364,0,0,0-.115-.257c-.047.008-.09.017-.134.028s-.084.023-.127.038-.087.031-.133.051-.1.042-.149.068a1.233,1.233,0,0,0-.347.245,1.064,1.064,0,0,0-.212.316,1.249,1.249,0,0,0-.1.368,1.728,1.728,0,0,0,0,.4,1.863,1.863,0,0,0-.312-.237A1.355,1.355,0,0,0,382.211,422.176Z" transform="translate(-381.405 -421.041)"/>
            </g>
            <g id="Grupo_1012303" data-name="Grupo 1012303" transform="translate(126.476 142.224)">
              <path id="Trazado_730718" data-name="Trazado 730718" d="M375.957,429.739l-.058-.109a1.937,1.937,0,0,0-.235-.354,1.132,1.132,0,0,0-.283-.246.7.7,0,0,0-.327-.1.745.745,0,0,0-.363.081.676.676,0,0,0-.266.218.654.654,0,0,0-.109.313,1.258,1.258,0,0,0,.039.4,2.82,2.82,0,0,0,.18.489Z" transform="translate(-374.313 -428.926)" fill="#fff"/>
            </g>
            <g id="Grupo_1012304" data-name="Grupo 1012304" transform="translate(140.77 133.871)">
              <path id="Trazado_730719" data-name="Trazado 730719" d="M450.533,409.813l-43.513,21.951,7.134,13.548,43.368-22.5Zm-27.6,26.414a1.973,1.973,0,0,1-.449.734,3.092,3.092,0,0,1-.848.619,3.634,3.634,0,0,1-.548.226,4.348,4.348,0,0,1-1.235.2,3.852,3.852,0,0,1-.625-.04,1.413,1.413,0,0,1-.088-.294,1.647,1.647,0,0,1-.033-.307,1.721,1.721,0,0,1,.017-.3,1.411,1.411,0,0,1,.064-.26,4.354,4.354,0,0,0,.5.036,4.056,4.056,0,0,0,.521-.025,3.4,3.4,0,0,0,.508-.1,2.474,2.474,0,0,0,.465-.18,1.253,1.253,0,0,0,.345-.25.825.825,0,0,0,.186-.292.715.715,0,0,0,.042-.311.832.832,0,0,0-.089-.306.865.865,0,0,0-.152-.21.889.889,0,0,0-.223-.16,1.148,1.148,0,0,0-.3-.1,1.881,1.881,0,0,0-.395-.028l-1.219.05a3.348,3.348,0,0,1-.621-.034,2.161,2.161,0,0,1-.553-.163,1.693,1.693,0,0,1-.472-.321,1.961,1.961,0,0,1-.377-.508,2.124,2.124,0,0,1-.244-.812,1.924,1.924,0,0,1,.1-.789,2.056,2.056,0,0,1,.42-.694,2.458,2.458,0,0,1,.708-.532,3.906,3.906,0,0,1,.564-.232,4.3,4.3,0,0,1,.564-.142,4.662,4.662,0,0,1,.529-.067,3.823,3.823,0,0,1,.464-.007,1.633,1.633,0,0,1,.1.275,1.679,1.679,0,0,1,.049.289,1.42,1.42,0,0,1,0,.286,1.28,1.28,0,0,1-.051.27c-.138,0-.285,0-.434.014s-.3.029-.453.055a3.645,3.645,0,0,0-.43.1,2.112,2.112,0,0,0-.372.144,1.165,1.165,0,0,0-.327.238.816.816,0,0,0-.177.283.726.726,0,0,0-.042.3.749.749,0,0,0,.087.288.649.649,0,0,0,.355.316,1.107,1.107,0,0,0,.267.061,2.22,2.22,0,0,0,.331.009l1.218-.048a3.08,3.08,0,0,1,.677.046,2.293,2.293,0,0,1,.6.193,1.925,1.925,0,0,1,.5.348,1.993,1.993,0,0,1,.383.512,2.335,2.335,0,0,1,.265.815A1.8,1.8,0,0,1,422.929,436.227Zm5.514-2.932a1.987,1.987,0,0,1-.435.8,3.046,3.046,0,0,1-1.807.931,2.056,2.056,0,0,1-.917-.1,2.29,2.29,0,0,1-.814-.519,3.619,3.619,0,0,1-.679-.927l-2.085-3.934.017-.088.413-.21a.9.9,0,0,1,.309-.1.549.549,0,0,1,.274.038.7.7,0,0,1,.247.18,1.641,1.641,0,0,1,.224.329l1.71,3.227a2.875,2.875,0,0,0,.378.563,1.388,1.388,0,0,0,.42.33.926.926,0,0,0,.467.09,1.462,1.462,0,0,0,.936-.48.9.9,0,0,0,.187-.427,1.318,1.318,0,0,0-.037-.527,2.8,2.8,0,0,0-.251-.626l-2.091-3.941c.039-.031.08-.062.124-.091s.088-.059.134-.086.091-.053.135-.077.085-.047.124-.066l.124-.061.148-.067c.054-.022.106-.043.159-.062s.1-.037.153-.05l2.085,3.928a3.6,3.6,0,0,1,.383,1.075A2.214,2.214,0,0,1,428.443,433.3Zm5.737-2.884a1.842,1.842,0,0,1-.435.668,3.127,3.127,0,0,1-.793.562q-.241.125-.479.243l-.478.236-.481.233-.5.237-.081-.027-3.209-6.041.025-.081.462-.253.451-.244.437-.233q.215-.113.423-.219a3.039,3.039,0,0,1,.839-.3,1.8,1.8,0,0,1,.744.011,1.515,1.515,0,0,1,.629.323,2.135,2.135,0,0,1,.5.638,1.678,1.678,0,0,1,.157.429,1.564,1.564,0,0,1,.035.434,1.443,1.443,0,0,1-.083.409,1.267,1.267,0,0,1-.2.354,1.484,1.484,0,0,1,.506.018,1.827,1.827,0,0,1,.509.188,2.047,2.047,0,0,1,.821.835,2.345,2.345,0,0,1,.273.819A1.613,1.613,0,0,1,434.18,430.412Zm7.416-3.27c-.041.031-.083.062-.13.091s-.091.059-.137.085-.092.052-.136.075-.082.042-.125.062l-.122.055c-.04.018-.08.034-.122.049s-.082.029-.123.042l-1.677-2.778c-.083-.134-.173-.284-.267-.444s-.194-.327-.291-.5-.195-.337-.285-.5-.176-.317-.252-.458l-.057.029L439,427.31c-.037.028-.079.057-.124.087s-.093.061-.14.09l-.141.084c-.046.026-.09.05-.128.07s-.079.039-.125.061-.1.044-.149.065-.1.043-.155.062-.1.036-.142.05l-3.014-3.394-.056.028c.073.142.153.3.236.467s.172.341.258.516.17.35.251.517.156.326.221.469l1.372,2.945c-.034.026-.07.052-.106.077s-.076.049-.115.073l-.121.07-.127.068c-.043.021-.088.044-.137.066s-.1.042-.148.062-.1.037-.149.052a1.4,1.4,0,0,1-.141.036l-2.805-6.293c.053-.041.113-.083.173-.125s.126-.082.188-.12.123-.074.182-.106.111-.061.157-.084.1-.051.16-.077.118-.052.18-.078.126-.05.191-.072.128-.043.191-.061l1.937,2.15.222.26c.1.112.208.245.32.382s.227.276.329.4.189.239.249.323l.056-.03c-.036-.095-.08-.23-.128-.384s-.1-.326-.149-.494-.1-.335-.137-.476-.073-.257-.092-.326l-.7-2.777c.054-.042.111-.083.168-.121s.113-.077.169-.111.112-.068.165-.1.1-.057.149-.08.1-.052.164-.079.125-.056.192-.084.135-.055.2-.08.138-.048.205-.068l3.651,5.825A1.371,1.371,0,0,1,441.6,427.142Zm2.668-1.361c-.044.03-.088.059-.133.086s-.088.053-.132.076-.083.046-.122.066-.077.039-.122.061l-.144.065c-.05.021-.1.042-.151.06s-.1.034-.143.046l-3.238-6.059c.036-.03.077-.059.12-.09s.091-.058.137-.086.092-.054.136-.078.084-.046.122-.064l.123-.061c.045-.021.091-.042.139-.062s.1-.04.148-.058.1-.034.148-.048l3.236,6.052C444.349,425.721,444.307,425.752,444.263,425.782Zm3.62-1.866c-.043.03-.088.059-.133.086s-.088.052-.131.076-.084.046-.124.067l-.122.06c-.045.021-.09.042-.137.062s-.1.04-.146.058-.1.036-.15.051l-2.358-4.4c-.032-.06-.06-.116-.088-.17s-.055-.1-.082-.156-.055-.1-.084-.157-.06-.111-.1-.172l-.108.057-.132.072-.132.071c-.041.022-.076.042-.105.055l-.886.452c-.031-.041-.062-.081-.09-.122s-.055-.082-.081-.123-.05-.08-.071-.118-.044-.077-.062-.111-.036-.07-.056-.11-.04-.081-.058-.125-.04-.09-.059-.137-.036-.1-.051-.143l3.807-1.938c.025.027.051.058.077.091s.054.07.08.108.052.077.075.115.049.078.068.115a.806.806,0,0,1,.1.264.4.4,0,0,1-.017.218.472.472,0,0,1-.128.181,1.124,1.124,0,0,1-.239.157l-.373.19-.106.053-.136.065-.137.066-.111.055c.032.062.064.118.092.172l.089.156c.028.051.056.1.085.154s.059.108.091.167l2.356,4.4C447.97,423.855,447.927,423.887,447.884,423.916Z" transform="translate(-407.019 -409.813)" fill="#288d8a"/>
            </g>
            <g id="Grupo_1012305" data-name="Grupo 1012305" transform="translate(125.345 141.234)">
              <path id="Trazado_730720" data-name="Trazado 730720" d="M375.825,428.615c-.021-.07-.044-.137-.071-.205s-.056-.138-.091-.213-.076-.154-.121-.243a2.835,2.835,0,0,0-.515-.7,2.12,2.12,0,0,0-.655-.447,1.791,1.791,0,0,0-.762-.14,2.034,2.034,0,0,0-.823.215,1.947,1.947,0,0,0-.731.586,1.688,1.688,0,0,0-.312.787,2.543,2.543,0,0,0,.063.927,4.379,4.379,0,0,0,.39,1.006,4.895,4.895,0,0,0,.549.844,2.713,2.713,0,0,0,.693.613,1.745,1.745,0,0,0,.845.25,2.114,2.114,0,0,0,1-.241,3.235,3.235,0,0,0,.812-.571,2.9,2.9,0,0,0,.319-.361,2.3,2.3,0,0,0,.235-.392,1.569,1.569,0,0,0-.136-.167,2,2,0,0,0-.168-.16,1.68,1.68,0,0,0-.189-.138,1.1,1.1,0,0,0-.2-.1c-.067.087-.137.172-.211.255a2.964,2.964,0,0,1-.232.237,2.335,2.335,0,0,1-.258.209,2.166,2.166,0,0,1-.289.173,1.049,1.049,0,0,1-.448.118.761.761,0,0,1-.38-.1,1.184,1.184,0,0,1-.324-.268,2.62,2.62,0,0,1-.285-.4l2.359-1.155C375.866,428.757,375.848,428.684,375.825,428.615Zm-2.745.542a2.82,2.82,0,0,1-.18-.49,1.259,1.259,0,0,1-.039-.4.654.654,0,0,1,.109-.313.684.684,0,0,1,.266-.218.737.737,0,0,1,.363-.081.709.709,0,0,1,.327.1,1.142,1.142,0,0,1,.283.246,1.874,1.874,0,0,1,.234.354l.059.109Z" transform="translate(-371.726 -426.661)"/>
            </g>
            <g id="Grupo_1012306" data-name="Grupo 1012306" transform="translate(88.587 125.917)">
              <path id="Trazado_730721" data-name="Trazado 730721" d="M287.616,394.225l5,2.869.655-5.481Z" transform="translate(-287.616 -391.613)" fill="#fff"/>
            </g>
            <g id="Grupo_1012307" data-name="Grupo 1012307" transform="translate(98.566 146.342)">
              <path id="Trazado_730722" data-name="Trazado 730722" d="M319.436,438.349l-8.987,4.343,4.892,9.435,8.969-4.42Z" transform="translate(-310.449 -438.349)" fill="#fff"/>
            </g>
            <g id="Grupo_1012308" data-name="Grupo 1012308" transform="translate(97.033 144.848)">
              <path id="Trazado_730723" data-name="Trazado 730723" d="M317.905,434.929l-10.963,5.287,5.967,11.513,10.937-5.4Zm-9.431,5.838,8.987-4.343,4.874,9.358-8.969,4.42Z" transform="translate(-306.942 -434.929)"/>
            </g>
            <g id="Grupo_1012309" data-name="Grupo 1012309" transform="translate(32.015 22.502)">
              <path id="Trazado_730724" data-name="Trazado 730724" d="M158.341,218.07a2.913,2.913,0,0,0-.166,1.185,3.121,3.121,0,0,0,.345,1.229l2.477,4.84,154.9-64.377-2.318-4.213a3.509,3.509,0,0,0-.727-.911,3.4,3.4,0,0,0-.94-.6,2.979,2.979,0,0,0-1.038-.241,2.418,2.418,0,0,0-1.016.171l-92.209,37.664L160.009,216.36a3.031,3.031,0,0,0-1.04.7A2.866,2.866,0,0,0,158.341,218.07Z" transform="translate(-158.169 -154.98)" fill="#0b1e23"/>
            </g>
            <path id="Trazado_730725" data-name="Trazado 730725" d="M89.379,176.932a7.224,7.224,0,0,0-2.126,5.518,7.791,7.791,0,0,0,.843,3.107L165.05,337.606a8.812,8.812,0,0,0,2.135,2.729,8.448,8.448,0,0,0,2.868,1.613,8.155,8.155,0,0,0,3.224.377,8.067,8.067,0,0,0,3.205-.976l175.941-96.688a5.333,5.333,0,0,0,1.844-1.687,6.242,6.242,0,0,0,.956-2.356,7.671,7.671,0,0,0,.015-2.717,8.743,8.743,0,0,0-.983-2.775l-70.6-127.279a8.718,8.718,0,0,0-1.781-2.236,8.6,8.6,0,0,0-2.306-1.49,7.413,7.413,0,0,0-2.541-.62,5.912,5.912,0,0,0-2.492.381L161.37,148.107l-69.3,27.083A7.815,7.815,0,0,0,89.379,176.932Zm29.033,12.152a2.858,2.858,0,0,1,.628-1.01,3.027,3.027,0,0,1,1.04-.7l57.637-23.542,92.208-37.664a2.418,2.418,0,0,1,1.016-.171,2.98,2.98,0,0,1,1.038.241,3.41,3.41,0,0,1,.94.6,3.509,3.509,0,0,1,.727.911l2.318,4.213,17.283,31.4,36.9,67.038a3.488,3.488,0,0,1,.389,1.122,3.039,3.039,0,0,1-.021,1.095,2.489,2.489,0,0,1-.406.946,2.177,2.177,0,0,1-.764.673l-50.611,26.752-95.154,50.3a3.13,3.13,0,0,1-1.252.357,3.236,3.236,0,0,1-1.258-.166,3.369,3.369,0,0,1-1.121-.641,3.506,3.506,0,0,1-.837-1.068L121.069,196.338l-2.477-4.841a3.122,3.122,0,0,1-.345-1.229A2.9,2.9,0,0,1,118.412,189.083Z" transform="translate(-86.224 -103.491)" fill="#4b5a66"/>
          </g>
        </g>
        <g id="Grupo_1012312" data-name="Grupo 1012312" transform="translate(123.134 43.855)" opacity="0.3">
          <path id="Trazado_730726" data-name="Trazado 730726" d="M468.381,308.394l.06-.054a44.6,44.6,0,0,1,7.325-5.09l8.96-4.736a3.059,3.059,0,0,0,.734-5.215l-91.052-87.614a7.518,7.518,0,0,0-7.4-1.416l-10.1,4.125c-2.288.934-6,2.5-8.26,3.489s-2.651,3.2-.879,4.923l94.033,91.445A4.912,4.912,0,0,0,468.381,308.394Z" transform="translate(-366.665 -203.839)" fill="#fff"/>
        </g>
      </g>
      <g id="Grupo_1012314" data-name="Grupo 1012314" transform="translate(109.1 228.782)" opacity="0.5" style="mix-blend-mode: multiply;isolation: isolate">
        <path id="Trazado_730727" data-name="Trazado 730727" d="M203.141,503.724c.232-.02.463-.056.695-.1a87.288,87.288,0,0,0,.527-9.883c-.231-5.423-2.506-15.858-3.937-21.095-1.377-5.035-3.923-15.219-6.056-19.984-1.98-4.424-7.745-12.313-10.092-16.553-1.367-2.468-3.88-7.9-5.653-10.093-2.681-3.322-8.44-7.8-10.9-11.288-1.511-2.142-3.8-7.115-5.248-9.3-3.231-4.889-10.372-11.621-16.15-14.535a5.864,5.864,0,0,0-1.68-.546h0a6,6,0,0,0-4.388.663L194.914,499a8.818,8.818,0,0,0,2.135,2.729,8.466,8.466,0,0,0,2.091,1.315l-.017-.007q-.215-.1-.423-.2h0c.14.071.281.139.425.2l.023.009.022.009c.129.056.257.111.388.159-.126-.047-.25-.1-.374-.154.241.1.486.2.735.28A8.156,8.156,0,0,0,203.141,503.724Z" transform="translate(-140.258 -390.181)" fill="#4c5252"/>
      </g>
      <path id="Trazado_730728" data-name="Trazado 730728" d="M502.775,431.994c6.27,5.024,29.012,18.317,29.012,18.317l11.921-6.552-47.268-23.73s-1.981.6-1.874,2.3C494.781,425.742,500.107,429.856,502.775,431.994Z" transform="translate(-230.622 -178.202)" fill="#4c5252" opacity="0.5" style="mix-blend-mode: multiply;isolation: isolate"/>
      <g id="Grupo_1012316" data-name="Grupo 1012316" transform="translate(263.909 217.345)">
        <path id="Trazado_730729" data-name="Trazado 730729" d="M577.129,455.424c1.656-1.405.607-8.91.607-8.91l-11.293,2.776,2.024,8.074A10.062,10.062,0,0,0,577.129,455.424Z" transform="translate(-534.998 -410.458)" fill="#e87142"/>
        <path id="Trazado_730730" data-name="Trazado 730730" d="M560.364,427.3c-3.865-2.695-10.965-9.945-15.292-11.809-4.6-1.981-15.963-4.362-20.438-2.12-2.167,1.085-3.447,4.913-2.877,7.267.618,2.554,5.993,4.923,8.125,6.459,3.21,2.314,9.222,6.891,12.516,9.084,3.236,2.154,9.827,5.922,12.92,8.276,4.144,3.156,10.777,11.62,15.342,14.13,10.17,5.593,36.071,13.964,44.152,13.077a109.4,109.4,0,0,1,12.975.087,107.743,107.743,0,0,1,16.146,2.537,9.042,9.042,0,0,1,1.507.518,21.31,21.31,0,0,1,1.934,1.06,14.142,14.142,0,0,0,3.553,1.46v-51.6c-.177-.058-.359-.115-.528-.174-5.846-2.028-13.228-9.276-18.424-12.636-7.825-5.061-22.738-16.275-30.128-21.953-2.433-1.869-7.169-5.771-9.538-7.721-4.916-4.047-13.406-14.606-19.53-16.351-1.8-.513-4.953.671-6.813.454-2.262-.264-6.807-3.33-9.084-3.331-3.9,0-6.392,4.262-8.781,4.542-2.412.283-3.759-2.648-8.327-1.816-2.772.5-6.061,7.916-7.57,10.3-1.665,2.624-6.359,9.689-6.359,9.689s-6.938-1.319-9.236-1.665c-4.872-.736-14.325-3.283-19.984-3.028-1.15.052-2.281,3.554-2.12,4.694.423,3,5.212,6.829,8.932,8.175,2.074.75,6.46,1.536,8.479,2.423,1.991.874,5.424,3.068,7.418,3.936,2.45,1.068,7.843,2.42,10.3,3.482,2.478,1.073,6.861,4.317,9.235,5.6,2.694,1.458,8.442,3.693,11.052,5.3a99.117,99.117,0,0,1,13.172,10.143c1.384,1.358,5.525,5.195,4.845,6.056C567.935,431.837,562.174,428.558,560.364,427.3ZM541.5,389.367l11.011,2.873,3.882,4.573Z" transform="translate(-494.491 -364.011)" fill="#ffa969"/>
        <g id="Grupo_1012315" data-name="Grupo 1012315" transform="translate(0 21.334)">
          <path id="Trazado_730731" data-name="Trazado 730731" d="M560.364,454.778c-3.865-2.695-10.965-9.945-15.292-11.809-4.6-1.981-15.964-4.362-20.438-2.12a5.021,5.021,0,0,0-2.036,2.2,7.348,7.348,0,0,1,4.233-1.607c3.4-.225,10.062,2.046,13.184,3.4a60.115,60.115,0,0,1,9.675,6.167c2.809,2.207,7.387,6.005,10.313,8.055,3.252,2.278,29.531,15.07,28.494,14.06-.621-.6-8.533-3.84-10.625-5.782-1.945-1.805-16.75-19.169-19.145-21.617-1.889-1.931-19.437-15.644-38.383-20.521-2.456-.632-6.982-3.305-9.313-4.3-2.537-1.086-7.349-2.01-10.039-2.625-2.613-.6-6.032-3.294-6.346-5.453a4.28,4.28,0,0,0-.14,1.376c.423,3,5.211,6.829,8.931,8.175,2.074.75,6.46,1.536,8.479,2.423,1.991.874,5.425,3.068,7.419,3.936,2.45,1.068,7.844,2.42,10.3,3.482,2.477,1.073,6.86,4.317,9.235,5.6,2.694,1.458,8.442,3.693,11.052,5.3a99.149,99.149,0,0,1,13.172,10.143c1.383,1.358,5.526,5.195,4.844,6.056C567.934,459.319,562.175,456.04,560.364,454.778Z" transform="translate(-494.491 -412.827)" fill="#ff8a54"/>
        </g>
        <path id="Trazado_730732" data-name="Trazado 730732" d="M658.215,370.807a14.454,14.454,0,0,1-1.842.195,18.606,18.606,0,0,1-2.318-.531s11.927,9.1,16.438,12.08C672.342,383.77,658.215,370.807,658.215,370.807Z" transform="translate(-584.32 -367.647)" fill="#ff8a54"/>
        <path id="Trazado_730733" data-name="Trazado 730733" d="M631.035,378.6c-2.788-1.8-10.874-8.135-10.874-8.135s-.866.713-1.187.9c-.427.254-1.812.815-1.812.815s10.4,5.825,13.818,7.851c3.161,1.874,8.14,4.625,11.291,6.515C644.729,388.029,635.391,381.411,631.035,378.6Z" transform="translate(-563.551 -367.647)" fill="#ff8a54"/>
        <path id="Trazado_730734" data-name="Trazado 730734" d="M591.363,406.217c2.224.391,7.052,1.75,7.052,1.75a39.856,39.856,0,0,0,4.6,4.527,11.021,11.021,0,0,0,6.049,1.319c1.533-.271,4.962-3.027,3.68-3.908-4.289-2.95-10.893-8.72-15.224-11.148-3.263-1.829-11.39-9.18-13.626-6.181C581.02,396.44,577.321,403,577.321,403l7.275,1,3.026.836A38.721,38.721,0,0,0,591.363,406.217Z" transform="translate(-541.122 -379.693)" fill="#ff8a54"/>
        <path id="Trazado_730735" data-name="Trazado 730735" d="M568.887,490.531c.632-.833,2.766-2.839,2.614-3.874-.413-2.838-6.558-5.861-9.425-5.933-1.473-.037-4.27,0-5.234,2.154a4.921,4.921,0,0,0,.559,4.82c2.357,2.45,6.447,5.124,9.438,5.666C567.7,493.521,568.358,491.227,568.887,490.531Z" transform="translate(-529.379 -429.714)" fill="#ffc69f"/>
        <path id="Trazado_730736" data-name="Trazado 730736" d="M505.2,409.089a2.551,2.551,0,0,0,.715-1.687c.154-.974.434-2.022.434-2.022a59.14,59.14,0,0,0-9.489-1.676,1.982,1.982,0,0,0-1.177,3.633C497.677,408.781,503.1,410.361,505.2,409.089Z" transform="translate(-494.65 -386.355)" fill="#ffc69f"/>
      </g>
      <g id="Grupo_1012318" data-name="Grupo 1012318" transform="translate(85.357 217.337)">
        <path id="Trazado_730737" data-name="Trazado 730737" d="M159.733,523.5s3.451-34.819,4.119-41c.37-3.428,4.689-17.731,2.351-31.62-2.823-16.763-20.522-39.83-25.84-48.19-2.291-3.6-6.149-10.549-8.608-14.037-1.512-2.142-3.8-7.115-5.249-9.3-3.23-4.889-10.372-11.621-16.15-14.534-4.154-2.1-9.285,1.412-8.881,5.046a1.238,1.238,0,0,1-.605,1.413c-4.846,2.826-5.819,6.228-7.268,8.947-1.841,3.454-3.3,11.431-4.037,15.276-.488,2.559-1.158,7.731-1.615,10.3-.316,1.773-1.421,5.87-1.412,7.671.014,3.2,2.382,8.734,2.018,11.91-.177,1.548-2.663,4.7-2.624,6.258.081,3.25,4.62,8.372,6.662,10.9,7.361,9.114,21.712,23.031,26.041,32.5a21.085,21.085,0,0,1,1.413,7.671c-1.239,16.618,3.651,20.3-4.486,40.8Z" transform="translate(-85.93 -364.103)" fill="#ffa969"/>
        <path id="Trazado_730738" data-name="Trazado 730738" d="M127.786,408.075c-4.567-1.091-.665-.094,5.33,8.308.926,1.3,1.336,5.469,2.839,4.931,2.394-.857.949-6.6,0-8.96-1.218-3.028-5.8-8.071-7.831-10.63-1.882-2.375-5.549-7.326-6.592-10.171-1.038-2.825-2.706-8.551-2.153-10.893.517-2.189-1.607,1.477-.915,6.144.795,5.356,3.472,15.837,5.208,17.208C127.185,406.783,129.131,408.4,127.786,408.075Z" transform="translate(-104.167 -373.009)" fill="#ff8a54"/>
        <path id="Trazado_730739" data-name="Trazado 730739" d="M87.232,477.124c-.018-.117-.019-.1,0,0Z" transform="translate(-86.655 -427.636)" fill="#ff8a54"/>
        <path id="Trazado_730740" data-name="Trazado 730740" d="M87.25,477.231c.01.067.027.175.048.328a27.99,27.99,0,0,0,2.1,7.391c1.532,2.7,7.559,6.909,9.984,4.969,2.05-1.64-3.668-4.424-6.264-4.8C88.746,484.482,87.4,478.026,87.25,477.231Z" transform="translate(-86.673 -427.743)" fill="#ff8a54"/>
        <path id="Trazado_730741" data-name="Trazado 730741" d="M121.562,369.332c.127,3.039,2.642,8.907,5.515,9.906,1.218.424,4.285-1.855,5.408-2.489,1.214-.685,3.667-1.4,3.822-2.785.353-3.172-4.491-8.977-7.574-9.8C125.611,363.322,121.412,365.717,121.562,369.332Z" transform="translate(-105.988 -363.992)" fill="#ffc69f"/>
        <g id="Grupo_1012317" data-name="Grupo 1012317" transform="translate(25.427 17.27)">
          <path id="Trazado_730742" data-name="Trazado 730742" d="M153.315,412.443c-1.141.448-4.688,2.733-4.659,3.793.013.5,7.85-3.31,10-5.342C160.5,409.147,154.63,411.925,153.315,412.443Z" transform="translate(-146.67 -407.345)" fill="#ff8a54"/>
          <path id="Trazado_730743" data-name="Trazado 730743" d="M148.771,405.628c-1.141.448-4.688,2.733-4.659,3.793.014.5,7.852-3.311,10-5.343C155.952,402.332,150.086,405.11,148.771,405.628Z" transform="translate(-144.112 -403.508)" fill="#ff8a54"/>
        </g>
      </g>
      <path id="Trazado_730744" data-name="Trazado 730744" d="M124.987,545.572c4.583-23.846-22.607-53.753-26.535-57.154s-9.79-3.029-11.894-10.406c.212,3.246,2.343,8.416,2,11.444-.177,1.548-2.663,4.7-2.624,6.258.081,3.25,4.62,8.372,6.662,10.9,7.361,9.114,21.712,23.031,26.041,32.5a21.094,21.094,0,0,1,1.413,7.671c-1.175,15.753,6.348,12.245-3.071,37.133C123.715,566.421,120.947,566.593,124.987,545.572Z" transform="translate(-0.573 -210.845)" fill="#ff8a54"/>
      <path id="Trazado_730745" data-name="Trazado 730745" d="M87.877,446.027c3.31-.065,5.687-.2,5.687-.2,1.119-4.01,4.508-4.664.79-6.9s-4.139-6.728-3.108-15.206,1.343-22.3,4.395-28.619c-.451.879-.835,1.733-1.259,2.528-1.841,3.454-3.3,11.431-4.037,15.276-.488,2.559-1.158,7.731-1.615,10.3-.316,1.773-1.421,5.87-1.412,7.671.014,3.2,2.382,8.734,2.018,11.91A12.048,12.048,0,0,1,87.877,446.027Z" transform="translate(-1.355 -164.167)" fill="#ff8a54"/>
      <g id="Grupo_1012319" data-name="Grupo 1012319" transform="translate(91.303 224.299)">
        <path id="Trazado_730746" data-name="Trazado 730746" d="M100.535,418.132c-.035.219-.028.188,0,0Z" transform="translate(-100.085 -401.434)" fill="#ff8a54"/>
        <path id="Trazado_730747" data-name="Trazado 730747" d="M120.758,379.923c0,.047,0,.1,0,.152C120.822,380.031,120.758,379.923,120.758,379.923Z" transform="translate(-111.482 -379.923)" fill="#ff8a54"/>
        <path id="Trazado_730748" data-name="Trazado 730748" d="M100.055,396.383c.45-2.733,7.9-5.943,9.9,0s3.118-.336,1.225-4.134a24.007,24.007,0,0,1-2.367-11.979c-.031.021-.087.029-.2,0-.028.019-.054.039-.085.057-4.846,2.826-5.819,6.228-7.268,8.947a25.064,25.064,0,0,0-1.726,4.729h0c1.1-2.024.573,1.961.449,2.81C100,396.721,100.022,396.583,100.055,396.383Z" transform="translate(-99.535 -380.118)" fill="#ff8a54"/>
      </g>
      <g id="Grupo_1012320" data-name="Grupo 1012320" transform="translate(127.885 170.689)" opacity="0.3">
        <path id="Trazado_730749" data-name="Trazado 730749" d="M185.276,272.726c-2.288.934-2.71,3.108-.938,4.831L278.371,369a6.6,6.6,0,0,0,7.193,1.033l17.352-9.172,7.944-4.2,8.96-4.736a3.059,3.059,0,0,0,.734-5.215L229.5,259.1a7.519,7.519,0,0,0-7.4-1.416l-10.1,4.125-8.319,3.4Z" transform="translate(-183.242 -257.252)" fill="#fff"/>
      </g>
    </g>
  </g>
</svg>
