<svg xmlns="http://www.w3.org/2000/svg" xmlns:xlink="http://www.w3.org/1999/xlink" width="400" height="485" viewBox="0 0 400 485">
  <defs>
    <clipPath id="clip-path">
      <path id="oleoducto-produccion-petroleo-gas-industria-costa-afuera" d="M20,0H380a20,20,0,0,1,20,20V465a20,20,0,0,1-20,20H20A20,20,0,0,1,0,465V20A20,20,0,0,1,20,0Z" transform="translate(-6929 -8953)" fill="#3076b6"/>
    </clipPath>
  </defs>
  <g id="Enmascarar_grupo_998584" data-name="Enmascarar grupo 998584" transform="translate(6929 8953)" clip-path="url(#clip-path)">
    <g id="Grupo_1007491" data-name="Grupo 1007491" transform="translate(-7271.321 -7861.113)">
      <rect id="Rect치ngulo_347951" data-name="Rect치ngulo 347951" width="485.853" height="485.854" transform="translate(292.219 -1091.887)" fill="#00a3e5"/>
      <path id="Trazado_721139" data-name="Trazado 721139" d="M564.991-777.684A153.594,153.594,0,0,0,466.87-774.6c-26.754,9.948-77.669,26.825-114.489,20.776C289.608-764.132,232.772-876.35,274.8-959.4s107.92-112.854,180.377-97.3,89.252,82.5,157.624,67.217,102.419-9.651,125.416,16.2S803.278-777.3,693.519-765.222C629.356-758.162,595.071-768.6,564.991-777.684Z" transform="translate(17.907 58.887)" fill="#ffecdb"/>
      <g id="Grupo_1007457" data-name="Grupo 1007457" transform="translate(283.106 -878.237)">
        <g id="Grupo_1007455" data-name="Grupo 1007455" transform="translate(59.753 0)">
          <path id="Trazado_721140" data-name="Trazado 721140" d="M393.118-793.632s-2.98-77.963-43.26-116.071c0,0,29.889,30.171,39.795,116.353Z" transform="translate(-332.915 923.696)" fill="#ffd0aa"/>
          <path id="Trazado_721141" data-name="Trazado 721141" d="M353.879-905.7s.884-15.111-12.007-18.818S339.625-911.987,353.879-905.7Z" transform="translate(-331.689 925.062)" fill="#ffd0aa"/>
          <path id="Trazado_721142" data-name="Trazado 721142" d="M359.871-893.943s-23.1-15.223-27.961-6.467S350.806-890.8,359.871-893.943Z" transform="translate(-331.261 923.11)" fill="#ffd0aa"/>
          <path id="Trazado_721143" data-name="Trazado 721143" d="M366.917-878.808s-24.789-14.125-29.935-3.568S363.748-874.658,366.917-878.808Z" transform="translate(-331.72 921.613)" fill="#ffd0aa"/>
          <path id="Trazado_721144" data-name="Trazado 721144" d="M374.724-860.33s-22.459-12.056-28.286-2.789S369.714-854.589,374.724-860.33Z" transform="translate(-332.543 919.863)" fill="#ffd0aa"/>
          <path id="Trazado_721145" data-name="Trazado 721145" d="M380.043-843.622s-24.317-11.281-25.159-1.554S380.043-843.622,380.043-843.622Z" transform="translate(-333.361 918.307)" fill="#ffd0aa"/>
          <path id="Trazado_721146" data-name="Trazado 721146" d="M385-828.372s-21.016-13.23-22.825-2.994S385-828.372,385-828.372Z" transform="translate(-334.002 917.073)" fill="#ffd0aa"/>
          <path id="Trazado_721147" data-name="Trazado 721147" d="M387.77-815.451s-19.615-12.529-20.4-3.865S387.77-815.451,387.77-815.451Z" transform="translate(-334.471 915.927)" fill="#ffd0aa"/>
          <path id="Trazado_721148" data-name="Trazado 721148" d="M362.649-895.4s-1.8-25.654,6.882-24.054S371.148-901.955,362.649-895.4Z" transform="translate(-334.039 924.57)" fill="#ffd0aa"/>
          <path id="Trazado_721149" data-name="Trazado 721149" d="M371.164-879.833s-.529-27.151,12-24.9S371.164-879.833,371.164-879.833Z" transform="translate(-334.81 923.266)" fill="#ffd0aa"/>
          <path id="Trazado_721150" data-name="Trazado 721150" d="M378.893-862.484s2.96-27.964,14.332-22.836S378.893-862.484,378.893-862.484Z" transform="translate(-335.498 921.582)" fill="#ffd0aa"/>
          <path id="Trazado_721151" data-name="Trazado 721151" d="M385.1-844.881s1.971-24.76,12.358-19.937S385.1-844.881,385.1-844.881Z" transform="translate(-336.05 919.758)" fill="#ffd0aa"/>
          <path id="Trazado_721152" data-name="Trazado 721152" d="M388.921-830s6.386-20.7,14.4-16.067S395.614-829.825,388.921-830Z" transform="translate(-336.39 918.095)" fill="#ffd0aa"/>
          <path id="Trazado_721153" data-name="Trazado 721153" d="M391.076-817.571s11.183-21.378,15.954-12.349S391.076-817.571,391.076-817.571Z" transform="translate(-336.582 916.797)" fill="#ffd0aa"/>
        </g>
        <g id="Grupo_1007456" data-name="Grupo 1007456" transform="translate(14.532 97.735)">
          <path id="Trazado_721154" data-name="Trazado 721154" d="M394.408-777.471s-54.782-29.583-97.313-17.365c0,0,32.86-8.3,96.1,19.862Z" transform="translate(-283 816.006)" fill="#ffd0aa"/>
          <path id="Trazado_721155" data-name="Trazado 721155" d="M301.537-796.39s-10.024-6.738-17.8.616S291.434-789.147,301.537-796.39Z" transform="translate(-281.624 816.132)" fill="#ffd0aa"/>
          <path id="Trazado_721156" data-name="Trazado 721156" d="M312.143-796.59s-19.834,9.7-15.789,16.59S310.623-789.087,312.143-796.59Z" transform="translate(-282.886 815.899)" fill="#ffd0aa"/>
          <path id="Trazado_721157" data-name="Trazado 721157" d="M325.449-795.486s-19.764,11.3-14.6,19.123S327.014-791.624,325.449-795.486Z" transform="translate(-284.147 815.801)" fill="#ffd0aa"/>
          <path id="Trazado_721158" data-name="Trazado 721158" d="M341.319-793.3s-17.4,10.542-13.393,18.306S343.231-787.532,341.319-793.3Z" transform="translate(-285.689 815.606)" fill="#ffd0aa"/>
          <path id="Trazado_721159" data-name="Trazado 721159" d="M354.883-789.951s-17.618,12.133-11.276,16.658S354.883-789.951,354.883-789.951Z" transform="translate(-287.015 815.308)" fill="#ffd0aa"/>
          <path id="Trazado_721160" data-name="Trazado 721160" d="M367.371-786.962s-17.619,9.074-11.318,14.47S367.371-786.962,367.371-786.962Z" transform="translate(-288.124 815.042)" fill="#ffd0aa"/>
          <path id="Trazado_721161" data-name="Trazado 721161" d="M377.337-783.456s-16.567,8.4-10.932,12.449S377.337-783.456,377.337-783.456Z" transform="translate(-289.061 814.73)" fill="#ffd0aa"/>
          <path id="Trazado_721162" data-name="Trazado 721162" d="M312.324-798.138s-18.359-9.172-13.738-14.488S311.268-806.637,312.324-798.138Z" transform="translate(-283.067 817.447)" fill="#ffd0aa"/>
          <path id="Trazado_721163" data-name="Trazado 721163" d="M326.612-798.01s-18.872-10.652-12.244-18.351S326.612-798.01,326.612-798.01Z" transform="translate(-284.411 817.784)" fill="#ffd0aa"/>
          <path id="Trazado_721164" data-name="Trazado 721164" d="M341.727-796.363s-18.015-13.38-9.877-19.114S341.727-796.363,341.727-796.363Z" transform="translate(-285.904 817.655)" fill="#ffd0aa"/>
          <path id="Trazado_721165" data-name="Trazado 721165" d="M356.275-793.35s-16.215-11.4-8.686-16.581S356.275-793.35,356.275-793.35Z" transform="translate(-287.314 817.156)" fill="#ffd0aa"/>
          <path id="Trazado_721166" data-name="Trazado 721166" d="M368.14-790.046s-11.633-12.786-5.2-16.416S370.976-794.574,368.14-790.046Z" transform="translate(-288.685 816.825)" fill="#ffd0aa"/>
          <path id="Trazado_721167" data-name="Trazado 721167" d="M377.6-786.474s-10.154-16.359-2.013-15.974S377.6-786.474,377.6-786.474Z" transform="translate(-289.701 816.42)" fill="#ffd0aa"/>
        </g>
        <path id="Trazado_721168" data-name="Trazado 721168" d="M390.1-785.714a261.425,261.425,0,0,0-21.1-27.1c4.057-3.781,14.3-14.432,6.527-19.157-7.445-4.53-8.173,10.533-8.135,17.348-2.09-2.332-4.3-4.727-6.635-7.154,6.084-5.268,12.564-22.292,3.156-22.159-7.823.111-6.248,13.883-5.131,20.124-2.941-3-6.054-6.029-9.325-9.037,2.535-5.761,10.308-25.127-.3-24.027-9.363.971-4.884,14.979-2.089,21.864-3.711-3.32-7.607-6.593-11.675-9.738,2.808-6.662,11.372-28.914-.153-27.588-10.491,1.207-5.125,18.212-2.173,25.817-4.274-3.2-8.726-6.247-13.329-9.057,1.943-7.274,7.926-32.358-3.225-28.152-10.041,3.788-2.995,19.627.753,26.676a133.405,133.405,0,0,0-12.939-6.67c3.775-11.022,1.366-28.645-7.4-25.387-7.55,2.807,2.393,19.339,5.883,24.723a109.259,109.259,0,0,0-10.477-3.895c.031,0,.062-.006.093-.01,0,0-7.634-14.673-21.8-10.932-13.7,3.618,3.688,12.409,20.128,11.1a116.859,116.859,0,0,1,11.046,5.391c-6.883-.065-28,.481-27.711,9.639.333,10.595,21.7-.805,29.176-8.823,3.925,2.216,8.4,4.974,13.336,8.382-5.62.264-29.881,2.063-28.921,13.373,1.042,12.3,27.321-6.238,29.885-12.707,4.52,3.155,9.425,6.857,14.657,11.174-5.722.457-26.4,2.821-26.637,13.125-.267,11.471,24.455-3.691,27.784-12.177Q339.174-835.9,345.49-830c-4.851.6-27.741,3.935-23.572,12.525,4.234,8.725,20.994-8.848,24.008-12.116q5.043,4.749,10.366,10.222c-6.183.1-24.46,1.121-21.1,9.972,3.481,9.16,18.132-4.9,22.093-8.934q3.978,4.135,8.094,8.7c-5.583.006-23.111.591-19.639,7.817,3.552,7.392,16.822-3.767,20.4-6.972,6.715,7.5,13.689,15.894,20.858,25.274Z" transform="translate(-265.674 921.9)" fill="#f3795a"/>
      </g>
      <g id="Grupo_1007458" data-name="Grupo 1007458" transform="translate(486.695 -901.049)">
        <path id="Trazado_721169" data-name="Trazado 721169" d="M583.521-795.376s-23.274.536-34-12.561-10.078-16.848-15.035-24.731S522.9-844.86,522.446-854.421s-3.31-25.51-12.464-35.525-4.974-32.121-8.955-41.591S489.14-950.1,489.14-950.1s19.614,2.342,32.191,10.842,30.283,15.78,35.345,25.087,9.664,19.235,18.714,27.826,8.674,22.927,12.549,30.974,10.347,19.352,8.844,32.088S583.521-795.376,583.521-795.376Z" transform="translate(-489.14 950.101)" fill="#f3795a"/>
        <path id="Trazado_721170" data-name="Trazado 721170" d="M593.921-776.294a299.663,299.663,0,0,0-7.785-32.013l8.347-29.032-9.358,25.686c-2.274-7.419-5.046-15.6-8.382-24.128l5.682-29.286L574.812-840.6c-3.222-7.852-6.919-15.926-11.138-23.922l2.753-25.794-4.694,22.186a207.775,207.775,0,0,0-12.695-20.337l2.5-23.392-4.769,20.271a138.043,138.043,0,0,0-29.021-29.4s12.539,9.78,28.408,35.709L521.6-891.054l26.064,8.262c3.988,6.688,8.163,14.388,12.385,23.188l-35.159-11.915,36.632,15.026c3.186,6.821,6.389,14.264,9.55,22.392L532.585-847l39.937,16.7q4.5,11.911,8.8,25.71L547.4-814.935l35.213,14.6q3.534,11.8,6.815,25Z" transform="translate(-491.685 947.512)" fill="#f9b8ac"/>
      </g>
      <g id="Grupo_1007459" data-name="Grupo 1007459" transform="translate(354.947 -942.178)">
        <path id="Trazado_721171" data-name="Trazado 721171" d="M443.309-843.292s-23.248,1.2-34.347-11.58-10.557-16.552-15.738-24.29-11.932-11.854-12.657-21.4-4.04-25.4-13.478-35.153-5.894-31.964-10.144-41.316-12.416-18.217-12.416-18.217,19.673,1.778,32.489,9.914,30.723,14.906,36.05,24.063,10.213,18.95,19.5,27.278,9.328,22.669,13.433,30.6,10.9,19.048,9.761,31.821S443.309-843.292,443.309-843.292Z" transform="translate(-344.529 995.246)" fill="#007e79"/>
        <path id="Trazado_721172" data-name="Trazado 721172" d="M454.253-824.516a299.572,299.572,0,0,0-8.7-31.776l7.511-29.261-8.617,25.945c-2.486-7.351-5.491-15.444-9.071-23.878l4.84-29.436-6.909,24.677c-3.447-7.756-7.374-15.722-11.82-23.594L423.5-937.7l-4.055,22.311a208.1,208.1,0,0,0-13.272-19.965L408-958.81l-4.186,20.4a138.021,138.021,0,0,0-29.852-28.557s12.814,9.417,29.42,34.88l-24.718-5.068,26.291,7.512c4.178,6.57,8.572,14.148,13.045,22.823l-35.487-10.9,37.049,13.969c3.38,6.725,6.8,14.074,10.188,22.107l-38.84-11.794,40.4,15.542q4.835,11.778,9.532,25.448l-34.2-9.36,35.618,13.582q3.87,11.692,7.528,24.791Z" transform="translate(-347.147 992.73)" fill="#00605c"/>
      </g>
      <g id="Grupo_1007460" data-name="Grupo 1007460" transform="translate(578.288 -932.943)">
        <path id="Trazado_721173" data-name="Trazado 721173" d="M606.41-802.033s27.094-.134,39.149-15.719,11.176-19.928,16.687-29.261,13.084-14.56,13.3-25.7,3.021-29.786,13.345-41.734,4.743-37.531,9.065-48.677,13.226-21.986,13.226-21.986-22.743,3.364-37.1,13.661-34.717,19.344-40.3,30.335-10.618,22.692-20.867,32.982-9.346,26.955-13.592,36.442-11.407,22.852-9.245,37.619S606.41-802.033,606.41-802.033Z" transform="translate(-589.676 985.11)" fill="#007e79"/>
        <path id="Trazado_721174" data-name="Trazado 721174" d="M598.344-779.5a348.913,348.913,0,0,1,8.016-37.5l-10.655-33.5,11.721,29.579c2.405-8.705,5.364-18.308,8.968-28.344l-7.564-33.885,9.654,28.219c3.494-9.24,7.533-18.754,12.181-28.193l-4.042-29.92,6.182,25.657a242.191,242.191,0,0,1,14.107-24.073l-3.673-27.133,6.209,23.428c9.293-13.247,20.152-25.372,32.806-35.148,0,0-14.269,11.785-31.889,42.469l28.388-7.517L648.7-904.9c-4.422,7.911-9.029,17-13.655,27.38l40.516-15.005L633.431-873.85c-3.485,8.038-6.969,16.8-10.381,26.36L667.4-863.754l-45.92,20.723q-4.843,14-9.4,30.2l39.123-13.128-40.492,18.128q-3.728,13.842-7.114,29.3Z" transform="translate(-590.212 982.014)" fill="#00605c"/>
      </g>
      <g id="Grupo_1007461" data-name="Grupo 1007461" transform="translate(588.144 -850.289)">
        <path id="Trazado_721175" data-name="Trazado 721175" d="M619.8-787.071s22.991,14.335,41.5,7.579,20.082-10.9,29.72-15.854,18.833-5.34,24.953-14.649,18.44-23.587,33.545-28.189,24.026-29.22,33.626-36.344,22.914-11.547,22.914-11.547-21.033-9.283-38.669-8.227-39.685-2.149-50.272,4.17-21.083,13.534-35.24,16.773-22.28,17.819-30.931,23.581-21.837,13.248-27.882,26.893S619.8-787.071,619.8-787.071Z" transform="translate(-602.155 894.385)" fill="#f3795a"/>
        <path id="Trazado_721176" data-name="Trazado 721176" d="M600.494-774.377a348.8,348.8,0,0,1,26.776-27.446l8.854-34.025-5.858,31.273c6.677-6.082,14.3-12.627,22.7-19.195l11.671-32.7-6.881,29.019C665.638-833.4,674.129-839.3,683.1-844.8l12.536-27.466-8.453,25A241.944,241.944,0,0,1,711.95-860.11l11.361-24.912-7.241,23.13c14.926-6.251,30.578-10.717,46.5-12.24,0,0-18.356,2.362-49.623,18.922l28.024,8.779-31-7.178c-7.959,4.334-16.706,9.571-26.151,15.88l42.275,8.913-45.6-6.67c-7.235,4.941-14.856,10.5-22.839,16.763l46.193,9.894-49.9-6.958q-11.565,9.264-24.055,20.532l40.1,9.757-43.922-6.257q-10.535,9.72-21.644,20.993Z" transform="translate(-600.494 893.552)" fill="#f9b8ac"/>
      </g>
      <g id="Grupo_1007462" data-name="Grupo 1007462" transform="translate(694.38 -814.314)">
        <path id="Trazado_721177" data-name="Trazado 721177" d="M719.34-776.368s11.742-50.072,42.6-69.661c0,0-23.139,15.76-40.4,70.28Z" transform="translate(-717.302 854.109)" fill="#80cccb"/>
        <path id="Trazado_721178" data-name="Trazado 721178" d="M761.635-843.986s1.331-9.889,10.138-10.665S771.649-846.26,761.635-843.986Z" transform="translate(-721.064 854.88)" fill="#80cccb"/>
        <path id="Trazado_721179" data-name="Trazado 721179" d="M755.72-837.183s16.865-6.942,18.908-.665S761.191-834.009,755.72-837.183Z" transform="translate(-720.538 853.615)" fill="#80cccb"/>
        <path id="Trazado_721180" data-name="Trazado 721180" d="M749.157-828.31s17.818-6.019,19.82,1.459S750.686-825.226,749.157-828.31Z" transform="translate(-719.954 852.737)" fill="#80cccb"/>
        <path id="Trazado_721181" data-name="Trazado 721181" d="M741.886-817.343s16.05-4.974,18.654,1.756S744.4-813,741.886-817.343Z" transform="translate(-719.307 851.715)" fill="#80cccb"/>
        <path id="Trazado_721182" data-name="Trazado 721182" d="M736.595-807.165S753.75-811.4,753.07-805,736.595-807.165,736.595-807.165Z" transform="translate(-718.837 850.775)" fill="#80cccb"/>
        <path id="Trazado_721183" data-name="Trazado 721183" d="M731.6-797.9s15.265-5.915,15.146.937S731.6-797.9,731.6-797.9Z" transform="translate(-718.392 850.039)" fill="#80cccb"/>
        <path id="Trazado_721184" data-name="Trazado 721184" d="M728.332-789.869s14.269-5.638,13.686.067S728.332-789.869,728.332-789.869Z" transform="translate(-718.102 849.335)" fill="#80cccb"/>
        <path id="Trazado_721185" data-name="Trazado 721185" d="M755.253-838.466s4.395-16.373-1.424-16.432S750.579-843.777,755.253-838.466Z" transform="translate(-720.071 854.898)" fill="#80cccb"/>
        <path id="Trazado_721186" data-name="Trazado 721186" d="M747.522-829.522s3.761-17.5-4.63-17.625S747.522-829.522,747.522-829.522Z" transform="translate(-719.146 854.209)" fill="#80cccb"/>
        <path id="Trazado_721187" data-name="Trazado 721187" d="M740.223-819.279s1.6-18.467-6.4-16.58S740.223-819.279,740.223-819.279Z" transform="translate(-718.375 853.217)" fill="#80cccb"/>
        <path id="Trazado_721188" data-name="Trazado 721188" d="M734.128-808.646s1.841-16.271-5.486-14.457S734.128-808.646,734.128-808.646Z" transform="translate(-717.928 852.082)" fill="#80cccb"/>
        <path id="Trazado_721189" data-name="Trazado 721189" d="M729.689-799.525s-1.526-14.2-7.3-12.21S725.336-800.254,729.689-799.525Z" transform="translate(-717.403 851.076)" fill="#80cccb"/>
        <path id="Trazado_721190" data-name="Trazado 721190" d="M726.717-791.763s-4.546-15.241-8.77-10S726.717-791.763,726.717-791.763Z" transform="translate(-717.103 850.269)" fill="#80cccb"/>
      </g>
      <g id="Grupo_1007463" data-name="Grupo 1007463" transform="translate(697.258 -757.9)">
        <path id="Trazado_721191" data-name="Trazado 721191" d="M720.262-770.291s30.827-16.648,54.759-9.772c0,0-18.491-4.669-54.077,11.177Z" transform="translate(-720.262 791.975)" fill="#80cccb"/>
        <path id="Trazado_721192" data-name="Trazado 721192" d="M776.774-780.937s5.641-3.792,10.018.346S782.46-776.861,776.774-780.937Z" transform="translate(-725.289 792.046)" fill="#80cccb"/>
        <path id="Trazado_721193" data-name="Trazado 721193" d="M771-781.049s11.161,5.457,8.885,9.335S771.859-776.826,771-781.049Z" transform="translate(-724.776 791.914)" fill="#80cccb"/>
        <path id="Trazado_721194" data-name="Trazado 721194" d="M763.556-780.428s11.121,6.361,8.214,10.761S762.675-778.255,763.556-780.428Z" transform="translate(-724.106 791.859)" fill="#80cccb"/>
        <path id="Trazado_721195" data-name="Trazado 721195" d="M754.7-779.2s9.789,5.932,7.537,10.3S753.626-775.952,754.7-779.2Z" transform="translate(-723.315 791.75)" fill="#80cccb"/>
        <path id="Trazado_721196" data-name="Trazado 721196" d="M747.155-777.313s9.914,6.827,6.345,9.374S747.155-777.313,747.155-777.313Z" transform="translate(-722.654 791.582)" fill="#80cccb"/>
        <path id="Trazado_721197" data-name="Trazado 721197" d="M740.126-775.631s9.914,5.105,6.369,8.143S740.126-775.631,740.126-775.631Z" transform="translate(-722.029 791.432)" fill="#80cccb"/>
        <path id="Trazado_721198" data-name="Trazado 721198" d="M734.55-773.658s9.323,4.724,6.151,7.005S734.55-773.658,734.55-773.658Z" transform="translate(-721.533 791.257)" fill="#80cccb"/>
        <path id="Trazado_721199" data-name="Trazado 721199" d="M771-781.92s10.332-5.161,7.73-8.153S771.6-786.7,771-781.92Z" transform="translate(-724.776 792.786)" fill="#80cccb"/>
        <path id="Trazado_721200" data-name="Trazado 721200" d="M763.008-781.847s10.62-5.995,6.89-10.327S763.008-781.847,763.008-781.847Z" transform="translate(-724.065 792.975)" fill="#80cccb"/>
        <path id="Trazado_721201" data-name="Trazado 721201" d="M754.595-780.921s10.137-7.529,5.557-10.756S754.595-780.921,754.595-780.921Z" transform="translate(-723.316 792.903)" fill="#80cccb"/>
        <path id="Trazado_721202" data-name="Trazado 721202" d="M746.48-779.226s9.124-6.416,4.888-9.33S746.48-779.226,746.48-779.226Z" transform="translate(-722.594 792.622)" fill="#80cccb"/>
        <path id="Trazado_721203" data-name="Trazado 721203" d="M739.924-777.367s6.546-7.2,2.925-9.237S738.328-779.915,739.924-777.367Z" transform="translate(-721.944 792.436)" fill="#80cccb"/>
        <path id="Trazado_721204" data-name="Trazado 721204" d="M734.66-775.357s5.713-9.205,1.133-8.988S734.66-775.357,734.66-775.357Z" transform="translate(-721.432 792.208)" fill="#80cccb"/>
      </g>
      <g id="Grupo_1007464" data-name="Grupo 1007464" transform="translate(698.126 -798.935)">
        <path id="Trazado_721205" data-name="Trazado 721205" d="M721.214-774.275s28.028-43.123,63.7-51.084c0,0-27.112,6.979-61.836,52.415Z" transform="translate(-721.214 836.891)" fill="#007e79"/>
        <path id="Trazado_721206" data-name="Trazado 721206" d="M785.886-824.65s4.605-8.851,13.154-6.594S796.078-823.393,785.886-824.65Z" transform="translate(-726.967 837.447)" fill="#007e79"/>
        <path id="Trazado_721207" data-name="Trazado 721207" d="M778.26-820.26s18.219-.812,18.012,5.786S782.331-815.42,778.26-820.26Z" transform="translate(-726.288 836.44)" fill="#007e79"/>
        <path id="Trazado_721208" data-name="Trazado 721208" d="M769.11-814.227s18.8.38,18.15,8.094S769.5-810.808,769.11-814.227Z" transform="translate(-725.474 835.901)" fill="#007e79"/>
        <path id="Trazado_721209" data-name="Trazado 721209" d="M758.567-806.424s16.786.763,16.954,7.978S759.464-801.482,758.567-806.424Z" transform="translate(-724.537 835.206)" fill="#007e79"/>
        <path id="Trazado_721210" data-name="Trazado 721210" d="M750.151-798.679s17.576,1.83,14.766,7.62S750.151-798.679,750.151-798.679Z" transform="translate(-723.788 834.518)" fill="#007e79"/>
        <path id="Trazado_721211" data-name="Trazado 721211" d="M742.275-791.571s16.366-.388,13.932,6.017S742.275-791.571,742.275-791.571Z" transform="translate(-723.088 833.886)" fill="#007e79"/>
        <path id="Trazado_721212" data-name="Trazado 721212" d="M736.476-785.11s15.335-.465,12.851,4.7S736.476-785.11,736.476-785.11Z" transform="translate(-722.572 833.312)" fill="#007e79"/>
        <path id="Trazado_721213" data-name="Trazado 721213" d="M778.136-821.837s9.687-13.913,4.232-15.942S775.54-828.418,778.136-821.837Z" transform="translate(-726.165 838.017)" fill="#007e79"/>
        <path id="Trazado_721214" data-name="Trazado 721214" d="M767.93-816.067s9.473-15.19,1.621-18.152S767.93-816.067,767.93-816.067Z" transform="translate(-725.161 837.704)" fill="#007e79"/>
        <path id="Trazado_721215" data-name="Trazado 721215" d="M757.59-808.883s7.773-16.828-.4-17.768S757.59-808.883,757.59-808.883Z" transform="translate(-724.101 837.009)" fill="#007e79"/>
        <path id="Trazado_721216" data-name="Trazado 721216" d="M748.263-800.951s7.249-14.681-.26-15.46S748.263-800.951,748.263-800.951Z" transform="translate(-723.306 836.097)" fill="#007e79"/>
        <path id="Trazado_721217" data-name="Trazado 721217" d="M741-793.88s3.378-13.874-2.724-13.961S737.151-796.042,741-793.88Z" transform="translate(-722.477 835.333)" fill="#007e79"/>
        <path id="Trazado_721218" data-name="Trazado 721218" d="M735.556-787.587s.893-15.88-4.859-12.381S735.556-787.587,735.556-787.587Z" transform="translate(-721.906 834.677)" fill="#007e79"/>
      </g>
      <ellipse id="Elipse_8622" data-name="Elipse 8622" cx="265.864" cy="32.989" rx="265.864" ry="32.989" transform="translate(283.106 -729.413)" fill="#007eba"/>
      <g id="Grupo_1007490" data-name="Grupo 1007490" transform="translate(343.35 -979.009)">
        <g id="Grupo_1007489" data-name="Grupo 1007489" transform="translate(0 0)">
          <g id="Grupo_1007471" data-name="Grupo 1007471" transform="translate(0 90.95)">
            <g id="Grupo_1007466" data-name="Grupo 1007466">
              <path id="Trazado_721219" data-name="Trazado 721219" d="M405.134-893.885s6.182,1.554,6.895,17.056-3,23.989-1.415,26.348,14.662,3.559,15.584,4.082.237,10.971-3.109,12.362-24.247-1.685-27.875-5.811-1.388-38.164.953-44.873S399.875-894.918,405.134-893.885Z" transform="translate(-337.27 932.127)" fill="#265ca8"/>
              <path id="Trazado_721220" data-name="Trazado 721220" d="M413.522-757.8s15.97,13.741,14.831,16.247-27.1-2.505-27.559-6.15,2.961-13.21,2.961-13.21Z" transform="translate(-337.933 920.283)" fill="#0c1015"/>
              <path id="Trazado_721221" data-name="Trazado 721221" d="M372.227-816.141s.29-.1.826-.281c6.3-2.11,46.723-15.179,54.072-5.853,7.973,10.121-16.562,59.5-16.562,59.5s-13.8-1.533-13.8-4.6,7.667-30.669,7.667-30.669-17.788,12.881-32.2,10.734-26.682-18.094-24.228-23S372.227-816.141,372.227-816.141Z" transform="translate(-333.212 926.036)" fill="#0c1015"/>
              <path id="Trazado_721222" data-name="Trazado 721222" d="M346.645-767.735s-9.14-3.082-10.84-1.7-5,17.324-3.72,20.83,9.777,7.121,10.84,5-1.488-3.72-1.381-6.376,2.657-7.121,3.294-8.5S346.645-767.735,346.645-767.735Z" transform="translate(-331.799 921.072)" fill="#0c1015"/>
              <path id="Trazado_721223" data-name="Trazado 721223" d="M342.514-815.184s-3.68,8.281,1.227,18.4,37.109,31.589,37.109,31.589-31.895-9.507-33.735-7.666-4.6,8.281-2.76,12.574c0,0,37.11,15.947,49.99,16.561s19.322-9.508,14.108-20.549S385.143-809.05,379.93-815.49,342.514-815.184,342.514-815.184Z" transform="translate(-332.634 925.385)" fill="#0b121b"/>
              <path id="Trazado_721224" data-name="Trazado 721224" d="M364.041-895.219s6.015-8.036,22.38-6.192,19.424,12.346,19.256,20.164-2.026,16.522-10.718,58.521c-1.539,7.437-58,11.717-54.267.678C353.243-859.194,354.565-881.718,364.041-895.219Z" transform="translate(-332.575 932.805)" fill="#3a77bc"/>
              <path id="Trazado_721225" data-name="Trazado 721225" d="M404.608-902.58s-3.095,3.943-3.342,6.111,6,8.449,1.658,10.365-15.872-11.128-15.625-13.777,3.64-.505,7.685-9.435C400-920.4,409.053-906.713,404.608-902.58Z" transform="translate(-336.736 933.86)" fill="#e88875"/>
              <g id="Grupo_1007465" data-name="Grupo 1007465" transform="translate(56.811)">
                <path id="Trazado_721226" data-name="Trazado 721226" d="M398.392-922.014s-6.415,9.753.385,19.353c6.263,8.841,11.749,9.175,15.389,6.429s12.5-13.556,12.708-21.007-7.6-14.676-16.62-13.949S398.392-922.014,398.392-922.014Z" transform="translate(-394.29 935.434)" fill="#e88875"/>
                <path id="Trazado_721227" data-name="Trazado 721227" d="M426.15-927.9c5.075,1.769,8.949,9.55,5.561,13.72-1.869,2.3-6.4,2.066-9.241.936-5.729-2.281-10.151-9.815-11.783-8.475s-1.1,5.5-3.757,5.668-2.684.1-3.749,1.161-2.129,1.764-1.63.279,1.464-4.351-.873-4.428-2.207,4.454-2.74,5.338-1.529,2.439-2.343,2.4-3.106-12.757.662-18.341,7.26-3.153,7.26-3.153,6.956-6.413,12.818-.642C419.956-929.871,422.4-929.208,426.15-927.9Z" transform="translate(-394.157 935.843)" fill="#071626"/>
              </g>
            </g>
            <g id="Grupo_1007470" data-name="Grupo 1007470" transform="translate(9.49 32.314)">
              <g id="Grupo_1007468" data-name="Grupo 1007468" transform="translate(23.879 24.803)">
                <g id="Grupo_1007467" data-name="Grupo 1007467">
                  <path id="Trazado_721228" data-name="Trazado 721228" d="M414.229-803.8l-38.574-5.48-7.228-45.062L407-848.865Z" transform="translate(-368.426 871.477)" fill="#db6c18"/>
                  <path id="Trazado_721229" data-name="Trazado 721229" d="M417.995-805.146,465.17-824.38l-7.228-45.062-47.175,19.234Z" transform="translate(-372.193 872.82)" fill="#fa8822"/>
                  <path id="Trazado_721230" data-name="Trazado 721230" d="M368.426-856.018,407-850.538l47.175-19.234L414.44-873.15Z" transform="translate(-368.426 873.15)" fill="#fd9e4a"/>
                  <path id="Trazado_721231" data-name="Trazado 721231" d="M430.147-871.828l-45.419,18.038,8.185,1.163,46.2-18.43Z" transform="translate(-369.876 873.032)" fill="#9c4d1b"/>
                </g>
                <path id="Trazado_721232" data-name="Trazado 721232" d="M384.728-852.029l2.974,18.543.729-.117.689.666.681-.594,1.286.764.962-.639.456.412,1.059-.655,1.646,1.191.463-.334-2.76-18.073Z" transform="translate(-369.876 871.271)" fill="#9c4d1b"/>
              </g>
              <g id="Grupo_1007469" data-name="Grupo 1007469">
                <path id="Trazado_721233" data-name="Trazado 721233" d="M372.34-845.8s8.527,8.589,11.048,9.762,6.207-.66,9.3.747,6.74,2.561,6.755,3.529-1.831,1.724-3.781.947c0,0-3.251-1.4-3.556-.269s4.012,3.733,6.211,4.91,5.764,2.092,5.21,2.827-3.951.3-6.875-.784c0,0,4.627,1.625,6.006,2.008s.59,1.686-1.754,1.48a35.686,35.686,0,0,1-5.345-1.049s4.464,1.547,4.589,1.747.828,1.359-1.395,1.192a41.908,41.908,0,0,1-5.262-.888s4.219,1.307,3.662,1.881-4.11.548-5.613-.116a30.491,30.491,0,0,1-7.68-5.938c-2.708-2.865-4.193-4.942-5.91-6.369s-12.8-8.2-12.8-8.2Z" transform="translate(-344.256 895.52)" fill="#e88875"/>
                <path id="Trazado_721234" data-name="Trazado 721234" d="M378-899.138a11.066,11.066,0,0,1,4.3,11.958c-2.071,7.809-21.73,22.127-21.821,24.005s15.577,14.507,14.932,16.17-4.947,9.322-7.054,8.067c-2.828-1.685-29.049-16.959-25.868-24.339,3.53-8.193,22.089-32.106,24.4-34.343A9.171,9.171,0,0,1,378-899.138Z" transform="translate(-342.216 900.375)" fill="#265ca8"/>
              </g>
            </g>
          </g>
          <g id="Grupo_1007480" data-name="Grupo 1007480" transform="translate(76.903 151.37)">
            <g id="Grupo_1007473" data-name="Grupo 1007473" transform="translate(57.075 49.703)">
              <g id="Grupo_1007472" data-name="Grupo 1007472">
                <path id="Trazado_721235" data-name="Trazado 721235" d="M517.433-744.777l-38.574-11.939v-47.3l38.574,11.939Z" transform="translate(-478.859 813.993)" fill="#db6c18"/>
                <path id="Trazado_721236" data-name="Trazado 721236" d="M521.2-744.777l51.431-11.939v-47.3L521.2-792.076Z" transform="translate(-482.625 813.993)" fill="#fa8822"/>
                <path id="Trazado_721237" data-name="Trazado 721237" d="M478.859-804.99l38.574,11.94,51.431-11.94-40.107-9.978Z" transform="translate(-478.859 814.968)" fill="#fd9e4a"/>
                <path id="Trazado_721238" data-name="Trazado 721238" d="M544.6-811.047l-49.438,11,8.185,2.533,50.3-11.276Z" transform="translate(-480.309 814.619)" fill="#9c4d1b"/>
              </g>
              <path id="Trazado_721239" data-name="Trazado 721239" d="M495.161-798.97v19.463h.765l.6.794.794-.5,1.191.992,1.089-.5.4.5,1.191-.5,1.489,1.489.528-.266.142-18.947Z" transform="translate(-480.309 813.545)" fill="#9c4d1b"/>
            </g>
            <g id="Grupo_1007475" data-name="Grupo 1007475" transform="translate(71.904)">
              <g id="Grupo_1007474" data-name="Grupo 1007474">
                <path id="Trazado_721240" data-name="Trazado 721240" d="M533.709-799.333l-38.574-11.939v-47.3l38.574,11.939Z" transform="translate(-495.136 868.549)" fill="#c36b1a"/>
                <path id="Trazado_721241" data-name="Trazado 721241" d="M537.475-799.333l51.431-11.939v-47.3l-51.431,11.939Z" transform="translate(-498.902 868.549)" fill="#fa8822"/>
                <path id="Trazado_721242" data-name="Trazado 721242" d="M495.136-859.545l38.574,11.939,51.431-11.939-40.107-9.978Z" transform="translate(-495.136 869.524)" fill="#fd9e4a"/>
                <path id="Trazado_721243" data-name="Trazado 721243" d="M560.875-865.6l-49.438,11,8.185,2.533,50.3-11.276Z" transform="translate(-496.586 869.175)" fill="#9c4d1b"/>
              </g>
              <path id="Trazado_721244" data-name="Trazado 721244" d="M511.437-853.525v19.463h.765l.6.794.794-.5,1.191.993,1.089-.5.4.5,1.191-.5,1.489,1.489.528-.266.142-18.947Z" transform="translate(-496.586 868.101)" fill="#9c4d1b"/>
            </g>
            <g id="Grupo_1007477" data-name="Grupo 1007477" transform="translate(0 62.076)">
              <g id="Grupo_1007476" data-name="Grupo 1007476">
                <path id="Trazado_721245" data-name="Trazado 721245" d="M454.785-731.2l-38.573-11.939v-47.3l38.573,11.939Z" transform="translate(-416.211 800.412)" fill="#db6c18"/>
                <path id="Trazado_721246" data-name="Trazado 721246" d="M458.551-731.2l51.431-11.939v-47.3l-51.431,11.939Z" transform="translate(-419.977 800.412)" fill="#fa8822"/>
                <path id="Trazado_721247" data-name="Trazado 721247" d="M416.211-791.409l38.573,11.939,51.431-11.939-40.107-9.978Z" transform="translate(-416.211 801.387)" fill="#fd9e4a"/>
                <path id="Trazado_721248" data-name="Trazado 721248" d="M481.951-797.466l-49.438,11,8.185,2.533L491-795.206Z" transform="translate(-417.661 801.038)" fill="#9c4d1b"/>
              </g>
              <path id="Trazado_721249" data-name="Trazado 721249" d="M432.513-785.389v19.463h.765l.6.794.794-.5,1.191.993,1.09-.5.4.5,1.191-.5,1.489,1.489.528-.266.142-18.947Z" transform="translate(-417.661 799.964)" fill="#9c4d1b"/>
            </g>
            <g id="Grupo_1007479" data-name="Grupo 1007479" transform="translate(14.187 13.849)">
              <g id="Grupo_1007478" data-name="Grupo 1007478">
                <path id="Trazado_721250" data-name="Trazado 721250" d="M470.357-784.132l-38.574-11.939v-47.3l38.574,11.939Z" transform="translate(-431.783 853.348)" fill="#db6c18"/>
                <path id="Trazado_721251" data-name="Trazado 721251" d="M474.123-784.132l51.431-11.939v-47.3l-51.431,11.939Z" transform="translate(-435.55 853.348)" fill="#fa8822"/>
                <path id="Trazado_721252" data-name="Trazado 721252" d="M431.783-844.344,470.357-832.4l51.431-11.939-40.107-9.978Z" transform="translate(-431.783 854.323)" fill="#fd9e4a"/>
                <path id="Trazado_721253" data-name="Trazado 721253" d="M497.523-850.4l-49.438,11,8.185,2.533,50.3-11.276Z" transform="translate(-433.234 853.974)" fill="#9c4d1b"/>
              </g>
              <path id="Trazado_721254" data-name="Trazado 721254" d="M448.085-838.324v19.463h.765l.6.794.794-.5,1.191.993,1.09-.5.4.5,1.191-.5,1.489,1.489.528-.266.142-18.947Z" transform="translate(-433.234 852.899)" fill="#9c4d1b"/>
            </g>
          </g>
          <g id="Grupo_1007487" data-name="Grupo 1007487" transform="translate(94.366)">
            <g id="Grupo_1007481" data-name="Grupo 1007481" transform="translate(148.848)">
              <path id="Trazado_721255" data-name="Trazado 721255" d="M636.674-751.369s3.47,10.944.8,13.881-31.231,5.873-30.163,2.4,16.549-9.61,17.083-11.745a18.455,18.455,0,0,0,.534-4Z" transform="translate(-599.517 1010.384)" fill="#0c1015"/>
              <path id="Trazado_721256" data-name="Trazado 721256" d="M628.862-903.479s-10.971,48.912-10.971,60.3,3.621,78.85,6.872,80.536,13.038,1.266,14.257-.843-2.844-64.093.406-73.369,21.129-54.394,22.348-64.092S628.862-903.479,628.862-903.479Z" transform="translate(-600.461 1024.141)" fill="#0c1015"/>
              <path id="Trazado_721257" data-name="Trazado 721257" d="M629.755-992.223s-6.365.335-10.05,15.408-1.675,24.118-3.684,26.129-15.074.67-16.079,1-2.345,10.718.671,12.728,24.118,3.016,28.472-.334,8.71-37.183,7.7-44.217S635.114-992.223,629.755-992.223Z" transform="translate(-598.759 1031.808)" fill="#004e83"/>
              <path id="Trazado_721258" data-name="Trazado 721258" d="M690.443-746.987s4.538,11.1,2.006,14.387-32.028,8.754-31.21,5.05,16.423-11.405,16.8-13.675a19.3,19.3,0,0,0,.218-4.215Z" transform="translate(-604.315 1009.994)" fill="#0c1015"/>
              <path id="Trazado_721259" data-name="Trazado 721259" d="M643.086-900.869s5.555,50.923,9.442,67.859c3.568,15.544,19.016,65.749,21.53,73.893a1.881,1.881,0,0,0,1.593,1.307,25.687,25.687,0,0,0,13.463-2.093,1.868,1.868,0,0,0,1.054-2.108c-2.049-8.846-13.075-57.264-13.118-75.163-.047-19.734,1.675-61.824-1.889-70.153S643.086-900.869,643.086-900.869Z" transform="translate(-602.702 1024.483)" fill="#0b121b"/>
              <path id="Trazado_721260" data-name="Trazado 721260" d="M667.832-986.263s-4.355-9.044-20.768-10.384-21.439,8.375-22.779,16.079,1.1,32.065,1.543,74.952c.078,7.594,52.363,7.2,50.827-4.349C671.492-948.833,674.531-971.189,667.832-986.263Z" transform="translate(-600.994 1032.213)" fill="#0066ad"/>
              <path id="Trazado_721261" data-name="Trazado 721261" d="M638.258-1002.526s1.676,4.724,1.219,6.857-8.382,6.1-4.877,9.3,18.592-5.486,19.2-8.077-3.288-1.639-4.275-11.393C648.3-1017.945,635.361-1007.86,638.258-1002.526Z" transform="translate(-601.868 1033.528)" fill="#f69d92"/>
              <path id="Trazado_721262" data-name="Trazado 721262" d="M649.805-1005.84a8.357,8.357,0,0,0-1.379-4.213c-.991-.43-2.187-.949-3.39-1.469-3.858.39-8.325,5.635-6.5,9,0,0,1.676,4.724,1.219,6.858-.182.851-1.552,1.993-2.912,3.261h0c8.29.9,11.769-6.693,13.149-11.928C649.924-1004.8,649.859-1005.3,649.805-1005.84Z" transform="translate(-602.147 1033.525)" fill="#f69d92" opacity="0.5" style="mix-blend-mode: multiply;isolation: isolate"/>
              <path id="Trazado_721263" data-name="Trazado 721263" d="M649.354-1019.132s2.971,11.288-6.535,18.219c-8.755,6.384-14.061,4.952-16.636,1.189s-7.526-16.834-5.347-23.963,11.882-11.486,20.2-7.922S649.354-1019.132,649.354-1019.132Z" transform="translate(-600.675 1035.425)" fill="#f69d92"/>
              <path id="Trazado_721264" data-name="Trazado 721264" d="M618.374-1022.314s-1.232,4.251,4.925,3.915,11.42-4.814,12.54-3.023-.784,4.255,1.679,5.262,3.918,1.008,4.59,2.35,1.456,2.351,1.456.784,0-4.591,2.238-3.918.672,4.926.9,5.933.672,2.8,1.456,3.023,5.337-10.569,3.546-17.062-6.233-7.455-6.233-7.455.469-3.369-7.754-3.159C630.765-1035.485,620.254-1031.306,618.374-1022.314Z" transform="translate(-600.495 1035.673)" fill="#071626"/>
            </g>
            <g id="Grupo_1007482" data-name="Grupo 1007482" transform="translate(27.9 52.326)">
              <path id="Trazado_721265" data-name="Trazado 721265" d="M527.411-948.2l6.076-.42a9.055,9.055,0,0,1,2.367,6.659c-.316,4-1.42,5.818-2.052,6.309s-6.943,1.261-6.943,1.261S528.911-945.329,527.411-948.2Z" transform="translate(-471.416 975.604)" fill="#fff"/>
              <path id="Trazado_721266" data-name="Trazado 721266" d="M523.5-949.649c1.53,2.611,4.056,8.4.226,13.487a2.809,2.809,0,0,1-1.5,1.016c-5.336,1.455-33.89,9.035-40.827,6.512-7.661-2.786-15.138-20.079-15.369-23.562s1.393-27.162,7.429-26,13.6,27.6,15.46,27.835c1.609.2,25.715-.469,32.113-.651A2.768,2.768,0,0,1,523.5-949.649Z" transform="translate(-466.003 978.238)" fill="#091c30"/>
            </g>
            <g id="Grupo_1007483" data-name="Grupo 1007483" transform="translate(89.909 54.294)">
              <path id="Trazado_721267" data-name="Trazado 721267" d="M572.639-905.888l-38.574-11.939v-47.3l38.574,11.939Z" transform="translate(-534.065 975.104)" fill="#db6c18"/>
              <path id="Trazado_721268" data-name="Trazado 721268" d="M576.405-905.888l51.431-11.939v-47.3l-51.431,11.939Z" transform="translate(-537.832 975.104)" fill="#fa8822"/>
              <path id="Trazado_721269" data-name="Trazado 721269" d="M534.065-966.1l38.574,11.94L624.07-966.1l-40.107-9.978Z" transform="translate(-534.065 976.079)" fill="#fd9e4a"/>
              <path id="Trazado_721270" data-name="Trazado 721270" d="M599.8-972.158l-49.438,11,8.185,2.533,50.3-11.276Z" transform="translate(-535.515 975.73)" fill="#9c4d1b"/>
            </g>
            <path id="Trazado_721271" data-name="Trazado 721271" d="M550.367-960.08v19.463h.765l.6.794.794-.5,1.191.993,1.089-.5.4.5,1.191-.5,1.489,1.489.528-.266.142-18.947Z" transform="translate(-445.607 1028.949)" fill="#9c4d1b"/>
            <g id="Grupo_1007485" data-name="Grupo 1007485" transform="translate(0 2.614)">
              <path id="Trazado_721272" data-name="Trazado 721272" d="M439.557-740.969s-5.89,14.168-3.684,17.374,35.789,10.409,36.477,4.761-20.12-11.056-21.522-19.384S439.557-740.969,439.557-740.969Z" transform="translate(-435.378 1007.007)" fill="#0b121b"/>
              <path id="Trazado_721273" data-name="Trazado 721273" d="M453.251-881.408s2.677,21.81,4.064,42.223c.512,7.535.645,13.371.663,17.053a25.657,25.657,0,0,1-1.343,8.313c-4.605,13.692-19.76,59.533-17.416,63.066,2.76,4.158,12.606,4.389,15.212,2.539s24.719-62.22,30.007-75.911,5.65-54.659,5.65-54.659Z" transform="translate(-435.698 1019.336)" fill="#0b121b"/>
              <path id="Trazado_721274" data-name="Trazado 721274" d="M494.513-732.629s-3.14,15.046-.224,17.76,38.805,3.206,38.356-2.467-22.879-6.907-26.02-14.8S494.513-732.629,494.513-732.629Z" transform="translate(-440.508 1006.382)" fill="#0b121b"/>
              <path id="Trazado_721275" data-name="Trazado 721275" d="M466.563-884.495c0,1.529,7.748,27.016,16.049,53.523s4.427,81.561,8.854,85.128,14.388,3.058,15.5-.509,7.195-72.895,7.195-81.05-8.854-61.68-8.854-61.68Z" transform="translate(-438.152 1020.019)" fill="#081524"/>
              <g id="Grupo_1007484" data-name="Grupo 1007484" transform="translate(25.37)">
                <path id="Trazado_721276" data-name="Trazado 721276" d="M469.489-986.344s2.973-4.8,3.2-7.544-5.03-12.117-5.259-21.262,12.8-16.233,21.948-12.574,10.392,9.689,10.621,13.575-.915,5.03,0,6.858,3.859,5.361,2.4,6.639a8.069,8.069,0,0,1-3.1,1s0,10.2-4.8,10.3c-4.849.1-5.579-2.475-8.551.268s.229,10.517-.686,10.288S469.489-986.344,469.489-986.344Z" transform="translate(-463.599 1032.439)" fill="#f28885"/>
                <path id="Trazado_721277" data-name="Trazado 721277" d="M472.072-996.845s-7.478-7.478-8.7-18.161,5.494-10.53,5.494-10.53-.152-8.241,11.751-7.173,20.755,4.579,21.366,8.852-10.683,3.662-10.683,4.273,3.357,3.357-.457,5.952-5.189,1.984-6.1,3.815.61,5.035-1.221,4.273-.61-6.409-5.036-5.8-1.068,7.325.153,8.851S474.972-996.235,472.072-996.845Z" transform="translate(-463.225 1032.804)" fill="#071626"/>
              </g>
              <path id="Trazado_721278" data-name="Trazado 721278" d="M550.262-929.465s12.315.231,14.987-.7,4.067-4.88,7.32-6.041,6.738-2.9,7.435-2.207-.116,2.555-2.091,3.369c0,0-3.369,1.278-2.789,2.323s5.577-.116,8.016-.813,5.693-2.556,5.81-1.627-2.672,3.021-5.577,4.3c0,0,4.532-2.092,5.81-2.789s1.626.814-.232,2.324a36.275,36.275,0,0,1-4.647,3.02s4.357-2.033,4.589-1.975,1.568.407-.174,1.859a42.656,42.656,0,0,1-4.473,3.079s4.008-2.033,4.008-1.22-2.614,3.311-4.182,3.892a31,31,0,0,1-9.817,1.1c-4.009-.174-6.564-.639-8.83-.464s-15.162,3.078-15.162,3.078Z" transform="translate(-445.597 1024.421)" fill="#f28885"/>
              <path id="Trazado_721279" data-name="Trazado 721279" d="M561.321-929.7l6.448-.907a8.677,8.677,0,0,1,2.367,6.473c-.315,3.884-1.419,5.656-2.051,6.132s-6.943,1.227-6.943,1.227S562.821-926.908,561.321-929.7Z" transform="translate(-446.565 1023.713)" fill="#fff"/>
              <path id="Trazado_721280" data-name="Trazado 721280" d="M462.733-984.339s2.41-6.785,7-6.515,22.133,6.478,27.532,21.594,5.669,34.01,5.128,32.661-11.607-31.041-22.134-39.139S462.733-984.339,462.733-984.339Z" transform="translate(-437.812 1029.073)" fill="#071626"/>
              <path id="Trazado_721281" data-name="Trazado 721281" d="M479.269-983.576s11.619,5.81,13.135,9.851,16.231,71.252,14.969,84.64-55.334,16.485-54.538,4.6c2.082-31.078-4.09-69.222-1.3-84.07C455.024-987.062,463.1-990.145,479.269-983.576Z" transform="translate(-436.75 1028.705)" fill="#091c30"/>
              <path id="Trazado_721282" data-name="Trazado 721282" d="M555.742-933.175c1.03,2.045,3.053,6.856,1.833,11.138a5.294,5.294,0,0,1-3.645,3.613c-8.079,2.319-36.981,10.313-43.554,7.923-7.661-2.786-25.616-30.15-27.4-33.152-4.754-8.018,3.962-30.459,10-29.3s25.266,41.176,27.124,41.408c1.656.207,28.274-2.055,34.009-2.546A1.664,1.664,0,0,1,555.742-933.175Z" transform="translate(-439.491 1027.483)" fill="#072445"/>
            </g>
            <g id="Grupo_1007486" data-name="Grupo 1007486" transform="translate(157.819 40.421)">
              <path id="Trazado_721283" data-name="Trazado 721283" d="M646.31-938.522s-11.056,4.926-13.83,5.108-5.549-2.859-8.937-2.665-7.211-.048-7.574.85,1.084,2.269,3.182,2.248c0,0,3.539-.133,3.414,1.035s-5.092,2.031-7.566,2.334-6.13-.133-5.88.753,3.575,1.711,6.693,1.755c0,0-4.9-.158-6.324-.3s-1.161,1.359,1.1,2.014a35.665,35.665,0,0,0,5.362.954s-4.721-.172-4.909-.03-1.265.968.869,1.615a41.883,41.883,0,0,0,5.227,1.073s-4.406-.305-4.094.431,3.633,2,5.276,1.921a30.449,30.449,0,0,0,9.306-2.76c3.561-1.693,5.7-3.092,7.813-3.8s14.9-3.019,14.9-3.019Z" transform="translate(-608.607 986.611)" fill="#f28885"/>
              <path id="Trazado_721284" data-name="Trazado 721284" d="M659.749-991.209a11.065,11.065,0,0,0-8.329,9.6c-.893,8.029,12.262,28.486,11.668,30.27s-19.768,7.9-19.768,9.679,1.243,10.48,3.662,10.071c3.246-.549,33.214-5.312,32.917-13.341-.33-8.917-8.99-37.921-10.338-40.841A9.172,9.172,0,0,0,659.749-991.209Z" transform="translate(-611.695 991.306)" fill="#004e83"/>
            </g>
          </g>
          <g id="Grupo_1007488" data-name="Grupo 1007488" transform="translate(295.489 120.393)">
            <path id="Trazado_721285" data-name="Trazado 721285" d="M682.169-865.4c-.751-.15-5.1-4.655-6.156-6.456s-7.057-18.768-8.708-21.77-10.51-11.561-11.111-9.609,3.9,5.855,4.2,8.557-2.252-.3-3.754.751c-2.451,1.715,6.907,3.6,7.507,5.255s2.4,18.768,4.5,22.972,9.759,9.458,9.759,9.458Z" transform="translate(-656.139 903.526)" fill="#f69d92"/>
            <path id="Trazado_721286" data-name="Trazado 721286" d="M696.418-857.212A38.991,38.991,0,0,1,684.735-864a21.237,21.237,0,0,0-6.029,11.117s3.58,7.537,11.682,9.61S702.071-852.125,696.418-857.212Z" transform="translate(-658.146 900.009)" fill="#ffb514"/>
            <path id="Trazado_721287" data-name="Trazado 721287" d="M714.951-770.909S719.23-739.38,719.68-736s-.9,6.531,1.576,7.882,9.91,1.576,9.459-1.576-4.5-7.207-4.279-8.333,1.8-30.178.9-33.557S714.951-770.909,714.951-770.909Z" transform="translate(-661.37 891.909)" fill="#f28885"/>
            <path id="Trazado_721288" data-name="Trazado 721288" d="M694.166-772.271s2.928,18.692,5.855,31.3c0,0,1.126,4.278-1.351,5.63s-9.458,3.828-6.531,4.954,15.765,0,15.991-2.027-.9-36.935-2.478-39.412S694.166-772.271,694.166-772.271Z" transform="translate(-659.278 891.919)" fill="#f28885"/>
            <path id="Trazado_721289" data-name="Trazado 721289" d="M687.759-803.54s.9,17.792,3.6,31.53c0,0,4.053,3.6,15.54.675l.9-15.539s1.126,13.963,2.7,16.215,15.765,2.027,17.567-.9-1.352-29.727-2.7-31.98S700.821-812.548,687.759-803.54Z" transform="translate(-658.951 895.036)" fill="#0066ad"/>
            <path id="Trazado_721290" data-name="Trazado 721290" d="M718.407-854.739s-22.078-4.524-26.908.377-5.33,47.4-4.984,48.531,28.827,8.783,39.862-.226C728.946-808.154,723.926-847.576,718.407-854.739Z" transform="translate(-658.833 899.355)" fill="#ffb514"/>
            <path id="Trazado_721291" data-name="Trazado 721291" d="M718.832-832.88s.782,8.6-.391,11.926c-2.018,5.718-4.888,15.053-7.625,16.812s-8.015,5.279-6.452,6.061,4.693-2.542,4.5-.587-5.865,5.864-4.888,7.429,8.6-2.541,10.166-4.888,1.172-4.5,2.933-6.646,10.165-14.077,10.948-18.768,0-12.121,0-12.121Z" transform="translate(-660.383 897.311)" fill="#f69d92"/>
            <path id="Trazado_721292" data-name="Trazado 721292" d="M721.074-854.553s5.832,1.384,8.658,12.313a36.846,36.846,0,0,1,.942,7.913,21.182,21.182,0,0,1-12.059.942s-2.827-8.479-2.073-14.32S718.633-854.619,721.074-854.553Z" transform="translate(-661.5 899.17)" fill="#ffb514"/>
            <path id="Trazado_721293" data-name="Trazado 721293" d="M708.223-732.466a.652.652,0,0,0-.713-.559,16.9,16.9,0,0,1-7.321-1.031.617.617,0,0,0-.745.209c-1.594,2.439-8.692,4.43-9.447,5.638a2.382,2.382,0,0,0,.159,2.557c2.776,1.557,13.524.59,16.742.259a1.284,1.284,0,0,0,1.139-.994A19.58,19.58,0,0,0,708.223-732.466Z" transform="translate(-659.122 888.455)" fill="#072445"/>
            <path id="Trazado_721294" data-name="Trazado 721294" d="M719.8-732.681a.3.3,0,0,1,.455-.22,4.91,4.91,0,0,0,3.081.579c2.133-.281,3.591-1.347,3.816-1.178s5.163,5.723,5.275,7.238-.224,2.637-1.572,2.918-9.259.674-10.605-.9C719.114-725.568,719.618-731.019,719.8-732.681Z" transform="translate(-661.777 888.403)" fill="#072445"/>
            <path id="Trazado_721295" data-name="Trazado 721295" d="M701.289-866.275s1.769,2.654,1.593,9.2c0,0-6.723,2.477-3.361,4.953s14.328-.53,15.744-2.653-.708-2.831-1.061-6.191a25.339,25.339,0,0,1,.885-7.784Z" transform="translate(-659.914 900.432)" fill="#f69d92"/>
            <path id="Trazado_721296" data-name="Trazado 721296" d="M702.894-856.977c3.65-.279,7.952-2.03,11.588-3.888,0-.036-.011-.067-.014-.1a25.332,25.332,0,0,1,.885-7.784l-13.8,2.476s1.769,2.654,1.592,9.2C703.146-857.076,703.052-857.04,702.894-856.977Z" transform="translate(-660.178 900.432)" fill="#f69d92" opacity="0.5" style="mix-blend-mode: multiply;isolation: isolate"/>
            <path id="Trazado_721297" data-name="Trazado 721297" d="M700.383-887.687s-10.965,11.041-6.222,20.537c3.854,7.717,17.24,5.174,22.5-.066s7.05-13.077,3.3-17.946S706.447-893.453,700.383-887.687Z" transform="translate(-659.415 902.385)" fill="#f69d92"/>
            <path id="Trazado_721298" data-name="Trazado 721298" d="M695.557-881.331s1.234-4.91,3.931-7.841a.68.68,0,0,0,.089-.8,9.425,9.425,0,0,1-.917-2.814c-.26-2.072-.252-5.053,1.6-6.356,2.985-2.1,1,1.783,4.224,2.673s11.831,1.066,15.626,3.773,2.393,6.686,3.52,6.453a8.2,8.2,0,0,0,2.221-.892l-.957,2.368s2.708,1.647,2.162,1.977-3.365-.879-3.365-.879a7.705,7.705,0,0,1,1.885,9.3c-2.537,5.932-12.7,9.6-12.474,8.869s-.665-2.955,1.215-4.537,3.789-4.6,2.11-5.9-4.551,2.223-4.978,2.258.287-3.6,1.051-4.811-1.3-1.9-.691-5.1,2.29-3.62,2.29-3.62-6.342-.5-9.388-.974-3.294-.864-3.294-.864A89.894,89.894,0,0,0,695.557-881.331Z" transform="translate(-659.645 903.19)" fill="#110d23"/>
          </g>
        </g>
      </g>
      <rect id="Rect치ngulo_347952" data-name="Rect치ngulo 347952" width="485.853" height="485.853" transform="translate(292.219 -1091.886)" fill="none"/>
    </g>
  </g>
</svg>
