<svg xmlns="http://www.w3.org/2000/svg" width="260" height="155" viewBox="0 0 260 155">
  <g id="Grupo_1013480" data-name="Grupo 1013480" transform="translate(1633 9396)">
    <rect id="doctor-realizando-investigaciones-medicas-laboratorio" width="260" height="155" rx="10" transform="translate(-1633 -9396)" fill="#fff"/>
    <g id="Grupo_1009096" data-name="Grupo 1009096" transform="translate(-15.291 -114.333)">
      <g id="Grupo_1009095" data-name="Grupo 1009095" transform="translate(-1606.709 -9275.667)">
        <g id="Grupo_1008765" data-name="Grupo 1008765" transform="translate(3.418 22.846)">
          <g id="Grupo_1008763" data-name="Grupo 1008763" transform="translate(2.979 0)">
            <g id="Grupo_1008762" data-name="Grupo 1008762">
              <path id="Trazado_723431" data-name="Trazado 723431" d="M44.38,208.414H173.712l74.441-.169c10.049-11.9,12.5-28.979,13.136-44.687,1.741-43.3-38.027-40.8-44.424-40.8-23.386,0-20.062-40.22-55.121-40.22-33.133,0-36.563,37.767-56.312,39.838-20.877,2.19-23.064-10.356-41.609-9.592-20.1.828-30.718,21.174-30.718,47.276C33.1,186.4,39.385,205.719,44.38,208.414Z" transform="translate(-33.105 -82.533)" fill="#bfe7f5"/>
            </g>
          </g>
        </g>
        <g id="Grupo_1008766" data-name="Grupo 1008766" transform="translate(135.036 9.457)">
          <rect id="Rectángulo_348433" data-name="Rectángulo 348433" width="4.325" height="139.196" fill="#addeef"/>
        </g>
        <g id="Grupo_1008787" data-name="Grupo 1008787" transform="translate(144.646 29.289)">
          <g id="Grupo_1008778" data-name="Grupo 1008778" transform="translate(0 59.243)">
            <g id="Grupo_1008767" data-name="Grupo 1008767" transform="translate(4.186)">
              <rect id="Rectángulo_348434" data-name="Rectángulo 348434" width="24.689" height="30.803" fill="#fff"/>
            </g>
            <g id="Grupo_1008768" data-name="Grupo 1008768" transform="translate(2.127)">
              <rect id="Rectángulo_348435" data-name="Rectángulo 348435" width="28.805" height="2.794" rx="1.397" fill="#fff"/>
            </g>
            <g id="Grupo_1008769" data-name="Grupo 1008769" transform="translate(1.268 27.393)">
              <path id="Rectángulo_348436" data-name="Rectángulo 348436" d="M0,0H30.524a0,0,0,0,1,0,0V.56A15.262,15.262,0,0,1,15.262,15.822h0A15.262,15.262,0,0,1,0,.56V0A0,0,0,0,1,0,0Z" fill="#fff"/>
            </g>
            <g id="Grupo_1008770" data-name="Grupo 1008770" transform="translate(0 24.863)">
              <rect id="Rectángulo_348437" data-name="Rectángulo 348437" width="33.06" height="2.529" rx="1.265" fill="#fff"/>
            </g>
            <g id="Grupo_1008771" data-name="Grupo 1008771" transform="translate(2.127 22.334)">
              <path id="Rectángulo_348438" data-name="Rectángulo 348438" d="M2.529,0H26.276a2.529,2.529,0,0,1,2.529,2.529v0a0,0,0,0,1,0,0H0a0,0,0,0,1,0,0v0A2.529,2.529,0,0,1,2.529,0Z" fill="#fca66f"/>
            </g>
            <g id="Grupo_1008772" data-name="Grupo 1008772" transform="translate(7.747 35.304)">
              <path id="Trazado_723432" data-name="Trazado 723432" d="M479.956,402.873H462.391c3.4-3.875,4.35-9.78,4.554-13.986.025-.529.039-1.029.045-1.493a33.945,33.945,0,0,0-.124-3.573l4.308-4.339,4.308,4.339a33.947,33.947,0,0,0-.124,3.573c.006.464.02.964.045,1.493C475.606,393.093,476.553,399,479.956,402.873Z" transform="translate(-462.391 -379.482)" fill="#fff"/>
            </g>
            <g id="Grupo_1008773" data-name="Grupo 1008773" transform="translate(28.874 6.192)">
              <rect id="Rectángulo_348439" data-name="Rectángulo 348439" width="1.029" height="2.058" fill="#999"/>
            </g>
            <g id="Grupo_1008774" data-name="Grupo 1008774" transform="translate(29.903 6.192)">
              <rect id="Rectángulo_348440" data-name="Rectángulo 348440" width="1.029" height="3.329" fill="#999"/>
            </g>
            <g id="Grupo_1008775" data-name="Grupo 1008775" transform="translate(4.186 2.794)">
              <rect id="Rectángulo_348441" data-name="Rectángulo 348441" width="24.689" height="1.494" fill="#f2f2f2"/>
            </g>
            <g id="Grupo_1008776" data-name="Grupo 1008776" transform="translate(1.268 27.393)">
              <rect id="Rectángulo_348442" data-name="Rectángulo 348442" width="30.524" height="1.494" fill="#f2f2f2"/>
            </g>
            <g id="Grupo_1008777" data-name="Grupo 1008777" transform="translate(12.301 43.216)">
              <path id="Trazado_723433" data-name="Trazado 723433" d="M484.238,404.238h-8.457c.026-.529.039-1.029.045-1.493h8.367C484.2,403.209,484.213,403.709,484.238,404.238Z" transform="translate(-475.781 -402.745)" fill="#f2f2f2"/>
            </g>
          </g>
          <g id="Grupo_1008786" data-name="Grupo 1008786" transform="translate(4.186 0)">
            <g id="Grupo_1008779" data-name="Grupo 1008779" transform="translate(0.444 37.018)">
              <rect id="Rectángulo_348443" data-name="Rectángulo 348443" width="24.245" height="1.351" transform="translate(0 0)" fill="#fff"/>
            </g>
            <g id="Grupo_1008780" data-name="Grupo 1008780">
              <rect id="Rectángulo_348444" data-name="Rectángulo 348444" width="24.689" height="30.803" rx="4.165" fill="#fff"/>
            </g>
            <g id="Grupo_1008781" data-name="Grupo 1008781" transform="translate(1.649 1.649)">
              <rect id="Rectángulo_348445" data-name="Rectángulo 348445" width="27.506" height="21.391" transform="translate(21.391 0) rotate(90)" fill="#bfe7f5"/>
            </g>
            <g id="Grupo_1008785" data-name="Grupo 1008785" transform="translate(2.645 2.683)">
              <g id="Grupo_1008782" data-name="Grupo 1008782" transform="translate(0.748 0.161)">
                <path id="Trazado_723434" data-name="Trazado 723434" d="M462.067,117.05a.17.17,0,0,1-.12-.29l6.868-6.868a.17.17,0,0,1,.24.24L462.187,117A.17.17,0,0,1,462.067,117.05Z" transform="translate(-461.897 -109.842)" fill="#fff"/>
              </g>
              <g id="Grupo_1008783" data-name="Grupo 1008783" transform="translate(3.859 4.033)">
                <path id="Trazado_723435" data-name="Trazado 723435" d="M471.214,128.434a.17.17,0,0,1-.12-.29l6.868-6.868a.17.17,0,1,1,.24.24l-6.868,6.868A.168.168,0,0,1,471.214,128.434Z" transform="translate(-471.044 -121.226)" fill="#fff"/>
              </g>
              <g id="Grupo_1008784" data-name="Grupo 1008784">
                <path id="Trazado_723436" data-name="Trazado 723436" d="M459.866,120.458a.17.17,0,0,1-.12-.29l10.75-10.75a.17.17,0,1,1,.24.24l-10.75,10.75A.171.171,0,0,1,459.866,120.458Z" transform="translate(-459.696 -109.368)" fill="#fff"/>
              </g>
            </g>
          </g>
        </g>
        <g id="Grupo_1008829" data-name="Grupo 1008829" transform="translate(55.66 73.537)">
          <g id="Grupo_1008788" data-name="Grupo 1008788" transform="translate(55.413 6.594)">
            <rect id="Rectángulo_348446" data-name="Rectángulo 348446" width="3.018" height="12.83" rx="1.509" fill="#ccc"/>
          </g>
          <g id="Grupo_1008789" data-name="Grupo 1008789" transform="translate(55.413 4.04)">
            <rect id="Rectángulo_348447" data-name="Rectángulo 348447" width="3.018" height="10.715" rx="1.509" fill="#f2f2f2"/>
          </g>
          <g id="Grupo_1008790" data-name="Grupo 1008790" transform="translate(0 17.903)">
            <path id="Rectángulo_348448" data-name="Rectángulo 348448" d="M7.563,0h61.66a7.563,7.563,0,0,1,7.563,7.563V55.725a0,0,0,0,1,0,0H0a0,0,0,0,1,0,0V7.563A7.563,7.563,0,0,1,7.563,0Z" fill="#fff"/>
          </g>
          <g id="Grupo_1008791" data-name="Grupo 1008791" transform="translate(2.59 23.047)">
            <rect id="Rectángulo_348449" data-name="Rectángulo 348449" width="48.314" height="71.608" transform="translate(71.608 0) rotate(90)" fill="#f2f2f2"/>
          </g>
          <g id="Grupo_1008792" data-name="Grupo 1008792" transform="translate(2.589 23.046)">
            <rect id="Rectángulo_348450" data-name="Rectángulo 348450" width="35.805" height="48.317" fill="#fff"/>
          </g>
          <g id="Grupo_1008794" data-name="Grupo 1008794" transform="translate(5.486 25.944)">
            <g id="Grupo_1008793" data-name="Grupo 1008793">
              <path id="Trazado_723437" data-name="Trazado 723437" d="M221.7,350.388H196.487v-.34a2.061,2.061,0,0,0-2.058-2.058h-.34V310.265h.34a2.061,2.061,0,0,0,2.058-2.058v-.34H221.7v.34a2.061,2.061,0,0,0,2.058,2.058h.34V347.99h-.34a2.06,2.06,0,0,0-2.058,2.058Zm-24.555-.68h23.9a2.744,2.744,0,0,1,2.377-2.377V310.924a2.743,2.743,0,0,1-2.377-2.377h-23.9a2.744,2.744,0,0,1-2.377,2.377v36.407A2.744,2.744,0,0,1,197.146,349.708Z" transform="translate(-194.089 -307.867)" fill="#f2f2f2"/>
            </g>
          </g>
          <g id="Grupo_1008795" data-name="Grupo 1008795" transform="translate(0 23.046)">
            <rect id="Rectángulo_348451" data-name="Rectángulo 348451" width="38.394" height="1.385" fill="#f2f2f2"/>
          </g>
          <g id="Grupo_1008796" data-name="Grupo 1008796" transform="translate(0 17.903)">
            <path id="Rectángulo_348452" data-name="Rectángulo 348452" d="M5.145,0h66.5a5.145,5.145,0,0,1,5.145,5.145v0a0,0,0,0,1,0,0H0a0,0,0,0,1,0,0v0A5.145,5.145,0,0,1,5.145,0Z" fill="#fca66f"/>
          </g>
          <g id="Grupo_1008797" data-name="Grupo 1008797" transform="translate(0 17.903)">
            <path id="Rectángulo_348453" data-name="Rectángulo 348453" d="M2.572,0H74.214a2.572,2.572,0,0,1,2.572,2.572v0a0,0,0,0,1,0,0H0a0,0,0,0,1,0,0v0A2.572,2.572,0,0,1,2.572,0Z" fill="#fff"/>
          </g>
          <g id="Grupo_1008798" data-name="Grupo 1008798" transform="translate(55.413 28.539)">
            <rect id="Rectángulo_348454" data-name="Rectángulo 348454" width="3.018" height="12.83" rx="1.509" fill="#ccc"/>
          </g>
          <g id="Grupo_1008799" data-name="Grupo 1008799" transform="translate(43.8 23.047)">
            <path id="Rectángulo_348455" data-name="Rectángulo 348455" d="M0,0H26.244a0,0,0,0,1,0,0V0A7.739,7.739,0,0,1,18.5,7.739H7.739A7.739,7.739,0,0,1,0,0V0A0,0,0,0,1,0,0Z" fill="#ccc"/>
          </g>
          <g id="Grupo_1008800" data-name="Grupo 1008800" transform="translate(31.095 42.232)">
            <rect id="Rectángulo_348456" data-name="Rectángulo 348456" width="1.819" height="9.263" rx="0.91" fill="#fca66f"/>
          </g>
          <g id="Grupo_1008801" data-name="Grupo 1008801" transform="translate(54.823)">
            <rect id="Rectángulo_348457" data-name="Rectángulo 348457" width="4.197" height="3.067" rx="1.534" fill="#f2f2f2"/>
          </g>
          <g id="Grupo_1008802" data-name="Grupo 1008802" transform="translate(56.645 2.112)">
            <rect id="Rectángulo_348458" data-name="Rectángulo 348458" width="0.553" height="3.552" fill="#f2f2f2"/>
          </g>
          <g id="Grupo_1008824" data-name="Grupo 1008824" transform="translate(2.579 3.39)">
            <g id="Grupo_1008804" data-name="Grupo 1008804" transform="translate(5.908)">
              <g id="Grupo_1008803" data-name="Grupo 1008803">
                <path id="Trazado_723438" data-name="Trazado 723438" d="M212.637,246.814h-9.724v-3.67a1.6,1.6,0,0,1,1.594-1.594h6.536a1.6,1.6,0,0,1,1.594,1.594Zm-8.842-.881h7.961v-2.788a.714.714,0,0,0-.713-.713h-6.536a.713.713,0,0,0-.712.713Z" transform="translate(-202.913 -241.55)" fill="#1b1447"/>
              </g>
            </g>
            <g id="Grupo_1008809" data-name="Grupo 1008809" transform="translate(0 2.632)">
              <g id="Grupo_1008806" data-name="Grupo 1008806">
                <g id="Grupo_1008805" data-name="Grupo 1008805">
                  <path id="Trazado_723439" data-name="Trazado 723439" d="M205.063,249.289h-17.5a1.611,1.611,0,0,0-1.471,1.068l-.547,3.312h21.54l-.547-3.312A1.611,1.611,0,0,0,205.063,249.289Z" transform="translate(-185.54 -249.289)" fill="#cc3b3b"/>
                </g>
              </g>
              <g id="Grupo_1008808" data-name="Grupo 1008808" transform="translate(0 4.38)">
                <g id="Grupo_1008807" data-name="Grupo 1008807">
                  <path id="Trazado_723440" data-name="Trazado 723440" d="M185.54,262.167v5.914a1.438,1.438,0,0,0,1.3,1.545h18.945a1.438,1.438,0,0,0,1.3-1.545v-5.914Z" transform="translate(-185.54 -262.167)" fill="#ff4040"/>
                </g>
              </g>
            </g>
            <g id="Grupo_1008811" data-name="Grupo 1008811" transform="translate(0 12.926)">
              <g id="Grupo_1008810" data-name="Grupo 1008810">
                <path id="Rectángulo_348459" data-name="Rectángulo 348459" d="M0,0H21.54a0,0,0,0,1,0,0V0A1.545,1.545,0,0,1,20,1.545H1.545A1.545,1.545,0,0,1,0,0V0A0,0,0,0,1,0,0Z" fill="#cc3b3b"/>
              </g>
            </g>
            <g id="Grupo_1008813" data-name="Grupo 1008813" transform="translate(3.954 5.814)">
              <g id="Grupo_1008812" data-name="Grupo 1008812">
                <rect id="Rectángulo_348460" data-name="Rectángulo 348460" width="1.393" height="2.395" rx="0.696" fill="#1b1447"/>
              </g>
            </g>
            <g id="Grupo_1008815" data-name="Grupo 1008815" transform="translate(16.721 5.814)">
              <g id="Grupo_1008814" data-name="Grupo 1008814">
                <rect id="Rectángulo_348461" data-name="Rectángulo 348461" width="1.393" height="2.395" rx="0.696" fill="#1b1447"/>
              </g>
            </g>
            <g id="Grupo_1008817" data-name="Grupo 1008817" transform="translate(6.579 8.002)">
              <g id="Grupo_1008816" data-name="Grupo 1008816">
                <rect id="Rectángulo_348462" data-name="Rectángulo 348462" width="8.382" height="0.34" fill="#cc3b3b"/>
              </g>
            </g>
            <g id="Grupo_1008819" data-name="Grupo 1008819" transform="translate(6.579 8.858)">
              <g id="Grupo_1008818" data-name="Grupo 1008818">
                <rect id="Rectángulo_348463" data-name="Rectángulo 348463" width="8.382" height="0.34" fill="#cc3b3b"/>
              </g>
            </g>
            <g id="Grupo_1008821" data-name="Grupo 1008821" transform="translate(6.579 9.714)">
              <g id="Grupo_1008820" data-name="Grupo 1008820">
                <rect id="Rectángulo_348464" data-name="Rectángulo 348464" width="8.382" height="0.34" fill="#cc3b3b"/>
              </g>
            </g>
            <g id="Grupo_1008823" data-name="Grupo 1008823" transform="translate(6.579 10.569)">
              <g id="Grupo_1008822" data-name="Grupo 1008822">
                <rect id="Rectángulo_348465" data-name="Rectángulo 348465" width="8.382" height="0.34" fill="#cc3b3b"/>
              </g>
            </g>
          </g>
          <g id="Grupo_1008828" data-name="Grupo 1008828" transform="translate(39.803 45.503)">
            <g id="Grupo_1008825" data-name="Grupo 1008825">
              <rect id="Rectángulo_348466" data-name="Rectángulo 348466" width="34.395" height="1.961" fill="#fff"/>
            </g>
            <g id="Grupo_1008826" data-name="Grupo 1008826" transform="translate(0 10.263)">
              <rect id="Rectángulo_348467" data-name="Rectángulo 348467" width="34.395" height="1.961" fill="#fff"/>
            </g>
            <g id="Grupo_1008827" data-name="Grupo 1008827" transform="translate(0 20.526)">
              <rect id="Rectángulo_348468" data-name="Rectángulo 348468" width="34.395" height="1.961" fill="#fff"/>
            </g>
          </g>
        </g>
        <g id="Grupo_1008851" data-name="Grupo 1008851" transform="translate(184.426 16.312)">
          <g id="Grupo_1008840" data-name="Grupo 1008840">
            <g id="Grupo_1008837" data-name="Grupo 1008837">
              <g id="Grupo_1008830" data-name="Grupo 1008830">
                <rect id="Rectángulo_348469" data-name="Rectángulo 348469" width="28.962" height="36.016" rx="8.728" fill="#fff"/>
              </g>
              <g id="Grupo_1008832" data-name="Grupo 1008832" transform="translate(2.691 2.692)">
                <g id="Grupo_1008831" data-name="Grupo 1008831">
                  <path id="Trazado_723441" data-name="Trazado 723441" d="M588.069,101.868H564.491V71.235h23.578Zm-22.9-.68h22.218V71.915H565.171Z" transform="translate(-564.491 -71.235)" fill="#f2f2f2"/>
                </g>
              </g>
              <g id="Grupo_1008833" data-name="Grupo 1008833" transform="translate(10.088 4.857)">
                <rect id="Rectángulo_348470" data-name="Rectángulo 348470" width="9.284" height="3.352" rx="1.676" fill="#f2f2f2"/>
              </g>
              <g id="Grupo_1008834" data-name="Grupo 1008834" transform="translate(11.219 23.497)">
                <circle id="Elipse_8734" data-name="Elipse 8734" cx="3.511" cy="3.511" r="3.511" fill="#fca66f"/>
              </g>
              <g id="Grupo_1008836" data-name="Grupo 1008836" transform="translate(9.478 21.756)">
                <g id="Grupo_1008835" data-name="Grupo 1008835">
                  <path id="Trazado_723442" data-name="Trazado 723442" d="M589.7,137.8a5.251,5.251,0,1,1,5.251-5.251A5.257,5.257,0,0,1,589.7,137.8Zm0-9.823a4.571,4.571,0,1,0,4.571,4.571A4.577,4.577,0,0,0,589.7,127.973Z" transform="translate(-584.446 -127.293)" fill="#f2f2f2"/>
                </g>
              </g>
            </g>
            <g id="Grupo_1008839" data-name="Grupo 1008839" transform="translate(13.801 36.016)">
              <g id="Grupo_1008838" data-name="Grupo 1008838">
                <rect id="Rectángulo_348471" data-name="Rectángulo 348471" width="1.36" height="39.08" fill="#fff"/>
              </g>
            </g>
          </g>
          <g id="Grupo_1008850" data-name="Grupo 1008850" transform="translate(6.503 67.402)">
            <g id="Grupo_1008841" data-name="Grupo 1008841" transform="translate(6.468 6.979)">
              <rect id="Rectángulo_348472" data-name="Rectángulo 348472" width="3.018" height="12.83" rx="1.509" fill="#f2f2f2"/>
            </g>
            <g id="Grupo_1008849" data-name="Grupo 1008849">
              <g id="Grupo_1008842" data-name="Grupo 1008842" transform="translate(0.59 4.04)">
                <rect id="Rectángulo_348473" data-name="Rectángulo 348473" width="3.018" height="5.162" rx="1.461" fill="#f2f2f2"/>
              </g>
              <g id="Grupo_1008843" data-name="Grupo 1008843" transform="translate(0.617 6.185)">
                <rect id="Rectángulo_348474" data-name="Rectángulo 348474" width="3.018" height="14.72" rx="1.509" transform="translate(14.72 0) rotate(90)" fill="#f2f2f2"/>
              </g>
              <g id="Grupo_1008844" data-name="Grupo 1008844">
                <rect id="Rectángulo_348475" data-name="Rectángulo 348475" width="4.197" height="3.067" rx="1.534" fill="#f2f2f2"/>
              </g>
              <g id="Grupo_1008845" data-name="Grupo 1008845" transform="translate(1.606 2.112)">
                <rect id="Rectángulo_348476" data-name="Rectángulo 348476" width="0.985" height="3.552" fill="#f2f2f2"/>
              </g>
              <g id="Grupo_1008846" data-name="Grupo 1008846" transform="translate(12.321 4.04)">
                <rect id="Rectángulo_348477" data-name="Rectángulo 348477" width="3.018" height="5.162" rx="1.461" fill="#f2f2f2"/>
              </g>
              <g id="Grupo_1008847" data-name="Grupo 1008847" transform="translate(11.731)">
                <rect id="Rectángulo_348478" data-name="Rectángulo 348478" width="4.197" height="3.067" rx="1.534" fill="#f2f2f2"/>
              </g>
              <g id="Grupo_1008848" data-name="Grupo 1008848" transform="translate(13.337 2.112)">
                <rect id="Rectángulo_348479" data-name="Rectángulo 348479" width="0.985" height="3.552" fill="#f2f2f2"/>
              </g>
            </g>
          </g>
        </g>
        <g id="Grupo_1008870" data-name="Grupo 1008870" transform="translate(10.75 91.439)">
          <g id="Grupo_1008854" data-name="Grupo 1008854" transform="translate(0)">
            <g id="Grupo_1008852" data-name="Grupo 1008852" transform="translate(0 1.79)">
              <path id="Trazado_723443" data-name="Trazado 723443" d="M45.906,340.474a1.771,1.771,0,0,0,1.752,1.79H86.073a1.771,1.771,0,0,0,1.752-1.79V289.486H45.906Z" transform="translate(-45.906 -289.486)" fill="#fff"/>
            </g>
            <g id="Grupo_1008853" data-name="Grupo 1008853">
              <path id="Trazado_723444" data-name="Trazado 723444" d="M86.073,284.223H47.658a1.772,1.772,0,0,0-1.752,1.79H87.825A1.771,1.771,0,0,0,86.073,284.223Z" transform="translate(-45.906 -284.223)" fill="#fca66f"/>
            </g>
          </g>
          <g id="Grupo_1008857" data-name="Grupo 1008857" transform="translate(4.589 54.569)">
            <g id="Grupo_1008855" data-name="Grupo 1008855" transform="translate(0 0)">
              <rect id="Rectángulo_348480" data-name="Rectángulo 348480" width="6.596" height="1.155" fill="#ccc"/>
            </g>
            <g id="Grupo_1008856" data-name="Grupo 1008856" transform="translate(26.146 0)">
              <rect id="Rectángulo_348481" data-name="Rectángulo 348481" width="6.596" height="1.155" transform="translate(6.596 1.155) rotate(-180)" fill="#ccc"/>
            </g>
          </g>
          <g id="Grupo_1008858" data-name="Grupo 1008858" transform="translate(6.325 12.335)">
            <ellipse id="Elipse_8735" data-name="Elipse 8735" cx="14.634" cy="14.949" rx="14.634" ry="14.949" fill="#f2f2f2"/>
          </g>
          <g id="Grupo_1008859" data-name="Grupo 1008859" transform="translate(9.001 15.068)">
            <ellipse id="Elipse_8736" data-name="Elipse 8736" cx="11.959" cy="12.216" rx="11.959" ry="12.216" fill="#86d4ef"/>
          </g>
          <g id="Grupo_1008860" data-name="Grupo 1008860" transform="translate(30.312 25.993)">
            <rect id="Rectángulo_348482" data-name="Rectángulo 348482" width="7.44" height="3.568" rx="1.784" fill="#f2f2f2"/>
          </g>
          <g id="Grupo_1008861" data-name="Grupo 1008861" transform="translate(3.403 47.633)">
            <rect id="Rectángulo_348483" data-name="Rectángulo 348483" width="35.113" height="3.515" rx="1.758" fill="#f2f2f2"/>
          </g>
          <g id="Grupo_1008864" data-name="Grupo 1008864" transform="translate(3.068 3.847)">
            <g id="Grupo_1008862" data-name="Grupo 1008862">
              <path id="Trazado_723445" data-name="Trazado 723445" d="M56.647,295.535a1.758,1.758,0,0,0,0,3.515h11v-3.515Z" transform="translate(-54.926 -295.535)" fill="#86d4ef"/>
            </g>
            <g id="Grupo_1008863" data-name="Grupo 1008863" transform="translate(12.722)">
              <path id="Trazado_723446" data-name="Trazado 723446" d="M113,295.535H92.334v3.515H113a1.758,1.758,0,0,0,0-3.515Z" transform="translate(-92.334 -295.535)" fill="#f2f2f2"/>
            </g>
          </g>
          <g id="Grupo_1008865" data-name="Grupo 1008865" transform="translate(17.969 4.826)">
            <ellipse id="Elipse_8737" data-name="Elipse 8737" cx="0.762" cy="0.779" rx="0.762" ry="0.779" fill="#fca66f"/>
          </g>
          <g id="Grupo_1008866" data-name="Grupo 1008866" transform="translate(21.526 4.826)">
            <ellipse id="Elipse_8738" data-name="Elipse 8738" cx="0.762" cy="0.779" rx="0.762" ry="0.779" fill="#fca66f"/>
          </g>
          <g id="Grupo_1008867" data-name="Grupo 1008867" transform="translate(25.084 4.826)">
            <ellipse id="Elipse_8739" data-name="Elipse 8739" cx="0.762" cy="0.779" rx="0.762" ry="0.779" fill="#fca66f"/>
          </g>
          <g id="Grupo_1008868" data-name="Grupo 1008868" transform="translate(28.641 4.826)">
            <ellipse id="Elipse_8740" data-name="Elipse 8740" cx="0.762" cy="0.779" rx="0.762" ry="0.779" fill="#fca66f"/>
          </g>
          <g id="Grupo_1008869" data-name="Grupo 1008869" transform="translate(32.199 4.826)">
            <ellipse id="Elipse_8741" data-name="Elipse 8741" cx="0.762" cy="0.779" rx="0.762" ry="0.779" fill="#fca66f"/>
          </g>
        </g>
        <g id="Grupo_1008912" data-name="Grupo 1008912" transform="translate(61.796 67.088)">
          <g id="Grupo_1008874" data-name="Grupo 1008874" transform="translate(44.047 20.074)">
            <g id="Grupo_1008871" data-name="Grupo 1008871" transform="translate(1.056 2.128)">
              <rect id="Rectángulo_348484" data-name="Rectángulo 348484" width="1.478" height="8.24" transform="translate(0.979 0) rotate(6.823)" fill="#1b1447"/>
            </g>
            <g id="Grupo_1008872" data-name="Grupo 1008872" transform="translate(1.192)">
              <path id="Trazado_723447" data-name="Trazado 723447" d="M331.509,271.8l-.171,1.434a.66.66,0,0,1-1.311-.157l.171-1.434a1.653,1.653,0,1,0,1.311.157Z" transform="translate(-329.021 -271.647)" fill="#1b1447"/>
            </g>
            <g id="Grupo_1008873" data-name="Grupo 1008873" transform="translate(0 9.893)">
              <path id="Trazado_723448" data-name="Trazado 723448" d="M326.333,303.814l.171-1.434a.66.66,0,0,1,1.311.157l-.172,1.434a1.652,1.652,0,1,0-1.311-.157Z" transform="translate(-325.516 -300.736)" fill="#1b1447"/>
            </g>
          </g>
          <g id="Grupo_1008877" data-name="Grupo 1008877" transform="translate(0 73.054)">
            <g id="Grupo_1008875" data-name="Grupo 1008875">
              <path id="Trazado_723449" data-name="Trazado 723449" d="M199.218,430.644,198.4,427.8a3.231,3.231,0,0,0-2.115-.283.447.447,0,0,0-.269.544l1.518,6.39h1.583C199.021,432.947,198.664,431.228,199.218,430.644Z" transform="translate(-196 -427.427)" fill="#1b1447"/>
            </g>
            <g id="Grupo_1008876" data-name="Grupo 1008876" transform="translate(1.532 5.481)">
              <path id="Trazado_723450" data-name="Trazado 723450" d="M203.519,444.625c-.3-.636-1.36-.906-2.576-1.081l-.437,1.541h2.59C203.455,445.085,203.638,444.88,203.519,444.625Z" transform="translate(-200.506 -443.544)" fill="#1b1447"/>
            </g>
          </g>
          <g id="Grupo_1008878" data-name="Grupo 1008878" transform="translate(21.711 18.897)">
            <path id="Trazado_723451" data-name="Trazado 723451" d="M264.325,268.186l-4.486,4.622a26.2,26.2,0,0,0,7.05,6.361,13.191,13.191,0,0,0,3.27-4.02A21.286,21.286,0,0,1,264.325,268.186Z" transform="translate(-259.839 -268.186)" fill="#f2f2f2"/>
          </g>
          <g id="Grupo_1008879" data-name="Grupo 1008879" transform="translate(28.761 25.86)">
            <path id="Trazado_723452" data-name="Trazado 723452" d="M296.006,289.206a57.151,57.151,0,0,1-8.1,2.29,36.122,36.122,0,0,1-4.072-2.836,13.19,13.19,0,0,1-3.27,4.02,35.975,35.975,0,0,0,6,3.171,1.583,1.583,0,0,0,1.086.05,48.449,48.449,0,0,0,9.376-4.116A6.882,6.882,0,0,0,296.006,289.206Z" transform="translate(-280.568 -288.66)" fill="#f79894"/>
          </g>
          <g id="Grupo_1008880" data-name="Grupo 1008880" transform="translate(44.194 25.712)">
            <path id="Trazado_723453" data-name="Trazado 723453" d="M328.928,291.617a.513.513,0,0,0,.319-.126.454.454,0,0,0,.119-.468.765.765,0,0,0,.294-.164.675.675,0,0,0,.192-.695.456.456,0,0,0,.149-.09.539.539,0,0,0-.018-.766,1,1,0,0,0-.529-.285c.154-.3.147-.5.033-.628-.421-.463-3.1.13-3.535.525l0,1.033.5,1.309a3.363,3.363,0,0,0,.307.4,1.4,1.4,0,0,0,1.976.323A.608.608,0,0,0,328.928,291.617Z" transform="translate(-325.948 -288.225)" fill="#f79894"/>
          </g>
          <g id="Grupo_1008883" data-name="Grupo 1008883" transform="translate(43.648 74.899)">
            <g id="Grupo_1008881" data-name="Grupo 1008881" transform="translate(0.5)">
              <path id="Trazado_723454" data-name="Trazado 723454" d="M328.79,436.171l-.121-2.992-2.824-.326a31.816,31.816,0,0,0,.038,3.583Z" transform="translate(-325.809 -432.853)" fill="#f79894"/>
            </g>
            <g id="Grupo_1008882" data-name="Grupo 1008882" transform="translate(0 2.657)">
              <path id="Trazado_723455" data-name="Trazado 723455" d="M327.794,440.667c.909,1.137,5.3.5,6.138,2.06.137.255.014.459-.286.459h-8.737a.535.535,0,0,1-.524-.387,2.836,2.836,0,0,1,.471-1.992Z" transform="translate(-324.34 -440.667)" fill="#1b1447"/>
            </g>
          </g>
          <g id="Grupo_1008884" data-name="Grupo 1008884" transform="translate(20.915 42.853)">
            <path id="Trazado_723456" data-name="Trazado 723456" d="M265.457,338.624l-5.088,3.327L257.5,352.673s11.693.022,20.575,1.042c.451,6.537,1.113,16.884,2.045,19.733a8.219,8.219,0,0,0,4.66,0s1.306-10.619,1.722-23.356a2.506,2.506,0,0,0-1.259-2.253C280.128,344.9,270.185,340.749,265.457,338.624Z" transform="translate(-257.498 -338.624)" fill="#417abd"/>
          </g>
          <g id="Grupo_1008885" data-name="Grupo 1008885" transform="translate(21.151 10.254)">
            <path id="Trazado_723457" data-name="Trazado 723457" d="M262.574,249.445a8.937,8.937,0,0,0,.146,1.641,21.039,21.039,0,0,1-4.528-3.113,51.69,51.69,0,0,0,.916-5.2c.1.191.211.379.327.56.9,1.457,2.282,1.712,3.557,2.877-.1.392-.223,1.175-.314,1.861-.052.408-.091.78-.1,1.02C262.577,249.208,262.574,249.325,262.574,249.445Z" transform="translate(-258.192 -242.771)" fill="#f79894"/>
          </g>
          <g id="Grupo_1008886" data-name="Grupo 1008886" transform="translate(22.369 11.047)">
            <path id="Trazado_723458" data-name="Trazado 723458" d="M264.939,251.044c0-.02,0-.04,0-.061,0-.12,0-.236.006-.356.006-.239.045-.612.1-1.02.09-.686.217-1.469.314-1.861-1.2-1.1-2.5-1.39-3.4-2.644C261.2,247.6,262.924,249.688,264.939,251.044Z" transform="translate(-261.773 -245.103)" fill="#1b1447"/>
          </g>
          <g id="Grupo_1008887" data-name="Grupo 1008887" transform="translate(2.271 46.254)">
            <path id="Trazado_723459" data-name="Trazado 723459" d="M227.962,348.626l-11.153,2.786a56.821,56.821,0,0,0,2.566,8.932c.988,2.366,1.145,8.757,1.035,13.6-6.624-.27-14.869-.005-17.73,1.244a8.258,8.258,0,0,0,1.077,4.533s12.577,2.71,23.08,2.792A1.85,1.85,0,0,0,228.664,381c1.316-6.954,4.013-24.373,4.292-29.588Z" transform="translate(-202.676 -348.626)" fill="#4a8ad6"/>
          </g>
          <g id="Grupo_1008888" data-name="Grupo 1008888" transform="translate(16.403 15.005)">
            <path id="Trazado_723460" data-name="Trazado 723460" d="M260.378,290.776s-8.576,3.146-16.147,0c0,0,1.259-19.156,1.34-23.4a25.96,25.96,0,0,1,.544-5.007,14.457,14.457,0,0,1,2.2-5.292.769.769,0,0,1,.835-.3,14.251,14.251,0,0,1,4.615,2.54.816.816,0,0,1,.181.21,31.748,31.748,0,0,1,2.1,4.686C257.866,269.141,260.206,277.921,260.378,290.776Z" transform="translate(-244.231 -256.742)" fill="#4a8ad6"/>
          </g>
          <g id="Grupo_1008890" data-name="Grupo 1008890" transform="translate(27.651 32.17)">
            <g id="Grupo_1008889" data-name="Grupo 1008889">
              <path id="Trazado_723461" data-name="Trazado 723461" d="M281.688,315.113a.127.127,0,0,1-.037-.005c-2.725-.819-4.228-3.375-4.346-7.393a.128.128,0,0,1,.123-.132,18.085,18.085,0,0,0,3.107-.367.128.128,0,0,1,.052.25,18.276,18.276,0,0,1-3.024.367c.1,2.7.914,6.054,4.161,7.029a.128.128,0,0,1-.037.25Z" transform="translate(-277.305 -307.214)" fill="#417abd"/>
            </g>
          </g>
          <g id="Grupo_1008891" data-name="Grupo 1008891" transform="translate(18.287 15.005)">
            <path id="Trazado_723462" data-name="Trazado 723462" d="M259.7,264.208a1.582,1.582,0,0,1-1.311.861c-2.126,0-.786-5.328-5.437-5.328-1.249,0-2.472,1.454-3.178,2.626a14.458,14.458,0,0,1,2.2-5.292.769.769,0,0,1,.835-.3,14.251,14.251,0,0,1,4.615,2.54,1.72,1.72,0,0,1,.181.21A15.783,15.783,0,0,1,259.7,264.208Z" transform="translate(-249.77 -256.742)" fill="#fff230"/>
          </g>
          <g id="Grupo_1008892" data-name="Grupo 1008892" transform="translate(19.426 20.252)">
            <path id="Trazado_723463" data-name="Trazado 723463" d="M258.672,274.432a2.8,2.8,0,0,0-5.5,1.082,3.081,3.081,0,0,0,.118.423c.542,1.481,1.068,2.967,1.588,4.455a10.584,10.584,0,0,0,4.634-1.835C259.236,277.239,258.957,275.876,258.672,274.432Z" transform="translate(-253.12 -272.17)" fill="#fff230"/>
          </g>
          <g id="Grupo_1008894" data-name="Grupo 1008894" transform="translate(16.965 51.824)">
            <g id="Grupo_1008893" data-name="Grupo 1008893">
              <path id="Trazado_723464" data-name="Trazado 723464" d="M247.125,369.218a.128.128,0,0,1-.081-.227,2.365,2.365,0,0,0,.78-1.838,5.691,5.691,0,0,0-.378-1.881,7.921,7.921,0,0,1-1.439.084.127.127,0,0,1-.122-.133c0-.07.066-.14.133-.122a8.183,8.183,0,0,0,1.5-.1.125.125,0,0,1,.138.083,6.074,6.074,0,0,1,.429,2.065,2.622,2.622,0,0,1-.874,2.036A.128.128,0,0,1,247.125,369.218Z" transform="translate(-245.885 -365.003)" fill="#417abd"/>
            </g>
          </g>
          <g id="Grupo_1008910" data-name="Grupo 1008910" transform="translate(20.038 0)">
            <g id="Grupo_1008895" data-name="Grupo 1008895" transform="translate(0.532 2.055)">
              <path id="Trazado_723465" data-name="Trazado 723465" d="M266.355,224.822a6.606,6.606,0,0,0,.109-4.117c-.45-1.248-1.945-1.835-3.152-1.986a10.3,10.3,0,0,0-2.73.1,4.825,4.825,0,0,0-2.051.555,4.729,4.729,0,0,0-1.952,3.261,6.375,6.375,0,0,0,2.285,6.1l3.322-5.067a6.191,6.191,0,0,0,2.622,1.139,5.175,5.175,0,0,0,1.545.031S266.354,224.826,266.355,224.822Z" transform="translate(-256.483 -218.665)" fill="#1b1447"/>
            </g>
            <g id="Grupo_1008896" data-name="Grupo 1008896" transform="translate(0 5.325)">
              <path id="Trazado_723466" data-name="Trazado 723466" d="M259.749,228.278c-.194.92-1.646,3.3-2.452,3.345l-.248-.879a1.1,1.1,0,0,0-.748-.621l-.044-.006c-.783-.09-1.176.591-1.294,1.294a1.856,1.856,0,0,0,1.522,2.391c.292,1.985,2.093,4.69,4.237,5.05,4.344.731,4.607-8.068,4.611-8.09a6.528,6.528,0,0,1-1.294-.087A7.327,7.327,0,0,1,259.749,228.278Z" transform="translate(-254.92 -228.278)" fill="#f79894"/>
            </g>
            <g id="Grupo_1008899" data-name="Grupo 1008899" transform="translate(7.79 8.43)">
              <g id="Grupo_1008897" data-name="Grupo 1008897">
                <path id="Trazado_723467" data-name="Trazado 723467" d="M277.825,237.87a.856.856,0,0,1,.749-.459.977.977,0,0,1,1.069.77,2.01,2.01,0,0,0-1.32-.418A1.6,1.6,0,0,0,277.825,237.87Z" transform="translate(-277.825 -237.408)" fill="#1b1447"/>
              </g>
              <g id="Grupo_1008898" data-name="Grupo 1008898" transform="translate(0.593 1.175)">
                <ellipse id="Elipse_8742" data-name="Elipse 8742" cx="0.363" cy="0.261" rx="0.363" ry="0.261" transform="matrix(0.117, -0.993, 0.993, 0.117, 0, 0.722)" fill="#1b1447"/>
              </g>
            </g>
            <g id="Grupo_1008900" data-name="Grupo 1008900" transform="translate(9.172 9.308)">
              <path id="Trazado_723468" data-name="Trazado 723468" d="M282.432,239.99a8.988,8.988,0,0,0-.46,2.738,5.9,5.9,0,0,0-.083.971,5.253,5.253,0,0,0,.575.137c.779.131,1.218-.166,1.254-.377A12.787,12.787,0,0,1,282.432,239.99Z" transform="translate(-281.889 -239.99)" fill="#f79894"/>
            </g>
            <g id="Grupo_1008903" data-name="Grupo 1008903" transform="translate(0.432)">
              <g id="Grupo_1008901" data-name="Grupo 1008901" transform="translate(1.276 6.02)">
                <path id="Trazado_723469" data-name="Trazado 723469" d="M269.412,230.4a6.747,6.747,0,0,1-.759.351,17.2,17.2,0,0,1-8.7.495l-.012,0s8.487,2.961,12.136.241C274.223,229.891,269.412,230.4,269.412,230.4Z" transform="translate(-259.943 -230.323)" fill="#fff230"/>
              </g>
              <g id="Grupo_1008902" data-name="Grupo 1008902">
                <path id="Trazado_723470" data-name="Trazado 723470" d="M266.177,219.07a6.75,6.75,0,0,0,.759-.351,17.118,17.118,0,0,0-.567-3.05c-.97-2.47-3.573-3.519-6.24-2.851-4.616,1.156-3.9,6.38-3.9,6.38a6.255,6.255,0,0,0,1.248.366A17.2,17.2,0,0,0,266.177,219.07Z" transform="translate(-256.191 -212.621)" fill="#4a8ad6"/>
              </g>
            </g>
            <g id="Grupo_1008908" data-name="Grupo 1008908" transform="translate(0.403 8.099)">
              <g id="Grupo_1008905" data-name="Grupo 1008905">
                <g id="Grupo_1008904" data-name="Grupo 1008904">
                  <path id="Trazado_723471" data-name="Trazado 723471" d="M256.249,237.459a.107.107,0,0,1-.089-.046.289.289,0,0,1-.054-.178c0-.017,0-.035,0-.052l0-.035a1.006,1.006,0,0,1,.1-.435.471.471,0,0,1,.422-.28h.005a.606.606,0,0,1,.514.389l.037.062a.128.128,0,0,1-.219.133l-.038-.065c-.1-.171-.16-.261-.3-.263-.03,0-.123,0-.2.143a.751.751,0,0,0-.076.319c0,.018,0,.035,0,.053l0,.034a.144.144,0,0,1-.027.191A.148.148,0,0,1,256.249,237.459Z" transform="translate(-256.106 -236.434)" fill="#040000"/>
                </g>
              </g>
              <g id="Grupo_1008907" data-name="Grupo 1008907" transform="translate(0.365 0.699)">
                <g id="Grupo_1008906" data-name="Grupo 1008906">
                  <path id="Trazado_723472" data-name="Trazado 723472" d="M257.473,239.668a.128.128,0,0,1-.1-.2.382.382,0,0,0,.08-.23.907.907,0,0,0-.245-.537.128.128,0,1,1,.2-.16,1.128,1.128,0,0,1,.3.7.639.639,0,0,1-.131.38A.129.129,0,0,1,257.473,239.668Z" transform="translate(-257.178 -238.489)" fill="#040000"/>
                </g>
              </g>
            </g>
            <g id="Grupo_1008909" data-name="Grupo 1008909" transform="translate(6.986 13.105)">
              <path id="Trazado_723473" data-name="Trazado 723473" d="M276.984,251.617a3.143,3.143,0,0,0-.477.751,1.917,1.917,0,0,1-1.046-1.212A4.544,4.544,0,0,0,276.984,251.617Z" transform="translate(-275.461 -251.156)" fill="#1b1447"/>
            </g>
          </g>
          <g id="Grupo_1008911" data-name="Grupo 1008911" transform="translate(21.186 26.638)">
            <path id="Trazado_723474" data-name="Trazado 723474" d="M276.719,309a1.487,1.487,0,0,0-1.595-1.267c-.051,0-.1,0-.158.006-.065-.035-.128-.072-.194-.106l-9.451-8.669-2.393-8.018-4.634,1.836,3.1,8.722a1.758,1.758,0,0,0,.66.859l11.421,7.844.013-.013c.314.819,1.573,2.23,2.228,2.312l.037-.036a1.592,1.592,0,0,0-.293-.689,4.164,4.164,0,0,0,1.487.926c.114,0,.147-.048.147-.117a3.228,3.228,0,0,0-.873-1.31,4.616,4.616,0,0,0,1.733.843c.087,0,.168-.029.168-.116a7.016,7.016,0,0,0-1.439-1.443,14.647,14.647,0,0,0,1.667.834c.216,0,.158-.152.19-.2A9.8,9.8,0,0,0,276.719,309Z" transform="translate(-258.294 -290.948)" fill="#f79894"/>
          </g>
        </g>
        <g id="Grupo_1008980" data-name="Grupo 1008980" transform="translate(199.149 32.053)">
          <g id="Grupo_1008976" data-name="Grupo 1008976" transform="translate(0)">
            <g id="Grupo_1008916" data-name="Grupo 1008916" transform="translate(1.274)">
              <g id="Grupo_1008913" data-name="Grupo 1008913" transform="translate(0.919 2.152)">
                <rect id="Rectángulo_348485" data-name="Rectángulo 348485" width="1.478" height="8.24" transform="translate(0 0.013) rotate(-0.492)" fill="#1b1447"/>
              </g>
              <g id="Grupo_1008914" data-name="Grupo 1008914">
                <path id="Trazado_723475" data-name="Trazado 723475" d="M605.914,109.607l.012,1.444a.66.66,0,1,1-1.32.012l-.013-1.444a1.652,1.652,0,1,0,1.321-.012Z" transform="translate(-603.614 -109.607)" fill="#1b1447"/>
              </g>
              <g id="Grupo_1008915" data-name="Grupo 1008915" transform="translate(0.086 9.902)">
                <path id="Trazado_723476" data-name="Trazado 723476" d="M604.872,141.9l-.012-1.444a.66.66,0,0,1,1.32-.012l.013,1.444a1.652,1.652,0,1,0-1.321.012Z" transform="translate(-603.867 -138.723)" fill="#1b1447"/>
              </g>
            </g>
            <g id="Grupo_1008921" data-name="Grupo 1008921" transform="translate(1.456 5.125)">
              <g id="Grupo_1008919" data-name="Grupo 1008919" transform="translate(2.257 1.925)">
                <g id="Grupo_1008917" data-name="Grupo 1008917" transform="translate(13.412 9.32)">
                  <path id="Trazado_723477" data-name="Trazado 723477" d="M661.141,159.682l-2.017,6.117a26.205,26.205,0,0,1-8.9-3.3,13.193,13.193,0,0,1,2.047-4.76A21.288,21.288,0,0,0,661.141,159.682Z" transform="translate(-650.221 -157.739)" fill="#f2f2f2"/>
                </g>
                <g id="Grupo_1008918" data-name="Grupo 1008918">
                  <path id="Trazado_723478" data-name="Trazado 723478" d="M610.785,132.286a6.881,6.881,0,0,1,1.976-1.95c.956.892,6.565,6.338,13.483,9.32a13.193,13.193,0,0,0-2.047,4.76A43.964,43.964,0,0,1,610.785,132.286Z" transform="translate(-610.785 -130.336)" fill="#f79894"/>
                </g>
              </g>
              <g id="Grupo_1008920" data-name="Grupo 1008920">
                <path id="Trazado_723479" data-name="Trazado 723479" d="M604.574,127.88a.512.512,0,0,1-.242-.243.454.454,0,0,1,.078-.477.766.766,0,0,1-.2-.268.676.676,0,0,1,.1-.714.46.46,0,0,1-.1-.142.539.539,0,0,1,.324-.694,1,1,0,0,1,.6-.049c-.02-.339.068-.52.222-.589.571-.255,2.788,1.362,3.028,1.9l-.41.948-.979,1a3.375,3.375,0,0,1-.44.24,1.4,1.4,0,0,1-1.94-.5A.609.609,0,0,1,604.574,127.88Z" transform="translate(-604.148 -124.677)" fill="#f79894"/>
              </g>
            </g>
            <g id="Grupo_1008926" data-name="Grupo 1008926" transform="translate(15.024 48.21)">
              <g id="Grupo_1008924" data-name="Grupo 1008924" transform="translate(0 48.599)">
                <g id="Grupo_1008922" data-name="Grupo 1008922" transform="translate(6.167)">
                  <path id="Trazado_723480" data-name="Trazado 723480" d="M662.179,397.58l.121-2.992,2.824-.326a31.819,31.819,0,0,1-.038,3.583Z" transform="translate(-662.179 -394.262)" fill="#f79894"/>
                </g>
                <g id="Grupo_1008923" data-name="Grupo 1008923" transform="translate(0 2.657)">
                  <path id="Trazado_723481" data-name="Trazado 723481" d="M650.239,402.076c-.909,1.137-5.3.5-6.138,2.06-.137.255-.014.459.286.459h8.737a.535.535,0,0,0,.524-.387,2.839,2.839,0,0,0-.471-1.992Z" transform="translate(-644.045 -402.076)" fill="#1b1447"/>
                </g>
              </g>
              <g id="Grupo_1008925" data-name="Grupo 1008925" transform="translate(3.053)">
                <path id="Trazado_723482" data-name="Trazado 723482" d="M669.241,254.149a65.171,65.171,0,0,1-3.877,8.932c-2.057,3.644-3.014,9.717-3,12.075s-.976,22.51-2.636,27.583a8.215,8.215,0,0,1-4.659,0s-2.5-42.945-1.975-48.59l5.4-2.787Z" transform="translate(-653.022 -251.362)" fill="#417abd"/>
              </g>
            </g>
            <g id="Grupo_1008927" data-name="Grupo 1008927" transform="translate(24.75 12.21)">
              <path id="Trazado_723483" data-name="Trazado 723483" d="M673.059,152.181a8.933,8.933,0,0,1-.146,1.641,21.037,21.037,0,0,0,4.528-3.113,51.645,51.645,0,0,1-.916-5.2c-.1.191-.211.379-.327.56-.9,1.456-2.282,1.712-3.557,2.877.1.392.223,1.175.314,1.861.052.408.091.78.1,1.02C673.055,151.945,673.059,152.062,673.059,152.181Z" transform="translate(-672.641 -145.508)" fill="#f79894"/>
            </g>
            <g id="Grupo_1008928" data-name="Grupo 1008928" transform="translate(24.75 12.769)">
              <path id="Trazado_723484" data-name="Trazado 723484" d="M672.641,150.031c.1.392.223,1.175.314,1.861,1.4-1.068,2.893-2.214,3.369-3.89-.042-.285-.084-.566-.126-.848C675.3,148.61,673.916,148.866,672.641,150.031Z" transform="translate(-672.641 -147.154)" fill="#1b1447"/>
            </g>
            <g id="Grupo_1008933" data-name="Grupo 1008933" transform="translate(18.15 48.21)">
              <g id="Grupo_1008931" data-name="Grupo 1008931" transform="translate(4.319 48.599)">
                <g id="Grupo_1008929" data-name="Grupo 1008929" transform="translate(5.618)">
                  <path id="Trazado_723485" data-name="Trazado 723485" d="M682.774,397.58l-.318-2.992,2.776-.326a32.771,32.771,0,0,1,.488,3.583Z" transform="translate(-682.456 -394.262)" fill="#f79894"/>
                </g>
                <g id="Grupo_1008930" data-name="Grupo 1008930" transform="translate(0 2.657)">
                  <path id="Trazado_723486" data-name="Trazado 723486" d="M671.8,402.076c-.743,1.137-5.225.5-5.836,2.06-.1.255.054.459.354.459h8.737a.446.446,0,0,0,.467-.387,3.229,3.229,0,0,0-.764-1.992Z" transform="translate(-665.936 -402.076)" fill="#1b1447"/>
                </g>
              </g>
              <g id="Grupo_1008932" data-name="Grupo 1008932">
                <path id="Trazado_723487" data-name="Trazado 723487" d="M669.383,254.149a56.82,56.82,0,0,1-2.566,8.932c-1.522,3.644-1.587,9.717-1.227,12.075s2.33,22.51,1.414,27.583a8.26,8.26,0,0,1-4.66,0s-6.543-32.585-7.492-35.728-1.315-7.216-1.617-12.861l4.994-2.787Z" transform="translate(-653.236 -251.362)" fill="#4a8ad6"/>
              </g>
            </g>
            <g id="Grupo_1008934" data-name="Grupo 1008934" transform="translate(18.151 16.961)">
              <path id="Trazado_723488" data-name="Trazado 723488" d="M653.238,193.513s8.576,3.146,16.147,0c0,0-1.259-19.157-1.34-23.4a25.968,25.968,0,0,0-.544-5.007,14.461,14.461,0,0,0-2.2-5.292.771.771,0,0,0-.835-.3,14.258,14.258,0,0,0-4.615,2.541.814.814,0,0,0-.181.21,31.725,31.725,0,0,0-2.1,4.686C655.749,171.877,653.409,180.658,653.238,193.513Z" transform="translate(-653.238 -159.479)" fill="#4a8ad6"/>
            </g>
            <g id="Grupo_1008936" data-name="Grupo 1008936" transform="translate(18.538 34.126)">
              <g id="Grupo_1008935" data-name="Grupo 1008935">
                <path id="Trazado_723489" data-name="Trazado 723489" d="M654.5,217.85a.128.128,0,0,1-.037-.25c3.246-.975,4.06-4.332,4.16-7.029a18.3,18.3,0,0,1-3.023-.367.128.128,0,1,1,.052-.25,18.133,18.133,0,0,0,3.107.367.127.127,0,0,1,.123.131c-.118,4.019-1.621,6.575-4.346,7.394A.144.144,0,0,1,654.5,217.85Z" transform="translate(-654.377 -209.95)" fill="#417abd"/>
              </g>
            </g>
            <g id="Grupo_1008937" data-name="Grupo 1008937" transform="translate(22.487 16.961)">
              <path id="Trazado_723490" data-name="Trazado 723490" d="M665.989,166.945a1.582,1.582,0,0,0,1.311.861c2.126,0,.786-5.328,5.437-5.328,1.249,0,2.472,1.454,3.178,2.626a14.461,14.461,0,0,0-2.2-5.292.771.771,0,0,0-.835-.3,14.26,14.26,0,0,0-4.615,2.541,1.729,1.729,0,0,0-.181.21A15.783,15.783,0,0,0,665.989,166.945Z" transform="translate(-665.989 -159.479)" fill="#fff"/>
            </g>
            <g id="Grupo_1008938" data-name="Grupo 1008938" transform="translate(24.88 22.208)">
              <path id="Trazado_723491" data-name="Trazado 723491" d="M673.866,177.169a2.8,2.8,0,1,1,5.5,1.082,3.067,3.067,0,0,1-.118.422c-.542,1.481-1.068,2.968-1.588,4.455a10.584,10.584,0,0,1-4.635-1.835C673.3,179.975,673.582,178.613,673.866,177.169Z" transform="translate(-673.025 -174.907)" fill="#fff"/>
            </g>
            <g id="Grupo_1008960" data-name="Grupo 1008960" transform="translate(0 42.997)">
              <g id="Grupo_1008940" data-name="Grupo 1008940" transform="translate(5.908)">
                <g id="Grupo_1008939" data-name="Grupo 1008939">
                  <path id="Trazado_723492" data-name="Trazado 723492" d="M617.24,237.628a1.6,1.6,0,0,1,1.594-1.594h6.536a1.6,1.6,0,0,1,1.594,1.594v3.67H617.24Zm8.842,0a.714.714,0,0,0-.713-.713h-6.536a.713.713,0,0,0-.713.713v2.788h7.961Z" transform="translate(-617.24 -236.034)" fill="#1b1447"/>
                </g>
              </g>
              <g id="Grupo_1008945" data-name="Grupo 1008945" transform="translate(0 2.632)">
                <g id="Grupo_1008942" data-name="Grupo 1008942">
                  <g id="Grupo_1008941" data-name="Grupo 1008941">
                    <path id="Trazado_723493" data-name="Trazado 723493" d="M601.886,243.773h17.5a1.61,1.61,0,0,1,1.471,1.068l.547,3.312h-21.54l.547-3.312A1.61,1.61,0,0,1,601.886,243.773Z" transform="translate(-599.868 -243.773)" fill="#cc3b3b"/>
                  </g>
                </g>
                <g id="Grupo_1008944" data-name="Grupo 1008944" transform="translate(0 4.379)">
                  <g id="Grupo_1008943" data-name="Grupo 1008943">
                    <path id="Trazado_723494" data-name="Trazado 723494" d="M621.408,256.65v5.915a1.438,1.438,0,0,1-1.3,1.545H601.166a1.438,1.438,0,0,1-1.3-1.545V256.65Z" transform="translate(-599.868 -256.65)" fill="#ff4040"/>
                  </g>
                </g>
              </g>
              <g id="Grupo_1008947" data-name="Grupo 1008947" transform="translate(0 12.926)">
                <g id="Grupo_1008946" data-name="Grupo 1008946" transform="translate(0 0)">
                  <path id="Rectángulo_348486" data-name="Rectángulo 348486" d="M1.545,0H20A1.545,1.545,0,0,1,21.54,1.545v0a0,0,0,0,1,0,0H0a0,0,0,0,1,0,0v0A1.545,1.545,0,0,1,1.545,0Z" transform="translate(21.54 1.545) rotate(-180)" fill="#cc3b3b"/>
                </g>
              </g>
              <g id="Grupo_1008949" data-name="Grupo 1008949" transform="translate(16.193 5.814)">
                <g id="Grupo_1008948" data-name="Grupo 1008948" transform="translate(0 0)">
                  <rect id="Rectángulo_348487" data-name="Rectángulo 348487" width="1.393" height="2.395" rx="0.696" transform="translate(1.393 2.395) rotate(-180)" fill="#1b1447"/>
                </g>
              </g>
              <g id="Grupo_1008951" data-name="Grupo 1008951" transform="translate(3.427 5.814)">
                <g id="Grupo_1008950" data-name="Grupo 1008950" transform="translate(0 0)">
                  <rect id="Rectángulo_348488" data-name="Rectángulo 348488" width="1.393" height="2.395" rx="0.696" transform="translate(1.393 2.395) rotate(-180)" fill="#1b1447"/>
                </g>
              </g>
              <g id="Grupo_1008953" data-name="Grupo 1008953" transform="translate(6.579 8.003)">
                <g id="Grupo_1008952" data-name="Grupo 1008952">
                  <rect id="Rectángulo_348489" data-name="Rectángulo 348489" width="8.382" height="0.34" fill="#cc3b3b"/>
                </g>
              </g>
              <g id="Grupo_1008955" data-name="Grupo 1008955" transform="translate(6.579 8.858)">
                <g id="Grupo_1008954" data-name="Grupo 1008954">
                  <rect id="Rectángulo_348490" data-name="Rectángulo 348490" width="8.382" height="0.34" fill="#cc3b3b"/>
                </g>
              </g>
              <g id="Grupo_1008957" data-name="Grupo 1008957" transform="translate(6.579 9.714)">
                <g id="Grupo_1008956" data-name="Grupo 1008956">
                  <rect id="Rectángulo_348491" data-name="Rectángulo 348491" width="8.382" height="0.34" fill="#cc3b3b"/>
                </g>
              </g>
              <g id="Grupo_1008959" data-name="Grupo 1008959" transform="translate(6.579 10.569)">
                <g id="Grupo_1008958" data-name="Grupo 1008958">
                  <rect id="Rectángulo_348492" data-name="Rectángulo 348492" width="8.382" height="0.34" fill="#cc3b3b"/>
                </g>
              </g>
            </g>
            <g id="Grupo_1008961" data-name="Grupo 1008961" transform="translate(8.186 28.594)">
              <path id="Trazado_723495" data-name="Trazado 723495" d="M628.172,205.355a23.994,23.994,0,0,1,2.42-.324q1.171-.151,2.339-.322,1.595-.23,3.186-.484l.219-.035.151-.025a2.757,2.757,0,0,0,2.241-1.892c.663-2.915,1.281-5.639,1.9-8.588a10.584,10.584,0,0,0,4.634,1.835c-.2.581-.408,1.161-.608,1.743l-2.148,6.355A6.422,6.422,0,0,1,639.406,207c-2.027,1.048-3.169.107-10.837,1.249-.106.24-.674,1.539-1.359,1.642a.4.4,0,0,1-.5-.241.745.745,0,0,1-.351.243.447.447,0,0,1-.51-.337.739.739,0,0,1-.463.319l-.026,0c-.251.026-.381-.17-.416-.4,0-.02-.005-.04-.007-.061a1.279,1.279,0,0,1-.6.478c-.155.023-.367-.022-.392-.19a3.561,3.561,0,0,1,1.354-2.818,6.658,6.658,0,0,1,2.384-1.394C627.847,205.438,628.009,205.394,628.172,205.355Z" transform="translate(-623.939 -193.685)" fill="#f79894"/>
            </g>
            <g id="Grupo_1008963" data-name="Grupo 1008963" transform="translate(31.54 53.78)">
              <g id="Grupo_1008962" data-name="Grupo 1008962">
                <path id="Trazado_723496" data-name="Trazado 723496" d="M693.561,271.955a.128.128,0,0,1-.081-.029,2.625,2.625,0,0,1-.874-2.036,6.105,6.105,0,0,1,.428-2.066.127.127,0,0,1,.138-.083,8.231,8.231,0,0,0,1.5.1.134.134,0,0,1,.133.124.128.128,0,0,1-.124.132,8.3,8.3,0,0,1-1.438-.085,5.705,5.705,0,0,0-.378,1.881,2.367,2.367,0,0,0,.779,1.838.128.128,0,0,1-.081.227Z" transform="translate(-692.607 -267.74)" fill="#417abd"/>
              </g>
            </g>
            <g id="Grupo_1008975" data-name="Grupo 1008975" transform="translate(20.368 1.512)">
              <g id="Grupo_1008964" data-name="Grupo 1008964" transform="translate(1.263)">
                <path id="Trazado_723497" data-name="Trazado 723497" d="M676.117,121.323a.7.7,0,0,0-.537-.658,2.365,2.365,0,0,0,.448-1.236c0-.521-.316-.94-1.046-1.158a1.347,1.347,0,0,0,.12-.57,1.621,1.621,0,0,0-1.559-1.582,1.322,1.322,0,0,0-.284.031c-.01-.8-.448-1.379-1.13-1.379a1.6,1.6,0,0,0-.656.156,1.5,1.5,0,0,0-1.354-.873,1.685,1.685,0,0,0-1.306.642,1.474,1.474,0,0,0-1.054-.458,1.185,1.185,0,0,0-1.248,1.107c0,.032,0,.065,0,.1a2.217,2.217,0,0,0-.687-.111,1.356,1.356,0,0,0-1.478,1.266c0,.012,0,.024,0,.036a.856.856,0,0,0,.086.333,1.344,1.344,0,0,0-.965,1.349,2.271,2.271,0,0,0,1.08,1.849,1.709,1.709,0,0,0-.036.347,2.16,2.16,0,0,0,2.148,2.014,1.869,1.869,0,0,0,.831-.193,3.242,3.242,0,0,0,2.739,2.078,1.2,1.2,0,0,0,.719-.211,1.521,1.521,0,0,0,1.278.542c1.07,0,3.384-.622,3.384-1.579a2.194,2.194,0,0,0-.172-.676A1.818,1.818,0,0,0,676.117,121.323Z" transform="translate(-663.471 -114.053)" fill="#1b1447"/>
              </g>
              <g id="Grupo_1008965" data-name="Grupo 1008965" transform="translate(1.357 4.351)">
                <path id="Trazado_723498" data-name="Trazado 723498" d="M671.291,129.76a1.152,1.152,0,0,0-.029.253,1.072,1.072,0,0,0,.889,1.049l.331-.429a1.1,1.1,0,0,1,.925-.3l.043.011c.76.207.871.986.72,1.682a1.856,1.856,0,0,1-2.3,1.654c-1.009,1.734-3.687,3.576-5.811,3.113-4-.871-1.669-8.066-1.315-9.1a3.094,3.094,0,0,0,.851.157c.533,0,.939-.278,1.676-1,.063.59.818.983,1.417,1.059a.658.658,0,0,0-.02.158c0,.433.467.728,1.031.728.043,0,.086,0,.13-.005a1.282,1.282,0,0,0,1.3.982A1.592,1.592,0,0,0,671.291,129.76Z" transform="translate(-663.747 -126.847)" fill="#f79894"/>
              </g>
              <g id="Grupo_1008966" data-name="Grupo 1008966" transform="translate(0 6.724)">
                <path id="Trazado_723499" data-name="Trazado 723499" d="M662.244,133.823a8.989,8.989,0,0,1-.591,2.713,6.008,6.008,0,0,1-.284.932,5.232,5.232,0,0,1-.585-.087c-.772-.168-1.069-.607-1.024-.816A12.792,12.792,0,0,0,662.244,133.823Z" transform="translate(-659.757 -133.823)" fill="#f79894"/>
              </g>
              <g id="Grupo_1008971" data-name="Grupo 1008971" transform="translate(10.171 8.83)">
                <g id="Grupo_1008968" data-name="Grupo 1008968" transform="translate(0.182)">
                  <g id="Grupo_1008967" data-name="Grupo 1008967">
                    <path id="Trazado_723500" data-name="Trazado 723500" d="M690.945,141.159a.128.128,0,0,1-.069-.235l.025-.054c.005-.017.011-.035.018-.052.054-.141.106-.456-.083-.53-.127-.05-.214.012-.371.133l-.061.046a.128.128,0,0,1-.153-.2l.057-.044a.606.606,0,0,1,.62-.17c.358.139.333.591.229.861l-.011.034c-.005.016-.01.032-.016.048a.291.291,0,0,1-.116.146A.128.128,0,0,1,690.945,141.159Z" transform="translate(-690.2 -140.015)" fill="#040000"/>
                  </g>
                </g>
                <g id="Grupo_1008970" data-name="Grupo 1008970" transform="translate(0 0.69)">
                  <g id="Grupo_1008969" data-name="Grupo 1008969">
                    <path id="Trazado_723501" data-name="Trazado 723501" d="M689.811,143.1a.128.128,0,0,1-.124-.1.638.638,0,0,1,.02-.4,1.128,1.128,0,0,1,.54-.537.128.128,0,1,1,.126.222.908.908,0,0,0-.427.407.385.385,0,0,0-.011.244.128.128,0,0,1-.091.156A.138.138,0,0,1,689.811,143.1Z" transform="translate(-689.664 -142.046)" fill="#040000"/>
                  </g>
                </g>
              </g>
              <g id="Grupo_1008972" data-name="Grupo 1008972" transform="translate(2.363 5.674)">
                <path id="Trazado_723502" data-name="Trazado 723502" d="M668.531,131.488a.855.855,0,0,0-.573-.667.978.978,0,0,0-1.253.406,2.012,2.012,0,0,1,1.385.005A1.612,1.612,0,0,1,668.531,131.488Z" transform="translate(-666.705 -130.737)" fill="#1b1447"/>
              </g>
              <g id="Grupo_1008973" data-name="Grupo 1008973" transform="translate(2.023 11.125)">
                <path id="Trazado_723503" data-name="Trazado 723503" d="M665.706,146.766a3.144,3.144,0,0,1,.164.874,1.918,1.918,0,0,0,1.422-.736A4.549,4.549,0,0,1,665.706,146.766Z" transform="translate(-665.706 -146.766)" fill="#1b1447"/>
              </g>
              <g id="Grupo_1008974" data-name="Grupo 1008974" transform="translate(2.673 6.795)">
                <ellipse id="Elipse_8743" data-name="Elipse 8743" cx="0.363" cy="0.261" rx="0.363" ry="0.261" transform="translate(0 0.713) rotate(-78.896)" fill="#1b1447"/>
              </g>
            </g>
          </g>
          <g id="Grupo_1008979" data-name="Grupo 1008979" transform="translate(8.054 101.986)">
            <g id="Grupo_1008977" data-name="Grupo 1008977" transform="translate(2.373 6.322)">
              <rect id="Rectángulo_348493" data-name="Rectángulo 348493" width="26.815" height="2.601" transform="translate(26.815 2.601) rotate(-180)" fill="#80b7f7"/>
            </g>
            <g id="Grupo_1008978" data-name="Grupo 1008978">
              <path id="Trazado_723504" data-name="Trazado 723504" d="M647.53,412.72H630.749a2.385,2.385,0,0,0-2.367,2.1l-.946,7.791H623.55l2.03-11.166a2.384,2.384,0,0,1,2.346-1.958h22.428a2.384,2.384,0,0,1,2.346,1.958l2.029,11.166h-3.885l-.946-7.791A2.385,2.385,0,0,0,647.53,412.72Z" transform="translate(-623.55 -409.484)" fill="#4a8ad6"/>
            </g>
          </g>
        </g>
        <g id="Grupo_1008998" data-name="Grupo 1008998" transform="translate(11.72 12.308)">
          <g id="Grupo_1008984" data-name="Grupo 1008984">
            <g id="Grupo_1008981" data-name="Grupo 1008981" transform="translate(0 41.799)">
              <path id="Trazado_723505" data-name="Trazado 723505" d="M48.758,174.549a2.128,2.128,0,0,0,2.128,2.128H168.7a2.128,2.128,0,0,0,2.128-2.128v-.1H48.758Z" transform="translate(-48.758 -174.452)" fill="#fca66f"/>
            </g>
            <g id="Grupo_1008982" data-name="Grupo 1008982">
              <path id="Trazado_723506" data-name="Trazado 723506" d="M170.832,53.676a2.128,2.128,0,0,0-2.128-2.128H50.886a2.128,2.128,0,0,0-2.128,2.128v.1H170.832Z" transform="translate(-48.758 -51.548)" fill="#fca66f"/>
            </g>
            <g id="Grupo_1008983" data-name="Grupo 1008983" transform="translate(0 2.225)">
              <rect id="Rectángulo_348494" data-name="Rectángulo 348494" width="122.074" height="39.574" fill="#fff"/>
            </g>
          </g>
          <g id="Grupo_1008994" data-name="Grupo 1008994" transform="translate(4.065 3.938)">
            <g id="Grupo_1008987" data-name="Grupo 1008987">
              <g id="Grupo_1008986" data-name="Grupo 1008986">
                <g id="Grupo_1008985" data-name="Grupo 1008985">
                  <path id="Trazado_723507" data-name="Trazado 723507" d="M95.539,99.275H63.254v-.34a2.206,2.206,0,0,0-2.2-2.2h-.34V65.672h.34a2.206,2.206,0,0,0,2.2-2.2v-.34H95.539v.34a2.206,2.206,0,0,0,2.2,2.2h.34v31.06h-.34a2.206,2.206,0,0,0-2.2,2.2ZM63.914,98.6H94.879A2.89,2.89,0,0,1,97.4,96.071V66.332a2.89,2.89,0,0,1-2.524-2.524H63.914a2.89,2.89,0,0,1-2.524,2.524V96.071A2.89,2.89,0,0,1,63.914,98.6Z" transform="translate(-60.71 -63.128)" fill="#f2f2f2"/>
                </g>
              </g>
            </g>
            <g id="Grupo_1008990" data-name="Grupo 1008990" transform="translate(38.395)">
              <g id="Grupo_1008989" data-name="Grupo 1008989">
                <g id="Grupo_1008988" data-name="Grupo 1008988">
                  <path id="Trazado_723508" data-name="Trazado 723508" d="M208.436,99.275H176.151v-.34a2.206,2.206,0,0,0-2.2-2.2h-.34V65.672h.34a2.206,2.206,0,0,0,2.2-2.2v-.34h32.285v.34a2.207,2.207,0,0,0,2.2,2.2h.34v31.06h-.34a2.207,2.207,0,0,0-2.2,2.2Zm-31.625-.68h30.965a2.89,2.89,0,0,1,2.524-2.524V66.332a2.89,2.89,0,0,1-2.524-2.524H176.811a2.89,2.89,0,0,1-2.524,2.524V96.071A2.89,2.89,0,0,1,176.811,98.6Z" transform="translate(-173.607 -63.128)" fill="#f2f2f2"/>
                </g>
              </g>
            </g>
            <g id="Grupo_1008993" data-name="Grupo 1008993" transform="translate(76.792)">
              <g id="Grupo_1008992" data-name="Grupo 1008992">
                <g id="Grupo_1008991" data-name="Grupo 1008991">
                  <path id="Trazado_723509" data-name="Trazado 723509" d="M321.335,99.275H289.05v-.34a2.206,2.206,0,0,0-2.2-2.2h-.34V65.672h.34a2.206,2.206,0,0,0,2.2-2.2v-.34h32.285v.34a2.206,2.206,0,0,0,2.2,2.2h.34v31.06h-.34a2.206,2.206,0,0,0-2.2,2.2ZM289.71,98.6h30.965a2.889,2.889,0,0,1,2.524-2.524V66.332a2.889,2.889,0,0,1-2.524-2.524H289.71a2.89,2.89,0,0,1-2.524,2.524V96.071A2.89,2.89,0,0,1,289.71,98.6Z" transform="translate(-286.506 -63.128)" fill="#f2f2f2"/>
                </g>
              </g>
            </g>
          </g>
          <g id="Grupo_1008995" data-name="Grupo 1008995" transform="translate(37.211 17.608)">
            <rect id="Rectángulo_348495" data-name="Rectángulo 348495" width="2.132" height="7.298" rx="1.066" fill="#fca66f"/>
          </g>
          <g id="Grupo_1008996" data-name="Grupo 1008996" transform="translate(75.788 17.608)">
            <rect id="Rectángulo_348496" data-name="Rectángulo 348496" width="2.132" height="7.298" rx="1.066" fill="#fca66f"/>
          </g>
          <g id="Grupo_1008997" data-name="Grupo 1008997" transform="translate(114.365 17.608)">
            <rect id="Rectángulo_348497" data-name="Rectángulo 348497" width="2.132" height="7.298" rx="1.066" fill="#fca66f"/>
          </g>
        </g>
        <g id="Grupo_1009062" data-name="Grupo 1009062" transform="translate(9.837 48.101)">
          <g id="Grupo_1008999" data-name="Grupo 1008999" transform="translate(4.621 15.823)">
            <path id="Trazado_723510" data-name="Trazado 723510" d="M64.772,213.143a57.02,57.02,0,0,0-2.053-7.266c-1.491-4.161-7.074-3.143-5.693,2.315.435,1.528,1.174,3.756,1.943,5.969A12.55,12.55,0,0,0,64.772,213.143Z" transform="translate(-56.808 -203.319)" fill="#fff"/>
          </g>
          <g id="Grupo_1009000" data-name="Grupo 1009000" transform="translate(6.782 22.373)">
            <path id="Trazado_723511" data-name="Trazado 723511" d="M85.11,224.185c0-.834-.2-1.607-.829-1.607h-.042c-.553.029-1.156.783-1.544,1.3-.07-.369-.23-.516-.444-.516-.655,0-1.9,2.011-2.5,2.6-3.063.821-8.487,1.554-10.176,2.19-.216-.731-.417-1.506-.614-2.3a12.55,12.55,0,0,1-5.8,1.018c.7,2,1.416,3.992,1.96,5.441a1.46,1.46,0,0,0,1.678.914,133.251,133.251,0,0,0,14.024-4.276v0A4.469,4.469,0,0,0,85.11,224.185Z" transform="translate(-63.161 -222.578)" fill="#f79894"/>
          </g>
          <g id="Grupo_1009005" data-name="Grupo 1009005" transform="translate(0.001 45.668)">
            <g id="Grupo_1009003" data-name="Grupo 1009003" transform="translate(9.625 48.599)">
              <g id="Grupo_1009001" data-name="Grupo 1009001" transform="translate(0.5)">
                <path id="Trazado_723512" data-name="Trazado 723512" d="M75.972,437.29l-.121-2.992-2.824-.327a31.825,31.825,0,0,0,.038,3.583Z" transform="translate(-72.991 -433.971)" fill="#f79894"/>
              </g>
              <g id="Grupo_1009002" data-name="Grupo 1009002" transform="translate(0 2.657)">
                <path id="Trazado_723513" data-name="Trazado 723513" d="M74.976,441.785c.909,1.137,5.3.5,6.138,2.06.137.255.014.459-.286.459H72.091a.535.535,0,0,1-.524-.387,2.838,2.838,0,0,1,.471-1.993Z" transform="translate(-71.522 -441.785)" fill="#1b1447"/>
              </g>
            </g>
            <g id="Grupo_1009004" data-name="Grupo 1009004">
              <path id="Trazado_723514" data-name="Trazado 723514" d="M43.222,293.859A65.134,65.134,0,0,0,47.1,302.79c2.057,3.644,3.014,9.717,3,12.075s.976,22.51,2.636,27.583a8.214,8.214,0,0,0,4.66,0s2.5-42.945,1.974-48.589l-5.4-2.787Z" transform="translate(-43.222 -291.072)" fill="#417abd"/>
            </g>
          </g>
          <g id="Grupo_1009006" data-name="Grupo 1009006" transform="translate(4.748 9.667)">
            <path id="Trazado_723515" data-name="Trazado 723515" d="M61.563,191.891a8.945,8.945,0,0,0,.146,1.641,21.044,21.044,0,0,1-4.528-3.114,51.773,51.773,0,0,0,.916-5.2c.1.191.21.379.327.56.9,1.456,2.282,1.712,3.557,2.877-.1.391-.223,1.175-.314,1.861-.052.408-.09.78-.1,1.02C61.566,191.654,61.563,191.771,61.563,191.891Z" transform="translate(-57.181 -185.217)" fill="#f79894"/>
          </g>
          <g id="Grupo_1009007" data-name="Grupo 1009007" transform="translate(5.865 10.227)">
            <path id="Trazado_723516" data-name="Trazado 723516" d="M64.147,189.741c-.1.391-.223,1.175-.314,1.861-1.4-1.068-2.893-2.214-3.369-3.89.042-.285.084-.567.126-.848C61.49,188.32,62.872,188.576,64.147,189.741Z" transform="translate(-60.464 -186.864)" fill="#1b1447"/>
          </g>
          <g id="Grupo_1009012" data-name="Grupo 1009012" transform="translate(0.001 45.668)">
            <g id="Grupo_1009010" data-name="Grupo 1009010" transform="translate(2.233 48.599)">
              <g id="Grupo_1009008" data-name="Grupo 1009008" transform="translate(0.711)">
                <path id="Trazado_723517" data-name="Trazado 723517" d="M54.827,437.29l.318-2.992-2.776-.327a32.793,32.793,0,0,0-.488,3.583Z" transform="translate(-51.881 -433.971)" fill="#f79894"/>
              </g>
              <g id="Grupo_1009009" data-name="Grupo 1009009" transform="translate(0 2.657)">
                <path id="Trazado_723518" data-name="Trazado 723518" d="M53.517,441.785c.742,1.137,5.225.5,5.836,2.06.1.255-.053.459-.354.459H50.262a.447.447,0,0,1-.467-.387,3.232,3.232,0,0,1,.764-1.993Z" transform="translate(-49.789 -441.785)" fill="#1b1447"/>
              </g>
            </g>
            <g id="Grupo_1009011" data-name="Grupo 1009011">
              <path id="Trazado_723519" data-name="Trazado 723519" d="M43.222,293.859a56.794,56.794,0,0,0,2.565,8.931c1.522,3.644,1.587,9.717,1.227,12.075s-2.33,22.51-1.414,27.583a8.26,8.26,0,0,0,4.659,0s6.543-32.584,7.492-35.728,1.315-7.217,1.617-12.861l-4.994-2.787Z" transform="translate(-43.222 -291.072)" fill="#4a8ad6"/>
            </g>
          </g>
          <g id="Grupo_1009013" data-name="Grupo 1009013" transform="translate(0 14.419)">
            <path id="Trazado_723520" data-name="Trazado 723520" d="M59.367,233.222s-8.576,3.146-16.147,0c0,0,1.259-19.156,1.34-23.4a25.931,25.931,0,0,1,.544-5.006,14.453,14.453,0,0,1,2.2-5.292.769.769,0,0,1,.835-.3,14.256,14.256,0,0,1,4.615,2.54.813.813,0,0,1,.181.211,31.743,31.743,0,0,1,2.1,4.686C56.855,211.587,59.2,220.367,59.367,233.222Z" transform="translate(-43.22 -199.188)" fill="#4a8ad6"/>
          </g>
          <g id="Grupo_1009015" data-name="Grupo 1009015" transform="translate(11.248 31.583)">
            <g id="Grupo_1009014" data-name="Grupo 1009014">
              <path id="Trazado_723521" data-name="Trazado 723521" d="M80.677,257.559a.128.128,0,0,1-.037-.005c-2.726-.818-4.228-3.375-4.346-7.393a.127.127,0,0,1,.123-.131,18.114,18.114,0,0,0,3.107-.367.128.128,0,1,1,.052.25,18.253,18.253,0,0,1-3.023.367c.1,2.7.913,6.055,4.16,7.029a.128.128,0,0,1-.037.251Z" transform="translate(-76.294 -249.659)" fill="#417abd"/>
            </g>
          </g>
          <g id="Grupo_1009016" data-name="Grupo 1009016" transform="translate(1.884 14.419)">
            <path id="Trazado_723522" data-name="Trazado 723522" d="M58.685,206.654a1.582,1.582,0,0,1-1.311.861c-2.126,0-.786-5.328-5.437-5.328-1.25,0-2.472,1.454-3.178,2.626a14.452,14.452,0,0,1,2.2-5.292.769.769,0,0,1,.835-.3,14.256,14.256,0,0,1,4.615,2.54,1.7,1.7,0,0,1,.181.211A15.778,15.778,0,0,1,58.685,206.654Z" transform="translate(-48.759 -199.188)" fill="#fff"/>
          </g>
          <g id="Grupo_1009018" data-name="Grupo 1009018" transform="translate(0.562 51.238)">
            <g id="Grupo_1009017" data-name="Grupo 1009017">
              <path id="Trazado_723523" data-name="Trazado 723523" d="M46.114,311.665a.128.128,0,0,1-.081-.227,2.366,2.366,0,0,0,.779-1.839,5.7,5.7,0,0,0-.378-1.881A7.955,7.955,0,0,1,45,307.8a.127.127,0,0,1-.122-.133.118.118,0,0,1,.133-.122,8.119,8.119,0,0,0,1.5-.1.126.126,0,0,1,.138.083,6.075,6.075,0,0,1,.429,2.065,2.624,2.624,0,0,1-.874,2.036A.13.13,0,0,1,46.114,311.665Z" transform="translate(-44.874 -307.45)" fill="#417abd"/>
            </g>
          </g>
          <g id="Grupo_1009031" data-name="Grupo 1009031" transform="translate(3.293)">
            <g id="Grupo_1009022" data-name="Grupo 1009022">
              <g id="Grupo_1009019" data-name="Grupo 1009019">
                <path id="Trazado_723524" data-name="Trazado 723524" d="M64.68,157.778c-2.225-2.079-5.868-.2-7.83-.36-4.106-.339-5.866,7.108-1.033,10.251l3.043-5.457a6.535,6.535,0,0,0,2.827.943A5.457,5.457,0,0,0,63.548,163l.013,0a2.67,2.67,0,0,0,1.749-1.461A3.082,3.082,0,0,0,64.68,157.778Z" transform="translate(-52.901 -156.792)" fill="#1b1447"/>
              </g>
              <g id="Grupo_1009020" data-name="Grupo 1009020" transform="translate(0.107 3.917)">
                <path id="Trazado_723525" data-name="Trazado 723525" d="M57.746,168.31c-.119.932-1.375,3.421-2.174,3.532l-.318-.856a1.1,1.1,0,0,0-.795-.559l-.045,0c-.787-.027-1.124.684-1.185,1.394a1.856,1.856,0,0,0,1.71,2.261c.451,1.955,2.464,4.506,4.63,4.693,4.39.378,3.942-8.413,3.945-8.435a6.523,6.523,0,0,1-1.3.017A7.328,7.328,0,0,1,57.746,168.31Z" transform="translate(-53.217 -168.31)" fill="#f79894"/>
              </g>
              <g id="Grupo_1009021" data-name="Grupo 1009021" transform="translate(9.567 7.494)">
                <path id="Trazado_723526" data-name="Trazado 723526" d="M81.292,178.826a9,9,0,0,0-.238,2.766,5.936,5.936,0,0,0,0,.974,5.236,5.236,0,0,0,.584.09c.787.068,1.2-.263,1.219-.477A12.794,12.794,0,0,1,81.292,178.826Z" transform="translate(-81.032 -178.826)" fill="#f79894"/>
              </g>
            </g>
            <g id="Grupo_1009027" data-name="Grupo 1009027" transform="translate(0.509 6.994)">
              <g id="Grupo_1009024" data-name="Grupo 1009024">
                <g id="Grupo_1009023" data-name="Grupo 1009023">
                  <path id="Trazado_723527" data-name="Trazado 723527" d="M54.552,178.412a.106.106,0,0,1-.083-.039.288.288,0,0,1-.067-.173c0-.017,0-.035,0-.052v-.034a1.006,1.006,0,0,1,.069-.442.472.472,0,0,1,.4-.314.611.611,0,0,1,.543.345l.042.059a.128.128,0,1,1-.207.15l-.045-.062c-.114-.163-.187-.247-.315-.237-.03,0-.123.008-.186.158a.758.758,0,0,0-.049.324c0,.018,0,.035,0,.052v.035a.144.144,0,0,1-.012.193A.15.15,0,0,1,54.552,178.412Z" transform="translate(-54.397 -177.358)" fill="#040000"/>
                </g>
              </g>
              <g id="Grupo_1009026" data-name="Grupo 1009026" transform="translate(0.369 0.701)">
                <g id="Grupo_1009025" data-name="Grupo 1009025">
                  <path id="Trazado_723528" data-name="Trazado 723528" d="M55.851,180.581a.128.128,0,0,1-.108-.2.382.382,0,0,0,.062-.236.91.91,0,0,0-.287-.516.128.128,0,0,1,.186-.175,1.13,1.13,0,0,1,.356.673.64.64,0,0,1-.1.389A.128.128,0,0,1,55.851,180.581Z" transform="translate(-55.482 -179.418)" fill="#040000"/>
                </g>
              </g>
            </g>
            <g id="Grupo_1009028" data-name="Grupo 1009028" transform="translate(8.291 6.234)">
              <path id="Trazado_723529" data-name="Trazado 723529" d="M77.28,175.593a.855.855,0,0,1,.744-.467.978.978,0,0,1,1.077.758,2.011,2.011,0,0,0-1.325-.4A1.6,1.6,0,0,0,77.28,175.593Z" transform="translate(-77.28 -175.122)" fill="#1b1447"/>
            </g>
            <g id="Grupo_1009029" data-name="Grupo 1009029" transform="translate(7.413 11.499)">
              <path id="Trazado_723530" data-name="Trazado 723530" d="M76.254,190.939a3.14,3.14,0,0,0-.415.787A1.916,1.916,0,0,1,74.7,190.6,4.537,4.537,0,0,0,76.254,190.939Z" transform="translate(-74.698 -190.602)" fill="#1b1447"/>
            </g>
            <g id="Grupo_1009030" data-name="Grupo 1009030" transform="translate(8.899 7.41)">
              <ellipse id="Elipse_8744" data-name="Elipse 8744" cx="0.363" cy="0.261" rx="0.363" ry="0.261" transform="matrix(0.106, -0.994, 0.994, 0.106, 0, 0.723)" fill="#1b1447"/>
            </g>
          </g>
          <g id="Grupo_1009032" data-name="Grupo 1009032" transform="translate(2.798 19.585)">
            <path id="Trazado_723531" data-name="Trazado 723531" d="M59.411,224.2a57.135,57.135,0,0,0-2.053-7.266c-1.491-4.161-7.074-3.143-5.693,2.314.435,1.528,1.174,3.756,1.943,5.97A12.552,12.552,0,0,0,59.411,224.2Z" transform="translate(-51.448 -214.38)" fill="#fff"/>
          </g>
          <g id="Grupo_1009060" data-name="Grupo 1009060" transform="translate(15.933 16.229)">
            <g id="Grupo_1009033" data-name="Grupo 1009033" transform="translate(0.427 0.513)">
              <rect id="Rectángulo_348498" data-name="Rectángulo 348498" width="15.966" height="6.67" transform="matrix(0.764, -0.645, 0.645, 0.764, 0, 10.293)" fill="#cc3b3b"/>
            </g>
            <g id="Grupo_1009034" data-name="Grupo 1009034" transform="translate(0 0)">
              <rect id="Rectángulo_348499" data-name="Rectángulo 348499" width="15.966" height="6.67" transform="matrix(0.764, -0.645, 0.645, 0.764, 0, 10.293)" fill="#ff4040"/>
            </g>
            <g id="Grupo_1009035" data-name="Grupo 1009035" transform="translate(0.975 0.909)">
              <rect id="Rectángulo_348500" data-name="Rectángulo 348500" width="14.08" height="5.882" transform="matrix(0.764, -0.645, 0.645, 0.764, 0, 9.077)" fill="#fff"/>
            </g>
            <g id="Grupo_1009036" data-name="Grupo 1009036" transform="translate(0 0)">
              <rect id="Rectángulo_348501" data-name="Rectángulo 348501" width="15.966" height="6.67" transform="matrix(0.764, -0.645, 0.645, 0.764, 0, 10.293)" fill="#ff4040"/>
            </g>
            <g id="Grupo_1009037" data-name="Grupo 1009037" transform="translate(1.073 1.001)">
              <rect id="Rectángulo_348502" data-name="Rectángulo 348502" width="13.89" height="5.803" transform="matrix(0.764, -0.645, 0.645, 0.764, 0, 8.955)" fill="#fff"/>
            </g>
            <g id="Grupo_1009038" data-name="Grupo 1009038" transform="translate(1.073 1.001)">
              <rect id="Rectángulo_348503" data-name="Rectángulo 348503" width="13.89" height="5.803" transform="matrix(0.764, -0.645, 0.645, 0.764, 0, 8.955)" fill="#fff"/>
            </g>
            <g id="Grupo_1009039" data-name="Grupo 1009039" transform="translate(12.368 1.601)">
              <path id="Trazado_723532" data-name="Trazado 723532" d="M126.435,210.054l1.632,1.776,1.061-.825-1.505-1.785Z" transform="translate(-126.435 -209.22)" fill="#cc3b3b"/>
            </g>
            <g id="Grupo_1009044" data-name="Grupo 1009044" transform="translate(9.813 2.203)">
              <g id="Grupo_1009041" data-name="Grupo 1009041" transform="translate(1.231 1.228)">
                <g id="Grupo_1009040" data-name="Grupo 1009040">
                  <path id="Trazado_723533" data-name="Trazado 723533" d="M124.805,217.349a.085.085,0,0,1-.065-.03l-2.177-2.581a.085.085,0,0,1,.13-.11l2.177,2.581a.085.085,0,0,1-.065.14Z" transform="translate(-122.544 -214.599)" fill="#1b1447"/>
                </g>
              </g>
              <g id="Grupo_1009043" data-name="Grupo 1009043">
                <g id="Grupo_1009042" data-name="Grupo 1009042">
                  <path id="Trazado_723534" data-name="Trazado 723534" d="M119.564,212.5a.086.086,0,0,1-.068-.033l-.555-.719a.085.085,0,0,1,.016-.12l.81-.619a.085.085,0,0,1,.113.009l.637.669a.084.084,0,0,1,.023.066.085.085,0,0,1-.034.061l-.892.669A.084.084,0,0,1,119.564,212.5Zm-.436-.788.451.585.749-.561-.519-.544Z" transform="translate(-118.924 -210.988)" fill="#1b1447"/>
                </g>
              </g>
            </g>
            <g id="Grupo_1009049" data-name="Grupo 1009049" transform="translate(8.247 3.573)">
              <g id="Grupo_1009046" data-name="Grupo 1009046" transform="translate(1.231 1.228)">
                <g id="Grupo_1009045" data-name="Grupo 1009045">
                  <path id="Trazado_723535" data-name="Trazado 723535" d="M120.189,221.365a.085.085,0,0,1-.065-.03l-2.164-2.566a.085.085,0,0,1,.13-.11l2.164,2.566a.085.085,0,0,1-.01.12A.086.086,0,0,1,120.189,221.365Z" transform="translate(-117.939 -218.628)" fill="#1b1447"/>
                </g>
              </g>
              <g id="Grupo_1009048" data-name="Grupo 1009048">
                <g id="Grupo_1009047" data-name="Grupo 1009047">
                  <path id="Trazado_723536" data-name="Trazado 723536" d="M114.959,216.526a.086.086,0,0,1-.067-.033l-.555-.719a.085.085,0,0,1-.017-.063.084.084,0,0,1,.033-.056l.81-.619a.085.085,0,0,1,.113.009l.637.669a.084.084,0,0,1,.023.066.087.087,0,0,1-.033.061l-.892.669A.083.083,0,0,1,114.959,216.526Zm-.435-.788.451.585.748-.561-.518-.544Z" transform="translate(-114.319 -215.018)" fill="#1b1447"/>
                </g>
              </g>
            </g>
            <g id="Grupo_1009054" data-name="Grupo 1009054" transform="translate(6.681 5.011)">
              <g id="Grupo_1009051" data-name="Grupo 1009051" transform="translate(1.231 1.228)">
                <g id="Grupo_1009050" data-name="Grupo 1009050">
                  <path id="Trazado_723537" data-name="Trazado 723537" d="M115.517,225.513a.085.085,0,0,1-.065-.03l-2.1-2.487a.085.085,0,0,1,.13-.11l2.1,2.487a.085.085,0,0,1-.065.14Z" transform="translate(-113.334 -222.856)" fill="#1b1447"/>
                </g>
              </g>
              <g id="Grupo_1009053" data-name="Grupo 1009053">
                <g id="Grupo_1009052" data-name="Grupo 1009052">
                  <path id="Trazado_723538" data-name="Trazado 723538" d="M110.354,220.753a.086.086,0,0,1-.068-.033l-.555-.719a.085.085,0,0,1,.016-.12l.81-.619a.085.085,0,0,1,.113.009l.637.669a.084.084,0,0,1,.023.066.085.085,0,0,1-.034.061l-.892.669A.084.084,0,0,1,110.354,220.753Zm-.436-.788.452.585.749-.561-.519-.544Z" transform="translate(-109.714 -219.245)" fill="#1b1447"/>
                </g>
              </g>
            </g>
            <g id="Grupo_1009059" data-name="Grupo 1009059" transform="translate(4.881 6.541)">
              <g id="Grupo_1009056" data-name="Grupo 1009056" transform="translate(1.231 1.228)">
                <g id="Grupo_1009055" data-name="Grupo 1009055">
                  <path id="Trazado_723539" data-name="Trazado 723539" d="M110.181,229.962a.085.085,0,0,1-.065-.03l-2.056-2.437a.085.085,0,0,1,.13-.11l2.056,2.438a.085.085,0,0,1-.065.14Z" transform="translate(-108.04 -227.354)" fill="#1b1447"/>
                </g>
              </g>
              <g id="Grupo_1009058" data-name="Grupo 1009058">
                <g id="Grupo_1009057" data-name="Grupo 1009057">
                  <path id="Trazado_723540" data-name="Trazado 723540" d="M105.06,225.252a.087.087,0,0,1-.068-.033l-.555-.719a.085.085,0,0,1,.016-.12l.81-.619a.085.085,0,0,1,.113.009l.637.669a.084.084,0,0,1,.023.066.086.086,0,0,1-.034.061l-.892.669A.085.085,0,0,1,105.06,225.252Zm-.436-.788.452.585.748-.561-.518-.544Z" transform="translate(-104.42 -223.744)" fill="#1b1447"/>
                </g>
              </g>
            </g>
          </g>
          <g id="Grupo_1009061" data-name="Grupo 1009061" transform="translate(4.959 26.135)">
            <path id="Trazado_723541" data-name="Trazado 723541" d="M79.749,235.246c0-.834-.2-1.607-.829-1.607h-.042c-.553.029-1.156.784-1.543,1.3-.07-.369-.23-.516-.444-.516-.655,0-1.9,2.011-2.5,2.6-3.063.821-8.487,1.554-10.176,2.19-.216-.731-.417-1.506-.614-2.3a12.552,12.552,0,0,1-5.8,1.018c.7,2,1.416,3.992,1.961,5.441a1.46,1.46,0,0,0,1.678.914,133.214,133.214,0,0,0,14.024-4.276v0A4.468,4.468,0,0,0,79.749,235.246Z" transform="translate(-57.8 -233.639)" fill="#f79894"/>
          </g>
        </g>
        <g id="Grupo_1009094" data-name="Grupo 1009094" transform="translate(0 0)">
          <g id="Grupo_1009075" data-name="Grupo 1009075" transform="translate(0 62.052)">
            <g id="Grupo_1009063" data-name="Grupo 1009063">
              <circle id="Elipse_8745" data-name="Elipse 8745" cx="1.872" cy="1.872" r="1.872" fill="#addeef"/>
            </g>
            <g id="Grupo_1009064" data-name="Grupo 1009064" transform="translate(195.89 59.912)">
              <circle id="Elipse_8746" data-name="Elipse 8746" cx="1.872" cy="1.872" r="1.872" fill="#addeef"/>
            </g>
            <g id="Grupo_1009065" data-name="Grupo 1009065" transform="translate(37.472 18.45)">
              <circle id="Elipse_8747" data-name="Elipse 8747" cx="1.689" cy="1.689" r="1.689" fill="#addeef"/>
            </g>
            <g id="Grupo_1009066" data-name="Grupo 1009066" transform="translate(184.056 49.591)">
              <path id="Trazado_723542" data-name="Trazado 723542" d="M560.717,343.629h-3.484l-1.742,3.017,1.742,3.017h3.484l1.742-3.017Z" transform="translate(-555.491 -343.629)" fill="#addeef"/>
            </g>
            <g id="Grupo_1009067" data-name="Grupo 1009067" transform="translate(100.528 0.862)">
              <path id="Trazado_723543" data-name="Trazado 723543" d="M315.113,200.348h-3.484l-1.742,3.017,1.742,3.017h3.484l1.742-3.017Z" transform="translate(-309.887 -200.348)" fill="#addeef"/>
            </g>
            <g id="Grupo_1009068" data-name="Grupo 1009068" transform="translate(121.531 3.027)">
              <rect id="Rectángulo_348504" data-name="Rectángulo 348504" width="3.209" height="3.209" fill="#addeef"/>
            </g>
            <g id="Grupo_1009069" data-name="Grupo 1009069" transform="translate(170.268 12.276)">
              <rect id="Rectángulo_348505" data-name="Rectángulo 348505" width="3.209" height="3.209" fill="#addeef"/>
            </g>
            <g id="Grupo_1009071" data-name="Grupo 1009071" transform="translate(146.749 11.558)">
              <g id="Grupo_1009070" data-name="Grupo 1009070">
                <path id="Trazado_723544" data-name="Trazado 723544" d="M453.257,236.088V234.97l-1.222-.194a2.615,2.615,0,0,0-.2-.491l.726-1-.79-.79-1,.726a2.621,2.621,0,0,0-.491-.2l-.194-1.222h-1.117l-.194,1.222a2.622,2.622,0,0,0-.491.2l-1-.726-.79.79.726,1a2.6,2.6,0,0,0-.2.491l-1.222.194v1.117l1.222.194a2.6,2.6,0,0,0,.2.491l-.726,1,.79.79,1-.726a2.6,2.6,0,0,0,.491.2l.194,1.222h1.117l.194-1.222a2.6,2.6,0,0,0,.491-.2l1,.726.79-.79-.726-1a2.623,2.623,0,0,0,.2-.491Zm-2.478-.558a1.255,1.255,0,1,1-1.255-1.255A1.255,1.255,0,0,1,450.779,235.529Z" transform="translate(-445.792 -231.797)" fill="#addeef"/>
              </g>
            </g>
            <g id="Grupo_1009072" data-name="Grupo 1009072" transform="translate(124.099 12.276)">
              <rect id="Rectángulo_348506" data-name="Rectángulo 348506" width="3.209" height="3.209" fill="#addeef"/>
            </g>
            <g id="Grupo_1009074" data-name="Grupo 1009074" transform="translate(52.125 1.99)">
              <g id="Grupo_1009073" data-name="Grupo 1009073">
                <path id="Trazado_723545" data-name="Trazado 723545" d="M175.026,207.955v-1.117l-1.222-.194a2.6,2.6,0,0,0-.2-.491l.726-1-.79-.79-1,.726a2.6,2.6,0,0,0-.491-.2l-.194-1.222h-1.117l-.194,1.222a2.613,2.613,0,0,0-.491.2l-1-.726-.79.79.726,1a2.6,2.6,0,0,0-.2.491l-1.222.194v1.117l1.222.194a2.593,2.593,0,0,0,.2.491l-.726,1,.79.79,1-.726a2.59,2.59,0,0,0,.491.2l.194,1.222h1.117l.194-1.222a2.6,2.6,0,0,0,.491-.2l1,.726.79-.79-.726-1a2.591,2.591,0,0,0,.2-.491Zm-2.477-.558a1.255,1.255,0,1,1-1.255-1.255A1.255,1.255,0,0,1,172.549,207.4Z" transform="translate(-167.562 -203.664)" fill="#addeef"/>
              </g>
            </g>
          </g>
          <g id="Grupo_1009093" data-name="Grupo 1009093" transform="translate(1.244)">
            <g id="Grupo_1009076" data-name="Grupo 1009076" transform="translate(197.663 7.585)">
              <circle id="Elipse_8748" data-name="Elipse 8748" cx="1.872" cy="1.872" r="1.872" fill="#bfe7f5"/>
            </g>
            <g id="Grupo_1009077" data-name="Grupo 1009077" transform="translate(50.042 5.045)">
              <circle id="Elipse_8749" data-name="Elipse 8749" cx="1.872" cy="1.872" r="1.872" fill="#bfe7f5"/>
            </g>
            <g id="Grupo_1009078" data-name="Grupo 1009078" transform="translate(232.269 42.39)">
              <circle id="Elipse_8750" data-name="Elipse 8750" cx="1.872" cy="1.872" r="1.872" fill="#bfe7f5"/>
            </g>
            <g id="Grupo_1009079" data-name="Grupo 1009079" transform="translate(89.585 2.061)">
              <circle id="Elipse_8751" data-name="Elipse 8751" cx="2.428" cy="2.428" r="2.428" fill="#bfe7f5"/>
            </g>
            <g id="Grupo_1009080" data-name="Grupo 1009080" transform="translate(174.211 1.472)">
              <path id="Trazado_723546" data-name="Trazado 723546" d="M535.424,19.686H531.94L530.2,22.7l1.742,3.017h3.484l1.742-3.017Z" transform="translate(-530.198 -19.686)" fill="#bfe7f5"/>
            </g>
            <g id="Grupo_1009081" data-name="Grupo 1009081" transform="translate(29.897 2.061)">
              <path id="Trazado_723547" data-name="Trazado 723547" d="M110.671,25.584V22.807l-2.4-1.388-2.4,1.388v2.776l2.4,1.388Z" transform="translate(-105.863 -21.419)" fill="#bfe7f5"/>
            </g>
            <g id="Grupo_1009082" data-name="Grupo 1009082" transform="translate(0 24.651)">
              <path id="Trazado_723548" data-name="Trazado 723548" d="M17.953,89.285v2.888l2.5,1.444,2.5-1.444V89.285l-2.5-1.444Z" transform="translate(-17.953 -87.84)" fill="#bfe7f5"/>
            </g>
            <g id="Grupo_1009083" data-name="Grupo 1009083" transform="translate(233.329 9.725)">
              <rect id="Rectángulo_348507" data-name="Rectángulo 348507" width="3.209" height="3.209" fill="#bfe7f5"/>
            </g>
            <g id="Grupo_1009084" data-name="Grupo 1009084" transform="translate(234.41 67.935)">
              <rect id="Rectángulo_348508" data-name="Rectángulo 348508" width="3.209" height="3.209" fill="#bfe7f5"/>
            </g>
            <g id="Grupo_1009086" data-name="Grupo 1009086" transform="translate(6.527 1.255)">
              <g id="Grupo_1009085" data-name="Grupo 1009085">
                <path id="Trazado_723549" data-name="Trazado 723549" d="M44.608,23.339V22.221l-1.222-.194a2.6,2.6,0,0,0-.2-.491l.726-1-.79-.79-1,.726a2.626,2.626,0,0,0-.491-.2l-.194-1.222H40.317l-.194,1.222a2.623,2.623,0,0,0-.491.2l-1-.726-.79.79.726,1a2.623,2.623,0,0,0-.2.491l-1.222.194v1.117l1.222.194a2.626,2.626,0,0,0,.2.491l-.726,1,.79.79,1-.726a2.6,2.6,0,0,0,.491.2l.194,1.222h1.117l.194-1.222a2.6,2.6,0,0,0,.491-.2l1,.726.79-.79-.726-1a2.6,2.6,0,0,0,.2-.491Zm-2.478-.558a1.255,1.255,0,1,1-1.255-1.255A1.255,1.255,0,0,1,42.131,22.78Z" transform="translate(-37.144 -19.048)" fill="#bfe7f5"/>
              </g>
            </g>
            <g id="Grupo_1009088" data-name="Grupo 1009088" transform="translate(113.884)">
              <g id="Grupo_1009087" data-name="Grupo 1009087">
                <path id="Trazado_723550" data-name="Trazado 723550" d="M360.279,19.649V18.532l-1.222-.194a2.6,2.6,0,0,0-.2-.491l.726-1-.79-.79-1,.726a2.625,2.625,0,0,0-.491-.2l-.194-1.222h-1.117l-.194,1.222a2.621,2.621,0,0,0-.491.2l-1-.726-.79.79.726,1a2.6,2.6,0,0,0-.2.491l-1.222.194v1.117l1.222.194a2.6,2.6,0,0,0,.2.491l-.726,1,.79.79,1-.726a2.621,2.621,0,0,0,.491.2l.194,1.222H357.1L357.3,21.6a2.624,2.624,0,0,0,.491-.2l1,.726.79-.79-.726-1a2.6,2.6,0,0,0,.2-.491ZM357.8,19.09a1.255,1.255,0,1,1-1.255-1.255A1.255,1.255,0,0,1,357.8,19.09Z" transform="translate(-352.814 -15.358)" fill="#bfe7f5"/>
              </g>
            </g>
            <g id="Grupo_1009090" data-name="Grupo 1009090" transform="translate(218.748 17.437)">
              <g id="Grupo_1009089" data-name="Grupo 1009089">
                <path id="Trazado_723551" data-name="Trazado 723551" d="M668.617,70.921V69.8l-1.222-.194a2.626,2.626,0,0,0-.2-.491l.726-1-.79-.79-1,.726a2.619,2.619,0,0,0-.491-.2l-.194-1.222h-1.117l-.194,1.222a2.624,2.624,0,0,0-.491.2l-1-.726-.79.79.726,1a2.6,2.6,0,0,0-.2.491l-1.222.194v1.117l1.222.194a2.594,2.594,0,0,0,.2.491l-.726,1,.79.79,1-.726a2.6,2.6,0,0,0,.491.2l.194,1.222h1.117l.194-1.222a2.6,2.6,0,0,0,.491-.2l1,.726.79-.79-.726-1a2.629,2.629,0,0,0,.2-.491Zm-2.477-.558a1.255,1.255,0,1,1-1.255-1.255A1.255,1.255,0,0,1,666.14,70.362Z" transform="translate(-661.153 -66.63)" fill="#bfe7f5"/>
              </g>
            </g>
            <g id="Grupo_1009092" data-name="Grupo 1009092" transform="translate(144.861 4.336)">
              <g id="Grupo_1009091" data-name="Grupo 1009091">
                <path id="Trazado_723552" data-name="Trazado 723552" d="M454.141,33.995V32.462l-1.676-.266a3.584,3.584,0,0,0-.278-.674l1-1.373L452.1,29.065l-1.373,1a3.584,3.584,0,0,0-.674-.278l-.266-1.676h-1.533l-.266,1.676a3.581,3.581,0,0,0-.674.278l-1.373-1-1.084,1.084,1,1.373a3.581,3.581,0,0,0-.278.674l-1.676.266v1.533l1.676.266a3.572,3.572,0,0,0,.278.674l-1,1.373,1.084,1.084,1.373-1a3.583,3.583,0,0,0,.674.278l.266,1.676h1.533l.266-1.676a3.586,3.586,0,0,0,.674-.278l1.373,1,1.084-1.084-1-1.373a3.6,3.6,0,0,0,.278-.674Zm-3.4-.767a1.722,1.722,0,1,1-1.722-1.722A1.722,1.722,0,0,1,450.741,33.228Z" transform="translate(-443.898 -28.107)" fill="#bfe7f5"/>
              </g>
            </g>
          </g>
        </g>
      </g>
    </g>
  </g>
</svg>
