<svg xmlns="http://www.w3.org/2000/svg" width="124" height="124" viewBox="0 0 124 124">
  <g id="Grupo_1013476" data-name="Grupo 1013476" transform="translate(-389 -3576)">
    <circle id="Elipse_8640" data-name="Elipse 8640" cx="62" cy="62" r="62" transform="translate(389 3576)" fill="#3076b6"/>
    <g id="Grupo_1007767" data-name="Grupo 1007767" transform="translate(-312.787 3534.995)">
      <g id="Grupo_1007765" data-name="Grupo 1007765" transform="translate(722.212 61.429)">
        <path id="Trazado_721799" data-name="Trazado 721799" d="M761.839,376.715,739.054,399.5a5.707,5.707,0,0,1-8.06,0,5.6,5.6,0,0,1-1.154-1.695,5.672,5.672,0,0,1,1.154-6.366l22.785-22.785,5.212,5.212Z" transform="translate(-729.329 -318.57)" fill="#9d4e1b"/>
        <path id="Trazado_721800" data-name="Trazado 721800" d="M758.992,373.867l-22.785,22.785a5.694,5.694,0,0,1-4.03,1.666,5.571,5.571,0,0,1-2.336-.513,5.672,5.672,0,0,1,1.153-6.366l7.12-7.12,5.041-5.041,10.624-10.624Z" transform="translate(-729.33 -318.57)" fill="#db6c18"/>
        <path id="Trazado_721801" data-name="Trazado 721801" d="M883.009,102.716a34.187,34.187,0,0,1-34.178,34.178c-.726,0-1.438-.029-2.136-.071a34.173,34.173,0,0,1,0-68.213c.7-.043,1.41-.071,2.136-.071A34.187,34.187,0,0,1,883.009,102.716Z" transform="translate(-800.414 -68.538)" fill="#007e79"/>
        <ellipse id="Elipse_8647" data-name="Elipse 8647" cx="32.042" cy="34.107" rx="32.042" ry="34.107" transform="translate(14.239 0.071)" fill="#80cccb"/>
        <path id="Trazado_721802" data-name="Trazado 721802" d="M905.745,131.153a28.51,28.51,0,0,1-28.482,28.482q-1.089,0-2.136-.085a28.476,28.476,0,0,1,0-56.793q1.047-.086,2.136-.085A28.51,28.51,0,0,1,905.745,131.153Z" transform="translate(-828.846 -96.975)" fill="#ffd5a9"/>
        <ellipse id="Elipse_8648" data-name="Elipse 8648" cx="26.346" cy="28.396" rx="26.346" ry="28.396" transform="translate(19.935 5.782)" fill="#fff0e0"/>
        <g id="Grupo_1007764" data-name="Grupo 1007764" transform="translate(37.024 14.245)">
          <path id="Trazado_721803" data-name="Trazado 721803" d="M962.576,182.372a2.848,2.848,0,0,1-2.848-2.849V175.14a4.286,4.286,0,0,1,3.668-4.219,5.712,5.712,0,0,0,4.743-6.9,5.628,5.628,0,0,0-4.307-4.307,5.706,5.706,0,0,0-6.953,5.565,2.848,2.848,0,1,1-5.7,0,11.391,11.391,0,1,1,14.24,11.034v3.209A2.848,2.848,0,0,1,962.576,182.372Z" transform="translate(-951.184 -153.894)" fill="#80cccb"/>
          <circle id="Elipse_8649" data-name="Elipse 8649" cx="2.848" cy="2.848" r="2.848" transform="translate(8.545 34.174)" fill="#fff"/>
        </g>
        <rect id="Rect치ngulo_347986" data-name="Rect치ngulo 347986" width="7.135" height="4.027" transform="translate(14.002 70.96) rotate(-45)" fill="#c3d2d6"/>
        <rect id="Rect치ngulo_347987" data-name="Rect치ngulo 347987" width="7.135" height="7.371" transform="translate(8.786 65.75) rotate(-45)" fill="#fff"/>
      </g>
      <g id="Grupo_1007766" data-name="Grupo 1007766" transform="translate(720.787 60.005)">
        <path id="Trazado_721804" data-name="Trazado 721804" d="M958.178,145.57a12.826,12.826,0,0,0-15.526,12.537,4.272,4.272,0,1,0,8.544,0,4.281,4.281,0,0,1,5.24-4.171,4.184,4.184,0,0,1,3.2,3.2,4.336,4.336,0,0,1-.667,3.414,4.283,4.283,0,0,1-2.882,1.781,5.717,5.717,0,0,0-4.893,5.628v4.385a4.272,4.272,0,1,0,8.544,0v-2.157a12.822,12.822,0,0,0-1.562-24.623Zm5.457,18.253a10,10,0,0,1-5.675,3.94,1.423,1.423,0,0,0-1.068,1.378v3.208a1.424,1.424,0,1,1-2.848,0v-4.385a2.853,2.853,0,0,1,2.448-2.808,7.126,7.126,0,0,0,.525-14.009,7.587,7.587,0,0,0-1.567-.166,7.014,7.014,0,0,0-4.469,1.594,7.1,7.1,0,0,0-2.633,5.531,1.424,1.424,0,1,1-2.848,0,9.971,9.971,0,1,1,18.135,5.716Z" transform="translate(-905.626 -131.051)" fill="#040505"/>
        <path id="Trazado_721805" data-name="Trazado 721805" d="M998.124,350.138a4.272,4.272,0,1,0,4.272,4.272A4.272,4.272,0,0,0,998.124,350.138Zm0,5.7a1.424,1.424,0,1,1,1.424-1.424A1.424,1.424,0,0,1,998.124,355.834Z" transform="translate(-948.282 -301.719)" fill="#040505"/>
        <path id="Trazado_721806" data-name="Trazado 721806" d="M770.629,60a35.579,35.579,0,0,0-29.69,55.218l-5.906,5.906h0l-5.04,5.039h0l-7.12,7.12a7.124,7.124,0,0,0,10.074,10.074l7.12-7.12h0l5.039-5.04h0l5.906-5.906A35.6,35.6,0,1,0,770.629,60Zm-31.572,73.22-6.047-6.047,3.028-3.028,6.046,6.046Zm-8.127,8.127a4.388,4.388,0,0,1-6.047,0,4.282,4.282,0,0,1,0-6.047L731,129.193l6.047,6.047ZM744.1,128.184l-6.046-6.046,4.579-4.579a35.9,35.9,0,0,0,6.046,6.046Zm26.531.177a32.754,32.754,0,1,1,32.754-32.754A32.754,32.754,0,0,1,770.629,128.361Z" transform="translate(-720.787 -60.005)" fill="#040505"/>
        <path id="Trazado_721807" data-name="Trazado 721807" d="M870.158,94.138a29.906,29.906,0,1,0,29.906,29.906A29.906,29.906,0,0,0,870.158,94.138Zm0,56.963a27.058,27.058,0,1,1,27.058-27.058A27.058,27.058,0,0,1,870.158,151.1Z" transform="translate(-820.315 -88.442)" fill="#040505"/>
      </g>
    </g>
  </g>
</svg>
