<svg xmlns="http://www.w3.org/2000/svg" width="124" height="124" viewBox="0 0 124 124">
  <g id="Grupo_1013477" data-name="Grupo 1013477" transform="translate(-738 -3576)">
    <circle id="Elipse_8641" data-name="Elipse 8641" cx="62" cy="62" r="62" transform="translate(738 3576)" fill="#3076b6"/>
    <g id="Grupo_1007783" data-name="Grupo 1007783" transform="translate(-603.479 3519.851)">
      <path id="Trazado_721837" data-name="Trazado 721837" d="M1706.873,404.286a6.125,6.125,0,0,1-6.125-6.125V382.254a6.125,6.125,0,0,1,12.25,0v15.907A6.125,6.125,0,0,1,1706.873,404.286Z" transform="translate(-280.496 -247.381)" fill="#63c5ed" stroke="#707070" stroke-width="3"/>
      <path id="Trazado_721838" data-name="Trazado 721838" d="M1407.492,190.771c0-18.157,14.416-32.876,35.816-32.876s35.817,14.719,35.817,32.876c0,18.737-16.8,28.464-35.723,28.5a4,4,0,0,0-3.281,1.734,18.5,18.5,0,0,1-12.823,7.875,5.211,5.211,0,0,1-5.948-6.1,37.939,37.939,0,0,0,.443-6.162,4.049,4.049,0,0,0-1.891-3.462A25.634,25.634,0,0,1,1407.492,190.771Z" transform="translate(-39.463 -68.01)" fill="#dcf2fd"/>
      <path id="Trazado_721839" data-name="Trazado 721839" d="M1427.694,174.624a31.954,31.954,0,0,0-20.2,29.9A25.634,25.634,0,0,0,1419.9,226.9a4.049,4.049,0,0,1,1.891,3.462,37.938,37.938,0,0,1-.443,6.162,5.211,5.211,0,0,0,5.949,6.1,18.5,18.5,0,0,0,12.823-7.875,4,4,0,0,1,3.281-1.734c9.935-.016,19.284-2.708,25.926-7.972C1415.445,227.971,1417.221,187.393,1427.694,174.624Z" transform="translate(-39.462 -81.76)" fill="#a5dffa"/>
      <g id="Grupo_1007777" data-name="Grupo 1007777" transform="translate(1384.45 111.947)">
        <g id="Grupo_1007776" data-name="Grupo 1007776" transform="translate(0)">
          <ellipse id="Elipse_8656" data-name="Elipse 8656" cx="5.228" cy="4.163" rx="5.228" ry="4.163" fill="#ef879d"/>
          <ellipse id="Elipse_8657" data-name="Elipse 8657" cx="5.228" cy="4.163" rx="5.228" ry="4.163" transform="translate(28.335)" fill="#ef879d"/>
        </g>
      </g>
      <path id="Trazado_721840" data-name="Trazado 721840" d="M1405.086,367.74a6.125,6.125,0,0,1,2.146-12.061c7.3,1.3,14.671.635,19.716-1.773a6.125,6.125,0,1,1,5.279,11.055C1424.2,368.8,1414.063,369.337,1405.086,367.74Z" transform="translate(-33.333 -228.624)" fill="#63c5ed" stroke="#707070" stroke-width="3"/>
      <g id="Grupo_1007782" data-name="Grupo 1007782" transform="translate(1359.479 75.149)">
        <path id="Trazado_721841" data-name="Trazado 721841" d="M1405.086,367.74a6.125,6.125,0,0,1,2.146-12.061c7.3,1.3,14.671.635,19.716-1.773a6.125,6.125,0,1,1,5.279,11.055C1424.2,368.8,1414.063,369.337,1405.086,367.74Z" transform="translate(-1392.811 -303.773)" fill="none" stroke="#040505" stroke-linecap="round" stroke-linejoin="round" stroke-width="3"/>
        <path id="Trazado_721842" data-name="Trazado 721842" d="M1461.814,162.229a39.538,39.538,0,0,0-18.506-4.334c-21.4,0-35.816,14.719-35.816,32.876a28.151,28.151,0,0,0,.6,5.864" transform="translate(-1398.942 -143.16)" fill="none" stroke="#040505" stroke-linecap="round" stroke-linejoin="round" stroke-width="3"/>
        <path id="Trazado_721843" data-name="Trazado 721843" d="M1492,262.827a5.185,5.185,0,0,0,4.756,1.724,18.505,18.505,0,0,0,12.823-7.875,4,4,0,0,1,3.281-1.734c18.921-.031,35.723-9.758,35.723-28.5a31.668,31.668,0,0,0-12.077-25.146" transform="translate(-1468.403 -178.836)" fill="none" stroke="#040505" stroke-linecap="round" stroke-linejoin="round" stroke-width="3"/>
        <path id="Trazado_721844" data-name="Trazado 721844" d="M1440.418,436.236a28.3,28.3,0,0,0,6.547,5.691,4.05,4.05,0,0,1,1.891,3.462c-.02,1.593-.072,3.157-.213,4.531" transform="translate(-1426.004 -371.933)" fill="none" stroke="#040505" stroke-linecap="round" stroke-linejoin="round" stroke-width="3"/>
        <path id="Trazado_721845" data-name="Trazado 721845" d="M1700.749,452.041v2.245a6.125,6.125,0,1,0,12.25,0v-9.872" transform="translate(-1639.975 -378.654)" fill="none" stroke="#040505" stroke-linecap="round" stroke-linejoin="round" stroke-width="3"/>
        <g id="Grupo_1007779" data-name="Grupo 1007779" transform="translate(0 2.037)">
          <g id="Grupo_1007778" data-name="Grupo 1007778" transform="translate(4.551)">
            <path id="Trazado_721846" data-name="Trazado 721846" d="M1400.256,98.644a7.069,7.069,0,1,0-10,0l-5.227,5.227" transform="translate(-1385.032 -86.586)" fill="none" stroke="#040505" stroke-linecap="round" stroke-linejoin="round" stroke-width="3"/>
          </g>
          <line id="Línea_2698" data-name="Línea 2698" transform="translate(0 21.835)" fill="none" stroke="#040505" stroke-linecap="round" stroke-linejoin="round" stroke-width="3"/>
        </g>
        <g id="Grupo_1007781" data-name="Grupo 1007781" transform="translate(66.671)">
          <g id="Grupo_1007780" data-name="Grupo 1007780" transform="translate(4.551 4.55)">
            <path id="Trazado_721847" data-name="Trazado 721847" d="M1764.645,115.926a7.145,7.145,0,0,0,.745.649,7.07,7.07,0,1,0-.745-10.646l-5.227-5.227" transform="translate(-1759.418 -100.702)" fill="none" stroke="#040505" stroke-linecap="round" stroke-linejoin="round" stroke-width="3"/>
          </g>
          <line id="Línea_2699" data-name="Línea 2699" fill="none" stroke="#040505" stroke-linecap="round" stroke-linejoin="round" stroke-width="3"/>
        </g>
        <line id="Línea_2700" data-name="Línea 2700" y2="2.137" transform="translate(33.246 34.816)" fill="none" stroke="#040505" stroke-linecap="round" stroke-linejoin="round" stroke-width="3"/>
        <line id="Línea_2701" data-name="Línea 2701" y2="2.137" transform="translate(55.487 34.816)" fill="none" stroke="#040505" stroke-linecap="round" stroke-linejoin="round" stroke-width="3"/>
        <path id="Trazado_721848" data-name="Trazado 721848" d="M1534.95,257.655a3.888,3.888,0,0,0,4,0" transform="translate(-1503.702 -225.154)" fill="none" stroke="#040505" stroke-linecap="round" stroke-linejoin="round" stroke-width="3"/>
        <path id="Trazado_721849" data-name="Trazado 721849" d="M1592.152,285.381a16.9,16.9,0,0,1,5.864.787" transform="translate(-1550.718 -247.943)" fill="none" stroke="#040505" stroke-linecap="round" stroke-linejoin="round" stroke-width="3"/>
      </g>
    </g>
  </g>
</svg>
